<svg viewBox="0 0 20 20" fill="none" xmlns="http://www.w3.org/2000/svg">
<path fill-rule="evenodd" clip-rule="evenodd" d="M12.8359 3.46525C13.1554 3.60716 13.6352 3.66394 14.2211 3.24277L14.2211 3.24267C14.9837 2.69518 15.5632 3.2198 15.728 3.40104L14.8958 5.23125L13.6956 5.20015L12.8359 3.46525ZM15.3193 5.49507H15.3156L15.1443 5.49138L14.8175 5.48314C14.8093 5.45472 14.8111 5.42266 14.8239 5.39431L14.8971 5.23319L15.17 5.24053L15.2615 5.24328C15.4144 5.05745 15.9693 4.43583 16.5277 4.4221C16.7612 4.4166 16.9635 4.51368 17.1301 4.7105C17.175 4.76356 17.1686 4.84326 17.1155 4.88809C17.0624 4.93299 16.9827 4.92654 16.9379 4.87347C16.8207 4.73527 16.6888 4.67026 16.5332 4.6739C16.2723 4.6794 15.9821 4.87984 15.7569 5.08587C16.6394 5.00349 16.8564 5.50607 16.8655 5.52989C16.8921 5.59394 16.861 5.66814 16.7969 5.69375C16.7814 5.70014 16.7649 5.70288 16.7493 5.70288C16.7008 5.70288 16.6541 5.67357 16.634 5.62599C16.624 5.60402 16.4243 5.19206 15.5299 5.3724C15.5125 5.37604 15.4951 5.37604 15.4786 5.3724C15.4557 5.39986 15.4356 5.42457 15.4191 5.44565C15.3953 5.47675 15.3586 5.49507 15.3193 5.49507ZM14.8421 5.52833C16.372 7.26404 17.1969 8.59437 17.3644 9.595C17.51 10.4666 17.1282 10.9786 16.6942 11.4034C16.1101 11.9737 14.5125 12.372 13.153 12.0314C12.4563 11.8574 11.5536 11.417 11.203 10.3092C10.8771 9.28108 11.2002 8.16962 12.1625 7.00505C12.8634 6.15705 13.6686 5.58936 13.7363 5.54163L13.7408 5.53842C13.77 5.51824 13.7884 5.48803 13.7939 5.45508L14.8165 5.48164C14.8211 5.49901 14.8303 5.5146 14.8421 5.52833ZM15.6026 7.87599C15.5671 7.90859 15.519 7.9269 15.4688 7.9269H14.7231C14.8708 8.07149 14.9688 8.25287 15.0049 8.44837H15.4688C15.5189 8.44837 15.567 8.46668 15.6025 8.49928C15.638 8.53188 15.6579 8.57609 15.6579 8.62219C15.6579 8.66829 15.638 8.7125 15.6025 8.7451C15.567 8.7777 15.5189 8.79601 15.4688 8.79601H15.0048C14.9577 9.04037 14.8181 9.26157 14.6107 9.42059C14.4034 9.5796 14.1415 9.66621 13.8714 9.66511H13.7068L14.9615 10.7609C14.998 10.7938 15.0192 10.8386 15.0206 10.8856C15.0221 10.9326 15.0036 10.9784 14.9691 11.0132C14.9519 11.0297 14.9314 11.043 14.9087 11.0523C14.886 11.0616 14.8615 11.0666 14.8366 11.0672C14.8118 11.0677 14.787 11.0637 14.7639 11.0554C14.7407 11.0472 14.7195 11.0348 14.7016 11.0189L13.1013 9.6278C13.0739 9.60303 13.055 9.57144 13.0469 9.53693C13.0387 9.50241 13.0417 9.46646 13.0556 9.43351C13.0694 9.40055 13.0933 9.37201 13.1245 9.35139C13.1557 9.33078 13.1928 9.31899 13.2312 9.31747H13.8715C14.2313 9.31747 14.5342 9.11468 14.6188 8.79601H13.2312C13.1811 8.79601 13.1329 8.7777 13.0975 8.7451C13.062 8.7125 13.042 8.66829 13.042 8.62219C13.042 8.57609 13.062 8.53188 13.0975 8.49928C13.1329 8.46668 13.1811 8.44837 13.2312 8.44837H14.6188C14.5342 8.1297 14.2313 7.9269 13.8715 7.9269H13.2312C13.1811 7.9269 13.1329 7.90859 13.0975 7.87599C13.062 7.8434 13.042 7.79918 13.042 7.75308C13.042 7.70698 13.062 7.66277 13.0975 7.63017C13.1329 7.59758 13.1811 7.57926 13.2312 7.57926H15.4688C15.519 7.57926 15.5671 7.59758 15.6026 7.63017C15.6381 7.66277 15.658 7.70698 15.658 7.75308C15.658 7.79918 15.6381 7.8434 15.6026 7.87599ZM7.91324 12.1806C9.26977 12.1806 10.3694 10.9242 10.3694 9.37447C10.3694 7.8247 9.26977 6.56836 7.91324 6.56836C6.55671 6.56836 5.45703 7.8247 5.45703 9.37447C5.45703 10.9242 6.55671 12.1806 7.91324 12.1806ZM12.8248 16.3309C12.8248 17.6759 11.268 17.5972 9.42654 17.5041L9.4265 17.5041C8.93405 17.4792 8.42125 17.4533 7.91242 17.4533C7.40359 17.4533 6.89079 17.4792 6.39835 17.5041L6.3983 17.5041C4.55682 17.5972 3 17.6759 3 16.3309C3 14.6261 5.50081 13.2441 7.91242 13.2441C10.324 13.2441 12.8248 14.6261 12.8248 16.3309Z" fill="currentColor"/>
</svg>
