<svg viewBox="0 0 24 24" fill="none" xmlns="http://www.w3.org/2000/svg">
    <path
        d="M18.9212 11.0251L18.181 11.146L18.272 11.7026L18.8319 11.7698L18.9212 11.0251ZM7.71081 9.16477L7.50946 9.88723L8.08754 10.0483L8.37152 9.51968L7.71081 9.16477ZM19.6614 10.9041C19.1374 7.69724 16.3552 5.25 13 5.25V6.75C15.6083 6.75 17.7736 8.65284 18.181 11.146L19.6614 10.9041ZM22.75 14.5C22.75 12.3253 21.1173 10.5331 19.0105 10.2804L18.8319 11.7698C20.1938 11.9331 21.25 13.0938 21.25 14.5H22.75ZM18.5 18.75C20.8472 18.75 22.75 16.8472 22.75 14.5H21.25C21.25 16.0188 20.0188 17.25 18.5 17.25V18.75ZM13 18.75H18.5V17.25H13V18.75ZM6.5 18.75H13V17.25H6.5V18.75ZM1.25 13.5C1.25 16.3995 3.6005 18.75 6.5 18.75V17.25C4.42893 17.25 2.75 15.5711 2.75 13.5H1.25ZM6.5 8.25C3.6005 8.25 1.25 10.6005 1.25 13.5H2.75C2.75 11.4289 4.42893 9.75 6.5 9.75V8.25ZM7.91217 8.4423C7.46199 8.31684 6.98819 8.25 6.5 8.25V9.75C6.85078 9.75 7.18914 9.79796 7.50946 9.88723L7.91217 8.4423ZM13 5.25C10.4247 5.25 8.18753 6.69241 7.0501 8.80986L8.37152 9.51968C9.25801 7.86937 10.9989 6.75 13 6.75V5.25Z"
        fill="currentColor" />
    <path
        d="M6.16169 16C6.12063 16 6.08213 15.9857 6.0462 15.9571C6.0154 15.9286 6 15.8929 6 15.85C6 15.831 6.00513 15.8095 6.0154 15.7857L7.87098 11.1786C7.88638 11.131 7.91461 11.0905 7.95568 11.0571C8.00187 11.019 8.06347 11 8.14047 11H8.97971C9.05671 11 9.11574 11.019 9.1568 11.0571C9.19787 11.0905 9.22866 11.131 9.2492 11.1786L11.1048 15.7857C11.1099 15.8095 11.1125 15.831 11.1125 15.85C11.1125 15.8929 11.0971 15.9286 11.0663 15.9571C11.0355 15.9857 10.9996 16 10.9585 16H10.2886C10.2168 16 10.1629 15.9857 10.1269 15.9571C10.0961 15.9238 10.0756 15.8929 10.0653 15.8643L9.70347 14.9929H7.41671L7.05483 15.8643C7.04457 15.8929 7.02147 15.9238 6.98554 15.9571C6.95474 15.9857 6.90341 16 6.83155 16H6.16169ZM7.68619 14.1714H9.43399L8.55624 11.9643L7.68619 14.1714Z"
        fill="currentColor" />
    <path
        d="M12.0161 16C11.9648 16 11.9211 15.9833 11.8852 15.95C11.8493 15.9167 11.8313 15.8762 11.8313 15.8286V11.1786C11.8313 11.1262 11.8493 11.0833 11.8852 11.05C11.9211 11.0167 11.9648 11 12.0161 11H14.0796C14.4799 11 14.829 11.0595 15.1267 11.1786C15.4244 11.2929 15.6554 11.469 15.8197 11.7071C15.9839 11.9405 16.066 12.2333 16.066 12.5857C16.066 12.9429 15.9839 13.2381 15.8197 13.4714C15.6554 13.7 15.4244 13.8714 15.1267 13.9857C14.829 14.1 14.4799 14.1571 14.0796 14.1571H12.9323V15.8286C12.9323 15.8762 12.9144 15.9167 12.8784 15.95C12.8476 15.9833 12.804 16 12.7475 16H12.0161ZM12.9169 13.3643H14.0411C14.3388 13.3643 14.5672 13.3 14.7263 13.1714C14.8854 13.0381 14.965 12.8429 14.965 12.5857C14.965 12.3476 14.8906 12.1571 14.7417 12.0143C14.5929 11.8667 14.3593 11.7929 14.0411 11.7929H12.9169V13.3643Z"
        fill="currentColor" />
    <path
        d="M17.0915 16C17.0401 16 16.9965 15.9833 16.9606 15.95C16.9246 15.9167 16.9067 15.8762 16.9067 15.8286V11.1714C16.9067 11.1238 16.9246 11.0833 16.9606 11.05C16.9965 11.0167 17.0401 11 17.0915 11H17.8152C17.8717 11 17.9153 11.0167 17.9461 11.05C17.982 11.0833 18 11.1238 18 11.1714V15.8286C18 15.8762 17.982 15.9167 17.9461 15.95C17.9153 15.9833 17.8717 16 17.8152 16H17.0915Z"
        fill="currentColor" />
</svg>