<svg viewBox="0 0 24 24" fill="none" xmlns="http://www.w3.org/2000/svg">
    <path
        d="M15.46 17.48L16.43 18.12C16.99 18.5 17.75 18.09 17.75 17.41V15.6C19.02 15.6 20.09 15.18 20.83 14.43C21.58 13.69 22 12.62 22 11.35V6.25C22 3.7 20.3 2 17.75 2H9.25C6.7 2 5 3.7 5 6.25V9.02002C5.13 9.01002 5.25999 9 5.39999 9"
        stroke="currentColor" stroke-width="1.5" stroke-miterlimit="10" stroke-linecap="round"
        stroke-linejoin="round" />
    <path d="M6 15.2857L7.8 17L12 13" stroke="currentColor" stroke-width="1.5" stroke-linecap="round" />
    <path fill-rule="evenodd" clip-rule="evenodd"
        d="M9 21C12.3137 21 15 18.3137 15 15C15 11.6863 12.3137 9 9 9C5.68629 9 3 11.6863 3 15C3 18.3137 5.68629 21 9 21Z"
        stroke="currentColor" stroke-width="1.5" />
</svg>