<svg viewBox="0 0 20 20" fill="none" xmlns="http://www.w3.org/2000/svg">
<path fill-rule="evenodd" clip-rule="evenodd" d="M10.2996 2.05889C10.2043 2.01961 10.1021 1.9996 9.99896 2.00001C9.79173 2.00001 9.59299 2.08542 9.44646 2.23195C9.29993 2.37848 9.21761 2.57722 9.21761 2.78445V3.07454H4.43977H4.43668C4.40423 3.07454 4.3721 3.08093 4.34213 3.09335C4.31215 3.10576 4.28492 3.12396 4.26197 3.1469C4.23903 3.16985 4.22083 3.19708 4.20842 3.22706C4.196 3.25703 4.18961 3.28916 4.18961 3.32161V4.44577C4.18961 4.47821 4.196 4.51034 4.20842 4.54032C4.22083 4.57029 4.23903 4.59753 4.26197 4.62047C4.28492 4.64342 4.31215 4.66161 4.34213 4.67403C4.3721 4.68645 4.40423 4.69284 4.43668 4.69284H4.92402L2.4821 10.2395H2.33968C2.27416 10.2395 2.2144 10.2656 2.16807 10.3119C2.12173 10.3582 2.0957 10.4211 2.0957 10.4866C2.09584 10.8575 2.16931 11.2247 2.31189 11.5671C2.45446 11.9095 2.66333 12.2203 2.92647 12.4817C3.18773 12.7439 3.49817 12.952 3.83999 13.094C4.18182 13.236 4.54831 13.3092 4.91846 13.3094H5.68437C6.05505 13.3096 6.42212 13.2366 6.7645 13.0946C7.10689 12.9526 7.41782 12.7443 7.67945 12.4817C8.18903 11.969 8.50713 11.2649 8.50713 10.4866C8.50713 10.4211 8.4811 10.3582 8.43477 10.3119C8.38843 10.2656 8.32559 10.2395 8.26006 10.2395H8.06192L5.61713 4.69284H9.21761V14.6806H7.72578C7.44177 14.6802 7.16046 14.7358 6.89799 14.8443C6.63552 14.9528 6.39704 15.112 6.19621 15.3129C5.99539 15.5137 5.83616 15.7522 5.72766 16.0146C5.61916 16.2771 5.56352 16.5584 5.56393 16.8424C5.56393 16.908 5.58996 16.9708 5.63629 17.0171C5.68263 17.0635 5.74547 17.0895 5.811 17.0895H14.2453C14.3108 17.0895 14.3706 17.0635 14.4169 17.0171C14.4632 16.9708 14.4893 16.908 14.4893 16.8424C14.4897 16.5584 14.434 16.2771 14.3255 16.0146C14.217 15.7522 14.0578 15.5137 13.857 15.3129C13.6562 15.112 13.4177 14.9528 13.1552 14.8443C12.8927 14.7358 12.6114 14.6802 12.3274 14.6806H10.7834V4.69284H14.3246L11.8825 10.24H11.7439C11.6784 10.24 11.6125 10.266 11.5661 10.3123C11.5198 10.3587 11.4938 10.4215 11.4938 10.487C11.4935 10.8577 11.5665 11.2248 11.7085 11.5672C11.8506 11.9096 12.0589 12.2205 12.3214 12.4821C12.5827 12.7443 12.8931 12.9524 13.235 13.0944C13.5768 13.2365 13.9433 13.3097 14.3134 13.3098H15.0855C15.4557 13.3097 15.8222 13.2365 16.164 13.0944C16.5058 12.9524 16.8162 12.7443 17.0775 12.4821C17.5902 11.9695 17.9052 11.2653 17.9052 10.487C17.9052 10.4215 17.8792 10.3587 17.8328 10.3123C17.7865 10.266 17.7237 10.24 17.6581 10.24H17.4627L15.0206 4.69284H15.6165C15.6821 4.69284 15.7449 4.66681 15.7912 4.62047C15.8376 4.57414 15.8636 4.5113 15.8636 4.44577V3.32161C15.8636 3.25608 15.8376 3.19324 15.7912 3.1469C15.7449 3.10057 15.6821 3.07454 15.6165 3.07454H10.7834V2.78445C10.7838 2.68132 10.7638 2.57913 10.7245 2.48377C10.6852 2.38842 10.6275 2.30178 10.5546 2.22885C10.4816 2.15593 10.395 2.09816 10.2996 2.05889ZM14.6726 5.13096L12.4219 10.24H16.9233L14.6726 5.13096ZM5.27064 5.12763L3.0213 10.2395H7.52262L5.27064 5.12763ZM10.2893 3.07454V2.78445C10.2893 2.74647 10.2817 2.70887 10.2671 2.67382C10.2525 2.63877 10.2311 2.60697 10.2041 2.58026C10.1771 2.55354 10.145 2.53245 10.1098 2.5182C10.0746 2.50395 10.0369 2.49682 9.99896 2.49723V2.49414C9.96098 2.49414 9.92338 2.50167 9.88833 2.5163C9.85328 2.53092 9.82148 2.55236 9.79477 2.57936C9.76806 2.60635 9.74697 2.63838 9.73271 2.67359C9.71846 2.70879 9.71134 2.74647 9.71174 2.78445V3.07454H10.2893ZM5.95366 11.0569C5.97893 11.0569 6.00317 11.0482 6.02103 11.0328C6.0389 11.0174 6.04894 10.9966 6.04894 10.9748C6.04894 10.953 6.0389 10.9322 6.02103 10.9168C6.00317 10.9014 5.97893 10.8927 5.95366 10.8927H4.82677C4.8015 10.8927 4.77727 10.9014 4.7594 10.9168C4.74154 10.9322 4.7315 10.953 4.7315 10.9748C4.7315 10.9966 4.74154 11.0174 4.7594 11.0328C4.77727 11.0482 4.8015 11.0569 4.82677 11.0569H5.14922C5.33042 11.0569 5.48299 11.1526 5.52556 11.3031H4.82677C4.8015 11.3031 4.77727 11.3117 4.7594 11.3271C4.74154 11.3425 4.7315 11.3634 4.7315 11.3851C4.7315 11.4069 4.74154 11.4278 4.7594 11.4432C4.77727 11.4586 4.8015 11.4672 4.82677 11.4672H5.52557C5.48298 11.6177 5.33042 11.7134 5.14923 11.7134H4.82677C4.80743 11.7141 4.78876 11.7197 4.77304 11.7294C4.75733 11.7392 4.74525 11.7526 4.7383 11.7682C4.73135 11.7838 4.72983 11.8007 4.73392 11.817C4.73801 11.8333 4.74754 11.8482 4.76133 11.8599L5.56727 12.5168C5.57631 12.5242 5.58697 12.5301 5.59864 12.534C5.61031 12.5379 5.62277 12.5398 5.63528 12.5395C5.6478 12.5393 5.66014 12.5369 5.67159 12.5325C5.68303 12.5281 5.69336 12.5218 5.70198 12.514C5.71936 12.4976 5.72867 12.476 5.72796 12.4538C5.72725 12.4316 5.71657 12.4105 5.69817 12.3949L5.06628 11.8775H5.14919C5.28521 11.8781 5.41708 11.8372 5.52151 11.7621C5.62595 11.687 5.69624 11.5826 5.71998 11.4672H5.95363C5.9789 11.4672 6.00313 11.4586 6.021 11.4432C6.03887 11.4278 6.04891 11.4069 6.04891 11.3851C6.04891 11.3634 6.03887 11.3425 6.021 11.3271C6.00313 11.3117 5.9789 11.3031 5.95363 11.3031H5.72002C5.70184 11.2108 5.65248 11.1251 5.5781 11.0569H5.95366ZM15.5715 11.0328C15.5536 11.0482 15.5294 11.0569 15.5041 11.0569H15.1285C15.2029 11.1251 15.2523 11.2108 15.2704 11.3031H15.5041C15.5293 11.3031 15.5536 11.3117 15.5714 11.3271C15.5893 11.3425 15.5993 11.3634 15.5993 11.3851C15.5993 11.4069 15.5893 11.4278 15.5714 11.4432C15.5536 11.4586 15.5293 11.4672 15.5041 11.4672H15.2704C15.2467 11.5826 15.1764 11.687 15.0719 11.7621C14.9675 11.8372 14.8356 11.8781 14.6996 11.8775H14.6167L15.2486 12.3949C15.267 12.4105 15.2777 12.4316 15.2784 12.4538C15.2791 12.476 15.2698 12.4976 15.2524 12.514C15.2438 12.5218 15.2335 12.5281 15.222 12.5325C15.2106 12.5369 15.1982 12.5393 15.1857 12.5395C15.1732 12.5398 15.1607 12.5379 15.1491 12.534C15.1374 12.5301 15.1267 12.5242 15.1177 12.5168L14.3118 11.8599C14.298 11.8482 14.2884 11.8333 14.2843 11.817C14.2803 11.8007 14.2818 11.7838 14.2887 11.7682C14.2957 11.7526 14.3077 11.7392 14.3235 11.7294C14.3392 11.7197 14.3579 11.7141 14.3772 11.7134H14.6997C14.8808 11.7134 15.0334 11.6177 15.076 11.4672H14.3772C14.3519 11.4672 14.3277 11.4586 14.3098 11.4432C14.292 11.4278 14.2819 11.4069 14.2819 11.3851C14.2819 11.3634 14.292 11.3425 14.3098 11.3271C14.3277 11.3117 14.3519 11.3031 14.3772 11.3031H15.076C15.0334 11.1526 14.8808 11.0569 14.6996 11.0569H14.3772C14.3519 11.0569 14.3277 11.0482 14.3098 11.0328C14.292 11.0174 14.2819 10.9966 14.2819 10.9748C14.2819 10.953 14.292 10.9322 14.3098 10.9168C14.3277 10.9014 14.3519 10.8927 14.3772 10.8927H15.5041C15.5294 10.8927 15.5536 10.9014 15.5715 10.9168C15.5893 10.9322 15.5994 10.953 15.5994 10.9748C15.5994 10.9966 15.5893 11.0174 15.5715 11.0328Z" fill="currentColor"/>
</svg>
