<svg xmlns="http://www.w3.org/2000/svg" width="20" height="20" viewBox="0 0 20 20" fill="none">
<path fill-rule="evenodd" clip-rule="evenodd" d="M4.2705 9.83888C2.64331 11.4661 2.64331 14.1042 4.2705 15.7314L4.43322 15.8942C5.97053 17.4315 8.46302 17.4315 10.0003 15.8942C10.3258 15.5687 10.3258 15.0411 10.0003 14.7156C9.6749 14.3902 9.14726 14.3902 8.82182 14.7156C7.93538 15.6021 6.49817 15.6021 5.61173 14.7156L5.44901 14.5529C4.4727 13.5766 4.4727 11.9937 5.44901 11.0174L11.0212 5.44516C11.9947 4.47167 13.5731 4.47167 14.5466 5.44516C15.52 6.41865 15.52 7.99699 14.5466 8.97048L12.0067 11.5103C11.6523 11.8647 11.0778 11.8647 10.7234 11.5103C10.369 11.1559 10.369 10.5813 10.7234 10.227L13.2244 7.72593C13.5498 7.4005 13.5498 6.87286 13.2244 6.54742C12.899 6.22198 12.3713 6.22198 12.0459 6.54742L9.54486 9.04844C8.5396 10.0537 8.5396 11.6836 9.54486 12.6888C10.5501 13.6941 12.18 13.6941 13.1852 12.6888L15.7251 10.149C17.3494 8.52463 17.3494 5.89102 15.7251 4.26665C14.1007 2.64229 11.4671 2.64229 9.84272 4.26665L4.2705 9.83888Z" fill="currentColor"/>
</svg>