<svg viewBox="0 0 40 40" fill="none" xmlns="http://www.w3.org/2000/svg">
<path fill-rule="evenodd" clip-rule="evenodd" d="M21.5 22.9824V30.2108H18.5V22.9824H21.5Z" fill="currentColor"/>
<path fill-rule="evenodd" clip-rule="evenodd" d="M3.0918 8.2998H36.9085V21.4932L36.1662 21.9277C31.8091 24.4782 26.1247 25.9831 19.9918 25.9831C13.858 25.9831 8.19048 24.4778 3.83403 21.9277L3.0918 21.4932V8.2998ZM6.0918 11.2998V19.7539C9.84248 21.7588 14.6828 22.9831 19.9918 22.9831C25.3016 22.9831 30.1565 21.7585 33.9085 19.7538V11.2998H6.0918Z" fill="currentColor"/>
<path fill-rule="evenodd" clip-rule="evenodd" d="M14.8491 3.99951H25.1532L27.8066 10.1329L25.0532 11.324L23.1824 6.99951H16.8198L14.9486 11.3241L12.1953 10.1327L14.8491 3.99951Z" fill="currentColor"/>
<path fill-rule="evenodd" clip-rule="evenodd" d="M6.08027 23.7715L6.397 33.0004H33.6032L33.9199 23.7715L36.9182 23.8744L36.502 36.0004H3.49819L3.08203 23.8744L6.08027 23.7715Z" fill="currentColor"/>
</svg>
