<svg  viewBox="0 0 20 20" fill="none" xmlns="http://www.w3.org/2000/svg">
<path d="M5.83464 6.66699H3.33464C2.41797 6.66699 1.66797 5.91699 1.66797 5.00033V3.33366C1.66797 2.41699 2.41797 1.66699 3.33464 1.66699H5.83464C6.7513 1.66699 7.5013 2.41699 7.5013 3.33366V5.00033C7.5013 5.91699 6.7513 6.66699 5.83464 6.66699Z" fill="currentColor"/>
<path d="M17.332 5.83333H14.332C13.782 5.83333 13.332 5.38333 13.332 4.83333V3.5C13.332 2.95 13.782 2.5 14.332 2.5H17.332C17.882 2.5 18.332 2.95 18.332 3.5V4.83333C18.332 5.38333 17.882 5.83333 17.332 5.83333Z" fill="currentColor"/>
<path d="M17.332 12.0833H14.332C13.782 12.0833 13.332 11.6333 13.332 11.0833V9.75C13.332 9.2 13.782 8.75 14.332 8.75H17.332C17.882 8.75 18.332 9.2 18.332 9.75V11.0833C18.332 11.6333 17.882 12.0833 17.332 12.0833Z" fill="currentColor"/>
<path opacity="0.96" d="M13.3333 11.042C13.675 11.042 13.9583 10.7587 13.9583 10.417C13.9583 10.0753 13.675 9.79199 13.3333 9.79199H11.0417V4.79199H13.3333C13.675 4.79199 13.9583 4.50866 13.9583 4.16699C13.9583 3.82533 13.675 3.54199 13.3333 3.54199H7.5C7.15833 3.54199 6.875 3.82533 6.875 4.16699C6.875 4.50866 7.15833 4.79199 7.5 4.79199H9.79167V15.0003C9.79167 16.267 10.8167 17.292 12.0833 17.292H13.3333C13.675 17.292 13.9583 17.0087 13.9583 16.667C13.9583 16.3253 13.675 16.042 13.3333 16.042H12.0833C11.5083 16.042 11.0417 15.5753 11.0417 15.0003V11.042H13.3333Z" fill="currentColor"/>
<path d="M17.332 18.3333H14.332C13.782 18.3333 13.332 17.8833 13.332 17.3333V16C13.332 15.45 13.782 15 14.332 15H17.332C17.882 15 18.332 15.45 18.332 16V17.3333C18.332 17.8833 17.882 18.3333 17.332 18.3333Z" fill="currentColor"/>
</svg>
