<svg viewBox="0 0 20 20" fill="none" xmlns="http://www.w3.org/2000/svg">
<path fill-rule="evenodd" clip-rule="evenodd" d="M12.6026 10.741C14.7402 10.741 16.4731 9.00812 16.4731 6.87049C16.4731 4.73287 14.7402 3 12.6026 3C10.465 3 8.73211 4.73287 8.73211 6.87049C8.73211 9.00812 10.465 10.741 12.6026 10.741ZM14.3265 5.13866C14.3147 5.12521 14.3006 5.1147 14.2851 5.10774C14.2697 5.10079 14.253 5.09754 14.2364 5.0982H13.5665C13.5274 4.86304 13.4415 4.6414 13.3157 4.45052H14.2286C14.2604 4.45202 14.2916 4.43891 14.3151 4.41406C14.3386 4.38922 14.3526 4.35467 14.3538 4.31803C14.354 4.31423 14.354 4.31043 14.3538 4.30664V3.84777C14.3545 3.82963 14.3521 3.81151 14.3466 3.79446C14.3412 3.7774 14.3328 3.76175 14.3222 3.74838C14.3115 3.73502 14.2985 3.72421 14.2842 3.71657C14.2699 3.70893 14.2543 3.7046 14.2385 3.70384C14.2352 3.70368 14.2319 3.70368 14.2286 3.70384H10.9688C10.9529 3.70312 10.9371 3.70598 10.9222 3.71228C10.9074 3.71856 10.8937 3.72816 10.8821 3.7405C10.8705 3.75285 10.861 3.76771 10.8544 3.78424C10.8477 3.80076 10.844 3.81863 10.8434 3.83681V3.84788V4.44608C10.8439 4.48409 10.8572 4.52039 10.8806 4.54727C10.904 4.57416 10.9357 4.58948 10.9688 4.59H11.5369C12.088 4.59 12.438 4.75941 12.5869 5.09823H10.9688C10.9529 5.0975 10.9371 5.10037 10.9222 5.10666C10.9074 5.11295 10.8937 5.12254 10.8821 5.13489C10.8705 5.14724 10.861 5.1621 10.8544 5.17863C10.8477 5.19515 10.844 5.21302 10.8434 5.2312V5.24226V5.70109C10.8422 5.73778 10.8536 5.77354 10.8754 5.80051C10.8971 5.82747 10.9272 5.84341 10.9592 5.84485C10.9624 5.84501 10.9655 5.84498 10.9687 5.84485H12.6417C12.5843 6.09082 12.4504 6.27825 12.2401 6.40712C12.0298 6.53599 11.7523 6.6005 11.4075 6.60064H10.9688C10.9357 6.60116 10.9041 6.61646 10.8807 6.64329C10.8573 6.67013 10.8439 6.70638 10.8434 6.74435V7.31564C10.8431 7.33402 10.846 7.35229 10.8521 7.36931C10.8581 7.38632 10.8672 7.40174 10.8786 7.4146C11.3801 8.02628 12.0305 8.88237 12.8298 9.98292C12.841 10.0004 12.8559 10.0145 12.8729 10.0239C12.89 10.0334 12.9089 10.0378 12.9278 10.0369H13.6918C13.7158 10.0389 13.7397 10.0322 13.7601 10.0176C13.7805 10.003 13.7964 9.98144 13.8054 9.9559C13.8184 9.93218 13.8239 9.90403 13.821 9.87624C13.8182 9.84844 13.8072 9.82254 13.7898 9.80298C13.0271 8.72945 12.4277 7.92579 11.9914 7.39207C12.4355 7.3321 12.7959 7.16721 13.0728 6.89743C13.3497 6.62765 13.5181 6.27679 13.5782 5.84488H14.2364C14.2684 5.84632 14.2996 5.83313 14.3231 5.80819C14.3466 5.78326 14.3606 5.74862 14.3618 5.71191V5.70111V5.24216C14.3624 5.22305 14.3596 5.20401 14.3535 5.18621C14.3474 5.16842 14.3383 5.15223 14.3265 5.13866ZM5.75184 11.6116C6.34595 11.3073 7.23731 10.9183 7.74862 10.9183C8.65358 10.9183 10.2703 11.8841 11.4629 12.5965C11.6912 12.7329 11.904 12.86 12.0932 12.9692C12.3505 13.1177 12.435 13.4326 12.2865 13.6898C12.138 13.947 11.8226 14.0311 11.5654 13.8826L9.96602 12.9594C9.6554 12.7553 9.37004 13.2461 9.70107 13.4151L11.3025 14.3387C11.8051 14.6288 12.4541 14.4551 12.7442 13.9527C12.8602 13.7516 12.8989 13.5281 12.8752 13.3125L16.1889 12.1651C16.6691 12.0014 17.163 12.104 17.4063 12.5254C17.6599 12.9646 17.5124 13.5394 17.0635 13.7877C15.2896 14.8255 12.2443 16.5483 10.8005 17.088C10.5378 17.1861 10.3383 17.2515 10.1397 17.2515C9.49555 17.2515 8.90038 16.831 8.34695 16.4401C8.33356 16.4306 8.32019 16.4212 8.30684 16.4118C8.26578 16.3828 8.22244 16.3518 8.17735 16.3196C7.78721 16.0411 7.26689 15.6695 6.97444 15.6695C6.59482 15.684 6.25389 15.7378 5.9178 15.7964V12.2388C5.9178 12.011 5.85427 11.7992 5.75184 11.6116ZM2.22266 12.2394C2.22266 11.8053 2.57167 11.4461 3.01591 11.4461H4.59984C5.03126 11.4461 5.39 11.7953 5.39 12.2388V15.9319C5.39 16.3158 5.08121 16.7252 4.59932 16.7252H3.01076C2.57191 16.7223 2.22266 16.3648 2.22266 15.9325V12.2394ZM3.80711 15.4052C3.80711 15.2594 3.68895 15.1413 3.5432 15.1413C3.39745 15.1413 3.2793 15.2594 3.2793 15.4052C3.2793 15.5509 3.39745 15.6691 3.5432 15.6691C3.68895 15.6691 3.80711 15.5509 3.80711 15.4052Z" fill="currentColor"/>
</svg>
