<svg viewBox="0 0 20 20" fill="none" xmlns="http://www.w3.org/2000/svg">
<path fill-rule="evenodd" clip-rule="evenodd" d="M6.39057 3.88883C4.96387 3.88846 3.93103 5.02796 4.11904 6.25248C4.54521 9.0282 5.55894 11.2064 7.12641 12.7968C8.69262 14.3858 10.8739 15.451 13.7483 15.8923C14.9721 16.0803 16.1108 15.0481 16.1108 13.6212L16.1108 12.8129C16.1108 12.6866 16.0257 12.5762 15.9035 12.5442L13.7924 11.9908C13.7243 11.9729 13.6519 11.9816 13.59 12.0151L12.4041 12.6554C11.6369 13.0697 10.5847 13.2018 9.71336 12.5938C8.85897 11.9977 8.0008 11.1286 7.41163 10.2711C6.8104 9.3961 6.9425 8.34348 7.36207 7.57338L7.99594 6.40994C8.02898 6.34819 8.03798 6.2753 8.02022 6.20753L7.46686 4.09639C7.43484 3.97423 7.32445 3.88905 7.19816 3.88905L6.39057 3.88883ZM2.47168 6.50541C2.10083 4.09001 4.13512 2.22158 6.39101 2.22217L7.19815 2.22238C8.08207 2.22247 8.85495 2.81875 9.07907 3.67381L9.63242 5.78495C9.75739 6.26171 9.69664 6.76814 9.46246 7.20182L9.46098 7.20457L8.82562 8.37075C8.61281 8.76136 8.63798 9.11288 8.78529 9.32727C9.26285 10.0223 9.97956 10.7473 10.6671 11.227C10.875 11.3721 11.2214 11.3999 11.6122 11.1889L12.7981 10.5486C13.2318 10.3144 13.7382 10.2536 14.2149 10.3786L16.3261 10.932C17.1812 11.1561 17.7775 11.9289 17.7775 12.8129L17.7775 13.6212C17.7775 15.8762 15.9108 17.9106 13.4953 17.5397C10.3415 17.0554 7.80609 15.8606 5.93941 13.9667C4.07399 12.0741 2.93861 9.54662 2.47168 6.50541ZM12.2219 3.62237C12.2219 3.16213 12.595 2.78903 13.0553 2.78904L16.3886 2.78904C16.8488 2.78904 17.2219 3.16213 17.2219 3.62237V6.9557C17.2219 7.41594 16.8488 7.78904 16.3886 7.78904C15.9284 7.78904 15.5553 7.41594 15.5553 6.9557V5.63421L12.5334 8.65607C12.208 8.98151 11.6803 8.9815 11.3549 8.65607C11.0295 8.33063 11.0295 7.80299 11.3549 7.47756L14.3768 4.4557L13.0553 4.4557C12.595 4.4557 12.2219 4.08261 12.2219 3.62237Z" fill="currentColor"/>
</svg>
