<svg  viewBox="0 0 21 20" fill="none" xmlns="http://www.w3.org/2000/svg">
<path d="M6.88845 8.88894C6.42822 8.88894 6.05512 9.26204 6.05512 9.72228C6.05512 10.1825 6.42822 10.5556 6.88845 10.5556H7.44401C7.90425 10.5556 8.27734 10.1825 8.27734 9.72228C8.27734 9.26204 7.90425 8.88894 7.44401 8.88894H6.88845Z" fill="currentColor"/>
<path d="M9.11068 9.72228C9.11068 9.26204 9.48377 8.88894 9.94401 8.88894H10.4996C10.9598 8.88894 11.3329 9.26204 11.3329 9.72228C11.3329 10.1825 10.9598 10.5556 10.4996 10.5556H9.94401C9.48377 10.5556 9.11068 10.1825 9.11068 9.72228Z" fill="currentColor"/>
<path d="M9.94401 6.11117C9.48377 6.11117 9.11068 6.48426 9.11068 6.9445C9.11068 7.40474 9.48377 7.77783 9.94401 7.77783H10.4996C10.9598 7.77783 11.3329 7.40474 11.3329 6.9445C11.3329 6.48426 10.9598 6.11117 10.4996 6.11117H9.94401Z" fill="currentColor"/>
<path d="M6.05512 6.9445C6.05512 6.48426 6.42822 6.11117 6.88845 6.11117H7.44401C7.90425 6.11117 8.27734 6.48426 8.27734 6.9445C8.27734 7.40474 7.90425 7.77783 7.44401 7.77783H6.88845C6.42822 7.77783 6.05512 7.40474 6.05512 6.9445Z" fill="currentColor"/>
<path fill-rule="evenodd" clip-rule="evenodd" d="M3.27734 4.72228C3.27734 3.64839 4.1479 2.77783 5.22179 2.77783H12.1662C13.2401 2.77783 14.1107 3.64839 14.1107 4.72228V5.27783H15.7773C16.8512 5.27783 17.7218 6.14839 17.7218 7.22228V15.2778C17.7218 16.3517 16.8512 17.2223 15.7773 17.2223H5.22179C4.1479 17.2223 3.27734 16.3517 3.27734 15.2778V4.72228ZM7.99957 15.5556H9.38846V14.1667C9.38846 14.0133 9.26409 13.8889 9.11068 13.8889H8.27734C8.12393 13.8889 7.99957 14.0133 7.99957 14.1667V15.5556ZM11.0551 15.5556V14.1667C11.0551 13.0928 10.1846 12.2223 9.11068 12.2223H8.27734C7.20346 12.2223 6.3329 13.0928 6.3329 14.1667V15.5556H5.22179C5.06838 15.5556 4.94401 15.4312 4.94401 15.2778V4.72228C4.94401 4.56886 5.06838 4.4445 5.22179 4.4445H12.1662C12.3196 4.4445 12.444 4.56886 12.444 4.72228V15.2778C12.444 15.4312 12.3196 15.5556 12.1662 15.5556H11.0551ZM14.1107 15.2778V6.9445H15.7773C15.9308 6.9445 16.0551 7.06886 16.0551 7.22228V15.2778C16.0551 15.4312 15.9308 15.5556 15.7773 15.5556H14.091C14.104 15.4649 14.1107 15.3721 14.1107 15.2778Z" fill="currentColor"/>
</svg>
