<svg viewBox="0 0 20 20" fill="none" xmlns="http://www.w3.org/2000/svg">
<path fill-rule="evenodd" clip-rule="evenodd" d="M8.9216 2.93281C8.36298 2.93281 7.88775 3.32099 7.75435 3.8442H12.2399C12.1065 3.32099 11.6313 2.93281 11.0727 2.93281H8.9216ZM13.5072 3.8442H15.158C16.9089 3.8442 18.3346 5.28723 18.3346 7.05937C18.3346 7.05937 18.2846 7.80958 18.2679 8.8543C18.2663 8.937 18.2262 9.01801 18.1604 9.06695C17.7593 9.36316 17.3925 9.60788 17.3591 9.62476C15.9751 10.553 14.3668 11.2062 12.6535 11.5311C12.5417 11.553 12.4317 11.4948 12.375 11.3952C11.8947 10.5631 10.9976 10.0214 9.99713 10.0214C9.0033 10.0214 8.09785 10.5572 7.60344 11.3902C7.54591 11.488 7.43752 11.5446 7.32663 11.5235C5.62745 11.1977 4.01914 10.5454 2.64346 9.6332L1.84306 9.07624C1.77636 9.03404 1.73467 8.95809 1.73467 8.87371C1.70966 8.44333 1.66797 7.05937 1.66797 7.05937C1.66797 5.28723 3.09368 3.8442 4.84456 3.8442H6.48704C6.64546 2.62057 7.67097 1.66699 8.9216 1.66699H11.0727C12.3233 1.66699 13.3488 2.62057 13.5072 3.8442ZM18.0512 10.6797L18.0178 10.6966C16.3336 11.8274 14.3076 12.5784 12.1816 12.8906C11.8814 12.9328 11.5813 12.7387 11.4979 12.435C11.3145 11.743 10.7225 11.2873 10.0138 11.2873H10.0055H9.9888C9.28011 11.2873 8.68815 11.743 8.50472 12.435C8.42134 12.7387 8.1212 12.9328 7.82104 12.8906C5.69498 12.5784 3.66897 11.8274 1.98479 10.6966C1.97646 10.6881 1.89308 10.6375 1.82638 10.6797C1.75134 10.7219 1.75134 10.8231 1.75134 10.8231L1.80971 15.1269C1.80971 16.8991 3.22708 18.3337 4.97796 18.3337H15.0163C16.7672 18.3337 18.1846 16.8991 18.1846 15.1269L18.2513 10.8231C18.2513 10.8231 18.2513 10.7219 18.1762 10.6797C18.1345 10.6544 18.0845 10.6628 18.0512 10.6797ZM10.6224 14.2155C10.6224 14.57 10.3473 14.8484 9.99713 14.8484C9.6553 14.8484 9.37182 14.57 9.37182 14.2155V13.1269C9.37182 12.7809 9.6553 12.494 9.99713 12.494C10.3473 12.494 10.6224 12.7809 10.6224 13.1269V14.2155Z" fill="currentColor"/>
</svg>
