<svg viewBox="0 0 21 20" fill="none" xmlns="http://www.w3.org/2000/svg">
<path fill-rule="evenodd" clip-rule="evenodd" d="M3.99805 4.72266C3.99805 3.34194 5.11733 2.22266 6.49805 2.22266C7.58656 2.22266 8.51259 2.91833 8.85579 3.88932H12.4736C12.8168 2.91833 13.7429 2.22266 14.8314 2.22266C16.2121 2.22266 17.3314 3.34194 17.3314 4.72266C17.3314 6.10337 16.2121 7.22266 14.8314 7.22266C13.7429 7.22266 12.8168 6.52698 12.4736 5.55599H9.27583V8.11111C9.27583 8.87817 9.89765 9.5 10.6647 9.5H10.794C11.1029 8.62611 11.9364 8 12.916 8C14.1587 8 15.166 9.00736 15.166 10.25C15.166 11.4926 14.1587 12.5 12.916 12.5C11.9998 12.5 11.2116 11.9524 10.8606 11.1667H10.6647C10.1589 11.1667 9.68188 11.0438 9.26174 10.8263L9.26133 13.675C9.26133 14.6275 9.87362 15.437 10.7261 15.7314C10.9603 14.7388 11.8519 14 12.916 14C14.1587 14 15.166 15.0074 15.166 16.25C15.166 17.4926 14.1587 18.5 12.916 18.5C12.1268 18.5 11.4325 18.0937 11.0309 17.4788C9.10899 17.2763 7.61133 15.6505 7.61133 13.675L7.61211 8.325C7.61211 8.30858 7.61259 8.29227 7.61354 8.27608C7.61063 8.22146 7.60916 8.16646 7.60916 8.11111V6.96279C7.27445 7.12913 6.89717 7.22266 6.49805 7.22266C5.11733 7.22266 3.99805 6.10337 3.99805 4.72266ZM6.49805 3.88932C6.03781 3.88932 5.66471 4.26242 5.66471 4.72266C5.66471 5.18289 6.03781 5.55599 6.49805 5.55599C6.95828 5.55599 7.33138 5.18289 7.33138 4.72266C7.33138 4.26242 6.95828 3.88932 6.49805 3.88932ZM14.8314 3.88932C14.3711 3.88932 13.998 4.26242 13.998 4.72266C13.998 5.18289 14.3711 5.55599 14.8314 5.55599C15.2916 5.55599 15.6647 5.18289 15.6647 4.72266C15.6647 4.26242 15.2916 3.88932 14.8314 3.88932ZM13.666 10.25C13.666 10.6642 13.3302 11 12.916 11C12.5018 11 12.166 10.6642 12.166 10.25C12.166 9.83579 12.5018 9.5 12.916 9.5C13.3302 9.5 13.666 9.83579 13.666 10.25ZM12.916 17C13.3302 17 13.666 16.6642 13.666 16.25C13.666 15.8358 13.3302 15.5 12.916 15.5C12.5018 15.5 12.166 15.8358 12.166 16.25C12.166 16.6642 12.5018 17 12.916 17Z" fill="currentColor"/>
</svg>
