<svg viewBox="0 0 20 20" fill="none" xmlns="http://www.w3.org/2000/svg">
<path d="M5.1207 14.5C4.63497 14.5 4.19898 14.3974 3.81273 14.1923C3.42648 13.9872 3.09876 13.6913 2.82955 13.3047C2.56035 12.9142 2.35406 12.4408 2.21068 11.8846C2.07023 11.3284 2 10.6992 2 9.99704V9.98521C2 9.06213 2.12436 8.26529 2.37308 7.59467C2.6218 6.92406 2.97586 6.4073 3.43526 6.04438C3.89759 5.68146 4.44477 5.5 5.07681 5.5C5.59473 5.5 6.05852 5.62623 6.46818 5.8787C6.87783 6.13116 7.20995 6.48028 7.46452 6.92604C7.72202 7.36785 7.8771 7.8787 7.92977 8.45858L7.93416 8.51775H6.34528L6.3365 8.4645C6.2692 8.10552 6.12143 7.8215 5.8932 7.61243C5.66789 7.40335 5.39576 7.29882 5.07681 7.29882C4.77835 7.29882 4.52085 7.4073 4.30432 7.62426C4.09071 7.83728 3.92685 8.143 3.81273 8.54142C3.69861 8.9359 3.64155 9.40927 3.64155 9.96154V9.97337C3.64155 10.3955 3.67666 10.7742 3.74689 11.1095C3.81712 11.4448 3.91807 11.7308 4.04974 11.9675C4.18435 12.2041 4.34382 12.3856 4.52816 12.5118C4.71544 12.6381 4.92465 12.7012 5.15582 12.7012C5.39868 12.7012 5.61375 12.642 5.80102 12.5237C5.99122 12.4014 6.14045 12.2318 6.24872 12.0148C6.35991 11.7939 6.42136 11.5375 6.43306 11.2456L6.44184 11.1036H5.28749V9.60651H8V10.713C8 11.3008 7.93416 11.8294 7.80249 12.2988C7.67081 12.7643 7.48061 13.1607 7.23189 13.4882C6.98317 13.8156 6.68032 14.0661 6.32334 14.2396C5.96928 14.4132 5.5684 14.5 5.1207 14.5Z" fill="currentColor"/>
<path d="M10.9897 14.5C10.4934 14.5 10.0633 14.3974 9.69934 14.1923C9.3354 13.9832 9.05004 13.6893 8.84326 13.3107C8.63923 12.928 8.52619 12.4724 8.50414 11.9438L8.5 11.8373H9.95161L9.95575 11.8905C9.96953 12.0641 10.0219 12.2199 10.1129 12.358C10.2039 12.4921 10.3266 12.5986 10.481 12.6775C10.6354 12.7564 10.8132 12.7959 11.0145 12.7959C11.213 12.7959 11.3853 12.7564 11.5314 12.6775C11.6776 12.5986 11.7906 12.4882 11.8706 12.3462C11.9533 12.2041 11.9946 12.0444 11.9946 11.8669V11.8609C11.9946 11.6203 11.9216 11.4349 11.7754 11.3047C11.6293 11.1746 11.3812 11.0602 11.031 10.9615L10.4148 10.7899C9.78619 10.6124 9.32713 10.3126 9.03763 9.89053C8.7509 9.46844 8.60753 8.92406 8.60753 8.2574V8.25148C8.61028 7.69527 8.71368 7.21203 8.9177 6.80178C9.12173 6.38757 9.40157 6.06805 9.75724 5.8432C10.1129 5.6144 10.5196 5.5 10.9773 5.5C11.4763 5.5 11.8981 5.61243 12.2428 5.83728C12.5902 6.05819 12.859 6.36391 13.0492 6.75444C13.2395 7.14103 13.3497 7.58679 13.3801 8.09172L13.3842 8.16272H11.9781L11.9698 8.09763C11.9478 7.91617 11.894 7.76036 11.8085 7.63018C11.7258 7.49606 11.6141 7.39152 11.4735 7.31657C11.3329 7.24162 11.1703 7.20414 10.9855 7.20414C10.8063 7.20414 10.6519 7.24162 10.5223 7.31657C10.3927 7.38757 10.2921 7.48817 10.2204 7.61834C10.1515 7.74458 10.117 7.8925 10.117 8.06213V8.06805C10.117 8.31262 10.1887 8.50789 10.3321 8.65385C10.4782 8.79586 10.7126 8.91026 11.0352 8.99704L11.6514 9.16864C12.076 9.28698 12.4247 9.45069 12.6977 9.65976C12.9706 9.86884 13.1719 10.1351 13.3015 10.4586C13.4338 10.7821 13.5 11.1746 13.5 11.6361V11.642C13.5 12.2219 13.3994 12.7268 13.1981 13.1568C12.9996 13.5828 12.7128 13.9142 12.3379 14.1509C11.9629 14.3836 11.5135 14.5 10.9897 14.5Z" fill="currentColor"/>
<path d="M15.7348 14.5V7.33992H14V5.5H19V7.33992H17.2652V14.5H15.7348Z" fill="currentColor"/>
</svg>
