<svg viewBox="0 0 20 20" fill="none" xmlns="http://www.w3.org/2000/svg">
<path fill-rule="evenodd" clip-rule="evenodd" d="M17.7782 10.0004C17.7782 14.296 14.296 17.7782 10.0004 17.7782C5.70489 17.7782 2.22266 14.296 2.22266 10.0004C2.22266 5.70489 5.70489 2.22266 10.0004 2.22266C14.296 2.22266 17.7782 5.70489 17.7782 10.0004ZM13.6923 14.8708C12.6666 15.6494 11.3875 16.1115 10.0004 16.1115C6.62536 16.1115 3.88932 13.3755 3.88932 10.0004C3.88932 8.61337 4.35143 7.33425 5.1301 6.30861L13.6923 14.8708ZM14.8708 13.6923L6.30861 5.1301C7.33425 4.35143 8.61337 3.88932 10.0004 3.88932C13.3755 3.88932 16.1115 6.62536 16.1115 10.0004C16.1115 11.3875 15.6494 12.6666 14.8708 13.6923Z" fill="currentColor"/>
</svg>
