<svg viewBox="0 0 21 20" fill="none" xmlns="http://www.w3.org/2000/svg">
<path fill-rule="evenodd" clip-rule="evenodd" d="M15.9212 3.3335H7.85699C7.41773 3.33348 7.03871 3.33347 6.72659 3.35897C6.39713 3.38589 6.06945 3.44532 5.75413 3.60598C5.28373 3.84567 4.90128 4.22812 4.66159 4.69852C4.50093 5.01384 4.4415 5.34152 4.41458 5.67098C4.39734 5.88201 4.39176 6.12359 4.38996 6.39371C4.2308 6.39726 4.08358 6.40352 3.94881 6.41453C3.61935 6.44145 3.29167 6.50088 2.97635 6.66154C2.50595 6.90122 2.1235 7.28367 1.88381 7.75408C1.72315 8.06939 1.66372 8.39708 1.6368 8.72653C1.6113 9.03867 1.61131 9.41763 1.61133 9.85691V13.199C1.61131 13.6382 1.6113 14.0172 1.6368 14.3294C1.66372 14.6588 1.72315 14.9865 1.88381 15.3018C2.1235 15.7722 2.50595 16.1547 2.97635 16.3943C3.29167 16.555 3.61935 16.6144 3.94881 16.6414C4.26095 16.6669 4.63991 16.6668 5.07919 16.6668H13.1435C13.5828 16.6668 13.9617 16.6669 14.2739 16.6414C14.6033 16.6144 14.931 16.555 15.2463 16.3943C15.7167 16.1547 16.0992 15.7722 16.3388 15.3018C16.4995 14.9865 16.5589 14.6588 16.5859 14.3294C16.6031 14.1183 16.6087 13.8767 16.6105 13.6066C16.7696 13.6031 16.9169 13.5968 17.0516 13.5858C17.3811 13.5589 17.7088 13.4995 18.0241 13.3388C18.4945 13.0991 18.8769 12.7167 19.1166 12.2463C19.2773 11.9309 19.3367 11.6033 19.3636 11.2738C19.3891 10.9617 19.3891 10.5827 19.3891 10.1434V6.80136C19.3891 6.36208 19.3891 5.98311 19.3636 5.67098C19.3367 5.34152 19.2773 5.01384 19.1166 4.69852C18.8769 4.22812 18.4945 3.84567 18.0241 3.60598C17.7088 3.44532 17.3811 3.38589 17.0516 3.35897C16.7395 3.33347 16.3605 3.33348 15.9212 3.3335ZM11.8029 15.0002H13.1113C13.5918 15.0002 13.902 14.9995 14.1381 14.9802C14.3645 14.9617 14.4485 14.9303 14.4897 14.9093C14.6465 14.8294 14.7739 14.702 14.8538 14.5452C14.8748 14.504 14.9062 14.42 14.9247 14.1936C14.944 13.9575 14.9447 13.6473 14.9447 13.1668V9.88905C14.9447 9.40859 14.944 9.09836 14.9247 8.86225C14.9062 8.63586 14.8748 8.55193 14.8538 8.51073C14.7739 8.35393 14.6465 8.22644 14.4897 8.14655C14.4485 8.12555 14.3645 8.09416 14.1381 8.07566C13.902 8.05637 13.5918 8.05572 13.1113 8.05572H11.609C12.2952 8.96586 12.7224 10.2473 12.7224 11.6668C12.7224 12.9474 12.3747 14.1156 11.8029 15.0002ZM6.61365 8.05572C5.92748 8.96586 5.50022 10.2473 5.50022 11.6668C5.50022 12.9474 5.84791 14.1156 6.41972 15.0002H5.11133C4.63087 15.0002 4.32064 14.9995 4.08453 14.9802C3.85814 14.9617 3.77421 14.9303 3.73301 14.9093C3.5762 14.8294 3.44872 14.702 3.36882 14.5452C3.34783 14.504 3.31643 14.42 3.29794 14.1936C3.27864 13.9575 3.278 13.6473 3.278 13.1668V9.88905C3.278 9.40859 3.27864 9.09836 3.29794 8.86225C3.31643 8.63586 3.34783 8.55193 3.36882 8.51073C3.44872 8.35393 3.5762 8.22644 3.73301 8.14655C3.77421 8.12555 3.85814 8.09416 4.08453 8.07566C4.32064 8.05637 4.63087 8.05572 5.11133 8.05572H6.61365ZM13.1435 6.38905H6.05677C6.05849 6.14577 6.06315 5.96051 6.07571 5.8067C6.09421 5.58031 6.12561 5.49638 6.1466 5.45517C6.2265 5.29837 6.35398 5.17089 6.51078 5.09099C6.55199 5.07 6.63592 5.0386 6.86231 5.02011C7.09842 5.00081 7.40865 5.00017 7.88911 5.00017H15.8891C16.3696 5.00017 16.6798 5.00081 16.9159 5.02011C17.1423 5.0386 17.2262 5.07 17.2674 5.09099C17.4242 5.17089 17.5517 5.29837 17.6316 5.45517C17.6526 5.49638 17.684 5.58031 17.7025 5.8067C17.7218 6.04281 17.7224 6.35304 17.7224 6.8335V10.1113C17.7224 10.5917 17.7218 10.902 17.7025 11.1381C17.684 11.3645 17.6526 11.4484 17.6316 11.4896C17.5517 11.6464 17.4242 11.7739 17.2674 11.8538C17.2262 11.8748 17.1423 11.9062 16.9159 11.9247C16.8267 11.932 16.7269 11.9366 16.6113 11.9395V9.85692C16.6113 9.41763 16.6114 9.03867 16.5859 8.72653C16.5589 8.39708 16.4995 8.06939 16.3388 7.75408C16.0992 7.28367 15.7167 6.90122 15.2463 6.66154C14.931 6.50088 14.6033 6.44145 14.2739 6.41453C13.9617 6.38902 13.5827 6.38904 13.1435 6.38905ZM11.0558 11.6668C11.0558 12.7361 10.7403 13.6358 10.3136 14.2265C9.88538 14.8195 9.43877 15.0002 9.11133 15.0002C8.78389 15.0002 8.33728 14.8195 7.90902 14.2265C7.48235 13.6358 7.16688 12.7361 7.16688 11.6668C7.16688 10.5975 7.48235 9.69788 7.90902 9.10711C8.33728 8.51414 8.78389 8.3335 9.11133 8.3335C9.43877 8.3335 9.88538 8.51414 10.3136 9.10711C10.7403 9.69788 11.0558 10.5975 11.0558 11.6668Z" fill="currentColor"/>
</svg>
