<svg viewBox="0 0 20 20" fill="none" xmlns="http://www.w3.org/2000/svg">
<path fill-rule="evenodd" clip-rule="evenodd" d="M13.7337 16.6673H8.35365C7.4505 16.6673 6.72204 16.6673 6.13214 16.6191C5.52476 16.5695 4.99127 16.4647 4.4977 16.2132C3.71369 15.8137 3.07627 15.1763 2.6768 14.3923C2.42531 13.8987 2.32046 13.3652 2.27084 12.7578C2.22264 12.1679 2.22265 11.4395 2.22266 10.5363V10.5363V9.46497V9.46496C2.22265 8.56181 2.22264 7.83336 2.27084 7.24346C2.32046 6.63609 2.42531 6.1026 2.6768 5.60902C3.07627 4.82502 3.71369 4.1876 4.4977 3.78812C4.99127 3.53663 5.52476 3.43179 6.13214 3.38217C6.72203 3.33397 7.45049 3.33398 8.35363 3.33398H12.5004C12.9607 3.33398 13.3338 3.70708 13.3338 4.16732C13.3338 4.62755 12.9607 5.00065 12.5004 5.00065H11.5387C11.5293 5.00054 11.5198 5.00049 11.5104 5.00049H6.3104C4.98492 5.00049 3.9104 6.07501 3.9104 7.40049V7.72819C3.88973 8.18691 3.88932 8.75484 3.88932 9.50065V10.5006C3.88932 11.2465 3.88973 11.8144 3.9104 12.2731V12.6005C3.9104 13.926 4.98492 15.0005 6.3104 15.0005H7.99737C8.12234 15.0006 8.25286 15.0007 8.38932 15.0007H11.127C11.1269 15.0006 11.1268 15.0005 11.1267 15.0005H13.7586C13.7587 15.0005 13.7587 15.0005 13.7587 15.0005C13.7604 15.0005 13.762 15.0005 13.7637 15.0005H13.9104V14.995C14.3585 14.9664 14.7939 14.8292 15.1785 14.5942C15.4058 14.4553 15.6008 14.2695 15.7504 14.0492L15.7661 14.026C15.9912 13.6946 16.1115 13.3032 16.1115 12.9026V11.4467C16.1115 10.9864 16.4846 10.6133 16.9449 10.6133C17.4051 10.6133 17.7782 10.9864 17.7782 11.4467V12.9026C17.7782 13.6372 17.5576 14.3548 17.1449 14.9624L17.1292 14.9856C16.8461 15.4023 16.4774 15.7537 16.0475 16.0164C15.3508 16.4421 14.5502 16.6673 13.7337 16.6673Z" fill="currentColor"/>
<path d="M10.1431 12.6113C10.4958 12.8283 10.6058 13.2903 10.3887 13.6431C10.1717 13.9958 9.7097 14.1058 9.35693 13.8887L6.54278 12.157C5.77433 11.6841 6.10947 10.5 7.01177 10.5C7.47538 10.5 7.86443 10.1808 7.97107 9.7501H6.75C6.33579 9.7501 6 9.41432 6 9.0001C6 8.58589 6.33579 8.2501 6.75 8.2501H8V7.5H6.75C6.33579 7.5 6 7.16421 6 6.75C6 6.33579 6.33579 6 6.75 6H10.25C10.6642 6 11 6.33579 11 6.75C11 7.16421 10.6642 7.5 10.25 7.5H9.5V8.2501H10.25C10.6642 8.2501 11 8.58589 11 9.0001C11 9.41432 10.6642 9.7501 10.25 9.7501H9.48873C9.41762 10.4984 9.01511 11.1501 8.42959 11.5568L10.1431 12.6113Z" fill="currentColor"/>
<path d="M18.9453 4.83323C18.9453 4.37299 18.5722 3.99989 18.112 3.99989C17.6517 3.99989 17.2786 4.37299 17.2786 4.83323V5.38878C17.2786 6.46267 16.4081 7.33323 15.3342 7.33323H14.846L15.3679 6.81137C15.6933 6.48593 15.6933 5.9583 15.3679 5.63286C15.0425 5.30742 14.5148 5.30742 14.1894 5.63286L12.2449 7.5773C11.9195 7.90274 11.9195 8.43038 12.2449 8.75581L14.1894 10.7003C14.5148 11.0257 15.0425 11.0257 15.3679 10.7003C15.6933 10.3748 15.6933 9.84718 15.3679 9.52175L14.846 8.99989H15.3342C17.3286 8.99989 18.9453 7.38314 18.9453 5.38878V4.83323Z" fill="currentColor"/>
</svg>
