<svg viewBox="0 0 20 20" fill="none" xmlns="http://www.w3.org/2000/svg">
<path d="M4.03389 8.67795C4.76439 5.38287 8.02776 3.30388 11.3228 4.03438C11.7722 4.13399 12.2172 3.85049 12.3168 3.40116C12.4164 2.95184 12.1329 2.50683 11.6836 2.40722C7.48984 1.47749 3.33646 4.12349 2.40673 8.31721C1.477 12.5109 4.123 16.6643 8.31672 17.594C12.5105 18.5238 16.6638 15.8778 17.5936 11.6841C17.6932 11.2347 17.4097 10.7897 16.9603 10.6901C16.511 10.5905 16.066 10.874 15.9664 11.3233C15.2359 14.6184 11.9725 16.6974 8.67746 15.9669C5.38239 15.2364 3.30339 11.973 4.03389 8.67795Z" fill="currentColor"/>
<path d="M18.3352 14.3521C18.4925 14.7352 18.9307 14.9183 19.3138 14.761C19.697 14.6037 19.8801 14.1655 19.7228 13.7823L18.1114 9.85763C17.9543 9.47503 17.5171 9.29181 17.1342 9.4481L13.1978 11.0546C12.8143 11.2111 12.6303 11.6489 12.7868 12.0324C12.9433 12.4159 13.3811 12.5999 13.7646 12.4434L17.008 11.1197L18.3352 14.3521Z" fill="currentColor"/>
<path d="M11.6034 13.3458C11.9954 13.587 12.1176 14.1003 11.8764 14.4923C11.6352 14.8843 11.1219 15.0065 10.7299 14.7653L7.60309 12.8411C6.74925 12.3156 7.12163 11 8.12419 11C8.63931 11 9.07159 10.6453 9.19008 10.1668H7.83333C7.3731 10.1668 7 9.79369 7 9.33345C7 8.87321 7.3731 8.50012 7.83333 8.50012H9.22222V7.66667H7.83333C7.3731 7.66667 7 7.29357 7 6.83333C7 6.3731 7.3731 6 7.83333 6H11.7222C12.1825 6 12.5556 6.3731 12.5556 6.83333C12.5556 7.29357 12.1825 7.66667 11.7222 7.66667H10.8889V8.50012H11.7222C12.1825 8.50012 12.5556 8.87321 12.5556 9.33345C12.5556 9.79369 12.1825 10.1668 11.7222 10.1668H10.8764C10.7974 10.9982 10.3501 11.7223 9.69955 12.1742L11.6034 13.3458Z" fill="currentColor"/>
</svg>
