<svg viewBox="0 0 20 20" fill="none" xmlns="http://www.w3.org/2000/svg">
<path fill-rule="evenodd" clip-rule="evenodd" d="M3.89019 2.22266C2.66289 2.22266 1.66797 3.21758 1.66797 4.44488V8.61154C1.66797 9.07178 2.04106 9.44488 2.5013 9.44488H4.72352V14.2886C4.72352 15.4392 5.65626 16.372 6.80686 16.372C7.95745 16.372 8.89019 15.4392 8.89019 14.2886V13.6164C8.89019 13.1535 9.26547 12.7782 9.72838 12.7782H15.5569V4.44489C15.5569 3.21759 14.5619 2.22266 13.3346 2.22266H3.8964L3.89019 2.22266ZM3.88779 3.88933C3.58207 3.89062 3.33464 4.13885 3.33464 4.44488V7.77821H4.44575V4.44489C4.44575 4.40653 4.44186 4.36908 4.43446 4.33291C4.38265 4.07976 4.15866 3.88933 3.89019 3.88933L3.88779 3.88933ZM8.33463 5.55599C7.8744 5.55599 7.5013 5.92909 7.5013 6.38932C7.5013 6.84956 7.8744 7.22266 8.33463 7.22266H11.668C12.1282 7.22266 12.5013 6.84956 12.5013 6.38932C12.5013 5.92909 12.1282 5.55599 11.668 5.55599H8.33463ZM7.5013 9.72266C7.5013 9.26242 7.8744 8.88932 8.33463 8.88932H11.668C12.1282 8.88932 12.5013 9.26242 12.5013 9.72266C12.5013 10.1829 12.1282 10.556 11.668 10.556H8.33463C7.8744 10.556 7.5013 10.1829 7.5013 9.72266Z" fill="currentColor"/>
<path d="M18.6124 14.1671H10.2791V14.2886C10.2791 16.1604 8.79795 17.6863 6.94375 17.7582C6.84622 17.7716 6.75378 17.7782 6.66797 17.7782H16.168C17.518 17.7782 18.6124 16.6838 18.6124 15.3338V14.1671Z" fill="currentColor"/>
</svg>
