<svg viewBox="0 0 20 20" fill="none" xmlns="http://www.w3.org/2000/svg">
<path d="M11.944 2.78125C11.4838 2.78125 11.1107 3.15435 11.1107 3.61458C11.1107 4.07482 11.4838 4.44792 11.944 4.44792H14.3766L8.85475 9.96977C8.52932 10.2952 8.52932 10.8228 8.85475 11.1483C9.18019 11.4737 9.70783 11.4737 10.0333 11.1483L15.5551 5.62643V8.05903C15.5551 8.51927 15.9282 8.89236 16.3885 8.89236C16.8487 8.89236 17.2218 8.51927 17.2218 8.05903V3.61458C17.2218 3.15435 16.8487 2.78125 16.3885 2.78125H11.944Z" fill="currentColor"/>
<path d="M15.5551 11.0784C15.5551 10.6181 15.182 10.245 14.7218 10.245C14.2615 10.245 13.8885 10.6181 13.8885 11.0784V14.1701C13.8885 14.9372 13.2666 15.559 12.4996 15.559H5.8329C5.06584 15.559 4.44401 14.9372 4.44401 14.1701L4.44401 7.50347C4.44401 6.73641 5.06584 6.11458 5.8329 6.11458L8.92469 6.11458C9.38492 6.11458 9.75802 5.74149 9.75802 5.28125C9.75802 4.82101 9.38492 4.44792 8.92469 4.44792L5.8329 4.44792C4.14536 4.44792 2.77734 5.81594 2.77734 7.50347V14.1701C2.77734 15.8577 4.14536 17.2257 5.8329 17.2257H12.4996C14.1871 17.2257 15.5551 15.8577 15.5551 14.1701V11.0784Z" fill="currentColor"/>
</svg>
