<svg viewBox="0 0 16 16" fill="none" xmlns="http://www.w3.org/2000/svg">
<path fill-rule="evenodd" clip-rule="evenodd" d="M6.20078 2.80313C6.20078 2.47175 5.93215 2.20312 5.60078 2.20312C5.26941 2.20312 5.00078 2.47175 5.00078 2.80313V3.12845C4.80408 3.17449 4.6178 3.2389 4.43881 3.33011C3.87432 3.61773 3.41538 4.07667 3.12776 4.64115C2.94669 4.99653 2.8712 5.38064 2.83547 5.81795C2.80077 6.24268 2.80078 6.76717 2.80078 7.41743V8.62807C2.80078 9.2601 2.80077 9.7699 2.83361 10.1831C2.8674 10.6084 2.93878 10.9825 3.11016 11.33C3.40225 11.9223 3.88162 12.4017 4.47392 12.6937C4.82144 12.8651 5.19548 12.9365 5.62082 12.9703C6.03399 13.0031 6.54375 13.0031 7.17574 13.0031H7.20078C7.53215 13.0031 7.80078 12.7345 7.80078 12.4031C7.80078 12.0718 7.53215 11.8031 7.20078 11.8031C6.53796 11.8031 6.07593 11.8027 5.71587 11.7741C5.36253 11.746 5.15903 11.6936 5.00466 11.6175C4.64928 11.4422 4.36166 11.1546 4.18641 10.7992C4.11028 10.6449 4.05791 10.4414 4.02983 10.088C4.00122 9.72798 4.00078 9.26594 4.00078 8.60313V7.60313H12.0008V8.80313C12.0008 9.1345 12.2694 9.40313 12.6008 9.40313C12.9322 9.40313 13.2008 9.1345 13.2008 8.80313V7.41743C13.2008 6.76716 13.2008 6.24268 13.1661 5.81795C13.1304 5.38064 13.0549 4.99653 12.8738 4.64115C12.5862 4.07667 12.1272 3.61773 11.5628 3.33011C11.3838 3.2389 11.1975 3.17449 11.0008 3.12845V2.80313C11.0008 2.47175 10.7322 2.20312 10.4008 2.20312C10.0694 2.20312 9.80078 2.47175 9.80078 2.80313V3.01C9.502 3.00312 9.16561 3.00312 8.78647 3.00313H7.2151C6.83595 3.00312 6.49956 3.00312 6.20078 3.01V2.80313ZM11.9936 6.40313C11.9891 6.22059 11.9819 6.06011 11.9701 5.91567C11.9404 5.55257 11.8851 5.34396 11.8046 5.18594C11.632 4.84725 11.3567 4.57189 11.018 4.39931C10.86 4.3188 10.6513 4.2635 10.2882 4.23383C9.91813 4.20359 9.44275 4.20313 8.76078 4.20313H7.24078C6.55882 4.20313 6.08343 4.20359 5.71333 4.23383C5.35023 4.2635 5.14161 4.3188 4.9836 4.39931C4.64491 4.57189 4.36954 4.84725 4.19697 5.18594C4.11646 5.34396 4.06115 5.55257 4.03149 5.91567C4.01969 6.06011 4.01242 6.22059 4.00795 6.40313H11.9936Z" fill="currentColor"/>
<path d="M13.825 10.1789C14.0594 10.4132 14.0594 10.7931 13.825 11.0274L11.025 13.8274C10.7907 14.0617 10.4108 14.0617 10.1765 13.8274L8.77652 12.4274C8.5422 12.1931 8.5422 11.8132 8.77652 11.5789C9.01083 11.3445 9.39073 11.3445 9.62505 11.5789L10.6008 12.5546L12.9765 10.1789C13.2108 9.94455 13.5907 9.94455 13.825 10.1789Z" fill="currentColor"/>
</svg>
