<svg viewBox="0 0 21 20" fill="none" xmlns="http://www.w3.org/2000/svg">
<path fill-rule="evenodd" clip-rule="evenodd" d="M13.0111 16.6673H7.631C6.72784 16.6673 5.99938 16.6673 5.40948 16.6191C4.80211 16.5695 4.26862 16.4647 3.77504 16.2132C2.99103 15.8137 2.35361 15.1763 1.95414 14.3923C1.70265 13.8987 1.59781 13.3652 1.54818 12.7578C1.49999 12.1679 1.49999 11.4395 1.5 10.5363V10.5363V9.46497V9.46496C1.49999 8.56181 1.49999 7.83336 1.54818 7.24346C1.59781 6.63609 1.70265 6.1026 1.95414 5.60902C2.35361 4.82502 2.99103 4.1876 3.77504 3.78812C4.26862 3.53663 4.80211 3.43179 5.40948 3.38217C5.99938 3.33397 6.72783 3.33398 7.63097 3.33398H11.7778C12.238 3.33398 12.6111 3.70708 12.6111 4.16732C12.6111 4.62755 12.238 5.00065 11.7778 5.00065H10.816C10.8066 5.00054 10.7972 5.00049 10.7877 5.00049H5.58774C4.26226 5.00049 3.18774 6.07501 3.18774 7.40049V7.72819C3.16707 8.18691 3.16667 8.75484 3.16667 9.50065V10.5006C3.16667 11.2465 3.16707 11.8144 3.18774 12.2731V12.6005C3.18774 13.926 4.26226 15.0005 5.58774 15.0005H7.27471C7.39969 15.0006 7.5302 15.0007 7.66667 15.0007H10.4043C10.4042 15.0006 10.4041 15.0005 10.4041 15.0005H13.036C13.036 15.0005 13.036 15.0005 13.036 15.0005C13.0377 15.0005 13.0394 15.0005 13.041 15.0005H13.1877V14.995C13.6358 14.9664 14.0712 14.8292 14.4559 14.5942C14.6831 14.4553 14.8781 14.2695 15.0277 14.0492L15.0435 14.026C15.2686 13.6946 15.3889 13.3032 15.3889 12.9026V11.4467C15.3889 10.9864 15.762 10.6133 16.2222 10.6133C16.6825 10.6133 17.0556 10.9864 17.0556 11.4467V12.9026C17.0556 13.6372 16.8349 14.3548 16.4222 14.9624L16.4065 14.9856C16.1235 15.4023 15.7547 15.7537 15.3249 16.0164C14.6282 16.4421 13.8275 16.6673 13.0111 16.6673Z" fill="currentColor"/>
<path d="M9.42042 12.6113C9.77319 12.8283 9.88318 13.2903 9.66609 13.6431C9.449 13.9958 8.98704 14.1058 8.63427 13.8887L5.82012 12.157C5.05167 11.6841 5.38681 10.5 6.28911 10.5C6.75272 10.5 7.14177 10.1808 7.24841 9.7501H6.02734C5.61313 9.7501 5.27734 9.41432 5.27734 9.0001C5.27734 8.58589 5.61313 8.2501 6.02734 8.2501H7.27734V7.5H6.02734C5.61313 7.5 5.27734 7.16421 5.27734 6.75C5.27734 6.33579 5.61313 6 6.02734 6H9.52734C9.94156 6 10.2773 6.33579 10.2773 6.75C10.2773 7.16421 9.94156 7.5 9.52734 7.5H8.77734V8.2501H9.52734C9.94156 8.2501 10.2773 8.58589 10.2773 9.0001C10.2773 9.41432 9.94156 9.7501 9.52734 9.7501H8.76608C8.69497 10.4984 8.29245 11.1501 7.70694 11.5568L9.42042 12.6113Z" fill="currentColor"/>
<path d="M15.5273 5.5C15.5273 5.08579 15.1916 4.75 14.7773 4.75C14.3631 4.75 14.0273 5.08579 14.0273 5.5V6.79289C14.0273 7.12441 14.159 7.44236 14.3935 7.67678L15.247 8.53033C15.5399 8.82322 16.0148 8.82322 16.3077 8.53033C16.6006 8.23744 16.6006 7.76256 16.3077 7.46967L15.5273 6.68934V5.5Z" fill="currentColor"/>
<path fill-rule="evenodd" clip-rule="evenodd" d="M15.2773 10.5C17.2103 10.5 18.7773 8.933 18.7773 7C18.7773 5.067 17.2103 3.5 15.2773 3.5C13.3443 3.5 11.7773 5.067 11.7773 7C11.7773 8.933 13.3443 10.5 15.2773 10.5ZM15.2773 12C18.0388 12 20.2773 9.76142 20.2773 7C20.2773 4.23858 18.0388 2 15.2773 2C12.5159 2 10.2773 4.23858 10.2773 7C10.2773 9.76142 12.5159 12 15.2773 12Z" fill="currentColor"/>
</svg>
