<svg viewBox="0 0 20 20" fill="none" xmlns="http://www.w3.org/2000/svg">
<path d="M9.99986 6C10.4141 6.00001 10.7499 6.3358 10.7498 6.75001L10.7498 10.25C10.7498 10.6642 10.414 11 9.99978 11C9.58556 11 9.24978 10.6642 9.24979 10.25L9.24985 6.74999C9.24985 6.33577 9.58565 5.99999 9.99986 6Z" fill="currentColor"/>
<path d="M10.9998 13C10.9998 13.5523 10.5521 14 9.99985 14C9.44756 14 8.99985 13.5523 8.99985 13C8.99985 12.4477 9.44756 12 9.99985 12C10.5521 12 10.9998 12.4477 10.9998 13Z" fill="currentColor"/>
<path fill-rule="evenodd" clip-rule="evenodd" d="M11.2373 3.17663C10.5539 2.49321 9.44583 2.49321 8.76241 3.17663L3.17663 8.76241C2.49321 9.44583 2.49321 10.5539 3.17663 11.2373L8.76241 16.8231C9.44583 17.5065 10.5539 17.5065 11.2373 16.8231L16.8231 11.2373C17.5065 10.5539 17.5065 9.44583 16.8231 8.76241L11.2373 3.17663ZM9.82307 4.23729C9.9207 4.13965 10.079 4.13966 10.1766 4.23729L15.7624 9.82307C15.86 9.9207 15.86 10.079 15.7624 10.1766L10.1766 15.7624C10.079 15.86 9.9207 15.86 9.82307 15.7624L4.23729 10.1766C4.13965 10.079 4.13966 9.9207 4.23729 9.82307L9.82307 4.23729Z" fill="currentColor"/>
</svg>
