<svg viewBox="0 0 20 20" fill="none" xmlns="http://www.w3.org/2000/svg">
<path d="M16.2493 15.8335H12.916" stroke="currentColor" stroke-width="1.5" stroke-linecap="round" stroke-linejoin="round"/>
<path d="M15 18.0167L17.1333 15.8833L15 13.75" stroke="currentColor" stroke-width="1.5" stroke-miterlimit="10" stroke-linecap="round" stroke-linejoin="round"/>
<path d="M10.1243 9.05817C10.041 9.04984 9.94102 9.04984 9.84935 9.05817C7.86602 8.9915 6.29102 7.3665 6.29102 5.3665C6.29102 3.32484 7.94102 1.6665 9.99102 1.6665C12.0327 1.6665 13.691 3.32484 13.691 5.3665C13.6827 7.3665 12.1077 8.9915 10.1243 9.05817Z" stroke="currentColor" stroke-width="1.5" stroke-linecap="round" stroke-linejoin="round"/>
<path d="M9.99219 18.1751C8.47552 18.1751 6.96719 17.7917 5.81719 17.0251C3.80052 15.6751 3.80052 13.4751 5.81719 12.1334C8.10885 10.6001 11.8672 10.6001 14.1589 12.1334" stroke="currentColor" stroke-width="1.5" stroke-linecap="round" stroke-linejoin="round"/>
</svg>
