<svg viewBox="0 0 20 20" fill="none" xmlns="http://www.w3.org/2000/svg">
<path d="M9.16602 6.66659L7.92164 6.0444C7.64393 5.90554 7.3377 5.83325 7.02721 5.83325H6.66111C6.13068 5.83325 5.62197 6.04397 5.2469 6.41904L4.7518 6.91413C4.37673 7.28921 4.16602 7.79791 4.16602 8.32835L4.16602 12.2629C4.16602 12.9316 4.50022 13.5561 5.05662 13.927L7.92347 15.8382C8.66044 16.3295 9.6328 16.2776 10.3132 15.7106L14.166 12.4999" stroke="currentColor" stroke-width="1.5"/>
<path fill-rule="evenodd" clip-rule="evenodd" d="M12.2245 11.0002C11.6211 10.1922 10.5085 9.95711 9.63178 10.4554L8.34147 11.1887C7.8448 11.471 7.22075 11.3867 6.81679 10.9827V10.9827C6.28902 10.455 6.32835 9.58795 6.90173 9.11013L10.2777 6.29681C10.6371 5.99728 11.0902 5.83325 11.5581 5.83325H12.0285C12.339 5.83325 12.6452 5.90554 12.9229 6.0444L14.7284 6.94713C15.406 7.28592 15.834 7.97844 15.834 8.73599L15.834 9.81288C15.834 11.737 13.3758 12.5418 12.2245 11.0002V11.0002Z" stroke="currentColor" stroke-width="1.5"/>
<path d="M0.833333 14.1667V6.66675" stroke="currentColor" stroke-width="1.5" stroke-linecap="round"/>
<path d="M0.833333 14.1667V6.66675" stroke="currentColor" stroke-width="1.5" stroke-linecap="round"/>
<path d="M19.1673 14.1667V6.66675" stroke="currentColor" stroke-width="1.5" stroke-linecap="round"/>
</svg>
