<svg viewBox="0 0 20 20" fill="none" xmlns="http://www.w3.org/2000/svg">
<path d="M6.56589 10.0587C6.56589 9.71699 6.84922 9.43366 7.19089 9.43366H11.7576V2.38366C11.7492 1.98366 11.4326 1.66699 11.0326 1.66699C6.12422 1.66699 2.69922 5.09199 2.69922 10.0003C2.69922 14.9087 6.12422 18.3337 11.0326 18.3337C11.4242 18.3337 11.7492 18.017 11.7492 17.617V10.6753H7.19089C6.84089 10.6837 6.56589 10.4003 6.56589 10.0587Z" fill="currentColor"/>
<path d="M17.1167 9.6168L14.75 7.2418C14.5083 7.00013 14.1083 7.00013 13.8667 7.2418C13.625 7.48346 13.625 7.88346 13.8667 8.12513L15.1667 9.42513H11.75V10.6751H15.1583L13.8583 11.9751C13.6167 12.2168 13.6167 12.6168 13.8583 12.8585C13.9833 12.9835 14.1417 13.0418 14.3 13.0418C14.4583 13.0418 14.6167 12.9835 14.7417 12.8585L17.1083 10.4835C17.3583 10.2501 17.3583 9.85846 17.1167 9.6168Z" fill="currentColor"/>
</svg>
