<svg viewBox="0 0 20 20" fill="none" xmlns="http://www.w3.org/2000/svg">
    <path fill-rule="evenodd" clip-rule="evenodd"
        d="M14.306 10.7219C14.5638 10.5731 14.7227 10.298 14.7227 10.0003C14.7227 9.70253 14.5638 9.42743 14.306 9.27857L8.47266 5.91069C8.21482 5.76183 7.89716 5.76183 7.63932 5.91069C7.38149 6.05955 7.22266 6.33466 7.22266 6.63238L7.22266 13.3681C7.22266 13.6659 7.38149 13.941 7.63932 14.0898C7.89716 14.2387 8.21482 14.2387 8.47266 14.0898L14.306 10.7219ZM8.88932 11.9248L8.88932 8.07575L12.2227 10.0003L8.88932 11.9248Z"
        fill="currentColor" />
    <path fill-rule="evenodd" clip-rule="evenodd"
        d="M10.0004 2.22266C5.70489 2.22266 2.22266 5.70489 2.22266 10.0004C2.22266 14.296 5.70489 17.7782 10.0004 17.7782C14.296 17.7782 17.7782 14.296 17.7782 10.0004C17.7782 5.70489 14.296 2.22266 10.0004 2.22266ZM3.88932 10.0004C3.88932 6.62536 6.62536 3.88932 10.0004 3.88932C13.3755 3.88932 16.1115 6.62536 16.1115 10.0004C16.1115 13.3755 13.3755 16.1115 10.0004 16.1115C6.62536 16.1115 3.88932 13.3755 3.88932 10.0004Z"
        fill="currentColor" />
</svg>