<svg xmlns="http://www.w3.org/2000/svg" width="20" height="20" viewBox="0 0 20 20" fill="none">
<path fill-rule="evenodd" clip-rule="evenodd" d="M17.1173 14.0057C17.302 13.8142 17.3452 13.5268 17.225 13.2895L16.6166 12.0879C15.233 9.35557 12.4306 7.63337 9.3679 7.63337H9.03136C9.01017 7.17225 8.98279 6.71135 8.94922 6.25078L8.89218 5.46831C8.8461 4.83621 8.14129 4.48286 7.60723 4.82411C5.84414 5.95069 4.31141 7.40231 3.09072 9.1016L2.70724 9.63545C2.55071 9.85335 2.55071 10.1468 2.70724 10.3647L3.09073 10.8986C4.31141 12.5979 5.84414 14.0495 7.60723 15.1761C8.14129 15.5173 8.8461 15.164 8.89218 14.5319L8.94922 13.7494C8.98928 13.1998 9.02053 12.6496 9.04295 12.0993C10.8531 12.0462 12.6612 12.4112 14.3227 13.178L16.4055 14.1393C16.6471 14.2508 16.9327 14.1972 17.1173 14.0057ZM15.275 12.2408L14.8466 12.0431C12.8202 11.1078 10.5968 10.713 8.39058 10.8825C8.07199 10.9069 7.82316 11.1678 7.81371 11.4872C7.7923 12.2115 7.75524 12.9354 7.70253 13.6585L7.69724 13.731C6.31157 12.7529 5.09739 11.5495 4.10594 10.1693L3.98439 10.0001L4.10594 9.83088C5.09739 8.45069 6.31157 7.24729 7.69724 6.26919L7.70253 6.34166C7.74958 6.98713 7.78416 7.63327 7.80628 8.27974C7.81779 8.6164 8.09405 8.88337 8.43091 8.88337L9.3679 8.88337C11.802 8.88337 14.0418 10.1689 15.275 12.2408Z" fill="currentColor"/>
</svg>