<svg viewBox="0 0 20 20" fill="none" xmlns="http://www.w3.org/2000/svg">
<path fill-rule="evenodd" clip-rule="evenodd" d="M8.25 3.5C5.62665 3.5 3.5 5.62665 3.5 8.25V10.75C3.5 13.3242 5.54768 15.4201 8.10304 15.4978L9.40343 17.2045C9.54441 17.3896 9.76329 17.4987 9.99593 17.5C10.2286 17.5013 10.4486 17.3945 10.5916 17.211L11.9274 15.4967C14.4685 15.4035 16.5 13.314 16.5 10.75V8.25C16.5 5.62665 14.3734 3.5 11.75 3.5H8.25ZM10.75 6.75C10.75 6.33579 10.4142 6 10 6C9.58579 6 9.25 6.33579 9.25 6.75V9.25C9.25 9.66421 9.58579 10 10 10C10.4142 10 10.75 9.66421 10.75 9.25V6.75ZM11 12C11 12.5523 10.5523 13 10 13C9.44772 13 9 12.5523 9 12C9 11.4477 9.44772 11 10 11C10.5523 11 11 11.4477 11 12Z" fill="currentColor"/>
</svg>
