<svg viewBox="0 0 20 20" fill="none" xmlns="http://www.w3.org/2000/svg">
<path d="M18.3333 7.10033V3.31699C18.3333 2.14199 17.8 1.66699 16.475 1.66699H13.1083C11.7833 1.66699 11.25 2.14199 11.25 3.31699V7.09199C11.25 8.27533 11.7833 8.74199 13.1083 8.74199H16.475C17.8 8.75033 18.3333 8.27533 18.3333 7.10033Z" fill="currentColor"/>
<path d="M18.3333 16.475V13.1083C18.3333 11.7833 17.8 11.25 16.475 11.25H13.1083C11.7833 11.25 11.25 11.7833 11.25 13.1083V16.475C11.25 17.8 11.7833 18.3333 13.1083 18.3333H16.475C17.8 18.3333 18.3333 17.8 18.3333 16.475Z" fill="currentColor"/>
<path d="M8.7513 7.10033V3.31699C8.7513 2.14199 8.21797 1.66699 6.89297 1.66699H3.5263C2.2013 1.66699 1.66797 2.14199 1.66797 3.31699V7.09199C1.66797 8.27533 2.2013 8.74199 3.5263 8.74199H6.89297C8.21797 8.75033 8.7513 8.27533 8.7513 7.10033Z" fill="currentColor"/>
<path d="M8.7513 16.475V13.1083C8.7513 11.7833 8.21797 11.25 6.89297 11.25H3.5263C2.2013 11.25 1.66797 11.7833 1.66797 13.1083V16.475C1.66797 17.8 2.2013 18.3333 3.5263 18.3333H6.89297C8.21797 18.3333 8.7513 17.8 8.7513 16.475Z" fill="currentColor"/>
</svg>
