<svg viewBox="0 0 226 226" fill="none" xmlns="http://www.w3.org/2000/svg">
<path d="M187 124.002C187 134.992 184.6 145.432 180.29 154.812C168.61 180.302 142.87 198.002 113 198.002C83.13 198.002 57.39 180.302 45.71 154.812C41.4 145.432 39 134.992 39 124.002C39 83.132 72.13 50.002 113 50.002C153.87 50.002 187 83.132 187 124.002Z" fill="#F0F1F2"/>
<mask id="mask0_1526_21490" style="mask-type:alpha" maskUnits="userSpaceOnUse" x="39" y="27" width="179" height="171">
<path d="M217.5 67.5C217.5 78.49 184.6 145.43 180.29 154.81C168.61 180.3 142.87 198 113 198C83.13 198 57.39 180.3 45.71 154.81C41.4 145.43 39 78.49 39 67.5C39 26.63 72.13 27.0001 113 27.0001C153.87 27.0001 217.5 26.63 217.5 67.5Z" fill="#F0F1F2"/>
</mask>
<g mask="url(#mask0_1526_21490)">
<path d="M123.188 75.4478L207.501 44.5L204.2 57.1036C202.741 62.6767 202.735 68.53 204.181 74.1062L204.967 77.1484C206.619 83.5241 206.368 90.2431 204.245 96.4783C201.937 103.262 201.848 110.604 203.993 117.442L207.501 128.616L123.188 78.3044V75.4478Z" fill="url(#paint0_linear_1526_21490)"/>
<path d="M132.235 196.547C123.259 198.604 113.987 199.04 104.858 197.837C103.963 197.717 103.068 197.583 102.175 197.435C101.282 197.287 100.379 197.119 99.4679 196.93C98.8751 196.813 98.2823 196.685 97.6895 196.547L97.7443 195.741L97.9087 193.411L98.0031 192.06L98.2285 188.805L98.4569 185.547L98.6091 183.359L98.7127 181.869L98.9502 178.452L99.1999 174.887L99.4496 171.303L99.7054 167.622L99.9429 164.203L100.193 160.638L100.415 157.437L100.671 153.756L100.911 150.334L101.158 146.768L101.417 143.078L101.645 139.796L101.868 136.577L102.05 133.958L102.282 130.654L102.492 127.639L102.705 124.561L102.961 120.91L103.217 117.229L103.454 113.81L103.701 110.244L103.777 109.158H126.141L131.318 183.365L132.088 194.415L132.235 196.547Z" fill="#C8C8C8"/>
<path d="M132.235 196.547C123.259 198.604 113.987 199.04 104.858 197.837C103.963 197.717 103.068 197.583 102.175 197.435C101.282 197.287 100.379 197.119 99.4679 196.93C98.8751 196.813 98.2823 196.685 97.6895 196.547L97.7443 195.741L97.9087 193.411L98.0031 192.06L98.2285 188.805L98.4569 185.547L98.6091 183.359C99.1552 183.477 99.7013 183.589 100.247 183.694C101.079 183.855 101.913 183.998 102.748 184.135C103.582 184.272 104.456 184.397 105.312 184.5C113.979 185.59 122.768 185.205 131.306 183.359L132.076 194.408L132.235 196.547Z" fill="#EEEEEE"/>
<path d="M104.754 109.152C104.665 109.396 104.522 109.618 104.337 109.8C104.162 109.992 103.945 110.142 103.704 110.238C103.797 109.996 103.939 109.776 104.119 109.589C104.299 109.403 104.515 109.254 104.754 109.152ZM107.818 109.298C106.511 110.938 105.05 112.449 103.454 113.81C104.1 112.985 104.791 112.197 105.525 111.449C106.249 110.691 107.015 109.973 107.818 109.298ZM107.818 112.468C106.433 114.191 104.893 115.784 103.216 117.226C103.902 116.36 104.633 115.53 105.406 114.741C106.17 113.942 106.975 113.184 107.818 112.468ZM107.818 115.882C107.093 116.794 106.295 117.658 105.497 118.501C104.699 119.344 103.856 120.153 102.961 120.907C103.682 119.995 104.483 119.131 105.278 118.288C106.073 117.445 106.922 116.636 107.818 115.882ZM107.818 130.423C107.367 130.98 106.904 131.512 106.414 132.042C105.924 132.571 105.446 133.091 104.952 133.605C104.459 134.119 103.953 134.627 103.43 135.126L102.68 135.859C102.412 136.1 102.154 136.346 101.883 136.577C102.105 136.297 102.342 136.03 102.571 135.756L103.286 134.959C103.762 134.427 104.255 133.909 104.748 133.395C105.241 132.881 105.744 132.373 106.271 131.874C106.798 131.375 107.276 130.898 107.818 130.423ZM107.818 133.41C107.349 133.985 106.855 134.539 106.359 135.087C105.863 135.634 105.351 136.173 104.836 136.708C104.322 137.244 103.804 137.767 103.268 138.281L102.467 139.051C102.19 139.297 101.922 139.553 101.642 139.796C101.873 139.507 102.12 139.23 102.358 138.947L103.101 138.12C103.594 137.566 104.106 137.031 104.623 136.498C105.141 135.966 105.659 135.44 106.192 134.925C106.725 134.411 107.248 133.9 107.818 133.41ZM107.818 136.456C107.327 137.064 106.816 137.624 106.295 138.193C105.774 138.762 105.251 139.318 104.721 139.872C104.191 140.426 103.649 140.97 103.095 141.503L102.263 142.303C101.98 142.561 101.7 142.826 101.411 143.078C101.651 142.774 101.907 142.491 102.157 142.199L102.927 141.341C103.439 140.769 103.969 140.216 104.502 139.662C105.034 139.108 105.573 138.564 106.128 138.032C106.682 137.499 107.248 136.964 107.818 136.456ZM107.818 139.881C107.306 140.49 106.773 141.098 106.237 141.685C105.701 142.272 105.15 142.853 104.596 143.431C104.042 144.009 103.481 144.572 102.906 145.129L102.044 145.959C101.739 146.23 101.459 146.507 101.158 146.769C101.411 146.464 101.676 146.16 101.934 145.856L102.738 144.965C103.274 144.371 103.825 143.796 104.377 143.218C104.928 142.64 105.494 142.078 106.067 141.521C106.639 140.964 107.218 140.41 107.818 139.881ZM107.818 143.191C107.288 143.83 106.734 144.444 106.173 145.059C105.613 145.673 105.047 146.276 104.474 146.869C103.902 147.462 103.317 148.052 102.72 148.63L101.828 149.494C101.523 149.774 101.219 150.06 100.914 150.334C101.176 150.012 101.453 149.704 101.724 149.388L102.556 148.475C103.113 147.867 103.685 147.258 104.258 146.665C104.83 146.072 105.415 145.482 106.009 144.904C106.603 144.326 107.197 143.742 107.818 143.191ZM107.818 146.364C107.267 147.024 106.691 147.66 106.115 148.293C105.54 148.925 104.946 149.546 104.352 150.167C103.758 150.787 103.156 151.384 102.525 151.992L101.612 152.886C101.307 153.191 101.003 153.477 100.665 153.759C100.936 153.428 101.225 153.108 101.502 152.783L102.376 151.828C102.951 151.192 103.545 150.574 104.136 149.954C104.727 149.333 105.333 148.737 105.948 148.128C106.563 147.52 107.175 146.936 107.818 146.364ZM107.818 149.78C107.245 150.462 106.648 151.122 106.052 151.776C105.455 152.43 104.833 153.075 104.224 153.714C103.615 154.353 102.985 154.985 102.349 155.603L101.392 156.531C101.066 156.835 100.747 157.139 100.415 157.444C100.698 157.1 100.996 156.771 101.286 156.434L102.181 155.448C102.79 154.791 103.399 154.149 104.008 153.51C104.617 152.871 105.248 152.238 105.884 151.621C106.52 151.003 107.154 150.367 107.818 149.78ZM107.818 152.749C107.227 153.449 106.6 154.128 105.991 154.803C105.382 155.478 104.742 156.138 104.112 156.799C103.481 157.459 102.836 158.11 102.178 158.746L101.194 159.704C100.859 160.008 100.531 160.334 100.189 160.638C100.494 160.285 100.799 159.947 101.088 159.6L102.001 158.584C102.61 157.909 103.25 157.249 103.883 156.589C104.517 155.929 105.159 155.277 105.814 154.642C106.469 154.006 107.136 153.364 107.818 152.749ZM107.818 156.056C107.209 156.777 106.572 157.477 105.933 158.186C105.293 158.895 104.642 159.567 103.99 160.248C103.338 160.93 102.671 161.599 101.995 162.259L100.981 163.248C100.634 163.57 100.296 163.899 99.9428 164.215C100.247 163.853 100.552 163.503 100.872 163.145L101.828 162.098C102.464 161.398 103.116 160.717 103.771 160.035C104.425 159.354 105.089 158.685 105.765 158.025C106.441 157.364 107.114 156.692 107.818 156.056ZM107.818 159.232C107.187 159.975 106.533 160.696 105.872 161.41C105.211 162.125 104.544 162.831 103.871 163.54C103.198 164.249 102.513 164.933 101.816 165.612L100.771 166.631C100.415 166.962 100.068 167.303 99.7053 167.629C100.01 167.254 100.345 166.895 100.665 166.527L101.648 165.45C102.306 164.733 102.979 164.03 103.652 163.321C104.325 162.612 105.01 161.928 105.704 161.249C106.399 160.571 107.096 159.889 107.818 159.232ZM107.818 162.646C107.166 163.409 106.49 164.151 105.808 164.891C105.126 165.63 104.438 166.357 103.743 167.081C103.049 167.805 102.342 168.517 101.612 169.211L100.549 170.272C100.18 170.616 99.821 170.966 99.4495 171.304C99.7723 170.92 100.11 170.549 100.442 170.169L101.456 169.058C102.135 168.316 102.83 167.592 103.524 166.868C104.218 166.144 104.925 165.432 105.64 164.739C106.356 164.045 107.075 163.324 107.818 162.646ZM107.818 165.974C107.145 166.759 106.447 167.522 105.747 168.283C105.047 169.043 104.334 169.804 103.615 170.537C102.897 171.27 102.172 172.015 101.435 172.739L100.326 173.826C99.9489 174.178 99.5804 174.54 99.1967 174.887C99.5317 174.492 99.8788 174.111 100.22 173.722L101.267 172.578C101.965 171.815 102.68 171.057 103.399 170.324C104.118 169.591 104.84 168.846 105.58 168.121C106.32 167.397 107.053 166.673 107.818 165.974ZM107.818 181.909C107.044 182.797 106.246 183.664 105.446 184.528C104.645 185.392 103.829 186.234 103.009 187.089C102.19 187.944 101.365 188.775 100.531 189.602L99.2728 190.843C98.8465 191.248 98.4263 191.662 97.9939 192.06C98.3776 191.613 98.7765 191.181 99.1663 190.74L100.363 189.441C101.164 188.577 101.983 187.734 102.799 186.879C103.615 186.025 104.444 185.194 105.278 184.367C106.112 183.539 106.944 182.712 107.818 181.909ZM97.7441 195.741C98.14 195.285 98.5481 194.829 98.9622 194.387L100.18 193.055C101.003 192.17 101.843 191.303 102.674 190.427C103.506 189.55 104.361 188.699 105.217 187.847L106.508 186.572C106.944 186.155 107.376 185.733 107.821 185.322C107.425 185.781 107.017 186.234 106.603 186.676L105.385 188.008C104.565 188.893 103.725 189.76 102.894 190.636C102.062 191.513 101.207 192.367 100.351 193.219C99.4952 194.071 98.6273 194.917 97.7441 195.741ZM99.4677 196.931C99.6596 196.703 99.8575 196.477 100.055 196.255C100.253 196.033 100.445 195.805 100.665 195.586L101.883 194.266C101.894 194.254 101.908 194.244 101.923 194.237C101.938 194.23 101.954 194.227 101.971 194.226L101.877 194.266C102.833 193.237 103.813 192.228 104.8 191.224C105.293 190.722 105.799 190.232 106.301 189.739C106.804 189.246 107.315 188.766 107.824 188.288C107.364 188.82 106.91 189.35 106.423 189.867C105.936 190.384 105.476 190.907 104.992 191.415C104.026 192.437 103.052 193.45 102.056 194.442C102.031 194.465 101.999 194.478 101.965 194.479L102.059 194.439L100.78 195.693C100.57 195.902 100.351 196.103 100.135 196.301C99.9184 196.499 99.687 196.73 99.4677 196.931ZM102.175 197.436C102.598 196.906 103.049 196.398 103.503 195.896C103.956 195.394 104.416 194.902 104.885 194.412C105.354 193.922 105.832 193.444 106.323 192.979L107.06 192.279C107.312 192.054 107.556 191.82 107.818 191.601C107.608 191.869 107.382 192.121 107.166 192.383L106.49 193.14C106.039 193.645 105.576 194.135 105.104 194.625C104.632 195.115 104.16 195.592 103.67 196.058C103.18 196.523 102.68 196.995 102.175 197.436ZM104.858 197.825C105.269 197.243 105.728 196.696 106.228 196.188C106.718 195.67 107.249 195.192 107.818 194.762C106.982 195.918 105.985 196.95 104.858 197.825ZM107.818 169.281C107.123 170.09 106.405 170.875 105.686 171.653C104.967 172.432 104.23 173.205 103.497 173.972C102.763 174.738 102.014 175.493 101.252 176.241L100.113 177.357C99.7266 177.723 99.3459 178.094 98.9531 178.453C99.2972 178.045 99.6565 177.653 100.007 177.254L101.085 176.08C101.803 175.295 102.54 174.528 103.277 173.762C104.014 172.995 104.76 172.241 105.519 171.492C106.277 170.744 107.032 170.002 107.818 169.281ZM107.818 172.454C107.102 173.281 106.365 174.087 105.625 174.887C104.885 175.687 104.13 176.478 103.375 177.266C102.62 178.054 101.852 178.83 101.073 179.596L99.9032 180.743C99.5073 181.118 99.1145 181.501 98.7125 181.869C99.0658 181.452 99.4342 181.051 99.7966 180.652L100.905 179.435C101.642 178.629 102.397 177.841 103.156 177.056C103.914 176.271 104.678 175.493 105.458 174.726C106.237 173.959 107.014 173.184 107.818 172.454ZM98.4567 185.547C99.1906 184.695 99.9489 183.868 100.713 183.046C101.478 182.225 102.236 181.41 103.028 180.613C103.819 179.816 104.593 179.006 105.394 178.218L106.594 177.038C107.002 176.652 107.404 176.259 107.812 175.879C107.446 176.305 107.066 176.719 106.694 177.141L105.561 178.355C104.8 179.183 104.023 179.992 103.247 180.789C102.47 181.586 101.679 182.395 100.881 183.183C100.083 183.971 99.282 184.783 98.4567 185.547ZM98.2283 188.805C98.9805 187.935 99.7509 187.089 100.54 186.247C101.328 185.404 102.123 184.58 102.912 183.746C103.701 182.912 104.52 182.103 105.348 181.294L106.566 180.077C106.986 179.682 107.394 179.28 107.821 178.891C107.446 179.329 107.056 179.752 106.676 180.181L105.506 181.449C104.724 182.289 103.923 183.113 103.134 183.947C102.345 184.78 101.529 185.593 100.698 186.399C99.8667 187.205 99.0719 188.023 98.2283 188.805ZM107.818 128.227C107.379 128.75 106.904 129.246 106.457 129.748C106.009 130.25 105.519 130.727 105.041 131.205C104.562 131.683 104.075 132.157 103.573 132.613L102.824 133.301C102.565 133.52 102.315 133.751 102.05 133.964C102.266 133.699 102.495 133.453 102.717 133.194L103.408 132.449C103.871 131.95 104.346 131.47 104.827 130.992C105.308 130.514 105.793 130.04 106.292 129.583C106.792 129.127 107.291 128.659 107.818 128.227ZM107.818 125.081C107.401 125.589 106.959 126.076 106.514 126.557C106.07 127.037 105.601 127.509 105.156 127.974C104.712 128.44 104.243 128.887 103.749 129.343L103.025 130.009C102.778 130.225 102.537 130.447 102.282 130.654C102.486 130.399 102.708 130.155 102.921 129.906L103.582 129.179C104.023 128.695 104.495 128.227 104.94 127.761C105.385 127.296 105.869 126.849 106.35 126.392C106.831 125.936 107.312 125.501 107.818 125.081ZM107.818 122.288C107.014 123.265 106.146 124.175 105.263 125.072C104.38 125.969 103.463 126.833 102.492 127.64C103.293 126.663 104.16 125.75 105.047 124.856C105.933 123.962 106.843 123.095 107.818 122.288ZM107.818 119.401C107.05 120.344 106.216 121.227 105.382 122.088C104.547 122.949 103.655 123.785 102.717 124.561C103.481 123.618 104.316 122.736 105.153 121.875C105.991 121.014 106.88 120.177 107.818 119.401Z" fill="#7F7F7F"/>
<path d="M103.768 93.9648H126.144V109.151H103.768V93.9648Z" fill="#EEEEEE"/>
<path d="M106.596 81.6621H123.314V93.9646H106.596V81.6621Z" fill="#C8C8C8"/>
<path d="M109.584 69.2324H120.328V81.6627H109.584V69.2324Z" fill="#EEEEEE"/>
<path d="M122.094 71.6701H107.814C107.815 69.3096 108.446 66.9921 109.642 64.956L114.959 55.8965L120.272 64.956C121.468 66.9921 122.099 69.3096 122.1 71.6701H122.094Z" fill="#C8C8C8"/>
<path d="M126.403 112.884C125.815 112.029 124.959 111.393 123.97 111.075C122.982 110.758 121.916 110.776 120.938 111.127C119.961 111.478 119.127 112.143 118.568 113.017C118.009 113.891 117.755 114.926 117.846 115.96L118.894 127.645L127.381 126.884L126.403 112.884ZM128.136 137.751C127.65 137.265 127.063 136.892 126.417 136.658C125.771 136.425 125.081 136.335 124.397 136.397C123.782 136.452 123.183 136.628 122.636 136.914C122.089 137.2 121.604 137.591 121.208 138.064C120.812 138.538 120.513 139.084 120.329 139.673C120.145 140.262 120.078 140.881 120.133 141.496L121.181 153.178L129.175 152.466L128.136 137.751ZM129.96 163.904C129.336 163.689 128.672 163.609 128.014 163.667C127.399 163.722 126.801 163.897 126.254 164.184C125.707 164.47 125.221 164.861 124.826 165.334C124.43 165.807 124.131 166.354 123.947 166.943C123.762 167.532 123.696 168.151 123.751 168.766L124.799 180.447L131.072 179.888L129.96 163.904Z" fill="#EEEEEE"/>
<path d="M120.328 75.4473H123.188V78.3043H120.328V75.4473Z" fill="#7F7F7F"/>
<path d="M63.6803 90.0955C66.884 88.0853 69.8836 85.7673 72.6363 83.1746C73.3245 82.5297 73.9884 81.8574 74.6492 81.1851C74.9537 80.8383 75.307 80.5036 75.6115 80.1507C75.916 79.7978 76.2205 79.4297 76.5037 79.0586C77.6518 77.5649 78.7389 76.0164 79.8291 74.471L83.0997 69.8348C83.6478 69.0651 84.1929 68.2894 84.7624 67.5319C85.3203 66.7619 85.9527 66.0487 86.6504 65.4024C88.1032 64.1404 89.8906 63.3258 91.7969 63.0569C93.6819 62.7937 95.6 62.897 97.4458 63.3611C95.5988 62.9487 93.6905 62.8888 91.8212 63.1846C89.9563 63.4732 88.2146 64.294 86.8057 65.5484C86.1351 66.2031 85.5237 66.9157 84.9786 67.6779C84.4183 68.4354 83.8793 69.199 83.3342 69.9869L80.0758 74.6444C78.9795 76.1868 77.8863 77.7292 76.726 79.229C76.4215 79.6001 76.1383 79.9712 75.8125 80.3302C75.4866 80.6892 75.1608 81.0208 74.8349 81.3676C74.1711 82.0429 73.495 82.7092 72.7916 83.345C71.3983 84.6283 69.9387 85.8377 68.4186 86.9682C66.8962 88.0944 65.3145 89.1383 63.6803 90.0955ZM84.9481 78.2676C85.2511 76.9867 85.7071 75.7467 86.3063 74.5745C86.9149 73.3989 87.6937 72.3195 88.6177 71.3711C89.5453 70.4187 90.6274 69.6299 91.8182 69.0377C93.007 68.4755 94.2271 67.9818 95.4725 67.5593C96.7085 67.1297 97.9194 66.631 99.0993 66.0656C100.274 65.4918 101.414 64.8487 102.513 64.1399C103.617 63.4358 104.678 62.6679 105.692 61.84C106.715 61.0186 107.684 60.1333 108.628 59.2207C106.838 61.1485 104.832 62.8644 102.65 64.3346C100.453 65.7967 98.0805 66.9762 95.5882 67.8452C94.3439 68.2556 93.1239 68.736 91.9339 69.2842C90.7666 69.8609 89.6994 70.621 88.773 71.5353C86.9123 73.3576 85.676 75.7548 84.9481 78.2676ZM62.584 136.093C65.533 135.15 68.3698 133.887 71.0436 132.327C72.3774 131.548 73.6595 130.687 74.9141 129.78C76.1688 128.874 77.4173 127.955 78.5867 126.963C79.1717 126.464 79.7269 125.931 80.2494 125.366C80.7741 124.814 81.231 124.201 81.6106 123.541C81.9856 122.892 82.1947 122.161 82.2196 121.411C82.204 120.657 81.9829 119.921 81.5801 119.282C80.7945 118.007 79.4911 116.982 78.002 116.766C77.2589 116.667 76.5035 116.801 75.8399 117.149C75.1736 117.5 74.6045 118.01 74.1833 118.634C73.7646 119.248 73.5108 119.959 73.4463 120.7C73.4204 121.072 73.4419 121.446 73.5103 121.813C73.587 122.181 73.7024 122.54 73.8544 122.884C74.1611 123.575 74.6075 124.194 75.1657 124.704C75.7238 125.214 76.3816 125.603 77.0975 125.847C78.5471 126.309 80.1428 126.151 81.6075 125.78C83.0952 125.383 84.5357 124.827 85.9044 124.122C87.278 123.431 88.6018 122.645 89.8662 121.77C91.1324 120.888 92.3094 119.885 93.3804 118.774C95.5291 116.539 97.2753 113.951 98.5421 111.123C97.3153 113.976 95.6052 116.596 93.487 118.868C92.4188 119.994 91.2428 121.013 89.9758 121.91C88.7064 122.805 87.3765 123.611 85.9957 124.323C84.6211 125.05 83.1698 125.623 81.6684 126.029C80.91 126.226 80.1335 126.345 79.351 126.385C78.5601 126.429 77.7675 126.335 77.0092 126.106C76.2553 125.85 75.5622 125.443 74.9732 124.908C74.3843 124.373 73.9122 123.722 73.5864 122.996C73.4236 122.632 73.3001 122.252 73.2179 121.862C73.1428 121.471 73.1172 121.072 73.1418 120.675C73.214 119.875 73.4943 119.107 73.9549 118.448C74.4054 117.785 75.0132 117.242 75.7242 116.87C76.4429 116.496 77.2602 116.354 78.0629 116.465C78.853 116.588 79.6013 116.901 80.2433 117.378C80.8831 117.85 81.425 118.442 81.839 119.121C82.2646 119.801 82.4972 120.585 82.512 121.387C82.4822 122.185 82.2552 122.964 81.8512 123.654C81.0716 125.032 79.9235 126.124 78.7481 127.134C77.5726 128.144 76.3119 129.041 75.0329 129.93C73.7745 130.835 72.4704 131.676 71.1259 132.448C68.421 133.973 65.5565 135.195 62.584 136.093Z" fill="#EEEEEE"/>
<path d="M136.69 52.0801C136.857 52.8771 136.967 53.6772 137.055 54.4773C137.143 55.2774 137.204 56.0836 137.253 56.8867C137.302 57.6898 137.32 58.496 137.317 59.3022C137.322 60.1147 137.285 60.927 137.207 61.7359C137.04 60.9358 136.93 60.1357 136.842 59.3356C136.754 58.5355 136.693 57.7294 136.644 56.9262C136.595 56.1231 136.577 55.3169 136.583 54.5108C136.577 53.6993 136.613 52.888 136.69 52.0801Z" fill="#7D7D7D"/>
<path d="M141.778 56.6439C140.984 56.8071 140.182 56.93 139.375 57.012C138.574 57.1033 137.77 57.158 136.963 57.2067C136.156 57.2554 135.353 57.2767 134.546 57.2706C133.732 57.2763 132.919 57.2407 132.109 57.1641C132.904 57.0009 133.705 56.8781 134.512 56.796C135.313 56.7048 136.117 56.65 136.924 56.6013C137.731 56.5526 138.535 56.5344 139.342 56.5374C140.149 56.5405 140.965 56.5618 141.778 56.6439ZM143.063 57.9946C143.211 58.5223 143.319 59.0602 143.386 59.6039C143.459 60.1454 143.514 60.6839 143.541 61.2254C143.569 61.7669 143.578 62.3084 143.562 62.8529C143.553 63.4014 143.504 63.9485 143.413 64.4896C143.265 63.962 143.156 63.4241 143.087 62.8803C143.014 62.3388 142.963 61.8004 142.932 61.2589C142.902 60.7174 142.899 60.1758 142.914 59.6313C142.923 59.0828 142.973 58.5357 143.063 57.9946Z" fill="#7D7D7D"/>
<path d="M146.489 61.0685C145.959 61.2159 145.42 61.3237 144.875 61.391C144.336 61.467 143.797 61.5187 143.255 61.5461C142.713 61.5735 142.168 61.5826 141.625 61.5674C141.075 61.5583 140.527 61.5084 139.984 61.4184C140.514 61.2717 141.053 61.1629 141.598 61.0928C142.137 61.0198 142.679 60.9681 143.221 60.9407C143.763 60.9134 144.305 60.9042 144.85 60.9194C145.399 60.9285 145.947 60.9783 146.489 61.0685ZM63.4758 138.573C63.6391 139.367 63.7621 140.168 63.8442 140.974C63.9356 141.774 63.9904 142.58 64.0422 143.383C64.0939 144.186 64.1092 144.992 64.1031 145.799C64.1104 146.611 64.0748 147.424 63.9965 148.232C63.8326 147.439 63.7107 146.638 63.6311 145.832C63.5397 145.032 63.4819 144.229 63.4331 143.426C63.3844 142.623 63.3661 141.816 63.3722 141.007C63.3655 140.195 63.4001 139.382 63.4758 138.573Z" fill="#7D7D7D"/>
<path d="M68.5749 143.139C67.777 143.306 66.9761 143.416 66.1722 143.504C65.3682 143.592 64.5643 143.653 63.7603 143.702C62.9564 143.75 62.1494 143.769 61.3424 143.766C60.5354 143.762 59.7254 143.741 58.9062 143.659C59.7004 143.496 60.5023 143.373 61.3089 143.291C62.1098 143.2 62.9138 143.142 63.7177 143.093C64.5217 143.045 65.3286 143.026 66.1387 143.032C66.952 143.027 67.7651 143.062 68.5749 143.139ZM69.8538 144.487C69.9996 145.016 70.1075 145.554 70.1766 146.099C70.2497 146.637 70.3015 147.179 70.3319 147.72C70.3624 148.262 70.3685 148.803 70.3533 149.348C70.3442 149.896 70.2944 150.443 70.204 150.985C70.0543 150.456 69.9454 149.917 69.8782 149.372C69.8051 148.834 69.7503 148.292 69.7229 147.751C69.6955 147.209 69.6894 146.668 69.7046 146.123C69.7138 145.575 69.7637 145.028 69.8538 144.487Z" fill="#7D7D7D"/>
<path d="M73.278 147.561C72.7484 147.707 72.209 147.815 71.6641 147.884C71.1251 147.957 70.583 148.009 70.041 148.039C69.4989 148.07 68.9569 148.076 68.4118 148.06C67.8627 148.051 67.3151 148.001 66.7734 147.911C67.3023 147.762 67.8419 147.653 68.3874 147.586C68.9264 147.513 69.4685 147.458 70.0105 147.431C70.5526 147.403 71.0946 147.397 71.6397 147.412C72.1888 147.421 72.7364 147.471 73.278 147.561ZM195.602 132.664C195.769 133.461 195.879 134.264 195.967 135.064C196.056 135.864 196.117 136.671 196.165 137.474C196.214 138.277 196.232 139.083 196.229 139.889C196.234 140.702 196.197 141.514 196.12 142.323C195.952 141.526 195.842 140.726 195.754 139.923C195.666 139.12 195.605 138.319 195.556 137.516C195.507 136.713 195.489 135.907 195.495 135.083C195.49 134.275 195.526 133.468 195.602 132.664Z" fill="#7D7D7D"/>
<path d="M200.692 137.231C199.894 137.398 199.093 137.507 198.289 137.596C197.485 137.684 196.685 137.745 195.878 137.793C195.071 137.842 194.267 137.863 193.46 137.857C192.646 137.863 191.833 137.827 191.023 137.751C191.818 137.588 192.62 137.465 193.426 137.383C194.227 137.291 195.031 137.234 195.838 137.185C196.645 137.136 197.449 137.118 198.256 137.124C199.069 137.119 199.882 137.154 200.692 137.231ZM201.977 138.578C202.124 139.107 202.232 139.646 202.3 140.191C202.373 140.729 202.428 141.271 202.455 141.812C202.483 142.354 202.492 142.895 202.477 143.44C202.468 143.988 202.418 144.535 202.327 145.076C202.179 144.548 202.07 144.009 202.001 143.464C201.928 142.926 201.877 142.387 201.846 141.846C201.816 141.304 201.813 140.76 201.828 140.215C201.837 139.667 201.887 139.119 201.977 138.578Z" fill="#7D7D7D"/>
<path d="M205.403 141.653C204.874 141.801 204.334 141.909 203.789 141.976C203.25 142.049 202.711 142.104 202.169 142.131C201.627 142.158 201.082 142.167 200.54 142.152C199.99 142.143 199.441 142.093 198.898 142.003C199.428 141.855 199.967 141.746 200.512 141.678C201.051 141.605 201.593 141.55 202.136 141.522C202.678 141.495 203.22 141.489 203.765 141.504C204.314 141.513 204.861 141.563 205.403 141.653Z" fill="#7D7D7D"/>
<path d="M103.115 175.971H126.277C132.259 175.971 137.995 178.344 142.225 182.57C146.454 186.795 148.83 192.526 148.83 198.501H80.5625C80.5625 192.526 82.9386 186.795 87.1681 182.57C91.3976 178.344 97.134 175.971 103.115 175.971Z" fill="#A3A3A3"/>
<path d="M89.5859 191.784C89.5942 191.953 89.568 192.123 89.5088 192.282C89.4496 192.441 89.3587 192.587 89.2415 192.71C89.1243 192.833 88.9833 192.931 88.8271 192.997C88.6709 193.064 88.5027 193.099 88.3328 193.099C88.1628 193.099 87.9946 193.064 87.8384 192.997C87.6822 192.931 87.5412 192.833 87.424 192.71C87.3068 192.587 87.2159 192.441 87.1567 192.282C87.0975 192.123 87.0713 191.953 87.0796 191.784C87.0796 191.093 87.9445 191.139 88.6388 191.139C89.3331 191.139 89.5859 191.093 89.5859 191.784ZM101.627 184.547C101.627 185.858 100.259 186.311 98.95 186.311C98.32 186.311 97.7158 186.061 97.2704 185.616C96.8249 185.171 96.5747 184.567 96.5747 183.938C96.5747 183.309 96.8249 182.705 97.2704 182.26C97.7158 181.815 98.32 181.565 98.95 181.565C100.259 181.565 101.627 183.238 101.627 184.547ZM122.377 184.829C122.377 185.459 122.127 186.062 121.681 186.507C121.236 186.952 120.632 187.202 120.002 187.202C118.692 187.202 117.931 186.749 117.931 185.438C117.931 184.127 118.692 182.457 120.002 182.457C120.632 182.457 121.236 182.707 121.681 183.152C122.127 183.597 122.377 184.2 122.377 184.829ZM144.464 193.22C144.464 194.531 143.097 194.984 141.784 194.984C141.472 194.984 141.163 194.923 140.875 194.804C140.587 194.684 140.325 194.509 140.105 194.289C139.884 194.069 139.709 193.807 139.59 193.519C139.47 193.231 139.409 192.923 139.409 192.611C139.409 191.303 140.779 190.85 142.089 190.85C142.718 190.85 143.322 191.099 143.767 191.544C144.213 191.988 144.463 192.591 144.464 193.22ZM110.205 193.91C110.205 194.222 110.144 194.53 110.024 194.818C109.905 195.106 109.73 195.368 109.509 195.588C109.289 195.808 109.027 195.983 108.739 196.103C108.451 196.222 108.142 196.283 107.83 196.283C106.517 196.283 105.15 194.613 105.15 193.302C105.15 192.673 105.4 192.069 105.846 191.624C106.291 191.179 106.895 190.929 107.525 190.929C108.835 190.929 110.205 192.602 110.205 193.91ZM129.07 193.694C129.07 194.348 128.54 194.224 127.883 194.224C127.225 194.224 127.003 194.303 127.003 193.646C127.003 193.331 127.127 193.03 127.349 192.808C127.571 192.585 127.873 192.46 128.187 192.459C128.845 192.459 129.07 193.037 129.07 193.694ZM135.076 181.273C135.076 181.927 134.847 183.065 134.192 183.065C133.878 183.065 133.576 182.94 133.354 182.719C133.131 182.497 133.006 182.196 133.005 181.882C133.005 181.224 133.233 180.087 133.888 180.087C134.203 180.087 134.505 180.212 134.728 180.434C134.95 180.657 135.076 180.958 135.076 181.273ZM113.625 179.18C113.625 179.959 112.687 179.98 111.907 179.98C111.544 179.963 111.202 179.807 110.951 179.545C110.7 179.282 110.56 178.933 110.56 178.57C110.56 178.207 110.7 177.858 110.951 177.596C111.202 177.333 111.544 177.177 111.907 177.16C112.687 177.16 113.625 178.401 113.625 179.18Z" fill="#7F7F7F"/>
<path d="M78.2786 192.652C79.1313 190.687 78.4887 189.482 78.4887 188.089C78.4887 185.16 77.5082 181.841 75.748 179.76C75.2767 181.251 75.0254 182.802 75.002 184.366C75.0111 187.289 76.5307 190.566 78.2786 192.652Z" fill="#C8C8C8"/>
<path d="M82.3602 194.755C85.67 194.755 88.3532 190.111 88.3532 184.382C88.3532 178.652 85.67 174.008 82.3602 174.008C79.0504 174.008 76.3672 178.652 76.3672 184.382C76.3672 190.111 79.0504 194.755 82.3602 194.755Z" fill="white"/>
<path d="M67.6593 188.412C67.6593 189.568 67.1903 190.492 67.8329 192.062C70.5736 189.869 72.6535 186.188 72.6535 182.394C72.6164 181.058 72.4222 179.731 72.0749 178.439C69.3037 180.609 67.6593 184.618 67.6593 188.412Z" fill="#7D7D7D"/>
<path d="M65.575 192.169C68.8849 192.169 71.5681 187.525 71.5681 181.796C71.5681 176.066 68.8849 171.422 65.575 171.422C62.2652 171.422 59.582 176.066 59.582 181.796C59.582 187.525 62.2652 192.169 65.575 192.169Z" fill="white"/>
<path d="M65.575 192.169C68.8849 192.169 71.5681 187.525 71.5681 181.796C71.5681 176.066 68.8849 171.422 65.575 171.422C62.2652 171.422 59.582 176.066 59.582 181.796C59.582 187.525 62.2652 192.169 65.575 192.169Z" stroke="#C8C8C8" stroke-miterlimit="10"/>
<path d="M65.5745 176.611V198.5M65.5745 182.705L62.6389 179.349M65.5745 186.015L61.9629 181.889M65.5745 189.425L61.9629 185.3M65.5745 182.711L68.5193 179.349M65.5745 186.021L69.1862 181.896M65.5745 189.431L69.1862 185.306" stroke="#C8C8C8" stroke-linecap="round" stroke-linejoin="round"/>
<path d="M82.3602 194.755C85.67 194.755 88.3532 190.111 88.3532 184.382C88.3532 178.652 85.67 174.008 82.3602 174.008C79.0504 174.008 76.3672 178.652 76.3672 184.382C76.3672 190.111 79.0504 194.755 82.3602 194.755Z" stroke="#7D7D7D" stroke-linecap="round" stroke-linejoin="round"/>
<path d="M82.3597 179.197V198.5M82.3597 185.291L79.421 181.935M82.3597 188.601L78.748 184.475M82.3597 192.011L78.748 187.886M82.3597 185.3L85.3044 181.935M82.3597 188.607L85.9713 184.481M82.3597 192.02L85.9713 187.895" stroke="#7D7D7D" stroke-linecap="round" stroke-linejoin="round"/>
<g clip-path="url(#clip0_1526_21490)" filter="url(#filter0_d_1526_21490)">
<path d="M179.49 80.9431L167.81 78.2492C167.007 78.064 166.501 77.2561 166.687 76.4539L170.192 61.2847C170.378 60.4825 171.186 59.9777 171.989 60.1629L177.932 61.5334C178.326 61.6243 178.657 61.8544 178.87 62.1955L183.284 69.2511C183.497 69.5922 183.559 69.9905 183.468 70.3843L181.287 79.8212C181.101 80.6234 180.293 81.1283 179.49 80.9431Z" fill="url(#paint1_linear_1526_21490)"/>
<path fill-rule="evenodd" clip-rule="evenodd" d="M167.911 77.8116L179.591 80.5055C180.152 80.6349 180.719 80.2808 180.849 79.7202L183.03 70.2833C183.095 70.0012 183.05 69.7254 182.902 69.489L178.489 62.4335C178.341 62.1971 178.113 62.0361 177.83 61.971L171.888 60.6005C171.327 60.4711 170.76 60.8252 170.63 61.3858L167.125 76.5549C166.995 77.1154 167.35 77.6822 167.911 77.8116ZM167.81 78.2492L179.49 80.9431C180.293 81.1283 181.101 80.6234 181.287 79.8212L183.468 70.3843C183.559 69.9905 183.497 69.5922 183.284 69.2511L178.87 62.1955C178.657 61.8544 178.326 61.6243 177.932 61.5334L171.989 60.1629C171.186 59.9777 170.378 60.4825 170.192 61.2847L166.687 76.4539C166.501 77.2561 167.007 78.064 167.81 78.2492Z" fill="#909DA1"/>
<path d="M174.369 75.1528C174.179 75.109 174.003 75.0069 173.869 74.8531L171.352 71.7685C171.27 71.6574 171.124 71.6238 170.987 71.6843L167.96 73.137L167.7 72.6007L170.727 71.148C171.105 70.9741 171.547 71.0606 171.811 71.3826L174.345 74.456C174.431 74.5525 174.573 74.6008 174.696 74.5368L178.882 72.6601C179.224 72.5087 179.622 72.585 179.885 72.8453L182.224 75.167L181.803 75.5922L179.463 73.2705C179.375 73.1886 179.243 73.1583 179.124 73.2077L174.938 75.0844C174.762 75.182 174.559 75.1965 174.369 75.1528ZM174.336 69.3071C173.284 69.0647 172.633 68.0234 172.876 66.9732C173.118 65.9231 174.161 65.2724 175.212 65.5149C176.263 65.7573 176.915 66.7986 176.672 67.8487C176.429 68.8989 175.387 69.5496 174.336 69.3071ZM175.077 66.0983C174.347 65.9299 173.628 66.3786 173.46 67.1079C173.291 67.8372 173.74 68.5553 174.47 68.7237C175.2 68.8921 175.919 68.4433 176.088 67.7141C176.256 66.9848 175.807 66.2666 175.077 66.0983Z" fill="#909DA1"/>
</g>
<g clip-path="url(#clip1_1526_21490)" filter="url(#filter1_d_1526_21490)">
<path d="M194.951 99.4144L184.381 102.139C183.654 102.327 182.907 101.886 182.719 101.16L179.173 87.4332C178.985 86.7072 179.427 85.96 180.153 85.7727L185.531 84.3863C185.887 84.2944 186.252 84.3412 186.567 84.5272L193.1 88.3758C193.416 88.5619 193.633 88.8578 193.725 89.2142L195.931 97.7539C196.119 98.4799 195.677 99.2271 194.951 99.4144Z" fill="url(#paint2_linear_1526_21490)"/>
<path d="M188.856 91.3319C188.981 91.8173 188.919 92.225 188.686 92.5648C188.454 92.9046 188.053 93.1339 187.504 93.2753L187.099 93.3797L187.513 94.9801L186.559 95.226L185.396 90.7266L186.821 90.3594C187.369 90.2179 187.805 90.2316 188.153 90.3936C188.502 90.5556 188.737 90.8728 188.856 91.3319ZM186.899 92.6058L187.213 92.5249C187.5 92.4508 187.709 92.3411 187.822 92.186C187.935 92.0309 187.97 91.8401 187.912 91.6171C187.854 91.3941 187.745 91.2404 187.6 91.1658C187.456 91.0912 187.246 91.0892 186.985 91.1566L186.554 91.2678L186.899 92.6058Z" fill="#909DA1"/>
<path fill-rule="evenodd" clip-rule="evenodd" d="M184.279 101.743L194.849 99.0185C195.356 98.8876 195.666 98.3633 195.535 97.8561L193.329 89.3163C193.263 89.0611 193.111 88.857 192.892 88.7281L186.36 84.8795C186.141 84.7506 185.888 84.7164 185.633 84.7823L180.256 86.1686C179.748 86.2995 179.438 86.8237 179.569 87.331L183.115 101.058C183.246 101.565 183.771 101.874 184.279 101.743ZM184.381 102.139L194.951 99.4144C195.677 99.2271 196.119 98.4799 195.931 97.7539L193.725 89.2142C193.633 88.8578 193.416 88.5619 193.1 88.3758L186.567 84.5272C186.252 84.3412 185.887 84.2944 185.531 84.3863L180.153 85.7727C179.427 85.96 178.985 86.7072 179.173 87.4332L182.719 101.16C182.907 101.886 183.654 102.327 184.381 102.139Z" fill="#909DA1"/>
</g>
</g>
<defs>
<filter id="filter0_d_1526_21490" x="152.238" y="53.0625" width="47.002" height="46.9805" filterUnits="userSpaceOnUse" color-interpolation-filters="sRGB">
<feFlood flood-opacity="0" result="BackgroundImageFix"/>
<feColorMatrix in="SourceAlpha" type="matrix" values="0 0 0 0 0 0 0 0 0 0 0 0 0 0 0 0 0 0 127 0" result="hardAlpha"/>
<feOffset dy="6"/>
<feGaussianBlur stdDeviation="6"/>
<feComposite in2="hardAlpha" operator="out"/>
<feColorMatrix type="matrix" values="0 0 0 0 0.580392 0 0 0 0 0.639216 0 0 0 0 0.721569 0 0 0 0.15 0"/>
<feBlend mode="normal" in2="BackgroundImageFix" result="effect1_dropShadow_1526_21490"/>
<feBlend mode="normal" in="SourceGraphic" in2="effect1_dropShadow_1526_21490" result="shape"/>
</filter>
<filter id="filter1_d_1526_21490" x="164.914" y="75.9668" width="45.2754" height="45.2539" filterUnits="userSpaceOnUse" color-interpolation-filters="sRGB">
<feFlood flood-opacity="0" result="BackgroundImageFix"/>
<feColorMatrix in="SourceAlpha" type="matrix" values="0 0 0 0 0 0 0 0 0 0 0 0 0 0 0 0 0 0 127 0" result="hardAlpha"/>
<feOffset dy="6"/>
<feGaussianBlur stdDeviation="6"/>
<feComposite in2="hardAlpha" operator="out"/>
<feColorMatrix type="matrix" values="0 0 0 0 0.580392 0 0 0 0 0.639216 0 0 0 0 0.721569 0 0 0 0.15 0"/>
<feBlend mode="normal" in2="BackgroundImageFix" result="effect1_dropShadow_1526_21490"/>
<feBlend mode="normal" in="SourceGraphic" in2="effect1_dropShadow_1526_21490" result="shape"/>
</filter>
<linearGradient id="paint0_linear_1526_21490" x1="121.61" y1="76.7154" x2="204.488" y2="80.4863" gradientUnits="userSpaceOnUse">
<stop stop-color="#E4E4E4"/>
<stop offset="1" stop-color="#EBEBEB" stop-opacity="0"/>
</linearGradient>
<linearGradient id="paint1_linear_1526_21490" x1="177.829" y1="61.5099" x2="173.658" y2="79.5979" gradientUnits="userSpaceOnUse">
<stop stop-color="#FDFDFD"/>
<stop offset="1" stop-color="#BEC5C7"/>
</linearGradient>
<linearGradient id="paint2_linear_1526_21490" x1="185.438" y1="84.4102" x2="189.658" y2="100.779" gradientUnits="userSpaceOnUse">
<stop stop-color="#FDFDFD"/>
<stop offset="1" stop-color="#BEC5C7"/>
</linearGradient>
<clipPath id="clip0_1526_21490">
<rect width="19.1788" height="19.1617" fill="white" transform="matrix(0.974419 0.22474 -0.225163 0.974321 168.553 59.0625)"/>
</clipPath>
<clipPath id="clip1_1526_21490">
<rect width="17.4644" height="17.4493" fill="white" transform="matrix(0.968336 -0.249649 0.250113 0.968217 176.914 86.3262)"/>
</clipPath>
</defs>
</svg>
