<svg viewBox="0 0 20 20" fill="none" xmlns="http://www.w3.org/2000/svg">
<path fill-rule="evenodd" clip-rule="evenodd" d="M13.7337 16.6668H8.35365C7.4505 16.6668 6.72204 16.6668 6.13214 16.6186C5.52476 16.569 4.99127 16.4642 4.4977 16.2127C3.71369 15.8132 3.07627 15.1758 2.6768 14.3918C2.42531 13.8982 2.32046 13.3647 2.27084 12.7573C2.22264 12.1675 2.22265 11.439 2.22266 10.5358V10.5358V9.46448V9.46447C2.22265 8.56133 2.22264 7.83287 2.27084 7.24298C2.32046 6.6356 2.42531 6.10211 2.6768 5.60854C3.07627 4.82453 3.71369 4.18711 4.4977 3.78764C4.99127 3.53615 5.52476 3.4313 6.13214 3.38168C6.72203 3.33348 7.45049 3.33349 8.35363 3.3335H12.5004C12.9607 3.3335 13.3338 3.70659 13.3338 4.16683C13.3338 4.62707 12.9607 5.00016 12.5004 5.00016H11.5387C11.5293 5.00005 11.5198 5 11.5104 5H6.3104C4.98492 5 3.9104 6.07452 3.9104 7.4V7.7277C3.88973 8.18642 3.88932 8.75435 3.88932 9.50016V10.5002C3.88932 11.246 3.88973 11.8139 3.9104 12.2726V12.6C3.9104 13.9255 4.98492 15 6.3104 15H7.99737C8.12234 15.0001 8.25286 15.0002 8.38932 15.0002H11.127C11.1269 15.0001 11.1268 15.0001 11.1267 15H13.7586C13.7587 15 13.7587 15 13.7587 15C13.7604 15 13.762 15 13.7637 15H13.9104V14.9945C14.3585 14.9659 14.7939 14.8287 15.1785 14.5937C15.4058 14.4548 15.6008 14.269 15.7504 14.0487L15.7661 14.0255C15.9912 13.6941 16.1115 13.3027 16.1115 12.9021V11.4462C16.1115 10.986 16.4846 10.6129 16.9449 10.6129C17.4051 10.6129 17.7782 10.986 17.7782 11.4462V12.9021C17.7782 13.6367 17.5576 14.3543 17.1449 14.9619L17.1292 14.9851C16.8461 15.4018 16.4774 15.7532 16.0475 16.0159C15.3508 16.4416 14.5502 16.6668 13.7337 16.6668Z" fill="currentColor"/>
<path d="M10.1431 12.6113C10.4958 12.8283 10.6058 13.2903 10.3887 13.6431C10.1717 13.9958 9.7097 14.1058 9.35693 13.8887L6.54278 12.157C5.77433 11.6841 6.10947 10.5 7.01177 10.5C7.47538 10.5 7.86443 10.1808 7.97107 9.7501H6.75C6.33579 9.7501 6 9.41432 6 9.0001C6 8.58589 6.33579 8.2501 6.75 8.2501H8V7.5H6.75C6.33579 7.5 6 7.16421 6 6.75C6 6.33579 6.33579 6 6.75 6H10.25C10.6642 6 11 6.33579 11 6.75C11 7.16421 10.6642 7.5 10.25 7.5H9.5V8.2501H10.25C10.6642 8.2501 11 8.58589 11 9.0001C11 9.41432 10.6642 9.7501 10.25 9.7501H9.48873C9.41762 10.4984 9.01511 11.1501 8.42959 11.5568L10.1431 12.6113Z" fill="currentColor"/>
<path d="M18.9453 4.83323C18.9453 4.37299 18.5722 3.99989 18.112 3.99989C17.6517 3.99989 17.2786 4.37299 17.2786 4.83323V5.38878C17.2786 6.46267 16.4081 7.33323 15.3342 7.33323H14.846L15.3679 6.81137C15.6933 6.48593 15.6933 5.9583 15.3679 5.63286C15.0425 5.30742 14.5148 5.30742 14.1894 5.63286L12.2449 7.5773C11.9195 7.90274 11.9195 8.43038 12.2449 8.75581L14.1894 10.7003C14.5148 11.0257 15.0425 11.0257 15.3679 10.7003C15.6933 10.3748 15.6933 9.84718 15.3679 9.52175L14.846 8.99989H15.3342C17.3286 8.99989 18.9453 7.38314 18.9453 5.38878V4.83323Z" fill="currentColor"/>
</svg>
