<svg viewBox="0 0 20 20" fill="none" xmlns="http://www.w3.org/2000/svg">
<path d="M14.25 13.5C14.25 13.0858 13.9142 12.75 13.5 12.75C13.0858 12.75 12.75 13.0858 12.75 13.5V14.7929C12.75 15.1244 12.8817 15.4424 13.1161 15.6768L13.9697 16.5303C14.2626 16.8232 14.7374 16.8232 15.0303 16.5303C15.3232 16.2374 15.3232 15.7626 15.0303 15.4697L14.25 14.6893V13.5Z" fill="currentColor"/>
<path d="M8.97169 13.0904C9.39501 13.3889 9.527 14.024 9.26649 14.5091C9.00599 14.9941 8.45164 15.1454 8.02831 14.8469L4.65134 12.4657C3.72919 11.8155 4.13136 10.1874 5.21412 10.1874C5.77046 10.1874 6.23731 9.74846 6.36528 9.15633H4.9C4.40294 9.15633 4 8.69463 4 8.12509C4 7.55555 4.40294 7.09385 4.9 7.09385H6.4V6.06247H4.9C4.40294 6.06247 4 5.60077 4 5.03124C4 4.4617 4.40294 4 4.9 4H9.1C9.59706 4 10 4.4617 10 5.03124C10 5.60077 9.59706 6.06247 9.1 6.06247H8.2V7.09385H9.1C9.59706 7.09385 10 7.55555 10 8.12509C10 8.69463 9.59706 9.15633 9.1 9.15633H8.18648C8.10115 10.1852 7.61813 11.0813 6.91551 11.6405L8.97169 13.0904Z" fill="currentColor"/>
<path fill-rule="evenodd" clip-rule="evenodd" d="M14 18.5C15.933 18.5 17.5 16.933 17.5 15C17.5 13.067 15.933 11.5 14 11.5C12.067 11.5 10.5 13.067 10.5 15C10.5 16.933 12.067 18.5 14 18.5ZM14 20C16.7614 20 19 17.7614 19 15C19 12.2386 16.7614 10 14 10C11.2386 10 9 12.2386 9 15C9 17.7614 11.2386 20 14 20Z" fill="currentColor"/>
</svg>
