<svg viewBox="0 0 20 20" fill="none" xmlns="http://www.w3.org/2000/svg">
<path fill-rule="evenodd" clip-rule="evenodd" d="M6.39057 3.88932C4.96387 3.88895 3.93103 5.02845 4.11904 6.25297C4.54521 9.02869 5.55894 11.2069 7.12641 12.7972C8.69262 14.3863 10.8739 15.4515 13.7483 15.8928C14.9721 16.0807 16.1108 15.0486 16.1108 13.6217L16.1108 12.8133C16.1108 12.6871 16.0257 12.5767 15.9035 12.5446L13.7924 11.9913C13.7243 11.9734 13.6519 11.9821 13.59 12.0156L12.4041 12.6559C11.6369 13.0702 10.5847 13.2023 9.71336 12.5943C8.85897 11.9982 8.0008 11.1291 7.41163 10.2716C6.8104 9.39659 6.9425 8.34397 7.36207 7.57387L7.99594 6.41043C8.02898 6.34868 8.03798 6.27578 8.02022 6.20801L7.46686 4.09688C7.43484 3.97472 7.32445 3.88953 7.19816 3.88953L6.39057 3.88932ZM2.47168 6.5059C2.10083 4.09049 4.13512 2.22207 6.39101 2.22266L7.19815 2.22287C8.08207 2.22296 8.85495 2.81924 9.07907 3.6743L9.63242 5.78543C9.75739 6.2622 9.69664 6.76863 9.46246 7.20231L9.46098 7.20506L8.82562 8.37124C8.61281 8.76185 8.63798 9.11337 8.78529 9.32776C9.26285 10.0228 9.97956 10.7478 10.6671 11.2275C10.875 11.3726 11.2214 11.4004 11.6122 11.1894L12.7981 10.549C13.2318 10.3149 13.7382 10.2541 14.2149 10.3791L16.3261 10.9324C17.1812 11.1566 17.7775 11.9293 17.7775 12.8134L17.7775 13.6217C17.7775 15.8766 15.9108 17.9111 13.4953 17.5402C10.3415 17.0559 7.80609 15.8611 5.93941 13.9672C4.07399 12.0746 2.93861 9.54711 2.47168 6.5059ZM12.2219 3.62286C12.2219 3.16262 12.595 2.78952 13.0553 2.78952L16.3886 2.78952C16.8488 2.78952 17.2219 3.16262 17.2219 3.62286V6.95619C17.2219 7.41643 16.8488 7.78952 16.3886 7.78952C15.9284 7.78952 15.5553 7.41643 15.5553 6.95619V5.6347L12.5334 8.65656C12.208 8.98199 11.6803 8.98199 11.3549 8.65656C11.0295 8.33112 11.0295 7.80348 11.3549 7.47804L14.3768 4.45619L13.0553 4.45619C12.595 4.45619 12.2219 4.08309 12.2219 3.62286Z" fill="currentColor"/>
</svg>
