<svg viewBox="0 0 20 20" fill="none" xmlns="http://www.w3.org/2000/svg">
<path fill-rule="evenodd" clip-rule="evenodd" d="M8.05474 3.88883C6.82745 3.88883 5.83252 4.88376 5.83252 6.11106C5.83252 7.33836 6.82745 8.33328 8.05474 8.33328C9.28204 8.33328 10.277 7.33836 10.277 6.11106C10.277 4.88376 9.28204 3.88883 8.05474 3.88883ZM4.16586 6.11106C4.16586 3.96328 5.90697 2.22217 8.05474 2.22217C10.2025 2.22217 11.9436 3.96328 11.9436 6.11106C11.9436 8.25883 10.2025 9.99995 8.05474 9.99995C5.90697 9.99995 4.16586 8.25883 4.16586 6.11106Z" fill="currentColor"/>
<path fill-rule="evenodd" clip-rule="evenodd" d="M8.05474 12.7777C6.12858 12.7777 4.35382 13.822 3.41839 15.5058L3.08212 16.1111H10.2324C10.6926 16.1111 11.0657 16.4842 11.0657 16.9444C11.0657 17.4046 10.6926 17.7777 10.2324 17.7777H2.7755C1.64226 17.7777 0.925929 16.5603 1.47628 15.5697L1.96146 14.6964C3.19084 12.4835 5.5233 11.1111 8.05474 11.1111V11.9444C8.05474 11.1111 8.05474 11.1111 8.05474 11.1111L8.05734 11.1111L8.06136 11.1111L8.07356 11.1112L8.1139 11.1118C8.14754 11.1124 8.1945 11.1137 8.25227 11.1162C8.36739 11.1211 8.52774 11.1308 8.71289 11.1504C9.06969 11.188 9.5742 11.2673 10.0287 11.4475C10.4565 11.6172 10.6657 12.1016 10.496 12.5294C10.3263 12.9572 9.84197 13.1665 9.41416 12.9968C9.16831 12.8993 8.83949 12.8396 8.53803 12.8078C8.39406 12.7927 8.26905 12.7851 8.18109 12.7813C8.13733 12.7794 8.10331 12.7785 8.08137 12.7781L8.05797 12.7778L8.05474 12.7777Z" fill="currentColor"/>
<path fill-rule="evenodd" clip-rule="evenodd" d="M11.6659 11.9444C11.6659 11.4842 12.039 11.1111 12.4992 11.1111H17.4992C17.9594 11.1111 18.3325 11.4842 18.3325 11.9444C18.3325 12.4046 17.9594 12.7777 17.4992 12.7777H12.4992C12.039 12.7777 11.6659 12.4046 11.6659 11.9444Z" fill="currentColor"/>
<path fill-rule="evenodd" clip-rule="evenodd" d="M12.5008 14.4444C12.5008 13.9842 12.8739 13.6111 13.3341 13.6111H16.6675C17.1277 13.6111 17.5008 13.9842 17.5008 14.4444C17.5008 14.9046 17.1277 15.2777 16.6675 15.2777H13.3341C12.8739 15.2777 12.5008 14.9046 12.5008 14.4444Z" fill="currentColor"/>
<path fill-rule="evenodd" clip-rule="evenodd" d="M13.3325 16.9444C13.3325 16.4842 13.7056 16.1111 14.1659 16.1111H15.8325C16.2928 16.1111 16.6659 16.4842 16.6659 16.9444C16.6659 17.4046 16.2928 17.7777 15.8325 17.7777H14.1659C13.7056 17.7777 13.3325 17.4046 13.3325 16.9444Z" fill="currentColor"/>
</svg>
