<svg viewBox="0 0 20 20" fill="none" xmlns="http://www.w3.org/2000/svg">
<path fill-rule="evenodd" clip-rule="evenodd" d="M8.05599 6.94488C7.44234 6.94488 6.94488 7.44234 6.94488 8.05599V11.9449C6.94488 12.5585 7.44234 13.056 8.05599 13.056H11.9449C12.5585 13.056 13.056 12.5585 13.056 11.9449V8.05599C13.056 7.44234 12.5585 6.94488 11.9449 6.94488H8.05599ZM8.61154 11.3893V8.61154H11.3893V11.3893H8.61154Z" fill="currentColor"/>
<path fill-rule="evenodd" clip-rule="evenodd" d="M17.7782 10.0004C17.7782 14.296 14.296 17.7782 10.0004 17.7782C5.70489 17.7782 2.22266 14.296 2.22266 10.0004C2.22266 5.70489 5.70489 2.22266 10.0004 2.22266C14.296 2.22266 17.7782 5.70489 17.7782 10.0004ZM16.1115 10.0004C16.1115 13.3755 13.3755 16.1115 10.0004 16.1115C6.62536 16.1115 3.88932 13.3755 3.88932 10.0004C3.88932 6.62536 6.62536 3.88932 10.0004 3.88932C13.3755 3.88932 16.1115 6.62536 16.1115 10.0004Z" fill="currentColor"/>
</svg>
