<svg viewBox="0 0 20 20" fill="none" xmlns="http://www.w3.org/2000/svg">
<path fill-rule="evenodd" clip-rule="evenodd" d="M5.5549 3.33398C4.17419 3.33398 3.0549 4.45327 3.0549 5.83398C3.0549 7.2147 4.17419 8.33398 5.5549 8.33398C6.93562 8.33398 8.0549 7.2147 8.0549 5.83398C8.0549 4.45327 6.93562 3.33398 5.5549 3.33398ZM4.72157 5.83398C4.72157 5.37375 5.09467 5.00065 5.5549 5.00065C6.01514 5.00065 6.38824 5.37375 6.38824 5.83398C6.38824 6.29422 6.01514 6.66732 5.5549 6.66732C5.09467 6.66732 4.72157 6.29422 4.72157 5.83398Z" fill="currentColor"/>
<path fill-rule="evenodd" clip-rule="evenodd" d="M9.99935 6.66732C8.61864 6.66732 7.49935 7.78661 7.49935 9.16732C7.49935 10.548 8.61864 11.6673 9.99935 11.6673C11.3801 11.6673 12.4993 10.548 12.4993 9.16732C12.4993 7.78661 11.3801 6.66732 9.99935 6.66732ZM9.16602 9.16732C9.16602 8.70708 9.53911 8.33398 9.99935 8.33398C10.4596 8.33398 10.8327 8.70708 10.8327 9.16732C10.8327 9.62756 10.4596 10.0007 9.99935 10.0007C9.53911 10.0007 9.16602 9.62756 9.16602 9.16732Z" fill="currentColor"/>
<path fill-rule="evenodd" clip-rule="evenodd" d="M11.9438 5.83398C11.9438 4.45327 13.0631 3.33398 14.4438 3.33398C15.8245 3.33398 16.9438 4.45327 16.9438 5.83398C16.9438 7.2147 15.8245 8.33398 14.4438 8.33398C13.0631 8.33398 11.9438 7.2147 11.9438 5.83398ZM14.4438 5.00065C13.9836 5.00065 13.6105 5.37375 13.6105 5.83398C13.6105 6.29422 13.9836 6.66732 14.4438 6.66732C14.904 6.66732 15.2771 6.29422 15.2771 5.83398C15.2771 5.37375 14.904 5.00065 14.4438 5.00065Z" fill="currentColor"/>
<path d="M14.4438 8.88954C13.9836 8.88954 13.6105 9.26264 13.6105 9.72287C13.6105 10.1831 13.9836 10.5562 14.4438 10.5562H15.2771C16.0442 10.5562 16.666 11.178 16.666 11.9451V13.6118C16.666 14.072 17.0391 14.4451 17.4993 14.4451C17.9596 14.4451 18.3327 14.072 18.3327 13.6118V11.9451C18.3327 10.2576 16.9647 8.88954 15.2771 8.88954H14.4438Z" fill="currentColor"/>
<path d="M6.38824 9.72287C6.38824 9.26264 6.01514 8.88954 5.5549 8.88954H4.72157C3.03403 8.88954 1.66602 10.2576 1.66602 11.9451V13.6118C1.66602 14.072 2.03911 14.4451 2.49935 14.4451C2.95959 14.4451 3.33268 14.072 3.33268 13.6118V11.9451C3.33268 11.178 3.95451 10.5562 4.72157 10.5562H5.5549C6.01514 10.5562 6.38824 10.1831 6.38824 9.72287Z" fill="currentColor"/>
<path d="M10.8326 12.2229C12.5202 12.2229 13.8882 13.5909 13.8882 15.2784V16.3895C13.8882 16.8498 13.5151 17.2229 13.0549 17.2229C12.5946 17.2229 12.2215 16.8498 12.2215 16.3895V15.2784C12.2215 14.5114 11.5997 13.8895 10.8326 13.8895H9.166C8.39887 13.8895 7.77711 14.5113 7.77711 15.2783V16.3895C7.77711 16.8498 7.40402 17.2229 6.94378 17.2229C6.48354 17.2229 6.11045 16.8498 6.11045 16.3895V15.2783C6.11045 13.5907 7.47853 12.2229 9.166 12.2229H10.8326Z" fill="currentColor"/>
</svg>
