<svg viewBox="0 0 20 20" fill="none" xmlns="http://www.w3.org/2000/svg">
<path d="M5.83377 10.0004C5.83377 9.5402 6.20686 9.1671 6.6671 9.1671H9.1671V6.6671C9.1671 6.20686 9.5402 5.83377 10.0004 5.83377C10.4607 5.83377 10.8338 6.20686 10.8338 6.6671V9.1671H13.3338C13.794 9.1671 14.1671 9.5402 14.1671 10.0004C14.1671 10.4607 13.794 10.8338 13.3338 10.8338H10.8338V13.3338C10.8338 13.794 10.4607 14.1671 10.0004 14.1671C9.5402 14.1671 9.1671 13.794 9.1671 13.3338V10.8338H6.6671C6.20686 10.8338 5.83377 10.4607 5.83377 10.0004Z" fill="currentColor"/>
<path fill-rule="evenodd" clip-rule="evenodd" d="M10.0004 17.7782C14.296 17.7782 17.7782 14.296 17.7782 10.0004C17.7782 5.70489 14.296 2.22266 10.0004 2.22266C5.70489 2.22266 2.22266 5.70489 2.22266 10.0004C2.22266 14.296 5.70489 17.7782 10.0004 17.7782ZM10.0004 16.1115C13.3755 16.1115 16.1115 13.3755 16.1115 10.0004C16.1115 6.62536 13.3755 3.88932 10.0004 3.88932C6.62536 3.88932 3.88932 6.62536 3.88932 10.0004C3.88932 13.3755 6.62536 16.1115 10.0004 16.1115Z" fill="currentColor"/>
</svg>
