<svg viewBox="0 0 16 16" fill="none" xmlns="http://www.w3.org/2000/svg">
<path d="M7.9987 15.2093C7.5387 15.2093 7.10536 14.9759 6.7987 14.5693L5.7987 13.2359C5.7787 13.2093 5.6987 13.1759 5.66536 13.1693H5.33203C2.55203 13.1693 0.832031 12.4159 0.832031 8.66927V5.33594C0.832031 2.38927 2.38536 0.835938 5.33203 0.835938H10.6654C13.612 0.835938 15.1654 2.38927 15.1654 5.33594V8.66927C15.1654 11.6159 13.612 13.1693 10.6654 13.1693H10.332C10.2787 13.1693 10.232 13.1959 10.1987 13.2359L9.1987 14.5693C8.89203 14.9759 8.4587 15.2093 7.9987 15.2093ZM5.33203 1.83594C2.94536 1.83594 1.83203 2.94927 1.83203 5.33594V8.66927C1.83203 11.6826 2.86536 12.1693 5.33203 12.1693H5.66536C6.00536 12.1693 6.39203 12.3626 6.5987 12.6359L7.5987 13.9693C7.83203 14.2759 8.16537 14.2759 8.3987 13.9693L9.3987 12.6359C9.6187 12.3426 9.96536 12.1693 10.332 12.1693H10.6654C13.052 12.1693 14.1654 11.0559 14.1654 8.66927V5.33594C14.1654 2.94927 13.052 1.83594 10.6654 1.83594H5.33203Z" fill="currentColor"/>
<path d="M7.9987 7.9974C7.62536 7.9974 7.33203 7.6974 7.33203 7.33073C7.33203 6.96406 7.63203 6.66406 7.9987 6.66406C8.36536 6.66406 8.66536 6.96406 8.66536 7.33073C8.66536 7.6974 8.37203 7.9974 7.9987 7.9974Z" fill="currentColor"/>
<path d="M10.6667 7.9974C10.2933 7.9974 10 7.6974 10 7.33073C10 6.96406 10.3 6.66406 10.6667 6.66406C11.0333 6.66406 11.3333 6.96406 11.3333 7.33073C11.3333 7.6974 11.04 7.9974 10.6667 7.9974Z" fill="currentColor"/>
<path d="M5.33464 7.9974C4.9613 7.9974 4.66797 7.6974 4.66797 7.33073C4.66797 6.96406 4.96797 6.66406 5.33464 6.66406C5.7013 6.66406 6.0013 6.96406 6.0013 7.33073C6.0013 7.6974 5.70797 7.9974 5.33464 7.9974Z" fill="currentColor"/>
</svg>
