<svg viewBox="0 0 20 20" fill="none" xmlns="http://www.w3.org/2000/svg">
<path d="M16.2491 2.75C16.2491 2.33579 15.9133 2 15.4991 2C15.0849 2 14.7491 2.33579 14.7491 2.75V3.75H13.7491C13.3349 3.75 12.9991 4.08579 12.9991 4.5C12.9991 4.91421 13.3349 5.25 13.7491 5.25H14.7491V6.25C14.7491 6.66421 15.0849 7 15.4991 7C15.9133 7 16.2491 6.66421 16.2491 6.25V5.25H17.2491C17.6633 5.25 17.9991 4.91421 17.9991 4.5C17.9991 4.08579 17.6633 3.75 17.2491 3.75H16.2491V2.75Z" fill="currentColor"/>
<path fill-rule="evenodd" clip-rule="evenodd" d="M8.99908 3C7.06609 3 5.49908 4.567 5.49908 6.5C5.49908 8.433 7.06609 10 8.99908 10C10.9321 10 12.4991 8.433 12.4991 6.5C12.4991 4.567 10.9321 3 8.99908 3ZM6.99908 6.5C6.99908 5.39543 7.89452 4.5 8.99908 4.5C10.1037 4.5 10.9991 5.39543 10.9991 6.5C10.9991 7.60457 10.1037 8.5 8.99908 8.5C7.89452 8.5 6.99908 7.60457 6.99908 6.5Z" fill="currentColor"/>
<path fill-rule="evenodd" clip-rule="evenodd" d="M8.99907 11C6.72077 11 4.62156 12.2352 3.51512 14.2268L3.07846 15.0128C2.58314 15.9043 3.22783 17 4.24775 17H13.7504C14.7703 17 15.415 15.9043 14.9197 15.0128L14.483 14.2268C13.3766 12.2352 11.2774 11 8.99907 11ZM4.82635 14.9552C5.66824 13.4398 7.26552 12.5 8.99907 12.5C10.7326 12.5 12.3299 13.4398 13.1718 14.9552L13.4744 15.5H4.52371L4.82635 14.9552Z" fill="currentColor"/>
</svg>
