<svg viewBox="0 0 20 20" fill="none" xmlns="http://www.w3.org/2000/svg">
<path d="M5.55599 7.77794C5.55599 7.3177 5.92909 6.94461 6.38932 6.94461H12.5004C12.9607 6.94461 13.3338 7.3177 13.3338 7.77794C13.3338 8.23818 12.9607 8.61127 12.5004 8.61127H6.38932C5.92909 8.61127 5.55599 8.23818 5.55599 7.77794Z" fill="currentColor"/>
<path d="M6.38932 9.44461C5.92909 9.44461 5.55599 9.8177 5.55599 10.2779C5.55599 10.7382 5.92909 11.1113 6.38932 11.1113H10.2782C10.7384 11.1113 11.1115 10.7382 11.1115 10.2779C11.1115 9.8177 10.7384 9.44461 10.2782 9.44461H6.38932Z" fill="currentColor"/>
<path fill-rule="evenodd" clip-rule="evenodd" d="M2.22266 8.61127C2.22266 5.69644 4.5856 3.3335 7.50043 3.3335H12.5004C15.4153 3.3335 17.7782 5.69644 17.7782 8.61127V9.44461C17.7782 12.3594 15.4153 14.7224 12.5004 14.7224H10.6938L7.16297 17.3366C6.91003 17.5238 6.57317 17.5526 6.29212 17.411C6.01107 17.2694 5.83377 16.9815 5.83377 16.6668V14.4536C3.73567 13.7557 2.22266 11.7776 2.22266 9.44461V8.61127ZM7.50043 5.00016C5.50607 5.00016 3.88932 6.61691 3.88932 8.61127V9.44461C3.88932 11.2066 5.15215 12.6755 6.82241 12.9923C7.21574 13.0669 7.50043 13.4107 7.50043 13.8111V15.013L9.92304 13.2193C10.0665 13.1131 10.2404 13.0557 10.4189 13.0557H12.5004C14.4948 13.0557 16.1115 11.439 16.1115 9.44461V8.61127C16.1115 6.61691 14.4948 5.00016 12.5004 5.00016H7.50043Z" fill="currentColor"/>
</svg>
