<svg viewBox="0 0 20 20" fill="none" xmlns="http://www.w3.org/2000/svg">
<path d="M11.6654 3.88932C11.6654 4.8098 10.9192 5.55599 9.9987 5.55599C9.07822 5.55599 8.33203 4.8098 8.33203 3.88932C8.33203 2.96885 9.07822 2.22266 9.9987 2.22266C10.9192 2.22266 11.6654 2.96885 11.6654 3.88932Z" fill="currentColor"/>
<path d="M11.6654 10.0004C11.6654 10.9209 10.9192 11.6671 9.9987 11.6671C9.07822 11.6671 8.33203 10.9209 8.33203 10.0004C8.33203 9.07996 9.07822 8.33377 9.9987 8.33377C10.9192 8.33377 11.6654 9.07996 11.6654 10.0004Z" fill="currentColor"/>
<path d="M11.6654 16.1115C11.6654 17.032 10.9192 17.7782 9.9987 17.7782C9.07822 17.7782 8.33203 17.032 8.33203 16.1115C8.33203 15.1911 9.07822 14.4449 9.9987 14.4449C10.9192 14.4449 11.6654 15.1911 11.6654 16.1115Z" fill="currentColor"/>
</svg>
