<svg viewBox="0 0 20 20" fill="none" xmlns="http://www.w3.org/2000/svg">
<path fill-rule="evenodd" clip-rule="evenodd" d="M15.4212 3.33301H7.35699C6.91773 3.333 6.53871 3.33298 6.22659 3.35849C5.89713 3.3854 5.56945 3.44483 5.25413 3.60549C4.78373 3.84518 4.40128 4.22763 4.16159 4.69803C4.00093 5.01335 3.9415 5.34103 3.91458 5.67049C3.89734 5.88152 3.89176 6.12311 3.88996 6.39322C3.7308 6.39677 3.58358 6.40303 3.44881 6.41404C3.11935 6.44096 2.79167 6.50039 2.47635 6.66105C2.00595 6.90073 1.6235 7.28318 1.38381 7.75359C1.22315 8.06891 1.16372 8.39659 1.1368 8.72604C1.1113 9.03818 1.11131 9.41714 1.11133 9.85642V13.1985C1.11131 13.6377 1.1113 14.0167 1.1368 14.3289C1.16372 14.6583 1.22315 14.986 1.38381 15.3013C1.6235 15.7717 2.00595 16.1542 2.47635 16.3939C2.79167 16.5545 3.11935 16.614 3.44881 16.6409C3.76095 16.6664 4.13991 16.6664 4.57919 16.6663H12.6435C13.0828 16.6664 13.4617 16.6664 13.7739 16.6409C14.1033 16.614 14.431 16.5545 14.7463 16.3939C15.2167 16.1542 15.5992 15.7717 15.8388 15.3013C15.9995 14.986 16.0589 14.6583 16.0859 14.3289C16.1031 14.1178 16.1087 13.8763 16.1105 13.6061C16.2696 13.6026 16.4169 13.5963 16.5516 13.5853C16.8811 13.5584 17.2088 13.499 17.5241 13.3383C17.9945 13.0986 18.3769 12.7162 18.6166 12.2458C18.7773 11.9304 18.8367 11.6028 18.8636 11.2733C18.8891 10.9612 18.8891 10.5822 18.8891 10.1429V6.80087C18.8891 6.36159 18.8891 5.98263 18.8636 5.67049C18.8367 5.34103 18.7773 5.01335 18.6166 4.69803C18.3769 4.22763 17.9945 3.84518 17.5241 3.60549C17.2088 3.44483 16.8811 3.3854 16.5516 3.35849C16.2395 3.33298 15.8605 3.333 15.4212 3.33301ZM11.3029 14.9997H12.6113C13.0918 14.9997 13.402 14.999 13.6381 14.9797C13.8645 14.9612 13.9485 14.9298 13.9897 14.9089C14.1465 14.829 14.2739 14.7015 14.3538 14.5447C14.3748 14.5035 14.4062 14.4195 14.4247 14.1931C14.444 13.957 14.4447 13.6468 14.4447 13.1663V9.88857C14.4447 9.4081 14.444 9.09788 14.4247 8.86176C14.4062 8.63538 14.3748 8.55144 14.3538 8.51024C14.2739 8.35344 14.1465 8.22595 13.9897 8.14606C13.9485 8.12507 13.8645 8.09367 13.6381 8.07517C13.402 8.05588 13.0918 8.05523 12.6113 8.05523H11.109C11.7952 8.96537 12.2224 10.2468 12.2224 11.6663C12.2224 12.9469 11.8747 14.1151 11.3029 14.9997ZM6.11365 8.05523C5.42748 8.96537 5.00022 10.2468 5.00022 11.6663C5.00022 12.9469 5.34791 14.1151 5.91972 14.9997H4.61133C4.13087 14.9997 3.82064 14.999 3.58453 14.9797C3.35814 14.9612 3.27421 14.9298 3.23301 14.9089C3.0762 14.829 2.94872 14.7015 2.86882 14.5447C2.84783 14.5035 2.81643 14.4195 2.79794 14.1931C2.77864 13.957 2.778 13.6468 2.778 13.1663V9.88857C2.778 9.4081 2.77864 9.09788 2.79794 8.86176C2.81643 8.63538 2.84783 8.55144 2.86882 8.51024C2.94872 8.35344 3.0762 8.22595 3.23301 8.14606C3.27421 8.12507 3.35814 8.09367 3.58453 8.07517C3.82064 8.05588 4.13087 8.05523 4.61133 8.05523H6.11365ZM12.6435 6.38856H5.55677C5.55849 6.14528 5.56315 5.96002 5.57571 5.80621C5.59421 5.57982 5.62561 5.49589 5.6466 5.45469C5.7265 5.29788 5.85398 5.1704 6.01078 5.09051C6.05199 5.06951 6.13592 5.03811 6.36231 5.01962C6.59842 5.00033 6.90865 4.99968 7.38911 4.99968H15.3891C15.8696 4.99968 16.1798 5.00033 16.4159 5.01962C16.6423 5.03811 16.7262 5.06951 16.7674 5.09051C16.9242 5.1704 17.0517 5.29788 17.1316 5.45469C17.1526 5.49589 17.184 5.57982 17.2025 5.80621C17.2218 6.04232 17.2224 6.35255 17.2224 6.83301V10.1108C17.2224 10.5912 17.2218 10.9015 17.2025 11.1376C17.184 11.364 17.1526 11.4479 17.1316 11.4891C17.0517 11.6459 16.9242 11.7734 16.7674 11.8533C16.7262 11.8743 16.6423 11.9057 16.4159 11.9242C16.3267 11.9315 16.2269 11.9361 16.1113 11.939V9.85643C16.1113 9.41714 16.1114 9.03818 16.0859 8.72604C16.0589 8.39659 15.9995 8.06891 15.8388 7.75359C15.5992 7.28318 15.2167 6.90073 14.7463 6.66105C14.431 6.50039 14.1033 6.44096 13.7739 6.41404C13.4617 6.38854 13.0827 6.38855 12.6435 6.38856ZM10.5558 11.6663C10.5558 12.7357 10.2403 13.6353 9.81364 14.2261C9.38538 14.819 8.93877 14.9997 8.61133 14.9997C8.28389 14.9997 7.83728 14.819 7.40902 14.2261C6.98235 13.6353 6.66688 12.7357 6.66688 11.6663C6.66688 10.597 6.98235 9.69739 7.40902 9.10663C7.83728 8.51365 8.28389 8.33301 8.61133 8.33301C8.93877 8.33301 9.38538 8.51365 9.81364 9.10663C10.2403 9.69739 10.5558 10.597 10.5558 11.6663Z" fill="currentColor"/>
</svg>
