<svg viewBox="0 0 20 20" fill="none" xmlns="http://www.w3.org/2000/svg">
<path d="M4.44488 10.0004C4.44488 6.93218 6.93218 4.44488 10.0004 4.44488C13.0687 4.44488 15.556 6.93218 15.556 10.0004C15.556 10.6141 16.0535 11.1115 16.6671 11.1115C17.2808 11.1115 17.7782 10.6141 17.7782 10.0004C17.7782 5.70489 14.296 2.22266 10.0004 2.22266C5.70489 2.22266 2.22266 5.70489 2.22266 10.0004C2.22266 14.296 5.70489 17.7782 10.0004 17.7782C10.6141 17.7782 11.1115 17.2808 11.1115 16.6671C11.1115 16.0535 10.6141 15.556 10.0004 15.556C6.93218 15.556 4.44488 13.0687 4.44488 10.0004Z" fill="currentColor"/>
<path d="M11.4335 9.82295C11.5189 10.4306 12.0807 10.854 12.6884 10.7686C13.2961 10.6832 13.7195 10.1214 13.6341 9.51368C13.5414 8.85419 13.2681 8.23318 12.8445 7.7193C12.4209 7.20542 11.8635 6.81869 11.2338 6.60187C10.6041 6.38506 9.92671 6.34659 9.27653 6.49073C8.62634 6.63488 8.02868 6.95601 7.54963 7.41863C7.07057 7.88125 6.72877 8.46734 6.56203 9.1121C6.39528 9.75685 6.41008 10.4352 6.60479 11.072C6.7995 11.7089 7.16654 12.2795 7.66532 12.7208C8.1641 13.1621 8.7752 13.4569 9.43105 13.5725C10.0354 13.6791 10.6117 13.2755 10.7182 12.6712C10.8248 12.0669 10.4213 11.4906 9.81694 11.384C9.56469 11.3396 9.32965 11.2262 9.13781 11.0565C8.94597 10.8867 8.8048 10.6673 8.72991 10.4223C8.65503 10.1774 8.64933 9.91648 8.71347 9.6685C8.7776 9.42051 8.90906 9.1951 9.09331 9.01716C9.27756 8.83923 9.50743 8.71572 9.7575 8.66028C10.0076 8.60484 10.2681 8.61964 10.5103 8.70303C10.7525 8.78642 10.9669 8.93516 11.1298 9.1328C11.2927 9.33045 11.3978 9.5693 11.4335 9.82295Z" fill="currentColor"/>
<path d="M11.7904 11.0815C11.5886 11.0103 11.3639 11.0613 11.2126 11.2126C11.0614 11.3639 11.0104 11.5886 11.0816 11.7903L13.4386 18.4686C13.5068 18.6616 13.6756 18.8016 13.8779 18.8327C14.0803 18.8639 14.2834 18.7812 14.4065 18.6176L15.7084 16.8868L16.8611 18.0396C17.0781 18.2565 17.4298 18.2565 17.6468 18.0396L18.0396 17.6467C18.2566 17.4298 18.2566 17.078 18.0396 16.8611L16.8869 15.7083L18.6177 14.4064C18.7813 14.2833 18.864 14.0802 18.8328 13.8779C18.8016 13.6755 18.6617 13.5067 18.4686 13.4386L11.7904 11.0815Z" fill="currentColor"/>
</svg>
