<svg viewBox="0 0 20 20" fill="none" xmlns="http://www.w3.org/2000/svg">
<path fill-rule="evenodd" clip-rule="evenodd" d="M9.99812 2.22266C7.85034 2.22266 6.10923 3.96377 6.10923 6.11154C6.10923 8.25932 7.85034 10.0004 9.99812 10.0004C12.1459 10.0004 13.887 8.25932 13.887 6.11154C13.887 3.96377 12.1459 2.22266 9.99812 2.22266ZM7.77589 6.11154C7.77589 4.88425 8.77082 3.88932 9.99812 3.88932C11.2254 3.88932 12.2203 4.88425 12.2203 6.11154C12.2203 7.33884 11.2254 8.33377 9.99812 8.33377C8.77082 8.33377 7.77589 7.33884 7.77589 6.11154Z" fill="currentColor"/>
<path fill-rule="evenodd" clip-rule="evenodd" d="M16.0914 14.6969C14.862 12.484 12.5295 11.1115 9.9981 11.1115C7.46666 11.1115 5.13419 12.484 3.90482 14.6969L3.41964 15.5702C2.86929 16.5608 3.58561 17.7782 4.71886 17.7782H15.2773C16.4106 17.7782 17.1269 16.5608 16.5766 15.5702L16.0914 14.6969ZM5.36175 15.5063C6.29717 13.8225 8.07194 12.7782 9.9981 12.7782C11.9243 12.7782 13.699 13.8225 14.6345 15.5063L14.9707 16.1115H5.02548L5.36175 15.5063Z" fill="currentColor"/>
</svg>
