<svg viewBox="0 0 20 20" fill="none" xmlns="http://www.w3.org/2000/svg">
<path d="M4.16667 10C4.16667 6.77834 6.77834 4.16667 10 4.16667C13.2217 4.16667 15.8333 6.77834 15.8333 10C15.8333 10.4602 16.2064 10.8333 16.6667 10.8333C17.1269 10.8333 17.5 10.4602 17.5 10C17.5 5.85786 14.1421 2.5 10 2.5C5.85786 2.5 2.5 5.85786 2.5 10C2.5 14.1421 5.85786 17.5 10 17.5C10.4602 17.5 10.8333 17.1269 10.8333 16.6667C10.8333 16.2064 10.4602 15.8333 10 15.8333C6.77834 15.8333 4.16667 13.2217 4.16667 10Z" fill="currentColor"/>
<path d="M11.7081 9.7837C11.7722 10.2395 12.1936 10.557 12.6493 10.4929C13.1051 10.4289 13.4226 10.0075 13.3586 9.55175C13.273 8.94299 13.0208 8.36974 12.6298 7.8954C12.2387 7.42105 11.7242 7.06407 11.1429 6.86393C10.5617 6.66379 9.93639 6.62828 9.33622 6.76134C8.73605 6.89439 8.18437 7.19082 7.74216 7.61786C7.29995 8.04489 6.98445 8.5859 6.83053 9.18106C6.67661 9.77622 6.69027 10.4023 6.87001 10.9902C7.04974 11.5781 7.38854 12.1048 7.84896 12.5122C8.30937 12.9195 8.87346 13.1916 9.47886 13.2983C9.93211 13.3783 10.3643 13.0756 10.4442 12.6224C10.5242 12.1691 10.2215 11.7369 9.76827 11.657C9.46557 11.6036 9.18353 11.4676 8.95332 11.2639C8.72312 11.0602 8.55371 10.7969 8.46385 10.5029C8.37398 10.209 8.36715 9.89594 8.44411 9.59836C8.52107 9.30078 8.67882 9.03027 8.89992 8.81676C9.12103 8.60324 9.39687 8.45502 9.69696 8.3885C9.99704 8.32197 10.3097 8.33972 10.6003 8.43979C10.8909 8.53986 11.1482 8.71835 11.3437 8.95553C11.5392 9.1927 11.6654 9.47932 11.7081 9.7837Z" fill="currentColor"/>
<path d="M11.7899 11.0812C11.5882 11.01 11.3635 11.061 11.2122 11.2123C11.0609 11.3636 11.0099 11.5883 11.0811 11.79L13.4382 18.4683C13.5063 18.6613 13.6751 18.8013 13.8775 18.8324C14.0799 18.8636 14.283 18.7809 14.406 18.6173L15.7079 16.8865L16.8607 18.0393C17.0776 18.2562 17.4294 18.2562 17.6463 18.0393L18.0392 17.6464C18.2561 17.4295 18.2561 17.0777 18.0392 16.8608L16.8864 15.708L18.6172 14.4061C18.7808 14.283 18.8635 14.0799 18.8323 13.8776C18.8012 13.6752 18.6612 13.5064 18.4682 13.4383L11.7899 11.0812Z" fill="currentColor"/>
</svg>
