<svg viewBox="0 0 20 20" fill="none" xmlns="http://www.w3.org/2000/svg">
<path d="M6.38932 3.3335C4.08814 3.3335 2.22266 5.19898 2.22266 7.50016V10.2779C2.22266 12.5791 4.08814 14.4446 6.38932 14.4446H8.05599C8.51623 14.4446 8.88932 14.0715 8.88932 13.6113C8.88932 13.151 8.51623 12.7779 8.05599 12.7779H6.38932C5.00861 12.7779 3.88932 11.6587 3.88932 10.2779V7.50016C3.88932 6.11945 5.00861 5.00016 6.38932 5.00016H13.6115C14.9923 5.00016 16.1115 6.11945 16.1115 7.50016V8.05572C16.1115 8.51596 16.4846 8.88905 16.9449 8.88905C17.4051 8.88905 17.7782 8.51596 17.7782 8.05572V7.50016C17.7782 5.19898 15.9127 3.3335 13.6115 3.3335H6.38932Z" fill="currentColor"/>
<path d="M9.40537 8.29399C9.63229 8.06707 9.96935 7.99061 10.272 8.09742L16.9502 10.4544C17.2201 10.5497 17.4222 10.7768 17.4855 11.0559C17.5489 11.3351 17.4645 11.6271 17.2621 11.8295L15.8872 13.2045L17.4585 14.7758C17.784 15.1012 17.784 15.6289 17.4585 15.9543L17.0657 16.3471C16.7403 16.6726 16.2126 16.6726 15.8872 16.3471L14.3158 14.7758L12.9409 16.1507C12.7385 16.3531 12.4464 16.4375 12.1673 16.3742C11.8882 16.3109 11.6611 16.1087 11.5658 15.8388L9.2088 9.16059C9.10199 8.85797 9.17845 8.52091 9.40537 8.29399Z" fill="currentColor"/>
</svg>
