<svg viewBox="0 0 20 20" fill="none" xmlns="http://www.w3.org/2000/svg">
<path fill-rule="evenodd" clip-rule="evenodd" d="M5.27821 3.88867C3.59068 3.88867 2.22266 5.25669 2.22266 6.94423V13.0553C2.22266 14.7429 3.59068 16.1109 5.27821 16.1109H14.7227C16.4102 16.1109 17.7782 14.7429 17.7782 13.0553V6.94423C17.7782 5.25669 16.4102 3.88867 14.7227 3.88867H5.27821ZM3.88932 6.94423C3.88932 6.17717 4.51115 5.55534 5.27821 5.55534H14.7227C15.4897 5.55534 16.1115 6.17717 16.1115 6.94423V13.0553C16.1115 13.8224 15.4897 14.4442 14.7227 14.4442H5.27821C4.51115 14.4442 3.88932 13.8224 3.88932 13.0553V6.94423ZM6.18617 7.30019C5.76911 7.10556 5.27324 7.28587 5.07861 7.70293C4.88398 8.11999 5.0643 8.61586 5.48136 8.81049L9.41309 10.6453C9.78538 10.819 10.2155 10.819 10.5878 10.6453L14.5195 8.81049C14.9366 8.61586 15.1169 8.11999 14.9222 7.70293C14.7276 7.28587 14.2318 7.10556 13.8147 7.30019L10.0004 9.08017L6.18617 7.30019Z" fill="currentColor"/>
</svg>
