<svg width="21" height="20" viewBox="0 0 21 20" fill="none" xmlns="http://www.w3.org/2000/svg">
<path d="M8.27843 12.7781C7.66478 12.7781 7.16732 13.2756 7.16732 13.8892C7.16732 14.5029 7.66478 15.0003 8.27843 15.0003H12.7229C13.3365 15.0003 13.834 14.5029 13.834 13.8892C13.834 13.2756 13.3365 12.7781 12.7229 12.7781H8.27843Z" fill="currentColor"/>
<path fill-rule="evenodd" clip-rule="evenodd" d="M6.88954 1.66699C5.202 1.66699 3.83398 3.03501 3.83398 4.72255V15.2781C3.83398 16.9656 5.202 18.3337 6.88954 18.3337H14.1118C15.7993 18.3337 17.1673 16.9656 17.1673 15.2781V8.61144C17.1673 8.39042 17.0795 8.17846 16.9232 8.02218L10.8121 1.91107C10.6558 1.75479 10.4439 1.66699 10.2229 1.66699H6.88954ZM5.50065 4.72255C5.50065 3.95549 6.12248 3.33366 6.88954 3.33366H9.38954V7.50033C9.38954 8.57421 10.2601 9.44477 11.334 9.44477H15.5007V15.2781C15.5007 16.0452 14.8788 16.667 14.1118 16.667H6.88954C6.12248 16.667 5.50065 16.0452 5.50065 15.2781V4.72255ZM14.3221 7.7781L11.0562 4.51217V7.50033C11.0562 7.65374 11.1806 7.7781 11.334 7.7781H14.3221Z" fill="currentColor"/>
</svg>
