<svg viewBox="0 0 20 20" fill="none" xmlns="http://www.w3.org/2000/svg">
<path d="M6.38845 8.88846C5.92822 8.88846 5.55512 9.26155 5.55512 9.72179C5.55512 10.182 5.92822 10.5551 6.38845 10.5551H6.94401C7.40425 10.5551 7.77734 10.182 7.77734 9.72179C7.77734 9.26155 7.40425 8.88846 6.94401 8.88846H6.38845Z" fill="currentColor"/>
<path d="M8.61068 9.72179C8.61068 9.26155 8.98377 8.88846 9.44401 8.88846H9.99957C10.4598 8.88846 10.8329 9.26155 10.8329 9.72179C10.8329 10.182 10.4598 10.5551 9.99957 10.5551H9.44401C8.98377 10.5551 8.61068 10.182 8.61068 9.72179Z" fill="currentColor"/>
<path d="M9.44401 6.11068C8.98377 6.11068 8.61068 6.48377 8.61068 6.94401C8.61068 7.40425 8.98377 7.77734 9.44401 7.77734H9.99957C10.4598 7.77734 10.8329 7.40425 10.8329 6.94401C10.8329 6.48377 10.4598 6.11068 9.99957 6.11068H9.44401Z" fill="currentColor"/>
<path d="M5.55512 6.94401C5.55512 6.48377 5.92822 6.11068 6.38845 6.11068H6.94401C7.40425 6.11068 7.77734 6.48377 7.77734 6.94401C7.77734 7.40425 7.40425 7.77734 6.94401 7.77734H6.38845C5.92822 7.77734 5.55512 7.40425 5.55512 6.94401Z" fill="currentColor"/>
<path fill-rule="evenodd" clip-rule="evenodd" d="M2.77734 4.72179C2.77734 3.6479 3.6479 2.77734 4.72179 2.77734H11.6662C12.7401 2.77734 13.6107 3.6479 13.6107 4.72179V5.27734H15.2773C16.3512 5.27734 17.2218 6.1479 17.2218 7.22179V15.2773C17.2218 16.3512 16.3512 17.2218 15.2773 17.2218H4.72179C3.6479 17.2218 2.77734 16.3512 2.77734 15.2773V4.72179ZM7.49957 15.5551H8.88846V14.1662C8.88846 14.0128 8.76409 13.8885 8.61068 13.8885H7.77734C7.62393 13.8885 7.49957 14.0128 7.49957 14.1662V15.5551ZM10.5551 15.5551V14.1662C10.5551 13.0923 9.68456 12.2218 8.61068 12.2218H7.77734C6.70346 12.2218 5.8329 13.0923 5.8329 14.1662V15.5551H4.72179C4.56838 15.5551 4.44401 15.4308 4.44401 15.2773V4.72179C4.44401 4.56838 4.56838 4.44401 4.72179 4.44401H11.6662C11.8196 4.44401 11.944 4.56838 11.944 4.72179V15.2773C11.944 15.4308 11.8196 15.5551 11.6662 15.5551H10.5551ZM13.6107 15.2773V6.94401H15.2773C15.4308 6.94401 15.5551 7.06838 15.5551 7.22179V15.2773C15.5551 15.4308 15.4308 15.5551 15.2773 15.5551H13.591C13.604 15.4644 13.6107 15.3717 13.6107 15.2773Z" fill="currentColor"/>
</svg>
