<svg viewBox="0 0 20 20" fill="none" xmlns="http://www.w3.org/2000/svg">
<path fill-rule="evenodd" clip-rule="evenodd" d="M15.4212 3.33301H7.35699C6.91773 3.333 6.53871 3.33298 6.22659 3.35849C5.89713 3.3854 5.56945 3.44483 5.25413 3.60549C4.78373 3.84518 4.40128 4.22763 4.16159 4.69803C4.00093 5.01335 3.9415 5.34103 3.91458 5.67049C3.89734 5.88152 3.89176 6.12311 3.88996 6.39322C3.7308 6.39678 3.58358 6.40303 3.44881 6.41404C3.11935 6.44096 2.79167 6.50039 2.47635 6.66105C2.00595 6.90073 1.6235 7.28319 1.38381 7.75359C1.22315 8.06891 1.16372 8.39659 1.13681 8.72604C1.1113 9.03817 1.11132 9.41712 1.11133 9.85639V13.1985C1.11132 13.6377 1.1113 14.0167 1.13681 14.3289C1.16372 14.6583 1.22315 14.986 1.38381 15.3013C1.6235 15.7717 2.00595 16.1542 2.47635 16.3939C2.79167 16.5545 3.11935 16.614 3.44881 16.6409C3.76095 16.6664 4.13991 16.6664 4.57919 16.6663H12.6435C13.0828 16.6664 13.4617 16.6664 13.7739 16.6409C14.1033 16.614 14.431 16.5545 14.7463 16.3939C15.2167 16.1542 15.5992 15.7717 15.8388 15.3013C15.9995 14.986 16.0589 14.6583 16.0859 14.3289C16.1031 14.1178 16.1087 13.8763 16.1105 13.6061C16.2696 13.6026 16.4169 13.5963 16.5516 13.5853C16.8811 13.5584 17.2088 13.499 17.5241 13.3383C17.9945 13.0986 18.3769 12.7162 18.6166 12.2458C18.7773 11.9304 18.8367 11.6028 18.8636 11.2733C18.8891 10.9612 18.8891 10.5822 18.8891 10.1429V6.80087C18.8891 6.36159 18.8891 5.98263 18.8636 5.67049C18.8367 5.34103 18.7773 5.01335 18.6166 4.69803C18.3769 4.22763 17.9945 3.84518 17.5241 3.60549C17.2088 3.44483 16.8811 3.3854 16.5516 3.35849C16.2395 3.33298 15.8605 3.333 15.4212 3.33301ZM16.1113 9.85643V11.939C16.2269 11.9361 16.3267 11.9315 16.4159 11.9242C16.6423 11.9057 16.7262 11.8743 16.7674 11.8533C16.9242 11.7734 17.0517 11.6459 17.1316 11.4891C17.1526 11.4479 17.184 11.364 17.2025 11.1376C17.2218 10.9015 17.2224 10.5912 17.2224 10.1108V6.83301C17.2224 6.35255 17.2218 6.04232 17.2025 5.80621C17.184 5.57982 17.1526 5.49589 17.1316 5.45469C17.0517 5.29788 16.9242 5.1704 16.7674 5.09051C16.7262 5.06951 16.6423 5.03811 16.4159 5.01962C16.1798 5.00033 15.8696 4.99968 15.3891 4.99968H7.38911C6.90865 4.99968 6.59842 5.00033 6.3623 5.01962C6.13592 5.03811 6.05199 5.06951 6.01078 5.09051C5.85398 5.1704 5.7265 5.29788 5.6466 5.45469C5.62561 5.49589 5.59421 5.57982 5.57571 5.80621C5.56315 5.96002 5.55849 6.14528 5.55677 6.38857H12.6435C13.0827 6.38855 13.4617 6.38854 13.7739 6.41404C14.1033 6.44096 14.431 6.50039 14.7463 6.66105C15.2167 6.90073 15.5992 7.28319 15.8388 7.75359C15.9995 8.06891 16.0589 8.39659 16.0859 8.72604C16.1114 9.03818 16.1113 9.41715 16.1113 9.85643ZM9.85633 14.1796C10.2664 13.583 10.5558 12.6979 10.5558 11.6663C10.5558 10.6348 10.2664 9.74965 9.85633 9.15312C9.44283 8.55167 8.98387 8.33301 8.61133 8.33301C8.23879 8.33301 7.77983 8.55167 7.36633 9.15312C6.95621 9.74965 6.66688 10.6348 6.66688 11.6663C6.66688 12.6979 6.95621 13.583 7.36633 14.1796C7.77983 14.781 8.23879 14.9997 8.61133 14.9997C8.98387 14.9997 9.44283 14.781 9.85633 14.1796Z" fill="currentColor"/>
</svg>
