<svg viewBox="0 0 20 20" fill="none" xmlns="http://www.w3.org/2000/svg">
    <path fill-rule="evenodd" clip-rule="evenodd"
        d="M5.70741 1.70696C5.31688 1.31643 4.68372 1.31643 4.29319 1.70696L2.70696 3.2932C2.31643 3.68372 2.31643 4.31688 2.70696 4.70741L4.2932 6.29365C4.68372 6.68417 5.31688 6.68417 5.70741 6.29365L7.25121 4.74985H14.2503V9.24985H12.2503L10.7074 7.70696C10.3169 7.31643 9.68372 7.31643 9.2932 7.70696L7.7503 9.24985H5.0003C4.58609 9.24985 4.2503 9.58564 4.2503 9.99985V14.9998C4.2503 15.1988 4.32932 15.3895 4.46997 15.5302C4.61062 15.6708 4.80139 15.7498 5.0003 15.7498H15.0003V16.7936C15.0003 17.2391 15.5389 17.4622 15.8539 17.1472L17.6472 15.3539C17.8425 15.1586 17.8425 14.842 17.6472 14.6467L15.8539 12.8534C15.5389 12.5384 15.0003 12.7615 15.0003 13.207V14.2498H5.7503V10.7498H7.7494L9.2932 12.2936C9.68372 12.6842 10.3169 12.6842 10.7074 12.2936L12.2512 10.7498H15.0003C15.4145 10.7498 15.7503 10.4141 15.7503 9.99985V3.99985C15.7503 3.58564 15.4145 3.24985 15.0003 3.24985H7.2503L5.70741 1.70696Z"
        fill="currentColor" />
</svg>