<svg viewBox="0 0 20 20" fill="none" xmlns="http://www.w3.org/2000/svg">
    <path fill-rule="evenodd" clip-rule="evenodd"
        d="M4.12117 4.0003L5.0003 3.12117L5.87943 4.0003L5.0003 4.87943L4.12117 4.0003ZM4.29319 1.70696C4.68372 1.31643 5.31688 1.31643 5.70741 1.70696L7.25033 3.24987L15.0004 3.25065C15.4146 3.25069 15.7503 3.58647 15.7503 4.00065V10.0007C15.7503 10.4149 15.4145 10.7507 15.0003 10.7507H12.2504L10.7074 12.2936C10.3169 12.6842 9.68372 12.6842 9.2932 12.2936L7.7502 10.7507H5.7503V14.2507H15.0003L15.0003 13.207C15.0003 12.7615 15.5389 12.5384 15.8539 12.8534L17.6472 14.6467C17.8425 14.842 17.8425 15.1586 17.6472 15.3539L15.8539 17.1472C15.5389 17.4622 15.0003 17.2391 15.0003 16.7936L15.0003 15.7507H5.0003C4.80139 15.7507 4.61062 15.6716 4.46997 15.531C4.32932 15.3903 4.2503 15.1996 4.2503 15.0007V10.0007C4.2503 9.58644 4.58609 9.25065 5.0003 9.25065H7.7495L9.29319 7.70696C9.68372 7.31643 10.3169 7.31643 10.7074 7.70696L12.2511 9.25065H14.2503V4.75058L7.25118 4.74987L5.70741 6.29365C5.31688 6.68417 4.68372 6.68417 4.2932 6.29365L2.70696 4.70741C2.31643 4.31688 2.31643 3.68372 2.70696 3.2932L4.29319 1.70696ZM10.0003 9.12117L9.12117 10.0003L10.0003 10.8794L10.8794 10.0003L10.0003 9.12117Z"
        fill="currentColor" />
</svg>