<svg viewBox="0 0 32 32" fill="none" xmlns="http://www.w3.org/2000/svg">
<path d="M12.8262 21.334L14.8262 23.334L19.1595 19.334" stroke="currentColor" stroke-width="1.5" stroke-linecap="round" stroke-linejoin="round"/>
<path d="M11.7466 2.66602L6.91992 7.50602" stroke="currentColor" stroke-width="1.5" stroke-miterlimit="10" stroke-linecap="round" stroke-linejoin="round"/>
<path d="M20.2539 2.66602L25.0806 7.50602" stroke="currentColor" stroke-width="1.5" stroke-miterlimit="10" stroke-linecap="round" stroke-linejoin="round"/>
<path d="M2.66602 10.4674C2.66602 8.00078 3.98602 7.80078 5.62602 7.80078H26.3727C28.0127 7.80078 29.3327 8.00078 29.3327 10.4674C29.3327 13.3341 28.0127 13.1341 26.3727 13.1341H5.62602C3.98602 13.1341 2.66602 13.3341 2.66602 10.4674Z" stroke="currentColor" stroke-width="1.5"/>
<path d="M4.66602 13.334L6.54602 24.854C6.97268 27.4407 7.99935 29.334 11.8127 29.334H19.8527C23.9993 29.334 24.6127 27.5207 25.0927 25.014L27.3327 13.334" stroke="currentColor" stroke-width="1.5" stroke-linecap="round"/>
</svg>
