<svg viewBox="0 0 231 231" fill="none" xmlns="http://www.w3.org/2000/svg">
    <path
        d="M104.977 46.2208L230.774 0L225.849 18.8236C223.673 27.1471 223.664 35.889 225.822 44.2171L226.994 48.7606C229.458 58.2828 229.084 68.3177 225.917 77.6299C222.473 87.7619 222.341 98.7269 225.54 108.939L230.774 125.627L104.977 50.4871V46.2208Z"
        fill="url(#paint0_linear_538_23231)" />
    <path
        d="M118.476 227.083C105.084 230.154 91.2507 230.807 77.6292 229.01C76.2933 228.831 74.9591 228.631 73.6263 228.41C72.2935 228.189 70.9471 227.937 69.587 227.656C68.7026 227.48 67.8181 227.289 66.9336 227.083L67.0154 225.879L67.2607 222.399L67.4016 220.381L67.7378 215.52L68.0786 210.654L68.3058 207.387L68.4602 205.161L68.8146 200.058L69.1872 194.734L69.5598 189.381L69.9414 183.884L70.2958 178.777L70.6684 173.452L71.0001 168.672L71.3817 163.175L71.7407 158.063L72.1087 152.738L72.4949 147.227L72.8357 142.325L73.1674 137.518L73.44 133.606L73.7853 128.671L74.0988 124.169L74.4169 119.571L74.7985 114.119L75.1802 108.621L75.5346 103.514L75.9026 98.1892L76.0162 96.5671H109.384L117.108 207.396L118.258 223.898L118.476 227.083Z"
        fill="#C8C8C8" />
    <path
        d="M118.476 227.083C105.084 230.154 91.2507 230.807 77.6292 229.009C76.2933 228.831 74.9591 228.631 73.6263 228.41C72.2935 228.189 70.9471 227.937 69.587 227.656C68.7026 227.48 67.8181 227.289 66.9336 227.083L67.0154 225.879L67.2607 222.399L67.4016 220.381L67.7378 215.52L68.0786 210.654L68.3058 207.387C69.1206 207.563 69.9354 207.729 70.7502 207.887C71.9906 208.128 73.2355 208.341 74.4805 208.546C75.7254 208.75 77.0294 208.936 78.3062 209.091C91.2375 210.719 104.351 210.143 117.09 207.387L118.24 223.889L118.476 227.083Z"
        fill="#EEEEEE" />
    <path
        d="M77.471 96.558C77.3374 96.9225 77.1248 97.2529 76.8486 97.5257C76.5869 97.8123 76.2638 98.036 75.9035 98.18C76.0433 97.8187 76.2541 97.4891 76.5233 97.2105C76.7925 96.932 77.1147 96.7101 77.471 96.558ZM82.0419 96.7761C80.0922 99.2253 77.9119 101.482 75.5309 103.514C76.4949 102.283 77.5264 101.106 78.6205 99.9883C79.7019 98.8564 80.844 97.784 82.0419 96.7761ZM82.0419 101.51C79.9754 104.084 77.6773 106.463 75.1765 108.616C76.1996 107.323 77.29 106.084 78.4433 104.904C79.5837 103.712 80.7848 102.579 82.0419 101.51ZM82.0419 106.608C80.9605 107.971 79.7701 109.262 78.5797 110.52C77.3892 111.779 76.1307 112.987 74.7949 114.114C75.8717 112.751 77.0666 111.461 78.2525 110.202C79.4384 108.944 80.706 107.735 82.0419 106.608ZM82.0419 128.326C81.3694 129.157 80.6788 129.953 79.9473 130.743C79.2158 131.534 78.5024 132.311 77.7664 133.078C77.0303 133.846 76.2761 134.605 75.4946 135.35L74.3769 136.445C73.977 136.804 73.5908 137.172 73.1864 137.517C73.5181 137.099 73.8725 136.7 74.2133 136.291L75.281 135.1C75.9898 134.305 76.7259 133.533 77.4619 132.765C78.198 131.997 78.9477 131.238 79.7337 130.493C80.5198 129.748 81.2331 129.035 82.0419 128.326ZM82.0419 132.788C81.3421 133.646 80.6061 134.473 79.8655 135.291C79.1249 136.109 78.3616 136.913 77.5937 137.713C76.8258 138.512 76.0534 139.294 75.2538 140.062L74.0588 141.211C73.6453 141.579 73.2455 141.961 72.8275 142.324C73.1728 141.893 73.5408 141.479 73.8952 141.057L75.0039 139.821C75.7399 138.994 76.5032 138.194 77.2757 137.399C78.0481 136.604 78.8205 135.818 79.6156 135.05C80.4107 134.282 81.1922 133.519 82.0419 132.788ZM82.0419 137.336C81.3103 138.244 80.547 139.08 79.7701 139.93C78.9931 140.78 78.2116 141.611 77.421 142.438C76.6305 143.265 75.8217 144.078 74.9948 144.873L73.7544 146.068C73.3318 146.454 72.9138 146.85 72.4822 147.227C72.8411 146.773 73.2228 146.35 73.5954 145.914L74.7449 144.633C75.5082 143.778 76.2988 142.951 77.0939 142.125C77.889 141.298 78.6932 140.484 79.5202 139.689C80.3471 138.894 81.1922 138.094 82.0419 137.336ZM82.0419 142.452C81.2785 143.36 80.4834 144.269 79.6837 145.146C78.8841 146.023 78.0617 146.891 77.2348 147.754C76.4078 148.617 75.5718 149.458 74.7131 150.289L73.4272 151.53C72.9729 151.934 72.5549 152.347 72.1051 152.738C72.4822 152.284 72.8775 151.829 73.2637 151.375L74.4632 150.044C75.2628 149.158 76.0852 148.299 76.9076 147.436C77.73 146.573 78.5751 145.732 79.4293 144.901C80.2835 144.069 81.1468 143.242 82.0419 142.452ZM82.0419 147.395C81.2513 148.349 80.4243 149.267 79.5883 150.185C78.7523 151.102 77.9072 152.002 77.053 152.888C76.1988 153.774 75.3265 154.655 74.4359 155.519L73.1046 156.809C72.6503 157.227 72.1959 157.654 71.7416 158.063C72.1323 157.581 72.5458 157.123 72.9502 156.65L74.1906 155.287C75.022 154.378 75.8762 153.47 76.7304 152.584C77.5846 151.698 78.457 150.816 79.343 149.953C80.229 149.09 81.115 148.217 82.0419 147.395ZM82.0419 152.134C81.2195 153.12 80.3607 154.069 79.502 155.014C78.6433 155.959 77.7573 156.886 76.8713 157.813C75.9853 158.74 75.0856 159.631 74.1451 160.539L72.7821 161.875C72.3277 162.329 71.8733 162.756 71.369 163.179C71.7734 162.684 72.205 162.207 72.6185 161.721L73.9225 160.294C74.7812 159.344 75.6672 158.422 76.5487 157.495C77.4301 156.568 78.3343 155.678 79.2521 154.769C80.1699 153.86 81.0832 152.988 82.0419 152.134ZM82.0419 157.236C81.1877 158.254 80.2971 159.24 79.4066 160.217C78.516 161.194 77.5892 162.157 76.6804 163.111C75.7717 164.065 74.8312 165.01 73.8816 165.932L72.4549 167.318C71.9688 167.772 71.4917 168.227 70.9964 168.681C71.419 168.168 71.8643 167.677 72.2959 167.173L73.6317 165.701C74.5404 164.719 75.4491 163.761 76.3578 162.806C77.2666 161.852 78.2071 160.907 79.1567 159.985C80.1063 159.063 81.0514 158.113 82.0419 157.236ZM82.0419 161.671C81.1604 162.716 80.2244 163.729 79.3157 164.737C78.407 165.746 77.4528 166.732 76.5123 167.718C75.5718 168.704 74.6086 169.676 73.6272 170.626L72.1596 172.057C71.6598 172.511 71.1691 172.997 70.6602 173.452C71.1146 172.925 71.5689 172.42 72.0006 171.902L73.3636 170.385C74.2723 169.376 75.2265 168.39 76.1716 167.404C77.1166 166.419 78.0753 165.446 79.0522 164.497C80.029 163.547 81.0241 162.588 82.0419 161.671ZM82.0419 166.609C81.1331 167.686 80.1835 168.731 79.2294 169.79C78.2752 170.848 77.3029 171.853 76.3306 172.87C75.3583 173.888 74.3632 174.888 73.3545 175.873L71.8415 177.35C71.3236 177.832 70.8192 178.322 70.2922 178.795C70.7465 178.254 71.2009 177.732 71.678 177.196L73.1046 175.633C74.0543 174.588 75.0266 173.57 76.0034 172.552C76.9803 171.534 77.9708 170.535 78.9795 169.549C79.9882 168.563 80.9923 167.559 82.0419 166.609ZM82.0419 171.353C81.1013 172.461 80.1245 173.538 79.1385 174.606C78.1526 175.674 77.1575 176.728 76.1534 177.786C75.1493 178.845 74.127 179.867 73.0865 180.88L71.528 182.402C70.9964 182.898 70.4785 183.407 69.9378 183.893C70.3921 183.334 70.8919 182.798 71.369 182.248L72.8366 180.64C73.818 179.567 74.8221 178.518 75.8263 177.459C76.8304 176.401 77.8527 175.378 78.8886 174.365C79.9245 173.352 80.965 172.334 82.0419 171.353ZM82.0419 176.451C81.0695 177.591 80.0609 178.7 79.0431 179.804C78.0253 180.908 76.9985 181.994 75.9626 183.075C74.9266 184.156 73.8725 185.219 72.7821 186.255L71.1964 187.841C70.6466 188.354 70.1104 188.877 69.5561 189.381C70.0377 188.809 70.5421 188.254 71.0373 187.687L72.5503 186.028C73.5635 184.92 74.5995 183.838 75.6354 182.757C76.6714 181.676 77.7255 180.612 78.7932 179.576C79.8609 178.541 80.9332 177.464 82.0419 176.451ZM82.0419 181.421C81.0377 182.593 79.9973 183.734 78.9522 184.87C77.9072 186.005 76.844 187.141 75.7717 188.236C74.6994 189.331 73.6181 190.444 72.5185 191.526L70.8647 193.148C70.3013 193.675 69.7515 194.216 69.179 194.733C69.6788 194.143 70.1968 193.575 70.7056 192.993L72.2686 191.285C73.3091 190.145 74.3769 189.013 75.4491 187.918C76.5214 186.823 77.5982 185.71 78.7023 184.629C79.8064 183.547 80.9014 182.466 82.0419 181.421ZM82.0419 205.22C80.8878 206.547 79.6974 207.841 78.5024 209.132C77.3075 210.422 76.0898 211.681 74.8676 212.957C73.6453 214.234 72.414 215.474 71.1691 216.71L69.2926 218.564C68.6565 219.168 68.0295 219.786 67.3843 220.381C67.9568 219.713 68.552 219.068 69.1336 218.41L70.9192 216.469C72.1142 215.179 73.3364 213.921 74.554 212.644C75.7717 211.367 77.0076 210.127 78.2525 208.891C79.4975 207.655 80.7378 206.419 82.0419 205.22ZM67.0117 225.879C67.6024 225.197 68.2112 224.516 68.8291 223.857L70.6466 221.867C71.8733 220.545 73.1274 219.25 74.3678 217.942C75.6082 216.633 76.8849 215.361 78.1616 214.089L80.0881 212.185C80.7379 211.563 81.383 210.931 82.0464 210.318C81.4557 211.004 80.8469 211.681 80.229 212.339L78.4115 214.329C77.1893 215.652 75.9353 216.947 74.6949 218.255C73.4545 219.564 72.1778 220.84 70.901 222.112C69.6243 223.385 68.3294 224.648 67.0117 225.879ZM69.5834 227.656C69.8696 227.315 70.165 226.979 70.4603 226.647C70.7556 226.315 71.0419 225.974 71.369 225.647L73.1864 223.675C73.2034 223.657 73.2237 223.643 73.2464 223.633C73.269 223.622 73.2934 223.617 73.3182 223.616L73.1773 223.675C74.604 222.14 76.0671 220.631 77.5392 219.132C78.2752 218.382 79.0295 217.651 79.7792 216.915C80.5288 216.179 81.2922 215.461 82.0509 214.747C81.3649 215.543 80.6879 216.333 79.9609 217.106C79.2339 217.878 78.5478 218.659 77.8254 219.418C76.3851 220.945 74.9312 222.458 73.4454 223.939C73.4081 223.973 73.3596 223.992 73.3091 223.993L73.45 223.934L71.5417 225.806C71.2282 226.12 70.901 226.42 70.5784 226.715C70.2558 227.01 69.9105 227.356 69.5834 227.656ZM73.6226 228.41C74.2542 227.619 74.9266 226.86 75.6036 226.111C76.2806 225.361 76.9667 224.625 77.6664 223.894C78.3661 223.162 79.0794 222.449 79.811 221.754L80.9105 220.709C81.2876 220.372 81.6511 220.022 82.0419 219.695C81.7283 220.095 81.3921 220.472 81.0695 220.863L80.0609 221.994C79.3884 222.749 78.6978 223.48 77.9935 224.212C77.2893 224.943 76.585 225.656 75.8535 226.352C75.122 227.047 74.3768 227.751 73.6226 228.41ZM77.6255 228.991C78.2393 228.122 78.9231 227.305 79.6701 226.547C80.4004 225.772 81.1937 225.06 82.0419 224.416C80.7945 226.143 79.3075 227.684 77.6255 228.991ZM82.0419 186.36C81.0059 187.568 79.9336 188.741 78.8614 189.904C77.7891 191.067 76.6895 192.221 75.5945 193.366C74.4995 194.511 73.3818 195.638 72.2459 196.755L70.5466 198.423C69.9696 198.968 69.4016 199.522 68.8155 200.058C69.3289 199.45 69.8651 198.863 70.3876 198.268L71.996 196.515C73.0683 195.342 74.1678 194.197 75.2674 193.052C76.3669 191.907 77.4801 190.781 78.6115 189.663C79.7428 188.545 80.8696 187.437 82.0419 186.36ZM82.0419 191.099C80.9741 192.335 79.8746 193.539 78.7705 194.733C77.6664 195.928 76.5396 197.11 75.4128 198.286C74.286 199.463 73.141 200.622 71.9778 201.767L70.2331 203.48C69.6425 204.039 69.0563 204.611 68.4566 205.161C68.9836 204.538 69.5334 203.939 70.0741 203.343L71.7279 201.526C72.8275 200.322 73.9543 199.145 75.0856 197.973C76.217 196.801 77.3574 195.638 78.5206 194.493C79.6837 193.348 80.8423 192.189 82.0419 191.099ZM68.0749 210.654C69.1699 209.382 70.3013 208.146 71.4417 206.919C72.5821 205.692 73.7135 204.475 74.8948 203.284C76.0761 202.094 77.2302 200.885 78.4252 199.709L80.2153 197.946C80.8242 197.369 81.4239 196.783 82.0328 196.215C81.4875 196.851 80.9196 197.469 80.3653 198.1L78.6751 199.913C77.5392 201.149 76.3806 202.357 75.222 203.548C74.0633 204.738 72.882 205.947 71.6916 207.124C70.5012 208.3 69.3062 209.513 68.0749 210.654ZM67.7342 215.52C68.8564 214.22 70.0059 212.957 71.1827 211.699C72.3595 210.44 73.5454 209.209 74.7222 207.964C75.8989 206.719 77.1212 205.511 78.357 204.302L80.1744 202.485C80.8015 201.894 81.4103 201.294 82.0464 200.713C81.4875 201.367 80.906 201.998 80.338 202.639L78.5933 204.534C77.4256 205.788 76.2306 207.019 75.0538 208.264C73.8771 209.509 72.6594 210.722 71.419 211.926C70.1786 213.13 68.9927 214.352 67.7342 215.52ZM82.0419 125.046C81.3876 125.827 80.6788 126.568 80.0109 127.317C79.343 128.067 78.6115 128.78 77.8981 129.494C77.1848 130.207 76.4578 130.916 75.7081 131.597L74.5904 132.624C74.2042 132.951 73.8316 133.297 73.4363 133.615C73.7589 133.219 74.0997 132.851 74.4314 132.465L75.4628 131.352C76.1534 130.607 76.8622 129.889 77.5801 129.176C78.298 128.462 79.0204 127.754 79.7655 127.072C80.5107 126.39 81.2558 125.691 82.0419 125.046ZM82.0419 120.348C81.4194 121.106 80.7606 121.833 80.0972 122.551C79.4338 123.269 78.7341 123.973 78.0708 124.668C77.4074 125.364 76.7077 126.032 75.9716 126.713L74.8903 127.708C74.5222 128.031 74.1633 128.362 73.7816 128.671C74.0861 128.29 74.4177 127.926 74.7358 127.554L75.7218 126.468C76.3806 125.745 77.0848 125.046 77.7482 124.35C78.4115 123.655 79.134 122.987 79.8519 122.306C80.5697 121.624 81.2876 120.975 82.0419 120.348ZM82.0419 116.177C80.8423 117.635 79.5474 118.994 78.2298 120.334C76.9122 121.674 75.5445 122.965 74.0952 124.169C75.2901 122.71 76.585 121.347 77.9072 120.011C79.2294 118.676 80.5879 117.381 82.0419 116.177ZM82.0419 111.865C80.8969 113.273 79.6519 114.591 78.407 115.877C77.1621 117.163 75.8308 118.412 74.4314 119.571C75.5718 118.162 76.8167 116.845 78.0662 115.559C79.3157 114.273 80.6424 113.024 82.0419 111.865Z"
        fill="#7F7F7F" />
    <path d="M76 73.877H109.386V96.558H76V73.877Z" fill="#EEEEEE" />
    <path d="M80.2227 55.5032H105.167V73.877H80.2227V55.5032Z" fill="#C8C8C8" />
    <path d="M84.6797 36.9385H100.709V55.5031H84.6797V36.9385Z" fill="#EEEEEE" />
    <path
        d="M103.344 40.5778H82.0391C82.0406 37.0525 82.9816 33.5912 84.7652 30.5504L92.6983 17.0199L100.627 30.5504C102.41 33.5912 103.351 37.0525 103.353 40.5778H103.344Z"
        fill="#C8C8C8" />
    <path
        d="M109.771 102.133C108.893 100.856 107.616 99.9064 106.141 99.4316C104.666 98.9568 103.075 98.9838 101.617 99.5085C100.159 100.033 98.9153 101.026 98.0807 102.332C97.2462 103.637 96.8675 105.183 97.0038 106.726L98.5667 124.178L111.23 123.042L109.771 102.133ZM112.356 139.271C111.631 138.546 110.756 137.989 109.792 137.64C108.827 137.291 107.798 137.157 106.777 137.249C105.859 137.332 104.967 137.594 104.15 138.021C103.334 138.448 102.61 139.032 102.019 139.739C101.428 140.446 100.983 141.263 100.708 142.142C100.433 143.022 100.334 143.947 100.416 144.864L101.979 162.311L113.906 161.248L112.356 139.271ZM115.078 178.332C114.146 178.011 113.157 177.89 112.175 177.977C111.257 178.059 110.364 178.322 109.548 178.749C108.732 179.176 108.008 179.76 107.417 180.467C106.826 181.174 106.381 181.991 106.105 182.87C105.83 183.749 105.731 184.674 105.814 185.592L107.377 203.039L116.736 202.203L115.078 178.332Z"
        fill="#EEEEEE" />
    <path d="M100.707 46.2208H104.974V50.4878H100.707V46.2208Z" fill="#7F7F7F" />
    <path
        d="M16.1904 68.0977C20.9704 65.0954 25.4459 61.6335 29.553 57.7613C30.5799 56.7981 31.5704 55.794 32.5563 54.7899C33.0107 54.2719 33.5377 53.7721 33.9921 53.2451C34.4464 52.7181 34.9008 52.1683 35.3233 51.614C37.0363 49.3831 38.6583 47.0705 40.2849 44.7624L45.1647 37.8382C45.9826 36.6887 46.7959 35.5301 47.6455 34.3987C48.478 33.2488 49.4215 32.1836 50.4625 31.2183C52.63 29.3336 55.297 28.1169 58.1412 27.7153C60.9536 27.3223 63.8156 27.4765 66.5695 28.1696C63.8138 27.5538 60.9664 27.4643 58.1775 27.9061C55.395 28.3371 52.7963 29.563 50.6943 31.4364C49.6937 32.4142 48.7814 33.4785 47.9681 34.6168C47.1321 35.7482 46.3279 36.8886 45.5146 38.0653L40.653 45.0214C39.0173 47.3249 37.3861 49.6285 35.655 51.8684C35.2007 52.4227 34.7781 52.977 34.292 53.5132C33.8058 54.0493 33.3196 54.5445 32.8335 55.0625C31.843 56.0711 30.8343 57.0662 29.7847 58.0157C27.706 59.9323 25.5281 61.7386 23.2602 63.427C20.9886 65.109 18.6286 66.6681 16.1904 68.0977ZM47.9227 50.4327C48.3747 48.5195 49.0551 46.6677 49.9491 44.9169C50.8571 43.1613 52.0192 41.5492 53.3977 40.1326C54.7818 38.7103 56.3963 37.5321 58.173 36.6478C59.9467 35.808 61.7671 35.0708 63.6253 34.4396C65.4694 33.7981 67.2761 33.0533 69.0366 32.2088C70.7899 31.3518 72.4907 30.3914 74.13 29.3328C75.7768 28.2813 77.3606 27.1344 78.8735 25.8979C80.4001 24.6712 81.845 23.349 83.2535 21.986C80.583 24.8652 77.5903 27.4279 74.3344 29.6235C71.0567 31.8073 67.5165 33.5689 63.7979 34.8667C61.9414 35.4797 60.1211 36.1972 58.3456 37.0158C56.6039 37.8772 55.0116 39.0123 53.6294 40.378C50.8533 43.0995 49.0086 46.6798 47.9227 50.4327ZM14.5547 136.795C18.9547 135.386 23.1872 133.5 27.1767 131.17C29.1668 130.007 31.0797 128.721 32.9516 127.367C34.8236 126.013 36.6864 124.641 38.4312 123.16C39.3041 122.414 40.1324 121.618 40.9119 120.775C41.6948 119.95 42.3766 119.035 42.9429 118.049C43.5024 117.079 43.8145 115.987 43.8516 114.868C43.8283 113.741 43.4985 112.642 42.8975 111.688C41.7252 109.784 39.7806 108.253 37.5588 107.93C36.4501 107.783 35.323 107.983 34.3329 108.503C33.3388 109.027 32.4897 109.789 31.8611 110.72C31.2365 111.637 30.8579 112.7 30.7616 113.805C30.723 114.361 30.755 114.92 30.857 115.468C30.9716 116.018 31.1437 116.554 31.3704 117.067C31.828 118.099 32.4942 119.025 33.3269 119.786C34.1597 120.548 35.1411 121.129 36.2093 121.493C38.3721 122.183 40.7529 121.947 42.9384 121.393C45.158 120.8 47.3073 119.969 49.3494 118.917C51.3989 117.885 53.3741 116.711 55.2605 115.404C57.1497 114.087 58.9058 112.588 60.5038 110.929C63.7097 107.592 66.3151 103.726 68.2052 99.5023C66.3749 103.763 63.8234 107.676 60.6628 111.07C59.0691 112.752 57.3145 114.274 55.4241 115.613C53.5301 116.95 51.5458 118.154 49.4857 119.216C47.4347 120.303 45.2693 121.158 43.0292 121.765C41.8976 122.059 40.7391 122.237 39.5716 122.297C38.3914 122.363 37.2089 122.221 36.0776 121.879C34.9527 121.498 33.9185 120.889 33.0398 120.09C32.1611 119.291 31.4566 118.319 30.9706 117.235C30.7278 116.692 30.5435 116.124 30.4208 115.541C30.3088 114.957 30.2706 114.362 30.3072 113.769C30.415 112.573 30.8331 111.427 31.5204 110.443C32.1926 109.451 33.0994 108.641 34.1602 108.085C35.2325 107.526 36.452 107.315 37.6497 107.481C38.8286 107.664 39.945 108.132 40.9029 108.844C41.8574 109.549 42.666 110.433 43.2837 111.447C43.9187 112.464 44.2657 113.634 44.2878 114.832C44.2434 116.024 43.9047 117.187 43.3019 118.217C42.1387 120.275 40.4258 121.906 38.672 123.415C36.9181 124.923 35.0371 126.263 33.1288 127.59C31.2512 128.943 29.3055 130.198 27.2994 131.352C23.2637 133.628 18.9897 135.454 14.5547 136.795Z"
        fill="#EEEEEE" />
    <path
        d="M125.122 11.3223C125.372 12.5127 125.535 13.7076 125.667 14.9025C125.799 16.0975 125.89 17.3015 125.962 18.501C126.035 19.7004 126.062 20.9045 126.058 22.1085C126.064 23.3221 126.01 24.5352 125.894 25.7433C125.644 24.5483 125.481 23.3534 125.349 22.1585C125.217 20.9635 125.126 19.7595 125.054 18.56C124.981 17.3605 124.954 16.1565 124.963 14.9525C124.954 13.7405 125.007 12.5289 125.122 11.3223Z"
        fill="#7D7D7D" />
    <path
        d="M132.715 18.1375C131.53 18.3813 130.334 18.5648 129.13 18.6873C127.935 18.8236 126.736 18.9054 125.532 18.9781C124.327 19.0508 123.128 19.0826 121.924 19.0735C120.71 19.082 119.497 19.0289 118.289 18.9145C119.474 18.6707 120.67 18.4872 121.874 18.3647C123.069 18.2284 124.268 18.1466 125.472 18.0739C126.676 18.0012 127.876 17.974 129.08 17.9785C130.284 17.9831 131.502 18.0149 132.715 18.1375ZM134.632 20.1548C134.852 20.9429 135.013 21.7463 135.114 22.5583C135.223 23.3671 135.305 24.1713 135.346 24.98C135.387 25.7887 135.4 26.5975 135.377 27.4108C135.364 28.23 135.29 29.047 135.155 29.8552C134.933 29.0672 134.771 28.2638 134.669 27.4517C134.56 26.6429 134.482 25.8387 134.437 25.03C134.391 24.2212 134.387 23.4125 134.41 22.5992C134.423 21.78 134.498 20.963 134.632 20.1548Z"
        fill="#7D7D7D" />
    <path
        d="M139.744 24.7438C138.955 24.964 138.15 25.125 137.336 25.2254C136.532 25.339 135.728 25.4163 134.919 25.4572C134.11 25.498 133.297 25.5117 132.488 25.489C131.668 25.4753 130.849 25.4009 130.039 25.2663C130.829 25.0473 131.634 24.8848 132.447 24.7802C133.252 24.6711 134.06 24.5939 134.869 24.553C135.678 24.5121 136.487 24.4985 137.3 24.5212C138.119 24.5347 138.936 24.6091 139.744 24.7438ZM15.8866 140.498C16.1304 141.683 16.3139 142.879 16.4364 144.083C16.5727 145.278 16.6545 146.482 16.7317 147.681C16.809 148.881 16.8317 150.085 16.8226 151.289C16.8335 152.502 16.7804 153.716 16.6636 154.924C16.4191 153.739 16.2371 152.542 16.1184 151.339C15.9821 150.144 15.8957 148.944 15.823 147.745C15.7503 146.545 15.7231 145.341 15.7322 144.133C15.7221 142.919 15.7737 141.706 15.8866 140.498Z"
        fill="#7D7D7D" />
    <path
        d="M23.4922 147.318C22.3018 147.568 21.1069 147.731 19.9074 147.863C18.7079 147.995 17.5084 148.086 16.3089 148.158C15.1094 148.231 13.9053 148.258 12.7013 148.254C11.4972 148.249 10.2886 148.217 9.06641 148.095C10.2513 147.851 11.4478 147.668 12.6513 147.545C13.8462 147.409 15.0457 147.322 16.2452 147.25C17.4447 147.177 18.6488 147.15 19.8574 147.159C21.0709 147.15 22.2841 147.203 23.4922 147.318ZM25.4005 149.331C25.618 150.121 25.779 150.926 25.8822 151.739C25.9912 152.543 26.0684 153.352 26.1139 154.16C26.1593 154.969 26.1684 155.778 26.1457 156.591C26.1322 157.41 26.0578 158.227 25.9231 159.035C25.6997 158.246 25.5371 157.441 25.4369 156.627C25.3278 155.823 25.2461 155.014 25.2052 154.206C25.1643 153.397 25.1552 152.588 25.1779 151.775C25.1916 150.956 25.266 150.139 25.4005 149.331Z"
        fill="#7D7D7D" />
    <path
        d="M30.5098 153.924C29.7195 154.141 28.9148 154.302 28.1017 154.406C27.2975 154.515 26.4887 154.592 25.6799 154.637C24.8712 154.683 24.0624 154.692 23.2491 154.669C22.4299 154.655 21.6129 154.581 20.8047 154.446C21.5938 154.223 22.3988 154.061 23.2128 153.96C24.017 153.851 24.8257 153.77 25.6345 153.729C26.4433 153.688 27.252 153.679 28.0653 153.701C28.8845 153.715 29.7016 153.789 30.5098 153.924ZM213.02 131.675C213.27 132.865 213.434 134.064 213.566 135.259C213.697 136.454 213.788 137.658 213.861 138.858C213.934 140.057 213.961 141.261 213.956 142.465C213.964 143.679 213.909 144.892 213.793 146.1C213.543 144.91 213.379 143.715 213.248 142.515C213.116 141.316 213.025 140.121 212.952 138.921C212.88 137.722 212.852 136.518 212.861 135.287C212.854 134.081 212.907 132.875 213.02 131.675Z"
        fill="#7D7D7D" />
    <path
        d="M220.613 138.494C219.423 138.744 218.228 138.908 217.028 139.04C215.829 139.171 214.634 139.262 213.43 139.335C212.226 139.408 211.026 139.439 209.822 139.43C208.609 139.439 207.396 139.386 206.188 139.271C207.372 139.028 208.569 138.844 209.772 138.722C210.967 138.585 212.167 138.499 213.371 138.426C214.575 138.353 215.774 138.326 216.978 138.335C218.192 138.327 219.405 138.38 220.613 138.494ZM222.531 140.507C222.75 141.297 222.911 142.102 223.012 142.915C223.121 143.719 223.203 144.528 223.244 145.337C223.285 146.146 223.299 146.954 223.276 147.768C223.262 148.587 223.188 149.404 223.053 150.212C222.832 149.422 222.67 148.617 222.567 147.804C222.458 147 222.381 146.196 222.335 145.387C222.29 144.578 222.285 143.765 222.308 142.951C222.322 142.132 222.396 141.315 222.531 140.507Z"
        fill="#7D7D7D" />
    <path
        d="M227.643 145.101C226.853 145.321 226.048 145.482 225.234 145.582C224.43 145.691 223.626 145.773 222.817 145.814C222.009 145.855 221.195 145.868 220.386 145.846C219.566 145.832 218.747 145.758 217.938 145.623C218.727 145.402 219.532 145.239 220.346 145.137C221.15 145.028 221.959 144.946 222.767 144.905C223.576 144.864 224.385 144.855 225.198 144.878C226.017 144.891 226.834 144.966 227.643 145.101Z"
        fill="#7D7D7D" />
    <path
        d="M75.0286 196.351H109.587C118.511 196.351 127.07 199.896 133.381 206.207C139.691 212.517 143.237 221.076 143.237 230H41.3789C41.3789 221.076 44.9241 212.517 51.2347 206.207C57.5452 199.896 66.1041 196.351 75.0286 196.351Z"
        fill="#A3A3A3" />
    <path
        d="M54.8393 219.968C54.8518 220.221 54.8127 220.475 54.7244 220.712C54.636 220.95 54.5003 221.167 54.3255 221.351C54.1506 221.535 53.9403 221.681 53.7072 221.781C53.4741 221.881 53.2232 221.932 52.9696 221.932C52.716 221.932 52.4651 221.881 52.232 221.781C51.9989 221.681 51.7886 221.535 51.6137 221.351C51.4389 221.167 51.3032 220.95 51.2149 220.712C51.1265 220.475 51.0874 220.221 51.0999 219.968C51.0999 218.937 52.3903 219.005 53.4262 219.005C54.4622 219.005 54.8393 218.937 54.8393 219.968ZM72.8046 209.159C72.8046 211.117 70.7645 211.794 68.8108 211.794C67.8708 211.794 66.9694 211.421 66.3048 210.756C65.6402 210.092 65.2668 209.19 65.2668 208.25C65.2668 207.311 65.6402 206.409 66.3048 205.745C66.9694 205.08 67.8708 204.707 68.8108 204.707C70.7645 204.707 72.8046 207.205 72.8046 209.159ZM103.764 209.582C103.764 210.522 103.391 211.423 102.726 212.088C102.062 212.752 101.16 213.126 100.22 213.126C98.2667 213.126 97.1308 212.449 97.1308 210.49C97.1308 208.532 98.2667 206.038 100.22 206.038C101.16 206.038 102.062 206.411 102.726 207.076C103.391 207.74 103.764 208.642 103.764 209.582ZM136.719 222.113C136.719 224.071 134.679 224.748 132.721 224.748C132.255 224.748 131.794 224.656 131.364 224.478C130.934 224.3 130.544 224.039 130.215 223.71C129.886 223.381 129.625 222.99 129.446 222.56C129.268 222.13 129.177 221.669 129.177 221.204C129.177 219.25 131.221 218.573 133.175 218.573C134.114 218.573 135.015 218.946 135.679 219.61C136.344 220.273 136.718 221.173 136.719 222.113ZM85.6038 223.144C85.6038 223.609 85.5121 224.07 85.334 224.5C85.1559 224.93 84.8949 225.321 84.5658 225.65C84.2367 225.979 83.846 226.24 83.416 226.418C82.9861 226.596 82.5252 226.688 82.0598 226.688C80.1015 226.688 78.0615 224.194 78.0615 222.235C78.0615 221.295 78.4349 220.394 79.0995 219.729C79.7641 219.065 80.6655 218.691 81.6055 218.691C83.5592 218.691 85.6038 221.19 85.6038 223.144ZM113.751 222.821C113.751 223.798 112.961 223.612 111.979 223.612C110.998 223.612 110.666 223.73 110.666 222.749C110.666 222.28 110.852 221.829 111.184 221.497C111.515 221.165 111.964 220.978 112.434 220.977C113.415 220.977 113.751 221.84 113.751 222.821ZM122.711 204.27C122.711 205.247 122.37 206.946 121.394 206.946C120.924 206.946 120.474 206.76 120.142 206.429C119.81 206.098 119.623 205.648 119.622 205.179C119.622 204.198 119.962 202.498 120.939 202.498C121.409 202.498 121.86 202.685 122.192 203.017C122.524 203.35 122.711 203.8 122.711 204.27ZM90.7062 201.144C90.7062 202.308 89.3068 202.339 88.1437 202.339C87.6021 202.314 87.091 202.081 86.7166 201.689C86.3422 201.297 86.1333 200.776 86.1333 200.233C86.1333 199.691 86.3422 199.17 86.7166 198.778C87.091 198.386 87.6021 198.153 88.1437 198.128C89.3068 198.128 90.7062 199.981 90.7062 201.144Z"
        fill="#7F7F7F" />
    <path
        d="M37.9709 221.267C39.2431 218.332 38.2844 216.533 38.2844 214.452C38.2844 210.077 36.8214 205.12 34.1952 202.012C33.492 204.239 33.117 206.556 33.082 208.891C33.0957 213.257 35.3629 218.151 37.9709 221.267Z"
        fill="#C8C8C8" />
    <path
        d="M44.0589 224.407C48.9973 224.407 53.0007 217.47 53.0007 208.914C53.0007 200.357 48.9973 193.42 44.0589 193.42C39.1205 193.42 35.1172 200.357 35.1172 208.914C35.1172 217.47 39.1205 224.407 44.0589 224.407Z"
        fill="white" />
    <path
        d="M22.1253 214.934C22.1253 216.66 21.4256 218.042 22.3843 220.386C26.4735 217.11 29.5768 211.613 29.5768 205.947C29.5214 203.951 29.2317 201.969 28.7135 200.04C24.5789 203.28 22.1253 209.268 22.1253 214.934Z"
        fill="#7D7D7D" />
    <path
        d="M19.016 220.545C23.9544 220.545 27.9577 213.608 27.9577 205.052C27.9577 196.495 23.9544 189.558 19.016 189.558C14.0776 189.558 10.0742 196.495 10.0742 205.052C10.0742 213.608 14.0776 220.545 19.016 220.545Z"
        fill="white" />
    <path
        d="M19.016 220.545C23.9544 220.545 27.9577 213.608 27.9577 205.052C27.9577 196.495 23.9544 189.558 19.016 189.558C14.0776 189.558 10.0742 196.495 10.0742 205.052C10.0742 213.608 14.0776 220.545 19.016 220.545Z"
        stroke="#C8C8C8" stroke-miterlimit="10" />
    <path
        d="M19.0176 197.31V230M19.0176 206.41L14.6376 201.399M19.0176 211.353L13.6289 205.193M19.0176 216.447L13.6289 210.286M19.0176 206.419L23.4112 201.399M19.0176 211.363L24.4063 205.202M19.0176 216.456L24.4063 210.295"
        stroke="#C8C8C8" stroke-linecap="round" stroke-linejoin="round" />
    <path
        d="M44.0589 224.407C48.9973 224.407 53.0007 217.47 53.0007 208.914C53.0007 200.357 48.9973 193.42 44.0589 193.42C39.1205 193.42 35.1172 200.357 35.1172 208.914C35.1172 217.47 39.1205 224.407 44.0589 224.407Z"
        stroke="#7D7D7D" stroke-linecap="round" stroke-linejoin="round" />
    <path
        d="M44.0605 201.172V230M44.0605 210.272L39.676 205.261M44.0605 215.216L38.6719 209.055M44.0605 220.309L38.6719 214.148M44.0605 210.286L48.4542 205.261M44.0605 215.225L49.4492 209.064M44.0605 220.322L49.4492 214.161"
        stroke="#7D7D7D" stroke-linecap="round" stroke-linejoin="round" />
    <path d="M1 230H178.117" stroke="#545454" stroke-linecap="round" stroke-linejoin="round" />
    <g clip-path="url(#clip0_538_23231)" filter="url(#filter0_d_538_23231)">
        <path
            d="M188.979 54.4279L171.552 50.4045C170.353 50.1279 169.599 48.9213 169.876 47.7232L175.106 25.068C175.383 23.8699 176.59 23.116 177.788 23.3926L186.654 25.4394C187.242 25.5752 187.736 25.9188 188.055 26.4283L194.639 36.9658C194.957 37.4752 195.05 38.0701 194.914 38.6583L191.66 52.7524C191.383 53.9505 190.177 54.7045 188.979 54.4279Z"
            fill="url(#paint1_linear_538_23231)" />
        <path fill-rule="evenodd" clip-rule="evenodd"
            d="M171.702 49.751L189.129 53.7743C189.967 53.9676 190.813 53.4387 191.006 52.6015L194.26 38.5074C194.358 38.0861 194.291 37.6742 194.07 37.3212L187.486 26.7837C187.265 26.4306 186.924 26.1902 186.503 26.093L177.637 24.0461C176.8 23.8528 175.953 24.3817 175.76 25.2189L170.53 47.8741C170.336 48.7113 170.865 49.5577 171.702 49.751ZM171.552 50.4045L188.979 54.4279C190.177 54.7045 191.383 53.9505 191.66 52.7524L194.914 38.6583C195.05 38.0701 194.957 37.4752 194.639 36.9658L188.055 26.4283C187.736 25.9188 187.242 25.5752 186.654 25.4394L177.788 23.3926C176.59 23.116 175.383 23.8699 175.106 25.068L169.876 47.7232C169.599 48.9213 170.353 50.1279 171.552 50.4045Z"
            fill="#909DA1" />
        <path
            d="M181.337 45.7804C181.054 45.715 180.79 45.5625 180.591 45.3329L176.836 40.726C176.714 40.5601 176.496 40.5098 176.292 40.6003L171.775 42.7699L171.387 41.9689L175.903 39.7993C176.468 39.5396 177.126 39.6687 177.52 40.1496L181.302 44.7398C181.429 44.8839 181.642 44.956 181.824 44.8605L188.07 42.0576C188.581 41.8314 189.174 41.9454 189.566 42.3342L193.057 45.8016L192.428 46.4366L188.938 42.9693C188.806 42.8469 188.61 42.8017 188.432 42.8754L182.186 45.6783C181.923 45.824 181.62 45.8458 181.337 45.7804ZM181.287 37.0499C179.719 36.6878 178.747 35.1327 179.109 33.5642C179.471 31.9958 181.026 31.024 182.595 31.3861C184.163 31.7482 185.135 33.3034 184.773 34.8718C184.411 36.4402 182.856 37.412 181.287 37.0499ZM182.394 32.2575C181.305 32.006 180.232 32.6762 179.981 33.7654C179.729 34.8546 180.399 35.9271 181.488 36.1786C182.578 36.43 183.65 35.7598 183.902 34.6706C184.153 33.5815 183.483 32.5089 182.394 32.2575Z"
            fill="#909DA1" />
    </g>
    <g clip-path="url(#clip1_538_23231)" filter="url(#filter1_d_538_23231)">
        <path
            d="M212.054 82.0159L196.283 86.0857C195.199 86.3655 194.083 85.7073 193.803 84.6231L188.513 64.1218C188.233 63.0376 188.891 61.9216 189.975 61.6418L197.998 59.5713C198.531 59.4339 199.074 59.5039 199.545 59.7818L209.292 65.5296C209.763 65.8075 210.087 66.2494 210.225 66.7817L213.516 79.5359C213.796 80.6201 213.138 81.7361 212.054 82.0159Z"
            fill="url(#paint2_linear_538_23231)" />
        <path
            d="M202.958 69.9456C203.145 70.6705 203.053 71.2794 202.705 71.7869C202.358 72.2945 201.76 72.6368 200.942 72.8481L200.337 73.0041L200.954 75.3943L199.531 75.7615L197.797 69.0415L199.922 68.4932C200.74 68.2819 201.39 68.3022 201.91 68.5442C202.43 68.7862 202.781 69.2598 202.958 69.9456ZM200.039 71.8481L200.507 71.7274C200.936 71.6167 201.247 71.4528 201.416 71.2212C201.585 70.9895 201.636 70.7046 201.55 70.3716C201.464 70.0385 201.301 69.809 201.085 69.6975C200.869 69.5861 200.556 69.5831 200.167 69.6838L199.523 69.8498L200.039 71.8481Z"
            fill="#909DA1" />
        <path fill-rule="evenodd" clip-rule="evenodd"
            d="M196.131 85.4943L211.901 81.4245C212.659 81.229 213.12 80.4461 212.925 79.6885L209.633 66.9343C209.535 66.553 209.308 66.2483 208.982 66.0557L199.235 60.3078C198.909 60.1153 198.532 60.0643 198.151 60.1627L190.128 62.2332C189.37 62.4287 188.909 63.2116 189.104 63.9692L194.395 84.4705C194.59 85.2281 195.373 85.6898 196.131 85.4943ZM196.283 86.0857L212.054 82.0159C213.138 81.7361 213.796 80.6201 213.516 79.5359L210.225 66.7817C210.087 66.2494 209.763 65.8075 209.292 65.5296L199.545 59.7818C199.074 59.5039 198.531 59.4339 197.998 59.5713L189.975 61.6418C188.891 61.9216 188.233 63.0376 188.513 64.1218L193.803 84.6231C194.083 85.7073 195.199 86.3655 196.283 86.0857Z"
            fill="#909DA1" />
    </g>
    <defs>
        <filter id="filter0_d_538_23231" x="154.223" y="15.7499" width="58.3203" height="58.3207"
            filterUnits="userSpaceOnUse" color-interpolation-filters="sRGB">
            <feFlood flood-opacity="0" result="BackgroundImageFix" />
            <feColorMatrix in="SourceAlpha" type="matrix" values="0 0 0 0 0 0 0 0 0 0 0 0 0 0 0 0 0 0 127 0"
                result="hardAlpha" />
            <feOffset dy="6" />
            <feGaussianBlur stdDeviation="6" />
            <feComposite in2="hardAlpha" operator="out" />
            <feColorMatrix type="matrix" values="0 0 0 0 0.580392 0 0 0 0 0.639216 0 0 0 0 0.721569 0 0 0 0.15 0" />
            <feBlend mode="normal" in2="BackgroundImageFix" result="effect1_dropShadow_538_23231" />
            <feBlend mode="normal" in="SourceGraphic" in2="effect1_dropShadow_538_23231" result="shape" />
        </filter>
        <filter id="filter1_d_538_23231" x="173.141" y="49.9568" width="55.7422" height="55.7441"
            filterUnits="userSpaceOnUse" color-interpolation-filters="sRGB">
            <feFlood flood-opacity="0" result="BackgroundImageFix" />
            <feColorMatrix in="SourceAlpha" type="matrix" values="0 0 0 0 0 0 0 0 0 0 0 0 0 0 0 0 0 0 127 0"
                result="hardAlpha" />
            <feOffset dy="6" />
            <feGaussianBlur stdDeviation="6" />
            <feComposite in2="hardAlpha" operator="out" />
            <feColorMatrix type="matrix" values="0 0 0 0 0.580392 0 0 0 0 0.639216 0 0 0 0 0.721569 0 0 0 0.15 0" />
            <feBlend mode="normal" in2="BackgroundImageFix" result="effect1_dropShadow_538_23231" />
            <feBlend mode="normal" in="SourceGraphic" in2="effect1_dropShadow_538_23231" result="shape" />
        </filter>
        <linearGradient id="paint0_linear_538_23231" x1="102.623" y1="48.1139" x2="226.28" y2="53.7347"
            gradientUnits="userSpaceOnUse">
            <stop stop-color="#E4E4E4" />
            <stop offset="1" stop-color="#EBEBEB" stop-opacity="0" />
        </linearGradient>
        <linearGradient id="paint1_linear_538_23231" x1="186.501" y1="25.4042" x2="180.265" y2="52.4162"
            gradientUnits="userSpaceOnUse">
            <stop stop-color="#FDFDFD" />
            <stop offset="1" stop-color="#BEC5C7" />
        </linearGradient>
        <linearGradient id="paint2_linear_538_23231" x1="197.86" y1="59.6069" x2="204.168" y2="84.0508"
            gradientUnits="userSpaceOnUse">
            <stop stop-color="#FDFDFD" />
            <stop offset="1" stop-color="#BEC5C7" />
        </linearGradient>
        <clipPath id="clip0_538_23231">
            <rect width="28.6167" height="28.6167" fill="white" transform="translate(172.66 21.7499) rotate(13)" />
        </clipPath>
        <clipPath id="clip1_538_23231">
            <rect width="26.0591" height="26.0591" fill="white"
                transform="translate(185.141 62.4685) rotate(-14.4705)" />
        </clipPath>
    </defs>
</svg>