<svg viewBox="0 0 20 20" fill="none" xmlns="http://www.w3.org/2000/svg">
<path fill-rule="evenodd" clip-rule="evenodd" d="M15.2773 11.9868V14.7375L14.5111 14.0164C14.0833 13.6137 13.4159 13.6137 12.9881 14.0164L11.3885 15.5219L9.78887 14.0164C9.36103 13.6137 8.69367 13.6137 8.26583 14.0164L7.49957 14.7375V4.46619L7.49323 4.44401H8.05084C8.17358 3.78842 8.50957 3.20795 8.98405 2.77734H5.28368L5.28902 2.79602C5.19428 2.7837 5.09767 2.77734 4.99957 2.77734C3.77227 2.77734 2.77734 3.77227 2.77734 4.99957V9.16623C2.77734 9.62647 3.15044 9.99957 3.61068 9.99957H5.8329V16.4091C5.8329 17.2368 6.82192 17.6641 7.42464 17.0968L9.02735 15.5884L10.8173 17.2731C11.1382 17.5751 11.6387 17.5751 11.9596 17.2731L13.7496 15.5884L15.3523 17.0968C15.955 17.6641 16.944 17.2368 16.944 16.4091V11.2841C16.4865 11.6739 15.9104 11.9287 15.2773 11.9868ZM4.99957 4.44401C4.69274 4.44401 4.44401 4.69274 4.44401 4.99957V8.3329H5.55512V4.99957C5.55512 4.69274 5.30639 4.44401 4.99957 4.44401Z" fill="currentColor"/>
<path fill-rule="evenodd" clip-rule="evenodd" d="M14 9.5C15.933 9.5 17.5 7.933 17.5 6C17.5 4.067 15.933 2.5 14 2.5C12.067 2.5 10.5 4.067 10.5 6C10.5 7.933 12.067 9.5 14 9.5ZM14 11C16.7614 11 19 8.76142 19 6C19 3.23858 16.7614 1 14 1C11.2386 1 9 3.23858 9 6C9 8.76142 11.2386 11 14 11Z" fill="currentColor"/>
<path fill-rule="evenodd" clip-rule="evenodd" d="M11.5 6C11.5 5.58579 11.8731 5.25 12.3333 5.25L15.6667 5.25C16.1269 5.25 16.5 5.58579 16.5 6C16.5 6.41421 16.1269 6.75 15.6667 6.75L12.3333 6.75C11.8731 6.75 11.5 6.41421 11.5 6Z" fill="currentColor"/>
</svg>
