<svg viewBox="0 0 85 24" fill="none" xmlns="http://www.w3.org/2000/svg">
    <path d="M0 0H73L85 11.5L73 24H0L12 11.5L0 0Z" fill="#36D399" fill-opacity="0.1" />
    <path
        d="M21.8158 16C21.7358 16 21.6678 15.972 21.6118 15.916C21.5558 15.86 21.5278 15.792 21.5278 15.712V7.9C21.5278 7.812 21.5558 7.74 21.6118 7.684C21.6678 7.628 21.7358 7.6 21.8158 7.6H25.2958C25.9438 7.6 26.4718 7.7 26.8798 7.9C27.2878 8.092 27.5878 8.36 27.7798 8.704C27.9798 9.048 28.0798 9.448 28.0798 9.904C28.0798 10.208 28.0238 10.476 27.9118 10.708C27.8078 10.932 27.6758 11.116 27.5158 11.26C27.3638 11.404 27.2118 11.516 27.0598 11.596C27.3718 11.74 27.6478 11.98 27.8878 12.316C28.1278 12.652 28.2478 13.052 28.2478 13.516C28.2478 13.996 28.1398 14.424 27.9238 14.8C27.7078 15.176 27.3878 15.472 26.9638 15.688C26.5398 15.896 26.0158 16 25.3918 16H21.8158ZM23.1958 14.728H25.1998C25.6318 14.728 25.9598 14.612 26.1838 14.38C26.4078 14.14 26.5198 13.852 26.5198 13.516C26.5198 13.164 26.4038 12.872 26.1718 12.64C25.9478 12.408 25.6238 12.292 25.1998 12.292H23.1958V14.728ZM23.1958 11.044H25.0798C25.5038 11.044 25.8198 10.944 26.0278 10.744C26.2438 10.536 26.3518 10.268 26.3518 9.94C26.3518 9.604 26.2438 9.344 26.0278 9.16C25.8198 8.968 25.5038 8.872 25.0798 8.872H23.1958V11.044ZM29.9452 16C29.8652 16 29.7972 15.972 29.7412 15.916C29.6852 15.86 29.6572 15.792 29.6572 15.712V10.048C29.6572 9.968 29.6852 9.9 29.7412 9.844C29.7972 9.788 29.8652 9.76 29.9452 9.76H30.9412C31.0292 9.76 31.0972 9.788 31.1452 9.844C31.2012 9.9 31.2292 9.968 31.2292 10.048V15.712C31.2292 15.792 31.2012 15.86 31.1452 15.916C31.0972 15.972 31.0292 16 30.9412 16H29.9452ZM29.8972 8.728C29.8092 8.728 29.7372 8.704 29.6812 8.656C29.6332 8.6 29.6092 8.528 29.6092 8.44V7.576C29.6092 7.496 29.6332 7.428 29.6812 7.372C29.7372 7.316 29.8092 7.288 29.8972 7.288H30.9892C31.0772 7.288 31.1492 7.316 31.2052 7.372C31.2612 7.428 31.2892 7.496 31.2892 7.576V8.44C31.2892 8.528 31.2612 8.6 31.2052 8.656C31.1492 8.704 31.0772 8.728 30.9892 8.728H29.8972ZM33.1213 16C33.0413 16 32.9733 15.972 32.9173 15.916C32.8613 15.86 32.8333 15.792 32.8333 15.712V7.768C32.8333 7.688 32.8613 7.62 32.9173 7.564C32.9733 7.508 33.0413 7.48 33.1213 7.48H34.1173C34.1973 7.48 34.2653 7.508 34.3213 7.564C34.3773 7.62 34.4053 7.688 34.4053 7.768V15.712C34.4053 15.792 34.3773 15.86 34.3213 15.916C34.2653 15.972 34.1973 16 34.1173 16H33.1213ZM36.2971 16C36.2171 16 36.1491 15.972 36.0931 15.916C36.0371 15.86 36.0091 15.792 36.0091 15.712V7.768C36.0091 7.688 36.0371 7.62 36.0931 7.564C36.1491 7.508 36.2171 7.48 36.2971 7.48H37.2931C37.3731 7.48 37.4411 7.508 37.4971 7.564C37.5531 7.62 37.5811 7.688 37.5811 7.768V15.712C37.5811 15.792 37.5531 15.86 37.4971 15.916C37.4411 15.972 37.3731 16 37.2931 16H36.2971ZM41.8609 16.12C40.9729 16.12 40.2689 15.864 39.7489 15.352C39.2289 14.84 38.9489 14.112 38.9089 13.168C38.9009 13.088 38.8969 12.988 38.8969 12.868C38.8969 12.74 38.9009 12.64 38.9089 12.568C38.9409 11.968 39.0769 11.448 39.3169 11.008C39.5649 10.568 39.9049 10.232 40.3369 10C40.7689 9.76 41.2769 9.64 41.8609 9.64C42.5089 9.64 43.0529 9.776 43.4929 10.048C43.9329 10.312 44.2649 10.684 44.4889 11.164C44.7129 11.636 44.8249 12.184 44.8249 12.808V13.06C44.8249 13.14 44.7969 13.208 44.7409 13.264C44.6849 13.32 44.6129 13.348 44.5249 13.348H40.5409C40.5409 13.348 40.5409 13.36 40.5409 13.384C40.5409 13.408 40.5409 13.428 40.5409 13.444C40.5489 13.724 40.6009 13.984 40.6969 14.224C40.8009 14.456 40.9489 14.644 41.1409 14.788C41.3409 14.932 41.5769 15.004 41.8489 15.004C42.0729 15.004 42.2609 14.972 42.4129 14.908C42.5649 14.836 42.6889 14.756 42.7849 14.668C42.8809 14.58 42.9489 14.508 42.9889 14.452C43.0609 14.356 43.1169 14.3 43.1569 14.284C43.2049 14.26 43.2729 14.248 43.3609 14.248H44.3929C44.4729 14.248 44.5369 14.272 44.5849 14.32C44.6409 14.368 44.6649 14.428 44.6569 14.5C44.6489 14.628 44.5809 14.784 44.4529 14.968C44.3329 15.152 44.1569 15.332 43.9249 15.508C43.6929 15.684 43.4009 15.832 43.0489 15.952C42.7049 16.064 42.3089 16.12 41.8609 16.12ZM40.5409 12.34H43.1929V12.304C43.1929 11.992 43.1409 11.72 43.0369 11.488C42.9329 11.256 42.7809 11.072 42.5809 10.936C42.3809 10.8 42.1409 10.732 41.8609 10.732C41.5809 10.732 41.3409 10.8 41.1409 10.936C40.9409 11.072 40.7889 11.256 40.6849 11.488C40.5889 11.72 40.5409 11.992 40.5409 12.304V12.34ZM48.4146 16.12C47.9986 16.12 47.6306 16.052 47.3106 15.916C46.9986 15.772 46.7386 15.572 46.5306 15.316C46.3226 15.06 46.1626 14.76 46.0506 14.416C45.9386 14.064 45.8746 13.68 45.8586 13.264C45.8506 13.12 45.8466 12.992 45.8466 12.88C45.8466 12.76 45.8506 12.628 45.8586 12.484C45.8746 12.084 45.9346 11.712 46.0386 11.368C46.1506 11.024 46.3106 10.724 46.5186 10.468C46.7346 10.204 46.9986 10 47.3106 9.856C47.6306 9.712 47.9986 9.64 48.4146 9.64C48.8466 9.64 49.2106 9.716 49.5066 9.868C49.8106 10.012 50.0626 10.2 50.2626 10.432V7.768C50.2626 7.688 50.2866 7.62 50.3346 7.564C50.3906 7.508 50.4626 7.48 50.5506 7.48H51.5706C51.6506 7.48 51.7186 7.508 51.7746 7.564C51.8306 7.62 51.8586 7.688 51.8586 7.768V15.712C51.8586 15.792 51.8306 15.86 51.7746 15.916C51.7186 15.972 51.6506 16 51.5706 16H50.6226C50.5346 16 50.4626 15.972 50.4066 15.916C50.3586 15.86 50.3346 15.792 50.3346 15.712V15.268C50.1346 15.516 49.8786 15.72 49.5666 15.88C49.2626 16.04 48.8786 16.12 48.4146 16.12ZM48.8586 14.836C49.1946 14.836 49.4626 14.76 49.6626 14.608C49.8626 14.456 50.0106 14.264 50.1066 14.032C50.2026 13.792 50.2546 13.548 50.2626 13.3C50.2706 13.156 50.2746 13.004 50.2746 12.844C50.2746 12.676 50.2706 12.52 50.2626 12.376C50.2546 12.136 50.1986 11.908 50.0946 11.692C49.9906 11.468 49.8386 11.284 49.6386 11.14C49.4386 10.996 49.1786 10.924 48.8586 10.924C48.5226 10.924 48.2546 11 48.0546 11.152C47.8626 11.296 47.7226 11.488 47.6346 11.728C47.5466 11.968 47.4946 12.232 47.4786 12.52C47.4706 12.76 47.4706 13 47.4786 13.24C47.4946 13.528 47.5466 13.792 47.6346 14.032C47.7226 14.272 47.8626 14.468 48.0546 14.62C48.2546 14.764 48.5226 14.836 48.8586 14.836ZM58.7741 16C58.2941 16 57.8901 15.916 57.5621 15.748C57.2341 15.58 56.9901 15.332 56.8301 15.004C56.6701 14.668 56.5901 14.252 56.5901 13.756V11.032H55.6421C55.5621 11.032 55.4941 11.004 55.4381 10.948C55.3821 10.892 55.3541 10.824 55.3541 10.744V10.048C55.3541 9.968 55.3821 9.9 55.4381 9.844C55.4941 9.788 55.5621 9.76 55.6421 9.76H56.5901V7.768C56.5901 7.688 56.6141 7.62 56.6621 7.564C56.7181 7.508 56.7901 7.48 56.8781 7.48H57.8501C57.9301 7.48 57.9981 7.508 58.0541 7.564C58.1101 7.62 58.1381 7.688 58.1381 7.768V9.76H59.6381C59.7181 9.76 59.7861 9.788 59.8421 9.844C59.8981 9.9 59.9261 9.968 59.9261 10.048V10.744C59.9261 10.824 59.8981 10.892 59.8421 10.948C59.7861 11.004 59.7181 11.032 59.6381 11.032H58.1381V13.636C58.1381 13.964 58.1941 14.22 58.3061 14.404C58.4261 14.588 58.6301 14.68 58.9181 14.68H59.7461C59.8261 14.68 59.8941 14.708 59.9501 14.764C60.0061 14.82 60.0341 14.888 60.0341 14.968V15.712C60.0341 15.792 60.0061 15.86 59.9501 15.916C59.8941 15.972 59.8261 16 59.7461 16H58.7741ZM63.8586 16.12C63.2186 16.12 62.6786 16.008 62.2386 15.784C61.8066 15.56 61.4746 15.244 61.2426 14.836C61.0186 14.428 60.8906 13.952 60.8586 13.408C60.8506 13.264 60.8466 13.088 60.8466 12.88C60.8466 12.672 60.8506 12.496 60.8586 12.352C60.8906 11.8 61.0226 11.324 61.2546 10.924C61.4946 10.516 61.8306 10.2 62.2626 9.976C62.7026 9.752 63.2346 9.64 63.8586 9.64C64.4826 9.64 65.0106 9.752 65.4426 9.976C65.8826 10.2 66.2186 10.516 66.4506 10.924C66.6906 11.324 66.8266 11.8 66.8586 12.352C66.8666 12.496 66.8706 12.672 66.8706 12.88C66.8706 13.088 66.8666 13.264 66.8586 13.408C66.8266 13.952 66.6946 14.428 66.4626 14.836C66.2386 15.244 65.9066 15.56 65.4666 15.784C65.0346 16.008 64.4986 16.12 63.8586 16.12ZM63.8586 14.932C64.2826 14.932 64.6106 14.8 64.8426 14.536C65.0746 14.264 65.2026 13.868 65.2266 13.348C65.2346 13.228 65.2386 13.072 65.2386 12.88C65.2386 12.688 65.2346 12.532 65.2266 12.412C65.2026 11.9 65.0746 11.508 64.8426 11.236C64.6106 10.964 64.2826 10.828 63.8586 10.828C63.4346 10.828 63.1066 10.964 62.8746 11.236C62.6426 11.508 62.5146 11.9 62.4906 12.412C62.4826 12.532 62.4786 12.688 62.4786 12.88C62.4786 13.072 62.4826 13.228 62.4906 13.348C62.5146 13.868 62.6426 14.264 62.8746 14.536C63.1066 14.8 63.4346 14.932 63.8586 14.932Z"
        fill="#36D399" />
</svg>