<svg viewBox="0 0 109 24" fill="none" xmlns="http://www.w3.org/2000/svg">
<g clip-path="url(#clip0_423_273010)">
<path d="M23.9644 0.000976562V23.983H5.32617V21.3191H21.3027V0.000976562H23.9644Z" fill="white"/>
<path d="M13.3131 10.6602H2.66284V2.66392H13.3131V0H0V2.66392H0.000562375V10.6602H0V13.3241H0.000562375V24H2.66284V13.3241H13.3131V10.6602Z" fill="white"/>
<path d="M18.6393 15.9897V7.99399V5.33008H5.32617V7.99399H15.977V15.9897H5.32617V18.6542H18.6393V15.9897Z" fill="#4CC3C7"/>
<path d="M17.3077 2.66448C18.0429 2.66448 18.6388 2.06801 18.6388 1.33224C18.6388 0.596464 18.0429 0 17.3077 0C16.5725 0 15.9766 0.596464 15.9766 1.33224C15.9766 2.06801 16.5725 2.66448 17.3077 2.66448Z" fill="#4CC3C7"/>
<path d="M46.0487 7.16016H43.5742V16.9603H46.0487V7.16016Z" fill="white"/>
<path d="M44.8285 3.09229C44.3933 3.09229 44.03 3.23131 43.742 3.50766C43.6011 3.64008 43.4897 3.80077 43.4151 3.97923C43.3405 4.15768 43.3043 4.34989 43.309 4.54328C43.3043 4.73643 43.3405 4.92839 43.4151 5.10657C43.4897 5.28475 43.6011 5.44514 43.742 5.57722C44.03 5.85526 44.3933 5.99315 44.8285 5.99315C45.2638 5.99315 45.6265 5.85526 45.9156 5.57722C46.0564 5.44511 46.1677 5.28471 46.2423 5.10652C46.3168 4.92834 46.3529 4.73639 46.3481 4.54328C46.3529 4.34992 46.3168 4.15773 46.2423 3.97927C46.1678 3.80082 46.0564 3.64011 45.9156 3.50766C45.6265 3.23149 45.2642 3.09304 44.8285 3.09229Z" fill="white"/>
<path d="M55.6811 7.01929C55.0988 7.01278 54.5224 7.13642 53.994 7.38119C53.4994 7.60917 53.0662 7.95184 52.7303 8.38079V7.16H50.2559V16.9579H52.7303V11.5445C52.7303 10.7667 52.9277 10.1684 53.3225 9.74962C53.7173 9.33087 54.2564 9.12149 54.9399 9.12149C55.6114 9.12149 56.1415 9.33087 56.5303 9.74962C56.9191 10.1684 57.1135 10.7667 57.1135 11.5445V16.9579H59.5879V11.2107C59.5879 9.89108 59.2285 8.86221 58.5098 8.12414C57.7911 7.38607 56.8482 7.01779 55.6811 7.01929Z" fill="white"/>
<path d="M69.1323 7.01929C68.55 7.01273 67.9736 7.13637 67.4451 7.3812C66.9504 7.60901 66.5172 7.9517 66.1815 8.3808V7.16H63.707V16.9579H66.1815V11.5445C66.1815 10.7667 66.3787 10.1684 66.7731 9.74962C67.1675 9.33087 67.7068 9.12149 68.391 9.12149C69.0625 9.12149 69.5927 9.33087 69.9814 9.74962C70.3702 10.1684 70.5646 10.7667 70.5646 11.5445V16.9579H73.0391V11.2108C73.0391 9.89108 72.6797 8.86221 71.961 8.12414C71.2423 7.38607 70.2994 7.01779 69.1323 7.01929Z" fill="white"/>
<path d="M84.137 7.6291C83.3711 7.2111 82.5168 7.00173 81.5743 7.00098C80.6318 7.00023 79.7775 7.2096 79.0116 7.6291C78.2536 8.04066 77.6259 8.65638 77.1996 9.40655C76.7579 10.1735 76.5371 11.0583 76.5371 12.0609C76.5371 13.0635 76.7521 13.9479 77.1822 14.7141C77.5943 15.4628 78.2104 16.079 78.9587 16.491C79.7123 16.9098 80.5607 17.1193 81.504 17.1197C82.4578 17.1197 83.3201 16.9101 84.0909 16.491C84.8567 16.0801 85.494 15.4651 85.9321 14.7141C86.3865 13.9475 86.6134 13.0631 86.6126 12.0609C86.6119 11.0587 86.3909 10.1739 85.9496 9.40655C85.5238 8.65577 84.8957 8.03987 84.137 7.6291ZM83.713 13.6515C83.5002 14.0639 83.1716 14.405 82.7677 14.6331C82.3818 14.8491 81.9467 14.9619 81.5046 14.9606C80.7971 14.9606 80.2105 14.71 79.7449 14.2087C79.2793 13.7074 79.0468 12.9916 79.0476 12.0615C79.0476 11.1298 79.2858 10.4133 79.7623 9.91198C80.2389 9.41068 80.8312 9.15984 81.5394 9.15946C81.8743 9.15334 82.2067 9.21709 82.5156 9.34666C82.8245 9.47622 83.103 9.66875 83.3334 9.91198C83.8208 10.4133 84.0645 11.1298 84.0645 12.0615C84.0664 12.6855 83.9492 13.2158 83.713 13.6526V13.6515Z" fill="white"/>
<path d="M93.0813 4.7373H90.5894V7.15751H89.4219V9.19217H90.5894V13.9189C90.5894 15.9474 91.6318 16.9616 93.7167 16.9616H95.2723V14.8757H94.1233C93.7465 14.8757 93.4787 14.8018 93.3197 14.654C93.1607 14.5061 93.0813 14.2673 93.0813 13.9375V9.19724H95.2745V7.16258H93.0813V4.7373Z" fill="white"/>
<path d="M107.616 9.40655C107.19 8.65592 106.562 8.04004 105.804 7.6291C105.038 7.2111 104.184 7.00173 103.241 7.00098C102.299 7.00023 101.445 7.2096 100.679 7.6291C99.9202 8.04032 99.2921 8.6561 98.8656 9.40655C98.424 10.1735 98.2031 11.0583 98.2031 12.0609C98.2031 13.0635 98.4181 13.9479 98.8482 14.7141C99.2605 15.4629 99.8768 16.079 100.625 16.491C101.379 16.9098 102.227 17.1193 103.171 17.1197C104.124 17.1197 104.987 16.9101 105.758 16.491C106.522 16.0796 107.158 15.4647 107.595 14.7141C108.05 13.9475 108.277 13.0631 108.276 12.0609C108.275 11.0587 108.055 10.1739 107.616 9.40655ZM105.38 13.6526C105.167 14.0651 104.838 14.4062 104.433 14.6342C104.047 14.8502 103.612 14.9631 103.17 14.9618C102.463 14.9618 101.876 14.7111 101.41 14.2098C100.945 13.7085 100.713 12.9924 100.715 12.0615C100.715 11.1298 100.953 10.4133 101.429 9.91198C101.906 9.41068 102.498 9.15984 103.207 9.15946C103.541 9.15341 103.874 9.2172 104.183 9.34675C104.492 9.47631 104.77 9.6688 105.001 9.91198C105.488 10.4133 105.732 11.1298 105.732 12.0615C105.734 12.6855 105.616 13.2158 105.38 13.6526Z" fill="white"/>
<path d="M38.4829 6.75345C38.4829 6.19961 38.601 5.81632 38.8372 5.60357C39.0734 5.39081 39.4917 5.29082 40.0919 5.30357V3.21544C38.713 3.18055 37.6819 3.44602 36.9988 4.01186C36.3157 4.5777 35.9742 5.46211 35.9742 6.66508V7.16038H34.8613V9.19504H35.9742V16.9622V17.3691C35.9742 17.9226 35.8561 18.3059 35.6199 18.519C35.3854 18.7307 34.9659 18.8308 34.3652 18.819V20.9071C35.7442 20.942 36.7752 20.6766 37.4583 20.1107C38.1414 19.5449 38.4829 18.6605 38.4829 17.4575V16.9583V9.1911H40.1976V7.15644H38.4829V6.75345Z" fill="white"/>
</g>
<defs>
<clipPath id="clip0_423_273010">
<rect width="108.279" height="24" fill="white"/>
</clipPath>
</defs>
</svg>
