<svg viewBox="0 0 20 20" fill="none" xmlns="http://www.w3.org/2000/svg">
<path fill-rule="evenodd" clip-rule="evenodd" d="M8.99434 5.83203C9.36437 4.39434 10.6695 3.33203 12.2227 3.33203C13.7759 3.33203 15.0809 4.39434 15.451 5.83203L16.9449 5.83203C17.4051 5.83203 17.7782 6.20513 17.7782 6.66536C17.7782 7.1256 17.4051 7.4987 16.9449 7.4987H15.451C15.0809 8.93639 13.7759 9.9987 12.2227 9.9987C10.6695 9.9987 9.36437 8.93639 8.99434 7.49869L3.05599 7.4987C2.59575 7.4987 2.22266 7.1256 2.22266 6.66536C2.22266 6.20513 2.59575 5.83203 3.05599 5.83203L8.99434 5.83203ZM10.556 6.66536C10.556 5.74489 11.3022 4.9987 12.2227 4.9987C13.1431 4.9987 13.8893 5.74489 13.8893 6.66536C13.8893 7.58584 13.1431 8.33203 12.2227 8.33203C11.3022 8.33203 10.556 7.58584 10.556 6.66536Z" fill="currentColor"/>
<path fill-rule="evenodd" clip-rule="evenodd" d="M7.77821 16.6654C9.33141 16.6654 10.6365 15.6031 11.0065 14.1654H16.9449C17.4051 14.1654 17.7782 13.7923 17.7782 13.332C17.7782 12.8718 17.4051 12.4987 16.9449 12.4987H11.0065C10.6365 11.061 9.33141 9.9987 7.77821 9.9987C6.22501 9.9987 4.91993 11.061 4.54989 12.4987H3.05599C2.59575 12.4987 2.22266 12.8718 2.22266 13.332C2.22266 13.7923 2.59575 14.1654 3.05599 14.1654H4.54989C4.91993 15.6031 6.22501 16.6654 7.77821 16.6654ZM9.44488 13.332C9.44488 14.2525 8.69869 14.9987 7.77821 14.9987C6.85774 14.9987 6.11154 14.2525 6.11154 13.332C6.11154 12.4116 6.85774 11.6654 7.77821 11.6654C8.69869 11.6654 9.44488 12.4116 9.44488 13.332Z" fill="currentColor"/>
</svg>
