<svg viewBox="0 0 32 32" fill="none" xmlns="http://www.w3.org/2000/svg">
    <path
        d="M27.5198 26.88H25.5998V9.59997C25.6093 9.45998 25.5716 9.32086 25.4927 9.20483C25.4138 9.08881 25.2983 9.00259 25.1646 8.95997L20.4798 7.00157V26.88H19.1998V4.47997C19.1998 4.31023 19.1324 4.14744 19.0124 4.02742C18.8924 3.90739 18.7296 3.83997 18.5598 3.83997H7.03984C6.87011 3.83997 6.70732 3.90739 6.5873 4.02742C6.46727 4.14744 6.39984 4.31023 6.39984 4.47997V26.88H4.47984C4.31011 26.88 4.14732 26.9474 4.0273 27.0674C3.90727 27.1874 3.83984 27.3502 3.83984 27.52C3.83984 27.6897 3.90727 27.8525 4.0273 27.9725C4.14732 28.0925 4.31011 28.16 4.47984 28.16H27.5198C27.6896 28.16 27.8524 28.0925 27.9724 27.9725C28.0924 27.8525 28.1598 27.6897 28.1598 27.52C28.1598 27.3502 28.0924 27.1874 27.9724 27.0674C27.8524 26.9474 27.6896 26.88 27.5198 26.88ZM22.3998 11.52H23.6798C23.8496 11.52 24.0124 11.5874 24.1324 11.7074C24.2524 11.8274 24.3198 11.9902 24.3198 12.16C24.3166 12.3287 24.2481 12.4896 24.1288 12.6089C24.0094 12.7282 23.8486 12.7967 23.6798 12.8H22.3998C22.2311 12.7967 22.0702 12.7282 21.9509 12.6089C21.8316 12.4896 21.7631 12.3287 21.7598 12.16C21.7598 11.9902 21.8273 11.8274 21.9473 11.7074C22.0673 11.5874 22.2301 11.52 22.3998 11.52ZM22.3998 15.36H23.6798C23.8496 15.36 24.0124 15.4274 24.1324 15.5474C24.2524 15.6674 24.3198 15.8302 24.3198 16C24.3198 16.1697 24.2524 16.3325 24.1324 16.4525C24.0124 16.5725 23.8496 16.64 23.6798 16.64H22.3998C22.2301 16.64 22.0673 16.5725 21.9473 16.4525C21.8273 16.3325 21.7598 16.1697 21.7598 16C21.7598 15.8302 21.8273 15.6674 21.9473 15.5474C22.0673 15.4274 22.2301 15.36 22.3998 15.36ZM22.3998 19.2H23.6798C23.8486 19.2032 24.0094 19.2717 24.1288 19.391C24.2481 19.5104 24.3166 19.6713 24.3198 19.84C24.3198 20.0097 24.2524 20.1725 24.1324 20.2925C24.0124 20.4125 23.8496 20.48 23.6798 20.48H22.3998C22.2301 20.48 22.0673 20.4125 21.9473 20.2925C21.8273 20.1725 21.7598 20.0097 21.7598 19.84C21.7631 19.6713 21.8316 19.5104 21.9509 19.391C22.0702 19.2717 22.2311 19.2032 22.3998 19.2ZM22.3998 23.04H23.6798C23.8496 23.04 24.0124 23.1074 24.1324 23.2274C24.2524 23.3474 24.3198 23.5102 24.3198 23.68C24.3198 23.8497 24.2524 24.0125 24.1324 24.1325C24.0124 24.2525 23.8496 24.32 23.6798 24.32H22.3998C22.2301 24.32 22.0673 24.2525 21.9473 24.1325C21.8273 24.0125 21.7598 23.8497 21.7598 23.68C21.7598 23.5102 21.8273 23.3474 21.9473 23.2274C22.0673 23.1074 22.2301 23.04 22.3998 23.04ZM14.0798 7.67997H15.3598C15.5296 7.67997 15.6924 7.74739 15.8124 7.86742C15.9324 7.98744 15.9998 8.15023 15.9998 8.31997C15.9998 8.4897 15.9324 8.65249 15.8124 8.77251C15.6924 8.89254 15.5296 8.95997 15.3598 8.95997H14.0798C13.9101 8.95997 13.7473 8.89254 13.6273 8.77251C13.5073 8.65249 13.4398 8.4897 13.4398 8.31997C13.4398 8.15023 13.5073 7.98744 13.6273 7.86742C13.7473 7.74739 13.9101 7.67997 14.0798 7.67997ZM14.0798 11.52H15.3598C15.5296 11.52 15.6924 11.5874 15.8124 11.7074C15.9324 11.8274 15.9998 11.9902 15.9998 12.16C15.9998 12.3297 15.9324 12.4925 15.8124 12.6125C15.6924 12.7325 15.5296 12.8 15.3598 12.8H14.0798C13.9101 12.8 13.7473 12.7325 13.6273 12.6125C13.5073 12.4925 13.4398 12.3297 13.4398 12.16C13.4398 11.9902 13.5073 11.8274 13.6273 11.7074C13.7473 11.5874 13.9101 11.52 14.0798 11.52ZM14.0798 15.36H15.3598C15.5296 15.36 15.6924 15.4274 15.8124 15.5474C15.9324 15.6674 15.9998 15.8302 15.9998 16C15.9998 16.1697 15.9324 16.3325 15.8124 16.4525C15.6924 16.5725 15.5296 16.64 15.3598 16.64H14.0798C13.9101 16.64 13.7473 16.5725 13.6273 16.4525C13.5073 16.3325 13.4398 16.1697 13.4398 16C13.4398 15.8302 13.5073 15.6674 13.6273 15.5474C13.7473 15.4274 13.9101 15.36 14.0798 15.36ZM14.0798 19.2H15.3598C15.5296 19.2 15.6924 19.2674 15.8124 19.3874C15.9324 19.5074 15.9998 19.6702 15.9998 19.84C15.9998 20.0097 15.9324 20.1725 15.8124 20.2925C15.6924 20.4125 15.5296 20.48 15.3598 20.48H14.0798C13.9101 20.48 13.7473 20.4125 13.6273 20.2925C13.5073 20.1725 13.4398 20.0097 13.4398 19.84C13.4398 19.6702 13.5073 19.5074 13.6273 19.3874C13.7473 19.2674 13.9101 19.2 14.0798 19.2ZM10.163 7.67997H11.5198C11.6896 7.67997 11.8524 7.74739 11.9724 7.86742C12.0924 7.98744 12.1598 8.15023 12.1598 8.31997C12.1598 8.4897 12.0924 8.65249 11.9724 8.77251C11.8524 8.89254 11.6896 8.95997 11.5198 8.95997H10.2398C10.0701 8.95997 9.90732 8.89254 9.7873 8.77251C9.66727 8.65249 9.59984 8.4897 9.59984 8.31997C9.59984 8.15023 9.66727 7.98744 9.7873 7.86742C9.90732 7.74739 10.0701 7.67997 10.2398 7.67997H10.163ZM10.163 11.52H11.5198C11.6896 11.52 11.8524 11.5874 11.9724 11.7074C12.0924 11.8274 12.1598 11.9902 12.1598 12.16C12.1598 12.3297 12.0924 12.4925 11.9724 12.6125C11.8524 12.7325 11.6896 12.8 11.5198 12.8H10.2398C10.0701 12.8 9.90732 12.7325 9.7873 12.6125C9.66727 12.4925 9.59984 12.3297 9.59984 12.16C9.59984 11.9902 9.66727 11.8274 9.7873 11.7074C9.90732 11.5874 10.0701 11.52 10.2398 11.52H10.163ZM10.163 15.36H11.5198C11.6896 15.36 11.8524 15.4274 11.9724 15.5474C12.0924 15.6674 12.1598 15.8302 12.1598 16C12.1598 16.1697 12.0924 16.3325 11.9724 16.4525C11.8524 16.5725 11.6896 16.64 11.5198 16.64H10.2398C10.0701 16.64 9.90732 16.5725 9.7873 16.4525C9.66727 16.3325 9.59984 16.1697 9.59984 16C9.59984 15.8302 9.66727 15.6674 9.7873 15.5474C9.90732 15.4274 10.0701 15.36 10.2398 15.36H10.163ZM10.163 19.2H11.5198C11.6896 19.2 11.8524 19.2674 11.9724 19.3874C12.0924 19.5074 12.1598 19.6702 12.1598 19.84C12.1598 20.0097 12.0924 20.1725 11.9724 20.2925C11.8524 20.4125 11.6896 20.48 11.5198 20.48H10.2398C10.0701 20.48 9.90732 20.4125 9.7873 20.2925C9.66727 20.1725 9.59984 20.0097 9.59984 19.84C9.59984 19.6702 9.66727 19.5074 9.7873 19.3874C9.90732 19.2674 10.0701 19.2 10.2398 19.2H10.163ZM13.4398 26.88V24.32H12.1598V26.88H10.8798V23.6416C10.8896 23.4786 10.9614 23.3255 11.0803 23.2136C11.1993 23.1018 11.3566 23.0397 11.5198 23.04H14.0798C14.2496 23.04 14.4124 23.1074 14.5324 23.2274C14.6524 23.3474 14.7198 23.5102 14.7198 23.68V26.88H13.4398Z"
        fill="currentColor" />
</svg>