<svg viewBox="0 0 24 24" fill="none" xmlns="http://www.w3.org/2000/svg">
    <path d="M2 22L23 22" stroke="currentColor" stroke-width="1.5" stroke-linecap="round" />
    <path
        d="M3.6875 21.8444V2.5C3.6875 2.22386 3.91136 2 4.1875 2H13.7431C14.0192 2 14.2431 2.22386 14.2431 2.5V21.4222"
        stroke="currentColor" stroke-width="1.5" stroke-linecap="round" />
    <path
        d="M16.5 21.4217V5.66815C16.5 5.32138 16.8444 5.07991 17.1704 5.19807L20.8298 6.52449C21.0276 6.59621 21.1594 6.78412 21.1594 6.99456V21.4217"
        stroke="currentColor" stroke-width="1.5" stroke-linecap="round" />
    <path d="M18.2031 15.5117H19.4698" stroke="currentColor" stroke-linecap="round" />
    <path d="M18.2031 18.8887H19.4698" stroke="currentColor" stroke-linecap="round" />
    <path d="M18.2031 12.1328H19.4698" stroke="currentColor" stroke-linecap="round" />
    <path d="M18.2031 8.75586H19.4698" stroke="currentColor" stroke-linecap="round" />
    <path d="M6.64062 5.80078H7.90729" stroke="currentColor" stroke-linecap="round" />
    <path d="M6.64062 8.75586H7.90729" stroke="currentColor" stroke-linecap="round" />
    <path d="M6.64062 12.1328H7.90729" stroke="currentColor" stroke-linecap="round" />
    <path d="M6.64062 15.5117H7.90729" stroke="currentColor" stroke-linecap="round" />
    <path d="M10.0234 5.80078H11.2901" stroke="currentColor" stroke-linecap="round" />
    <path d="M10.0234 8.75586H11.2901" stroke="currentColor" stroke-linecap="round" />
    <path d="M10.0234 12.1328H11.2901" stroke="currentColor" stroke-linecap="round" />
    <path d="M10.0234 15.5117H11.2901" stroke="currentColor" stroke-linecap="round" />
    <path
        d="M7.49219 21.4227V18.5449C7.49219 18.2688 7.71605 18.0449 7.99219 18.0449H10.37C10.6461 18.0449 10.87 18.2688 10.87 18.5449V21.4227"
        stroke="currentColor" stroke-linecap="round" stroke-linejoin="round" />
</svg>