<svg viewBox="0 0 24 24" fill="none" xmlns="http://www.w3.org/2000/svg">
    <g clip-path="url(#clip0_1681_33957)">
        <path
            d="M4 19.5C4 19.8978 3.84196 20.2794 3.56066 20.5607C3.27936 20.842 2.89782 21 2.5 21C2.10218 21 1.72064 20.842 1.43934 20.5607C1.15804 20.2794 1 19.8978 1 19.5C1 18.67 1.67 17 2.5 17C3.33 17 4 18.67 4 19.5ZM20 19.5C20 19.8978 20.158 20.2794 20.4393 20.5607C20.7206 20.842 21.1022 21 21.5 21C21.8978 21 22.2794 20.842 22.5607 20.5607C22.842 20.2794 23 19.8978 23 19.5C23 18.67 22.33 17 21.5 17C20.67 17 20 18.67 20 19.5Z"
            fill="white" />
        <path d="M6 9H18V23H6V9Z" fill="#3CB6BA" />
        <path d="M10 18H14V23H10V18Z" fill="white" />
        <path d="M6.5 2H17.5V9H6.5V2Z" fill="#3CB6BA" />
        <path
            d="M23 22.5H22V21.43C22.4282 21.3194 22.8077 21.07 23.0792 20.7208C23.3506 20.3716 23.4986 19.9423 23.5 19.5C23.5 18.47 22.72 16.5 21.5 16.5C20.28 16.5 19.5 18.47 19.5 19.5C19.5014 19.9423 19.6494 20.3716 19.9208 20.7208C20.1923 21.07 20.5718 21.3194 21 21.43V22.5H18.5V9.5C18.6326 9.5 18.7598 9.44732 18.8536 9.35355C18.9473 9.25979 19 9.13261 19 9C19 8.86739 18.9473 8.74021 18.8536 8.64645C18.7598 8.55268 18.6326 8.5 18.5 8.5H18V2C18 1.86739 17.9473 1.74021 17.8536 1.64645C17.7598 1.55268 17.6326 1.5 17.5 1.5H6.5C6.36739 1.5 6.24021 1.55268 6.14645 1.64645C6.05268 1.74021 6 1.86739 6 2V8.5H5.5C5.36739 8.5 5.24021 8.55268 5.14645 8.64645C5.05268 8.74021 5 8.86739 5 9C5 9.13261 5.05268 9.25979 5.14645 9.35355C5.24021 9.44732 5.36739 9.5 5.5 9.5V22.5H3V21.43C3.42824 21.3194 3.80775 21.07 4.07916 20.7208C4.35056 20.3716 4.49856 19.9423 4.5 19.5C4.5 18.47 3.72 16.5 2.5 16.5C1.28 16.5 0.5 18.47 0.5 19.5C0.501436 19.9423 0.649435 20.3716 0.920845 20.7208C1.19225 21.07 1.57176 21.3194 2 21.43V22.5H1C0.867392 22.5 0.740215 22.5527 0.646447 22.6464C0.552678 22.7402 0.5 22.8674 0.5 23C0.5 23.1326 0.552678 23.2598 0.646447 23.3536C0.740215 23.4473 0.867392 23.5 1 23.5H23C23.1326 23.5 23.2598 23.4473 23.3536 23.3536C23.4473 23.2598 23.5 23.1326 23.5 23C23.5 22.8674 23.4473 22.7402 23.3536 22.6464C23.2598 22.5527 23.1326 22.5 23 22.5ZM20.5 19.5C20.5 18.75 21.125 17.5 21.5 17.5C21.875 17.5 22.5 18.75 22.5 19.5C22.5 19.7652 22.3946 20.0196 22.2071 20.2071C22.0196 20.3946 21.7652 20.5 21.5 20.5C21.2348 20.5 20.9804 20.3946 20.7929 20.2071C20.6054 20.0196 20.5 19.7652 20.5 19.5ZM1.5 19.5C1.5 18.75 2.125 17.5 2.5 17.5C2.875 17.5 3.5 18.75 3.5 19.5C3.5 19.7652 3.39464 20.0196 3.20711 20.2071C3.01957 20.3946 2.76522 20.5 2.5 20.5C2.23478 20.5 1.98043 20.3946 1.79289 20.2071C1.60536 20.0196 1.5 19.7652 1.5 19.5ZM7 2.5H17V8.5H7V2.5ZM10.5 22.5V18.5H13.5V22.5H10.5ZM14.5 22.5V18C14.5 17.8674 14.4473 17.7402 14.3536 17.6464C14.2598 17.5527 14.1326 17.5 14 17.5H10C9.86739 17.5 9.74021 17.5527 9.64645 17.6464C9.55268 17.7402 9.5 17.8674 9.5 18V22.5H6.5V9.5H17.5V22.5H14.5Z"
            fill="#3CB6BA" />
        <path
            d="M9.5 4.5H8.5C8.22386 4.5 8 4.72386 8 5V7C8 7.27614 8.22386 7.5 8.5 7.5H9.5C9.77614 7.5 10 7.27614 10 7V5C10 4.72386 9.77614 4.5 9.5 4.5Z"
            fill="white" />
        <path
            d="M12.5 4.5H11.5C11.2239 4.5 11 4.72386 11 5V7C11 7.27614 11.2239 7.5 11.5 7.5H12.5C12.7761 7.5 13 7.27614 13 7V5C13 4.72386 12.7761 4.5 12.5 4.5Z"
            fill="white" />
        <path
            d="M15.5 4.5H14.5C14.2239 4.5 14 4.72386 14 5V7C14 7.27614 14.2239 7.5 14.5 7.5H15.5C15.7761 7.5 16 7.27614 16 7V5C16 4.72386 15.7761 4.5 15.5 4.5Z"
            fill="white" />
        <path
            d="M12.5 11H11.5C11.2239 11 11 11.2239 11 11.5V12.5C11 12.7761 11.2239 13 11.5 13H12.5C12.7761 13 13 12.7761 13 12.5V11.5C13 11.2239 12.7761 11 12.5 11Z"
            fill="white" />
        <path
            d="M9.5 11H8.5C8.22386 11 8 11.2239 8 11.5V12.5C8 12.7761 8.22386 13 8.5 13H9.5C9.77614 13 10 12.7761 10 12.5V11.5C10 11.2239 9.77614 11 9.5 11Z"
            fill="white" />
        <path
            d="M15.5 11H14.5C14.2239 11 14 11.2239 14 11.5V12.5C14 12.7761 14.2239 13 14.5 13H15.5C15.7761 13 16 12.7761 16 12.5V11.5C16 11.2239 15.7761 11 15.5 11Z"
            fill="white" />
        <path
            d="M12.5 14H11.5C11.2239 14 11 14.2239 11 14.5V15.5C11 15.7761 11.2239 16 11.5 16H12.5C12.7761 16 13 15.7761 13 15.5V14.5C13 14.2239 12.7761 14 12.5 14Z"
            fill="white" />
        <path
            d="M9.5 14H8.5C8.22386 14 8 14.2239 8 14.5V15.5C8 15.7761 8.22386 16 8.5 16H9.5C9.77614 16 10 15.7761 10 15.5V14.5C10 14.2239 9.77614 14 9.5 14Z"
            fill="white" />
        <path
            d="M15.5 14H14.5C14.2239 14 14 14.2239 14 14.5V15.5C14 15.7761 14.2239 16 14.5 16H15.5C15.7761 16 16 15.7761 16 15.5V14.5C16 14.2239 15.7761 14 15.5 14Z"
            fill="white" />
        <path
            d="M14.5 0.5H9.5C9.22386 0.5 9 0.723858 9 1V3C9 3.27614 9.22386 3.5 9.5 3.5H14.5C14.7761 3.5 15 3.27614 15 3V1C15 0.723858 14.7761 0.5 14.5 0.5Z"
            fill="#3CB6BA" />
    </g>
    <defs>
        <clipPath id="clip0_1681_33957">
            <rect width="24" height="24" fill="white" />
        </clipPath>
    </defs>
</svg>