<svg  viewBox="0 0 20 20" fill="none" xmlns="http://www.w3.org/2000/svg">
<path fill-rule="evenodd" clip-rule="evenodd" d="M6.66672 1.94434C7.12696 1.94434 7.50005 2.31743 7.50005 2.77767V3.06499C7.91503 3.05544 8.38223 3.05544 8.90882 3.05545H8.90883H11.0913H11.0913C11.6179 3.05544 12.0851 3.05544 12.5001 3.06499V2.77767C12.5001 2.31743 12.8732 1.94434 13.3334 1.94434C13.7936 1.94434 14.1667 2.31743 14.1667 2.77767V3.22951C14.4399 3.29345 14.6986 3.38292 14.9472 3.50959C15.2673 3.67265 15.5629 3.87536 15.8278 4.1115L14.6461 5.29327C14.5064 5.17806 14.3538 5.07774 14.1906 4.9946C13.9711 4.88278 13.6814 4.80596 13.1771 4.76476C12.663 4.72276 12.0028 4.72211 11.0556 4.72211H8.9445C7.99733 4.72211 7.33707 4.72276 6.82303 4.76476C6.31873 4.80596 6.02899 4.88278 5.80952 4.9946C5.33912 5.23428 4.95667 5.61673 4.71698 6.08714C4.60516 6.3066 4.52835 6.59634 4.48715 7.10065C4.47076 7.30126 4.46066 7.52415 4.45445 7.77767H12.1617L10.495 9.44434H4.4445V10.7777C4.4445 11.7248 4.44515 12.3851 4.48715 12.8991C4.52835 13.4034 4.60516 13.6932 4.71698 13.9126C4.86036 14.194 5.05483 14.444 5.28866 14.6507L4.10881 15.8305C3.75283 15.4999 3.45524 15.1075 3.23197 14.6693C2.98048 14.1757 2.87564 13.6422 2.82601 13.0349C2.77782 12.445 2.77782 11.7165 2.77783 10.8134V10.8133V9.18643V9.18642C2.77782 8.28328 2.77782 7.55482 2.82601 6.96493C2.87564 6.35755 2.98048 5.82406 3.23197 5.33049C3.63144 4.54648 4.26886 3.90906 5.05287 3.50959C5.30147 3.38292 5.5602 3.29345 5.83339 3.22951V2.77767C5.83339 2.31743 6.20648 1.94434 6.66672 1.94434ZM5.41404 16.6466C5.80565 16.7886 6.22509 16.8584 6.68731 16.8962C7.27721 16.9444 8.00566 16.9443 8.90881 16.9443L12.6682 16.9443C13.0262 16.9444 13.27 16.9444 13.4849 16.9222C15.4465 16.719 16.9969 15.1685 17.2001 13.207C17.2224 12.9921 17.2223 12.7483 17.2223 12.3903L17.2223 9.18642C17.2223 8.28328 17.2223 7.55482 17.1741 6.96493C17.1245 6.35755 17.0196 5.82406 16.7681 5.33049C16.7639 5.32211 16.7596 5.31375 16.7553 5.30541L15.4505 6.61017C15.4764 6.74789 15.4973 6.90873 15.513 7.10065C15.5294 7.30126 15.5394 7.52415 15.5457 7.77767H14.283L12.6163 9.44434H15.5556V12.3396C15.5556 12.7673 15.5545 12.9176 15.5423 13.0353C15.4204 14.2122 14.4901 15.1424 13.3132 15.2644C13.1955 15.2766 13.0452 15.2777 12.6175 15.2777H8.9445C7.99881 15.2777 7.33913 15.277 6.82544 15.2352L5.41404 16.6466Z" fill="currentColor"/>
<path fill-rule="evenodd" clip-rule="evenodd" d="M18.5303 4.46967C18.8232 4.76256 18.8232 5.23744 18.5303 5.53033L5.53033 18.5303C5.23744 18.8232 4.76256 18.8232 4.46967 18.5303C4.17678 18.2374 4.17678 17.7626 4.46967 17.4697L17.4697 4.46967C17.7626 4.17678 18.2374 4.17678 18.5303 4.46967Z" fill="currentColor"/>
</svg>
