<svg viewBox="0 0 20 21" fill="none" xmlns="http://www.w3.org/2000/svg">
    <path
        d="M10 13.9813C8.61929 13.9813 7.5 12.862 7.5 11.4813C7.5 10.1006 8.61929 8.98132 10 8.98132C11.3807 8.98132 12.5 10.1006 12.5 11.4813C12.5 12.862 11.3807 13.9813 10 13.9813ZM17.5 9.148V13.8147C17.5 14.7481 17.5002 15.2148 17.3185 15.5713C17.1587 15.8849 16.9034 16.1399 16.5898 16.2996C16.2333 16.4813 15.7669 16.4813 14.8335 16.4813H5.16683C4.23341 16.4813 3.76635 16.4813 3.40983 16.2996C3.09623 16.1399 2.84144 15.8849 2.68166 15.5713C2.5 15.2148 2.5 14.7481 2.5 13.8147V9.148C2.5 8.21458 2.5 7.74788 2.68166 7.39136C2.84144 7.07775 3.09623 6.82277 3.40983 6.66298C3.76635 6.48132 4.23341 6.48132 5.16683 6.48132H14.8335C15.7669 6.48132 16.2333 6.48132 16.5898 6.66298C16.9034 6.82277 17.1587 7.07775 17.3185 7.39136C17.5002 7.74788 17.5 8.21458 17.5 9.148ZM12.0408 6.48132H7.95898C7.83716 6.48132 7.77652 6.48131 7.73031 6.47614C7.24065 6.42131 6.90522 5.95594 7.00806 5.47407C7.01776 5.42859 7.03708 5.37078 7.0756 5.2552C7.11838 5.12688 7.13976 5.06272 7.16339 5.0061C7.40529 4.42643 7.95227 4.03201 8.57869 3.98583C8.63988 3.98132 8.70751 3.98132 8.84277 3.98132H11.1572C11.2924 3.98132 11.3601 3.98132 11.4213 3.98583C12.0477 4.03201 12.595 4.42643 12.8369 5.0061C12.8605 5.06272 12.882 5.12691 12.9248 5.25523C12.9633 5.3708 12.9826 5.42859 12.9923 5.47407C13.0951 5.95594 12.7596 6.42131 12.27 6.47614C12.2238 6.48131 12.1626 6.48132 12.0408 6.48132Z"
        stroke="currentColor" stroke-width="1.5" stroke-linecap="round" stroke-linejoin="round" />
</svg>