<svg viewBox="0 0 33 32" fill="none" xmlns="http://www.w3.org/2000/svg">
    <path opacity="0.4"
        d="M9.51225 29.3327H23.4856C27.1656 29.3327 28.6323 27.0793 28.8056 24.3327L29.4989 13.3193C29.6856 10.4393 27.3923 7.99935 24.4989 7.99935C23.6856 7.99935 22.9389 7.53268 22.5656 6.81268L21.6056 4.87935C20.9923 3.66602 19.3923 2.66602 18.0323 2.66602H14.9789C13.6056 2.66602 12.0056 3.66602 11.3923 4.87935L10.4323 6.81268C10.0589 7.53268 9.31225 7.99935 8.49892 7.99935C5.60559 7.99935 3.31225 10.4393 3.49892 13.3193L4.19225 24.3327C4.35225 27.0793 5.83225 29.3327 9.51225 29.3327Z"
        fill="currentColor" />
    <path
        d="M18.5 11.666H14.5C13.9533 11.666 13.5 11.2127 13.5 10.666C13.5 10.1193 13.9533 9.66602 14.5 9.66602H18.5C19.0467 9.66602 19.5 10.1193 19.5 10.666C19.5 11.2127 19.0467 11.666 18.5 11.666Z"
        fill="currentColor" />
    <path
        d="M16.4989 24.1735C18.9878 24.1735 21.0055 22.1558 21.0055 19.6668C21.0055 17.1779 18.9878 15.1602 16.4989 15.1602C14.0099 15.1602 11.9922 17.1779 11.9922 19.6668C11.9922 22.1558 14.0099 24.1735 16.4989 24.1735Z"
        fill="currentColor" />
</svg>