<svg viewBox="0 0 24 24" fill="none" xmlns="http://www.w3.org/2000/svg">
    <path fill-rule="evenodd" clip-rule="evenodd"
        d="M19.1837 4.91249L12 4.75L4.81627 4.91249C3.48511 4.9426 2.35801 5.90322 2.11732 7.21278C1.5356 10.3779 1.5356 13.6225 2.11732 16.7876C2.35801 18.0972 3.48511 19.0578 4.81627 19.0879L12 19.2504L19.1837 19.0879C20.5149 19.0578 21.642 18.0972 21.8827 16.7876C22.4644 13.6225 22.4644 10.3779 21.8827 7.21278C21.642 5.90322 20.5149 4.9426 19.1837 4.91249ZM4.85019 6.41211L12 6.25038L19.1498 6.41211C19.7701 6.42613 20.2952 6.87374 20.4074 7.48393C20.5607 8.31792 20.6711 9.15776 20.7388 10.0002H3.26121C3.32886 9.15776 3.43933 8.31792 3.59261 7.48393C3.70476 6.87374 4.22993 6.42613 4.85019 6.41211ZM3.18103 12.0002C3.18103 13.5119 3.31822 15.0235 3.59261 16.5165C3.70476 17.1266 4.22993 17.5742 4.85019 17.5883L12 17.75L19.1498 17.5883C19.7701 17.5742 20.2952 17.1266 20.4074 16.5165C20.6818 15.0235 20.819 13.5119 20.819 12.0002H3.18103Z"
        fill="currentColor" />
</svg>