<svg viewBox="0 0 23 23" fill="none" xmlns="http://www.w3.org/2000/svg">
<path d="M7.81738 19.9375C8.59403 19.9375 9.22363 19.3079 9.22363 18.5312C9.22363 17.7546 8.59403 17.125 7.81738 17.125C7.04073 17.125 6.41113 17.7546 6.41113 18.5312C6.41113 19.3079 7.04073 19.9375 7.81738 19.9375Z" fill="currentColor"/>
<path d="M17.6611 19.9375C18.4378 19.9375 19.0674 19.3079 19.0674 18.5312C19.0674 17.7546 18.4378 17.125 17.6611 17.125C16.8845 17.125 16.2549 17.7546 16.2549 18.5312C16.2549 19.3079 16.8845 19.9375 17.6611 19.9375Z" fill="currentColor"/>
<path d="M20.1572 5.55796C20.0584 5.43713 19.934 5.33981 19.7929 5.27308C19.6518 5.20634 19.4977 5.17185 19.3416 5.17212H5.96684L5.69746 3.6437C5.66874 3.4809 5.58356 3.33342 5.4569 3.22717C5.33025 3.12093 5.1702 3.06271 5.00488 3.06274H2.19238C2.0059 3.06274 1.82706 3.13682 1.6952 3.26868C1.56334 3.40055 1.48926 3.57939 1.48926 3.76587C1.48926 3.95235 1.56334 4.13119 1.6952 4.26305C1.82706 4.39491 2.0059 4.46899 2.19238 4.46899H4.41514L6.42168 15.8412C6.4504 16.004 6.53557 16.1514 6.66223 16.2577C6.78889 16.3639 6.94894 16.4221 7.11426 16.4221H18.3643C18.5507 16.4221 18.7296 16.348 18.8614 16.2162C18.9933 16.0843 19.0674 15.9055 19.0674 15.719C19.0674 15.5325 18.9933 15.3537 18.8614 15.2218C18.7296 15.0899 18.5507 15.0159 18.3643 15.0159H7.704L7.45615 13.6096H18.076C18.3198 13.6093 18.5561 13.5248 18.7447 13.3703C18.9334 13.2158 19.0629 13.0009 19.1113 12.7619L20.3769 6.43379C20.4074 6.28064 20.4036 6.12263 20.3656 5.97117C20.3276 5.81971 20.2564 5.67857 20.1572 5.55796V5.55796Z" fill="currentColor"/>
</svg>
