<svg viewBox="0 0 20 20" fill="none" xmlns="http://www.w3.org/2000/svg">
    <path
        d="M8.71732 4.9991L9.16732 4.50743V7.4991C9.16732 7.72011 9.25511 7.93208 9.41139 8.08836C9.56768 8.24464 9.77964 8.33243 10.0007 8.33243C10.2217 8.33243 10.4336 8.24464 10.5899 8.08836C10.7462 7.93208 10.834 7.72011 10.834 7.4991V4.50743L11.284 4.96577C11.3596 5.0512 11.452 5.12019 11.5554 5.16846C11.6588 5.21673 11.771 5.24325 11.8851 5.24637C11.9992 5.2495 12.1126 5.22916 12.2185 5.18663C12.3244 5.14409 12.4204 5.08027 12.5006 4.9991C12.5788 4.92163 12.6408 4.82946 12.6831 4.72791C12.7254 4.62636 12.7471 4.51744 12.7471 4.40743C12.7471 4.29742 12.7254 4.1885 12.6831 4.08695C12.6408 3.9854 12.5788 3.89324 12.5006 3.81577L10.5923 1.90743C10.5131 1.83157 10.4196 1.7721 10.3173 1.73243C10.1144 1.64908 9.88687 1.64908 9.68398 1.73243C9.58169 1.7721 9.48824 1.83157 9.40898 1.90743L7.50065 3.78243C7.33931 3.94377 7.24867 4.1626 7.24867 4.39077C7.24867 4.61894 7.33931 4.83776 7.50065 4.9991C7.66199 5.16044 7.88081 5.25108 8.10898 5.25108C8.33715 5.25108 8.55598 5.16044 8.71732 4.9991V4.9991ZM10.0007 9.9991C9.5062 9.9991 9.02285 10.1457 8.61172 10.4204C8.2006 10.6951 7.88017 11.0856 7.69095 11.5424C7.50173 11.9992 7.45222 12.5019 7.54869 12.9868C7.64515 13.4718 7.88325 13.9172 8.23288 14.2669C8.58251 14.6165 9.02797 14.8546 9.51292 14.9511C9.99788 15.0475 10.5005 14.998 10.9574 14.8088C11.4142 14.6196 11.8046 14.2991 12.0793 13.888C12.354 13.4769 12.5006 12.9936 12.5006 12.4991C12.5006 11.8361 12.2373 11.2002 11.7684 10.7313C11.2996 10.2625 10.6637 9.9991 10.0007 9.9991ZM10.0007 13.3324C9.83583 13.3324 9.67472 13.2836 9.53767 13.192C9.40063 13.1004 9.29382 12.9703 9.23075 12.818C9.16768 12.6657 9.15117 12.4982 9.18333 12.3365C9.21548 12.1749 9.29485 12.0264 9.41139 11.9098C9.52794 11.7933 9.67642 11.7139 9.83807 11.6818C9.99973 11.6496 10.1673 11.6661 10.3196 11.7292C10.4718 11.7923 10.602 11.8991 10.6935 12.0361C10.7851 12.1732 10.834 12.3343 10.834 12.4991C10.834 12.7201 10.7462 12.9321 10.5899 13.0884C10.4336 13.2446 10.2217 13.3324 10.0007 13.3324ZM4.16732 12.4991C4.16732 12.6639 4.21619 12.825 4.30776 12.9621C4.39933 13.0991 4.52948 13.2059 4.68175 13.269C4.83402 13.3321 5.00158 13.3486 5.16323 13.3164C5.32488 13.2843 5.47336 13.2049 5.58991 13.0884C5.70645 12.9718 5.78582 12.8233 5.81797 12.6617C5.85013 12.5 5.83362 12.3325 5.77055 12.1802C5.70748 12.0279 5.60067 11.8978 5.46363 11.8062C5.32658 11.7146 5.16547 11.6658 5.00065 11.6658C4.77964 11.6658 4.56768 11.7536 4.4114 11.9098C4.25511 12.0661 4.16732 12.2781 4.16732 12.4991ZM15.834 12.4991C15.834 12.3343 15.7851 12.1732 15.6935 12.0361C15.602 11.8991 15.4718 11.7923 15.3196 11.7292C15.1673 11.6661 14.9997 11.6496 14.8381 11.6818C14.6764 11.7139 14.5279 11.7933 14.4114 11.9098C14.2948 12.0264 14.2155 12.1749 14.1833 12.3365C14.1512 12.4982 14.1677 12.6657 14.2308 12.818C14.2938 12.9703 14.4006 13.1004 14.5377 13.192C14.6747 13.2836 14.8358 13.3324 15.0006 13.3324C15.2217 13.3324 15.4336 13.2446 15.5899 13.0884C15.7462 12.9321 15.834 12.7201 15.834 12.4991ZM16.6673 6.66577H13.334C13.113 6.66577 12.901 6.75356 12.7447 6.90984C12.5884 7.06612 12.5006 7.27809 12.5006 7.4991C12.5006 7.72011 12.5884 7.93208 12.7447 8.08836C12.901 8.24464 13.113 8.33243 13.334 8.33243H16.6673C16.8883 8.33243 17.1003 8.42023 17.2566 8.57651C17.4129 8.73279 17.5006 8.94475 17.5006 9.16577V15.8324C17.5006 16.0534 17.4129 16.2654 17.2566 16.4217C17.1003 16.578 16.8883 16.6658 16.6673 16.6658H3.33398C3.11297 16.6658 2.90101 16.578 2.74473 16.4217C2.58845 16.2654 2.50065 16.0534 2.50065 15.8324V9.16577C2.50065 8.94475 2.58845 8.73279 2.74473 8.57651C2.90101 8.42023 3.11297 8.33243 3.33398 8.33243H6.66732C6.88833 8.33243 7.10029 8.24464 7.25657 8.08836C7.41285 7.93208 7.50065 7.72011 7.50065 7.4991C7.50065 7.27809 7.41285 7.06612 7.25657 6.90984C7.10029 6.75356 6.88833 6.66577 6.66732 6.66577H3.33398C2.67094 6.66577 2.03506 6.92916 1.56622 7.398C1.09738 7.86684 0.833984 8.50272 0.833984 9.16577V15.8324C0.833984 16.4955 1.09738 17.1314 1.56622 17.6002C2.03506 18.069 2.67094 18.3324 3.33398 18.3324H16.6673C17.3304 18.3324 17.9662 18.069 18.4351 17.6002C18.9039 17.1314 19.1673 16.4955 19.1673 15.8324V9.16577C19.1673 8.50272 18.9039 7.86684 18.4351 7.398C17.9662 6.92916 17.3304 6.66577 16.6673 6.66577Z"
        fill="#7D8FB3" />
</svg>