<svg viewBox="0 0 32 32" fill="none" xmlns="http://www.w3.org/2000/svg">
    <path
        d="M24.9126 7.00022H26.5867C26.6861 7.00022 26.7815 6.96072 26.8519 6.89039C26.9222 6.82006 26.9617 6.72468 26.9617 6.62522C26.9617 6.52577 26.9222 6.43039 26.8519 6.36006C26.7815 6.28973 26.6861 6.25022 26.5867 6.25022H24.0898C19.1321 2.12522 11.7154 2.38097 7.06187 7.03454C7.04312 7.05329 7.00012 7.08804 7.00012 7.10691V5.34354C7.00012 5.24408 6.96062 5.1487 6.89029 5.07837C6.81996 5.00805 6.72458 4.96854 6.62512 4.96854C6.52567 4.96854 6.43029 5.00805 6.35996 5.07837C6.28963 5.1487 6.25012 5.24408 6.25012 5.34354V7.9361C2.18762 12.8935 2.42212 20.2842 7.06187 24.9239C7.06501 24.9287 7.06841 24.9333 7.07206 24.9377H5.32512C5.22567 24.9377 5.13029 24.9772 5.05996 25.0476C4.98963 25.1179 4.95012 25.2133 4.95012 25.3127C4.95012 25.4122 4.98963 25.5076 5.05996 25.5779C5.13029 25.6482 5.22567 25.6877 5.32512 25.6877H7.89244C10.1666 27.5789 13.0304 28.6153 15.9881 28.6177C17.6381 28.6205 19.2725 28.2976 20.7976 27.6675C22.3226 27.0374 23.7083 26.1125 24.8751 24.9459V26.6052C24.8751 26.7046 24.9146 26.8 24.985 26.8703C25.0553 26.9407 25.1507 26.9802 25.2501 26.9802C25.3496 26.9802 25.445 26.9407 25.5153 26.8703C25.5856 26.8 25.6251 26.7046 25.6251 26.6052V24.1334C29.8126 19.1757 29.5929 11.7074 24.9201 7.03454C24.9136 7.02816 24.9189 7.06272 24.9126 7.00022ZM25.1133 23.6252H22.6493C22.5498 23.6252 22.4544 23.6647 22.3841 23.7351C22.3138 23.8054 22.2743 23.9008 22.2743 24.0002C22.2743 24.0997 22.3138 24.1951 22.3841 24.2654C22.4544 24.3357 22.5498 24.3752 22.6493 24.3752H24.4295C24.4165 24.3776 24.4046 24.384 24.3955 24.3936C19.9978 28.7913 13.0001 29.0036 8.31262 25.0519V22.6677C8.31262 22.5682 8.27312 22.4728 8.20279 22.4025C8.13246 22.3322 8.03708 22.2927 7.93762 22.2927C7.83817 22.2927 7.74279 22.3322 7.67246 22.4025C7.60213 22.4728 7.56262 22.5682 7.56262 22.6677V24.3597C3.18762 19.9719 2.98681 13.0002 6.8995 8.31272H9.26262C9.36208 8.31272 9.45746 8.27322 9.52779 8.20289C9.59812 8.13256 9.63762 8.03718 9.63762 7.93772C9.63762 7.83827 9.59812 7.74289 9.52779 7.67256C9.45746 7.60223 9.36208 7.56272 9.26262 7.56272H7.60056C9.69288 5.47545 12.4889 4.24428 15.4413 4.11024C18.3937 3.9762 21.2898 4.94895 23.5626 6.83804V9.28104C23.5626 9.38049 23.6021 9.47588 23.6725 9.5462C23.7428 9.61653 23.8382 9.65604 23.9376 9.65604C24.0371 9.65604 24.1325 9.61653 24.2028 9.5462C24.2731 9.47588 24.3126 9.38049 24.3126 9.28104V7.51679C24.3751 7.5381 24.3683 7.56879 24.3898 7.59029C28.7713 11.9718 29.0199 18.9377 25.1134 23.6252H25.1133Z"
        fill="#4CC3C7" />
    <path fill-rule="evenodd" clip-rule="evenodd"
        d="M24 16C24 20.4183 20.4183 24 16 24C11.5817 24 8 20.4183 8 16C8 11.5817 11.5817 8 16 8C20.4183 8 24 11.5817 24 16ZM19.0819 12.0957L19.1249 12.1337L20.4942 13.503C20.5066 13.5154 20.5182 13.5284 20.5291 13.5421L20.5668 13.5974L20.5843 13.6309L20.6009 13.6706L20.6154 13.7192L20.6249 13.7726L20.6277 13.8107L20.6271 13.8527L20.6209 13.9056L20.6052 13.9683L20.5852 14.019L20.5613 14.0635L20.5308 14.1073L20.4942 14.1486L19.1249 15.5179C18.9467 15.6962 18.6577 15.6962 18.4794 15.5179C18.3149 15.3534 18.3022 15.0945 18.4415 14.9154L18.4794 14.8724L19.0692 14.2823L14.6942 14.2822C14.4602 14.2822 14.2672 14.106 14.2409 13.879L14.2378 13.8258C14.2378 13.5737 14.4421 13.3693 14.6942 13.3693L19.0692 13.3694L18.4794 12.7792C18.3149 12.6147 18.3022 12.3558 18.4415 12.1767L18.4794 12.1337C18.6303 11.9829 18.8604 11.9597 19.0356 12.0641L19.0819 12.0957ZM11.6329 17.7999L13.0022 19.1693L13.0452 19.2072C13.2243 19.3465 13.4832 19.3338 13.6477 19.1693C13.8123 19.0047 13.8249 18.7458 13.6857 18.5668L13.6477 18.5238L13.0579 17.9337L17.4329 17.9336L17.4861 17.9305C17.6957 17.9062 17.8619 17.74 17.8863 17.5304L17.8893 17.4772L17.8863 17.4239C17.8599 17.1969 17.667 17.0207 17.4329 17.0207L13.0579 17.0208L13.6477 16.4306L13.6857 16.3876C13.8133 16.2234 13.8133 15.9922 13.6857 15.8281L13.6477 15.7851L13.6047 15.7471C13.4406 15.6195 13.2093 15.6195 13.0452 15.7471L13.0022 15.7851L11.6329 17.1544L11.6149 17.1734L11.591 17.2025L11.5659 17.2395L11.5488 17.27L11.5309 17.3098L11.522 17.3344L11.5062 17.3974L11.5 17.4502L11.5 17.5041L11.5062 17.557L11.5155 17.5985L11.5317 17.6465L11.5562 17.6982L11.5888 17.7488L11.6329 17.7999Z"
        fill="#1975FF" />
</svg>