<svg viewBox="0 0 32 32" fill="none" xmlns="http://www.w3.org/2000/svg">
    <g clip-path="url(#prefix__clip0_1150_42849)" fill="currentColor">
        <path
            d="M12.946 15.054a1.34 1.34 0 00-1.894 1.893l4 4a1.333 1.333 0 00.947.387 1.335 1.335 0 00.96-.454l9.333-10.666a1.333 1.333 0 00-2-1.76L16 18.054l-3.053-3z" />
        <path
            d="M27.998 14.667A1.334 1.334 0 0026.665 16a10.667 10.667 0 01-10.667 10.667A10.667 10.667 0 018.438 8.48a10.573 10.573 0 017.56-3.146c.853.005 1.703.103 2.534.293a1.333 1.333 0 10.626-2.587 14.053 14.053 0 00-3.16-.373 13.333 13.333 0 00-9.333 22.787 13.24 13.24 0 009.333 3.88A13.333 13.333 0 0029.332 16a1.334 1.334 0 00-1.334-1.333z" />
    </g>
</svg>