<svg viewBox="0 0 21 20" fill="none" xmlns="http://www.w3.org/2000/svg">
<path fill-rule="evenodd" clip-rule="evenodd" d="M12.4786 6.07736C12.804 6.40279 12.804 6.93043 12.4786 7.25587L9.7345 9.99995L12.4786 12.744C12.804 13.0695 12.804 13.5971 12.4786 13.9225C12.1531 14.248 11.6255 14.248 11.3001 13.9225L7.96673 10.5892C7.6413 10.2638 7.6413 9.73613 7.96673 9.41069L11.3001 6.07736C11.6255 5.75192 12.1531 5.75192 12.4786 6.07736Z" fill="currentColor"/>
<path fill-rule="evenodd" clip-rule="evenodd" d="M10.5004 16.1111C13.8755 16.1111 16.6115 13.375 16.6115 9.99995C16.6115 6.62487 13.8755 3.88883 10.5004 3.88883C7.12536 3.88883 4.38932 6.62487 4.38932 9.99995C4.38932 13.375 7.12536 16.1111 10.5004 16.1111ZM10.5004 17.7777C14.796 17.7777 18.2782 14.2955 18.2782 9.99995C18.2782 5.7044 14.796 2.22217 10.5004 2.22217C6.20489 2.22217 2.72266 5.7044 2.72266 9.99995C2.72266 14.2955 6.20489 17.7777 10.5004 17.7777Z" fill="currentColor"/>
</svg>
