<svg viewBox="0 0 20 20" fill="none" xmlns="http://www.w3.org/2000/svg">
<path fill-rule="evenodd" clip-rule="evenodd" d="M17.7782 10.0004C17.7782 14.296 14.296 17.7782 10.0004 17.7782C5.70489 17.7782 2.22266 14.296 2.22266 10.0004C2.22266 5.70489 5.70489 2.22266 10.0004 2.22266C14.296 2.22266 17.7782 5.70489 17.7782 10.0004ZM16.1115 10.0004C16.1115 13.3755 13.3755 16.1115 10.0004 16.1115C6.62536 16.1115 3.88932 13.3755 3.88932 10.0004C3.88932 6.62536 6.62536 3.88932 10.0004 3.88932C13.3755 3.88932 16.1115 6.62536 16.1115 10.0004Z" fill="currentColor"/>
<path d="M6.24408 12.7373C5.91864 13.0628 5.91864 13.5904 6.24408 13.9158C6.56951 14.2413 7.09715 14.2413 7.42259 13.9158L10.7559 10.5825C11.0809 10.2576 11.0814 9.73088 10.7572 9.40524L7.42383 6.05782C7.09908 5.7317 6.57144 5.73059 6.24532 6.05534C5.9192 6.38009 5.91809 6.90772 6.24284 7.23385L8.9894 9.99201L6.24408 12.7373Z" fill="currentColor"/>
<path d="M9.46673 12.7373C9.1413 13.0628 9.1413 13.5904 9.46673 13.9158C9.79217 14.2413 10.3198 14.2413 10.6452 13.9158L13.9786 10.5825C14.3035 10.2576 14.3041 9.73088 13.9798 9.40524L10.6465 6.05782C10.3217 5.7317 9.7941 5.73059 9.46798 6.05534C9.14186 6.38009 9.14074 6.90772 9.46549 7.23385L12.2121 9.99201L9.46673 12.7373Z" fill="currentColor"/>
</svg>
