<svg viewBox="0 0 24 24" fill="none" xmlns="http://www.w3.org/2000/svg">
    <g clip-path="url(#clip0_1186_29480)">
        <path
            d="M23.3368 20.1598L18.4056 15.2248C18.5518 14.666 18.2293 14.5198 16.7368 13.031L19.6768 7.14727C19.7467 7.00703 19.7709 6.84843 19.746 6.69374C19.7211 6.53905 19.6484 6.39603 19.5381 6.28477L17.5693 4.31227C17.7016 3.97319 17.7323 3.60293 17.6578 3.24668C17.5832 2.89043 17.4065 2.56358 17.1493 2.30602L15.8218 0.978524C15.6813 0.838836 15.4912 0.76043 15.2931 0.76043C15.095 0.76043 14.9049 0.838836 14.7643 0.978524L0.975595 14.7673C0.835906 14.9078 0.7575 15.0979 0.7575 15.296C0.7575 15.4942 0.835906 15.6843 0.975595 15.8248L2.30309 17.1523C2.56065 17.4095 2.8875 17.5861 3.24375 17.6607C3.6 17.7353 3.97026 17.7045 4.30934 17.5723L6.28184 19.541C6.3931 19.6513 6.53612 19.7241 6.69081 19.7489C6.8455 19.7738 7.0041 19.7496 7.14434 19.6798L13.0281 16.7398L14.5018 18.2135C14.5944 18.306 14.7096 18.3727 14.8359 18.4069C14.9622 18.4411 15.0953 18.4417 15.2218 18.4085C20.4231 23.6248 20.3256 23.5348 20.5543 23.6548C21.0226 23.9431 21.5802 24.0499 22.1219 23.9551C22.6636 23.8603 23.1517 23.5704 23.4942 23.1402C23.8367 22.71 24.0098 22.1693 23.9808 21.6201C23.9518 21.071 23.7228 20.5515 23.3368 20.1598ZM3.37184 16.0948L2.56559 15.296L15.2931 2.56852L16.0918 3.37477C16.127 3.40964 16.1549 3.45111 16.1739 3.49681C16.193 3.54251 16.2028 3.59152 16.2028 3.64102C16.2028 3.69053 16.193 3.73954 16.1739 3.78524C16.1549 3.83094 16.127 3.87241 16.0918 3.90727L3.89309 16.0948C3.82317 16.1624 3.72972 16.2001 3.63247 16.2001C3.53522 16.2001 3.44177 16.1624 3.37184 16.0948ZM13.7031 15.2998C13.5923 15.1888 13.4495 15.1154 13.2948 15.0899C13.14 15.0643 12.9812 15.0879 12.8406 15.1573L6.95684 18.0973L5.48309 16.6235L16.6206 5.48602L18.0943 6.95977L15.1543 12.8435C15.085 12.9841 15.0614 13.143 15.0869 13.2977C15.1125 13.4524 15.1859 13.5952 15.2968 13.706L16.6206 15.0335L15.0306 16.6235L13.7031 15.2998ZM21.2931 22.346C21.1018 22.1773 19.9056 20.9735 16.3543 17.4223L17.4156 16.3573L22.2906 21.2323C22.4204 21.3689 22.494 21.5494 22.4968 21.7378C22.4996 21.9263 22.4313 22.1089 22.3056 22.2493C22.1799 22.3897 22.0059 22.4776 21.8182 22.4955C21.6306 22.5134 21.4431 22.4601 21.2931 22.346ZM5.46809 6.52852C5.61157 6.65139 5.79613 6.7156 5.98488 6.70831C6.17364 6.70102 6.3527 6.62277 6.48627 6.4892C6.61984 6.35563 6.69809 6.17657 6.70538 5.98781C6.71267 5.79906 6.64846 5.6145 6.52559 5.47102L1.27559 0.221024C1.13507 0.081336 0.944984 0.00292969 0.746845 0.00292969C0.548705 0.00292969 0.358616 0.081336 0.218094 0.221024C0.0784063 0.361546 0 0.551635 0 0.749774C0 0.947914 0.0784063 1.138 0.218094 1.27852L5.46809 6.52852ZM8.46809 3.90352C8.61157 4.02639 8.79613 4.0906 8.98488 4.08331C9.17364 4.07602 9.3527 3.99777 9.48627 3.8642C9.61984 3.73063 9.69809 3.55157 9.70538 3.36281C9.71267 3.17406 9.64846 2.9895 9.52559 2.84602L7.27559 0.596024C7.13212 0.473154 6.94756 0.40895 6.7588 0.416241C6.57005 0.423532 6.39099 0.501781 6.25742 0.635352C6.12385 0.768923 6.0456 0.947977 6.03831 1.13673C6.03102 1.32549 6.09522 1.51005 6.21809 1.65352L8.46809 3.90352ZM0.593095 6.22102C0.453406 6.36155 0.375 6.55163 0.375 6.74977C0.375 6.94791 0.453406 7.138 0.593095 7.27852L2.84309 9.52852C2.98657 9.65139 3.17113 9.7156 3.35988 9.70831C3.54864 9.70102 3.7277 9.62277 3.86127 9.4892C3.99484 9.35563 4.07309 9.17657 4.08038 8.98781C4.08767 8.79906 4.02346 8.6145 3.90059 8.47102L1.65059 6.22102C1.51007 6.08134 1.31998 6.00293 1.12184 6.00293C0.923705 6.00293 0.733616 6.08134 0.593095 6.22102ZM11.8431 2.02852C11.9103 2.10704 11.9931 2.1708 12.0861 2.21582C12.1792 2.26084 12.2805 2.28613 12.3838 2.29012C12.4871 2.29411 12.5901 2.27671 12.6863 2.239C12.7826 2.2013 12.87 2.1441 12.9431 2.07101C13.0162 1.99792 13.0734 1.91051 13.1111 1.81427C13.1488 1.71802 13.1662 1.61502 13.1622 1.51173C13.1582 1.40844 13.1329 1.3071 13.0879 1.21405C13.0429 1.121 12.9791 1.03826 12.9006 0.971024L12.1506 0.221024C12.0101 0.081336 11.82 0.00292969 11.6218 0.00292969C11.4237 0.00292969 11.2336 0.081336 11.0931 0.221024C10.9534 0.361546 10.875 0.551635 10.875 0.749774C10.875 0.947914 10.9534 1.138 11.0931 1.27852L11.8431 2.02852ZM1.49684 13.1248C1.64472 13.1242 1.78912 13.0798 1.91187 12.9974C2.03463 12.9149 2.13028 12.798 2.18678 12.6614C2.24329 12.5247 2.25814 12.3744 2.22946 12.2293C2.20078 12.0843 2.12985 11.9509 2.02559 11.846L1.27559 11.096C1.13507 10.9563 0.944984 10.8779 0.746845 10.8779C0.548705 10.8779 0.358616 10.9563 0.218094 11.096C0.0784063 11.2365 0 11.4266 0 11.6248C0 11.8229 0.0784063 12.013 0.218094 12.1535C1.02059 12.9598 1.12184 13.1248 1.49684 13.1248Z"
            fill="currentColor" />
    </g>

</svg>