<svg viewBox="0 0 32 32" fill="none" xmlns="http://www.w3.org/2000/svg">
    <g clip-path="url(#clip0_1150_42849)">
        <path
            d="M12.9495 15.0536C12.6984 14.8026 12.3579 14.6615 12.0029 14.6615C11.6478 14.6615 11.3073 14.8026 11.0562 15.0536C10.8051 15.3047 10.6641 15.6452 10.6641 16.0003C10.6641 16.3554 10.8051 16.6959 11.0562 16.947L15.0562 20.947C15.1808 21.0706 15.3285 21.1683 15.491 21.2347C15.6534 21.301 15.8274 21.3347 16.0029 21.3337C16.1854 21.3279 16.3648 21.2846 16.5299 21.2067C16.6951 21.1287 16.8424 21.0176 16.9629 20.8803L26.2962 10.2136C26.5117 9.94609 26.6156 9.60566 26.5862 9.26336C26.5569 8.92106 26.3965 8.60329 26.1386 8.37633C25.8807 8.14936 25.5451 8.03071 25.2019 8.04512C24.8586 8.05952 24.5342 8.20587 24.2962 8.45365L16.0029 18.0536L12.9495 15.0536Z"
            fill="currentColor" />
        <path
            d="M27.9984 14.667C27.6448 14.667 27.3057 14.8075 27.0556 15.0575C26.8056 15.3076 26.6651 15.6467 26.6651 16.0003C26.6651 18.8293 25.5413 21.5424 23.5409 23.5428C21.5405 25.5432 18.8274 26.667 15.9984 26.667C13.8919 26.666 11.8328 26.0413 10.0808 24.8717C8.3288 23.7021 6.96235 22.0399 6.15376 20.0947C5.34517 18.1495 5.13064 16.0085 5.53723 13.9415C5.94383 11.8746 6.95333 9.97431 8.43845 8.48033C9.42605 7.4795 10.6034 6.68571 11.9015 6.14541C13.1996 5.60511 14.5924 5.32914 15.9984 5.33366C16.851 5.339 17.7005 5.43736 18.5318 5.62699C18.7057 5.6808 18.8889 5.6984 19.0699 5.67872C19.2509 5.65904 19.426 5.60249 19.5843 5.51256C19.7426 5.42263 19.8809 5.30122 19.9905 5.15582C20.1001 5.01042 20.1788 4.84411 20.2216 4.66714C20.2645 4.49018 20.2707 4.3063 20.2398 4.12686C20.2089 3.94741 20.1415 3.7762 20.0419 3.62378C19.9423 3.47136 19.8125 3.34095 19.6606 3.24061C19.5086 3.14026 19.3377 3.0721 19.1584 3.04033C18.1226 2.79665 17.0625 2.6714 15.9984 2.66699C13.3642 2.68068 10.7931 3.47435 8.60951 4.94786C6.42592 6.42137 4.72774 8.50868 3.72927 10.9464C2.7308 13.3841 2.47679 16.0629 2.9993 18.6448C3.5218 21.2267 4.7974 23.596 6.66511 25.4537C9.1407 27.9304 12.4967 29.3255 15.9984 29.3337C19.5347 29.3337 22.9261 27.9289 25.4265 25.4284C27.927 22.9279 29.3318 19.5365 29.3318 16.0003C29.3318 15.6467 29.1913 15.3076 28.9413 15.0575C28.6912 14.8075 28.3521 14.667 27.9984 14.667Z"
            fill="currentColor" />
    </g>
</svg>