<svg viewBox="0 0 48 48" fill="none" xmlns="http://www.w3.org/2000/svg">
    <rect width="48" height="48" rx="24" fill="#4CC3C7" fill-opacity="0.1" />
    <g clip-path="url(#clip0_1158_29479)">
        <path
            d="M20.6346 11.3842C20.7335 11.3842 20.8301 11.3549 20.9124 11.2999C20.9946 11.245 21.0586 11.1669 21.0965 11.0755C21.1343 10.9842 21.1442 10.8837 21.1249 10.7867C21.1056 10.6897 21.058 10.6006 20.9881 10.5307L20.065 9.60759C19.9713 9.51383 19.8441 9.46116 19.7115 9.46116C19.5789 9.46116 19.4518 9.51384 19.358 9.6076C19.2642 9.70136 19.2116 9.82852 19.2116 9.96112C19.2116 10.0937 19.2642 10.2209 19.358 10.3146L20.2811 11.2377C20.3275 11.2842 20.3826 11.3211 20.4432 11.3463C20.5039 11.3714 20.5689 11.3843 20.6346 11.3842ZM18.2494 12.9997C18.2796 12.9997 18.3097 12.997 18.3394 12.9917L19.4676 12.7866C19.598 12.7628 19.7136 12.6882 19.789 12.5791C19.8644 12.4701 19.8935 12.3356 19.8697 12.2052C19.846 12.0748 19.7715 11.9592 19.6625 11.8837C19.5536 11.8082 19.4191 11.7791 19.2887 11.8027L18.1605 12.0078C18.0377 12.0301 17.9278 12.0975 17.8522 12.1968C17.7766 12.2961 17.7408 12.4201 17.752 12.5443C17.7631 12.6686 17.8203 12.7842 17.9123 12.8685C18.0044 12.9528 18.1246 12.9996 18.2494 12.9997ZM22.0455 10.1279C22.1625 10.1277 22.2757 10.0865 22.3655 10.0115C22.4553 9.93644 22.5159 9.83231 22.5368 9.71721L22.7419 8.58903C22.754 8.52427 22.7532 8.45776 22.7396 8.39331C22.7259 8.32886 22.6996 8.26775 22.6622 8.21348C22.6249 8.15922 22.5772 8.11288 22.5218 8.07712C22.4665 8.04136 22.4046 8.01689 22.3398 8.00512C22.275 7.99335 22.2085 7.9945 22.1441 8.00851C22.0797 8.02253 22.0187 8.04913 21.9647 8.08678C21.9106 8.12444 21.8645 8.1724 21.8291 8.22793C21.7936 8.28345 21.7695 8.34544 21.758 8.41032L21.5529 9.5385C21.5412 9.6031 21.5423 9.66938 21.5562 9.73355C21.57 9.79773 21.5964 9.85854 21.6338 9.91253C21.6711 9.96651 21.7188 10.0126 21.774 10.0482C21.8292 10.0837 21.8908 10.1081 21.9554 10.1198C21.9851 10.1253 22.0153 10.1279 22.0455 10.1279ZM36.469 36.7619C36.3751 36.6685 36.2481 36.616 36.1156 36.6162C35.9832 36.6163 35.8562 36.669 35.7626 36.7626C35.669 36.8562 35.6163 36.9832 35.6162 37.1156C35.616 37.2481 35.6685 37.3751 35.7619 37.469L36.685 38.3921C36.7799 38.4838 36.9066 38.535 37.0385 38.535C37.1705 38.535 37.2972 38.4838 37.3921 38.3921C37.4385 38.3456 37.4753 38.2905 37.5005 38.2299C37.5256 38.1692 37.5385 38.1042 37.5385 38.0385C37.5385 37.9729 37.5256 37.9079 37.5005 37.8472C37.4753 37.7865 37.4385 37.7314 37.3921 37.685L36.469 36.7619ZM38.4106 35.008L37.2824 35.2131C37.1597 35.2354 37.0497 35.3028 36.9741 35.4021C36.8984 35.5014 36.8627 35.6253 36.8738 35.7496C36.885 35.8739 36.9422 35.9896 37.0342 36.0738C37.1263 36.1581 37.2465 36.2049 37.3713 36.205C37.4014 36.205 37.4315 36.2023 37.4612 36.1969L38.5893 35.9919C38.6542 35.9804 38.7162 35.9563 38.7717 35.9208C38.8272 35.8854 38.8752 35.8393 38.9129 35.7852C38.9505 35.7312 38.9771 35.6702 38.9911 35.6058C39.0052 35.5414 39.0063 35.4749 38.9945 35.4101C38.9828 35.3453 38.9583 35.2834 38.9225 35.2281C38.8868 35.1727 38.8404 35.125 38.7862 35.0877C38.7319 35.0503 38.6708 35.024 38.6063 35.0103C38.5419 34.9967 38.4754 34.9959 38.4106 35.008ZM34.7944 37.8798C34.7298 37.868 34.6635 37.8689 34.5992 37.8828C34.535 37.8966 34.4741 37.923 34.4201 37.9604C34.3661 37.9978 34.32 38.0455 34.2845 38.1008C34.249 38.156 34.2247 38.2178 34.2131 38.2824L34.008 39.4106C33.9963 39.4752 33.9974 39.5415 34.0113 39.6057C34.0251 39.6699 34.0515 39.7307 34.0889 39.7847C34.1263 39.8386 34.1739 39.8847 34.2291 39.9203C34.2843 39.9559 34.346 39.9802 34.4106 39.9919C34.4403 39.9972 34.4703 39.9999 34.5005 40C34.6175 39.9998 34.7307 39.9586 34.8205 39.8836C34.9103 39.8086 34.971 39.7045 34.9919 39.5893L35.197 38.4612C35.2087 38.3965 35.2076 38.3303 35.1938 38.2661C35.1799 38.2019 35.1535 38.1411 35.1161 38.0871C35.0787 38.0331 35.0311 37.987 34.9759 37.9515C34.9207 37.9159 34.859 37.8916 34.7944 37.8798ZM16.955 36.5425C17.035 36.55 18.4075 36.51 18.43 36.5125C18.6005 36.5989 18.7622 36.7019 18.9125 36.82C19.2599 37.0926 19.6502 37.3055 20.0675 37.45C20.1611 37.4767 20.2577 37.491 20.355 37.4925L32.0525 37.495C32.7794 37.4797 33.4706 37.1769 33.9748 36.6531C34.4789 36.1292 34.755 35.4269 34.7425 34.7C34.7428 34.2889 34.6559 33.8825 34.4875 33.5075C34.8886 33.2503 35.2181 32.8959 35.4454 32.4771C35.6727 32.0584 35.7904 31.5889 35.7875 31.1125C35.789 30.6507 35.6792 30.1954 35.4675 29.785C35.8138 29.5197 36.094 29.1779 36.2862 28.7862C36.4783 28.3946 36.5772 27.9637 36.575 27.5275C36.5766 27.0464 36.4571 26.5727 36.2275 26.15C36.5491 25.8832 36.8077 25.5484 36.9845 25.1697C37.1612 24.791 37.2519 24.3779 37.25 23.96C37.25 22.465 36.2675 21.5 34.75 21.5H27.3225C27.72 19.84 28.12 17.4375 28.065 16.8675C27.93 15.5025 27.6175 12.31 25.605 11.32C25.2767 11.1461 24.9157 11.0425 24.5451 11.0158C24.1745 10.9891 23.8024 11.0399 23.4525 11.165C23.1119 11.2979 22.7984 11.4919 22.5275 11.7375C21.45 12.7025 21.5075 14.0125 21.5575 15.0625C21.565 15.2775 21.575 15.4775 21.575 15.6675V16.7775C21.46 17.545 18.3025 23.07 18.1875 23.28C17.95 23.42 17.49 23.665 17 23.92V23.8475C16.9921 23.3508 16.7878 22.8775 16.4317 22.5312C16.0755 22.1849 15.5967 21.9939 15.1 22H10.9C10.4033 21.9939 9.92447 22.1849 9.56834 22.5312C9.21222 22.8775 9.00785 23.3508 9 23.8475V36.15C9.00732 36.647 9.21144 37.1209 9.56761 37.4677C9.92377 37.8145 10.4029 38.0059 10.9 38H15.1C15.5287 38.0036 15.9459 37.8613 16.283 37.5964C16.6201 37.3316 16.8571 36.9599 16.955 36.5425ZM17 25.0425C17.57 24.7525 18.9275 24.0525 18.9675 23.955C19.1825 23.44 22.575 17.895 22.575 16.8025V15.6675C22.575 14.5475 22.3 13.2825 23.19 12.485C23.4809 12.2049 23.8599 12.0344 24.2625 12.0025C24.5755 11.9973 24.8849 12.0703 25.1625 12.215C26.6025 12.925 26.925 15.49 27.0675 16.9625C27.145 17.75 26.2025 22.2025 26 22.5H34.75C35.6875 22.5 36.25 22.9675 36.25 23.96C36.2534 24.2654 36.1796 24.5667 36.0354 24.836C35.8911 25.1052 35.6812 25.3336 35.425 25.5H32C31.8674 25.5 31.7402 25.5527 31.6464 25.6464C31.5527 25.7402 31.5 25.8674 31.5 26C31.5 26.1326 31.5527 26.2598 31.6464 26.3535C31.7402 26.4473 31.8674 26.5 32 26.5H35.2675C35.4689 26.8048 35.5758 27.1622 35.575 27.5275C35.5774 27.8127 35.5128 28.0945 35.3864 28.3503C35.2601 28.606 35.0755 28.8286 34.8475 29H32C31.8674 29 31.7402 29.0527 31.6464 29.1464C31.5527 29.2402 31.5 29.3674 31.5 29.5C31.5 29.6326 31.5527 29.7598 31.6464 29.8535C31.7402 29.9473 31.8674 30 32 30H34.4225C34.6608 30.3218 34.7888 30.712 34.7875 31.1125C34.7924 31.4526 34.7009 31.7872 34.5235 32.0775C34.346 32.3677 34.09 32.6018 33.785 32.7525C33.7725 32.7525 33.7625 32.75 33.75 32.75H32C31.8674 32.75 31.7402 32.8027 31.6464 32.8964C31.5527 32.9902 31.5 33.1174 31.5 33.25C31.5 33.3826 31.5527 33.5098 31.6464 33.6035C31.7402 33.6973 31.8674 33.75 32 33.75H33.485C33.6545 34.0378 33.7434 34.366 33.7425 34.7C33.7494 34.9288 33.7112 35.1568 33.63 35.3708C33.5488 35.5849 33.4263 35.7809 33.2693 35.9476C33.1124 36.1142 32.9241 36.2484 32.7154 36.3423C32.5066 36.4362 32.2813 36.4881 32.0525 36.495L20.355 36.4925C19.7675 36.315 19.3325 35.7925 18.77 35.57C18.6144 35.5192 18.4509 35.4972 18.2875 35.505C17.9475 35.505 17.065 35.55 17 35.545V25.0425ZM13 35.5C12.7033 35.5 12.4133 35.412 12.1666 35.2472C11.92 35.0824 11.7277 34.8481 11.6142 34.574C11.5006 34.2999 11.4709 33.9983 11.5288 33.7073C11.5867 33.4164 11.7296 33.1491 11.9393 32.9393C12.1491 32.7295 12.4164 32.5867 12.7074 32.5288C12.9983 32.4709 13.2999 32.5006 13.574 32.6142C13.8481 32.7277 14.0824 32.92 14.2472 33.1666C14.412 33.4133 14.5 33.7033 14.5 34C14.4997 34.3977 14.3415 34.7791 14.0603 35.0603C13.7791 35.3415 13.3977 35.4997 13 35.5Z"
            fill="#4CC3C7" />
    </g>
    <defs>
        <clipPath id="clip0_1158_29479">
            <rect width="32" height="32" fill="white" transform="translate(8 8)" />
        </clipPath>
    </defs>
</svg>