<svg  viewBox="0 0 336 211" fill="none" xmlns="http://www.w3.org/2000/svg">
<g opacity="0.5">
<line y1="0.667712" x2="335.944" y2="0.667712" stroke="currentColor" stroke-opacity="0.2" stroke-width="0.664577"/>
<line y1="5.31975" x2="335.944" y2="5.31975" stroke="currentColor" stroke-opacity="0.2" stroke-width="0.664577"/>
<line y1="9.97179" x2="335.944" y2="9.97179" stroke="currentColor" stroke-opacity="0.2" stroke-width="0.664577"/>
<line y1="14.6238" x2="335.944" y2="14.6238" stroke="currentColor" stroke-opacity="0.2" stroke-width="0.664577"/>
<line y1="19.2759" x2="335.944" y2="19.2759" stroke="currentColor" stroke-opacity="0.2" stroke-width="0.664577"/>
<line y1="23.9279" x2="335.944" y2="23.9279" stroke="currentColor" stroke-opacity="0.2" stroke-width="0.664577"/>
<line y1="28.5799" x2="335.944" y2="28.5799" stroke="currentColor" stroke-opacity="0.2" stroke-width="0.664577"/>
<line y1="33.232" x2="335.944" y2="33.232" stroke="currentColor" stroke-opacity="0.2" stroke-width="0.664577"/>
<line y1="37.884" x2="335.944" y2="37.884" stroke="currentColor" stroke-opacity="0.2" stroke-width="0.664577"/>
<line y1="42.5361" x2="335.944" y2="42.5361" stroke="currentColor" stroke-opacity="0.2" stroke-width="0.664577"/>
<line y1="47.1881" x2="335.944" y2="47.1881" stroke="currentColor" stroke-opacity="0.2" stroke-width="0.664577"/>
<line y1="51.8401" x2="335.944" y2="51.8401" stroke="currentColor" stroke-opacity="0.2" stroke-width="0.664577"/>
<line y1="56.4922" x2="335.944" y2="56.4922" stroke="currentColor" stroke-opacity="0.2" stroke-width="0.664577"/>
<line y1="61.1442" x2="335.944" y2="61.1442" stroke="currentColor" stroke-opacity="0.2" stroke-width="0.664577"/>
<line y1="65.7963" x2="335.944" y2="65.7962" stroke="currentColor" stroke-opacity="0.2" stroke-width="0.664577"/>
<line y1="70.4483" x2="335.944" y2="70.4483" stroke="currentColor" stroke-opacity="0.2" stroke-width="0.664577"/>
<line y1="75.1003" x2="335.944" y2="75.1003" stroke="currentColor" stroke-opacity="0.2" stroke-width="0.664577"/>
<line y1="79.7524" x2="335.944" y2="79.7524" stroke="currentColor" stroke-opacity="0.2" stroke-width="0.664577"/>
<line y1="84.4044" x2="335.944" y2="84.4044" stroke="currentColor" stroke-opacity="0.2" stroke-width="0.664577"/>
<line y1="89.0564" x2="335.944" y2="89.0564" stroke="currentColor" stroke-opacity="0.2" stroke-width="0.664577"/>
<line y1="93.7085" x2="335.944" y2="93.7085" stroke="currentColor" stroke-opacity="0.2" stroke-width="0.664577"/>
<line y1="98.3605" x2="335.944" y2="98.3605" stroke="currentColor" stroke-opacity="0.2" stroke-width="0.664577"/>
<line y1="103.013" x2="335.944" y2="103.013" stroke="currentColor" stroke-opacity="0.2" stroke-width="0.664577"/>
<line y1="107.665" x2="335.944" y2="107.665" stroke="currentColor" stroke-opacity="0.2" stroke-width="0.664577"/>
<line y1="112.317" x2="335.944" y2="112.317" stroke="currentColor" stroke-opacity="0.2" stroke-width="0.664577"/>
<line y1="116.969" x2="335.944" y2="116.969" stroke="currentColor" stroke-opacity="0.2" stroke-width="0.664577"/>
<line y1="121.621" x2="335.944" y2="121.621" stroke="currentColor" stroke-opacity="0.2" stroke-width="0.664577"/>
<line y1="126.273" x2="335.944" y2="126.273" stroke="currentColor" stroke-opacity="0.2" stroke-width="0.664577"/>
<line y1="130.925" x2="335.944" y2="130.925" stroke="currentColor" stroke-opacity="0.2" stroke-width="0.664577"/>
<line y1="135.577" x2="335.944" y2="135.577" stroke="currentColor" stroke-opacity="0.2" stroke-width="0.664577"/>
<line y1="140.229" x2="335.944" y2="140.229" stroke="currentColor" stroke-opacity="0.2" stroke-width="0.664577"/>
<line y1="144.881" x2="335.944" y2="144.881" stroke="currentColor" stroke-opacity="0.2" stroke-width="0.664577"/>
<line y1="149.533" x2="335.944" y2="149.533" stroke="currentColor" stroke-opacity="0.2" stroke-width="0.664577"/>
<line y1="154.185" x2="335.944" y2="154.185" stroke="currentColor" stroke-opacity="0.2" stroke-width="0.664577"/>
<line y1="158.837" x2="335.944" y2="158.837" stroke="currentColor" stroke-opacity="0.2" stroke-width="0.664577"/>
<line y1="163.489" x2="335.944" y2="163.489" stroke="currentColor" stroke-opacity="0.2" stroke-width="0.664577"/>
<line y1="168.141" x2="335.944" y2="168.141" stroke="currentColor" stroke-opacity="0.2" stroke-width="0.664577"/>
<line y1="172.793" x2="335.944" y2="172.793" stroke="currentColor" stroke-opacity="0.2" stroke-width="0.664577"/>
<line y1="177.445" x2="335.944" y2="177.445" stroke="currentColor" stroke-opacity="0.2" stroke-width="0.664577"/>
<line y1="182.097" x2="335.944" y2="182.097" stroke="currentColor" stroke-opacity="0.2" stroke-width="0.664577"/>
<line y1="186.749" x2="335.944" y2="186.749" stroke="currentColor" stroke-opacity="0.2" stroke-width="0.664577"/>
<line y1="191.401" x2="335.944" y2="191.401" stroke="currentColor" stroke-opacity="0.2" stroke-width="0.664577"/>
<line y1="196.053" x2="335.944" y2="196.053" stroke="currentColor" stroke-opacity="0.2" stroke-width="0.664577"/>
<line y1="200.705" x2="335.944" y2="200.705" stroke="currentColor" stroke-opacity="0.2" stroke-width="0.664577"/>
<line y1="205.357" x2="335.944" y2="205.357" stroke="currentColor" stroke-opacity="0.2" stroke-width="0.664577"/>
<line y1="210.009" x2="335.944" y2="210.009" stroke="currentColor" stroke-opacity="0.2" stroke-width="0.664577"/>
</g>
</svg>
