<svg viewBox="0 0 24 24" fill="none" xmlns="http://www.w3.org/2000/svg">
<path d="M12 22C7.17 22 3.25 18.08 3.25 13.25C3.25 8.42 7.17 4.5 12 4.5C16.83 4.5 20.75 8.42 20.75 13.25" stroke="currentColor" stroke-width="1.5" stroke-linecap="round" stroke-linejoin="round"/>
<path d="M12 8V13" stroke="currentColor" stroke-width="1.5" stroke-linecap="round" stroke-linejoin="round"/>
<path d="M9 2H15" stroke="currentColor" stroke-width="1.5" stroke-miterlimit="10" stroke-linecap="round" stroke-linejoin="round"/>
<path d="M20.4939 16.7315L20.1957 17.8255H14.5L14.7982 16.7315H20.4939ZM17.7373 23.5L14.6765 19.8345L14.6704 18.9135H16.1247C16.502 18.9135 16.8124 18.8455 17.0558 18.7095C17.3032 18.5694 17.4878 18.3819 17.6095 18.147C17.7312 17.908 17.7921 17.6422 17.7921 17.3496C17.7921 17.0323 17.7353 16.7521 17.6217 16.5089C17.5081 16.2658 17.3276 16.0762 17.0801 15.9402C16.8327 15.8043 16.5061 15.7363 16.1004 15.7363H14.5061L14.8347 14.5H16.1004C16.8185 14.5 17.4148 14.6092 17.8895 14.8276C18.3641 15.046 18.7191 15.3633 18.9544 15.7795C19.1937 16.1957 19.3134 16.6985 19.3134 17.2878C19.3134 17.8029 19.2262 18.2582 19.0517 18.6538C18.8773 19.0453 18.5953 19.3626 18.2059 19.6058C17.8164 19.8448 17.2992 19.9931 16.6542 20.0508L19.4533 23.4196V23.5H17.7373ZM20.5 14.5L20.1957 15.5941H15.5406L15.8387 14.5H20.5Z" fill="#101828"/>
</svg>
