<svg viewBox="0 0 10 10" fill="none" xmlns="http://www.w3.org/2000/svg">
    <path fill-rule="evenodd" clip-rule="evenodd"
        d="M0.146598 7.92462C-0.0486648 8.11988 -0.0486648 8.43647 0.146598 8.63173L0.853705 9.33883C1.04897 9.5341 1.36555 9.5341 1.56081 9.33883L4.74226 6.15738L7.92462 9.33974C8.11988 9.535 8.43647 9.535 8.63173 9.33974L9.33883 8.63263C9.5341 8.43737 9.5341 8.12079 9.33883 7.92553L6.15648 4.74317L9.33899 1.56066C9.53425 1.3654 9.53425 1.04882 9.33899 0.853554L8.63188 0.146447C8.43662 -0.0488158 8.12003 -0.0488153 7.92477 0.146447L4.74226 3.32896L1.56066 0.147353C1.3654 -0.0479093 1.04882 -0.0479093 0.853553 0.147353L0.146446 0.85446C-0.0488155 1.04972 -0.0488155 1.3663 0.146446 1.56157L3.32805 4.74317L0.146598 7.92462Z"
        fill="currentColor" />
</svg>