<svg  viewBox="0 0 20 20" fill="none" xmlns="http://www.w3.org/2000/svg">
<ellipse cx="8.33333" cy="14.5827" rx="5.83333" ry="2.91667" stroke="#7D8FB3" stroke-width="1.5" stroke-linejoin="round"/>
<circle cx="8.33333" cy="5.83333" r="3.33333" stroke="#7D8FB3" stroke-width="1.5" stroke-linejoin="round"/>
<path fill-rule="evenodd" clip-rule="evenodd" d="M12.6167 8.41292C12.3089 8.92293 11.9127 9.37354 11.4492 9.74346C11.7786 9.85583 12.1318 9.9168 12.4992 9.9168C14.2941 9.9168 15.7492 8.46173 15.7492 6.6668C15.7492 4.94427 14.4091 3.53473 12.7146 3.42383C12.9961 3.9346 13.1908 4.49985 13.2791 5.09975C13.8541 5.38651 14.2492 5.98052 14.2492 6.6668C14.2492 7.59382 13.5284 8.35249 12.6167 8.41292Z" fill="#7D8FB3"/>
<path fill-rule="evenodd" clip-rule="evenodd" d="M15.3239 16.2473C15.6527 15.7316 15.8331 15.1707 15.8331 14.584C15.8331 14.5543 15.8326 14.5246 15.8317 14.4951C16.1841 14.3397 16.43 14.1755 16.5805 14.0273C16.7401 13.87 16.7497 13.777 16.7497 13.7506C16.7497 13.7243 16.7401 13.6312 16.5805 13.474C16.4182 13.3142 16.145 13.1357 15.7468 12.9698C15.5895 12.9043 15.4183 12.843 15.2346 12.7869C14.716 12.044 13.8855 11.4018 12.8438 10.9219C14.1671 10.9572 15.3877 11.1952 16.3237 11.5852C16.8304 11.7963 17.2894 12.0668 17.6332 12.4054C17.9796 12.7467 18.2497 13.2017 18.2497 13.7506C18.2497 14.2995 17.9796 14.7546 17.6332 15.0959C17.2894 15.4345 16.8304 15.705 16.3237 15.9161C16.0186 16.0432 15.6833 16.1542 15.3239 16.2473Z" fill="#7D8FB3"/>
</svg>
