<svg viewBox="0 0 24 24" fill="none" xmlns="http://www.w3.org/2000/svg">
    <path d="M24.0019 0V23.982H5.33594V21.3181H21.3362V0H24.0019Z" fill="#020122" />
    <path
        d="M13.3329 10.6602H2.6668V2.66392H13.3329V0H0V2.66392H0.00056321V10.6602H0V13.3241H0.00056321V24H2.6668V13.3241H13.3329V10.6602Z"
        fill="#020122" />
    <path d="M18.6688 15.9877V7.99204V5.32812H5.33594V7.99204H16.0026V15.9877H5.33594V18.6522H18.6688V15.9877Z"
        fill="#4CC3C7" />
    <path
        d="M17.3331 2.66448C18.0694 2.66448 18.6662 2.06801 18.6662 1.33224C18.6662 0.596464 18.0694 0 17.3331 0C16.5969 0 16 0.596464 16 1.33224C16 2.06801 16.5969 2.66448 17.3331 2.66448Z"
        fill="#4CC3C7" />
</svg>