<svg viewBox="0 0 149 33" fill="none" xmlns="http://www.w3.org/2000/svg">
    <g clip-path="url(#clip0_4260_17700)">
        <path d="M32.9777 0.000976562V32.9762H7.33008V29.3133H29.3149V0.000976562H32.9777Z" fill="white" />
        <path
            d="M18.3198 14.6577H3.66427V3.66288H18.3198V0H0V3.66288H0.000773869V14.6577H0V18.3206H0.000773869V33H3.66427V18.3206H18.3198V14.6577Z"
            fill="white" />
        <path d="M25.6479 21.9851V10.991V7.32812H7.32812V10.991H21.9844V21.9851H7.32812V25.6487H25.6479V21.9851Z"
            fill="#4CC3C7" />
        <path
            d="M23.8181 3.66366C24.8297 3.66366 25.6498 2.84352 25.6498 1.83183C25.6498 0.820138 24.8297 0 23.8181 0C22.8064 0 21.9863 0.820138 21.9863 1.83183C21.9863 2.84352 22.8064 3.66366 23.8181 3.66366Z"
            fill="#4CC3C7" />
        <path d="M63.366 9.8457H59.9609V23.3209H63.366V9.8457Z" fill="white" />
        <path
            d="M61.6873 4.25195C61.0883 4.25195 60.5884 4.44311 60.1921 4.82309C59.9982 5.00517 59.8449 5.22612 59.7423 5.4715C59.6396 5.71687 59.5898 5.98115 59.5963 6.24707C59.5898 6.51265 59.6396 6.77659 59.7423 7.02159C59.8449 7.2666 59.9983 7.48713 60.1921 7.66873C60.5884 8.05104 61.0883 8.24065 61.6873 8.24065C62.2862 8.24065 62.7854 8.05104 63.1831 7.66873C63.3769 7.48709 63.5301 7.26653 63.6327 7.02153C63.7352 6.77652 63.7848 6.5126 63.7783 6.24707C63.7848 5.98121 63.7352 5.71694 63.6327 5.47156C63.5301 5.22618 63.3769 5.00521 63.1831 4.82309C62.7854 4.44337 62.2867 4.25298 61.6873 4.25195Z"
            fill="white" />
        <path
            d="M76.6218 9.6517C75.8205 9.64276 75.0274 9.81276 74.3002 10.1493C73.6196 10.4628 73.0235 10.934 72.5613 11.5238V9.84518H69.1562V23.3173H72.5613V15.8739C72.5613 14.8044 72.8329 13.9817 73.3762 13.4059C73.9194 12.8301 74.6613 12.5422 75.6018 12.5422C76.5258 12.5422 77.2553 12.8301 77.7903 13.4059C78.3253 13.9817 78.5928 14.8044 78.5928 15.8739V23.3173H81.9978V15.415C81.9978 13.6004 81.5033 12.1857 80.5143 11.1709C79.5253 10.156 78.2278 9.64964 76.6218 9.6517Z"
            fill="white" />
        <path
            d="M95.1296 9.65171C94.3283 9.64269 93.5351 9.81269 92.808 10.1493C92.1272 10.4626 91.5311 10.9338 91.0691 11.5238V9.84518H87.6641V23.3173H91.0691V15.8739C91.0691 14.8044 91.3404 13.9817 91.8832 13.4059C92.4259 12.8301 93.1681 12.5422 94.1096 12.5422C95.0336 12.5422 95.7631 12.8301 96.2981 13.4059C96.8331 13.9817 97.1006 14.8044 97.1006 15.8739V23.3173H100.506V15.415C100.506 13.6004 100.011 12.1857 99.0221 11.1709C98.0331 10.156 96.7356 9.64964 95.1296 9.65171Z"
            fill="white" />
        <path
            d="M115.778 10.4906C114.724 9.91588 113.549 9.62799 112.252 9.62696C110.955 9.62592 109.779 9.91381 108.725 10.4906C107.682 11.0565 106.819 11.9031 106.232 12.9346C105.624 13.9892 105.32 15.2058 105.32 16.5843C105.32 17.9629 105.616 19.179 106.208 20.2325C106.775 21.2619 107.623 22.1092 108.653 22.6757C109.69 23.2515 110.857 23.5397 112.155 23.5402C113.468 23.5402 114.654 23.252 115.715 22.6757C116.769 22.1107 117.646 21.2651 118.249 20.2325C118.874 19.1785 119.186 17.9624 119.185 16.5843C119.184 15.2063 118.88 13.9897 118.273 12.9346C117.687 11.9023 116.822 11.0554 115.778 10.4906ZM115.195 18.7714C114.902 19.3384 114.45 19.8075 113.894 20.1211C113.363 20.4181 112.764 20.5733 112.156 20.5715C111.182 20.5715 110.375 20.2268 109.734 19.5376C109.094 18.8483 108.774 17.8641 108.775 16.5851C108.775 15.304 109.103 14.3189 109.758 13.6296C110.414 12.9403 111.229 12.5954 112.204 12.5949C112.665 12.5865 113.122 12.6741 113.547 12.8523C113.972 13.0304 114.355 13.2951 114.673 13.6296C115.343 14.3189 115.679 15.304 115.679 16.5851C115.681 17.4431 115.52 18.1724 115.195 18.7729V18.7714Z"
            fill="white" />
        <path
            d="M128.086 6.51367H124.657V9.84146H123.051V12.6391H124.657V19.1384C124.657 21.9275 126.092 23.3221 128.961 23.3221H131.101V20.454H129.52C129.002 20.454 128.633 20.3523 128.414 20.1491C128.196 19.9458 128.086 19.6174 128.086 19.1639V12.6461H131.104V9.84842H128.086V6.51367Z"
            fill="white" />
        <path
            d="M148.087 12.9346C147.502 11.9025 146.638 11.0557 145.594 10.4906C144.54 9.91588 143.365 9.62799 142.068 9.62696C140.771 9.62592 139.595 9.91381 138.541 10.4906C137.498 11.0561 136.633 11.9027 136.046 12.9346C135.439 13.9892 135.135 15.2058 135.135 16.5843C135.135 17.9629 135.431 19.179 136.022 20.2325C136.59 21.262 137.438 22.1093 138.468 22.6757C139.505 23.2515 140.672 23.5397 141.97 23.5402C143.283 23.5402 144.469 23.252 145.53 22.6757C146.582 22.1101 147.457 21.2645 148.059 20.2325C148.684 19.1785 148.997 17.9624 148.996 16.5843C148.995 15.2063 148.692 13.9897 148.087 12.9346ZM145.011 18.7729C144.717 19.3401 144.264 19.8092 143.708 20.1226C143.177 20.4197 142.578 20.5748 141.97 20.573C140.996 20.573 140.189 20.2284 139.548 19.5391C138.907 18.8498 138.588 17.8652 138.591 16.5851C138.591 15.304 138.919 14.3189 139.574 13.6296C140.23 12.9403 141.045 12.5954 142.02 12.5949C142.481 12.5866 142.938 12.6743 143.363 12.8524C143.788 13.0305 144.171 13.2952 144.489 13.6296C145.159 14.3189 145.495 15.304 145.495 16.5851C145.497 17.4431 145.336 18.1724 145.011 18.7729Z"
            fill="white" />
        <path
            d="M52.9553 9.28593C52.9553 8.52441 53.1178 7.99738 53.4429 7.70484C53.7679 7.41231 54.3434 7.27481 55.1694 7.29235V4.42117C53.2719 4.37319 51.8531 4.73821 50.9131 5.51624C49.9731 6.29427 49.5031 7.51033 49.5031 9.16442V9.84546H47.9716V12.6431H49.5031V23.323V23.8825C49.5031 24.6435 49.3406 25.1705 49.0156 25.4636C48.6929 25.7546 48.1156 25.8923 47.2891 25.8761V28.7473C49.1866 28.7952 50.6053 28.4302 51.5453 27.6522C52.4853 26.8742 52.9553 25.6581 52.9553 24.004V23.3176V12.6377H55.3149V9.84004H52.9553V9.28593Z"
            fill="white" />
    </g>
    <defs>
        <clipPath id="clip0_4260_17700">
            <rect width="149" height="33" fill="currentColor" />
        </clipPath>
    </defs>
</svg>