<svg viewBox="0 0 25 24" fill="none" xmlns="http://www.w3.org/2000/svg">
    <g clip-path="url(#prefix__clip0_3150_9385)">
        <path d="M6.5 6v1.5h.72v-.75h16.56v1.5h-5.367V9H24.5V6h-18z" fill="#1975FF" />
        <path
            d="M7.633 4.5C7.01 4.5 6.5 5.032 6.5 5.679v2.284h.72V5.68c0-.245.178-.43.413-.43h15.735c.234 0 .412.185.412.429v9.643a.411.411 0 01-.413.428h-5.25v.75h5.25c.621 0 1.133-.531 1.133-1.178V5.68c0-.647-.512-1.18-1.133-1.18H7.633z"
            fill="#1975FF" />
        <path
            d="M19.516 12.457c-.32.27-.746.372-1.132.187l-.306.68a1.782 1.782 0 002.133-.461l.211-.248-.211-.248-.695.09zm.695-1.573l.211-.246-.21-.249a1.794 1.794 0 00-1.384-.639h-.002a1.725 1.725 0 00-.707.158l.292.687a1.07 1.07 0 01.422-.095c.259 0 .48.145.676.312l.702.072z"
            fill="#4CC3C7" />
        <path
            d="M21.068 9.75c-1 0-1.818.844-1.818 1.875 0 1.031.818 1.875 1.818 1.875s1.818-.844 1.818-1.875c0-1.031-.817-1.875-1.818-1.875zm0 .75c.607 0 1.091.5 1.091 1.125 0 .626-.484 1.125-1.091 1.125s-1.09-.5-1.09-1.125c0-.626.483-1.125 1.09-1.125z"
            fill="#4CC3C7" />
        <path
            d="M1.633 7.5C1.012 7.5.5 8.032.5 8.677v9.644c0 .646.512 1.179 1.133 1.179h15.734c.621 0 1.133-.532 1.133-1.179V8.678c0-.646-.512-1.177-1.133-1.177H1.633V7.5zm0 .75h15.734c.235 0 .413.184.413.427v9.644a.413.413 0 01-.413.429H1.633a.413.413 0 01-.412-.429V8.678a.41.41 0 01.413-.427V8.25z"
            fill="#1975FF" />
        <path
            d="M9.59 10.501c-1.601 0-2.909 1.348-2.909 3s1.308 3 2.91 3 2.909-1.348 2.909-3-1.307-3-2.91-3zm0 .75c1.21 0 2.183 1.003 2.183 2.25s-.973 2.25-2.182 2.25c-1.21 0-2.182-1.003-2.182-2.25s.973-2.25 2.182-2.25z"
            fill="#4CC3C7" />
        <path fill-rule="evenodd" clip-rule="evenodd"
            d="M13.25 11.25V12h1.5v-.75h-1.5zm.75 1.875v.75h2.25v-.75H14zM13.25 15v.75h1.5V15h-1.5zm-9-3.75V12h1.5v-.75h-1.5zm-.75 1.875v.75h2.25v-.75H3.5zM4.25 15v.75h1.5V15h-1.5z"
            fill="#4CC3C7" />
    </g>
    <defs>
        <clipPath id="prefix__clip0_3150_9385">
            <path fill="#fff" transform="translate(.5)" d="M0 0h24v24H0z" />
        </clipPath>
    </defs>
</svg>