<svg viewBox="0 0 24 24" fill="none" xmlns="http://www.w3.org/2000/svg">
    <path d="M22 15C22 18.87 18.87 22 15 22L16.05 20.25" stroke="currentColor" stroke-width="1.5" stroke-linecap="round"
        stroke-linejoin="round" />
    <path d="M2 9C2 5.13 5.13 2 9 2L7.95001 3.75" stroke="currentColor" stroke-width="1.5" stroke-linecap="round"
        stroke-linejoin="round" />
    <path
        d="M11.9944 5.00001C10.375 5.00131 8.80624 5.56401 7.55524 6.59223C6.30423 7.62046 5.44842 9.05062 5.13358 10.6391C4.81875 12.2275 5.06438 13.876 5.82861 15.3036C6.59285 16.7313 7.82843 17.8498 9.32485 18.4687C10.8213 19.0875 12.486 19.1684 14.0353 18.6976C15.5847 18.2267 16.9229 17.2333 17.822 15.8864C18.7211 14.5396 19.1254 12.9227 18.966 11.3112C18.8067 9.69974 18.0936 8.19335 16.9481 7.04867C16.2981 6.39776 15.5258 5.8817 14.6756 5.53013C13.8255 5.17855 12.9143 4.9984 11.9944 5.00001ZM13.2182 10.2512H14.1158C14.2128 10.2512 14.3059 10.2898 14.3746 10.3584C14.4432 10.4271 14.4818 10.5202 14.4818 10.6172C14.4818 10.7143 14.4432 10.8074 14.3746 10.876C14.3059 10.9447 14.2128 10.9832 14.1158 10.9832H13.2182C13.127 11.4978 12.8569 11.9636 12.4558 12.2984C12.0546 12.6332 11.548 12.8156 11.0254 12.8133H10.7073L13.1345 15.1085C13.2053 15.1752 13.2466 15.2672 13.2495 15.3644C13.2523 15.4615 13.2165 15.5559 13.1498 15.6266C13.1168 15.6616 13.0772 15.6898 13.0333 15.7095C12.9894 15.7292 12.942 15.7401 12.8939 15.7415C12.7968 15.7444 12.7024 15.7085 12.6317 15.6418L9.53531 12.7157C9.4821 12.6651 9.44523 12.5998 9.42944 12.5282C9.41366 12.4565 9.41967 12.3817 9.44671 12.3135C9.47375 12.2453 9.52058 12.1867 9.58117 12.1453C9.64177 12.1039 9.71337 12.0816 9.78675 12.0813H11.0254C11.3529 12.0796 11.6709 11.9716 11.9316 11.7736C12.1923 11.5756 12.3817 11.2982 12.4712 10.9832H9.78675C9.68968 10.9832 9.59659 10.9447 9.52795 10.876C9.45931 10.8074 9.42075 10.7143 9.42075 10.6172C9.42075 10.5202 9.45931 10.4271 9.52795 10.3584C9.59659 10.2898 9.68968 10.2512 9.78675 10.2512H12.4712C12.3954 9.92376 12.2115 9.63135 11.9493 9.4211C11.687 9.21084 11.3616 9.09499 11.0255 9.09221H9.78675C9.68968 9.09221 9.59659 9.05365 9.52795 8.98501C9.45931 8.91637 9.42075 8.82327 9.42075 8.7262C9.42075 8.62913 9.45931 8.53603 9.52795 8.46739C9.59659 8.39875 9.68968 8.36019 9.78675 8.36019H14.1158C14.2128 8.36019 14.3059 8.39875 14.3746 8.46739C14.4432 8.53603 14.4818 8.62913 14.4818 8.7262C14.4818 8.82327 14.4432 8.91637 14.3746 8.98501C14.3059 9.05365 14.2128 9.09221 14.1158 9.09221H12.673C12.96 9.41964 13.1489 9.82133 13.2182 10.2512Z"
        fill="currentColor" />
</svg>