<svg viewBox="0 0 24 24" fill="none" xmlns="http://www.w3.org/2000/svg">
    <path
        d="M6 12c-.55 0-1-.45-1-1s.45-1 1-1 1 .45 1 1-.45 1-1 1zM6 15c-.55 0-1-.45-1-1s.45-1 1-1 1 .45 1 1-.45 1-1 1zM14 12c-.55 0-1-.45-1-1s.45-1 1-1 1 .45 1 1-.45 1-1 1zM14 15c-.55 0-1-.45-1-1s.45-1 1-1 1 .45 1 1-.45 1-1 1zM18 12c-.55 0-1-.45-1-1s.45-1 1-1 1 .45 1 1-.45 1-1 1zM18 15c-.55 0-1-.45-1-1s.45-1 1-1 1 .45 1 1-.45 1-1 1zM10 12c-.55 0-1-.45-1-1s.45-1 1-1 1 .45 1 1-.45 1-1 1zM10 15c-.55 0-1-.45-1-1s.45-1 1-1 1 .45 1 1-.45 1-1 1z"
        fill="currentColor" />
</svg>