<svg viewBox="0 0 24 24" fill="none" xmlns="http://www.w3.org/2000/svg">
    <path
        d="M16 9.59961L15.6012 10.8457H8L8.39883 9.59961H16ZM12.434 18L8.14076 13.1875L8.1173 12.2852H10.2522C10.8074 12.2852 11.2805 12.2135 11.6716 12.0703C12.0626 11.9235 12.3617 11.7051 12.5689 11.415C12.7761 11.1214 12.8798 10.7526 12.8798 10.3086C12.8798 9.65332 12.6647 9.13949 12.2346 8.76709C11.8045 8.39111 11.1437 8.20312 10.2522 8.20312H8L8.39883 7H10.2522C11.2063 7 11.9883 7.14502 12.5982 7.43506C13.2121 7.72152 13.6657 8.1154 13.9589 8.6167C14.2561 9.11442 14.4047 9.67839 14.4047 10.3086C14.4047 10.8779 14.2678 11.4025 13.9941 11.8823C13.7243 12.3586 13.2903 12.7417 12.6921 13.0317C12.0978 13.3218 11.3118 13.4668 10.3343 13.4668H10.2991L14.2639 17.9141V18H12.434ZM16 7L15.6012 8.24609L9.61877 8.20312L10.0176 7H16Z"
        fill="currentColor" />
    <path d="M22 12C22 17.52 17.52 22 12 22C6.48 22 2 17.52 2 12C2 6.48 6.48 2 12 2" stroke="currentColor"
        stroke-width="1.5" stroke-linecap="round" stroke-linejoin="round" />
    <path d="M22 6V2H18" stroke="currentColor" stroke-width="1.5" stroke-linecap="round" stroke-linejoin="round" />
    <path d="M17 7L22 2" stroke="currentColor" stroke-width="1.5" stroke-linecap="round" stroke-linejoin="round" />
</svg>