<svg viewBox="0 0 24 24" fill="none" xmlns="http://www.w3.org/2000/svg">
    <path
        d="M19.3009 7.91949V13.0695C19.3009 16.1495 17.5409 17.4695 14.9009 17.4695H6.11093C5.66093 17.4695 5.23093 17.4295 4.83093 17.3395C4.58093 17.2995 4.34094 17.2295 4.12094 17.1495C2.62094 16.5895 1.71094 15.2895 1.71094 13.0695V7.91949C1.71094 4.83949 3.47093 3.51953 6.11093 3.51953H14.9009C17.1409 3.51953 18.7509 4.46953 19.1809 6.63953C19.2509 7.03953 19.3009 7.44949 19.3009 7.91949Z"
        stroke="currentColor" stroke-width="1.5" stroke-miterlimit="10" stroke-linecap="round"
        stroke-linejoin="round" />
    <path
        d="M22.302 10.9196V16.0696C22.302 19.1496 20.542 20.4696 17.902 20.4696H9.11203C8.37203 20.4696 7.70204 20.3697 7.12204 20.1497C5.93204 19.7097 5.12203 18.7997 4.83203 17.3397C5.23203 17.4297 5.66203 17.4696 6.11203 17.4696H14.902C17.542 17.4696 19.302 16.1496 19.302 13.0696V7.91962C19.302 7.44962 19.262 7.02965 19.182 6.63965C21.082 7.03965 22.302 8.37962 22.302 10.9196Z"
        stroke="currentColor" stroke-width="1.5" stroke-miterlimit="10" stroke-linecap="round"
        stroke-linejoin="round" />
    <path d="M4.78125 8.2998V12.6998" stroke="currentColor" stroke-width="1.5" stroke-miterlimit="10"
        stroke-linecap="round" stroke-linejoin="round" />
    <path d="M16.2227 8.2998V12.6998" stroke="currentColor" stroke-width="1.5" stroke-miterlimit="10"
        stroke-linecap="round" stroke-linejoin="round" />
    <path
        d="M14 8.12695L13.7009 9.14648H8L8.29912 8.12695H14ZM11.3255 15L8.10557 11.0625L8.08798 10.3242H9.68915C10.1056 10.3242 10.4604 10.2656 10.7537 10.1484C11.0469 10.0283 11.2713 9.84961 11.4267 9.6123C11.5821 9.37207 11.6598 9.07031 11.6598 8.70703C11.6598 8.1709 11.4985 7.75049 11.176 7.4458C10.8534 7.13818 10.3578 6.98437 9.68915 6.98437H8L8.29912 6H9.68915C10.4047 6 10.9912 6.11865 11.4487 6.35596C11.9091 6.59033 12.2493 6.9126 12.4692 7.32275C12.6921 7.72998 12.8035 8.19141 12.8035 8.70703C12.8035 9.17285 12.7009 9.60205 12.4956 9.99463C12.2933 10.3843 11.9677 10.6978 11.5191 10.9351C11.0733 11.1724 10.4839 11.291 9.75073 11.291H9.72434L12.6979 14.9297V15H11.3255ZM14 6L13.7009 7.01953L9.21408 6.98437L9.5132 6H14Z"
        fill="currentColor" />
</svg>