<svg viewBox="0 0 24 24" fill="none" xmlns="http://www.w3.org/2000/svg">
    <path
        d="M9.745 5.25a6.75 6.75 0 10.01 13.5 6.75 6.75 0 00-.01-13.5zm1.18 5.064h.865a.353.353 0 010 .706h-.865a2.138 2.138 0 01-2.115 1.764h-.307l2.341 2.213a.353.353 0 11-.485.515L7.373 12.69a.355.355 0 01.243-.612H8.81a1.457 1.457 0 001.394-1.058H7.616a.353.353 0 010-.706h2.588A1.443 1.443 0 008.81 9.196H7.616a.353.353 0 010-.706h4.174a.353.353 0 010 .706H10.4c.277.316.459.703.526 1.118z"
        fill="#1975FF" />
    <path
        d="M20.854 7.149l-1.5-1.5a.5.5 0 00-.707 0l-1.5 1.5a.5.5 0 10.707.707l.646-.647v8.793c0 .827-.673 1.5-1.5 1.5h-2a.5.5 0 100 1h2c1.378 0 2.5-1.121 2.5-2.5V7.21l.646.647a.498.498 0 00.816-.163.499.499 0 00-.108-.544z"
        fill="#4CC3C7" />
</svg>