<svg  viewBox="0 0 28 28" fill="none" xmlns="http://www.w3.org/2000/svg">
<circle cx="14" cy="14" r="14" fill="#FFC225" fill-opacity="0.08"/>
<path d="M14.3014 17.4439H9.07951V13.0923H7.33886V20.0548C7.33886 20.5362 7.72779 20.9252 8.20918 20.9252H15.1718C15.6532 20.9252 16.0421 20.5362 16.0421 20.0548V13.0923H14.3014V17.4439ZM22.8578 10.8675L20.5378 7.38621C20.3747 7.14415 20.1027 7 19.8117 7H8.79121C8.5002 7 8.22822 7.14415 8.06776 7.38621L5.7478 10.8675C5.3616 11.4468 5.775 12.2219 6.47126 12.2219H22.1343C22.8279 12.2219 23.2413 11.4468 22.8578 10.8675ZM19.5234 20.49C19.5234 20.7293 19.7192 20.9252 19.9585 20.9252H20.8289C21.0682 20.9252 21.264 20.7293 21.264 20.49V13.0923H19.5234V20.49Z" fill="#FFC225"/>
</svg>
