<svg viewBox="0 0 24 24" fill="none" xmlns="http://www.w3.org/2000/svg">
    <path
        d="M7.495 5.25a6.75 6.75 0 10.01 13.5 6.75 6.75 0 00-.01-13.5zm1.18 5.064h.865a.353.353 0 010 .706h-.865a2.138 2.138 0 01-2.115 1.764h-.307l2.341 2.213a.353.353 0 11-.485.515L5.123 12.69a.355.355 0 01.243-.612H6.56a1.457 1.457 0 001.394-1.058H5.366a.353.353 0 010-.706h2.588A1.443 1.443 0 006.56 9.196H5.366a.353.353 0 010-.706H9.54a.353.353 0 110 .706H8.15c.277.316.459.703.526 1.118z"
        fill="#1975FF" />
    <path fill-rule="evenodd" clip-rule="evenodd"
        d="M16.744 18.747a6.62 6.62 0 100-13.24 6.62 6.62 0 000 13.24zm-.383-4.616v.048h.944v-.048a3.16 3.16 0 01.102-.814c.063-.218.164-.405.303-.563.14-.16.324-.312.555-.456.23-.142.428-.304.59-.488a1.93 1.93 0 00.378-.625c.09-.234.134-.495.134-.783 0-.41-.095-.774-.284-1.094a1.971 1.971 0 00-.794-.755c-.341-.184-.742-.276-1.204-.276-.425 0-.812.084-1.16.252-.347.168-.626.41-.839.728-.21.317-.325.699-.346 1.145h.992c.02-.31.098-.56.232-.752.133-.191.3-.331.5-.42.199-.09.406-.134.62-.134.247 0 .472.05.674.153.201.102.363.248.483.437.121.189.181.412.181.669a1.49 1.49 0 01-.401 1.019c-.123.128-.262.24-.417.334a3.428 3.428 0 00-.66.508 1.817 1.817 0 00-.426.72c-.1.296-.152.694-.157 1.195zm.004 2.168a.682.682 0 00.5.209c.13 0 .249-.032.354-.095a.733.733 0 00.354-.614c0-.194-.07-.36-.209-.5a.682.682 0 00-.5-.208c-.194 0-.36.07-.5.209a.681.681 0 00-.208.5c0 .193.07.36.209.5z"
        fill="#4CC3C7" />
</svg>