<svg viewBox="0 0 24 24" fill="none" xmlns="http://www.w3.org/2000/svg">
    <path
        d="M18.684 5.25h1.256a.281.281 0 000-.563h-1.873c-3.718-3.093-9.28-2.902-12.77.589-.015.014-.047.04-.047.054V4.007a.281.281 0 00-.562 0v1.945c-3.047 3.718-2.871 9.26.608 12.74a.112.112 0 00.008.011h-1.31a.281.281 0 000 .563h1.925a9.507 9.507 0 006.072 2.197 9.402 9.402 0 006.665-2.754v1.245a.281.281 0 00.563 0V18.1c3.14-3.719 2.976-9.32-.529-12.824-.005-.005 0 .02-.006-.026zm.151 12.469h-1.848a.28.28 0 100 .562h1.335a.046.046 0 00-.025.014c-3.299 3.298-8.547 3.457-12.063.494V17a.281.281 0 00-.562 0v1.27C2.391 14.979 2.24 9.75 5.175 6.234h1.772a.281.281 0 100-.562H5.7a8.898 8.898 0 0111.972-.544v1.833a.281.281 0 10.563 0V5.637c.046.016.041.04.057.055 3.286 3.287 3.473 8.511.543 12.027z"
        fill="currentColor" />
    <path
        d="M12 6.605a5.379 5.379 0 10.009 10.759 5.379 5.379 0 00-.01-10.759zm.94 4.036h.69a.281.281 0 110 .562h-.69a1.703 1.703 0 01-1.685 1.406h-.244l1.865 1.764a.282.282 0 01-.386.41l-2.38-2.249a.282.282 0 01.194-.487h.951a1.161 1.161 0 001.111-.844h-2.063a.281.281 0 010-.562h2.063a1.15 1.15 0 00-1.11-.891h-.953a.281.281 0 110-.562h3.327a.281.281 0 110 .562h-1.109c.22.252.366.56.42.89z"
        fill="currentColor" />
</svg>