<svg viewBox="0 0 48 48" fill="none" xmlns="http://www.w3.org/2000/svg">
    <rect width="48" height="48" rx="24" fill="#FFEBEB" />
    <path d="M36 15.9733C31.56 15.5333 27.0933 15.3066 22.64 15.3066C20 15.3066 17.36 15.44 14.72 15.7066L12 15.9733"
        stroke="#E53535" stroke-width="2" stroke-linecap="round" stroke-linejoin="round" />
    <path
        d="M19.3359 14.627L19.6293 12.8803C19.8426 11.6137 20.0026 10.667 22.2559 10.667H25.7493C28.0026 10.667 28.1759 11.667 28.3759 12.8937L28.6693 14.627"
        stroke="#E53535" stroke-width="2" stroke-linecap="round" stroke-linejoin="round" />
    <path
        d="M33.1339 20.1865L32.2672 33.6132C32.1205 35.7065 32.0005 37.3332 28.2805 37.3332H19.7205C16.0005 37.3332 15.8805 35.7065 15.7339 33.6132L14.8672 20.1865"
        stroke="#E53535" stroke-width="2" stroke-linecap="round" stroke-linejoin="round" />
    <path d="M21.7734 30H26.2134" stroke="#E53535" stroke-width="2" stroke-linecap="round" stroke-linejoin="round" />
    <path d="M20.6641 24.667H27.3307" stroke="#E53535" stroke-width="2" stroke-linecap="round"
        stroke-linejoin="round" />
</svg>