<svg viewBox="0 0 93 93" fill="none" xmlns="http://www.w3.org/2000/svg">
    <path
        d="M88.3685 44.1156V40.4815H84.6884V47.7957H81.0543V44.1616H77.3282V51.5218H88.3226V55.2019H84.6884V58.928H88.3226V66.2422H77.3282V55.2019H73.6021V51.5218H69.876V44.1616H77.2822V36.8013H70.014V33.0752H77.2822V29.4871H66.2419V36.8013H62.6078V40.4815H59.0197V47.8877H62.6538V51.5218H69.922V55.2019H66.2879V58.836H62.6078V55.2019H55.2016V51.5218H51.5215V40.4815H55.2016V29.4411H47.8414V22.0809H44.1613V29.2571H36.8011V25.761H33.213V22.0349H36.8011V18.4008H33.121V14.7207H29.4408V29.3031H22.0806V32.9372H25.7147V36.8013H22.0806C22.0806 35.5593 22.0806 34.3173 22.0806 33.1212H14.6284V29.4871H10.9943V33.1212H7.31421V36.8013H3.5881V40.4815H0V44.1616H3.6341V51.5218H10.9943V55.2019H14.6744V51.5218H22.0346V55.2019H14.6744V62.4701H25.7147V58.882H22.0806V55.2019H25.7147C25.7147 56.3979 25.7147 57.64 25.7147 58.836H29.2108V62.6541V69.9223H32.845V66.2882H36.8011V62.7001H40.4812V66.2422H51.5215V62.6081H47.9334V58.974H58.8817V62.5161H55.2016V69.9223H58.9277V77.3285H62.6078V80.9626H66.2879V77.4205H73.6021V84.7347H69.922V88.3688H66.3339V92.0029H77.3282V84.6427H80.9623V77.3285H77.3742V70.0143H81.0083V73.6024H84.6884V70.0143H88.3685V73.6024H92.0027V44.1156H88.3685ZM14.7664 47.7957H7.36021V44.1616H10.9943V36.8013H14.6284L14.7664 47.7957ZM18.4005 36.8013H21.9886V40.4815H25.7147V36.8013H29.2108V47.8417H25.7607V44.1616H22.0346V47.8417H18.4005V36.8013ZM25.6687 51.5218H22.0806V47.8417H25.7147L25.6687 51.5218ZM25.6687 55.2019V51.5218H29.1648V55.2019H25.6687ZM51.3835 36.8013H46.0013V33.0752H51.4755L51.3835 36.8013ZM62.5158 44.1616V40.4815H69.922V44.1616H62.5158ZM73.6021 73.6024H62.6078V62.6541H73.6021V73.6024Z"
        fill="#101828" />
    <path d="M36.8512 80.9619H36.8047V81.0084L36.8512 80.9619Z" fill="#101828" />
    <path
        d="M55.2016 69.968H51.5675V73.6021H47.8874V70.014H40.4812V73.6021H36.8011V69.968H33.121V77.3742H29.4408V80.9623H36.8011V77.3742H44.1613V81.0083H51.4755V84.7344H47.8874V92.0027H51.5675V88.4146H55.2016V92.0027H62.4698V84.6884H58.8817V77.3282H55.2016V69.968ZM0 92.0027H25.6687V66.3339H0V92.0027ZM3.68011 70.014H22.0806V88.4146H3.68011V70.014ZM92.0027 0H66.2879V25.6687H92.0027V0ZM88.3226 21.9886H69.922V3.5881H88.3226V21.9886ZM25.6687 0H0V25.6687H25.6687V0ZM21.9886 21.9886H3.5881V3.5881H21.9886V21.9886Z"
        fill="#101828" />
    <path
        d="M44.197 10.9483H47.7851V0H44.151V3.68011H40.4249V7.26821H33.0647V3.6341H29.4766V11.0403H33.1107V14.6744H44.197V10.9483Z"
        fill="#101828" />
    <path d="M22.0855 33.0762H22.0391V33.1226H22.0855V33.0762Z" fill="#101828" />
    <path d="M51.4779 25.7139H55.204V22.1258H58.9301V25.7139H62.5182V14.7656H47.8438V22.0338H51.4779V25.7139Z"
        fill="#101828" />
    <path d="M58.9293 25.7613V25.7148H58.8828L58.9293 25.7613Z" fill="#101828" />
    <path d="M55.1966 10.9483H58.8767V7.26821H62.4648V3.5881H58.8767V0H51.5625V7.36021H55.1966V10.9483Z"
        fill="#101828" />
    <path d="M84.6497 36.8005H88.3758V40.5266H92.0099V33.0744H88.3758V29.4863H81.0156V33.0744H84.6497V36.8005Z"
        fill="#101828" />
    <path d="M25.7031 58.9283H25.7496V58.8818H25.7031V58.9283Z" fill="#101828" />
    <path d="M3.6341 58.9273H0V62.5154H7.31421V58.8813H10.9943V55.2012H3.6341V58.9273Z" fill="#101828" />
    <path d="M33.0647 84.7334H29.4766V92.0016H36.7908V88.4135H33.1107L33.0647 84.7334Z" fill="#101828" />
    <path d="M36.8512 80.9619L36.8047 81.0084H36.8512V80.9619Z" fill="#101828" />
    <path
        d="M44.0729 88.3681V84.642H40.4388V80.9619H36.8047C36.8047 83.446 36.8047 85.884 36.8047 88.3681H44.0729ZM88.4182 88.4141H84.7381V92.0022H92.0063V84.734H88.4182V88.4141Z"
        fill="#101828" />
    <path d="M0 29.4863V33.0744H7.31421V29.4863H0Z" fill="#101828" />
    <path d="M62.5625 36.7549V36.8014H62.609V36.7549H62.5625Z" fill="#101828" />
    <path d="M58.9297 29.4414V36.8016H62.5638V29.4414H58.9297Z" fill="#101828" />
    <path d="M58.8828 29.441H58.9293V29.3945L58.8828 29.441Z" fill="#101828" />
    <path d="M81.0082 36.8012V33.1211H77.3281V36.8012H81.0082Z" fill="#101828" />
    <path d="M0 51.5215V55.2016H3.6341V51.5215H0Z" fill="#101828" />
    <path d="M62.5156 25.7613H62.5621V25.7148L62.5156 25.7613Z" fill="#101828" />
    <path d="M66.2418 29.3945H66.1953V29.441L66.2418 29.3945Z" fill="#101828" />
    <path d="M66.2426 29.3958V25.7617H62.5625V29.3958H66.2426Z" fill="#101828" />
    <path d="M62.5621 29.441V29.3945H62.5156L62.5621 29.441Z" fill="#101828" />
    <path d="M66.1953 25.7148V25.7613H66.2418L66.1953 25.7148Z" fill="#101828" />
    <path d="M36.8043 22.0816V22.0352H36.7578V22.0816H36.8043Z" fill="#101828" />
    <path d="M40.4848 25.7152V22.0811H36.8047V25.7152H40.4848ZM84.6921 77.2366H88.3722V73.6025H84.6921V77.2366Z"
        fill="#101828" />
    <path d="M44.1567 18.4004H40.4766V21.9885H44.1567V18.4004Z" fill="#101828" />
    <path d="M36.7973 0H33.1172V3.6341H36.7973V0Z" fill="#101828" />
    <path
        d="M81.0535 62.5159H84.6876V58.9278H81.0535V62.5159ZM69.9212 66.334H66.3331V69.8762H69.9212V66.334ZM7.35938 84.5966H18.3997V73.6023H7.35938V84.5966ZM84.6876 7.36035H73.6013V18.4007H84.5956L84.6876 7.36035ZM18.3997 7.40635H7.35938V18.4007H18.3997V7.40635Z"
        fill="#101828" />
</svg>