<svg viewBox="0 0 24 24" fill="none" xmlns="http://www.w3.org/2000/svg">
    <circle cx="12" cy="5" r="1.25" stroke="currentColor" stroke-width="1.5" />
    <path
        d="M12 8.75C13.5366 8.75 14.8248 9.81692 15.1632 11.25H15.163H15.1577H15.1524H15.1471H15.1418H15.1364H15.1311H15.1257H15.1203H15.1149H15.1095H15.1041H15.0986H15.0932H15.0877H15.0822H15.0767H15.0712H15.0657H15.0602H15.0546H15.0491H15.0435H15.0379H15.0323H15.0267H15.021H15.0154H15.0097H15.004H14.9983H14.9926H14.9869H14.9812H14.9754H14.9697H14.9639H14.9581H14.9523H14.9465H14.9407H14.9349H14.929H14.9231H14.9173H14.9114H14.9055H14.8996H14.8936H14.8877H14.8817H14.8758H14.8698H14.8638H14.8578H14.8517H14.8457H14.8396H14.8336H14.8275H14.8214H14.8153H14.8092H14.8031H14.7969H14.7908H14.7846H14.7784H14.7722H14.766H14.7598H14.7536H14.7474H14.7411H14.7348H14.7285H14.7223H14.7159H14.7096H14.7033H14.697H14.6906H14.6842H14.6778H14.6715H14.665H14.6586H14.6522H14.6458H14.6393H14.6328H14.6264H14.6199H14.6134H14.6068H14.6003H14.5938H14.5872H14.5807H14.5741H14.5675H14.5609H14.5543H14.5476H14.541H14.5344H14.5277H14.521H14.5143H14.5076H14.5009H14.4942H14.4875H14.4807H14.474H14.4672H14.4604H14.4536H14.4468H14.44H14.4332H14.4264H14.4195H14.4126H14.4058H14.3989H14.392H14.3851H14.3782H14.3712H14.3643H14.3573H14.3504H14.3434H14.3364H14.3294H14.3224H14.3154H14.3083H14.3013H14.2943H14.2872H14.2801H14.273H14.2659H14.2588H14.2517H14.2446H14.2374H14.2303H14.2231H14.2159H14.2087H14.2015H14.1943H14.1871H14.1799H14.1726H14.1654H14.1581H14.1509H14.1436H14.1363H14.129H14.1217H14.1143H14.107H14.0996H14.0923H14.0849H14.0775H14.0701H14.0627H14.0553H14.0479H14.0405H14.033H14.0256H14.0181H14.0107H14.0032H13.9957H13.9882H13.9807H13.9731H13.9656H13.9581H13.9505H13.9429H13.9354H13.9278H13.9202H13.9126H13.905H13.8973H13.8897H13.8821H13.8744H13.8667H13.8591H13.8514H13.8437H13.836H13.8283H13.8206H13.8128H13.8051H13.7973H13.7896H13.7818H13.774H13.7662H13.7584H13.7506H13.7428H13.735H13.7271H13.7193H13.7114H13.7036H13.6957H13.6878H13.6799H13.672H13.6641H13.6562H13.6482H13.6403H13.6323H13.6244H13.6164H13.6084H13.6005H13.5925H13.5845H13.5764H13.5684H13.5604H13.5524H13.5443H13.5362H13.5282H13.5201H13.512H13.5039H13.4958H13.4877H13.4796H13.4715H13.4633H13.4552H13.447H13.4389H13.4307H13.4225H13.4143H13.4061H13.3979H13.3897H13.3815H13.3732H13.365H13.3568H13.3485H13.3402H13.332H13.3237H13.3154H13.3071H13.2988H13.2905H13.2821H13.2738H13.2655H13.2571H13.2488H13.2404H13.232H13.2237H13.2153H13.2069H13.1985H13.1901H13.1816H13.1732H13.1648H13.1563H13.1479H13.1394H13.1309H13.1225H13.114H13.1055H13.097H13.0885H13.08H13.0715H13.0629H13.0544H13.0458H13.0373H13.0287H13.0202H13.0116H13.003H12.9944H12.9858H12.9772H12.9686H12.96H12.9514H12.9427H12.9341H12.9254H12.9168H12.9081H12.8995H12.8908H12.8821H12.8734H12.8647H12.856H12.8473H12.8386H12.8298H12.8211H12.8124H12.8036H12.7949H12.7861H12.7773H12.7686H12.7598H12.751H12.7422H12.7334H12.7246H12.7158H12.7069H12.6981H12.6893H12.6804H12.6716H12.6627H12.6539H12.645H12.6361H12.6272H12.6184H12.6095H12.6006H12.5917H12.5827H12.5738H12.5649H12.556H12.547H12.5381H12.5291H12.5202H12.5112H12.5022H12.4933H12.4843H12.4753H12.4663H12.4573H12.4483H12.4393H12.4303H12.4212H12.4122H12.4032H12.3941H12.3851H12.376H12.367H12.3579H12.3488H12.3397H12.3307H12.3216H12.3125H12.3034H12.2943H12.2851H12.276H12.2669H12.2578H12.2486H12.2395H12.2304H12.2212H12.2121H12.2029H12.1937H12.1845H12.1754H12.1662H12.157H12.1478H12.1386H12.1294H12.1202H12.111H12.1018H12.0925H12.0833H12.0741H12.0648H12.0556H12.0463H12.0371H12.0278H12.0185H12.0093H12H11.9907H11.9815H11.9722H11.9629H11.9537H11.9444H11.9352H11.9259H11.9167H11.9075H11.8982H11.889H11.8798H11.8706H11.8614H11.8522H11.843H11.8338H11.8246H11.8155H11.8063H11.7971H11.7879H11.7788H11.7696H11.7605H11.7514H11.7422H11.7331H11.724H11.7149H11.7057H11.6966H11.6875H11.6784H11.6693H11.6603H11.6512H11.6421H11.633H11.624H11.6149H11.6059H11.5968H11.5878H11.5788H11.5697H11.5607H11.5517H11.5427H11.5337H11.5247H11.5157H11.5067H11.4978H11.4888H11.4798H11.4709H11.4619H11.453H11.444H11.4351H11.4262H11.4173H11.4083H11.3994H11.3905H11.3816H11.3728H11.3639H11.355H11.3461H11.3373H11.3284H11.3196H11.3107H11.3019H11.2931H11.2842H11.2754H11.2666H11.2578H11.249H11.2402H11.2314H11.2227H11.2139H11.2051H11.1964H11.1876H11.1789H11.1702H11.1614H11.1527H11.144H11.1353H11.1266H11.1179H11.1092H11.1005H11.0919H11.0832H11.0746H11.0659H11.0573H11.0486H11.04H11.0314H11.0228H11.0142H11.0056H10.997H10.9884H10.9798H10.9713H10.9627H10.9542H10.9456H10.9371H10.9285H10.92H10.9115H10.903H10.8945H10.886H10.8775H10.8691H10.8606H10.8521H10.8437H10.8352H10.8268H10.8184H10.8099H10.8015H10.7931H10.7847H10.7763H10.768H10.7596H10.7512H10.7429H10.7345H10.7262H10.7179H10.7095H10.7012H10.6929H10.6846H10.6763H10.668H10.6598H10.6515H10.6432H10.635H10.6268H10.6185H10.6103H10.6021H10.5939H10.5857H10.5775H10.5693H10.5611H10.553H10.5448H10.5367H10.5285H10.5204H10.5123H10.5042H10.4961H10.488H10.4799H10.4718H10.4638H10.4557H10.4476H10.4396H10.4316H10.4236H10.4155H10.4075H10.3995H10.3916H10.3836H10.3756H10.3677H10.3597H10.3518H10.3438H10.3359H10.328H10.3201H10.3122H10.3043H10.2964H10.2886H10.2807H10.2729H10.265H10.2572H10.2494H10.2416H10.2338H10.226H10.2182H10.2104H10.2027H10.1949H10.1872H10.1794H10.1717H10.164H10.1563H10.1486H10.1409H10.1333H10.1256H10.1179H10.1103H10.1027H10.095H10.0874H10.0798H10.0722H10.0646H10.0571H10.0495H10.0419H10.0344H10.0269H10.0193H10.0118H10.0043H9.99683H9.98935H9.98187H9.97441H9.96696H9.95952H9.95209H9.94467H9.93725H9.92985H9.92246H9.91509H9.90772H9.90036H9.89301H9.88567H9.87835H9.87103H9.86373H9.85643H9.84915H9.84187H9.83461H9.82736H9.82012H9.81289H9.80567H9.79846H9.79126H9.78408H9.7769H9.76974H9.76258H9.75544H9.74831H9.74119H9.73408H9.72698H9.71989H9.71281H9.70575H9.69869H9.69165H9.68462H9.6776H9.67059H9.66359H9.6566H9.64963H9.64266H9.63571H9.62877H9.62184H9.61492H9.60801H9.60112H9.59423H9.58736H9.5805H9.57365H9.56681H9.55998H9.55317H9.54637H9.53957H9.53279H9.52603H9.51927H9.51253H9.50579H9.49907H9.49236H9.48566H9.47898H9.47231H9.46564H9.45899H9.45236H9.44573H9.43912H9.43252H9.42593H9.41935H9.41278H9.40623H9.39969H9.39316H9.38664H9.38014H9.37365H9.36717H9.3607H9.35424H9.3478H9.34137H9.33495H9.32854H9.32215H9.31577H9.3094H9.30304H9.2967H9.29037H9.28405H9.27775H9.27145H9.26517H9.2589H9.25265H9.2464H9.24017H9.23396H9.22775H9.22156H9.21538H9.20922H9.20306H9.19692H9.19079H9.18468H9.17858H9.17249H9.16641H9.16035H9.1543H9.14826H9.14224H9.13623H9.13023H9.12425H9.11828H9.11232H9.10638H9.10044H9.09453H9.08862H9.08273H9.07685H9.07099H9.06514H9.0593H9.05347H9.04766H9.04186H9.03608H9.03031H9.02455H9.01881H9.01308H9.00736H9.00166H8.99597H8.99029H8.98463H8.97898H8.97335H8.96773H8.96212H8.95653H8.95095H8.94538H8.93983H8.93429H8.92877H8.92326H8.91776H8.91228H8.90681H8.90136H8.89592H8.89049H8.88508H8.87968H8.8743H8.86893H8.86358H8.85823H8.85291H8.8476H8.8423H8.83701H8.83682C9.17516 9.81692 10.4634 8.75 12 8.75Z"
        stroke="currentColor" stroke-width="1.5" />
    <circle cx="4" cy="14" r="1.25" stroke="currentColor" stroke-width="1.5" />
    <path
        d="M4 17.75C5.53663 17.75 6.82484 18.8169 7.16318 20.25H7.16299H7.1577H7.1524H7.14709H7.14177H7.13643H7.13107H7.1257H7.12032H7.11492H7.10951H7.10408H7.09864H7.09319H7.08772H7.08224H7.07674H7.07123H7.06571H7.06017H7.05462H7.04905H7.04347H7.03788H7.03227H7.02665H7.02102H7.01537H7.00971H7.00403H6.99834H6.99264H6.98692H6.98119H6.97545H6.96969H6.96392H6.95814H6.95234H6.94653H6.9407H6.93486H6.92901H6.92315H6.91727H6.91138H6.90547H6.89956H6.89362H6.88768H6.88172H6.87575H6.86977H6.86377H6.85776H6.85174H6.8457H6.83965H6.83359H6.82751H6.82142H6.81532H6.80921H6.80308H6.79694H6.79078H6.78462H6.77844H6.77225H6.76604H6.75983H6.7536H6.74735H6.7411H6.73483H6.72855H6.72225H6.71595H6.70963H6.7033H6.69696H6.6906H6.68423H6.67785H6.67146H6.66505H6.65863H6.6522H6.64576H6.6393H6.63283H6.62635H6.61986H6.61336H6.60684H6.60031H6.59377H6.58722H6.58065H6.57407H6.56748H6.56088H6.55427H6.54764H6.54101H6.53436H6.52769H6.52102H6.51434H6.50764H6.50093H6.49421H6.48747H6.48073H6.47397H6.46721H6.46043H6.45363H6.44683H6.44002H6.43319H6.42635H6.4195H6.41264H6.40577H6.39888H6.39199H6.38508H6.37816H6.37123H6.36429H6.35734H6.35037H6.3434H6.33641H6.32941H6.3224H6.31538H6.30835H6.30131H6.29425H6.28719H6.28011H6.27302H6.26592H6.25881H6.25169H6.24456H6.23742H6.23026H6.2231H6.21592H6.20874H6.20154H6.19433H6.18711H6.17988H6.17264H6.16539H6.15813H6.15085H6.14357H6.13627H6.12897H6.12165H6.11433H6.10699H6.09964H6.09228H6.08491H6.07754H6.07015H6.06275H6.05534H6.04791H6.04048H6.03304H6.02559H6.01813H6.01065H6.00317H5.99568H5.98817H5.98066H5.97314H5.9656H5.95806H5.9505H5.94294H5.93537H5.92778H5.92019H5.91258H5.90497H5.89734H5.88971H5.88206H5.87441H5.86675H5.85907H5.85139H5.8437H5.83599H5.82828H5.82056H5.81282H5.80508H5.79733H5.78957H5.7818H5.77402H5.76623H5.75843H5.75062H5.7428H5.73497H5.72713H5.71929H5.71143H5.70356H5.69569H5.6878H5.67991H5.672H5.66409H5.65617H5.64824H5.6403H5.63235H5.62439H5.61642H5.60845H5.60046H5.59246H5.58446H5.57645H5.56842H5.56039H5.55235H5.5443H5.53625H5.52818H5.5201H5.51202H5.50393H5.49582H5.48771H5.47959H5.47146H5.46333H5.45518H5.44703H5.43886H5.43069H5.42251H5.41432H5.40612H5.39792H5.3897H5.38148H5.37325H5.36501H5.35676H5.3485H5.34024H5.33196H5.32368H5.31539H5.30709H5.29878H5.29047H5.28215H5.27381H5.26548H5.25713H5.24877H5.24041H5.23204H5.22366H5.21527H5.20687H5.19847H5.19005H5.18163H5.17321H5.16477H5.15633H5.14787H5.13941H5.13095H5.12247H5.11399H5.1055H5.097H5.08849H5.07998H5.07146H5.06293H5.05439H5.04585H5.0373H5.02874H5.02017H5.0116H5.00301H4.99443H4.98583H4.97722H4.96861H4.95999H4.95137H4.94273H4.93409H4.92545H4.91679H4.90813H4.89946H4.89078H4.8821H4.87341H4.86471H4.856H4.84729H4.83857H4.82984H4.82111H4.81237H4.80362H4.79487H4.78611H4.77734H4.76856H4.75978H4.75099H4.7422H4.7334H4.72459H4.71577H4.70695H4.69812H4.68928H4.68044H4.67159H4.66274H4.65387H4.64501H4.63613H4.62725H4.61836H4.60947H4.60056H4.59166H4.58274H4.57382H4.5649H4.55596H4.54702H4.53808H4.52913H4.52017H4.5112H4.50223H4.49326H4.48427H4.47529H4.46629H4.45729H4.44828H4.43927H4.43025H4.42123H4.41219H4.40316H4.39411H4.38507H4.37601H4.36695H4.35788H4.34881H4.33974H4.33065H4.32156H4.31247H4.30337H4.29426H4.28515H4.27603H4.26691H4.25778H4.24864H4.2395H4.23036H4.22121H4.21205H4.20289H4.19372H4.18455H4.17537H4.16619H4.157H4.14781H4.13861H4.1294H4.12019H4.11098H4.10176H4.09253H4.0833H4.07407H4.06483H4.05558H4.04633H4.03707H4.02781H4.01855H4.00928H4H3.99072H3.98145H3.97219H3.96293H3.95367H3.94442H3.93517H3.92593H3.9167H3.90747H3.89824H3.88902H3.87981H3.8706H3.86139H3.85219H3.843H3.83381H3.82463H3.81545H3.80628H3.79711H3.78795H3.77879H3.76964H3.7605H3.75136H3.74222H3.73309H3.72397H3.71485H3.70574H3.69663H3.68753H3.67844H3.66935H3.66026H3.65119H3.64212H3.63305H3.62399H3.61493H3.60589H3.59684H3.58781H3.57877H3.56975H3.56073H3.55172H3.54271H3.53371H3.52471H3.51573H3.50674H3.49777H3.4888H3.47983H3.47087H3.46192H3.45298H3.44404H3.4351H3.42618H3.41726H3.40834H3.39944H3.39053H3.38164H3.37275H3.36387H3.35499H3.34613H3.33726H3.32841H3.31956H3.31072H3.30188H3.29305H3.28423H3.27541H3.2666H3.2578H3.24901H3.24022H3.23144H3.22266H3.21389H3.20513H3.19638H3.18763H3.17889H3.17016H3.16143H3.15271H3.144H3.13529H3.12659H3.1179H3.10922H3.10054H3.09187H3.08321H3.07455H3.06591H3.05727H3.04863H3.04001H3.03139H3.02278H3.01417H3.00557H2.99699H2.9884H2.97983H2.97126H2.9627H2.95415H2.94561H2.93707H2.92854H2.92002H2.91151H2.903H2.8945H2.88601H2.87753H2.86905H2.86059H2.85213H2.84367H2.83523H2.82679H2.81837H2.80995H2.80153H2.79313H2.78473H2.77635H2.76796H2.75959H2.75123H2.74287H2.73452H2.72619H2.71785H2.70953H2.70122H2.69291H2.68461H2.67632H2.66804H2.65976H2.6515H2.64324H2.63499H2.62675H2.61852H2.6103H2.60208H2.59388H2.58568H2.57749H2.56931H2.56114H2.55297H2.54482H2.53667H2.52854H2.52041H2.51229H2.50418H2.49607H2.48798H2.4799H2.47182H2.46375H2.4557H2.44765H2.43961H2.43158H2.42355H2.41554H2.40754H2.39954H2.39155H2.38358H2.37561H2.36765H2.3597H2.35176H2.34383H2.33591H2.328H2.32009H2.3122H2.30431H2.29644H2.28857H2.28071H2.27287H2.26503H2.2572H2.24938H2.24157H2.23377H2.22598H2.2182H2.21043H2.20267H2.19492H2.18718H2.17944H2.17172H2.16401H2.1563H2.14861H2.14093H2.13325H2.12559H2.11794H2.11029H2.10266H2.09503H2.08742H2.07981H2.07222H2.06463H2.05706H2.0495H2.04194H2.0344H2.02686H2.01934H2.01183H2.00432H1.99683H1.98935H1.98187H1.97441H1.96696H1.95952H1.95209H1.94467H1.93725H1.92985H1.92246H1.91509H1.90772H1.90036H1.89301H1.88567H1.87835H1.87103H1.86373H1.85643H1.84915H1.84187H1.83461H1.82736H1.82012H1.81289H1.80567H1.79846H1.79126H1.78408H1.7769H1.76974H1.76258H1.75544H1.74831H1.74119H1.73408H1.72698H1.71989H1.71281H1.70575H1.69869H1.69165H1.68462H1.6776H1.67059H1.66359H1.6566H1.64963H1.64266H1.63571H1.62877H1.62184H1.61492H1.60801H1.60112H1.59423H1.58736H1.5805H1.57365H1.56681H1.55998H1.55317H1.54637H1.53957H1.53279H1.52603H1.51927H1.51253H1.50579H1.49907H1.49236H1.48566H1.47898H1.47231H1.46564H1.45899H1.45236H1.44573H1.43912H1.43252H1.42593H1.41935H1.41278H1.40623H1.39969H1.39316H1.38664H1.38014H1.37365H1.36717H1.3607H1.35424H1.3478H1.34137H1.33495H1.32854H1.32215H1.31577H1.3094H1.30304H1.2967H1.29037H1.28405H1.27775H1.27145H1.26517H1.2589H1.25265H1.2464H1.24017H1.23396H1.22775H1.22156H1.21538H1.20922H1.20306H1.19692H1.19079H1.18468H1.17858H1.17249H1.16641H1.16035H1.1543H1.14826H1.14224H1.13623H1.13023H1.12425H1.11828H1.11232H1.10638H1.10044H1.09453H1.08862H1.08273H1.07685H1.07099H1.06514H1.0593H1.05347H1.04766H1.04186H1.03608H1.03031H1.02455H1.01881H1.01308H1.00736H1.00166H0.995968H0.990292H0.98463H0.978982H0.973348H0.967727H0.96212H0.956527H0.950947H0.945382H0.93983H0.934292H0.928768H0.923258H0.917763H0.912281H0.906813H0.901359H0.895919H0.890493H0.885081H0.879683H0.8743H0.868931H0.863576H0.858235H0.852908H0.847595H0.842297H0.837013H0.836825C1.17516 18.8169 2.46337 17.75 4 17.75Z"
        stroke="currentColor" stroke-width="1.5" />
    <circle cx="20" cy="14" r="1.25" stroke="currentColor" stroke-width="1.5" />
    <path
        d="M20 17.75C21.5366 17.75 22.8248 18.8169 23.1632 20.25H23.163H23.1577H23.1524H23.1471H23.1418H23.1364H23.1311H23.1257H23.1203H23.1149H23.1095H23.1041H23.0986H23.0932H23.0877H23.0822H23.0767H23.0712H23.0657H23.0602H23.0546H23.0491H23.0435H23.0379H23.0323H23.0267H23.021H23.0154H23.0097H23.004H22.9983H22.9926H22.9869H22.9812H22.9754H22.9697H22.9639H22.9581H22.9523H22.9465H22.9407H22.9349H22.929H22.9231H22.9173H22.9114H22.9055H22.8996H22.8936H22.8877H22.8817H22.8758H22.8698H22.8638H22.8578H22.8517H22.8457H22.8396H22.8336H22.8275H22.8214H22.8153H22.8092H22.8031H22.7969H22.7908H22.7846H22.7784H22.7722H22.766H22.7598H22.7536H22.7474H22.7411H22.7348H22.7285H22.7223H22.7159H22.7096H22.7033H22.697H22.6906H22.6842H22.6778H22.6715H22.665H22.6586H22.6522H22.6458H22.6393H22.6328H22.6264H22.6199H22.6134H22.6068H22.6003H22.5938H22.5872H22.5807H22.5741H22.5675H22.5609H22.5543H22.5476H22.541H22.5344H22.5277H22.521H22.5143H22.5076H22.5009H22.4942H22.4875H22.4807H22.474H22.4672H22.4604H22.4536H22.4468H22.44H22.4332H22.4264H22.4195H22.4126H22.4058H22.3989H22.392H22.3851H22.3782H22.3712H22.3643H22.3573H22.3504H22.3434H22.3364H22.3294H22.3224H22.3154H22.3083H22.3013H22.2943H22.2872H22.2801H22.273H22.2659H22.2588H22.2517H22.2446H22.2374H22.2303H22.2231H22.2159H22.2087H22.2015H22.1943H22.1871H22.1799H22.1726H22.1654H22.1581H22.1509H22.1436H22.1363H22.129H22.1217H22.1143H22.107H22.0996H22.0923H22.0849H22.0775H22.0701H22.0627H22.0553H22.0479H22.0405H22.033H22.0256H22.0181H22.0107H22.0032H21.9957H21.9882H21.9807H21.9731H21.9656H21.9581H21.9505H21.9429H21.9354H21.9278H21.9202H21.9126H21.905H21.8973H21.8897H21.8821H21.8744H21.8667H21.8591H21.8514H21.8437H21.836H21.8283H21.8206H21.8128H21.8051H21.7973H21.7896H21.7818H21.774H21.7662H21.7584H21.7506H21.7428H21.735H21.7271H21.7193H21.7114H21.7036H21.6957H21.6878H21.6799H21.672H21.6641H21.6562H21.6482H21.6403H21.6323H21.6244H21.6164H21.6084H21.6005H21.5925H21.5845H21.5764H21.5684H21.5604H21.5524H21.5443H21.5362H21.5282H21.5201H21.512H21.5039H21.4958H21.4877H21.4796H21.4715H21.4633H21.4552H21.447H21.4389H21.4307H21.4225H21.4143H21.4061H21.3979H21.3897H21.3815H21.3732H21.365H21.3568H21.3485H21.3402H21.332H21.3237H21.3154H21.3071H21.2988H21.2905H21.2821H21.2738H21.2655H21.2571H21.2488H21.2404H21.232H21.2237H21.2153H21.2069H21.1985H21.1901H21.1816H21.1732H21.1648H21.1563H21.1479H21.1394H21.1309H21.1225H21.114H21.1055H21.097H21.0885H21.08H21.0715H21.0629H21.0544H21.0458H21.0373H21.0287H21.0202H21.0116H21.003H20.9944H20.9858H20.9772H20.9686H20.96H20.9514H20.9427H20.9341H20.9254H20.9168H20.9081H20.8995H20.8908H20.8821H20.8734H20.8647H20.856H20.8473H20.8386H20.8298H20.8211H20.8124H20.8036H20.7949H20.7861H20.7773H20.7686H20.7598H20.751H20.7422H20.7334H20.7246H20.7158H20.7069H20.6981H20.6893H20.6804H20.6716H20.6627H20.6539H20.645H20.6361H20.6272H20.6184H20.6095H20.6006H20.5917H20.5827H20.5738H20.5649H20.556H20.547H20.5381H20.5291H20.5202H20.5112H20.5022H20.4933H20.4843H20.4753H20.4663H20.4573H20.4483H20.4393H20.4303H20.4212H20.4122H20.4032H20.3941H20.3851H20.376H20.367H20.3579H20.3488H20.3397H20.3307H20.3216H20.3125H20.3034H20.2943H20.2851H20.276H20.2669H20.2578H20.2486H20.2395H20.2304H20.2212H20.2121H20.2029H20.1937H20.1845H20.1754H20.1662H20.157H20.1478H20.1386H20.1294H20.1202H20.111H20.1018H20.0925H20.0833H20.0741H20.0648H20.0556H20.0463H20.0371H20.0278H20.0185H20.0093H20H19.9907H19.9815H19.9722H19.9629H19.9537H19.9444H19.9352H19.9259H19.9167H19.9075H19.8982H19.889H19.8798H19.8706H19.8614H19.8522H19.843H19.8338H19.8246H19.8155H19.8063H19.7971H19.7879H19.7788H19.7696H19.7605H19.7514H19.7422H19.7331H19.724H19.7149H19.7057H19.6966H19.6875H19.6784H19.6693H19.6603H19.6512H19.6421H19.633H19.624H19.6149H19.6059H19.5968H19.5878H19.5788H19.5697H19.5607H19.5517H19.5427H19.5337H19.5247H19.5157H19.5067H19.4978H19.4888H19.4798H19.4709H19.4619H19.453H19.444H19.4351H19.4262H19.4173H19.4083H19.3994H19.3905H19.3816H19.3728H19.3639H19.355H19.3461H19.3373H19.3284H19.3196H19.3107H19.3019H19.2931H19.2842H19.2754H19.2666H19.2578H19.249H19.2402H19.2314H19.2227H19.2139H19.2051H19.1964H19.1876H19.1789H19.1702H19.1614H19.1527H19.144H19.1353H19.1266H19.1179H19.1092H19.1005H19.0919H19.0832H19.0746H19.0659H19.0573H19.0486H19.04H19.0314H19.0228H19.0142H19.0056H18.997H18.9884H18.9798H18.9713H18.9627H18.9542H18.9456H18.9371H18.9285H18.92H18.9115H18.903H18.8945H18.886H18.8775H18.8691H18.8606H18.8521H18.8437H18.8352H18.8268H18.8184H18.8099H18.8015H18.7931H18.7847H18.7763H18.768H18.7596H18.7512H18.7429H18.7345H18.7262H18.7179H18.7095H18.7012H18.6929H18.6846H18.6763H18.668H18.6598H18.6515H18.6432H18.635H18.6268H18.6185H18.6103H18.6021H18.5939H18.5857H18.5775H18.5693H18.5611H18.553H18.5448H18.5367H18.5285H18.5204H18.5123H18.5042H18.4961H18.488H18.4799H18.4718H18.4638H18.4557H18.4476H18.4396H18.4316H18.4236H18.4155H18.4075H18.3995H18.3916H18.3836H18.3756H18.3677H18.3597H18.3518H18.3438H18.3359H18.328H18.3201H18.3122H18.3043H18.2964H18.2886H18.2807H18.2729H18.265H18.2572H18.2494H18.2416H18.2338H18.226H18.2182H18.2104H18.2027H18.1949H18.1872H18.1794H18.1717H18.164H18.1563H18.1486H18.1409H18.1333H18.1256H18.1179H18.1103H18.1027H18.095H18.0874H18.0798H18.0722H18.0646H18.0571H18.0495H18.0419H18.0344H18.0269H18.0193H18.0118H18.0043H17.9968H17.9893H17.9819H17.9744H17.967H17.9595H17.9521H17.9447H17.9373H17.9299H17.9225H17.9151H17.9077H17.9004H17.893H17.8857H17.8783H17.871H17.8637H17.8564H17.8491H17.8419H17.8346H17.8274H17.8201H17.8129H17.8057H17.7985H17.7913H17.7841H17.7769H17.7697H17.7626H17.7554H17.7483H17.7412H17.7341H17.727H17.7199H17.7128H17.7057H17.6987H17.6917H17.6846H17.6776H17.6706H17.6636H17.6566H17.6496H17.6427H17.6357H17.6288H17.6218H17.6149H17.608H17.6011H17.5942H17.5874H17.5805H17.5736H17.5668H17.56H17.5532H17.5464H17.5396H17.5328H17.526H17.5193H17.5125H17.5058H17.4991H17.4924H17.4857H17.479H17.4723H17.4656H17.459H17.4524H17.4457H17.4391H17.4325H17.4259H17.4193H17.4128H17.4062H17.3997H17.3932H17.3866H17.3801H17.3736H17.3672H17.3607H17.3542H17.3478H17.3414H17.335H17.3285H17.3222H17.3158H17.3094H17.303H17.2967H17.2904H17.2841H17.2777H17.2715H17.2652H17.2589H17.2526H17.2464H17.2402H17.234H17.2278H17.2216H17.2154H17.2092H17.2031H17.1969H17.1908H17.1847H17.1786H17.1725H17.1664H17.1604H17.1543H17.1483H17.1422H17.1362H17.1302H17.1242H17.1183H17.1123H17.1064H17.1004H17.0945H17.0886H17.0827H17.0769H17.071H17.0651H17.0593H17.0535H17.0477H17.0419H17.0361H17.0303H17.0246H17.0188H17.0131H17.0074H17.0017H16.996H16.9903H16.9846H16.979H16.9733H16.9677H16.9621H16.9565H16.9509H16.9454H16.9398H16.9343H16.9288H16.9233H16.9178H16.9123H16.9068H16.9014H16.8959H16.8905H16.8851H16.8797H16.8743H16.8689H16.8636H16.8582H16.8529H16.8476H16.8423H16.837H16.8368C17.1752 18.8169 18.4634 17.75 20 17.75Z"
        stroke="currentColor" stroke-width="1.5" />
    <path fill-rule="evenodd" clip-rule="evenodd"
        d="M12.75 13.6395L14.9685 15.4143C15.292 15.6731 15.3444 16.1451 15.0857 16.4685C14.8269 16.792 14.355 16.8444 14.0315 16.5857L12 14.9605L9.96855 16.5857C9.6451 16.8444 9.17313 16.792 8.91438 16.4685C8.65562 16.1451 8.70806 15.6731 9.03151 15.4143L11.25 13.6395V12H12.75V13.6395Z"
        fill="currentColor" />
</svg>