<svg viewBox="0 0 24 24" fill="none" xmlns="http://www.w3.org/2000/svg">
    <g clip-path="url(#prefix__prefix__clip0_586_16691)">
        <path
            d="M14.469 14.124c-.839-.953-1.903-1.713-3.127-2.147.939-.796 1.578-2.011 1.578-3.335 0-2.283-1.88-4.28-4.04-4.28-2.162 0-4.04 1.997-4.04 4.28 0 1.324.639 2.54 1.579 3.336-2.87 1.021-4.94 3.764-4.94 6.984 0 .375.306.68.68.68h19.68a.68.68 0 00.68-.68 5.498 5.498 0 00-3.378-5.063 3.38 3.38 0 00.979-2.376c0-1.751-1.419-3.32-3.08-3.32-1.662 0-3.08 1.569-3.08 3.32 0 .927.38 1.773.982 2.38-.16.066-.317.138-.473.221zm.85-2.601c0-.453.19-.948.51-1.33.317-.382.745-.63 1.21-.63.466 0 .894.248 1.212.63.319.382.509.877.509 1.33 0 .452-.19.947-.509 1.33-.318.38-.746.63-1.211.63-.466 0-.894-.25-1.212-.63-.318-.383-.508-.878-.508-1.33zM6.2 8.643c0-.68.286-1.415.771-1.98.484-.562 1.152-.94 1.91-.94.757 0 1.425.378 1.909.94.485.565.77 1.3.77 1.98 0 .68-.285 1.414-.77 1.978-.484.563-1.152.941-1.91.941-.757 0-1.425-.378-1.909-.94-.485-.565-.77-1.3-.77-1.98zm8.677 9.64H2.883c.334-3.01 2.91-5.36 5.997-5.36a6.034 6.034 0 015.996 5.36zm6.23 0h-4.865a7.074 7.074 0 00-.98-3.033 4.118 4.118 0 015.845 3.033z"
            fill="currentColor" stroke="currentColor" stroke-width=".4" />
        <path d="M260.158-189.603v404.16h-428.16v-404.16h428.16zm1.92-1.92h-432v408h432v-408z" fill="#00F" />
    </g>
</svg>