<svg viewBox="0 0 24 24" fill="none" xmlns="http://www.w3.org/2000/svg">
    <path fill-rule="evenodd" clip-rule="evenodd"
        d="M12.7534 1.31641C12.7534 0.902193 12.4176 0.566406 12.0034 0.566406C11.5892 0.566406 11.2534 0.902193 11.2534 1.31641V6.06443C11.2534 6.47865 11.5892 6.81443 12.0034 6.81443C12.4176 6.81443 12.7534 6.47865 12.7534 6.06443V1.31641ZM5.69531 5.31519C4.17653 5.31519 2.94531 6.5464 2.94531 8.06519V20.6833C2.94531 22.2021 4.17653 23.4333 5.69531 23.4333H18.3134C19.8322 23.4333 21.0634 22.2021 21.0634 20.6833V8.06518C21.0634 6.5464 19.8322 5.31519 18.3134 5.31519H15.5352H14.903L14.7967 5.93434L14.7966 5.93463L14.7965 5.9351L14.7965 5.93521L14.7941 5.94758C14.7913 5.96086 14.7864 5.9837 14.7789 6.01471C14.7637 6.07694 14.7383 6.17093 14.6993 6.28595C14.6206 6.51833 14.491 6.82328 14.2892 7.12314C13.8994 7.70248 13.2453 8.26853 12.0678 8.26853C10.9742 8.26853 10.2284 7.70089 9.72467 7.0727C9.47218 6.75778 9.29157 6.43925 9.17431 6.19837C9.11613 6.07885 9.07473 5.9809 9.04876 5.91546C9.03581 5.88281 9.02678 5.85847 9.02149 5.84381L9.01637 5.82934L9.0161 5.82855L9.01588 5.82793L8.84704 5.31519H8.3044H5.69531ZM4.44531 8.06519C4.44531 7.37483 5.00496 6.81519 5.69531 6.81519H7.80646L7.82563 6.85492C7.97794 7.1678 8.2149 7.5876 8.55439 8.01102C9.2347 8.8595 10.3706 9.76853 12.0678 9.76853C13.8503 9.76853 14.9299 8.85791 15.5337 7.96058C15.8144 7.5435 15.993 7.13103 16.1035 6.81519H18.3134C19.0038 6.81519 19.5634 7.37483 19.5634 8.06518V20.6833C19.5634 21.3736 19.0038 21.9333 18.3134 21.9333H5.69531C5.00496 21.9333 4.44531 21.3736 4.44531 20.6833V8.06519Z"
        fill="currentColor" />
    <path
        d="M11.9182 15.4721C12.9991 15.4721 13.8754 14.471 13.8754 13.2361C13.8754 12.0011 12.9991 11 11.9182 11C10.8372 11 9.96094 12.0011 9.96094 13.2361C9.96094 14.471 10.8372 15.4721 11.9182 15.4721Z"
        fill="currentColor" />
    <path
        d="M15.8289 18.78C15.8289 20.1384 13.8362 19.6744 11.9145 19.6744C9.99278 19.6744 8 20.1384 8 18.78C8 17.4215 9.99278 16.3203 11.9145 16.3203C13.8362 16.3203 15.8289 17.4215 15.8289 18.78Z"
        fill="currentColor" />
</svg>