<svg viewBox="0 0 201 181" fill="none" xmlns="http://www.w3.org/2000/svg">
    <path
        d="M133.785 48.8535C133.462 48.0866 132.922 47.4312 132.23 46.9685C131.538 46.5057 130.726 46.2559 129.894 46.25H52.211C51.0944 46.2506 50.0236 46.6944 49.234 47.4839C48.4445 48.2733 48.0006 49.3439 48 50.4604V148.722C48.0006 149.839 48.4445 150.909 49.234 151.699C50.0236 152.488 51.0944 152.932 52.211 152.932H129.896C131.013 152.931 132.083 152.487 132.872 151.698C133.662 150.908 134.106 149.838 134.107 148.722V50.4604C134.109 49.9088 134.001 49.3625 133.788 48.8535H133.785ZM133.169 148.722C133.168 149.59 132.823 150.423 132.209 151.037C131.595 151.651 130.762 151.996 129.894 151.997H52.211C51.3423 151.997 50.5093 151.652 49.895 151.038C49.2807 150.424 48.9354 149.591 48.9351 148.723V50.461C48.9363 49.5926 49.2818 48.7602 49.8959 48.1462C50.51 47.5322 51.3426 47.1868 52.211 47.1856H129.896C130.551 47.1881 131.189 47.3854 131.731 47.7524C132.272 48.1193 132.692 48.6393 132.937 49.246C132.985 49.3669 133.026 49.4902 133.06 49.6155C133.135 49.8912 133.172 50.1755 133.172 50.461L133.169 148.722Z"
        fill="#3F3D56" />
    <path
        d="M117.574 69.449H94.1747C93.6783 69.449 93.2021 69.2518 92.851 68.9008C92.5 68.5498 92.3027 68.0737 92.3027 67.5773C92.3027 67.0809 92.5 66.6048 92.851 66.2538C93.2021 65.9028 93.6783 65.7056 94.1747 65.7056H117.574C118.07 65.7056 118.546 65.9028 118.898 66.2538C119.249 66.6048 119.446 67.0809 119.446 67.5773C119.446 68.0737 119.249 68.5498 118.898 68.9008C118.546 69.2518 118.07 69.449 117.574 69.449Z"
        fill="#3F3D56" />
    <path
        d="M117.574 79.2752H94.1753C93.9292 79.2755 93.6855 79.2274 93.4581 79.1334C93.2307 79.0395 93.0241 78.9017 92.85 78.7279C92.6759 78.554 92.5378 78.3476 92.4435 78.1203C92.3493 77.8931 92.3008 77.6495 92.3008 77.4035C92.3008 77.1575 92.3493 76.9139 92.4435 76.6866C92.5378 76.4594 92.6759 76.2529 92.85 76.0791C93.0241 75.9052 93.2307 75.7674 93.4581 75.6735C93.6855 75.5796 93.9292 75.5314 94.1753 75.5317H117.574C117.82 75.5314 118.064 75.5796 118.292 75.6735C118.519 75.7674 118.726 75.9052 118.9 76.0791C119.074 76.2529 119.212 76.4594 119.306 76.6866C119.4 76.9139 119.449 77.1575 119.449 77.4035C119.449 77.6495 119.4 77.8931 119.306 78.1203C119.212 78.3476 119.074 78.554 118.9 78.7279C118.726 78.9017 118.519 79.0395 118.292 79.1334C118.064 79.2274 117.82 79.2755 117.574 79.2752Z"
        fill="#3F3D56" />
    <path
        d="M82.1689 84.8703H65.0689C64.5106 84.8697 63.9752 84.6477 63.5804 84.2529C63.1856 83.8582 62.9635 83.3229 62.9629 82.7646V62.5882C62.9635 62.0299 63.1856 61.4946 63.5804 61.0998C63.9752 60.7051 64.5106 60.483 65.0689 60.4824H82.1689C82.7273 60.483 83.2626 60.7051 83.6575 61.0998C84.0523 61.4946 84.2744 62.0299 84.275 62.5882V82.7646C84.2744 83.3229 84.0523 83.8582 83.6575 84.2529C83.2626 84.6477 82.7273 84.8697 82.1689 84.8703Z"
        fill="#4CC3C7" />
    <path
        d="M117.412 99.3958H64.5302C64.0337 99.3958 63.5576 99.1986 63.2065 98.8476C62.8554 98.4966 62.6582 98.0205 62.6582 97.5241C62.6582 97.0277 62.8554 96.5516 63.2065 96.2006C63.5576 95.8495 64.0337 95.6523 64.5302 95.6523H117.412C117.909 95.6523 118.385 95.8495 118.736 96.2006C119.087 96.5516 119.284 97.0277 119.284 97.5241C119.284 98.0205 119.087 98.4966 118.736 98.8476C118.385 99.1986 117.909 99.3958 117.412 99.3958Z"
        fill="#CCCCCC" />
    <path
        d="M117.412 109.222H64.5302C64.0337 109.222 63.5576 109.025 63.2065 108.674C62.8554 108.323 62.6582 107.847 62.6582 107.35C62.6582 106.854 62.8554 106.378 63.2065 106.027C63.5576 105.676 64.0337 105.479 64.5302 105.479H117.412C117.909 105.479 118.385 105.676 118.736 106.027C119.087 106.378 119.284 106.854 119.284 107.35C119.284 107.847 119.087 108.323 118.736 108.674C118.385 109.025 117.909 109.222 117.412 109.222Z"
        fill="#CCCCCC" />
    <path
        d="M117.411 119.048H64.5296C64.0336 119.047 63.5581 118.85 63.2076 118.499C62.857 118.148 62.6602 117.672 62.6602 117.176C62.6602 116.68 62.857 116.205 63.2076 115.854C63.5581 115.503 64.0336 115.305 64.5296 115.305H117.411C117.658 115.304 117.901 115.353 118.129 115.446C118.356 115.54 118.563 115.678 118.737 115.852C118.911 116.026 119.049 116.232 119.143 116.46C119.237 116.687 119.286 116.93 119.286 117.176C119.286 117.422 119.237 117.666 119.143 117.893C119.049 118.121 118.911 118.327 118.737 118.501C118.563 118.675 118.356 118.812 118.129 118.906C117.901 119 117.658 119.048 117.411 119.048Z"
        fill="#CCCCCC" />
    <path
        d="M117.412 128.874H64.5302C64.0337 128.874 63.5576 128.677 63.2065 128.326C62.8554 127.975 62.6582 127.499 62.6582 127.003C62.6582 126.506 62.8554 126.03 63.2065 125.679C63.5576 125.328 64.0337 125.131 64.5302 125.131H117.412C117.909 125.131 118.385 125.328 118.736 125.679C119.087 126.03 119.284 126.506 119.284 127.003C119.284 127.499 119.087 127.975 118.736 128.326C118.385 128.677 117.909 128.874 117.412 128.874Z"
        fill="#CCCCCC" />
    <path
        d="M117.412 138.7H64.5302C64.0337 138.7 63.5576 138.503 63.2065 138.152C62.8554 137.801 62.6582 137.325 62.6582 136.829C62.6582 136.332 62.8554 135.856 63.2065 135.505C63.5576 135.154 64.0337 134.957 64.5302 134.957H117.412C117.909 134.957 118.385 135.154 118.736 135.505C119.087 135.856 119.284 136.332 119.284 136.829C119.284 137.325 119.087 137.801 118.736 138.152C118.385 138.503 117.909 138.7 117.412 138.7Z"
        fill="#CCCCCC" />
    <path
        d="M134.366 65.1267C144.343 65.1267 152.432 57.0395 152.432 47.0634C152.432 37.0872 144.343 29 134.366 29C124.388 29 116.3 37.0872 116.3 47.0634C116.3 57.0395 124.388 65.1267 134.366 65.1267Z"
        fill="#4CC3C7" />
    <path
        d="M132.576 53.9539C132.17 53.9546 131.774 53.8231 131.449 53.5793L131.429 53.5642L127.183 50.3168C126.987 50.1661 126.822 49.9781 126.698 49.7636C126.574 49.5491 126.493 49.3123 126.461 49.0667C126.428 48.8211 126.444 48.5715 126.508 48.3322C126.572 48.0928 126.683 47.8685 126.834 47.6718C126.984 47.4752 127.173 47.3102 127.387 47.1863C127.602 47.0623 127.838 46.9818 128.084 46.9494C128.33 46.9169 128.579 46.9332 128.819 46.9972C129.058 47.0612 129.282 47.1717 129.479 47.3225L132.229 49.4311L138.728 40.9542C138.878 40.7577 139.066 40.5928 139.281 40.4689C139.495 40.345 139.732 40.2645 139.977 40.2321C140.223 40.1996 140.472 40.2159 140.712 40.2799C140.951 40.3439 141.175 40.4543 141.372 40.605L141.372 40.6054L141.332 40.6614L141.373 40.6054C141.77 40.9101 142.029 41.3597 142.095 41.8555C142.16 42.3512 142.026 42.8527 141.722 43.2498L134.079 53.2159C133.902 53.4456 133.675 53.6314 133.414 53.759C133.154 53.8865 132.868 53.9525 132.578 53.9516L132.576 53.9539Z"
        fill="currentColor" />
</svg>