<svg viewBox="0 0 16 16" fill="none" xmlns="http://www.w3.org/2000/svg">
    <path
        d="M9.33464 1.51167V4.26537C9.33464 4.63873 9.33464 4.82542 9.4073 4.96802C9.47121 5.09347 9.5732 5.19545 9.69864 5.25937C9.84125 5.33203 10.0279 5.33203 10.4013 5.33203H13.155M13.3346 6.65751V11.4654C13.3346 12.5855 13.3346 13.1455 13.1166 13.5733C12.9249 13.9497 12.6189 14.2556 12.2426 14.4474C11.8148 14.6654 11.2547 14.6654 10.1346 14.6654H5.86797C4.74786 14.6654 4.18781 14.6654 3.75999 14.4474C3.38366 14.2556 3.0777 13.9497 2.88596 13.5733C2.66797 13.1455 2.66797 12.5855 2.66797 11.4654V4.53203C2.66797 3.41193 2.66797 2.85187 2.88596 2.42405C3.0777 2.04773 3.38366 1.74176 3.75999 1.55002C4.18781 1.33203 4.74786 1.33203 5.86797 1.33203H8.00915C8.49833 1.33203 8.74292 1.33203 8.9731 1.38729C9.17717 1.43628 9.37226 1.51709 9.5512 1.62675C9.75304 1.75043 9.92599 1.92339 10.2719 2.26929L12.3974 4.39477C12.7433 4.74068 12.9162 4.91363 13.0399 5.11546C13.1496 5.29441 13.2304 5.4895 13.2794 5.69357C13.3346 5.92374 13.3346 6.16833 13.3346 6.65751Z"
        stroke="currentColor" stroke-width="1.33333" stroke-linecap="round" stroke-linejoin="round" />
</svg>