<svg viewBox="0 0 20 20" fill="none" xmlns="http://www.w3.org/2000/svg">
<path fill-rule="evenodd" clip-rule="evenodd" d="M4.2705 9.83497C2.64331 11.4622 2.64331 14.1003 4.2705 15.7275L4.43322 15.8902C5.97053 17.4276 8.46302 17.4276 10.0003 15.8902C10.3258 15.5648 10.3258 15.0372 10.0003 14.7117C9.6749 14.3863 9.14726 14.3863 8.82182 14.7117C7.93538 15.5982 6.49817 15.5982 5.61173 14.7117L5.44901 14.549C4.4727 13.5727 4.4727 11.9898 5.44901 11.0135L11.0212 5.44126C11.9947 4.46777 13.5731 4.46777 14.5466 5.44126C15.52 6.41475 15.52 7.99309 14.5466 8.96658L12.0067 11.5064C11.6523 11.8608 11.0778 11.8608 10.7234 11.5064C10.369 11.152 10.369 10.5774 10.7234 10.223L13.2244 7.72203C13.5498 7.39659 13.5498 6.86895 13.2244 6.54351C12.899 6.21808 12.3713 6.21808 12.0459 6.54351L9.54486 9.04453C8.5396 10.0498 8.5396 11.6797 9.54486 12.6849C10.5501 13.6902 12.18 13.6902 13.1852 12.6849L15.7251 10.1451C17.3494 8.52072 17.3494 5.88711 15.7251 4.26274C14.1007 2.63838 11.4671 2.63838 9.84272 4.26275L4.2705 9.83497Z" fill="currentColor"/>
</svg>
