<svg viewBox="0 0 20 20" fill="none" xmlns="http://www.w3.org/2000/svg">
<path d="M3 7.25C3 5.73122 4.23122 4.5 5.75 4.5H14.25C15.7688 4.5 17 5.73122 17 7.25V9.75C17 10.1642 16.6642 10.5 16.25 10.5C15.8358 10.5 15.5 10.1642 15.5 9.75V7.25C15.5 6.55964 14.9404 6 14.25 6H5.75C5.05964 6 4.5 6.55964 4.5 7.25V12.75C4.5 13.4404 5.05964 14 5.75 14H10C10.4142 14 10.75 14.3358 10.75 14.75C10.75 15.1642 10.4142 15.5 10 15.5H5.75C4.23122 15.5 3 14.2688 3 12.75V7.25Z" fill="currentColor"/>
<path d="M6.56716 7.57054C6.19181 7.39538 5.74552 7.55766 5.57036 7.93301C5.39519 8.30837 5.55748 8.75465 5.93283 8.92982L9.47139 10.5811C9.80645 10.7375 10.1935 10.7375 10.5286 10.5811L14.0672 8.92982C14.4425 8.75465 14.6048 8.30837 14.4296 7.93301C14.2545 7.55766 13.8082 7.39538 13.4328 7.57054L10 9.17253L6.56716 7.57054Z" fill="currentColor"/>
<path d="M18 14.25C18 13.8358 17.6642 13.5 17.25 13.5H14.3107L15.0303 12.7803C15.3232 12.4874 15.3232 12.0126 15.0303 11.7197C14.7374 11.4268 14.2626 11.4268 13.9697 11.7197L11.9697 13.7197C11.6768 14.0126 11.6768 14.4874 11.9697 14.7803L13.9697 16.7803C14.2626 17.0732 14.7374 17.0732 15.0303 16.7803C15.3232 16.4874 15.3232 16.0126 15.0303 15.7197L14.3107 15H17.25C17.6642 15 18 14.6642 18 14.25Z" fill="currentColor"/>
</svg>
