<svg viewBox="0 0 24 24" fill="none" xmlns="http://www.w3.org/2000/svg">
    <path
        d="M5.5 4.73438H17.6336C19.6162 4.73438 21.2234 6.2767 21.2234 8.17926V14.8131C21.2234 16.0419 20.553 17.1204 19.544 17.7302"
        stroke="currentColor" stroke-width="1.5" stroke-miterlimit="10" stroke-linecap="round" />
    <path d="M8 10L11.7749 11.9395C12.5442 12.3529 13.4878 12.3529 14.257 11.9395L21.2211 8.17969" stroke="currentColor"
        stroke-width="1.5" stroke-miterlimit="10" stroke-linecap="round" />
    <path
        d="M17 17.2659C17 17.5363 16.9399 17.8142 16.8122 18.0846C16.6845 18.355 16.5193 18.6104 16.3015 18.8508C15.9334 19.2564 15.5278 19.5493 15.0696 19.7371C14.6189 19.9249 14.1307 20.0225 13.6049 20.0225C12.8388 20.0225 12.02 19.8423 11.1562 19.4742C10.2924 19.1062 9.42864 18.6104 8.57236 17.987C7.70856 17.356 6.88983 16.6575 6.10866 15.8838C5.335 15.1027 4.63645 14.2839 4.01302 13.4276C3.3971 12.5714 2.90135 11.7151 2.54081 10.8663C2.18027 10.01 2 9.19129 2 8.41012C2 7.89935 2.09014 7.41112 2.27041 6.96044C2.45068 6.50225 2.7361 6.08162 3.1342 5.70606C3.61492 5.23285 4.14071 5 4.69654 5C4.90686 5 5.11718 5.04507 5.30496 5.1352C5.50025 5.22534 5.67301 5.36054 5.80821 5.55583L7.55083 8.01202C7.68603 8.1998 7.78368 8.37256 7.85128 8.53781C7.91888 8.69554 7.95644 8.85328 7.95644 8.99599C7.95644 9.17626 7.90386 9.35653 7.7987 9.52929C7.70105 9.70205 7.55834 9.88232 7.37807 10.0626L6.80721 10.656C6.72459 10.7386 6.68703 10.8363 6.68703 10.9564C6.68703 11.0165 6.69454 11.0691 6.70956 11.1292C6.7321 11.1893 6.75463 11.2344 6.76965 11.2794C6.90486 11.5273 7.13771 11.8503 7.4682 12.2409C7.80621 12.6314 8.16675 13.0295 8.55734 13.4276C8.96294 13.8257 9.35353 14.1938 9.75163 14.5318C10.1422 14.8623 10.4652 15.0876 10.7206 15.2228C10.7581 15.2379 10.8032 15.2604 10.8558 15.2829C10.9159 15.3055 10.976 15.313 11.0436 15.313C11.1713 15.313 11.2689 15.2679 11.3515 15.1853L11.9224 14.6219C12.1102 14.4342 12.2904 14.2914 12.4632 14.2013C12.636 14.0961 12.8087 14.0436 12.9965 14.0436C13.1392 14.0436 13.2894 14.0736 13.4547 14.1412C13.6199 14.2088 13.7927 14.3065 13.9805 14.4342L16.4667 16.1993C16.662 16.3345 16.7972 16.4922 16.8798 16.68C16.9549 16.8678 17 17.0556 17 17.2659Z"
        stroke="currentColor" stroke-width="1.5" stroke-miterlimit="10" />
</svg>