<svg viewBox="0 0 20 20" fill="none" xmlns="http://www.w3.org/2000/svg">
<path fill-rule="evenodd" clip-rule="evenodd" d="M10.038 10.5802C11.23 10.5802 12.1964 9.47617 12.1964 8.11431C12.1964 6.75245 11.23 5.64844 10.038 5.64844C8.84593 5.64844 7.87959 6.75245 7.87959 8.11431C7.87959 9.47617 8.84593 10.5802 10.038 10.5802ZM7.11396 9.60697C7.11396 10.6826 6.35072 11.5546 5.40922 11.5546C4.46772 11.5546 3.70448 10.6826 3.70448 9.60697C3.70448 8.53134 4.46772 7.65938 5.40922 7.65938C6.35072 7.65938 7.11396 8.53134 7.11396 9.60697ZM6.79213 12.5024C7.62876 11.8989 8.84634 11.5143 10.0391 11.5143C11.221 11.5143 12.4274 11.892 13.2632 12.486C13.6871 12.3617 14.1414 12.2925 14.5913 12.2925C16.2651 12.2925 18.0008 13.2516 18.0008 14.4348C18.0008 15.3684 16.9203 15.3137 15.6422 15.2491C15.3004 15.2318 14.9444 15.2138 14.5913 15.2138C14.2381 15.2138 13.8822 15.2318 13.5404 15.2491C13.4055 15.2559 13.2727 15.2626 13.1433 15.2681C12.6433 15.3221 12.0271 15.291 11.3696 15.2577C10.9369 15.2358 10.4862 15.2131 10.0391 15.2131C9.59195 15.2131 9.14131 15.2358 8.70856 15.2577C8.07186 15.2899 7.47389 15.3201 6.98274 15.273C6.81409 15.267 6.63916 15.2582 6.46037 15.2491C6.11857 15.2318 5.76265 15.2138 5.40948 15.2138C5.05632 15.2138 4.70039 15.2318 4.3586 15.2491C3.08051 15.3137 2 15.3684 2 14.4348C2 13.2516 3.7357 12.2925 5.40948 12.2925C5.8787 12.2925 6.35279 12.3678 6.79213 12.5024ZM14.591 11.5546C15.5325 11.5546 16.2958 10.6826 16.2958 9.60697C16.2958 8.53134 15.5325 7.65938 14.591 7.65938C13.6495 7.65938 12.8863 8.53134 12.8863 9.60697C12.8863 10.6826 13.6495 11.5546 14.591 11.5546Z" fill="currentColor"/>
</svg>
