<svg viewBox="0 0 32 32" fill="none" xmlns="http://www.w3.org/2000/svg">
    <rect width="32" height="32" rx="4" fill="#A76706" fill-opacity="0.1" />
    <path
        d="M9.25881 6H22.7421C23.1904 6 23.5604 6.36916 23.5604 6.87273V7.74545H8.43868V6.87273C8.43868 6.36916 8.8105 6 9.25881 6ZM6.1633 8.61818H25.8385L28 14.3459C27.9906 14.5701 27.9222 14.7881 27.8016 14.9787C27.681 15.1693 27.5123 15.3262 27.3117 15.434C27.1112 15.5418 26.8856 15.597 26.657 15.5941C26.4283 15.5912 26.2043 15.5304 26.0066 15.4176C25.8036 15.3028 25.6351 15.1376 25.518 14.9386C25.4009 14.7396 25.3393 14.5138 25.3395 14.2839C25.3395 14.2691 25.3395 14.2543 25.3377 14.2403C25.332 14.1822 25.3147 14.1258 25.2866 14.0744C25.2586 14.0229 25.2204 13.9775 25.1743 13.9406C25.1282 13.9038 25.0751 13.8763 25.0181 13.8597C24.9611 13.8431 24.9013 13.8378 24.8422 13.8441C24.7761 13.8522 24.7127 13.8747 24.6565 13.9099C24.6004 13.945 24.5529 13.992 24.5175 14.0474L24.5158 14.0492C24.4741 14.1211 24.4515 14.2021 24.4499 14.2848C24.4503 14.5147 24.3889 14.7407 24.2719 14.9399C24.1548 15.1391 23.9863 15.3045 23.7833 15.4193C23.5803 15.5342 23.35 15.5946 23.1157 15.5943C22.8813 15.594 22.6512 15.533 22.4485 15.4176C22.2457 15.3029 22.0773 15.1378 21.9602 14.939C21.843 14.7401 21.7814 14.5145 21.7814 14.2848C21.7814 14.27 21.7814 14.2551 21.7796 14.2403C21.7739 14.1823 21.7564 14.126 21.7283 14.0747C21.7002 14.0233 21.6621 13.978 21.616 13.9412C21.5699 13.9044 21.5168 13.877 21.4599 13.8605C21.4029 13.8439 21.3432 13.8387 21.2842 13.8449C21.2181 13.853 21.1548 13.8753 21.0986 13.9104C21.0425 13.9454 20.9949 13.9922 20.9595 14.0474L20.9577 14.0492C20.9157 14.121 20.8928 14.202 20.891 14.2848C20.8915 14.5148 20.8302 14.7409 20.7132 14.9402C20.5963 15.1395 20.4278 15.305 20.2247 15.42C20.0217 15.535 19.7914 15.5954 19.557 15.5951C19.3225 15.5949 19.0923 15.5339 18.8896 15.4185C18.6865 15.3036 18.5179 15.1383 18.4008 14.9391C18.2836 14.7399 18.2221 14.5139 18.2225 14.2839C18.2225 14.27 18.2225 14.2551 18.2207 14.2403C18.2149 14.1824 18.1975 14.1262 18.1695 14.0749C18.1414 14.0236 18.1033 13.9783 18.0573 13.9415C18.0114 13.9048 17.9584 13.8773 17.9016 13.8607C17.8447 13.8442 17.7851 13.8388 17.7261 13.8449C17.6598 13.853 17.5962 13.8754 17.5399 13.9106C17.4836 13.9457 17.436 13.9928 17.4005 14.0483L17.3988 14.05C17.3571 14.1219 17.3345 14.203 17.3329 14.2857C17.3333 14.5156 17.2719 14.7416 17.1548 14.9407C17.0378 15.1399 16.8693 15.3053 16.6663 15.4202C16.4633 15.5351 16.233 15.5954 15.9987 15.5951C15.7643 15.5948 15.5342 15.5339 15.3315 15.4185C15.1286 15.3037 14.96 15.1385 14.8429 14.9395C14.7258 14.7404 14.6642 14.5146 14.6644 14.2848C14.6644 14.27 14.6644 14.2551 14.6626 14.2412C14.657 14.1831 14.6396 14.1267 14.6116 14.0753C14.5835 14.0238 14.5453 13.9784 14.4993 13.9415C14.4532 13.9046 14.4001 13.8771 14.3431 13.8606C14.2861 13.844 14.2263 13.8387 14.1672 13.8449C14.1011 13.8531 14.0376 13.8756 13.9815 13.9107C13.9253 13.9459 13.8778 13.9929 13.8425 14.0483L13.8407 14.05C13.799 14.1219 13.7764 14.203 13.7749 14.2857C13.7754 14.5157 13.7141 14.7417 13.5971 14.9411C13.4801 15.1404 13.3116 15.3059 13.1086 15.4209C12.9056 15.5359 12.6753 15.5963 12.4408 15.596C12.2064 15.5957 11.9762 15.5348 11.7735 15.4193C11.5704 15.3045 11.4018 15.1392 11.2846 14.94C11.1675 14.7408 11.106 14.5148 11.1063 14.2848C11.1063 14.2708 11.1063 14.256 11.1046 14.2412C11.0988 14.1832 11.0814 14.1269 11.0533 14.0755C11.0252 14.0242 10.987 13.9788 10.9409 13.9421C10.8948 13.9053 10.8418 13.8779 10.7848 13.8613C10.7279 13.8448 10.6681 13.8395 10.6091 13.8458C10.5431 13.8539 10.4797 13.8762 10.4235 13.9112C10.3674 13.9462 10.3199 13.9931 10.2844 14.0483L10.2826 14.05C10.2407 14.1219 10.2177 14.2029 10.2159 14.2857C10.2165 14.5157 10.1552 14.7417 10.0382 14.9411C9.92119 15.1404 9.75269 15.3059 9.54967 15.4209C9.34665 15.5359 9.11631 15.5963 8.88189 15.596C8.64747 15.5957 8.41726 15.5348 8.21452 15.4193C8.01157 15.3046 7.84304 15.1394 7.72591 14.9403C7.60879 14.7413 7.54721 14.5155 7.54739 14.2857C7.55123 14.226 7.54258 14.1663 7.52197 14.1101C7.50136 14.0538 7.46922 14.0024 7.42755 13.9588C7.38587 13.9153 7.33554 13.8805 7.27965 13.8568C7.22377 13.8331 7.16352 13.8208 7.10263 13.8208C7.04173 13.8208 6.98149 13.8331 6.9256 13.8568C6.86972 13.8805 6.81939 13.9153 6.77771 13.9588C6.73603 14.0024 6.7039 14.0538 6.68329 14.1101C6.66267 14.1663 6.65402 14.226 6.65787 14.2857C6.65856 14.5157 6.59736 14.7419 6.48045 14.9414C6.36353 15.1408 6.19504 15.3064 5.992 15.4215C5.78896 15.5366 5.55855 15.5971 5.32405 15.5969C5.08955 15.5967 4.85927 15.5357 4.65646 15.4202C4.46442 15.3093 4.30374 15.1529 4.18908 14.9654C4.07441 14.7779 4.00941 14.5652 4 14.3468L6.1633 8.61818ZM7.10441 15.5625C7.28409 15.8033 7.49935 16.0207 7.77154 16.1743C8.10966 16.3656 8.49312 16.4663 8.88344 16.4663C9.27376 16.4663 9.65721 16.3656 9.99533 16.1743C10.2675 16.0207 10.4828 15.8033 10.6625 15.5625C10.8421 15.8033 11.0574 16.0207 11.3296 16.1743C11.6677 16.3656 12.0512 16.4663 12.4415 16.4663C12.8318 16.4663 13.2153 16.3656 13.5534 16.1743C13.8256 16.0207 14.0408 15.8033 14.2205 15.5625C14.4002 15.8033 14.6155 16.0207 14.8877 16.1743C15.2258 16.3656 15.6092 16.4663 15.9996 16.4663C16.3899 16.4663 16.7733 16.3656 17.1115 16.1743C17.3836 16.0207 17.5989 15.8033 17.7786 15.5625C17.9583 15.8033 18.1735 16.0207 18.4457 16.1743C18.7838 16.3656 19.1673 16.4663 19.5576 16.4663C19.9479 16.4663 20.3314 16.3656 20.6695 16.1743C20.9417 16.0207 21.157 15.8033 21.3366 15.5625C21.5163 15.8033 21.7316 16.0207 22.0038 16.1743C22.3419 16.3656 22.7254 16.4663 23.1157 16.4663C23.506 16.4663 23.8895 16.3656 24.2276 16.1743C24.4998 16.0207 24.715 15.8033 24.8947 15.5625C25.0192 15.73 25.1678 15.8775 25.3395 16.0058V27.8182H12.8863V22.1402C12.8819 22.0259 12.8336 21.9174 12.7511 21.8365C12.6686 21.7555 12.558 21.7082 12.4415 21.7039H8.88344C8.76688 21.7082 8.6563 21.7555 8.57383 21.8365C8.49135 21.9174 8.44308 22.0259 8.43868 22.1402V27.8182H6.65965V16.0058C6.83133 15.8775 6.97987 15.73 7.10441 15.5625ZM16.8891 19.0909C16.7725 19.0952 16.6619 19.1426 16.5795 19.2235C16.497 19.3044 16.4487 19.4129 16.4443 19.5273V24.7636C16.4443 24.9923 16.656 25.2 16.8891 25.2H23.1157C23.2322 25.1957 23.3428 25.1483 23.4253 25.0674C23.5078 24.9865 23.556 24.878 23.5604 24.7636V19.5273C23.556 19.4129 23.5078 19.3044 23.4253 19.2235C23.3428 19.1426 23.2322 19.0952 23.1157 19.0909H16.8891ZM17.3338 19.9636H22.6709V24.3273H17.3338V19.9636Z"
        fill="#A76706" />
</svg>