<svg viewBox="0 0 24 24" fill="none" xmlns="http://www.w3.org/2000/svg">
    <circle cx="10" cy="7" r="4" stroke="currentColor" stroke-width="1.5" stroke-linejoin="round" />
    <path fill-rule="evenodd" clip-rule="evenodd"
        d="M15.5758 20.4901C15.4804 20.5434 15.3834 20.5946 15.2852 20.6437C13.8938 21.3394 12.0242 21.748 10 21.748C7.97582 21.748 6.10618 21.3394 4.71484 20.6437C3.36836 19.9705 2.25 18.9017 2.25 17.498C2.25 16.0944 3.36836 15.0256 4.71484 14.3524C6.10618 13.6567 7.97582 13.248 10 13.248C10.7649 13.248 11.5078 13.3064 12.2111 13.4166C12.0817 13.8908 12.009 14.3885 12.0008 14.9019C11.3749 14.8026 10.7028 14.748 10 14.748C8.15819 14.748 6.52782 15.1229 5.38566 15.694C4.19864 16.2875 3.75 16.9687 3.75 17.498C3.75 18.0274 4.19864 18.7086 5.38566 19.3021C6.52782 19.8732 8.15819 20.248 10 20.248C11.5704 20.248 12.9871 19.9755 14.0785 19.5412C14.5249 19.9271 15.0289 20.2483 15.5758 20.4901Z"
        fill="currentColor" />
    <path fill-rule="evenodd" clip-rule="evenodd"
        d="M14.1028 15.9803C14.1028 15.562 14.442 15.2228 14.8608 15.2228H16.4559C16.6569 15.2228 16.8496 15.3026 16.9918 15.4447C17.1339 15.5868 17.2137 15.7796 17.2137 15.9806C17.2137 16.1815 17.1339 16.3743 16.9918 16.5164C16.8496 16.6585 16.6569 16.7383 16.4559 16.7383H14.8608C14.7613 16.7384 14.6627 16.7188 14.5707 16.6808C14.4786 16.6427 14.3951 16.5869 14.3246 16.5165C14.2542 16.4461 14.1984 16.3625 14.1603 16.2705C14.1223 16.1784 14.1027 16.0798 14.1028 15.9803ZM14.1028 11.1956C14.1028 10.7767 14.442 10.4375 14.8608 10.4375H20.8423C21.0433 10.4375 21.236 10.5173 21.3781 10.6594C21.5202 10.8016 21.6001 10.9943 21.6001 11.1953C21.6001 11.3962 21.5202 11.589 21.3781 11.7311C21.236 11.8732 21.0433 11.953 20.8423 11.953H14.8608C14.7613 11.9531 14.6627 11.9336 14.5707 11.8955C14.4786 11.8574 14.3951 11.8016 14.3246 11.7312C14.2542 11.6608 14.1984 11.5772 14.1603 11.4852C14.1223 11.3932 14.1027 11.2951 14.1028 11.1956ZM14.1028 13.5879C14.1028 13.1697 14.442 12.8304 14.8608 12.8304H20.8423C21.0432 12.8304 21.2359 12.9102 21.3779 13.0523C21.52 13.1943 21.5998 13.387 21.5998 13.5879C21.5998 13.7888 21.52 13.9815 21.3779 14.1235C21.2359 14.2656 21.0432 14.3454 20.8423 14.3454H14.8608C14.7613 14.3455 14.6628 14.3259 14.5708 14.2879C14.4788 14.2499 14.3952 14.1941 14.3248 14.1237C14.2544 14.0534 14.1986 13.9699 14.1605 13.8779C14.1224 13.786 14.1028 13.6874 14.1028 13.5879Z"
        fill="currentColor" />
    <path fill-rule="evenodd" clip-rule="evenodd"
        d="M14.3251 15.4427C14.6206 15.1467 15.1008 15.1467 15.3968 15.4427L19.6264 19.6723C19.7685 19.8144 19.8483 20.0072 19.8483 20.2081C19.8483 20.4091 19.7685 20.6019 19.6264 20.744C19.4842 20.8861 19.2915 20.966 19.0905 20.966C18.8895 20.966 18.6967 20.8861 18.5546 20.744L14.3251 16.5139C14.1831 16.3719 14.1033 16.1792 14.1033 15.9783C14.1033 15.7775 14.1831 15.5848 14.3251 15.4427Z"
        fill="currentColor" />
    <path fill-rule="evenodd" clip-rule="evenodd"
        d="M18.0909 13.5879C18.0909 12.7412 17.3278 11.953 16.2566 11.953V10.4375C18.0483 10.4375 19.6065 11.7922 19.6065 13.5879C19.6065 15.3836 18.0483 16.7383 16.2566 16.7383V15.2228C17.3278 15.2228 18.0909 14.4352 18.0909 13.5879Z"
        fill="currentColor" />
</svg>