<svg viewBox="0 0 18 18" fill="none" xmlns="http://www.w3.org/2000/svg">
    <path
        d="M15.75 9C15.75 12.7279 12.7279 15.75 9 15.75C5.27208 15.75 2.25 12.7279 2.25 9C2.25 5.27208 5.27208 2.25 9 2.25C12.7279 2.25 15.75 5.27208 15.75 9Z"
        stroke="currentColor" stroke-width="1.5" />
    <path fill-rule="evenodd" clip-rule="evenodd"
        d="M9 5.25C9.41421 5.25 9.75 5.58579 9.75 6L9.75 9.375C9.75 9.78921 9.41421 10.125 9 10.125C8.58579 10.125 8.25 9.78921 8.25 9.375L8.25 6C8.25 5.58579 8.58579 5.25 9 5.25Z"
        fill="currentColor" />
    <path fill-rule="evenodd" clip-rule="evenodd"
        d="M9 10.875C9.41421 10.875 9.75 11.2108 9.75 11.625L9.75 12C9.75 12.4142 9.41421 12.75 9 12.75C8.58579 12.75 8.25 12.4142 8.25 12L8.25 11.625C8.25 11.2108 8.58579 10.875 9 10.875Z"
        fill="currentColor" />
</svg>