<svg viewBox="0 0 20 20" fill="none" xmlns="http://www.w3.org/2000/svg">
    <path fill-rule="evenodd" clip-rule="evenodd"
        d="M7.586 6.586a2 2 0 00.271 3.055c.161-.294.343-.575.543-.841a1 1 0 111.4-1.4c.266-.2.547-.382.841-.543A2.003 2.003 0 009 6a2 2 0 00-1.414.586zm4.804-.4A2 2 0 0112 5V4H6v1a2 2 0 01-2 2H3v2h1a2 2 0 012 2v1h1.07A7.06 7.06 0 007 13H3.5A1.5 1.5 0 012 11.5v-7A1.5 1.5 0 013.5 3h11A1.5 1.5 0 0116 4.5v1.79a7.02 7.02 0 00-3.61-.104zM7.07 14H4.086A1.5 1.5 0 005.5 15h1.79a6.96 6.96 0 01-.22-1zM18 7.255a6.998 6.998 0 00-1-.581V5.085A1.5 1.5 0 0118 6.5v.755zM3.146 4.146A.5.5 0 003 4.5V6h1a1 1 0 001-1V4H3.5a.5.5 0 00-.354.146zM14.5 4H13v1a1 1 0 001 1h1V4.5a.5.5 0 00-.5-.5zm-11 8H5v-1a1 1 0 00-1-1H3v1.5a.5.5 0 00.5.5z"
        fill="currentColor" />
    <path
        d="M7 8h-.15H7zm.586 1.414l.106-.106-.106.106zm.271.227l-.086.123.137.096.08-.147-.131-.072zM8.4 8.8l.12.09.09-.12-.12-.09-.09.12zm-.107-1.507l-.106-.106.106.106zm1.414 0l.106-.106-.106.106zM9.8 7.4l-.12.09.09.12.12-.09-.09-.12zm.841-.543l.072.132.147-.08-.096-.138-.123.086zm-.227-.271l-.106.106.106-.106zm1.976-.4l-.121.09.059.079.096-.023-.034-.146zM12 4h.15v-.15H12V4zM6 4v-.15h-.15V4H6zm-.586 2.414l-.106-.106.106.106zM3 7v-.15h-.15V7H3zm0 2h-.15v.15H3V9zm2.414.586l.106-.106-.106.106zM6 12h-.15v.15H6V12zm1.07 0l.15.021.024-.171H7.07V12zM7 13v.15h.15V13H7zm-3.5 0v-.15.15zm-1.06-.44l.105-.105-.106.106zm0-9.12l.105.105-.106-.106zm13.12 0l-.105.105.106-.106zM16 4.5h.15H16zm0 1.79l-.043.144.193.057V6.29H16zM7.07 14l.15-.021-.019-.129h-.13V14zm-2.985 0v-.15h-.212l.07.2.142-.05zm.549.725l.086-.123-.086.123zM5.5 15v-.15.15zm1.79 0v.15h.201l-.057-.193L7.29 15zM17 6.674h-.15v.094l.086.041.064-.135zm1 .58l-.086.124.236.164v-.287H18zm-1-2.169l.05-.141-.2-.071v.212H17zM18 6.5h-.15.15zM3.146 4.146L3.04 4.04l.106.106zM3 6h-.15v.15H3V6zm2-2h.15v-.15H5V4zm8 0v-.15h-.15V4H13zm.293 1.707l.106-.106-.106.106zM15 6v.15h.15V6H15zm-.146-1.854l.106-.106-.106.106zM5 12v.15h.15V12H5zm-.293-1.707l.106-.106-.106.106zM3 10v-.15h-.15V10H3zm.146 1.854l.107-.106-.107.106zM7.15 8c0-.49.195-.961.542-1.308L7.48 6.48A2.15 2.15 0 006.85 8h.3zm.542 1.308A1.85 1.85 0 017.15 8h-.3c0 .57.227 1.117.63 1.52l.212-.212zm.25.21a1.85 1.85 0 01-.25-.21l-.212.212c.09.09.188.172.291.244l.172-.246zm.047.195c.157-.287.335-.562.53-.823l-.24-.18c-.204.272-.39.559-.554.86l.264.143zm.198-.9c.038.039.08.074.123.107l.18-.24a.85.85 0 01-.091-.079l-.212.212zM7.85 8c0 .305.121.598.337.813l.212-.212A.85.85 0 018.15 8h-.3zm.337-.813A1.15 1.15 0 007.85 8h.3a.85.85 0 01.249-.601l-.212-.212zM9 6.85a1.15 1.15 0 00-.813.337l.212.212A.85.85 0 019 7.15v-.3zm.813.337A1.15 1.15 0 009 6.85v.3a.85.85 0 01.601.249l.212-.212zm.107.123a1.149 1.149 0 00-.107-.123l-.212.212a.85.85 0 01.079.09l.24-.18zm-.03.21c.26-.196.536-.374.823-.531l-.144-.264c-.3.165-.587.35-.86.555l.18.24zm.418-.828c.078.078.148.162.21.25l.246-.17a2.151 2.151 0 00-.244-.292l-.212.212zM9 6.15c.49 0 .961.195 1.308.542l.212-.212A2.15 2.15 0 009 5.85v.3zm-1.308.542A1.85 1.85 0 019 6.15v-.3a2.15 2.15 0 00-1.52.63l.212.212zM11.85 5c0 .462.148.908.419 1.275l.241-.178A1.85 1.85 0 0112.15 5h-.3zm0-1v1h.3V4h-.3zM6 4.15h6v-.3H6v.3zm.15.85V4h-.3v1h.3zm-.63 1.52c.403-.403.63-.95.63-1.52h-.3c0 .49-.195.961-.542 1.308l.212.212zM4 7.15a2.15 2.15 0 001.52-.63l-.212-.212A1.85 1.85 0 014 6.85v.3zm-1 0h1v-.3H3v.3zM3.15 9V7h-.3v2h.3zM4 8.85H3v.3h1v-.3zm1.52.63A2.15 2.15 0 004 8.85v.3c.49 0 .961.195 1.308.542l.212-.212zM6.15 11a2.15 2.15 0 00-.63-1.52l-.212.212c.347.347.542.817.542 1.308h.3zm0 1v-1h-.3v1h.3zm.92-.15H6v.3h1.07v-.3zM7.15 13c0-.332.024-.66.07-.979l-.298-.042A7.208 7.208 0 006.85 13h.3zm-3.65.15H7v-.3H3.5v.3zm-1.167-.483c.31.31.73.483 1.167.483v-.3a1.35 1.35 0 01-.955-.395l-.212.212zM1.85 11.5c0 .438.174.857.483 1.167l.212-.212a1.35 1.35 0 01-.395-.955h-.3zm0-7v7h.3v-7h-.3zm.483-1.167c-.31.31-.483.73-.483 1.167h.3c0-.358.142-.701.395-.955l-.212-.212zM3.5 2.85a1.65 1.65 0 00-1.167.483l.212.212A1.35 1.35 0 013.5 3.15v-.3zm11 0h-11v.3h11v-.3zm1.167.483A1.65 1.65 0 0014.5 2.85v.3c.358 0 .701.142.955.395l.212-.212zM16.15 4.5a1.65 1.65 0 00-.483-1.167l-.212.212c.253.254.395.597.395.955h.3zm0 1.79V4.5h-.3v1.79h.3zM14 6.15c.68 0 1.337.1 1.957.284l.086-.288A7.152 7.152 0 0014 5.85v.3zm-1.576.182A6.87 6.87 0 0114 6.15v-.3a7.17 7.17 0 00-1.645.19l.069.292zM7.071 13.85H4.085v.3h2.986v-.3zm-3.127.2c.113.322.324.6.603.797l.173-.245a1.35 1.35 0 01-.494-.652l-.282.1zm.603.797c.279.197.612.303.953.303v-.3a1.35 1.35 0 01-.78-.248l-.173.245zm.953.303h1.79v-.3H5.5v.3zm1.934-.193a6.81 6.81 0 01-.215-.978l-.297.042c.05.35.126.69.224 1.022l.288-.086zm9.502-8.148c.342.163.67.353.978.569l.172-.246a7.148 7.148 0 00-1.022-.594l-.128.271zm-.086-1.724v1.589h.3V5.085h-.3zm.997.462a1.65 1.65 0 00-.797-.603l-.1.282c.263.094.491.266.652.494l.245-.173zm.303.953a1.65 1.65 0 00-.302-.953l-.245.173c.16.228.247.5.247.78h.3zm0 .755V6.5h-.3v.755h.3zM3.15 4.5a.35.35 0 01.103-.247L3.04 4.04a.65.65 0 00-.19.46h.3zm0 1.5V4.5h-.3V6h.3zM4 5.85H3v.3h1v-.3zm.601-.249A.85.85 0 014 5.85v.3c.305 0 .598-.121.813-.337l-.212-.212zM4.85 5a.85.85 0 01-.249.601l.212.212A1.15 1.15 0 005.15 5h-.3zm0-1v1h.3V4h-.3zm-1.35.15H5v-.3H3.5v.3zm-.247.103A.35.35 0 013.5 4.15v-.3a.65.65 0 00-.46.19l.213.213zM13 4.15h1.5v-.3H13v.3zm.15.85V4h-.3v1h.3zm.249.601A.85.85 0 0113.15 5h-.3c0 .305.121.598.337.813l.212-.212zM14 5.85a.85.85 0 01-.601-.249l-.212.212c.216.216.508.337.813.337v-.3zm1 0h-1v.3h1v-.3zm-.15-1.35V6h.3V4.5h-.3zm-.102-.247a.35.35 0 01.102.247h.3a.65.65 0 00-.19-.46l-.213.213zM14.5 4.15a.35.35 0 01.248.103l.212-.213a.65.65 0 00-.46-.19v.3zM5 11.85H3.5v.3H5v-.3zM4.85 11v1h.3v-1h-.3zm-.249-.601A.85.85 0 014.85 11h.3a1.15 1.15 0 00-.337-.813l-.212.212zM4 10.15a.85.85 0 01.601.249l.212-.212A1.15 1.15 0 004 9.85v.3zm-1 0h1v-.3H3v.3zm.15 1.35V10h-.3v1.5h.3zm.103.248a.35.35 0 01-.103-.248h-.3a.65.65 0 00.19.46l.213-.213zm.247.102a.35.35 0 01-.247-.102l-.213.212a.65.65 0 00.46.19v-.3z"
        fill="currentColor" />
    <path d="M14 10.222V13h2.778M14 18a5 5 0 110-10 5 5 0 010 10z" stroke="currentColor" stroke-width="1.5"
        stroke-linecap="round" stroke-linejoin="round" />
</svg>