<svg viewBox="0 0 20 20" fill="none" xmlns="http://www.w3.org/2000/svg">
    <path
        d="M12.5 8.333l-3.333 3.334L7.5 10m3.538-7.118l1.018.867a1.6 1.6 0 00.91.378l1.333.106a1.6 1.6 0 011.468 1.468l.106 1.333a1.6 1.6 0 00.377.91l.868 1.018a1.6 1.6 0 010 2.076l-.867 1.018c-.219.256-.351.575-.378.91l-.106 1.333a1.6 1.6 0 01-1.468 1.468l-1.333.106a1.6 1.6 0 00-.91.378l-1.018.867c-.598.51-1.478.51-2.076 0l-1.018-.867a1.6 1.6 0 00-.91-.378L5.7 15.767A1.6 1.6 0 014.233 14.3l-.106-1.333a1.6 1.6 0 00-.378-.91l-.867-1.018a1.6 1.6 0 010-2.076l.867-1.018a1.6 1.6 0 00.377-.91L4.233 5.7a1.6 1.6 0 011.468-1.468l1.332-.106c.336-.027.655-.16.911-.378l1.018-.867a1.601 1.601 0 012.076 0z"
        stroke="currentColor" stroke-width="1.5" stroke-linecap="round" stroke-linejoin="round" />
</svg>