<svg viewBox="0 0 17 16" fill="none" xmlns="http://www.w3.org/2000/svg">
<g clip-path="url(#clip0_2235_44911)">
<path d="M8.75277 0.00390625C4.34324 0.00390625 0.755371 3.59178 0.755371 8.0013C0.755371 12.4108 4.34324 15.9987 8.75277 15.9987C13.1623 15.9987 16.7502 12.4108 16.7502 8.0013C16.7502 3.59178 13.1623 0.00390625 8.75277 0.00390625ZM8.75277 14.3992C5.22504 14.3992 2.35485 11.529 2.35485 8.0013C2.35485 4.47357 5.22504 1.60339 8.75277 1.60339C12.2805 1.60339 15.1507 4.47357 15.1507 8.0013C15.1507 11.529 12.2805 14.3992 8.75277 14.3992Z" fill="currentColor"/>
<path d="M10.9123 5.83202C10.5999 5.51964 10.0939 5.51964 9.78142 5.83202L8.74743 6.866L7.71337 5.83194C7.40099 5.51956 6.89492 5.51956 6.58246 5.83194C6.27 6.14432 6.27008 6.65039 6.58246 6.96285L7.61652 7.99692L6.58246 9.03098C6.27008 9.34336 6.27008 9.84943 6.58246 10.1619C6.73873 10.318 6.9433 10.3961 7.14795 10.3961C7.35261 10.3961 7.55718 10.318 7.71337 10.1618L8.74743 9.12783L9.7815 10.1619C9.93769 10.318 10.1423 10.3961 10.3469 10.3961C10.5516 10.3961 10.7561 10.318 10.9123 10.1618C11.2247 9.84943 11.2247 9.34336 10.9123 9.0309L9.87834 7.99692L10.9124 6.96285C11.2248 6.65047 11.2248 6.1444 10.9123 5.83202Z" fill="currentColor"/>
</g>
<defs>
<clipPath id="clip0_2235_44911">
<rect width="16" height="16" fill="white" transform="translate(0.75)"/>
</clipPath>
</defs>
</svg>
