<svg viewBox="0 0 28 28" fill="none" xmlns="http://www.w3.org/2000/svg">
    <rect x="2" y="2" width="24" height="24" rx="12" fill="#1975FF" fill-opacity="0.2" />
    <path
        d="M15.3327 7.51167V10.2654C15.3327 10.6387 15.3327 10.8254 15.4053 10.968C15.4693 11.0935 15.5712 11.1955 15.6967 11.2594C15.8393 11.332 16.026 11.332 16.3993 11.332H19.153M19.3327 12.6575V17.4654C19.3327 18.5855 19.3327 19.1455 19.1147 19.5733C18.9229 19.9497 18.617 20.2556 18.2407 20.4474C17.8128 20.6654 17.2528 20.6654 16.1327 20.6654H11.866C10.7459 20.6654 10.1859 20.6654 9.75803 20.4474C9.38171 20.2556 9.07575 19.9497 8.884 19.5733C8.66602 19.1455 8.66602 18.5855 8.66602 17.4654V10.532C8.66602 9.41193 8.66602 8.85187 8.884 8.42405C9.07575 8.04773 9.38171 7.74176 9.75803 7.55002C10.1859 7.33203 10.7459 7.33203 11.866 7.33203H14.0072C14.4964 7.33203 14.741 7.33203 14.9711 7.38729C15.1752 7.43628 15.3703 7.51709 15.5493 7.62675C15.7511 7.75043 15.924 7.92339 16.2699 8.26929L18.3954 10.3948C18.7413 10.7407 18.9143 10.9136 19.038 11.1155C19.1476 11.2944 19.2284 11.4895 19.2774 11.6936C19.3327 11.9237 19.3327 12.1683 19.3327 12.6575Z"
        stroke="#1975FF" stroke-width="1.33333" stroke-linecap="round" stroke-linejoin="round" />
    <rect x="2" y="2" width="24" height="24" rx="12" stroke="#1975FF" stroke-opacity="0.08" stroke-width="4" />
</svg>