<svg viewBox="0 0 20 20" fill="none" xmlns="http://www.w3.org/2000/svg">
    <path
        d="M7.50008 14.1667H12.5001M7.50008 11.6667H12.5001M15.8331 7.5H12.1664C11.6997 7.5 11.4666 7.49999 11.2883 7.40916C11.1315 7.32926 11.0041 7.20181 10.9242 7.04501C10.8334 6.86675 10.8334 6.63338 10.8334 6.16667V2.5M15.8334 14.8333V8.04499C15.8334 7.65873 15.8336 7.4656 15.7919 7.28277C15.755 7.12062 15.6941 6.9649 15.6111 6.82082C15.5174 6.65835 15.3861 6.51664 15.1237 6.23322L12.4586 3.3549C12.1669 3.0399 12.0209 2.8824 11.8474 2.76952C11.6936 2.66947 11.524 2.59553 11.346 2.55064C11.1453 2.5 10.9311 2.5 10.5018 2.5H6.83358C5.90016 2.5 5.4331 2.5 5.07658 2.68166C4.76298 2.84144 4.50819 3.09643 4.3484 3.41003C4.16675 3.76655 4.16675 4.23326 4.16675 5.16668V14.8333C4.16675 15.7668 4.16675 16.2335 4.3484 16.59C4.50819 16.9036 4.76298 17.1585 5.07658 17.3183C5.4331 17.5 5.90016 17.5 6.83358 17.5H13.1669C14.1003 17.5 14.5667 17.5 14.9232 17.3183C15.2368 17.1585 15.4921 16.9036 15.6519 16.59C15.8336 16.2335 15.8334 15.7668 15.8334 14.8333Z"
        stroke="currentColor" stroke-width="1.5" stroke-linecap="round" stroke-linejoin="round" />
</svg>