<svg viewBox="0 0 32 32" fill="none" xmlns="http://www.w3.org/2000/svg">
    <path
        d="M28.079 15.7608L27.8656 15.4674C27.4923 15.0141 27.0523 14.6541 26.5456 14.3874C25.8656 14.0008 25.0923 13.8008 24.2923 13.8008H7.69229C6.89229 13.8008 6.13229 14.0008 5.43896 14.3874C4.91896 14.6674 4.45229 15.0541 4.06563 15.5341C3.30563 16.5074 2.94563 17.7074 3.06563 18.9074L3.55896 25.1341C3.73229 27.0141 3.95896 29.3341 8.18563 29.3341H23.8123C28.039 29.3341 28.2523 27.0141 28.439 25.1208L28.9323 18.9208C29.0523 17.8008 28.759 16.6808 28.079 15.7608ZM19.1856 23.1208H12.799C12.279 23.1208 11.8656 22.6941 11.8656 22.1874C11.8656 21.6808 12.279 21.2541 12.799 21.2541H19.1856C19.7056 21.2541 20.119 21.6808 20.119 22.1874C20.119 22.7074 19.7056 23.1208 19.1856 23.1208Z"
        fill="currentColor" />
    <path opacity="0.4"
        d="M4.50781 15.0793C4.80115 14.8127 5.09448 14.5727 5.44115 14.386C6.12115 13.9993 6.89448 13.7993 7.69448 13.7993H24.3078C25.1078 13.7993 25.8678 13.9993 26.5611 14.386C26.9078 14.5727 27.2145 14.8127 27.4945 15.0927V14.386V13.0927C27.4945 8.33268 26.0411 6.87935 21.2811 6.87935H18.1078C17.5211 6.87935 17.5078 6.86602 17.1611 6.41268L15.5611 4.26602C14.8011 3.27935 14.2011 2.66602 12.2945 2.66602H10.7211C5.96115 2.66602 4.50781 4.11935 4.50781 8.87935V14.3993V15.0793Z"
        fill="currentColor" />
</svg>