<svg viewBox="0 0 21 20" fill="none" xmlns="http://www.w3.org/2000/svg">
    <path fill-rule="evenodd" clip-rule="evenodd"
        d="M4.04199 4.16667C4.04199 2.90102 5.06801 1.875 6.33366 1.875H12.9894C13.4591 1.875 13.9002 2.10131 14.1741 2.48296L16.6851 5.98121C16.863 6.22907 16.9587 6.52648 16.9587 6.83158V15.8333C16.9587 17.099 15.9326 18.125 14.667 18.125H6.33366C5.06801 18.125 4.04199 17.099 4.04199 15.8333V4.16667ZM6.33366 3.125C5.75836 3.125 5.29199 3.59137 5.29199 4.16667V15.8333C5.29199 16.4086 5.75836 16.875 6.33366 16.875H14.667C15.2423 16.875 15.7087 16.4086 15.7087 15.8333V7.4142H13.0003C12.6551 7.4142 12.3753 7.13438 12.3753 6.7892V3.125H6.33366Z"
        fill="currentColor" />
    <path
        d="M13.0717 11.0154C12.8561 11.285 12.4628 11.3287 12.1932 11.113L11.1254 10.2587V13.125C11.1254 13.4702 10.8455 13.75 10.5004 13.75C10.1552 13.75 9.87537 13.4702 9.87537 13.125V10.2587L8.80745 11.113C8.53791 11.3287 8.1446 11.285 7.92897 11.0154C7.71334 10.7459 7.75704 10.3526 8.02658 10.137L10.1077 8.47207C10.2137 8.38632 10.3484 8.33457 10.4951 8.33335C10.4969 8.33334 10.4986 8.33333 10.5004 8.33333L10.5024 8.33334C10.6516 8.33381 10.7886 8.3866 10.8958 8.47433L12.9741 10.137C13.2437 10.3526 13.2874 10.7459 13.0717 11.0154Z"
        fill="currentColor" />
</svg>