<svg viewBox="0 0 201 240" fill="none" xmlns="http://www.w3.org/2000/svg">
    <path opacity=".3"
        d="M140.24 49.24a20.641 20.641 0 01-20.62-20.62V0H27.48A26.91 26.91 0 00.57 26.91v162.22A26.91 26.91 0 0027.48 216h110.61A26.911 26.911 0 00165 189.12V49.24h-24.76z"
        fill="#005FAD" />
    <path
        d="M165 49.24h-24.76a20.641 20.641 0 01-20.62-20.62V0L165 49.24zM184.51 170.6H59.47c-8.87 0-16.06 7.19-16.06 16.06v37.28c0 8.869 7.19 16.06 16.06 16.06h125.04c8.87 0 16.06-7.191 16.06-16.06v-37.28c0-8.87-7.19-16.06-16.06-16.06z"
        fill="#005FAD" />
    <path
        d="M79.63 213.37v7.27H72.1v-7.27h7.53zM90.69 210.1v10.54h-7.28v-30.07h11.78c3.58 0 6.303.887 8.17 2.66a9.405 9.405 0 012.81 7.17 9.849 9.849 0 01-1.26 5 8.635 8.635 0 01-3.72 3.44 12.983 12.983 0 01-6 1.26h-4.5zm8.08-9.7c0-2.666-1.46-4-4.38-4h-3.7v7.83h3.7c2.92.027 4.38-1.25 4.38-3.83zM136.45 220.64h-7.27L117 202.18v18.46h-7.27v-30.07H117l12.17 18.63v-18.63h7.27l.01 30.07zM164.86 193a11.735 11.735 0 014.55 7.49h-7.7a6.003 6.003 0 00-2.33-2.581 7.17 7.17 0 00-3.79-1 7.075 7.075 0 00-3.021.542 7.075 7.075 0 00-2.509 1.768 9.053 9.053 0 00-2.08 6.281c0 2.86.73 5.056 2.19 6.59a8.21 8.21 0 006.23 2.3 7.545 7.545 0 004.55-1.43 7.551 7.551 0 002.76-4.06h-9.18v-5.231h15.27V211a14.84 14.84 0 01-2.73 4.89 13.987 13.987 0 01-4.78 3.659 15.227 15.227 0 01-6.66 1.401 15.83 15.83 0 01-8-1.94 13.185 13.185 0 01-5.25-5.42 16.632 16.632 0 01-1.85-7.95c-.06-2.78.576-5.53 1.85-8a13.261 13.261 0 015.23-5.421 15.594 15.594 0 017.89-1.93 15.003 15.003 0 019.36 2.711z"
        fill="#fff" />
    <path
        d="M55.27 66.72H41.52v13.75h13.75V66.72zM69.03 80.47H55.28v13.75h13.75V80.47zM82.78 66.72H69.03v13.75h13.75V66.72zM96.53 80.47H82.78v13.75h13.75V80.47zM110.3 66.72H96.55v13.75h13.75V66.72zM124.05 80.47H110.3v13.75h13.75V80.47zM55.27 94.2H41.52v13.75h13.75V94.2zM69.03 107.95H55.28v13.75h13.75v-13.75zM82.78 94.2H69.03v13.75h13.75V94.2zM96.53 107.95H82.78v13.75h13.75v-13.75zM110.3 94.2H96.55v13.75h13.75V94.2zM124.05 107.95H110.3v13.75h13.75v-13.75zM55.27 121.811H41.52v13.75h13.75v-13.75zM69.03 135.561H55.28v13.75h13.75v-13.75zM82.78 121.811H69.03v13.75h13.75v-13.75zM96.53 135.561H82.78v13.75h13.75v-13.75zM110.3 121.811H96.55v13.75h13.75v-13.75zM124.05 135.561H110.3v13.75h13.75v-13.75z"
        fill="#005FAD" />
</svg>