<svg viewBox="0 0 20 20" fill="none" xmlns="http://www.w3.org/2000/svg">
    <path fill-rule="evenodd" clip-rule="evenodd"
        d="M8.94766 2.70703C8.30298 2.70703 7.76521 3.19972 7.70892 3.84194C7.59122 5.18467 7.56143 6.5334 7.61965 7.87948C7.54937 7.88418 7.47911 7.88909 7.40885 7.89421L6.1676 7.9847C5.37422 8.04253 4.93072 8.92717 5.35904 9.59748C6.27252 11.0271 7.44956 12.2699 8.82743 13.2597L9.32471 13.6169C9.72789 13.9065 10.2709 13.9065 10.6741 13.6169L11.1714 13.2597C12.5493 12.2699 13.7263 11.0271 14.6398 9.59749C15.0681 8.92716 14.6246 8.04253 13.8312 7.9847L12.59 7.89421C12.5197 7.88909 12.4495 7.88418 12.3792 7.87948C12.4374 6.53339 12.4076 5.18467 12.2899 3.84193C12.2336 3.19972 11.6958 2.70703 11.0512 2.70703H8.94766ZM8.90066 8.42764C8.80589 6.93829 8.82359 5.44384 8.95362 3.95703H11.0452C11.1752 5.44384 11.1929 6.93828 11.0982 8.42764C11.0875 8.59461 11.1443 8.75887 11.2558 8.88366C11.3672 9.00844 11.524 9.08333 11.6912 9.09157C11.9606 9.10484 12.2299 9.12129 12.4991 9.14091L13.4006 9.20662C12.601 10.3844 11.5997 11.4129 10.4421 12.2445L9.99941 12.5625L9.5567 12.2445C8.39911 11.4129 7.39788 10.3844 6.59826 9.20662L7.49973 9.14091C7.76889 9.12129 8.03822 9.10484 8.30767 9.09157C8.47478 9.08333 8.63161 9.00844 8.74306 8.88366C8.85451 8.75887 8.91128 8.59461 8.90066 8.42764Z"
        fill="currentColor" />
    <path
        d="M4.79102 14.1654C4.79102 13.8202 4.51119 13.5404 4.16602 13.5404C3.82084 13.5404 3.54102 13.8202 3.54102 14.1654V15.832C3.54102 16.6374 4.19393 17.2904 4.99935 17.2904H14.9993C15.8048 17.2904 16.4577 16.6374 16.4577 15.832V14.1654C16.4577 13.8202 16.1779 13.5404 15.8327 13.5404C15.4875 13.5404 15.2077 13.8202 15.2077 14.1654V15.832C15.2077 15.9471 15.1144 16.0404 14.9993 16.0404H4.99935C4.88429 16.0404 4.79102 15.9471 4.79102 15.832V14.1654Z"
        fill="currentColor" />
</svg>