<svg viewBox="0 0 24 24" fill="none" xmlns="http://www.w3.org/2000/svg">
    <g fill="currentColor">
        <path
            d="M13.98 5.22c-.22 0-.44-.1-.58-.28l-1.98-2.47c-.26-.32-.21-.8.12-1.05.33-.25.79-.21 1.05.12l1.98 2.47c.26.32.21.8-.12 1.05-.14.1-.31.16-.47.16z" />
        <path
            d="M12 22.75c-5.31 0-9.64-4.32-9.64-9.64S6.68 3.47 12 3.47c.69 0 1.39.08 2.15.26.4.09.66.5.56.9-.09.4-.49.66-.9.56-.64-.15-1.24-.22-1.81-.22-4.49 0-8.14 3.65-8.14 8.14s3.65 8.14 8.14 8.14 8.14-3.65 8.14-8.14c0-1.74-.57-3.42-1.65-4.86a.75.75 0 011.2-.9c1.28 1.7 1.95 3.69 1.95 5.76 0 5.32-4.33 9.64-9.64 9.64z" />
        <path
            d="M10.562 17.761c-.44 0-.86-.11-1.23-.32-.86-.5-1.34-1.48-1.34-2.76v-3.35c0-1.28.47-2.26 1.34-2.76.86-.5 1.95-.42 3.06.22l2.9 1.67c1.11.64 1.72 1.54 1.72 2.54s-.61 1.9-1.72 2.54l-2.9 1.67c-.63.37-1.26.55-1.83.55zm0-8.02c-.18 0-.35.04-.48.12-.37.22-.59.75-.59 1.46v3.35c0 .71.21 1.25.59 1.46.37.21.94.13 1.56-.22l2.9-1.67c.62-.36.97-.81.97-1.24 0-.43-.35-.88-.97-1.24l-2.9-1.67c-.4-.23-.77-.35-1.08-.35z" />
    </g>
</svg>