<svg viewBox="0 0 21 20" fill="none" xmlns="http://www.w3.org/2000/svg">
    <path
        d="M19.6657 14.9232C19.6823 15.5482 19.5157 16.1399 19.2157 16.6483C19.049 16.9483 18.824 17.2233 18.574 17.4483C17.999 17.9816 17.2407 18.3066 16.399 18.3316C15.1823 18.3566 14.1073 17.7316 13.5157 16.7733C13.199 16.2816 13.0073 15.6899 12.999 15.0649C12.974 14.0149 13.4407 13.0649 14.1907 12.4399C14.7573 11.9733 15.474 11.6816 16.2573 11.6649C18.099 11.6233 19.624 13.0816 19.6657 14.9232Z"
        stroke="currentColor" stroke-width="1.5" stroke-miterlimit="10" stroke-linecap="round"
        stroke-linejoin="round" />
    <path d="M15.0332 15.024L15.8749 15.824L17.6165 14.1406" stroke="currentColor" stroke-width="1.5"
        stroke-linecap="round" stroke-linejoin="round" />
    <path d="M3.14258 6.19531L10.5009 10.4536L17.8092 6.22029" stroke="currentColor" stroke-width="1.5"
        stroke-linecap="round" stroke-linejoin="round" />
    <path d="M10.5 18.0037V10.4453" stroke="currentColor" stroke-width="1.5" stroke-linecap="round"
        stroke-linejoin="round" />
    <path
        d="M18.5088 7.63906V12.3558C18.5088 12.3974 18.5088 12.4307 18.5005 12.4724C17.9172 11.9641 17.1672 11.6641 16.3338 11.6641C15.5505 11.6641 14.8255 11.9391 14.2505 12.3974C13.4838 13.0057 13.0005 13.9474 13.0005 14.9974C13.0005 15.6224 13.1755 16.2141 13.4838 16.7141C13.5588 16.8474 13.6505 16.9724 13.7505 17.0891L12.2255 17.9308C11.2755 18.4641 9.7255 18.4641 8.7755 17.9308L4.32551 15.4641C3.31717 14.9057 2.49219 13.5058 2.49219 12.3558V7.63906C2.49219 6.48906 3.31717 5.08908 4.32551 4.53075L8.7755 2.06406C9.7255 1.53073 11.2755 1.53073 12.2255 2.06406L16.6755 4.53075C17.6838 5.08908 18.5088 6.48906 18.5088 7.63906Z"
        stroke="currentColor" stroke-width="1.5" stroke-linecap="round" stroke-linejoin="round" />
</svg>