<svg viewBox="0 0 25 24" fill="none" xmlns="http://www.w3.org/2000/svg">
    <path
        d="M23.0005 12.2326C23.0005 11.3693 22.9291 10.7393 22.7744 10.0859H12.7148V13.9826H18.6196C18.5006 14.9509 17.8577 16.4093 16.4291 17.3892L16.4091 17.5197L19.5897 19.9344L19.8101 19.9559C21.8338 18.1242 23.0005 15.4292 23.0005 12.2326"
        fill="#4285F4" />
    <path
        d="M12.714 22.5015C15.6068 22.5015 18.0353 21.5682 19.8092 19.9582L16.4282 17.3914C15.5235 18.0098 14.3092 18.4414 12.714 18.4414C9.88069 18.4414 7.47596 16.6098 6.61874 14.0781L6.49309 14.0886L3.18583 16.5969L3.14258 16.7148C4.90446 20.1448 8.5235 22.5015 12.714 22.5015Z"
        fill="#34A853" />
    <path
        d="M6.62095 14.0755C6.39476 13.4222 6.26386 12.7221 6.26386 11.9988C6.26386 11.2754 6.39476 10.5755 6.60905 9.92215L6.60306 9.78301L3.25435 7.23438L3.14478 7.28545C2.41862 8.7088 2.00195 10.3072 2.00195 11.9988C2.00195 13.6905 2.41862 15.2888 3.14478 16.7121L6.62095 14.0755"
        fill="#FBBC05" />
    <path
        d="M12.7141 5.55997C14.7259 5.55997 16.083 6.41163 16.8569 7.12335L19.8807 4.23C18.0236 2.53834 15.6069 1.5 12.7141 1.5C8.52353 1.5 4.90447 3.85665 3.14258 7.28662L6.60686 9.92332C7.47598 7.39166 9.88073 5.55997 12.7141 5.55997"
        fill="#EB4335" />
</svg>