<svg viewBox="0 0 20 20" fill="none" xmlns="http://www.w3.org/2000/svg">
<path fill-rule="evenodd" clip-rule="evenodd" d="M2.77734 6.9445C2.77734 4.64331 4.64282 2.77783 6.94401 2.77783H13.0551C15.3563 2.77783 17.2218 4.64331 17.2218 6.9445V13.0556C17.2218 15.3568 15.3563 17.2223 13.0551 17.2223H6.94401C4.64282 17.2223 2.77734 15.3568 2.77734 13.0556V6.9445ZM6.94401 4.4445C5.5633 4.4445 4.44401 5.56379 4.44401 6.9445V7.50005H15.5551V6.9445C15.5551 5.56379 14.4358 4.4445 13.0551 4.4445H6.94401ZM11.1107 9.16672H4.44401V13.0556C4.44401 14.4363 5.5633 15.5556 6.94401 15.5556H11.1107V9.16672ZM12.7773 15.5556V9.16672H15.5551V13.0556C15.5551 14.4363 14.4358 15.5556 13.0551 15.5556H12.7773Z" fill="currentColor"/>
</svg>
