<svg viewBox="0 0 24 24" fill="none" xmlns="http://www.w3.org/2000/svg">
    <path fill-rule="evenodd" clip-rule="evenodd"
        d="M19.1837 4.91249L12 4.75L4.81627 4.91249C3.48511 4.9426 2.35801 5.90322 2.11732 7.21278C1.5356 10.3779 1.5356 13.6225 2.11732 16.7876C2.35801 18.0972 3.48511 19.0578 4.81627 19.0879L12 19.2504L19.1837 19.0879C20.5149 19.0578 21.642 18.0972 21.8827 16.7876C22.4644 13.6225 22.4644 10.3779 21.8827 7.21278C21.642 5.90322 20.5149 4.9426 19.1837 4.91249ZM4.85019 6.41211L12 6.25038L19.1498 6.41211C19.7701 6.42613 20.2952 6.87374 20.4074 7.48393C20.5607 8.31792 20.6711 9.15776 20.7388 10.0002H3.26121C3.32886 9.15776 3.43933 8.31792 3.59261 7.48393C3.70476 6.87374 4.22993 6.42613 4.85019 6.41211ZM3.18103 12.0002C3.18103 13.5119 3.31822 15.0235 3.59261 16.5165C3.70476 17.1266 4.22993 17.5742 4.85019 17.5883L12 17.75L19.1498 17.5883C19.7701 17.5742 20.2952 17.1266 20.4074 16.5165C20.6818 15.0235 20.819 13.5119 20.819 12.0002H3.18103Z"
        fill="currentColor" />
    <path
        d="M3.2 10C3.5 8.5 4.34236 8 5.99922 8H16.9992C18.6561 8 20.74 8.34315 20.74 10L20.82 12C20.82 13.6569 18.6561 15 16.9992 15H5.99922C4.34236 15 3.19922 13.6569 3.19922 12L3.2 10Z"
        fill="white" />
    <path
        d="M10.1195 11.8347V13.832C10.0362 13.9233 9.90788 14.0213 9.73455 14.1259C9.56346 14.2283 9.34736 14.3163 9.08623 14.3898C8.82511 14.4633 8.51784 14.5 8.16442 14.5C7.83801 14.5 7.54199 14.4488 7.27636 14.3464C7.01074 14.2417 6.78225 14.0892 6.59091 13.8888C6.40182 13.6862 6.2555 13.439 6.15195 13.1473C6.05065 12.8534 6 12.5171 6 12.1386V11.8681C6 11.4895 6.05177 11.1533 6.15532 10.8594C6.25887 10.5655 6.40407 10.3183 6.59091 10.1179C6.78 9.91527 7.00173 9.76163 7.2561 9.65698C7.51273 9.55233 7.79411 9.5 8.10026 9.5C8.55273 9.5 8.92078 9.57125 9.20442 9.71376C9.48805 9.85404 9.70303 10.0489 9.84935 10.2983C9.99567 10.5454 10.0846 10.8316 10.1161 11.1566H8.97818C8.95567 10.9963 8.9129 10.8605 8.84987 10.7492C8.78909 10.6356 8.7013 10.5499 8.58649 10.492C8.47169 10.4319 8.32312 10.4018 8.14078 10.4018C7.99896 10.4018 7.86952 10.4319 7.75247 10.492C7.63766 10.5521 7.53974 10.6434 7.4587 10.7659C7.37766 10.8861 7.31463 11.0375 7.26961 11.2201C7.22684 11.4027 7.20545 11.6165 7.20545 11.8614V12.1386C7.20545 12.3813 7.22571 12.594 7.26623 12.7766C7.309 12.9591 7.37203 13.1117 7.45532 13.2341C7.54087 13.3544 7.64892 13.4457 7.77948 13.508C7.91229 13.5681 8.06874 13.5982 8.24883 13.5982C8.37489 13.5982 8.48294 13.5882 8.57299 13.5681C8.66303 13.5459 8.73732 13.5191 8.79584 13.488C8.85662 13.4546 8.90277 13.4234 8.93429 13.3945V12.6396H8.11039V11.8347H10.1195Z"
        fill="currentColor" />
    <path
        d="M13.3442 13.1406C13.3442 13.0649 13.3329 12.997 13.3104 12.9369C13.2879 12.8745 13.2462 12.8166 13.1855 12.7632C13.1247 12.7098 13.0369 12.6563 12.9221 12.6029C12.8095 12.5472 12.661 12.4893 12.4764 12.4292C12.2603 12.3579 12.052 12.2778 11.8517 12.1887C11.6513 12.0974 11.4724 11.9916 11.3148 11.8714C11.1572 11.7489 11.0323 11.6064 10.94 11.4439C10.8477 11.2791 10.8016 11.0876 10.8016 10.8694C10.8016 10.6601 10.8488 10.4719 10.9434 10.3049C11.0379 10.1357 11.1696 9.9921 11.3384 9.87408C11.5095 9.75384 11.7099 9.66255 11.9395 9.6002C12.1691 9.53563 12.4201 9.50334 12.6925 9.50334C13.0526 9.50334 13.37 9.56569 13.6447 9.69038C13.9216 9.81285 14.1377 9.98764 14.293 10.2148C14.4506 10.4397 14.5294 10.7057 14.5294 11.013H13.3509C13.3509 10.8906 13.325 10.7826 13.2732 10.689C13.2237 10.5955 13.1483 10.522 13.047 10.4686C12.9457 10.4152 12.8185 10.3884 12.6655 10.3884C12.5169 10.3884 12.3919 10.4107 12.2906 10.4552C12.1894 10.4998 12.1128 10.5599 12.061 10.6356C12.0093 10.7091 11.9834 10.7904 11.9834 10.8794C11.9834 10.9529 12.0036 11.0197 12.0442 11.0798C12.0869 11.1377 12.1466 11.1923 12.2231 11.2435C12.3019 11.2947 12.3965 11.3437 12.5068 11.3904C12.6193 11.4372 12.7454 11.4829 12.8849 11.5274C13.1461 11.6098 13.3779 11.7022 13.5805 11.8046C13.7854 11.9048 13.9576 12.0195 14.0971 12.1486C14.239 12.2756 14.3459 12.4203 14.4179 12.5828C14.4922 12.7454 14.5294 12.9291 14.5294 13.1339C14.5294 13.3521 14.4866 13.5459 14.401 13.7151C14.3155 13.8843 14.1928 14.0279 14.033 14.146C13.8732 14.2617 13.6818 14.3497 13.459 14.4098C13.2361 14.4699 12.9874 14.5 12.7127 14.5C12.4606 14.5 12.2119 14.4688 11.9665 14.4065C11.7234 14.3419 11.5028 14.2439 11.3047 14.1126C11.1066 13.979 10.9479 13.8086 10.8286 13.6015C10.7115 13.3922 10.653 13.144 10.653 12.8567H11.8416C11.8416 12.9992 11.8607 13.1195 11.899 13.2174C11.9372 13.3154 11.9935 13.3945 12.0678 13.4546C12.1421 13.5125 12.2332 13.5548 12.3413 13.5815C12.4494 13.606 12.5732 13.6182 12.7127 13.6182C12.8635 13.6182 12.9851 13.5971 13.0774 13.5548C13.1697 13.5102 13.2372 13.4523 13.28 13.3811C13.3228 13.3076 13.3442 13.2275 13.3442 13.1406Z"
        fill="currentColor" />
    <path d="M17.521 9.57014V14.4332H16.3358V9.57014H17.521ZM19 9.57014V10.4753H14.8906V9.57014H19Z"
        fill="currentColor" />
</svg>