<svg viewBox="0 0 32 32" fill="none" xmlns="http://www.w3.org/2000/svg">
    <path
        d="M13.8944 27.0143H8.56102C6.83286 27.008 5.43168 25.612 5.41899 23.8839V13.2752C5.42238 12.6966 5.68125 12.1492 6.12623 11.7795L7.06536 11.0839C7.40822 10.7186 7.44308 10.1612 7.14842 9.756C6.85375 9.35083 6.31273 9.21226 5.85957 9.42588L4.89725 10.1447C3.92653 10.8958 3.35048 12.0479 3.33203 13.2752V23.8954C3.33841 26.7807 5.67577 29.1181 8.56102 29.1244H13.8944C14.4706 29.1244 14.9378 28.6573 14.9378 28.081C14.9378 27.5047 14.4706 27.0375 13.8944 27.0375V27.0143Z"
        fill="currentColor" />
    <path
        d="M28.3855 13.2521C28.3733 12.0339 27.816 10.8852 26.8667 10.1216L18.8551 3.73323C17.0945 2.31809 14.5866 2.31809 12.8261 3.73323L10.287 5.57671C9.80991 5.91929 9.7009 6.58372 10.0435 7.06077C10.3861 7.53781 11.0505 7.64682 11.5275 7.30425L14.1014 5.37961C15.1117 4.54788 16.5695 4.54788 17.5797 5.37961L25.5913 11.768C26.0524 12.1335 26.3248 12.6869 26.3333 13.2753V23.8956C26.3333 25.6244 24.9318 27.026 23.2029 27.026H20.8261C20.5828 27.026 20.3855 26.8287 20.3855 26.5854V21.797C20.3855 20.2711 19.1519 19.0324 17.6261 19.026H14.1478C13.4129 19.026 12.7081 19.3179 12.1884 19.8376C11.6688 20.3573 11.3768 21.0621 11.3768 21.797V23.6289C11.3768 24.2052 11.844 24.6724 12.4203 24.6724C12.9966 24.6724 13.4638 24.2052 13.4638 23.6289V21.797C13.4607 21.6167 13.5301 21.4426 13.6566 21.314C13.783 21.1854 13.9559 21.1129 14.1362 21.1129H17.6145C17.9859 21.1129 18.287 21.414 18.287 21.7854V26.5854C18.2933 27.9832 19.4283 29.113 20.8261 29.1129H23.1449C26.0328 29.1129 28.3739 26.7718 28.3739 23.884L28.3855 13.2521Z"
        fill="currentColor" />
</svg>