<svg  viewBox="0 0 33 32" fill="none" xmlns="http://www.w3.org/2000/svg">
<path d="M16.4974 13.8974L17.0277 14.4277L17.558 13.8974C18.7555 12.7 20.4138 11.9057 21.9565 11.4113C23.5025 10.9159 24.8417 10.75 25.3291 10.75C28.0468 10.75 30.25 12.9532 30.25 15.6709C30.25 18.3886 28.0468 20.5918 25.3291 20.5918C24.8005 20.5918 23.3995 20.5021 21.8416 20.1161C20.2706 19.7267 18.6428 19.0608 17.558 17.976L17.0277 17.4457L16.4974 17.976C15.3851 19.0883 13.7438 19.754 12.1689 20.1359C10.6069 20.5148 9.20544 20.5918 8.67089 20.5918C5.95316 20.5918 3.75 18.3886 3.75 15.6709C3.75 12.9532 5.95316 10.75 8.67089 10.75C9.16352 10.75 10.5046 10.904 12.0541 11.3917C13.6012 11.8787 15.2726 12.6727 16.4974 13.8974Z" stroke="#6F3368" stroke-width="1.5"/>
</svg>
