<svg viewBox="0 0 24 24" fill="none" xmlns="http://www.w3.org/2000/svg">
    <g clip-path="url(#prefix__clip0_315_4482)" fill="currentColor">
        <path
            d="M19 5.292V2h1a1 1 0 100-2H4a1 1 0 000 2h1v3.292a6.963 6.963 0 003.87 6.261l.894.447-.894.447A6.963 6.963 0 005 18.708V22H4a1 1 0 000 2h16a1 1 0 000-2h-1v-3.292a6.964 6.964 0 00-3.87-6.261L14.236 12l.894-.447A6.963 6.963 0 0019 5.292zm-12 0V2h10v3.292a4.972 4.972 0 01-2.764 4.472L12 10.882 9.764 9.764A4.972 4.972 0 017 5.292zm10 13.416V22H7v-3.292a4.972 4.972 0 012.764-4.472L12 13.118l2.236 1.118A4.972 4.972 0 0117 18.708z" />
        <path
            d="M10.659 7.976a1 1 0 00.894-1.789.994.994 0 01-.553-.894 1 1 0 10-2 0 2.984 2.984 0 001.659 2.683zm2.682 8.05a1 1 0 00-.894 1.789.994.994 0 01.553.894 1 1 0 002 0 2.984 2.984 0 00-1.659-2.683z" />
    </g>
</svg>