<svg  viewBox="0 0 20 20" fill="none" xmlns="http://www.w3.org/2000/svg">
<path d="M12.7812 8.88846C13.7017 8.88846 14.4479 8.14226 14.4479 7.22179C14.4479 6.30131 13.7017 5.55512 12.7812 5.55512C11.8608 5.55512 11.1146 6.30131 11.1146 7.22179C11.1146 8.14226 11.8608 8.88846 12.7812 8.88846Z" fill="currentColor"/>
<path fill-rule="evenodd" clip-rule="evenodd" d="M8.91225 2.77734H11.0947C11.9979 2.77734 12.7263 2.77733 13.3162 2.82553C13.9236 2.87515 14.4571 2.97999 14.9507 3.23148C15.7347 3.63096 16.3721 4.26838 16.7716 5.05238C17.023 5.54596 17.1279 6.07945 17.1775 6.68682C17.2257 7.27672 17.2257 8.00517 17.2257 8.90832V11.0908C17.2257 11.994 17.2257 12.7224 17.1775 13.3123C17.1279 13.9197 17.023 14.4532 16.7716 14.9467C16.3721 15.7308 15.7347 16.3682 14.9507 16.7676C14.4571 17.0191 13.9236 17.124 13.3162 17.1736C12.7263 17.2218 11.9979 17.2218 11.0947 17.2218H8.91222C8.00908 17.2218 7.28063 17.2218 6.69073 17.1736C6.08336 17.124 5.54987 17.0191 5.05629 16.7676C4.27228 16.3682 3.63486 15.7308 3.23539 14.9467C2.9839 14.4532 2.87906 13.9197 2.82943 13.3123C2.78124 12.7224 2.78124 11.994 2.78125 11.0908V8.90834C2.78124 8.00519 2.78124 7.27672 2.82943 6.68682C2.87906 6.07945 2.9839 5.54596 3.23539 5.05238C3.63486 4.26838 4.27228 3.63096 5.05629 3.23148C5.54987 2.97999 6.08336 2.87515 6.69073 2.82553C7.28063 2.77733 8.0091 2.77734 8.91225 2.77734ZM6.82645 4.48666C6.32214 4.52786 6.0324 4.60467 5.81294 4.7165C5.34254 4.95618 4.96008 5.33863 4.7204 5.80904C4.60858 6.0285 4.53177 6.31824 4.49056 6.82254C4.44857 7.33658 4.44792 7.99684 4.44792 8.94401V10.5312L5.25103 9.5675C5.98301 8.68911 7.31122 8.62887 8.11972 9.43737L11.1146 12.4322L12.4253 11.1215C13.2448 10.302 14.5946 10.3768 15.3186 11.2817L15.5586 11.5818C15.559 11.4167 15.559 11.2414 15.559 11.0551V8.94401C15.559 7.99684 15.5584 7.33658 15.5164 6.82254C15.4752 6.31824 15.3984 6.0285 15.2865 5.80904C15.0469 5.33863 14.6644 4.95618 14.194 4.7165C13.9745 4.60467 13.6848 4.52786 13.1805 4.48666C12.6665 4.44466 12.0062 4.44401 11.059 4.44401H8.94792C8.00075 4.44401 7.34049 4.44466 6.82645 4.48666ZM4.49056 13.1766C4.48816 13.1471 4.48589 13.1172 4.48375 13.0868C4.50062 13.0698 4.5169 13.0519 4.53253 13.0331L6.5314 10.6345C6.63597 10.509 6.82571 10.5004 6.94121 10.6159L10.5253 14.2C10.8508 14.5254 11.3784 14.5254 11.7038 14.2L13.6038 12.3C13.7209 12.1829 13.9137 12.1936 14.0171 12.3229L15.3648 14.0075C15.3409 14.0744 15.3149 14.1345 15.2865 14.1901C15.0469 14.6605 14.6644 15.043 14.194 15.2826C13.9745 15.3945 13.6848 15.4713 13.1805 15.5125C12.6665 15.5545 12.0062 15.5551 11.059 15.5551H8.94792C8.00075 15.5551 7.34049 15.5545 6.82645 15.5125C6.32214 15.4713 6.0324 15.3945 5.81294 15.2826C5.34254 15.043 4.96008 14.6605 4.7204 14.1901C4.60858 13.9706 4.53177 13.6809 4.49056 13.1766Z" fill="currentColor"/>
</svg>
