<svg  viewBox="0 0 20 20" fill="none" xmlns="http://www.w3.org/2000/svg">
<path d="M9.99993 14.4444C9.53969 14.4444 9.1666 14.0713 9.16661 13.611L9.16668 9.72215C9.16668 9.26192 9.53979 8.88883 10 8.88883C10.4603 8.88884 10.8334 9.26194 10.8333 9.72218L10.8333 13.6111C10.8333 14.0713 10.4602 14.4444 9.99993 14.4444Z" fill="currentColor"/>
<path d="M8.88883 6.66661C8.88883 6.05296 9.3863 5.5555 9.99995 5.5555C10.6136 5.5555 11.1111 6.05296 11.1111 6.66661C11.1111 7.28026 10.6136 7.77772 9.99995 7.77772C9.3863 7.77772 8.88883 7.28026 8.88883 6.66661Z" fill="currentColor"/>
<path fill-rule="evenodd" clip-rule="evenodd" d="M17.7777 9.99995C17.7777 14.2955 14.2955 17.7777 9.99995 17.7777C5.7044 17.7777 2.22217 14.2955 2.22217 9.99995C2.22217 5.7044 5.7044 2.22217 9.99995 2.22217C14.2955 2.22217 17.7777 5.7044 17.7777 9.99995ZM16.1111 9.99995C16.1111 13.375 13.375 16.1111 9.99995 16.1111C6.62487 16.1111 3.88883 13.375 3.88883 9.99995C3.88883 6.62487 6.62487 3.88883 9.99995 3.88883C13.375 3.88883 16.1111 6.62487 16.1111 9.99995Z" fill="currentColor"/>
</svg>
