<svg viewBox="0 0 16 16" fill="none" xmlns="http://www.w3.org/2000/svg">
    <circle cx="8" cy="8" r="6" fill="currentColor" stroke="currentColor" stroke-width="4" />
    <path
        d="M12.4837 7.41365C12.1453 7.41365 11.9197 7.65001 11.9197 8.00456C11.9197 10.3091 10.1713 12.1409 7.97177 12.1409H7.57697C7.46418 12.1409 7.40778 12.1409 7.29498 12.0818C7.18218 12.0818 7.12578 12.0227 7.01298 12.0227C6.95658 12.0227 6.90018 11.9636 6.84378 11.9636C6.44899 11.8455 6.0542 11.6091 5.7158 11.3727C5.6594 11.3136 5.603 11.3136 5.603 11.2546C5.5466 11.1955 5.4902 11.1364 5.4338 11.1364C5.32101 11.0773 5.20821 10.9591 5.15181 10.9L5.03901 10.7818L6.0542 10.6046C6.33619 10.5455 6.56179 10.25 6.50539 9.89546C6.44899 9.60001 6.16699 9.36365 5.8286 9.42274L3.96742 9.77728L3.51623 9.89546C3.34703 9.89546 3.23423 10.0136 3.17783 10.1318C3.12144 10.25 3.06504 10.4273 3.06504 10.5455L3.51623 13.0273C3.57263 13.3227 3.79823 13.5 4.08022 13.5H4.19302C4.47502 13.4409 4.70061 13.1455 4.64421 12.7909L4.47502 11.7864C4.58782 11.9045 4.75701 12.0227 4.86981 12.1409H4.92621C4.98261 12.2 5.03901 12.2591 5.09541 12.2591C5.20821 12.3773 5.32101 12.4364 5.4902 12.4955C5.603 12.7318 5.7722 12.7909 5.9414 12.9091H5.9978C6.0542 12.9682 6.16699 12.9682 6.27979 13.0273C6.50539 13.0864 6.73099 13.1455 6.90018 13.2045C7.01298 13.2045 7.12578 13.2636 7.23858 13.2636H7.91537C10.7353 13.2636 12.9913 10.9 12.9913 7.94547C13.0477 7.65001 12.7657 7.41365 12.4837 7.41365ZM3.51623 8.59547C3.85463 8.59547 4.08022 8.3591 4.08022 8.00456C4.08022 5.70002 5.8286 3.8682 8.02817 3.8682H8.42296C8.53576 3.8682 8.59216 3.8682 8.70496 3.92729C8.81776 3.92729 8.87416 3.98638 8.98696 3.98638C9.04335 3.98638 9.09975 4.04548 9.15615 4.04548C9.55095 4.16366 9.94574 4.34093 10.2841 4.63638C10.3405 4.69547 10.3969 4.69547 10.4533 4.75457C10.5097 4.81366 10.5661 4.81366 10.6225 4.87275C10.6789 4.93184 10.7353 5.05002 10.8481 5.10911L10.9609 5.22729L9.94574 5.40456C9.66375 5.46365 9.43815 5.75911 9.49455 6.11365C9.55095 6.40911 9.77654 6.58638 10.0585 6.58638H10.1713L12.5401 6.11365C12.8221 6.05456 13.0477 5.75911 12.9913 5.40456L12.5401 2.98184C12.4837 2.68639 12.2017 2.45002 11.8633 2.50912C11.5813 2.56821 11.3557 2.86366 11.4121 3.2182L11.5813 4.22275C11.4685 4.10457 11.2993 3.92729 11.1865 3.8682H11.1301C11.0737 3.80911 11.0173 3.75002 10.9609 3.75002C10.8481 3.63184 10.7353 3.57275 10.5661 3.45457C10.3969 3.33639 10.2277 3.2773 10.0585 3.15911H10.0021C9.94574 3.10002 9.83294 3.10002 9.72015 3.04093C9.49455 2.98184 9.26895 2.92275 9.09975 2.86366C8.98696 2.86366 8.87416 2.80457 8.76136 2.80457H8.08457C5.26461 2.80457 3.00864 5.1682 3.00864 8.12274C2.95224 8.3591 3.17783 8.59547 3.51623 8.59547Z"
        fill="white" />
</svg>