<svg viewBox="0 0 96 96" fill="none" xmlns="http://www.w3.org/2000/svg">
    <g clip-path="url(#clip0_1700_34692)">
        <path
            d="M88.9688 89.7145H7.03125C5.53941 89.7145 4.10867 89.1218 3.05377 88.067C1.99888 87.0121 1.40625 85.5813 1.40625 84.0895V38.7145L44.7002 7.35474C45.66 6.65949 46.8149 6.28516 48 6.28516C49.1851 6.28516 50.34 6.65949 51.2998 7.35474L94.5938 38.7145V84.0895C94.5938 85.5813 94.0011 87.0121 92.9462 88.067C91.8913 89.1218 90.4606 89.7145 88.9688 89.7145Z"
            fill="white" />
        <path
            d="M51.2998 7.35474C50.34 6.65949 49.1851 6.28516 48 6.28516C46.8149 6.28516 45.66 6.65949 44.7002 7.35474L43.7812 8.02036L80.9632 34.9529C82.5713 36.1176 83.8803 37.647 84.783 39.4155C85.6856 41.184 86.1563 43.1413 86.1562 45.1268V84.0895C86.1562 85.5813 85.5636 87.0121 84.5087 88.067C83.4538 89.1218 82.0231 89.7145 80.5312 89.7145H88.9688C90.4606 89.7145 91.8913 89.1218 92.9462 88.067C94.0011 87.0121 94.5938 85.5813 94.5938 84.0895V38.7145L51.2998 7.35474Z"
            fill="#E1E1E3" />
        <path
            d="M29.5312 27.4648H66.4688C67.9606 27.4648 69.3913 28.0575 70.4462 29.1124C71.5011 30.1673 72.0938 31.598 72.0938 33.0898V86.9023H23.9062V33.0898C23.9062 31.598 24.4989 30.1673 25.5538 29.1124C26.6087 28.0575 28.0394 27.4648 29.5312 27.4648Z"
            fill="white" />
        <path
            d="M66.4688 27.4648H58.0312C59.5231 27.4648 60.9538 28.0575 62.0087 29.1124C63.0636 30.1673 63.6562 31.598 63.6562 33.0898V86.9023H72.0938V33.0898C72.0938 31.598 71.5011 30.1673 70.4462 29.1124C69.3913 28.0575 67.9606 27.4648 66.4688 27.4648Z"
            fill="#E1E1E3" />
        <path
            d="M53.8247 73.0173H42.175C40.76 73.0172 39.403 72.4551 38.4025 71.4546C37.4019 70.454 36.8398 69.097 36.8398 67.682C36.8398 66.4142 37.1845 65.1703 37.8369 64.0833C38.4893 62.9963 39.4249 62.1071 40.5437 61.5108L47.9998 57.5371L55.456 61.5108C56.5748 62.1071 57.5104 62.9963 58.1628 64.0833C58.8152 65.1703 59.1599 66.4142 59.1598 67.682C59.1598 69.0969 58.5977 70.4539 57.5972 71.4544C56.5967 72.455 55.2397 73.0171 53.8247 73.0171V73.0173Z"
            fill="#101828" />
        <path
            d="M55.4561 61.5108L48 57.5371L45.1875 59.036L49.8311 61.5108C50.95 62.107 51.8856 62.9962 52.5381 64.0833C53.1905 65.1703 53.5352 66.4142 53.5352 67.682C53.5351 69.097 52.973 70.454 51.9724 71.4545C50.9719 72.455 49.6149 73.0171 48.1999 73.0171H53.8249C55.2399 73.0171 56.5969 72.455 57.5974 71.4545C58.598 70.454 59.1601 69.097 59.1602 67.682C59.1602 66.4142 58.8155 65.1703 58.1631 64.0833C57.5106 62.9962 56.575 62.107 55.4561 61.5108Z"
            fill="#101828" />
        <path
            d="M45.0535 54.9727H51.0678C51.1783 54.9727 51.2843 55.0166 51.3625 55.0947C51.4407 55.1729 51.4846 55.2789 51.4846 55.3895V58.4378C51.4846 58.8875 51.396 59.3327 51.224 59.7481C51.0519 60.1635 50.7997 60.5409 50.4817 60.8589C50.1638 61.1768 49.7863 61.429 49.3709 61.601C48.9555 61.7731 48.5103 61.8616 48.0607 61.8616C47.611 61.8616 47.1658 61.7731 46.7504 61.601C46.335 61.429 45.9575 61.1768 45.6396 60.8589C45.3216 60.5409 45.0694 60.1635 44.8974 59.7481C44.7253 59.3327 44.6367 58.8875 44.6367 58.4378V55.3895C44.6367 55.2789 44.6806 55.1729 44.7588 55.0947C44.837 55.0166 44.943 54.9727 45.0535 54.9727Z"
            fill="#101828" />
        <path
            d="M54.7364 48.0865V50.4227C54.7364 52.2095 54.0267 53.923 52.7633 55.1864C51.4998 56.4498 49.7863 57.1596 47.9996 57.1596C46.2128 57.1596 44.4993 56.4498 43.2359 55.1864C41.9725 53.923 41.2627 52.2095 41.2627 50.4227V48.0865C41.2627 46.2998 41.9725 44.5862 43.2359 43.3228C44.4993 42.0594 46.2128 41.3496 47.9996 41.3496C49.7863 41.3496 51.4998 42.0594 52.7633 43.3228C54.0267 44.5862 54.7364 46.2998 54.7364 48.0865Z"
            fill="#101828" />
        <path
            d="M94.5938 38.7148V84.0898C94.5925 85.5813 93.9995 87.0113 92.9449 88.0659C91.8902 89.1206 90.4602 89.7136 88.9688 89.7148H7.03125C5.53973 89.7138 4.10959 89.1208 3.05493 88.0662C2.00026 87.0115 1.40729 85.5814 1.40625 84.0898V38.7148L31.1587 60.2661L44.7 70.0742C45.6597 70.7698 46.8147 71.1444 48 71.1444C49.1853 71.1444 50.3403 70.7698 51.3 70.0742L65.1694 60.028L94.5938 38.7148Z"
            fill="#4CC3C7" />
        <path
            d="M94.5938 38.7148V84.0898C94.5952 85.4855 94.0757 86.8315 93.1369 87.8642L92.925 87.8173L65.5031 60.3955L65.1694 60.028L94.5938 38.7148ZM31.1588 60.2661L31.05 60.3955L3.62813 87.8173L3.21751 88.2223C2.64556 87.6968 2.18918 87.058 1.87737 86.3465C1.56555 85.6351 1.40512 84.8666 1.40626 84.0898V38.7148L31.1588 60.2661Z"
            fill="#4CC3C7" />
        <path
            d="M94.5938 38.7148V84.0898C94.5938 84.1873 94.5919 84.283 94.5862 84.3786C94.5825 84.463 94.5769 84.5455 94.5675 84.628C94.5641 84.6808 94.5578 84.7333 94.5488 84.7855C94.5447 84.8389 94.5378 84.8921 94.5281 84.9448C94.5169 85.0198 94.5056 85.093 94.4888 85.1661C94.4816 85.2142 94.4716 85.2617 94.4587 85.3086C94.4494 85.365 94.4362 85.4208 94.4194 85.4755C94.4025 85.5486 94.3819 85.6217 94.3594 85.6948C94.3444 85.7473 94.3294 85.7998 94.3106 85.8523C94.2994 85.888 94.2881 85.9217 94.275 85.9555C94.2619 85.9967 94.2469 86.038 94.23 86.0773C94.2109 86.1334 94.189 86.1885 94.1644 86.2423C94.1568 86.264 94.148 86.2853 94.1381 86.3061C94.1171 86.3604 94.0933 86.4136 94.0669 86.4655C94.0481 86.5067 94.0294 86.548 94.0069 86.5892C93.9994 86.6061 93.9919 86.623 93.9825 86.6398C93.9487 86.7073 93.9131 86.773 93.8756 86.8386C93.8756 86.8405 93.8756 86.8405 93.8738 86.8423C93.8344 86.9117 93.795 86.9792 93.7537 87.0448C93.7444 87.0598 93.735 87.0748 93.7256 87.088C93.6881 87.1498 93.6487 87.2098 93.6075 87.268C93.465 87.4776 93.3077 87.6769 93.1369 87.8642C93.135 87.8661 93.1331 87.8698 93.1313 87.8717C93.0694 87.9411 93.0056 88.0086 92.9381 88.0723C92.8706 88.1398 92.8012 88.2055 92.73 88.2692C92.6587 88.3348 92.5875 88.3967 92.5125 88.4567C92.445 88.513 92.3756 88.5673 92.3044 88.618C92.2388 88.6667 92.1713 88.7136 92.1038 88.7586C92.0325 88.8092 91.9594 88.8542 91.8844 88.8992C91.83 88.9348 91.7737 88.9667 91.7156 88.9986C91.6706 89.0248 91.6256 89.0492 91.5788 89.0717C91.5495 89.0882 91.5195 89.1032 91.4888 89.1167C91.4491 89.1403 91.4077 89.161 91.365 89.1786C91.2956 89.2123 91.2263 89.2442 91.1569 89.2723L91.155 89.2742C91.0725 89.308 90.9881 89.3417 90.9019 89.3736C90.8958 89.3766 90.8896 89.3791 90.8831 89.3811C90.8062 89.4073 90.7275 89.4355 90.6487 89.4598C90.6337 89.4636 90.6188 89.4692 90.6038 89.473C90.5288 89.4955 90.4519 89.518 90.3731 89.5367C90.2869 89.5592 90.1987 89.5798 90.1087 89.5986C90.105 89.6005 90.0994 89.6005 90.0956 89.6023C90.0075 89.6192 89.9156 89.6361 89.8256 89.6492C89.7581 89.6605 89.6888 89.6698 89.6213 89.6755C89.6078 89.6793 89.594 89.6812 89.58 89.6811C89.5444 89.6867 89.5069 89.6886 89.4712 89.6923C89.4 89.6998 89.3288 89.7036 89.2575 89.7073C89.1619 89.713 89.0662 89.7148 88.9688 89.7148H80.5312C81.2699 89.7149 82.0014 89.5694 82.6839 89.2868C83.3664 89.0041 83.9865 88.5898 84.5088 88.0674C85.0312 87.5451 85.4455 86.925 85.7282 86.2425C86.0108 85.56 86.1563 84.8285 86.1562 84.0898V45.1273C86.1562 45.028 86.1544 44.9286 86.1525 44.8292L94.5938 38.7148Z"
            fill="#4CC3C7" />
        <path
            d="M94.5938 38.7148V84.0898C94.5938 84.1873 94.5919 84.283 94.5862 84.3786C94.5825 84.463 94.5769 84.5455 94.5675 84.628C94.5641 84.6808 94.5578 84.7333 94.5488 84.7855C94.5447 84.8389 94.5378 84.8921 94.5281 84.9448C94.5169 85.0198 94.5056 85.093 94.4888 85.1661C94.4816 85.2142 94.4716 85.2617 94.4587 85.3086C94.4494 85.365 94.4362 85.4208 94.4194 85.4755C94.4025 85.5486 94.3819 85.6217 94.3594 85.6948C94.3444 85.7473 94.3294 85.7998 94.3106 85.8523C94.2994 85.888 94.2881 85.9217 94.275 85.9555C94.2619 85.9967 94.2469 86.038 94.23 86.0773C94.2109 86.1334 94.189 86.1885 94.1644 86.2423C94.1568 86.264 94.148 86.2853 94.1381 86.3061C94.1171 86.3604 94.0933 86.4136 94.0669 86.4655C94.0481 86.5067 94.0294 86.548 94.0069 86.5892C93.9994 86.6061 93.9919 86.623 93.9825 86.6398C93.9487 86.7073 93.9131 86.773 93.8756 86.8386C93.8756 86.8405 93.8756 86.8405 93.8738 86.8423C93.8344 86.9117 93.795 86.9792 93.7537 87.0448C93.7444 87.0598 93.735 87.0748 93.7256 87.088C93.6881 87.1498 93.6487 87.2098 93.6075 87.268C93.4638 87.4767 93.3066 87.6759 93.1369 87.8642C93.135 87.8661 93.1331 87.8698 93.1313 87.8717C93.0675 87.9411 93.0038 88.0067 92.9381 88.0723C92.8706 88.1398 92.8012 88.2055 92.73 88.2692C92.6587 88.3348 92.5875 88.3967 92.5125 88.4567C92.445 88.513 92.3756 88.5673 92.3044 88.618C92.2388 88.6667 92.1713 88.7136 92.1038 88.7586C92.0325 88.8092 91.9594 88.8542 91.8844 88.8992C91.83 88.9348 91.7737 88.9667 91.7156 88.9986C91.6706 89.0248 91.6256 89.0492 91.5788 89.0717C91.5495 89.0882 91.5195 89.1032 91.4888 89.1167C91.4491 89.1403 91.4077 89.161 91.365 89.1786C91.2956 89.2123 91.2263 89.2442 91.1569 89.2723L91.155 89.2742C91.0725 89.308 90.9881 89.3417 90.9019 89.3736C90.8958 89.3766 90.8896 89.3791 90.8831 89.3811C90.8062 89.4073 90.7275 89.4355 90.6487 89.4598C90.6337 89.4636 90.6188 89.4692 90.6038 89.473C90.5288 89.4955 90.4519 89.518 90.3731 89.5367C90.2869 89.5592 90.1987 89.5798 90.1087 89.5986C90.105 89.6005 90.0994 89.6005 90.0956 89.6023C90.0075 89.6192 89.9156 89.6361 89.8256 89.6492C89.7581 89.6605 89.6888 89.6698 89.6213 89.6755C89.6078 89.6793 89.594 89.6812 89.58 89.6811C89.5444 89.6867 89.5069 89.6886 89.4712 89.6923C89.4 89.6998 89.3288 89.7036 89.2575 89.7073C89.1619 89.713 89.0662 89.7148 88.9688 89.7148H80.5312C81.2699 89.7149 82.0014 89.5694 82.6839 89.2868C83.3664 89.0041 83.9865 88.5898 84.5088 88.0674C85.0312 87.5451 85.4455 86.925 85.7282 86.2425C86.0108 85.56 86.1563 84.8285 86.1562 84.0898V45.1273C86.1562 45.028 86.1544 44.9286 86.1525 44.8292L94.5938 38.7148Z"
            fill="#44B4B8" />
        <path
            d="M92.925 87.8176L93.1369 87.8644C93.135 87.8663 93.1331 87.8701 93.1313 87.872C93.0675 87.9413 93.0038 88.007 92.9381 88.0726C92.8706 88.1401 92.8012 88.2057 92.73 88.2694C92.6587 88.3351 92.5875 88.3969 92.5125 88.4569C92.445 88.5132 92.3756 88.5676 92.3044 88.6182C92.2388 88.667 92.1713 88.7138 92.1038 88.7588C92.0325 88.8095 91.9594 88.8545 91.8844 88.8995C91.83 88.9351 91.7737 88.967 91.7156 88.9988C91.6706 89.0251 91.6256 89.0494 91.5788 89.0719C91.5495 89.0884 91.5195 89.1035 91.4888 89.117C91.4491 89.1405 91.4077 89.1612 91.365 89.1788C91.2956 89.2126 91.2263 89.2445 91.1569 89.2726L91.155 89.2745C91.0725 89.3082 90.9881 89.342 90.9019 89.3738C90.8958 89.3768 90.8896 89.3793 90.8831 89.3813C90.8062 89.4076 90.7275 89.4357 90.6487 89.4601C90.6337 89.4638 90.6188 89.4695 90.6038 89.4732C90.5288 89.4957 90.4519 89.5182 90.3731 89.537C90.2869 89.5595 90.1987 89.5801 90.1087 89.5988C90.105 89.6007 90.0994 89.6007 90.0956 89.6026C90.0075 89.6195 89.9156 89.6363 89.8256 89.6495C89.7581 89.6607 89.6888 89.6701 89.6213 89.6757C89.6078 89.6795 89.594 89.6814 89.58 89.6813C89.5444 89.6869 89.5069 89.6888 89.4712 89.6926C89.4 89.7001 89.3288 89.7038 89.2575 89.7076C89.1619 89.7132 89.0662 89.7151 88.9688 89.7151H80.5312C81.2699 89.7151 82.0014 89.5697 82.6839 89.287C83.3664 89.0043 83.9865 88.59 84.5088 88.0677C85.0312 87.5453 85.4455 86.9252 85.7282 86.2427C86.0108 85.5603 86.1563 84.8288 86.1562 84.0901V81.0488L92.925 87.8176Z"
            fill="#44B4B8" />
        <path
            d="M95.9874 38.5313C95.9848 38.5112 95.9803 38.4919 95.9768 38.4722C95.9701 38.4324 95.9618 38.3928 95.9518 38.3537C95.9456 38.3312 95.9385 38.3091 95.9312 38.287C95.9129 38.2289 95.8908 38.1722 95.865 38.1171C95.8492 38.0838 95.8321 38.0512 95.8138 38.0192C95.8026 37.999 95.7913 37.9787 95.7786 37.9592C95.7574 37.9264 95.7349 37.8945 95.7111 37.8636C95.6983 37.8471 95.6867 37.8298 95.6732 37.8137C95.641 37.7755 95.6067 37.739 95.5706 37.7044C95.5631 37.6973 95.5569 37.6894 95.5496 37.6825C95.5082 37.6441 95.4645 37.6083 95.4187 37.5752L52.1248 6.21527C50.926 5.34417 49.4821 4.875 48.0002 4.875C46.5183 4.875 45.0744 5.34417 43.8756 6.21527L0.581437 37.5752C0.535694 37.6084 0.49199 37.6442 0.450562 37.6826C0.44325 37.6894 0.437062 37.6971 0.429937 37.704C0.393683 37.7387 0.359321 37.7753 0.327 37.8137C0.313688 37.8298 0.301875 37.8471 0.289313 37.8638C0.265425 37.8946 0.242843 37.9265 0.221625 37.9592C0.209063 37.9787 0.197812 37.999 0.186375 38.0192C0.156278 38.0718 0.129598 38.1263 0.1065 38.1823C0.0924375 38.2168 0.08025 38.2517 0.0688125 38.2871C0.0616875 38.3093 0.054375 38.3312 0.048375 38.3537C0.0380625 38.3927 0.030375 38.4325 0.0234375 38.4722C0.019875 38.4921 0.015375 38.5114 0.01275 38.5313C0.00452762 38.5919 0.000268567 38.6529 0 38.7141V84.0891C0.00208436 85.9533 0.743544 87.7405 2.06171 89.0586C3.37987 90.3768 5.16709 91.1183 7.03125 91.1203H88.9688C90.8329 91.1183 92.6201 90.3768 93.9383 89.0586C95.2565 87.7405 95.9979 85.9533 96 84.0891V38.7141C95.9997 38.6529 95.9955 38.5919 95.9873 38.5313H95.9874ZM45.5254 8.49302C46.2447 7.97035 47.111 7.68884 48.0002 7.68884C48.8894 7.68884 49.7557 7.97035 50.475 8.49302L92.1967 38.7141L73.5002 52.2568V33.0893C73.4981 31.2251 72.7566 29.4379 71.4385 28.1197C70.1203 26.8016 68.3331 26.0601 66.4689 26.058H29.5314C27.6673 26.0601 25.8801 26.8016 24.5619 28.1197C23.2437 29.4379 22.5023 31.2251 22.5002 33.0893V52.2568L3.80362 38.7141L45.5254 8.49302ZM45.558 49.2626C47.234 50.2872 49.1605 50.8289 51.1249 50.8279C51.8642 50.8265 52.6015 50.752 53.3261 50.6057C53.2764 52.0016 52.6808 53.3222 51.6674 54.2834C50.654 55.2446 49.3038 55.7696 47.9073 55.7454C46.5107 55.7212 45.1795 55.1499 44.1999 54.1542C43.2203 53.1585 42.6708 51.8181 42.6694 50.4214V48.0851C42.6689 46.7026 43.2057 45.3739 44.1664 44.3796C45.1271 43.3854 46.4365 42.8033 47.8183 42.7563C49.2001 42.7093 50.546 43.2011 51.5721 44.1278C52.5981 45.0545 53.2239 46.3437 53.3173 47.7231C51.9666 48.0923 50.5438 48.1095 49.1844 47.7731C48.4214 47.5779 47.6918 47.27 47.0196 46.8596C46.8618 46.762 46.6862 46.6965 46.5029 46.667C46.3197 46.6375 46.1324 46.6445 45.9519 46.6877C45.7714 46.731 45.6013 46.8095 45.4513 46.9188C45.3013 47.0281 45.1744 47.166 45.0779 47.3245C44.9815 47.4831 44.9174 47.6592 44.8893 47.8427C44.8613 48.0261 44.8698 48.2133 44.9144 48.3935C44.959 48.5736 45.0389 48.7432 45.1493 48.8923C45.2598 49.0414 45.3987 49.1673 45.558 49.2625V49.2626ZM50.0777 58.2951V58.4376C50.0777 58.9727 49.8651 59.4858 49.4868 59.8642C49.1084 60.2425 48.5953 60.4551 48.0602 60.4551C47.5251 60.4551 47.012 60.2425 46.6336 59.8642C46.2552 59.4858 46.0427 58.9727 46.0427 58.4376V58.3251C47.3688 58.6543 48.7566 58.644 50.0777 58.2951ZM48.0602 63.2676C48.8268 63.2665 49.5822 63.0831 50.2641 62.7326C50.9459 62.3821 51.5347 61.8746 51.9818 61.2518L54.7956 62.7516C55.5499 63.1568 56.2012 63.7299 56.6992 64.4265L50.475 68.935C49.7557 69.4576 48.8893 69.7391 48.0002 69.7391C47.111 69.7391 46.2447 69.4576 45.5254 68.935L39.2976 64.4239C39.7967 63.7278 40.4491 63.1557 41.2044 62.7518L44.1051 61.2068C44.5498 61.8432 45.1416 62.3629 45.8302 62.7217C46.5187 63.0804 47.2838 63.2676 48.0602 63.2674V63.2676ZM56.1184 60.2695L52.8866 58.5471C52.8874 58.5105 52.8904 58.474 52.8904 58.4374V56.9282C53.9004 56.1705 54.7201 55.188 55.2848 54.0587C55.8494 52.9293 56.1434 51.684 56.1435 50.4214V48.0851C56.1435 45.9254 55.2855 43.8541 53.7584 42.327C52.2312 40.7998 50.1599 39.9418 48.0002 39.9418C45.8405 39.9418 43.7692 40.7998 42.242 42.327C40.7148 43.8541 39.8569 45.9254 39.8569 48.0851V50.4214C39.8573 51.709 40.1632 52.9781 40.7496 54.1244C41.336 55.2707 42.1861 56.2614 43.23 57.0152V58.4374C43.23 58.4535 43.2315 58.4695 43.2315 58.4856L39.8813 60.27C38.749 60.8756 37.7705 61.7325 37.0209 62.775L25.3127 54.2938V33.0893C25.314 31.9708 25.7589 30.8985 26.5498 30.1076C27.3406 29.3167 28.413 28.8718 29.5314 28.8705H66.4689C67.5874 28.8718 68.6597 29.3167 69.4506 30.1076C70.2415 30.8985 70.6864 31.9708 70.6877 33.0893V54.294L58.98 62.7745C58.2296 61.7322 57.2508 60.8754 56.1184 60.2695ZM2.81269 84.0893V41.469L29.0108 60.4455L3.33544 86.1207C2.99182 85.4987 2.81193 84.7996 2.81269 84.0891V84.0893ZM88.9689 88.308H7.03144C6.4853 88.3083 5.94437 88.202 5.439 87.9949L31.3174 62.1165L43.8756 71.2129C45.0744 72.0839 46.5183 72.5531 48.0002 72.5531C49.4821 72.5531 50.9259 72.0839 52.1248 71.2129L65.0042 61.8838L90.9386 87.8183C90.3321 88.1404 89.6557 88.3086 88.9689 88.308ZM93.1877 84.0893C93.1882 84.6599 93.0723 85.2247 92.847 85.749L67.3108 60.2128L93.1877 41.469V84.0893Z"
            fill="#101828" />
    </g>
</svg>