<svg viewBox="0 0 24 24" fill="none" xmlns="http://www.w3.org/2000/svg">
    <g opacity="0.3">
        <path opacity="0.3"
            d="M16.9664 4.9248C16.4197 4.92427 15.8956 4.70685 15.509 4.32028C15.1224 3.93371 14.905 3.40956 14.9045 2.86287V0H5.69089C4.97722 0 4.29278 0.283511 3.78814 0.788151C3.28351 1.29279 3 1.97721 3 2.69088V18.9122C3.00106 19.6252 3.28503 20.3086 3.78955 20.8124C4.29408 21.3161 4.97791 21.5991 5.69089 21.5991H16.7514C17.4644 21.5991 18.1482 21.3161 18.6528 20.8124C19.1573 20.3086 19.4413 19.6252 19.4423 18.9122V4.9248H16.9664Z"
            fill="#FF3E4C" />
    </g>
    <path
        d="M19.4421 4.9248H16.9662C16.4195 4.92427 15.8954 4.70685 15.5088 4.32028C15.1222 3.93371 14.9048 3.40956 14.9043 2.86287V0L19.4421 4.9248Z"
        fill="#FF3E4C" />
    <path
        d="M16.0599 15.0849H5.73631C5.63686 15.0849 5.54148 15.0454 5.47116 14.9751C5.40083 14.9047 5.36133 14.8094 5.36133 14.7099C5.36159 14.6106 5.40122 14.5155 5.47151 14.4454C5.5418 14.3753 5.63703 14.3359 5.73631 14.3359H16.0599C16.1591 14.3359 16.2542 14.3753 16.3243 14.4455C16.3945 14.5156 16.4339 14.6107 16.4339 14.7099C16.434 14.7591 16.4244 14.8079 16.4057 14.8533C16.387 14.8988 16.3594 14.9402 16.3247 14.975C16.2899 15.0098 16.2487 15.0375 16.2032 15.0563C16.1578 15.0752 16.1091 15.0849 16.0599 15.0849Z"
        fill="#FF3E4C" />
    <path
        d="M16.0599 10.8583H5.73631C5.63703 10.8583 5.5418 10.819 5.47151 10.7489C5.40122 10.6787 5.36159 10.5836 5.36133 10.4844C5.36133 10.3849 5.40083 10.2895 5.47116 10.2192C5.54148 10.1489 5.63686 10.1094 5.73631 10.1094H16.0599C16.1091 10.1094 16.1578 10.1191 16.2032 10.1379C16.2487 10.1568 16.2899 10.1844 16.3247 10.2193C16.3594 10.2541 16.387 10.2954 16.4057 10.3409C16.4244 10.3864 16.434 10.4352 16.4339 10.4844C16.4339 10.5835 16.3945 10.6787 16.3243 10.7488C16.2542 10.8189 16.1591 10.8583 16.0599 10.8583Z"
        fill="#FF3E4C" />
    <path
        d="M16.0599 12.9716H5.73631C5.63686 12.9716 5.54148 12.9321 5.47116 12.8618C5.40083 12.7915 5.36133 12.6961 5.36133 12.5966C5.36159 12.4974 5.40122 12.4022 5.47151 12.3321C5.5418 12.262 5.63703 12.2227 5.73631 12.2227H16.0599C16.1591 12.2227 16.2542 12.2621 16.3243 12.3322C16.3945 12.4023 16.4339 12.4975 16.4339 12.5966C16.434 12.6458 16.4244 12.6946 16.4057 12.7401C16.387 12.7856 16.3594 12.8269 16.3247 12.8617C16.2899 12.8966 16.2487 12.9242 16.2032 12.9431C16.1578 12.9619 16.1091 12.9716 16.0599 12.9716Z"
        fill="#FF3E4C" />
    <path
        d="M11.9881 8.74897H5.73631C5.63703 8.74897 5.5418 8.70961 5.47151 8.6395C5.40122 8.56939 5.36159 8.47426 5.36133 8.37498C5.36133 8.27553 5.40083 8.18016 5.47116 8.10983C5.54148 8.03951 5.63686 8 5.73631 8H11.9881C12.0873 8.00026 12.1825 8.03988 12.2526 8.11018C12.3227 8.18047 12.362 8.27571 12.362 8.37498C12.3618 8.47409 12.3223 8.56906 12.2522 8.63913C12.1821 8.70921 12.0872 8.7487 11.9881 8.74897V8.74897Z"
        fill="#FF3E4C" />
    <path
        d="M11.9881 6.63569H5.73631C5.63703 6.63569 5.5418 6.5963 5.47151 6.52619C5.40122 6.45609 5.36159 6.36098 5.36133 6.2617C5.36133 6.16225 5.40083 6.06685 5.47116 5.99653C5.54148 5.92621 5.63686 5.88672 5.73631 5.88672H11.9881C12.0873 5.88698 12.1825 5.9266 12.2526 5.99689C12.3227 6.06719 12.362 6.16242 12.362 6.2617C12.3618 6.36081 12.3223 6.45577 12.2522 6.52585C12.1821 6.59593 12.0872 6.63542 11.9881 6.63569Z"
        fill="#FF3E4C" />
    <path
        d="M21.3936 17.0586H8.89011C8.00318 17.0586 7.28418 17.7776 7.28418 18.6645V22.3924C7.28418 23.2793 8.00318 23.9983 8.89011 23.9983H21.3936C22.2805 23.9983 22.9995 23.2793 22.9995 22.3924V18.6645C22.9995 17.7776 22.2805 17.0586 21.3936 17.0586Z"
        fill="#FF3E4C" />
    <path d="M11.3858 21.3359V22.0629H10.6338V21.3359H11.3858Z" fill="white" />
    <path
        d="M12.4916 21.0105V22.0655H11.7646V19.0586H12.9426C13.2996 19.0586 13.5726 19.1476 13.7596 19.3246C13.8542 19.4176 13.9281 19.5295 13.9763 19.6531C14.0246 19.7766 14.0461 19.909 14.0396 20.0415C14.0432 20.2164 14 20.389 13.9146 20.5415C13.8273 20.6906 13.6979 20.8107 13.5426 20.8865C13.3553 20.975 13.1497 21.0179 12.9426 21.0115L12.4916 21.0105ZM13.2996 20.0415C13.2996 19.7749 13.1536 19.6416 12.8616 19.6416H12.4916V20.4245H12.8616C13.1536 20.4272 13.2996 20.2995 13.2996 20.0415Z"
        fill="white" />
    <path
        d="M16.9124 21.3371C16.7872 21.5645 16.598 21.7502 16.3684 21.8711C16.11 22.0034 15.8226 22.0691 15.5324 22.0621H14.3975V19.0552H15.5324C15.8228 19.0479 16.1106 19.1121 16.3704 19.2422C16.5994 19.3606 16.788 19.5444 16.9124 19.7702C17.0425 20.01 17.1079 20.2795 17.1023 20.5522C17.1078 20.8258 17.0423 21.0962 16.9124 21.3371V21.3371ZM16.1304 21.1861C16.2117 21.1027 16.2747 21.0032 16.3153 20.8941C16.3559 20.7849 16.3733 20.6685 16.3664 20.5522C16.3734 20.4361 16.356 20.3197 16.3153 20.2107C16.2747 20.1017 16.2117 20.0024 16.1304 19.9192C15.9485 19.7596 15.7109 19.6784 15.4694 19.6932H15.1244V21.4111H15.4694C15.7107 21.4258 15.9481 21.345 16.1304 21.1861V21.1861Z"
        fill="white" />
    <path d="M19.4756 19.0586V19.6376H18.2426V20.2965H19.1946V20.8495H18.2426V22.0655H17.5146V19.0586H19.4756Z"
        fill="white" />
    <path
        d="M15.8767 5.88672H14.1088C13.8006 5.88672 13.5508 6.13653 13.5508 6.4447V8.21262C13.5508 8.52078 13.8006 8.7706 14.1088 8.7706H15.8767C16.1848 8.7706 16.4347 8.52078 16.4347 8.21262V6.4447C16.4347 6.13653 16.1848 5.88672 15.8767 5.88672Z"
        fill="#FF3E4C" />
</svg>