<svg viewBox="0 0 20 20" fill="none" xmlns="http://www.w3.org/2000/svg">
<path d="M10.0002 1.10938C10.4605 1.10938 10.8336 1.48247 10.8336 1.94271V2.49826C10.8336 2.9585 10.4605 3.3316 10.0002 3.3316C9.53998 3.3316 9.16688 2.9585 9.16688 2.49826V1.94271C9.16688 1.48247 9.53998 1.10938 10.0002 1.10938Z" fill="currentColor"/>
<path d="M5.08976 3.51666C4.76433 3.19123 4.23669 3.19123 3.91125 3.51666C3.58582 3.8421 3.58582 4.36974 3.91125 4.69518L4.30409 5.08801C4.62953 5.41345 5.15716 5.41345 5.4826 5.08801C5.80804 4.76258 5.80804 4.23494 5.4826 3.9095L5.08976 3.51666Z" fill="currentColor"/>
<path d="M1.11133 9.72049C1.11133 9.26025 1.48442 8.88715 1.94466 8.88715H2.50022C2.96045 8.88715 3.33355 9.26025 3.33355 9.72049C3.33355 10.1807 2.96045 10.5538 2.50022 10.5538H1.94466C1.48442 10.5538 1.11133 10.1807 1.11133 9.72049Z" fill="currentColor"/>
<path d="M16.6669 9.72049C16.6669 9.26025 17.04 8.88715 17.5002 8.88715H18.0558C18.516 8.88715 18.8891 9.26025 18.8891 9.72049C18.8891 10.1807 18.516 10.5538 18.0558 10.5538H17.5002C17.04 10.5538 16.6669 10.1807 16.6669 9.72049Z" fill="currentColor"/>
<path d="M16.2856 4.89157C16.611 4.56614 16.611 4.0385 16.2856 3.71306C15.9602 3.38763 15.4325 3.38763 15.1071 3.71306L14.7143 4.1059C14.3888 4.43134 14.3888 4.95897 14.7143 5.28441C15.0397 5.60985 15.5673 5.60985 15.8928 5.28441L16.2856 4.89157Z" fill="currentColor"/>
<path fill-rule="evenodd" clip-rule="evenodd" d="M6.08211 5.55186C8.24602 3.38795 11.7544 3.38795 13.9183 5.55186C14.9727 6.60625 15.5413 7.88872 15.5413 9.21551C15.5413 10.5423 14.9727 11.8248 13.9183 12.8791C13.8985 12.899 13.8786 12.9185 13.8585 12.9379C13.3332 13.4437 13.0558 13.9005 13.0558 14.3165V15.5537C13.0558 17.0878 11.8121 18.3315 10.278 18.3315H9.72245C8.18832 18.3315 6.94467 17.0878 6.94467 15.5537V14.3165C6.94467 13.9005 6.66724 13.4437 6.14194 12.9379C6.12187 12.9185 6.10193 12.899 6.08211 12.8791C5.02772 11.8248 4.45917 10.5423 4.45917 9.21551C4.45917 7.88872 5.02772 6.60625 6.08211 5.55186ZM12.7398 6.73038C11.2268 5.21733 8.77366 5.21733 7.26062 6.73038C6.47653 7.51447 6.12584 8.38714 6.12584 9.21551C6.12584 10.0439 6.47653 10.9165 7.26062 11.7006C7.27305 11.7131 7.28552 11.7253 7.29805 11.7374C7.70479 12.1291 8.1734 12.6656 8.42628 13.3316H11.5742C11.8271 12.6656 12.2957 12.1291 12.7024 11.7374C12.7149 11.7253 12.7274 11.7131 12.7398 11.7006C13.5239 10.9165 13.8746 10.0439 13.8746 9.21551C13.8746 8.38714 13.5239 7.51447 12.7398 6.73038ZM11.3891 14.9983H8.61134V15.5537C8.61134 16.1673 9.1088 16.6648 9.72245 16.6648H10.278C10.8917 16.6648 11.3891 16.1673 11.3891 15.5537V14.9983Z" fill="currentColor"/>
</svg>
