<svg viewBox="0 0 20 20" fill="none" xmlns="http://www.w3.org/2000/svg">
<path fill-rule="evenodd" clip-rule="evenodd" d="M4.44488 2.22217C3.21758 2.22217 2.22266 3.21709 2.22266 4.44439V6.66661C2.22266 7.89391 3.21758 8.88883 4.44488 8.88883H6.6671C7.8944 8.88883 8.88932 7.89391 8.88932 6.66661V4.44439C8.88932 3.21709 7.8944 2.22217 6.6671 2.22217H4.44488ZM3.88932 4.44439C3.88932 4.13757 4.13805 3.88883 4.44488 3.88883H6.6671C6.97393 3.88883 7.22266 4.13757 7.22266 4.44439V6.66661C7.22266 6.97344 6.97393 7.22217 6.6671 7.22217H4.44488C4.13805 7.22217 3.88932 6.97344 3.88932 6.66661V4.44439Z" fill="currentColor"/>
<path fill-rule="evenodd" clip-rule="evenodd" d="M4.44488 11.1111C3.21758 11.1111 2.22266 12.106 2.22266 13.3333V15.5555C2.22266 16.7828 3.21758 17.7777 4.44488 17.7777H6.6671C7.8944 17.7777 8.88932 16.7828 8.88932 15.5555V13.3333C8.88932 12.106 7.8944 11.1111 6.6671 11.1111H4.44488ZM3.88932 13.3333C3.88932 13.0265 4.13805 12.7777 4.44488 12.7777H6.6671C6.97393 12.7777 7.22266 13.0265 7.22266 13.3333V15.5555C7.22266 15.8623 6.97393 16.1111 6.6671 16.1111H4.44488C4.13805 16.1111 3.88932 15.8623 3.88932 15.5555V13.3333Z" fill="currentColor"/>
<path d="M10.0004 4.16661C10.0004 3.70638 10.3735 3.33328 10.8338 3.33328H16.9449C17.4051 3.33328 17.7782 3.70638 17.7782 4.16661C17.7782 4.62685 17.4051 4.99995 16.9449 4.99995H10.8338C10.3735 4.99995 10.0004 4.62685 10.0004 4.16661Z" fill="currentColor"/>
<path d="M10.8338 6.11106C10.3735 6.11106 10.0004 6.48415 10.0004 6.94439C10.0004 7.40463 10.3735 7.77772 10.8338 7.77772H15.8338C16.294 7.77772 16.6671 7.40463 16.6671 6.94439C16.6671 6.48415 16.294 6.11106 15.8338 6.11106H10.8338Z" fill="currentColor"/>
<path d="M10.0004 13.0555C10.0004 12.5953 10.3735 12.2222 10.8338 12.2222H16.9449C17.4051 12.2222 17.7782 12.5953 17.7782 13.0555C17.7782 13.5157 17.4051 13.8888 16.9449 13.8888H10.8338C10.3735 13.8888 10.0004 13.5157 10.0004 13.0555Z" fill="currentColor"/>
<path d="M10.8338 14.9999C10.3735 14.9999 10.0004 15.373 10.0004 15.8333C10.0004 16.2935 10.3735 16.6666 10.8338 16.6666H14.7227C15.1829 16.6666 15.556 16.2935 15.556 15.8333C15.556 15.373 15.1829 14.9999 14.7227 14.9999H10.8338Z" fill="currentColor"/>
</svg>
