<svg viewBox="0 0 24 24" fill="none" xmlns="http://www.w3.org/2000/svg">
    <path fill-rule="evenodd" clip-rule="evenodd"
        d="M17.5027 6.91249L13.9108 6.83124L10.319 6.75L3.13524 6.91249C1.80408 6.9426 0.67698 7.90322 0.436292 9.21278C-0.145431 12.3779 -0.145431 15.6225 0.436292 18.7876C0.676981 20.0972 1.80408 21.0578 3.13524 21.0879L10.319 21.2504L17.5027 21.0879C18.8338 21.0578 19.9609 20.0972 20.2016 18.7876C20.7834 15.6225 20.7834 12.3779 20.2016 9.21278C19.9609 7.90322 18.8338 6.9426 17.5027 6.91249ZM3.16916 8.41211L10.319 8.25038L13.8939 8.33124L17.4688 8.41211C18.089 8.42613 18.6142 8.87374 18.7263 9.48393C18.8796 10.3179 18.9901 11.1578 19.0577 12.0002H1.58018C1.64783 11.1578 1.7583 10.3179 1.91158 9.48393C2.02373 8.87374 2.5489 8.42613 3.16916 8.41211ZM1.5 14.0002C1.5 15.5119 1.63719 17.0235 1.91158 18.5165C2.02373 19.1266 2.5489 19.5742 3.16916 19.5883L10.319 19.75L17.4688 19.5883C18.089 19.5742 18.6142 19.1266 18.7263 18.5165C19.0007 17.0235 19.1379 15.5119 19.1379 14.0002H1.5Z"
        fill="currentColor" />
    <path
        d="M1.52422 12C1.82422 10.5 2.66658 10 4.32344 10H15.3234C16.9803 10 19.0642 10.3431 19.0642 12L19.1442 14C19.1442 15.6569 16.9803 17 15.3234 17H4.32344C2.66658 17 1.52344 15.6569 1.52344 14L1.52422 12Z"
        fill="white" />
    <path
        d="M4.88831 16.47C4.83698 16.47 4.79265 16.4537 4.75531 16.421C4.72265 16.3837 4.70631 16.3393 4.70631 16.288V12.872H3.50231C3.45098 12.872 3.40665 12.8557 3.36931 12.823C3.33665 12.7857 3.32031 12.7413 3.32031 12.69V11.752C3.32031 11.7007 3.33665 11.6587 3.36931 11.626C3.40665 11.5887 3.45098 11.57 3.50231 11.57H7.43631C7.48765 11.57 7.52965 11.5887 7.56231 11.626C7.59965 11.6587 7.61831 11.7007 7.61831 11.752V12.69C7.61831 12.7413 7.59965 12.7857 7.56231 12.823C7.52965 12.8557 7.48765 12.872 7.43631 12.872H6.23231V16.288C6.23231 16.3393 6.21365 16.3837 6.17631 16.421C6.14365 16.4537 6.10165 16.47 6.05031 16.47H4.88831Z"
        fill="currentColor" />
    <path
        d="M8.36972 16.47C8.32305 16.47 8.28105 16.4537 8.24372 16.421C8.20639 16.3837 8.18772 16.3393 8.18772 16.288V11.752C8.18772 11.7007 8.20639 11.6587 8.24372 11.626C8.28105 11.5887 8.32305 11.57 8.36972 11.57H10.2877C10.7404 11.57 11.1324 11.6447 11.4637 11.794C11.7951 11.9387 12.0564 12.1533 12.2477 12.438C12.4391 12.7227 12.5417 13.0727 12.5557 13.488C12.5651 13.6887 12.5697 13.866 12.5697 14.02C12.5697 14.174 12.5651 14.349 12.5557 14.545C12.5371 14.9837 12.4367 15.3453 12.2547 15.63C12.0774 15.9147 11.8254 16.127 11.4987 16.267C11.1721 16.4023 10.7801 16.47 10.3227 16.47H8.36972ZM9.69272 15.28H10.2877C10.4417 15.28 10.5724 15.2543 10.6797 15.203C10.7871 15.1517 10.8711 15.0723 10.9317 14.965C10.9924 14.853 11.0251 14.7107 11.0297 14.538C11.0344 14.4027 11.0367 14.2813 11.0367 14.174C11.0414 14.0667 11.0414 13.9593 11.0367 13.852C11.0367 13.7447 11.0344 13.6257 11.0297 13.495C11.0204 13.2383 10.9457 13.0517 10.8057 12.935C10.6704 12.8183 10.4861 12.76 10.2527 12.76H9.69272V15.28Z"
        fill="currentColor" />
    <path
        d="M15.2195 16.54C14.7295 16.54 14.3212 16.4723 13.9945 16.337C13.6725 16.197 13.4298 16.0173 13.2665 15.798C13.1078 15.574 13.0238 15.3383 13.0145 15.091C13.0145 15.049 13.0285 15.014 13.0565 14.986C13.0845 14.958 13.1195 14.944 13.1615 14.944H14.2745C14.3398 14.944 14.3912 14.9557 14.4285 14.979C14.4658 14.9977 14.5055 15.0257 14.5475 15.063C14.5895 15.1143 14.6385 15.1633 14.6945 15.21C14.7505 15.252 14.8228 15.287 14.9115 15.315C15.0002 15.3383 15.1028 15.35 15.2195 15.35C15.4342 15.35 15.5998 15.322 15.7165 15.266C15.8332 15.2053 15.8915 15.1237 15.8915 15.021C15.8915 14.9417 15.8588 14.8763 15.7935 14.825C15.7328 14.7737 15.6278 14.727 15.4785 14.685C15.3292 14.643 15.1262 14.5987 14.8695 14.552C14.5102 14.4913 14.1998 14.4027 13.9385 14.286C13.6772 14.1647 13.4765 14.0037 13.3365 13.803C13.2012 13.5977 13.1335 13.3457 13.1335 13.047C13.1335 12.7437 13.2175 12.4753 13.3855 12.242C13.5582 12.0087 13.7962 11.8267 14.0995 11.696C14.4075 11.5653 14.7645 11.5 15.1705 11.5C15.5065 11.5 15.8028 11.5443 16.0595 11.633C16.3208 11.7217 16.5402 11.8383 16.7175 11.983C16.8948 12.123 17.0302 12.2747 17.1235 12.438C17.2168 12.6013 17.2658 12.7577 17.2705 12.907C17.2705 12.949 17.2542 12.9863 17.2215 13.019C17.1935 13.047 17.1608 13.061 17.1235 13.061H15.9545C15.8985 13.061 15.8495 13.0517 15.8075 13.033C15.7702 13.0143 15.7352 12.984 15.7025 12.942C15.6792 12.8767 15.6208 12.8183 15.5275 12.767C15.4342 12.7157 15.3152 12.69 15.1705 12.69C15.0118 12.69 14.8905 12.718 14.8065 12.774C14.7225 12.8253 14.6805 12.9023 14.6805 13.005C14.6805 13.075 14.7062 13.1357 14.7575 13.187C14.8088 13.2383 14.8998 13.285 15.0305 13.327C15.1612 13.3643 15.3432 13.4063 15.5765 13.453C16.0198 13.5183 16.3768 13.6117 16.6475 13.733C16.9228 13.8543 17.1235 14.013 17.2495 14.209C17.3755 14.405 17.4385 14.65 17.4385 14.944C17.4385 15.2753 17.3428 15.56 17.1515 15.798C16.9602 16.036 16.6965 16.2203 16.3605 16.351C16.0292 16.477 15.6488 16.54 15.2195 16.54Z"
        fill="currentColor" />
    <circle cx="18.3203" cy="7" r="4.25" fill="white" stroke="currentColor" stroke-width="1.5" />
    <path
        d="M16.7532 8.97198C16.673 8.97198 16.6328 8.93442 16.6328 8.85931C16.6328 8.83677 16.6398 8.81611 16.6538 8.79734L19.2349 5.13536C19.2593 5.10156 19.2838 5.07527 19.3082 5.05649C19.3361 5.03771 19.3745 5.02832 19.4234 5.02832H19.8841C19.9644 5.02832 20.0045 5.06588 20.0045 5.141C20.0045 5.16353 19.9976 5.18419 19.9836 5.20297L17.3972 8.86494C17.3728 8.89874 17.3483 8.92503 17.3239 8.94381C17.2995 8.96259 17.2628 8.97198 17.214 8.97198H16.7532Z"
        fill="currentColor" />
    <circle cx="17.3203" cy="6" r="0.5" fill="currentColor" />
    <circle cx="19.3203" cy="8" r="0.5" fill="currentColor" />
</svg>