<svg viewBox="0 0 20 20" fill="none" xmlns="http://www.w3.org/2000/svg">
<path fill-rule="evenodd" clip-rule="evenodd" d="M4.94646 12.6153C3.4162 12.5226 2.22266 11.2545 2.22266 9.72144C2.22266 8.18838 3.4162 6.92031 4.94646 6.82756L9.40258 6.5575C9.4572 6.55419 9.50962 6.53482 9.55327 6.50183L12.9946 3.9007C14.2756 2.93253 16.1115 3.84624 16.1115 5.45189V13.9045C16.1115 15.5015 14.293 16.4176 13.0097 15.467L10.1512 13.3496L9.83239 16.0597C9.71719 17.039 8.88727 17.777 7.90127 17.777H7.50043C6.42655 17.777 5.55599 16.9064 5.55599 15.8325V12.6523L4.94646 12.6153ZM3.88932 9.72144C3.88932 10.3732 4.39673 10.9123 5.04729 10.9517L9.55397 11.2248C9.92988 11.2476 10.2911 11.3791 10.5937 11.6033L14.0018 14.1277C14.1851 14.2635 14.4449 14.1327 14.4449 13.9045V5.45189C14.4449 5.22252 14.1826 5.09198 13.9996 5.2303L10.5582 7.83142C10.2527 8.06237 9.88572 8.19794 9.50341 8.22111L5.04729 8.49118C4.39673 8.53061 3.88932 9.0697 3.88932 9.72144ZM7.22266 12.7533L8.53388 12.8327L8.17714 15.865C8.16068 16.0049 8.04212 16.1103 7.90127 16.1103H7.50043C7.34702 16.1103 7.22266 15.9859 7.22266 15.8325V12.7533Z" fill="currentColor"/>
<path d="M18.3338 8.6103C18.3338 8.15007 17.9607 7.77697 17.5004 7.77697C17.0402 7.77697 16.6671 8.15007 16.6671 8.6103V11.3881C16.6671 11.8483 17.0402 12.2214 17.5004 12.2214C17.9607 12.2214 18.3338 11.8483 18.3338 11.3881V8.6103Z" fill="currentColor"/>
</svg>
