<svg viewBox="0 0 55 56" fill="none" xmlns="http://www.w3.org/2000/svg">
    <path
        d="M43.9584 7.42987H10.9306C7.47519 7.42987 4.66669 10.2406 4.66669 13.6983V42.1591C4.66669 45.6168 7.47519 48.4299 10.9306 48.4299H43.9584C47.4137 48.4299 50.2222 45.6168 50.2222 42.1591V13.6983C50.2222 10.2406 47.4137 7.42987 43.9584 7.42987ZM10.9306 10.8465H43.9584C45.53 10.8465 46.8056 12.1221 46.8056 13.6938V15.3201L28.4695 27.5449C27.8476 27.9549 27.0436 27.9595 26.4195 27.5404L8.08335 15.3201V13.6938C8.08335 12.1221 9.35891 10.8465 10.9306 10.8465V10.8465ZM43.9584 45.0086H10.9306C9.35891 45.0086 8.08335 43.7331 8.08335 42.1614V19.3244L24.5745 30.3261C25.4469 30.9092 26.4468 31.2008 27.4445 31.2008C28.4467 31.2008 29.4421 30.9092 30.3145 30.3284L46.8056 19.3267V42.1546C46.8056 43.7263 45.53 45.0018 43.9584 45.0018V45.0086Z"
        fill="currentColor" />
</svg>