<svg viewBox="0 0 24 24" fill="none" xmlns="http://www.w3.org/2000/svg">
    <g clip-path="url(#clip0_4081_15351)">
        <path
            d="M14.1566 3H4.26172C3.01445 3 2 4.04167 2 5.3224V15.7311C2 16.224 2.54297 16.502 2.92617 16.2208L6.14766 13.8607C6.41797 13.663 6.73594 13.5583 7.06797 13.5583H14.1535C15.4008 13.5583 16.4152 12.5166 16.4152 11.2359V5.31919C16.4152 4.03846 15.4039 3 14.1566 3ZM12.9832 10.2885H6.21328C5.88984 10.2885 5.62734 10.0193 5.62734 9.68683C5.62734 9.35471 5.88984 9.08517 6.21328 9.08517H12.9832C13.3066 9.08517 13.5691 9.35471 13.5691 9.68683C13.5691 10.0193 13.3066 10.2885 12.9832 10.2885ZM12.9832 7.48075H6.21328C5.88984 7.48075 5.62734 7.21161 5.62734 6.87909C5.62734 6.54697 5.88984 6.27743 6.21328 6.27743H12.9832C13.3066 6.27743 13.5691 6.54697 13.5691 6.87909C13.5691 7.21161 13.3066 7.48075 12.9832 7.48075Z"
            fill="currentColor" />
        <path
            d="M21.9992 9.99077V20.399C21.9992 20.8888 21.459 21.172 21.073 20.8888L17.8516 18.5291C17.5813 18.3314 17.2633 18.2267 16.9313 18.2267H9.8457C8.59844 18.2267 7.58398 17.1846 7.58398 15.9039V14.7631H14.1527C16.0461 14.7631 17.5863 13.1816 17.5863 11.2374V7.66797H19.7375C20.9848 7.66797 21.9992 8.71004 21.9992 9.99077Z"
            fill="currentColor" />
    </g>
    <defs>
        <clipPath id="clip0_4081_15351">
            <rect width="20" height="18" fill="white" transform="translate(2 3)" />
        </clipPath>
    </defs>
</svg>