<svg viewBox="0 0 20 20" fill="none" xmlns="http://www.w3.org/2000/svg">
<path d="M14.1662 9.44792C14.6265 9.44792 14.9996 9.07482 14.9996 8.61458C14.9996 8.15435 14.6265 7.78125 14.1662 7.78125H13.4003L16.9777 4.20384C17.3031 3.8784 17.3031 3.35076 16.9777 3.02533C16.6523 2.69989 16.1246 2.69989 15.7992 3.02533L12.2218 6.60274V5.83681C12.2218 5.37657 11.8487 5.00347 11.3885 5.00347C10.9282 5.00347 10.5551 5.37657 10.5551 5.83681V8.61458C10.5551 9.07482 10.9282 9.44792 11.3885 9.44792L14.1662 9.44792Z" fill="currentColor"/>
<path d="M5.8329 10.559C5.37266 10.559 4.99957 10.9321 4.99957 11.3924C4.99957 11.8526 5.37266 12.2257 5.8329 12.2257H6.59883L3.02142 15.8031C2.69598 16.1285 2.69598 16.6562 3.02142 16.9816C3.34686 17.3071 3.8745 17.3071 4.19993 16.9816L7.77734 13.4042V14.1701C7.77734 14.6304 8.15044 15.0035 8.61068 15.0035C9.07091 15.0035 9.44401 14.6304 9.44401 14.1701V11.3924C9.44401 10.9321 9.07091 10.559 8.61068 10.559H5.8329Z" fill="currentColor"/>
</svg>
