<svg xmlns="http://www.w3.org/2000/svg" viewBox="0 0 20 20" fill="none">
    <path
        d="M8.333 10.218h.75a.75.75 0 00-.176-.483l-.574.483zM3.906 4.953l.574-.482-.574.482zm12.235 0l-.574-.482.574.482zm-4.474 5.32l-.574-.482a.75.75 0 00-.176.483h.75zm0 3.894l.45.6a.75.75 0 00.3-.6h-.75zm-3.334 2.5h-.75a.75.75 0 001.2.6l-.45-.6zm.574-6.932L4.48 4.471l-1.148.965L7.759 10.7l1.148-.965zM4.48 4.471a.25.25 0 01.191-.411v-1.5c-1.487 0-2.296 1.738-1.339 2.876l1.148-.965zm.191-.411h10.705v-1.5H4.671v1.5zm10.705 0a.25.25 0 01.191.41l1.148.966c.958-1.138.148-2.876-1.339-2.876v1.5zm.191.41l-4.474 5.321 1.148.966 4.474-5.32-1.148-.966zm-4.65 5.804v3.893h1.5v-3.893h-1.5zm.3 3.293l-3.334 2.5.9 1.2 3.334-2.5-.9-1.2zm-2.134 3.1v-6.45h-1.5v6.45h1.5z"
        fill="currentColor" />
    <circle cx="16" cy="4" r="3" fill="#006443" stroke="white" stroke-width="2" />
</svg>