<svg viewBox="0 0 28 28" fill="none" xmlns="http://www.w3.org/2000/svg">
<path d="M15.75 7.58395C15.75 8.55045 14.9665 9.33395 14 9.33395C13.0335 9.33395 12.25 8.55045 12.25 7.58395C12.25 6.61746 13.0335 5.83395 14 5.83395C14.9665 5.83395 15.75 6.61746 15.75 7.58395Z" fill="currentColor"/>
<path d="M15.75 14C15.75 14.9665 14.9665 15.75 14 15.75C13.0335 15.75 12.25 14.9665 12.25 14C12.25 13.0335 13.0335 12.25 14 12.25C14.9665 12.25 15.75 13.0335 15.75 14Z" fill="currentColor"/>
<path d="M15.75 20.416C15.75 21.3825 14.9665 22.166 14 22.166C13.0335 22.166 12.25 21.3825 12.25 20.416C12.25 19.4495 13.0335 18.666 14 18.666C14.9665 18.666 15.75 19.4495 15.75 20.416Z" fill="currentColor"/>
</svg>
