<svg width="170" height="152" viewBox="0 0 170 152" fill="none" xmlns="http://www.w3.org/2000/svg">
<path fill-rule="evenodd" clip-rule="evenodd" d="M109.222 100C111.861 100 114 102.149 114 104.8C114 107.451 111.861 109.6 109.222 109.6H81.9162C84.5552 109.6 86.6946 111.749 86.6946 114.4C86.6946 117.051 84.5552 119.2 81.9162 119.2H96.9341C99.5732 119.2 101.713 121.349 101.713 124C101.713 126.651 99.5732 128.8 96.9341 128.8H89.9891C86.6615 128.8 83.9641 130.949 83.9641 133.6C83.9641 135.367 85.3293 136.967 88.0599 138.4C90.6989 138.4 92.8383 140.549 92.8383 143.2C92.8383 145.851 90.6989 148 88.0599 148H31.4012C28.7621 148 26.6228 145.851 26.6228 143.2C26.6228 140.549 28.7621 138.4 31.4012 138.4H4.77844C2.13938 138.4 0 136.251 0 133.6C0 130.949 2.13938 128.8 4.77844 128.8H32.0838C34.7229 128.8 36.8623 126.651 36.8623 124C36.8623 121.349 34.7229 119.2 32.0838 119.2H15.018C12.3789 119.2 10.2395 117.051 10.2395 114.4C10.2395 111.749 12.3789 109.6 15.018 109.6H42.3234C39.6843 109.6 37.5449 107.451 37.5449 104.8C37.5449 102.149 39.6843 100 42.3234 100H109.222ZM109.222 119.2C111.861 119.2 114 121.349 114 124C114 126.651 111.861 128.8 109.222 128.8C106.582 128.8 104.443 126.651 104.443 124C104.443 121.349 106.582 119.2 109.222 119.2Z" fill="#F1F3F5"/>
<path d="M85.875 30.3491L167.998 0L164.783 12.3598C163.362 17.8251 163.356 23.5651 164.765 29.0334L165.53 32.0167C167.139 38.2691 166.895 44.8581 164.828 50.9726C162.579 57.6254 162.493 64.8251 164.581 71.5305L167.998 82.4881L85.875 33.1504V30.3491Z" fill="url(#paint0_linear_1269_29995)"/>
<g clip-path="url(#clip0_1269_29995)">
<mask id="path-3-outside-1_1269_29995" maskUnits="userSpaceOnUse" x="133.795" y="30.4625" width="32.9159" height="32.9159" fill="black">
<rect fill="white" x="133.795" y="30.4625" width="32.9159" height="32.9159"/>
<path d="M158.427 59.9307L156.569 59.4484L160.909 42.7223C160.953 42.5892 160.952 42.4451 160.904 42.313C160.857 42.1809 160.767 42.0684 160.648 41.9935L156.605 38.9213L151.613 58.1625L150.374 57.841L156 36.159C156.042 35.9947 156.018 35.8202 155.932 35.6739C155.846 35.5276 155.705 35.4214 155.541 35.3788L144.39 32.4854C144.226 32.4427 144.052 32.4671 143.905 32.5531C143.759 32.6392 143.653 32.7798 143.61 32.9441L137.984 54.6261L136.126 54.1438C135.961 54.1012 135.787 54.1256 135.64 54.2116C135.494 54.2976 135.388 54.4383 135.345 54.6026C135.303 54.7669 135.327 54.9414 135.413 55.0877C135.499 55.234 135.64 55.3402 135.804 55.3828L158.106 61.1696C158.27 61.2123 158.444 61.1879 158.591 61.1018C158.737 61.0158 158.843 60.8752 158.886 60.7109C158.928 60.5466 158.904 60.3721 158.818 60.2258C158.732 60.0794 158.591 59.9733 158.427 59.9307ZM157.329 43.7771L158.568 44.0986C158.732 44.1412 158.873 44.2473 158.959 44.3937C159.045 44.54 159.069 44.7145 159.027 44.8788C158.981 45.0413 158.875 45.1798 158.729 45.2653C158.584 45.3509 158.411 45.3767 158.247 45.3375L157.008 45.016C156.845 44.9705 156.707 44.8638 156.621 44.7183C156.536 44.5729 156.51 44.3999 156.549 44.2358C156.591 44.0715 156.698 43.9309 156.844 43.8448C156.99 43.7588 157.165 43.7344 157.329 43.7771ZM156.365 47.494L157.604 47.8155C157.768 47.8581 157.908 47.9643 157.995 48.1106C158.081 48.2569 158.105 48.4314 158.062 48.5957C158.02 48.76 157.914 48.9006 157.767 48.9867C157.621 49.0727 157.446 49.0971 157.282 49.0544L156.043 48.7329C155.879 48.6903 155.738 48.5842 155.652 48.4378C155.566 48.2915 155.542 48.117 155.584 47.9527C155.627 47.7884 155.733 47.6478 155.879 47.5618C156.026 47.4757 156.2 47.4513 156.365 47.494ZM155.4 51.2109L156.639 51.5324C156.802 51.5779 156.94 51.6846 157.026 51.8301C157.111 51.9755 157.137 52.1485 157.098 52.3126C157.055 52.4769 156.949 52.6175 156.803 52.7036C156.656 52.7896 156.482 52.814 156.318 52.7713L155.079 52.4498C154.914 52.4072 154.774 52.3011 154.688 52.1547C154.602 52.0084 154.577 51.8339 154.62 51.6696C154.665 51.5071 154.772 51.3686 154.918 51.2831C155.063 51.1976 155.236 51.1717 155.4 51.2109ZM154.436 54.9278L155.675 55.2493C155.839 55.2919 155.98 55.3981 156.066 55.5444C156.152 55.6907 156.176 55.8652 156.133 56.0295C156.091 56.1938 155.985 56.3344 155.838 56.4205C155.692 56.5065 155.517 56.5309 155.353 56.4882L154.114 56.1668C153.95 56.1241 153.809 56.018 153.723 55.8716C153.637 55.7253 153.613 55.5508 153.655 55.3865C153.698 55.2222 153.804 55.0816 153.951 54.9956C154.097 54.9095 154.271 54.8852 154.436 54.9278ZM150.24 37.9705L151.479 38.292C151.644 38.3346 151.784 38.4407 151.87 38.5871C151.956 38.7334 151.981 38.9079 151.938 39.0722C151.895 39.2365 151.789 39.3771 151.643 39.4632C151.497 39.5492 151.322 39.5736 151.158 39.5309L149.919 39.2094C149.754 39.1668 149.614 39.0607 149.528 38.9143C149.442 38.768 149.417 38.5935 149.46 38.4292C149.503 38.2649 149.609 38.1243 149.755 38.0383C149.901 37.9522 150.076 37.9278 150.24 37.9705ZM149.276 41.6874L150.515 42.0089C150.679 42.0515 150.82 42.1577 150.906 42.304C150.992 42.4503 151.016 42.6248 150.973 42.7891C150.931 42.9534 150.825 43.094 150.678 43.1801C150.532 43.2661 150.358 43.2905 150.193 43.2478L148.954 42.9263C148.79 42.8837 148.649 42.7776 148.563 42.6312C148.477 42.4849 148.453 42.3104 148.496 42.1461C148.538 41.9818 148.644 41.8412 148.791 41.7552C148.937 41.6691 149.111 41.6447 149.276 41.6874ZM148.311 45.4043L149.55 45.7258C149.715 45.7684 149.855 45.8746 149.941 46.0209C150.027 46.1672 150.052 46.3417 150.009 46.506C149.966 46.6703 149.86 46.8109 149.714 46.897C149.568 46.983 149.393 47.0074 149.229 46.9647L147.99 46.6433C147.826 46.6006 147.685 46.4945 147.599 46.3481C147.513 46.2018 147.488 46.0273 147.531 45.863C147.574 45.6987 147.68 45.5581 147.826 45.4721C147.973 45.386 148.147 45.3617 148.311 45.4043ZM147.347 49.1212L148.586 49.4427C148.75 49.4853 148.891 49.5915 148.977 49.7378C149.063 49.8841 149.087 50.0586 149.045 50.2229C149.002 50.3872 148.896 50.5278 148.749 50.6139C148.603 50.6999 148.429 50.7243 148.264 50.6817L147.025 50.3602C146.861 50.3175 146.72 50.2114 146.634 50.0651C146.548 49.9187 146.524 49.7442 146.567 49.5799C146.609 49.4156 146.715 49.275 146.862 49.189C147.008 49.1029 147.183 49.0786 147.347 49.1212ZM146.449 36.9867L147.762 37.3275C147.927 37.3701 148.067 37.4763 148.153 37.6226C148.239 37.7689 148.264 37.9434 148.221 38.1077C148.178 38.272 148.072 38.4127 147.926 38.4987C147.78 38.5847 147.605 38.6091 147.441 38.5665L146.202 38.245C146.038 38.2023 145.897 38.0962 145.811 37.9499C145.725 37.8035 145.7 37.629 145.743 37.4647C145.786 37.3004 145.892 37.1598 146.038 37.0738C146.185 36.9877 146.359 36.9634 146.523 37.006L146.449 36.9867ZM145.485 40.7036L146.798 41.0444C146.962 41.087 147.103 41.1932 147.189 41.3395C147.275 41.4858 147.299 41.6603 147.257 41.8246C147.214 41.9889 147.108 42.1296 146.961 42.2156C146.815 42.3016 146.641 42.326 146.476 42.2834L145.237 41.9619C145.073 41.9192 144.932 41.8131 144.846 41.6668C144.76 41.5204 144.736 41.3459 144.779 41.1816C144.821 41.0173 144.927 40.8767 145.074 40.7907C145.22 40.7047 145.395 40.6803 145.559 40.7229L145.485 40.7036ZM144.52 44.4205L145.833 44.7613C145.998 44.8039 146.138 44.9101 146.224 45.0564C146.31 45.2027 146.335 45.3772 146.292 45.5415C146.249 45.7058 146.143 45.8465 145.997 45.9325C145.851 46.0185 145.676 46.0429 145.512 46.0003L144.273 45.6788C144.109 45.6361 143.968 45.53 143.882 45.3837C143.796 45.2374 143.772 45.0628 143.814 44.8986C143.857 44.7343 143.963 44.5936 144.109 44.5076C144.256 44.4216 144.43 44.3972 144.594 44.4398L144.52 44.4205ZM143.556 48.1374L144.869 48.4782C145.033 48.5208 145.174 48.627 145.26 48.7733C145.346 48.9196 145.37 49.0941 145.328 49.2584C145.285 49.4227 145.179 49.5634 145.033 49.6494C144.886 49.7354 144.712 49.7598 144.547 49.7172L143.308 49.3957C143.144 49.3531 143.004 49.2469 142.917 49.1006C142.831 48.9543 142.807 48.7798 142.85 48.6155C142.892 48.4512 142.998 48.3105 143.145 48.2245C143.291 48.1385 143.466 48.1141 143.63 48.1567L143.556 48.1374ZM144.798 56.3943L145.441 53.9163L144.202 53.5948L143.559 56.0728L142.32 55.7513L143.134 52.6167C143.184 52.4614 143.292 52.3312 143.435 52.2528C143.579 52.1745 143.746 52.1538 143.904 52.1951L146.382 52.8381C146.547 52.8807 146.687 52.9869 146.773 53.1332C146.859 53.2795 146.884 53.454 146.841 53.6183L146.037 56.7157L144.798 56.3943Z"/>
</mask>
<path d="M158.427 59.9307L156.569 59.4484L160.909 42.7223C160.953 42.5892 160.952 42.4451 160.904 42.313C160.857 42.1809 160.767 42.0684 160.648 41.9935L156.605 38.9213L151.613 58.1625L150.374 57.841L156 36.159C156.042 35.9947 156.018 35.8202 155.932 35.6739C155.846 35.5276 155.705 35.4214 155.541 35.3788L144.39 32.4854C144.226 32.4427 144.052 32.4671 143.905 32.5531C143.759 32.6392 143.653 32.7798 143.61 32.9441L137.984 54.6261L136.126 54.1438C135.961 54.1012 135.787 54.1256 135.64 54.2116C135.494 54.2976 135.388 54.4383 135.345 54.6026C135.303 54.7669 135.327 54.9414 135.413 55.0877C135.499 55.234 135.64 55.3402 135.804 55.3828L158.106 61.1696C158.27 61.2123 158.444 61.1879 158.591 61.1018C158.737 61.0158 158.843 60.8752 158.886 60.7109C158.928 60.5466 158.904 60.3721 158.818 60.2258C158.732 60.0794 158.591 59.9733 158.427 59.9307ZM157.329 43.7771L158.568 44.0986C158.732 44.1412 158.873 44.2473 158.959 44.3937C159.045 44.54 159.069 44.7145 159.027 44.8788C158.981 45.0413 158.875 45.1798 158.729 45.2653C158.584 45.3509 158.411 45.3767 158.247 45.3375L157.008 45.016C156.845 44.9705 156.707 44.8638 156.621 44.7183C156.536 44.5729 156.51 44.3999 156.549 44.2358C156.591 44.0715 156.698 43.9309 156.844 43.8448C156.99 43.7588 157.165 43.7344 157.329 43.7771ZM156.365 47.494L157.604 47.8155C157.768 47.8581 157.908 47.9643 157.995 48.1106C158.081 48.2569 158.105 48.4314 158.062 48.5957C158.02 48.76 157.914 48.9006 157.767 48.9867C157.621 49.0727 157.446 49.0971 157.282 49.0544L156.043 48.7329C155.879 48.6903 155.738 48.5842 155.652 48.4378C155.566 48.2915 155.542 48.117 155.584 47.9527C155.627 47.7884 155.733 47.6478 155.879 47.5618C156.026 47.4757 156.2 47.4513 156.365 47.494ZM155.4 51.2109L156.639 51.5324C156.802 51.5779 156.94 51.6846 157.026 51.8301C157.111 51.9755 157.137 52.1485 157.098 52.3126C157.055 52.4769 156.949 52.6175 156.803 52.7036C156.656 52.7896 156.482 52.814 156.318 52.7713L155.079 52.4498C154.914 52.4072 154.774 52.3011 154.688 52.1547C154.602 52.0084 154.577 51.8339 154.62 51.6696C154.665 51.5071 154.772 51.3686 154.918 51.2831C155.063 51.1976 155.236 51.1717 155.4 51.2109ZM154.436 54.9278L155.675 55.2493C155.839 55.2919 155.98 55.3981 156.066 55.5444C156.152 55.6907 156.176 55.8652 156.133 56.0295C156.091 56.1938 155.985 56.3344 155.838 56.4205C155.692 56.5065 155.517 56.5309 155.353 56.4882L154.114 56.1668C153.95 56.1241 153.809 56.018 153.723 55.8716C153.637 55.7253 153.613 55.5508 153.655 55.3865C153.698 55.2222 153.804 55.0816 153.951 54.9956C154.097 54.9095 154.271 54.8852 154.436 54.9278ZM150.24 37.9705L151.479 38.292C151.644 38.3346 151.784 38.4407 151.87 38.5871C151.956 38.7334 151.981 38.9079 151.938 39.0722C151.895 39.2365 151.789 39.3771 151.643 39.4632C151.497 39.5492 151.322 39.5736 151.158 39.5309L149.919 39.2094C149.754 39.1668 149.614 39.0607 149.528 38.9143C149.442 38.768 149.417 38.5935 149.46 38.4292C149.503 38.2649 149.609 38.1243 149.755 38.0383C149.901 37.9522 150.076 37.9278 150.24 37.9705ZM149.276 41.6874L150.515 42.0089C150.679 42.0515 150.82 42.1577 150.906 42.304C150.992 42.4503 151.016 42.6248 150.973 42.7891C150.931 42.9534 150.825 43.094 150.678 43.1801C150.532 43.2661 150.358 43.2905 150.193 43.2478L148.954 42.9263C148.79 42.8837 148.649 42.7776 148.563 42.6312C148.477 42.4849 148.453 42.3104 148.496 42.1461C148.538 41.9818 148.644 41.8412 148.791 41.7552C148.937 41.6691 149.111 41.6447 149.276 41.6874ZM148.311 45.4043L149.55 45.7258C149.715 45.7684 149.855 45.8746 149.941 46.0209C150.027 46.1672 150.052 46.3417 150.009 46.506C149.966 46.6703 149.86 46.8109 149.714 46.897C149.568 46.983 149.393 47.0074 149.229 46.9647L147.99 46.6433C147.826 46.6006 147.685 46.4945 147.599 46.3481C147.513 46.2018 147.488 46.0273 147.531 45.863C147.574 45.6987 147.68 45.5581 147.826 45.4721C147.973 45.386 148.147 45.3617 148.311 45.4043ZM147.347 49.1212L148.586 49.4427C148.75 49.4853 148.891 49.5915 148.977 49.7378C149.063 49.8841 149.087 50.0586 149.045 50.2229C149.002 50.3872 148.896 50.5278 148.749 50.6139C148.603 50.6999 148.429 50.7243 148.264 50.6817L147.025 50.3602C146.861 50.3175 146.72 50.2114 146.634 50.0651C146.548 49.9187 146.524 49.7442 146.567 49.5799C146.609 49.4156 146.715 49.275 146.862 49.189C147.008 49.1029 147.183 49.0786 147.347 49.1212ZM146.449 36.9867L147.762 37.3275C147.927 37.3701 148.067 37.4763 148.153 37.6226C148.239 37.7689 148.264 37.9434 148.221 38.1077C148.178 38.272 148.072 38.4127 147.926 38.4987C147.78 38.5847 147.605 38.6091 147.441 38.5665L146.202 38.245C146.038 38.2023 145.897 38.0962 145.811 37.9499C145.725 37.8035 145.7 37.629 145.743 37.4647C145.786 37.3004 145.892 37.1598 146.038 37.0738C146.185 36.9877 146.359 36.9634 146.523 37.006L146.449 36.9867ZM145.485 40.7036L146.798 41.0444C146.962 41.087 147.103 41.1932 147.189 41.3395C147.275 41.4858 147.299 41.6603 147.257 41.8246C147.214 41.9889 147.108 42.1296 146.961 42.2156C146.815 42.3016 146.641 42.326 146.476 42.2834L145.237 41.9619C145.073 41.9192 144.932 41.8131 144.846 41.6668C144.76 41.5204 144.736 41.3459 144.779 41.1816C144.821 41.0173 144.927 40.8767 145.074 40.7907C145.22 40.7047 145.395 40.6803 145.559 40.7229L145.485 40.7036ZM144.52 44.4205L145.833 44.7613C145.998 44.8039 146.138 44.9101 146.224 45.0564C146.31 45.2027 146.335 45.3772 146.292 45.5415C146.249 45.7058 146.143 45.8465 145.997 45.9325C145.851 46.0185 145.676 46.0429 145.512 46.0003L144.273 45.6788C144.109 45.6361 143.968 45.53 143.882 45.3837C143.796 45.2374 143.772 45.0628 143.814 44.8986C143.857 44.7343 143.963 44.5936 144.109 44.5076C144.256 44.4216 144.43 44.3972 144.594 44.4398L144.52 44.4205ZM143.556 48.1374L144.869 48.4782C145.033 48.5208 145.174 48.627 145.26 48.7733C145.346 48.9196 145.37 49.0941 145.328 49.2584C145.285 49.4227 145.179 49.5634 145.033 49.6494C144.886 49.7354 144.712 49.7598 144.547 49.7172L143.308 49.3957C143.144 49.3531 143.004 49.2469 142.917 49.1006C142.831 48.9543 142.807 48.7798 142.85 48.6155C142.892 48.4512 142.998 48.3105 143.145 48.2245C143.291 48.1385 143.466 48.1141 143.63 48.1567L143.556 48.1374ZM144.798 56.3943L145.441 53.9163L144.202 53.5948L143.559 56.0728L142.32 55.7513L143.134 52.6167C143.184 52.4614 143.292 52.3312 143.435 52.2528C143.579 52.1745 143.746 52.1538 143.904 52.1951L146.382 52.8381C146.547 52.8807 146.687 52.9869 146.773 53.1332C146.859 53.2795 146.884 53.454 146.841 53.6183L146.037 56.7157L144.798 56.3943Z" fill="url(#paint1_linear_1269_29995)"/>
<path d="M158.427 59.9307L156.569 59.4484L160.909 42.7223C160.953 42.5892 160.952 42.4451 160.904 42.313C160.857 42.1809 160.767 42.0684 160.648 41.9935L156.605 38.9213L151.613 58.1625L150.374 57.841L156 36.159C156.042 35.9947 156.018 35.8202 155.932 35.6739C155.846 35.5276 155.705 35.4214 155.541 35.3788L144.39 32.4854C144.226 32.4427 144.052 32.4671 143.905 32.5531C143.759 32.6392 143.653 32.7798 143.61 32.9441L137.984 54.6261L136.126 54.1438C135.961 54.1012 135.787 54.1256 135.64 54.2116C135.494 54.2976 135.388 54.4383 135.345 54.6026C135.303 54.7669 135.327 54.9414 135.413 55.0877C135.499 55.234 135.64 55.3402 135.804 55.3828L158.106 61.1696C158.27 61.2123 158.444 61.1879 158.591 61.1018C158.737 61.0158 158.843 60.8752 158.886 60.7109C158.928 60.5466 158.904 60.3721 158.818 60.2258C158.732 60.0794 158.591 59.9733 158.427 59.9307ZM157.329 43.7771L158.568 44.0986C158.732 44.1412 158.873 44.2473 158.959 44.3937C159.045 44.54 159.069 44.7145 159.027 44.8788C158.981 45.0413 158.875 45.1798 158.729 45.2653C158.584 45.3509 158.411 45.3767 158.247 45.3375L157.008 45.016C156.845 44.9705 156.707 44.8638 156.621 44.7183C156.536 44.5729 156.51 44.3999 156.549 44.2358C156.591 44.0715 156.698 43.9309 156.844 43.8448C156.99 43.7588 157.165 43.7344 157.329 43.7771ZM156.365 47.494L157.604 47.8155C157.768 47.8581 157.908 47.9643 157.995 48.1106C158.081 48.2569 158.105 48.4314 158.062 48.5957C158.02 48.76 157.914 48.9006 157.767 48.9867C157.621 49.0727 157.446 49.0971 157.282 49.0544L156.043 48.7329C155.879 48.6903 155.738 48.5842 155.652 48.4378C155.566 48.2915 155.542 48.117 155.584 47.9527C155.627 47.7884 155.733 47.6478 155.879 47.5618C156.026 47.4757 156.2 47.4513 156.365 47.494ZM155.4 51.2109L156.639 51.5324C156.802 51.5779 156.94 51.6846 157.026 51.8301C157.111 51.9755 157.137 52.1485 157.098 52.3126C157.055 52.4769 156.949 52.6175 156.803 52.7036C156.656 52.7896 156.482 52.814 156.318 52.7713L155.079 52.4498C154.914 52.4072 154.774 52.3011 154.688 52.1547C154.602 52.0084 154.577 51.8339 154.62 51.6696C154.665 51.5071 154.772 51.3686 154.918 51.2831C155.063 51.1976 155.236 51.1717 155.4 51.2109ZM154.436 54.9278L155.675 55.2493C155.839 55.2919 155.98 55.3981 156.066 55.5444C156.152 55.6907 156.176 55.8652 156.133 56.0295C156.091 56.1938 155.985 56.3344 155.838 56.4205C155.692 56.5065 155.517 56.5309 155.353 56.4882L154.114 56.1668C153.95 56.1241 153.809 56.018 153.723 55.8716C153.637 55.7253 153.613 55.5508 153.655 55.3865C153.698 55.2222 153.804 55.0816 153.951 54.9956C154.097 54.9095 154.271 54.8852 154.436 54.9278ZM150.24 37.9705L151.479 38.292C151.644 38.3346 151.784 38.4407 151.87 38.5871C151.956 38.7334 151.981 38.9079 151.938 39.0722C151.895 39.2365 151.789 39.3771 151.643 39.4632C151.497 39.5492 151.322 39.5736 151.158 39.5309L149.919 39.2094C149.754 39.1668 149.614 39.0607 149.528 38.9143C149.442 38.768 149.417 38.5935 149.46 38.4292C149.503 38.2649 149.609 38.1243 149.755 38.0383C149.901 37.9522 150.076 37.9278 150.24 37.9705ZM149.276 41.6874L150.515 42.0089C150.679 42.0515 150.82 42.1577 150.906 42.304C150.992 42.4503 151.016 42.6248 150.973 42.7891C150.931 42.9534 150.825 43.094 150.678 43.1801C150.532 43.2661 150.358 43.2905 150.193 43.2478L148.954 42.9263C148.79 42.8837 148.649 42.7776 148.563 42.6312C148.477 42.4849 148.453 42.3104 148.496 42.1461C148.538 41.9818 148.644 41.8412 148.791 41.7552C148.937 41.6691 149.111 41.6447 149.276 41.6874ZM148.311 45.4043L149.55 45.7258C149.715 45.7684 149.855 45.8746 149.941 46.0209C150.027 46.1672 150.052 46.3417 150.009 46.506C149.966 46.6703 149.86 46.8109 149.714 46.897C149.568 46.983 149.393 47.0074 149.229 46.9647L147.99 46.6433C147.826 46.6006 147.685 46.4945 147.599 46.3481C147.513 46.2018 147.488 46.0273 147.531 45.863C147.574 45.6987 147.68 45.5581 147.826 45.4721C147.973 45.386 148.147 45.3617 148.311 45.4043ZM147.347 49.1212L148.586 49.4427C148.75 49.4853 148.891 49.5915 148.977 49.7378C149.063 49.8841 149.087 50.0586 149.045 50.2229C149.002 50.3872 148.896 50.5278 148.749 50.6139C148.603 50.6999 148.429 50.7243 148.264 50.6817L147.025 50.3602C146.861 50.3175 146.72 50.2114 146.634 50.0651C146.548 49.9187 146.524 49.7442 146.567 49.5799C146.609 49.4156 146.715 49.275 146.862 49.189C147.008 49.1029 147.183 49.0786 147.347 49.1212ZM146.449 36.9867L147.762 37.3275C147.927 37.3701 148.067 37.4763 148.153 37.6226C148.239 37.7689 148.264 37.9434 148.221 38.1077C148.178 38.272 148.072 38.4127 147.926 38.4987C147.78 38.5847 147.605 38.6091 147.441 38.5665L146.202 38.245C146.038 38.2023 145.897 38.0962 145.811 37.9499C145.725 37.8035 145.7 37.629 145.743 37.4647C145.786 37.3004 145.892 37.1598 146.038 37.0738C146.185 36.9877 146.359 36.9634 146.523 37.006L146.449 36.9867ZM145.485 40.7036L146.798 41.0444C146.962 41.087 147.103 41.1932 147.189 41.3395C147.275 41.4858 147.299 41.6603 147.257 41.8246C147.214 41.9889 147.108 42.1296 146.961 42.2156C146.815 42.3016 146.641 42.326 146.476 42.2834L145.237 41.9619C145.073 41.9192 144.932 41.8131 144.846 41.6668C144.76 41.5204 144.736 41.3459 144.779 41.1816C144.821 41.0173 144.927 40.8767 145.074 40.7907C145.22 40.7047 145.395 40.6803 145.559 40.7229L145.485 40.7036ZM144.52 44.4205L145.833 44.7613C145.998 44.8039 146.138 44.9101 146.224 45.0564C146.31 45.2027 146.335 45.3772 146.292 45.5415C146.249 45.7058 146.143 45.8465 145.997 45.9325C145.851 46.0185 145.676 46.0429 145.512 46.0003L144.273 45.6788C144.109 45.6361 143.968 45.53 143.882 45.3837C143.796 45.2374 143.772 45.0628 143.814 44.8986C143.857 44.7343 143.963 44.5936 144.109 44.5076C144.256 44.4216 144.43 44.3972 144.594 44.4398L144.52 44.4205ZM143.556 48.1374L144.869 48.4782C145.033 48.5208 145.174 48.627 145.26 48.7733C145.346 48.9196 145.37 49.0941 145.328 49.2584C145.285 49.4227 145.179 49.5634 145.033 49.6494C144.886 49.7354 144.712 49.7598 144.547 49.7172L143.308 49.3957C143.144 49.3531 143.004 49.2469 142.917 49.1006C142.831 48.9543 142.807 48.7798 142.85 48.6155C142.892 48.4512 142.998 48.3105 143.145 48.2245C143.291 48.1385 143.466 48.1141 143.63 48.1567L143.556 48.1374ZM144.798 56.3943L145.441 53.9163L144.202 53.5948L143.559 56.0728L142.32 55.7513L143.134 52.6167C143.184 52.4614 143.292 52.3312 143.435 52.2528C143.579 52.1745 143.746 52.1538 143.904 52.1951L146.382 52.8381C146.547 52.8807 146.687 52.9869 146.773 53.1332C146.859 53.2795 146.884 53.454 146.841 53.6183L146.037 56.7157L144.798 56.3943Z" stroke="#909DA1" stroke-width="2" mask="url(#path-3-outside-1_1269_29995)"/>
</g>
<g clip-path="url(#clip1_1269_29995)">
<rect x="122.82" y="24.6572" width="13.3333" height="10" rx="1" transform="rotate(-14.9867 122.82 24.6572)" fill="url(#paint2_linear_1269_29995)"/>
<path d="M134.65 21.1027L131.76 21.8761L131.595 21.2571C131.416 20.5913 130.729 20.1789 130.063 20.3571L127.298 21.0974C126.975 21.187 126.701 21.3996 126.534 21.6893C126.366 21.9791 126.319 22.3229 126.403 22.647L126.568 23.2661L123.679 24.0395C122.847 24.2623 122.341 25.1199 122.564 25.9522L124.509 33.2155C124.731 34.0477 125.602 34.5561 126.435 34.3333L137.405 31.3965C138.238 31.1737 138.738 30.2981 138.515 29.4658L136.571 22.2026C136.348 21.3702 135.482 20.8799 134.65 21.1027ZM127.006 22.4854C126.966 22.3214 126.99 22.1481 127.075 22.0018C127.159 21.8555 127.297 21.7477 127.459 21.7011L130.225 20.9609C130.558 20.8718 130.902 21.0858 130.991 21.4187L131.157 22.0377L127.172 23.1044L127.006 22.4854ZM123.841 24.6432L134.811 21.7064C135.311 21.5727 135.834 21.8648 135.967 22.3642L136.714 25.1555L133.222 28.0657C132.56 28.6184 131.785 29.0203 130.952 29.2435C130.118 29.4666 129.246 29.5055 128.396 29.3576L123.915 28.5818L123.168 25.7906C123.034 25.2911 123.341 24.7769 123.841 24.6432ZM137.244 30.7927L126.273 33.7295C125.774 33.8632 125.246 33.5532 125.112 33.0538L124.093 29.247L128.287 29.9738C129.227 30.1372 130.19 30.0941 131.112 29.8475C132.033 29.6009 132.889 29.1567 133.622 28.5457L136.893 25.8206L137.912 29.6272C138.045 30.1268 137.743 30.659 137.244 30.7927Z" fill="#909DA1"/>
<path d="M129.602 26.2389L128.921 26.4212C128.861 26.4381 128.807 26.4726 128.766 26.5203C128.725 26.5681 128.7 26.6269 128.693 26.6893C128.685 26.7516 128.697 26.8147 128.726 26.8705C128.755 26.9262 128.8 26.9721 128.855 27.0022L130.988 28.1557C131.061 28.1952 131.146 28.2041 131.226 28.1804C131.305 28.1568 131.372 28.1026 131.411 28.0298C131.45 27.957 131.459 27.8715 131.436 27.7921C131.412 27.7127 131.358 27.646 131.285 27.6065L129.839 26.8204C130.121 26.7283 130.365 26.5467 130.534 26.3033C130.704 26.0598 130.789 25.7678 130.777 25.4715L131.188 25.3614C131.268 25.34 131.337 25.2877 131.378 25.2159C131.42 25.1441 131.431 25.0588 131.409 24.9788C131.388 24.8987 131.336 24.8304 131.264 24.789C131.192 24.7475 131.107 24.7363 131.027 24.7577L130.616 24.8678C130.544 24.7359 130.448 24.6189 130.332 24.5231L130.922 24.3653C131.002 24.3439 131.07 24.2915 131.111 24.2197C131.153 24.148 131.164 24.0627 131.143 23.9826C131.121 23.9026 131.069 23.8343 130.997 23.7928C130.925 23.7514 130.84 23.7401 130.76 23.7616L128.38 24.3987C128.3 24.4201 128.232 24.4725 128.19 24.5442C128.149 24.616 128.138 24.7013 128.159 24.7814C128.18 24.8614 128.233 24.9297 128.304 24.9711C128.376 25.0126 128.462 25.0239 128.542 25.0024L129.223 24.8201C129.512 24.7428 129.801 24.8269 129.98 25.0378L128.647 25.3949C128.567 25.4163 128.498 25.4686 128.457 25.5404C128.415 25.6122 128.404 25.6975 128.426 25.7775C128.447 25.8576 128.499 25.9259 128.571 25.9673C128.643 26.0088 128.728 26.02 128.808 25.9986L130.142 25.6416C130.1 25.9439 129.891 26.1616 129.602 26.2389Z" fill="#909DA1"/>
</g>
<path d="M94.6908 149.105C85.9482 151.122 76.9177 151.55 68.0252 150.37C67.1532 150.253 66.2821 150.122 65.4121 149.976C64.542 149.831 63.6631 149.666 62.7752 149.481C62.1978 149.366 61.6204 149.241 61.043 149.105L61.0964 148.315L61.2565 146.03L61.3485 144.705L61.568 141.513L61.7904 138.318L61.9387 136.173L62.0396 134.711L62.2709 131.361L62.5142 127.864L62.7574 124.35L63.0065 120.74L63.2379 117.387L63.4811 113.891L63.6977 110.752L63.9468 107.142L64.1811 103.786L64.4214 100.29L64.6735 96.671L64.896 93.452L65.1125 90.2957L65.2905 87.727L65.5159 84.4872L65.7206 81.5307L65.9282 78.5117L66.1773 74.9317L66.4265 71.3219L66.6579 67.9687L66.8981 64.4723L66.9723 63.4072H88.7555L93.798 136.179L94.5484 147.014L94.6908 149.105Z" fill="#C8C8C8"/>
<path d="M94.6908 149.105C85.9482 151.122 76.9177 151.55 68.0252 150.37C67.1532 150.253 66.2821 150.122 65.4121 149.977C64.542 149.831 63.6631 149.666 62.7752 149.481C62.1978 149.366 61.6204 149.241 61.043 149.105L61.0964 148.315L61.2565 146.03L61.3485 144.705L61.568 141.513L61.7904 138.318L61.9387 136.173C62.4707 136.288 63.0026 136.398 63.5345 136.501C64.3443 136.659 65.157 136.799 65.9697 136.934C66.7824 137.068 67.6337 137.19 68.4672 137.292C76.909 138.361 85.47 137.982 93.7861 136.173L94.5365 147.008L94.6908 149.105Z" fill="#EEEEEE"/>
<path d="M67.9218 63.4014C67.8345 63.6407 67.6958 63.8577 67.5154 64.0368C67.3446 64.225 67.1337 64.3719 66.8985 64.4664C66.9898 64.2292 67.1273 64.0128 67.3031 63.8298C67.4788 63.6469 67.6892 63.5012 67.9218 63.4014ZM70.9057 63.5446C69.6329 65.1527 68.2096 66.6343 66.6552 67.9688C67.2846 67.1602 67.9579 66.3874 68.6722 65.6538C69.3782 64.9105 70.1238 64.2064 70.9057 63.5446ZM70.9057 66.6532C69.5567 68.3429 68.0565 69.9048 66.4239 71.319C67.0918 70.4695 67.8036 69.6559 68.5565 68.8817C69.301 68.0987 70.0851 67.3549 70.9057 66.6532ZM70.9057 70.0004C70.1998 70.8954 69.4227 71.7427 68.6455 72.569C67.8684 73.3954 67.0468 74.189 66.1747 74.9288C66.8777 74.0338 67.6578 73.1866 68.432 72.3602C69.2061 71.5338 70.0337 70.7403 70.9057 70.0004ZM70.9057 84.2606C70.4667 84.8065 70.0159 85.3286 69.5383 85.8477C69.0608 86.3668 68.5951 86.8769 68.1146 87.3811C67.6341 87.8853 67.1417 88.3835 66.6315 88.8727L65.9019 89.5917C65.6408 89.8274 65.3887 90.069 65.1247 90.2958C65.3413 90.0213 65.5726 89.7588 65.7951 89.4903L66.4921 88.7087C66.9548 88.1866 67.4353 87.6794 67.9159 87.1752C68.3964 86.6711 68.8858 86.1729 69.3989 85.6836C69.9121 85.1943 70.3777 84.726 70.9057 84.2606ZM70.9057 87.1902C70.4489 87.754 69.9684 88.297 69.4849 88.834C69.0015 89.3709 68.5032 89.899 68.0019 90.4241C67.5006 90.9491 66.9964 91.4622 66.4743 91.9664L65.6942 92.7212C65.4243 92.9628 65.1633 93.2134 64.8904 93.4521C65.1158 93.1687 65.3561 92.8972 65.5874 92.6198L66.3112 91.8083C66.7917 91.2653 67.29 90.7403 67.7942 90.2182C68.2985 89.6961 68.8027 89.18 69.3218 88.6758C69.8409 88.1717 70.351 87.6705 70.9057 87.1902ZM70.9057 90.1764C70.4282 90.7731 69.9299 91.322 69.4226 91.8799C68.9154 92.4378 68.4053 92.9837 67.8892 93.5267C67.3731 94.0696 66.8451 94.6036 66.3052 95.1257L65.4955 95.9103C65.2196 96.1639 64.9468 96.4235 64.665 96.6711C64.8993 96.3727 65.1485 96.0953 65.3917 95.8089L66.1421 94.9676C66.6404 94.4067 67.1565 93.8638 67.6756 93.3208C68.1947 92.7779 68.7197 92.2439 69.2595 91.7218C69.7994 91.1997 70.351 90.6746 70.9057 90.1764ZM70.9057 93.5356C70.4074 94.1323 69.8883 94.7289 69.3663 95.3047C68.8443 95.8805 68.3074 96.4503 67.7675 97.0171C67.2277 97.584 66.6819 98.1359 66.1213 98.6818L65.2819 99.4963C64.9853 99.7618 64.7124 100.033 64.4188 100.29C64.665 99.9915 64.923 99.6932 65.1752 99.3948L65.9582 98.5207C66.4802 97.939 67.0171 97.3751 67.554 96.8083C68.0909 96.2415 68.6426 95.6896 69.2002 95.1436C69.7578 94.5977 70.3214 94.0547 70.9057 93.5356ZM70.9057 96.7815C70.3896 97.4079 69.8498 98.0106 69.304 98.6132C68.7582 99.2158 68.2065 99.8065 67.6489 100.388C67.0913 100.97 66.5218 101.549 65.9404 102.116L65.0713 102.963C64.7747 103.237 64.4781 103.518 64.1815 103.786C64.4366 103.47 64.7065 103.169 64.9705 102.858L65.7802 101.963C66.323 101.367 66.8807 100.77 67.4383 100.188C67.9959 99.6066 68.5654 99.0279 69.1438 98.4611C69.7222 97.8942 70.3006 97.3214 70.9057 96.7815ZM70.9057 99.893C70.3688 100.54 69.8082 101.164 69.2476 101.784C68.687 102.405 68.1087 103.014 67.5303 103.622C66.9519 104.231 66.3646 104.815 65.7506 105.412L64.8607 106.289C64.5641 106.588 64.2675 106.868 63.9383 107.145C64.2023 106.82 64.484 106.507 64.754 106.188L65.6052 105.251C66.1658 104.628 66.7442 104.022 67.3197 103.413C67.8951 102.805 68.4854 102.22 69.0845 101.623C69.6837 101.027 70.2799 100.454 70.9057 99.893ZM70.9057 103.243C70.3481 103.912 69.7667 104.559 69.1854 105.2C68.604 105.842 67.9989 106.474 67.4057 107.101C66.8125 107.727 66.1985 108.348 65.5785 108.953L64.6472 109.863C64.3298 110.162 64.0184 110.46 63.695 110.758C63.9709 110.421 64.2616 110.099 64.5434 109.768L65.4154 108.801C66.0086 108.157 66.6019 107.527 67.1951 106.901C67.7883 106.274 68.4023 105.654 69.0222 105.048C69.6421 104.443 70.2591 103.819 70.9057 103.243ZM70.9057 106.155C70.3303 106.841 69.7193 107.506 69.126 108.169C68.5328 108.831 67.9099 109.478 67.2959 110.126C66.6819 110.773 66.0531 111.412 65.4124 112.035L64.4544 112.975C64.1281 113.273 63.8078 113.592 63.4756 113.891C63.7722 113.545 64.0688 113.213 64.3506 112.873L65.2404 111.877C65.8336 111.215 66.4565 110.567 67.0735 109.92C67.6904 109.273 68.3163 108.634 68.954 108.011C69.5917 107.387 70.2413 106.758 70.9057 106.155ZM70.9057 109.398C70.3125 110.105 69.6926 110.791 69.0697 111.486C68.4468 112.181 67.812 112.841 67.1773 113.509C66.5425 114.177 65.893 114.833 65.2345 115.481L64.2467 116.45C63.9086 116.767 63.5794 117.089 63.2353 117.399C63.5319 117.044 63.8285 116.701 64.14 116.349L65.0713 115.323C65.6913 114.636 66.326 113.968 66.9637 113.3C67.6014 112.632 68.2481 111.975 68.9065 111.328C69.565 110.681 70.2205 110.021 70.9057 109.398ZM70.9057 112.512C70.2917 113.24 69.654 113.947 69.0104 114.648C68.3667 115.349 67.7171 116.042 67.0616 116.737C66.4061 117.432 65.7387 118.103 65.0595 118.768L64.0421 119.768C63.695 120.093 63.3569 120.427 63.0039 120.746C63.3006 120.379 63.6268 120.027 63.9383 119.666L64.8963 118.61C65.537 117.906 66.1925 117.217 66.848 116.522C67.5036 115.827 68.1709 115.156 68.8472 114.49C69.5235 113.825 70.2027 113.157 70.9057 112.512ZM70.9057 115.86C70.271 116.608 69.6125 117.336 68.9481 118.061C68.2837 118.786 67.6133 119.499 66.937 120.209C66.2608 120.919 65.5726 121.617 64.8607 122.298L63.8256 123.339C63.4667 123.676 63.1167 124.019 62.7548 124.35C63.0692 123.974 63.3984 123.61 63.7217 123.237L64.7095 122.148C65.3709 121.42 66.0472 120.71 66.7235 120C67.3998 119.29 68.0879 118.592 68.7849 117.912C69.482 117.232 70.182 116.525 70.9057 115.86ZM70.9057 119.123C70.2502 119.893 69.571 120.642 68.8887 121.388C68.2065 122.133 67.5125 122.879 66.8125 123.598C66.1124 124.317 65.4065 125.048 64.6887 125.758L63.609 126.823C63.2412 127.169 62.8823 127.524 62.5086 127.864C62.8349 127.477 63.173 127.104 63.5052 126.722L64.5256 125.6C65.2048 124.851 65.9019 124.108 66.6019 123.389C67.3019 122.67 68.0048 121.94 68.7256 121.23C69.4464 120.52 70.1612 119.81 70.9057 119.123ZM70.9057 134.75C70.1523 135.621 69.3752 136.471 68.5951 137.318C67.815 138.166 67.0201 138.992 66.2222 139.83C65.4243 140.669 64.6205 141.483 63.8078 142.295L62.5827 143.512C62.1675 143.909 61.7582 144.314 61.337 144.705C61.7107 144.267 62.0993 143.843 62.4789 143.41L63.6446 142.136C64.4247 141.289 65.2226 140.463 66.0175 139.625C66.8125 138.786 67.6192 137.972 68.432 137.16C69.2447 136.349 70.0544 135.537 70.9057 134.75ZM61.0938 148.315C61.4793 147.867 61.8768 147.42 62.2802 146.987L63.4667 145.681C64.2675 144.812 65.0862 143.962 65.8959 143.103C66.7057 142.244 67.5392 141.409 68.3726 140.573L69.6303 139.323C70.0544 138.915 70.4756 138.5 70.9087 138.097C70.5231 138.548 70.1256 138.992 69.7222 139.425L68.5358 140.731C67.7379 141.6 66.9192 142.45 66.1095 143.309C65.2997 144.168 64.4662 145.006 63.6328 145.842C62.7993 146.677 61.9539 147.506 61.0938 148.315ZM62.7726 149.481C62.9594 149.258 63.1522 149.037 63.345 148.819C63.5378 148.601 63.7247 148.378 63.9383 148.163L65.1247 146.868C65.1358 146.856 65.1491 146.847 65.1638 146.84C65.1786 146.833 65.1946 146.83 65.2107 146.829L65.1188 146.868C66.0502 145.86 67.0053 144.869 67.9663 143.885C68.4468 143.392 68.9392 142.912 69.4286 142.429C69.918 141.946 70.4163 141.474 70.9116 141.006C70.4638 141.528 70.0218 142.047 69.5472 142.554C69.0726 143.061 68.6248 143.574 68.1531 144.073C67.2129 145.075 66.2637 146.068 65.2938 147.041C65.2694 147.063 65.2378 147.076 65.2048 147.077L65.2968 147.038L64.051 148.267C63.8463 148.473 63.6328 148.67 63.4222 148.864C63.2116 149.058 62.9861 149.284 62.7726 149.481ZM65.4095 149.977C65.8218 149.457 66.2608 148.959 66.7027 148.467C67.1447 147.975 67.5925 147.492 68.0493 147.011C68.5061 146.531 68.9718 146.062 69.4493 145.606L70.1672 144.92C70.4133 144.699 70.6506 144.469 70.9057 144.255C70.7011 144.517 70.4816 144.765 70.271 145.021L69.6125 145.764C69.1735 146.259 68.7226 146.74 68.2629 147.22C67.8031 147.7 67.3434 148.169 66.8658 148.625C66.3883 149.082 65.9019 149.544 65.4095 149.977ZM68.0226 150.358C68.4234 149.788 68.8698 149.251 69.3574 148.753C69.8342 148.245 70.352 147.777 70.9057 147.354C70.0914 148.488 69.1207 149.5 68.0226 150.358ZM70.9057 122.366C70.2294 123.16 69.5294 123.929 68.8294 124.693C68.1294 125.457 67.4116 126.215 66.6968 126.966C65.9819 127.718 65.2523 128.458 64.5107 129.192L63.4014 130.287C63.0247 130.645 62.6539 131.009 62.2713 131.361C62.6065 130.961 62.9565 130.576 63.2976 130.185L64.3476 129.034C65.0476 128.264 65.7654 127.512 66.4832 126.761C67.201 126.009 67.9277 125.269 68.6663 124.535C69.4049 123.801 70.1405 123.073 70.9057 122.366ZM70.9057 125.478C70.2087 126.289 69.4909 127.08 68.7701 127.864C68.0493 128.649 67.3137 129.425 66.5781 130.197C65.8425 130.97 65.0951 131.731 64.3357 132.483L63.1967 133.607C62.8111 133.974 62.4285 134.35 62.037 134.711C62.3811 134.302 62.74 133.909 63.0929 133.518L64.1726 132.324C64.8904 131.534 65.626 130.761 66.3646 129.992C67.1031 129.222 67.8476 128.458 68.607 127.706C69.3663 126.955 70.1227 126.194 70.9057 125.478ZM61.7878 138.318C62.5027 137.483 63.2412 136.671 63.9857 135.866C64.7302 135.06 65.4688 134.261 66.24 133.479C67.0112 132.697 67.7646 131.904 68.5447 131.131L69.7133 129.974C70.1108 129.595 70.5023 129.21 70.8998 128.837C70.5439 129.255 70.1731 129.66 69.8112 130.075L68.7078 131.265C67.9663 132.077 67.2099 132.87 66.4536 133.652C65.6972 134.434 64.926 135.227 64.1489 136C63.3717 136.773 62.5917 137.569 61.7878 138.318ZM61.5654 141.513C62.298 140.66 63.0484 139.83 63.8167 139.004C64.5849 138.178 65.359 137.369 66.1273 136.552C66.8955 135.734 67.6934 134.941 68.5002 134.147L69.6866 132.954C70.096 132.566 70.4934 132.172 70.9087 131.79C70.5439 132.22 70.1642 132.635 69.7934 133.055L68.6544 134.299C67.8921 135.123 67.112 135.931 66.3438 136.749C65.5756 137.566 64.7807 138.363 63.9709 139.153C63.1611 139.944 62.387 140.746 61.5654 141.513ZM70.9057 82.1066C70.4786 82.6198 70.0159 83.106 69.5799 83.5983C69.1438 84.0905 68.6663 84.5589 68.2006 85.0273C67.7349 85.4957 67.2603 85.961 66.7709 86.4085L66.0413 87.0828C65.7891 87.2976 65.5459 87.5243 65.2879 87.7331C65.4985 87.4736 65.7209 87.2319 65.9374 86.9783L66.6108 86.2474C67.0616 85.7582 67.5243 85.2868 67.993 84.8184C68.4616 84.3501 68.9332 83.8847 69.4197 83.4372C69.9061 82.9897 70.3926 82.5303 70.9057 82.1066ZM70.9057 79.0219C70.4994 79.5201 70.0693 79.9974 69.6362 80.4688C69.2032 80.9402 68.7464 81.4026 68.3133 81.859C67.8803 82.3155 67.4235 82.754 66.943 83.2015L66.237 83.8548C65.9968 84.0666 65.7624 84.2844 65.5133 84.4873C65.712 84.2367 65.9285 83.998 66.1362 83.7534L66.7798 83.0404C67.2099 82.5661 67.6697 82.1066 68.1027 81.6502C68.5358 81.1937 69.0074 80.7552 69.476 80.3077C69.9447 79.8602 70.4133 79.4336 70.9057 79.0219ZM70.9057 76.2832C70.1227 77.2409 69.2773 78.1329 68.4171 79.013C67.557 79.893 66.6641 80.7403 65.718 81.5309C66.498 80.5732 67.3434 79.6782 68.2065 78.8011C69.0697 77.9241 69.9566 77.0738 70.9057 76.2832ZM70.9057 73.4521C70.1583 74.3769 69.3455 75.2421 68.5328 76.0863C67.7201 76.9306 66.851 77.751 65.9374 78.5118C66.6819 77.5869 67.4947 76.7218 68.3103 75.8775C69.126 75.0332 69.9921 74.2128 70.9057 73.4521Z" fill="#7F7F7F"/>
<path d="M66.9609 48.5088H88.7561V63.4014H66.9609V48.5088Z" fill="#EEEEEE"/>
<path d="M69.7188 36.4443H86.0028V48.5088H69.7188V36.4443Z" fill="#C8C8C8"/>
<path d="M72.625 24.2539H83.0895V36.4436H72.625V24.2539Z" fill="#EEEEEE"/>
<path d="M84.8105 26.6442H70.9023C70.9033 24.3294 71.5176 22.0567 72.682 20.06L77.8609 11.1758L83.0368 20.06C84.2012 22.0567 84.8155 24.3294 84.8165 26.6442H84.8105Z" fill="#C8C8C8"/>
<path d="M89.0088 67.0616C88.4354 66.2233 87.6021 65.5996 86.6391 65.2879C85.676 64.9762 84.6375 64.9939 83.6855 65.3384C82.7336 65.6829 81.9219 66.3347 81.3771 67.1921C80.8322 68.0494 80.585 69.0641 80.674 70.0777L81.6944 81.5365L89.961 80.7907L89.0088 67.0616ZM90.6966 91.4471C90.2231 90.971 89.6515 90.6053 89.0221 90.3759C88.3927 90.1465 87.7209 90.059 87.0541 90.1195C86.455 90.1735 85.8724 90.3457 85.3394 90.6262C84.8065 90.9067 84.3337 91.29 83.9481 91.7543C83.5625 92.2186 83.2716 92.7548 83.092 93.3322C82.9125 93.9096 82.8477 94.5169 82.9016 95.1195L83.9219 106.575L91.708 105.877L90.6966 91.4471ZM92.4733 117.094C91.8647 116.884 91.2189 116.805 90.5779 116.862C89.9788 116.916 89.3962 117.088 88.8632 117.368C88.3303 117.649 87.8575 118.032 87.4719 118.497C87.0863 118.961 86.7954 119.497 86.6158 120.074C86.4362 120.652 86.3715 121.259 86.4253 121.862L87.4457 133.318L93.5559 132.769L92.4733 117.094Z" fill="#EEEEEE"/>
<path d="M83.0898 30.3486H85.8754V33.1504H83.0898V30.3486Z" fill="#7F7F7F"/>
<path d="M27.9155 44.714C31.036 42.7426 33.9576 40.4695 36.6389 37.927C37.3092 37.2945 37.9558 36.6352 38.5995 35.9759C38.8961 35.6358 39.2402 35.3077 39.5368 34.9616C39.8334 34.6155 40.13 34.2546 40.4058 33.8906C41.5241 32.4258 42.583 30.9073 43.6449 29.3918L46.8305 24.8452C47.3644 24.0905 47.8953 23.3297 48.45 22.5869C48.9935 21.8318 49.6094 21.1324 50.289 20.4986C51.704 19.2611 53.445 18.4622 55.3018 18.1985C57.1378 17.9404 59.0061 18.0417 60.8039 18.4968C59.0049 18.0924 57.1462 18.0337 55.3255 18.3238C53.509 18.6067 51.8125 19.4117 50.4403 20.6418C49.7871 21.2838 49.1915 21.9826 48.6606 22.7301C48.1148 23.4729 47.5898 24.2217 47.0589 24.9944L43.8851 29.5618C42.8173 31.0744 41.7525 32.5869 40.6224 34.0577C40.3258 34.4216 40.0499 34.7856 39.7325 35.1376C39.4152 35.4896 39.0978 35.8148 38.7804 36.1549C38.1338 36.8172 37.4753 37.4705 36.7901 38.0941C35.4331 39.3525 34.0113 40.5385 32.5308 41.6472C31.0479 42.7515 29.5072 43.7753 27.9155 44.714ZM48.6309 33.1149C48.926 31.8587 49.3702 30.6428 49.9538 29.4932C50.5466 28.3404 51.3052 27.2819 52.2051 26.3518C53.1087 25.4179 54.1627 24.6443 55.3225 24.0636C56.4804 23.5122 57.6688 23.0281 58.8819 22.6137C60.0858 22.1925 61.2652 21.7034 62.4145 21.1489C63.5591 20.5862 64.6694 19.9557 65.7396 19.2605C66.8146 18.5701 67.8486 17.817 68.8362 17.0051C69.8328 16.1997 70.7761 15.3315 71.6956 14.4365C69.9522 16.3271 67.9986 18.0097 65.8731 19.4514C63.7332 20.8853 61.4222 22.042 58.9946 22.8942C57.7826 23.2966 56.5943 23.7678 55.4352 24.3053C54.2982 24.8709 53.2587 25.6162 52.3564 26.5129C50.5441 28.2999 49.3398 30.6507 48.6309 33.1149ZM26.8477 89.8214C29.7201 88.8964 32.4832 87.6579 35.0876 86.1281C36.3867 85.3644 37.6355 84.5201 38.8575 83.6311C40.0796 82.742 41.2957 81.8411 42.4347 80.8685C43.0045 80.3788 43.5453 79.8558 44.0542 79.3023C44.5653 78.7607 45.0103 78.1598 45.38 77.5123C45.7453 76.8758 45.949 76.1586 45.9733 75.424C45.9581 74.6839 45.7427 73.962 45.3504 73.3357C44.5851 72.0857 43.3156 71.0803 41.8652 70.8685C41.1414 70.7715 40.4056 70.9029 39.7592 71.2444C39.1103 71.5885 38.556 72.0886 38.1457 72.7003C37.7379 73.3025 37.4907 74 37.4278 74.7259C37.4026 75.0911 37.4236 75.458 37.4901 75.8178C37.5649 76.1787 37.6773 76.5307 37.8253 76.8679C38.124 77.5453 38.5589 78.1531 39.1026 78.6532C39.6462 79.1532 40.2869 79.5347 40.9842 79.7737C42.3961 80.2271 43.9504 80.072 45.3771 79.708C46.8261 79.3186 48.2292 78.7735 49.5623 78.0821C50.9003 77.4045 52.1897 76.6339 53.4212 75.776C54.6545 74.9109 55.8009 73.9267 56.8442 72.8375C58.937 70.6463 60.6379 68.108 61.8717 65.3345C60.6769 68.1322 59.0112 70.7017 56.948 72.93C55.9075 74.0343 54.7621 75.0335 53.528 75.9133C52.2915 76.7908 50.9962 77.5813 49.6513 78.279C48.3124 78.9924 46.8987 79.5537 45.4364 79.9527C44.6976 80.1453 43.9414 80.2622 43.1792 80.3017C42.4088 80.3449 41.6368 80.252 40.8982 80.0272C40.1639 79.777 39.4888 79.3771 38.9151 78.8525C38.3414 78.3279 37.8816 77.6898 37.5643 76.9783C37.4058 76.6212 37.2854 76.2482 37.2054 75.8655C37.1322 75.4824 37.1073 75.0915 37.1312 74.7021C37.2015 73.9172 37.4746 73.1644 37.9232 72.5183C38.362 71.8673 38.954 71.3354 39.6465 70.97C40.3466 70.6033 41.1426 70.4646 41.9245 70.5732C42.6941 70.6939 43.423 71.001 44.0483 71.4682C44.6714 71.9315 45.1993 72.512 45.6025 73.1776C46.017 73.8451 46.2436 74.6133 46.258 75.4002C46.229 76.1831 46.0079 76.9466 45.6144 77.6227C44.855 78.9741 43.7368 80.0451 42.5919 81.0356C41.447 82.026 40.219 82.9061 38.9732 83.7772C37.7475 84.6655 36.4773 85.4899 35.1677 86.2474C32.5331 87.7421 29.7429 88.9406 26.8477 89.8214Z" fill="#EEEEEE"/>
<path d="M99.0268 7.43457C99.1899 8.21619 99.2967 9.0008 99.3827 9.78541C99.4687 10.57 99.5281 11.3606 99.5755 12.1482C99.623 12.9358 99.6408 13.7263 99.6378 14.5169C99.6423 15.3138 99.6066 16.1103 99.531 16.9035C99.3679 16.1189 99.2611 15.3343 99.1751 14.5497C99.0891 13.7651 99.0298 12.9745 98.9823 12.187C98.9348 11.3994 98.917 10.6088 98.923 9.81822C98.9175 9.02242 98.9521 8.22684 99.0268 7.43457Z" fill="#7D7D7D"/>
<path d="M103.984 11.9094C103.21 12.0695 102.429 12.1899 101.644 12.2704C100.864 12.3599 100.08 12.4136 99.2944 12.4613C98.5084 12.5091 97.7253 12.5299 96.9393 12.524C96.1471 12.5295 95.3551 12.4947 94.5664 12.4196C95.3399 12.2595 96.121 12.139 96.9067 12.0586C97.6868 11.9691 98.4698 11.9154 99.2559 11.8677C100.042 11.8199 100.825 11.802 101.611 11.805C102.397 11.808 103.192 11.8289 103.984 11.9094ZM105.236 13.234C105.379 13.7514 105.484 14.279 105.55 14.8122C105.621 15.3432 105.675 15.8712 105.701 16.4023C105.728 16.9333 105.737 17.4643 105.722 17.9983C105.713 18.5362 105.665 19.0727 105.577 19.6033C105.432 19.086 105.326 18.5584 105.259 18.0252C105.188 17.4941 105.138 16.9661 105.108 16.4351C105.078 15.9041 105.075 15.373 105.09 14.839C105.099 14.3011 105.148 13.7646 105.236 13.234Z" fill="#7D7D7D"/>
<path d="M108.576 16.2471C108.06 16.3917 107.535 16.4974 107.004 16.5633C106.479 16.6379 105.954 16.6886 105.426 16.7155C104.898 16.7423 104.367 16.7513 103.839 16.7364C103.303 16.7274 102.769 16.6785 102.24 16.5902C102.756 16.4464 103.281 16.3397 103.812 16.271C104.337 16.1994 104.865 16.1487 105.393 16.1218C105.921 16.095 106.449 16.086 106.98 16.1009C107.515 16.1098 108.048 16.1586 108.576 16.2471ZM27.7191 92.2525C27.8783 93.0305 27.998 93.8161 28.078 94.6063C28.167 95.3909 28.2204 96.1815 28.2708 96.9691C28.3213 97.7567 28.3361 98.5473 28.3302 99.3378C28.3373 100.135 28.3026 100.931 28.2263 101.724C28.0668 100.947 27.9479 100.161 27.8704 99.3707C27.7814 98.586 27.7251 97.7985 27.6776 97.0109C27.6302 96.2233 27.6124 95.4327 27.6183 94.6392C27.6117 93.8424 27.6454 93.0458 27.7191 92.2525Z" fill="#7D7D7D"/>
<path d="M32.6831 96.7305C31.906 96.8946 31.1259 97.002 30.3428 97.0885C29.5598 97.175 28.7767 97.2347 27.9936 97.2824C27.2106 97.3302 26.4246 97.3481 25.6385 97.3451C24.8525 97.3421 24.0635 97.3212 23.2656 97.2407C24.0391 97.0806 24.8202 96.9601 25.6059 96.8797C26.386 96.7902 27.1691 96.7335 27.9521 96.6858C28.7352 96.638 29.5212 96.6201 30.3102 96.6261C31.1024 96.6205 31.8944 96.6554 32.6831 96.7305ZM33.9289 98.0521C34.0709 98.571 34.1759 99.0994 34.2433 99.6333C34.3145 100.161 34.3649 100.692 34.3946 101.223C34.4242 101.754 34.4301 102.285 34.4153 102.819C34.4065 103.357 34.3579 103.894 34.27 104.424C34.1241 103.906 34.018 103.378 33.9526 102.843C33.8814 102.315 33.828 101.784 33.8013 101.253C33.7746 100.722 33.7687 100.191 33.7835 99.6571C33.7925 99.1192 33.841 98.5828 33.9289 98.0521Z" fill="#7D7D7D"/>
<path d="M37.2653 101.068C36.7495 101.211 36.2241 101.317 35.6933 101.384C35.1683 101.456 34.6403 101.507 34.1123 101.537C33.5844 101.566 33.0564 101.572 32.5255 101.557C31.9907 101.548 31.4573 101.5 30.9297 101.411C31.4448 101.265 31.9704 101.158 32.5017 101.092C33.0267 101.02 33.5547 100.967 34.0827 100.94C34.6107 100.913 35.1386 100.907 35.6696 100.922C36.2044 100.931 36.7378 100.98 37.2653 101.068ZM156.412 86.459C156.575 87.2406 156.682 88.0282 156.768 88.8128C156.854 89.5974 156.913 90.388 156.961 91.1756C157.008 91.9632 157.026 92.7537 157.023 93.5443C157.028 94.3412 156.992 95.1377 156.916 95.9309C156.753 95.1493 156.646 94.3647 156.56 93.5771C156.474 92.7895 156.415 92.0049 156.367 91.2173C156.32 90.4298 156.302 89.6392 156.308 88.8307C156.303 88.0389 156.338 87.2473 156.412 86.459Z" fill="#7D7D7D"/>
<path d="M161.367 90.9366C160.59 91.1007 159.809 91.2081 159.026 91.2946C158.243 91.3811 157.463 91.4408 156.677 91.4885C155.891 91.5362 155.108 91.5571 154.322 91.5511C153.53 91.5567 152.738 91.5218 151.949 91.4467C152.723 91.2867 153.504 91.1662 154.289 91.0857C155.07 90.9962 155.853 90.9396 156.639 90.8918C157.425 90.8441 158.208 90.8262 158.994 90.8322C159.786 90.8266 160.578 90.8615 161.367 90.9366ZM162.618 92.2582C162.762 92.7767 162.867 93.3052 162.933 93.8393C163.004 94.3674 163.057 94.8984 163.084 95.4294C163.111 95.9604 163.12 96.4915 163.105 97.0255C163.096 97.5634 163.047 98.0999 162.96 98.6305C162.815 98.112 162.709 97.5835 162.642 97.0493C162.571 96.5213 162.521 95.9933 162.491 95.4622C162.461 94.9312 162.458 94.3972 162.473 93.8632C162.482 93.3253 162.531 92.7888 162.618 92.2582Z" fill="#7D7D7D"/>
<path d="M165.957 95.2743C165.441 95.4189 164.916 95.5246 164.385 95.5905C163.86 95.6621 163.335 95.7158 162.807 95.7427C162.279 95.7695 161.748 95.7785 161.22 95.7636C160.684 95.7546 160.15 95.7057 159.621 95.6174C160.137 95.4721 160.662 95.3654 161.193 95.2982C161.718 95.2266 162.246 95.1729 162.774 95.146C163.302 95.1192 163.83 95.1132 164.361 95.1281C164.896 95.137 165.429 95.1858 165.957 95.2743Z" fill="#7D7D7D"/>
<path d="M66.3265 128.926H88.887C94.713 128.926 100.3 131.254 104.42 135.397C108.54 139.541 110.854 145.16 110.854 151.02H44.3594C44.3594 145.16 46.6738 139.541 50.7934 135.397C54.9131 131.254 60.5005 128.926 66.3265 128.926Z" fill="#A3A3A3"/>
<path d="M53.1496 144.433C53.1578 144.6 53.1323 144.766 53.0746 144.922C53.0169 145.078 52.9284 145.221 52.8142 145.341C52.7001 145.462 52.5628 145.558 52.4106 145.624C52.2585 145.689 52.0946 145.723 51.9291 145.723C51.7635 145.723 51.5997 145.689 51.4476 145.624C51.2954 145.558 51.1581 145.462 51.0439 145.341C50.9298 145.221 50.8412 145.078 50.7835 144.922C50.7259 144.766 50.7004 144.6 50.7085 144.433C50.7085 143.756 51.5509 143.801 52.2272 143.801C52.9035 143.801 53.1496 143.756 53.1496 144.433ZM64.8777 137.336C64.8777 138.622 63.5459 139.067 62.2705 139.067C61.6569 139.067 61.0684 138.821 60.6346 138.385C60.2007 137.949 59.9569 137.357 59.9569 136.74C59.9569 136.122 60.2007 135.531 60.6346 135.094C61.0684 134.658 61.6569 134.413 62.2705 134.413C63.5459 134.413 64.8777 136.053 64.8777 137.336ZM85.089 137.614C85.089 138.231 84.8452 138.823 84.4113 139.259C83.9774 139.695 83.389 139.941 82.7754 139.941C81.4999 139.941 80.7584 139.496 80.7584 138.21C80.7584 136.925 81.4999 135.287 82.7754 135.287C83.389 135.287 83.9774 135.532 84.4113 135.968C84.8452 136.405 85.089 136.997 85.089 137.614ZM106.602 145.842C106.602 147.127 105.271 147.572 103.992 147.572C103.688 147.572 103.387 147.512 103.107 147.395C102.826 147.278 102.571 147.106 102.356 146.89C102.141 146.674 101.971 146.418 101.855 146.135C101.738 145.853 101.679 145.551 101.679 145.245C101.679 143.962 103.013 143.518 104.289 143.518C104.902 143.518 105.49 143.762 105.924 144.198C106.357 144.634 106.602 145.225 106.602 145.842ZM73.2333 146.519C73.2333 146.824 73.1735 147.127 73.0572 147.409C72.9409 147.692 72.7705 147.948 72.5557 148.164C72.3409 148.38 72.0858 148.552 71.8051 148.669C71.5244 148.786 71.2236 148.846 70.9197 148.846C69.6413 148.846 68.3095 147.208 68.3095 145.922C68.3095 145.305 68.5533 144.713 68.9872 144.277C69.4211 143.84 70.0095 143.595 70.6231 143.595C71.8986 143.595 73.2333 145.236 73.2333 146.519ZM91.6085 146.307C91.6085 146.948 91.0924 146.826 90.4517 146.826C89.811 146.826 89.5945 146.904 89.5945 146.259C89.5945 145.951 89.716 145.656 89.9323 145.438C90.1486 145.219 90.442 145.097 90.7483 145.096C91.389 145.096 91.6085 145.663 91.6085 146.307ZM97.4577 134.126C97.4577 134.768 97.2353 135.883 96.5975 135.883C96.2913 135.883 95.9975 135.761 95.7806 135.544C95.5638 135.326 95.4415 135.031 95.4408 134.723C95.4408 134.078 95.6632 132.963 96.3009 132.963C96.6077 132.963 96.902 133.085 97.1189 133.303C97.3358 133.522 97.4577 133.818 97.4577 134.126ZM76.5643 132.074C76.5643 132.837 75.6507 132.858 74.8914 132.858C74.5378 132.842 74.2042 132.689 73.9598 132.431C73.7154 132.174 73.579 131.832 73.579 131.476C73.579 131.12 73.7154 130.777 73.9598 130.52C74.2042 130.262 74.5378 130.109 74.8914 130.093C75.6507 130.093 76.5643 131.31 76.5643 132.074Z" fill="#7F7F7F"/>
<path d="M42.1369 145.287C42.9674 143.36 42.3415 142.178 42.3415 140.812C42.3415 137.939 41.3864 134.684 39.672 132.644C39.2129 134.106 38.9681 135.627 38.9453 137.16C38.9542 140.027 40.4343 143.24 42.1369 145.287Z" fill="#C8C8C8"/>
<path d="M46.1108 147.348C49.3347 147.348 51.9481 142.793 51.9481 137.175C51.9481 131.557 49.3347 127.002 46.1108 127.002C42.8869 127.002 40.2734 131.557 40.2734 137.175C40.2734 142.793 42.8869 147.348 46.1108 147.348Z" fill="white"/>
<path d="M31.7937 141.128C31.7937 142.262 31.3369 143.168 31.9628 144.708C34.6323 142.557 36.6581 138.947 36.6581 135.227C36.622 133.916 36.4329 132.615 36.0946 131.349C33.3954 133.476 31.7937 137.408 31.7937 141.128Z" fill="#7D7D7D"/>
<path d="M29.7592 144.812C32.9831 144.812 35.5966 140.257 35.5966 134.639C35.5966 129.02 32.9831 124.466 29.7592 124.466C26.5353 124.466 23.9219 129.02 23.9219 134.639C23.9219 140.257 26.5353 144.812 29.7592 144.812Z" fill="white"/>
<path d="M29.7592 144.812C32.9831 144.812 35.5966 140.257 35.5966 134.639C35.5966 129.02 32.9831 124.466 29.7592 124.466C26.5353 124.466 23.9219 129.02 23.9219 134.639C23.9219 140.257 26.5353 144.812 29.7592 144.812Z" stroke="#C8C8C8" stroke-miterlimit="10"/>
<path d="M29.76 129.556V151.02M29.76 135.531L26.9007 132.241M29.76 138.777L26.2422 134.732M29.76 142.121L26.2422 138.076M29.76 135.537L32.6283 132.241M29.76 138.783L33.2779 134.738M29.76 142.127L33.2779 138.082" stroke="#C8C8C8" stroke-linecap="round" stroke-linejoin="round"/>
<path d="M46.1108 147.348C49.3347 147.348 51.9481 142.793 51.9481 137.175C51.9481 131.557 49.3347 127.002 46.1108 127.002C42.8869 127.002 40.2734 131.557 40.2734 137.175C40.2734 142.793 42.8869 147.348 46.1108 147.348Z" stroke="#7D7D7D" stroke-linecap="round" stroke-linejoin="round"/>
<path d="M46.1116 132.092V151.021M46.1116 138.067L43.2493 134.777M46.1116 141.313L42.5938 137.268M46.1116 144.657L42.5938 140.612M46.1116 138.076L48.9798 134.777M46.1116 141.319L49.6294 137.274M46.1116 144.666L49.6294 140.621" stroke="#7D7D7D" stroke-linecap="round" stroke-linejoin="round"/>
<path d="M18 151.021H133.626" stroke="#545454" stroke-linecap="round" stroke-linejoin="round"/>
<defs>
<linearGradient id="paint0_linear_1269_29995" x1="84.3385" y1="31.5921" x2="165.066" y2="35.2403" gradientUnits="userSpaceOnUse">
<stop stop-color="#E4E4E4"/>
<stop offset="1" stop-color="#EBEBEB" stop-opacity="0"/>
</linearGradient>
<linearGradient id="paint1_linear_1269_29995" x1="153.063" y1="34.7358" x2="146.955" y2="58.2762" gradientUnits="userSpaceOnUse">
<stop stop-color="#FDFDFD"/>
<stop offset="1" stop-color="#BEC5C7"/>
</linearGradient>
<linearGradient id="paint2_linear_1269_29995" x1="129.487" y1="24.6572" x2="129.487" y2="34.6572" gradientUnits="userSpaceOnUse">
<stop stop-color="#FDFDFD"/>
<stop offset="1" stop-color="#BEC5C7"/>
</linearGradient>
<clipPath id="clip0_1269_29995">
<rect width="32" height="32" fill="white" transform="translate(138.539 27) rotate(14.5464)"/>
</clipPath>
<clipPath id="clip1_1269_29995">
<rect width="16" height="16" fill="white" transform="translate(120.5 21.1377) rotate(-14.9867)"/>
</clipPath>
</defs>
</svg>
