<svg width="169" height="152" viewBox="0 0 169 152" fill="none" xmlns="http://www.w3.org/2000/svg">
<path fill-rule="evenodd" clip-rule="evenodd" d="M109.722 100C112.361 100 114.5 102.149 114.5 104.8C114.5 107.451 112.361 109.6 109.722 109.6H82.4162C85.0552 109.6 87.1946 111.749 87.1946 114.4C87.1946 117.051 85.0552 119.2 82.4162 119.2H97.4341C100.073 119.2 102.213 121.349 102.213 124C102.213 126.651 100.073 128.8 97.4341 128.8H90.4891C87.1615 128.8 84.4641 130.949 84.4641 133.6C84.4641 135.367 85.8293 136.967 88.5599 138.4C91.1989 138.4 93.3383 140.549 93.3383 143.2C93.3383 145.851 91.1989 148 88.5599 148H31.9012C29.2621 148 27.1228 145.851 27.1228 143.2C27.1228 140.549 29.2621 138.4 31.9012 138.4H5.27844C2.63938 138.4 0.5 136.251 0.5 133.6C0.5 130.949 2.63938 128.8 5.27844 128.8H32.5838C35.2229 128.8 37.3623 126.651 37.3623 124C37.3623 121.349 35.2229 119.2 32.5838 119.2H15.518C12.8789 119.2 10.7395 117.051 10.7395 114.4C10.7395 111.749 12.8789 109.6 15.518 109.6H42.8234C40.1843 109.6 38.0449 107.451 38.0449 104.8C38.0449 102.149 40.1843 100 42.8234 100H109.722ZM109.722 119.2C112.361 119.2 114.5 121.349 114.5 124C114.5 126.651 112.361 128.8 109.722 128.8C107.082 128.8 104.943 126.651 104.943 124C104.943 121.349 107.082 119.2 109.722 119.2Z" fill="#F1F3F5"/>
<path d="M86.375 30.3491L168.498 0L165.283 12.3598C163.862 17.8251 163.856 23.5651 165.265 29.0334L166.03 32.0167C167.639 38.2691 167.395 44.8581 165.328 50.9726C163.079 57.6254 162.993 64.8251 165.081 71.5305L168.498 82.4881L86.375 33.1504V30.3491Z" fill="url(#paint0_linear_1269_29939)"/>
<g clip-path="url(#clip0_1269_29939)">
<rect x="123.32" y="24.6572" width="13.3333" height="10" rx="1" transform="rotate(-14.9867 123.32 24.6572)" fill="url(#paint1_linear_1269_29939)"/>
<path d="M135.15 21.1027L132.26 21.8761L132.095 21.2571C131.916 20.5913 131.229 20.1789 130.563 20.3571L127.798 21.0974C127.475 21.187 127.201 21.3996 127.034 21.6893C126.866 21.9791 126.819 22.3229 126.903 22.647L127.068 23.2661L124.179 24.0395C123.347 24.2623 122.841 25.1199 123.064 25.9522L125.009 33.2155C125.231 34.0477 126.102 34.5561 126.935 34.3333L137.905 31.3965C138.738 31.1737 139.238 30.2981 139.015 29.4658L137.071 22.2026C136.848 21.3702 135.982 20.8799 135.15 21.1027ZM127.506 22.4854C127.466 22.3214 127.49 22.1481 127.575 22.0018C127.659 21.8555 127.797 21.7477 127.959 21.7011L130.725 20.9609C131.058 20.8718 131.402 21.0858 131.491 21.4187L131.657 22.0377L127.672 23.1044L127.506 22.4854ZM124.341 24.6432L135.311 21.7064C135.811 21.5727 136.334 21.8648 136.467 22.3642L137.214 25.1555L133.722 28.0657C133.06 28.6184 132.285 29.0203 131.452 29.2435C130.618 29.4666 129.746 29.5055 128.896 29.3576L124.415 28.5818L123.668 25.7906C123.534 25.2911 123.841 24.7769 124.341 24.6432ZM137.744 30.7927L126.773 33.7295C126.274 33.8632 125.746 33.5532 125.612 33.0538L124.593 29.247L128.787 29.9738C129.727 30.1372 130.69 30.0941 131.612 29.8475C132.533 29.6009 133.389 29.1567 134.122 28.5457L137.393 25.8206L138.412 29.6272C138.545 30.1268 138.243 30.659 137.744 30.7927Z" fill="#909DA1"/>
<path d="M130.102 26.2389L129.421 26.4212C129.361 26.4381 129.307 26.4726 129.266 26.5203C129.225 26.5681 129.2 26.6269 129.193 26.6893C129.185 26.7516 129.197 26.8147 129.226 26.8705C129.255 26.9262 129.3 26.9721 129.355 27.0022L131.488 28.1557C131.561 28.1952 131.646 28.2041 131.726 28.1804C131.805 28.1568 131.872 28.1026 131.911 28.0298C131.95 27.957 131.959 27.8715 131.936 27.7921C131.912 27.7127 131.858 27.646 131.785 27.6065L130.339 26.8204C130.621 26.7283 130.865 26.5467 131.034 26.3033C131.204 26.0598 131.289 25.7678 131.277 25.4715L131.688 25.3614C131.768 25.34 131.837 25.2877 131.878 25.2159C131.92 25.1441 131.931 25.0588 131.909 24.9788C131.888 24.8987 131.836 24.8304 131.764 24.789C131.692 24.7475 131.607 24.7363 131.527 24.7577L131.116 24.8678C131.044 24.7359 130.948 24.6189 130.832 24.5231L131.422 24.3653C131.502 24.3439 131.57 24.2915 131.611 24.2197C131.653 24.148 131.664 24.0627 131.643 23.9826C131.621 23.9026 131.569 23.8343 131.497 23.7928C131.425 23.7514 131.34 23.7401 131.26 23.7616L128.88 24.3987C128.8 24.4201 128.732 24.4725 128.69 24.5442C128.649 24.616 128.638 24.7013 128.659 24.7814C128.68 24.8614 128.733 24.9297 128.804 24.9711C128.876 25.0126 128.962 25.0239 129.042 25.0024L129.723 24.8201C130.012 24.7428 130.301 24.8269 130.48 25.0378L129.147 25.3949C129.067 25.4163 128.998 25.4686 128.957 25.5404C128.915 25.6122 128.904 25.6975 128.926 25.7775C128.947 25.8576 128.999 25.9259 129.071 25.9673C129.143 26.0088 129.228 26.02 129.308 25.9986L130.642 25.6416C130.6 25.9439 130.391 26.1616 130.102 26.2389Z" fill="#909DA1"/>
</g>
<mask id="path-6-outside-1_1269_29939" maskUnits="userSpaceOnUse" x="134.832" y="32.6873" width="31.5379" height="28.2434" fill="black">
<rect fill="white" x="134.832" y="32.6873" width="31.5379" height="28.2434"/>
<path d="M145.743 34.8573L159.046 37.0553C159.488 37.1284 159.793 37.5529 159.711 38.0497L159.569 38.9108L144.649 36.4457L144.792 35.5846C144.874 35.0878 145.301 34.7842 145.743 34.8573ZM142.262 36.9358L161.674 40.1432L162.873 46.1467C162.827 46.3663 162.724 46.5702 162.574 46.7387C162.424 46.9071 162.232 47.0343 162.017 47.108C161.801 47.1817 161.57 47.1994 161.345 47.1592C161.119 47.1191 160.908 47.0226 160.732 46.8791C160.55 46.7328 160.411 46.5423 160.328 46.3268C160.245 46.1114 160.221 45.8785 160.258 45.6518C160.261 45.6372 160.263 45.6225 160.264 45.6085C160.268 45.5503 160.26 45.4918 160.24 45.4365C160.221 45.3811 160.191 45.3301 160.151 45.2862C160.112 45.2423 160.064 45.2065 160.01 45.1809C159.957 45.1552 159.899 45.1402 159.839 45.1368C159.773 45.1341 159.707 45.1459 159.645 45.1714C159.584 45.197 159.53 45.2356 159.486 45.2845L159.484 45.2859C159.431 45.3501 159.395 45.4263 159.381 45.5077C159.343 45.7346 159.246 45.9475 159.098 46.1249C158.95 46.3024 158.757 46.4381 158.538 46.5184C158.319 46.5986 158.082 46.6206 157.851 46.5821C157.619 46.5436 157.402 46.446 157.221 46.2991C157.04 46.1528 156.901 45.9625 156.817 45.7472C156.734 45.5319 156.71 45.2993 156.748 45.0727C156.75 45.058 156.753 45.0434 156.753 45.0285C156.757 44.9703 156.749 44.9119 156.73 44.8567C156.71 44.8014 156.68 44.7505 156.64 44.7067C156.601 44.6629 156.553 44.6272 156.5 44.6016C156.446 44.576 156.388 44.5611 156.329 44.5576C156.262 44.5548 156.196 44.5665 156.135 44.5919C156.074 44.6173 156.019 44.6557 155.975 44.7045L155.973 44.7059C155.92 44.7699 155.884 44.8461 155.869 44.9275C155.832 45.1545 155.735 45.3676 155.587 45.5451C155.439 45.7227 155.246 45.8585 155.027 45.9389C154.808 46.0193 154.571 46.0413 154.339 46.0028C154.108 45.9644 153.891 45.8667 153.71 45.7197C153.528 45.5733 153.389 45.3827 153.306 45.1671C153.222 44.9515 153.199 44.7185 153.236 44.4916C153.239 44.4778 153.241 44.4632 153.242 44.4483C153.246 44.3902 153.238 44.3319 153.218 44.2767C153.199 44.2216 153.169 44.1706 153.129 44.1269C153.09 44.0831 153.042 44.0474 152.989 44.0218C152.935 43.9962 152.878 43.9811 152.818 43.9776C152.752 43.9747 152.685 43.9865 152.624 44.012C152.563 44.0375 152.508 44.0762 152.464 44.1252L152.462 44.1266C152.409 44.1907 152.374 44.267 152.359 44.3483C152.321 44.5752 152.224 44.7882 152.076 44.9656C151.928 45.1431 151.735 45.2788 151.516 45.359C151.297 45.4393 151.06 45.4613 150.829 45.4228C150.598 45.3843 150.38 45.2866 150.199 45.1397C150.018 44.9934 149.878 44.8029 149.795 44.5875C149.712 44.372 149.688 44.1392 149.726 43.9125C149.728 43.8978 149.731 43.8832 149.731 43.8691C149.735 43.8109 149.727 43.7524 149.708 43.6971C149.689 43.6418 149.658 43.5907 149.619 43.5468C149.579 43.5029 149.532 43.4671 149.478 43.4415C149.424 43.4159 149.366 43.4009 149.307 43.3974C149.24 43.3947 149.174 43.4065 149.113 43.4321C149.052 43.4576 148.997 43.4962 148.953 43.5451L148.951 43.5466C148.899 43.6107 148.863 43.687 148.848 43.7683C148.811 43.9953 148.714 44.2084 148.566 44.3859C148.418 44.5635 148.225 44.6994 148.006 44.7797C147.787 44.8601 147.55 44.8821 147.318 44.8437C147.087 44.8052 146.87 44.7075 146.689 44.5606C146.507 44.4142 146.368 44.2235 146.285 44.0079C146.201 43.7923 146.178 43.5593 146.215 43.3324C146.218 43.3187 146.22 43.304 146.221 43.2891C146.225 43.2309 146.216 43.1725 146.197 43.1173C146.178 43.0621 146.148 43.0111 146.108 42.9673C146.069 42.9235 146.021 42.8878 145.967 42.8622C145.914 42.8366 145.856 42.8217 145.796 42.8183C145.73 42.8154 145.664 42.8272 145.603 42.8526C145.542 42.8779 145.487 42.9164 145.443 42.9651L145.441 42.9665C145.388 43.0306 145.352 43.1068 145.337 43.1881C145.3 43.4152 145.202 43.6282 145.055 43.8058C144.907 43.9834 144.713 44.1192 144.494 44.1995C144.275 44.2799 144.038 44.302 143.807 44.2635C143.576 44.225 143.359 44.1274 143.177 43.9804C142.996 43.8341 142.856 43.6436 142.773 43.4281C142.69 43.2127 142.666 42.9798 142.704 42.7531C142.717 42.6949 142.719 42.6345 142.707 42.5757C142.696 42.5169 142.673 42.4609 142.639 42.4111C142.605 42.3613 142.561 42.3189 142.51 42.2863C142.458 42.2538 142.401 42.2319 142.341 42.222C142.281 42.2121 142.219 42.2143 142.16 42.2286C142.101 42.2429 142.046 42.269 141.998 42.3052C141.95 42.3413 141.909 42.3869 141.88 42.439C141.85 42.4911 141.832 42.5487 141.826 42.6081C141.789 42.8352 141.692 43.0484 141.544 43.2261C141.396 43.4038 141.203 43.5398 140.984 43.6202C140.765 43.7007 140.528 43.7228 140.297 43.6844C140.065 43.6459 139.848 43.5482 139.667 43.4012C139.495 43.2604 139.362 43.08 139.28 42.8763C139.197 42.6726 139.168 42.4522 139.194 42.2351L142.262 36.9358ZM142.059 43.9406C142.197 44.2076 142.374 44.4571 142.617 44.653C142.92 44.8969 143.282 45.0587 143.667 45.1224C144.052 45.186 144.446 45.1491 144.811 45.0155C145.105 44.9083 145.353 44.729 145.569 44.5207C145.707 44.7876 145.884 45.0371 146.128 45.233C146.43 45.4769 146.792 45.6388 147.177 45.7024C147.562 45.766 147.957 45.7292 148.322 45.5955C148.615 45.4884 148.863 45.309 149.08 45.1007C149.218 45.3676 149.395 45.6171 149.638 45.813C149.941 46.0569 150.302 46.2188 150.688 46.2824C151.073 46.3461 151.467 46.3092 151.832 46.1755C152.126 46.0684 152.374 45.8891 152.59 45.6807C152.728 45.9476 152.905 46.1971 153.149 46.3931C153.451 46.6369 153.813 46.7988 154.198 46.8624C154.583 46.9261 154.978 46.8892 155.343 46.7556C155.636 46.6484 155.884 46.4691 156.101 46.2607C156.239 46.5277 156.416 46.7772 156.659 46.9731C156.961 47.217 157.323 47.3788 157.708 47.4425C158.094 47.5061 158.488 47.4692 158.853 47.3356C159.147 47.2284 159.394 47.0491 159.611 46.8408C159.707 47.0264 159.829 47.1961 159.978 47.3507L158.052 59.005L145.765 56.9749L146.691 51.3729C146.705 51.2594 146.675 51.1445 146.607 51.0512C146.539 50.9579 146.438 50.8932 146.323 50.8699L142.813 50.2899C142.697 50.2751 142.58 50.3038 142.486 50.3702C142.391 50.4366 142.326 50.5358 142.303 50.6479L141.377 56.2499L139.622 55.9599L141.548 44.3055C141.738 44.207 141.909 44.0857 142.059 43.9406ZM151.137 49.0169C151.022 49.0022 150.905 49.0309 150.81 49.0973C150.716 49.1637 150.65 49.2629 150.627 49.375L149.774 54.5413C149.736 54.7669 149.911 55.0063 150.141 55.0443L156.285 56.0594C156.4 56.0741 156.517 56.0454 156.612 55.979C156.706 55.9126 156.772 55.8134 156.795 55.7013L157.648 50.535C157.663 50.4215 157.633 50.3066 157.564 50.2133C157.496 50.12 157.395 50.0552 157.281 50.032L151.137 49.0169ZM151.434 49.9505L156.7 50.8205L155.988 55.1258L150.722 54.2558L151.434 49.9505Z"/>
</mask>
<path d="M145.743 34.8573L159.046 37.0553C159.488 37.1284 159.793 37.5529 159.711 38.0497L159.569 38.9108L144.649 36.4457L144.792 35.5846C144.874 35.0878 145.301 34.7842 145.743 34.8573ZM142.262 36.9358L161.674 40.1432L162.873 46.1467C162.827 46.3663 162.724 46.5702 162.574 46.7387C162.424 46.9071 162.232 47.0343 162.017 47.108C161.801 47.1817 161.57 47.1994 161.345 47.1592C161.119 47.1191 160.908 47.0226 160.732 46.8791C160.55 46.7328 160.411 46.5423 160.328 46.3268C160.245 46.1114 160.221 45.8785 160.258 45.6518C160.261 45.6372 160.263 45.6225 160.264 45.6085C160.268 45.5503 160.26 45.4918 160.24 45.4365C160.221 45.3811 160.191 45.3301 160.151 45.2862C160.112 45.2423 160.064 45.2065 160.01 45.1809C159.957 45.1552 159.899 45.1402 159.839 45.1368C159.773 45.1341 159.707 45.1459 159.645 45.1714C159.584 45.197 159.53 45.2356 159.486 45.2845L159.484 45.2859C159.431 45.3501 159.395 45.4263 159.381 45.5077C159.343 45.7346 159.246 45.9475 159.098 46.1249C158.95 46.3024 158.757 46.4381 158.538 46.5184C158.319 46.5986 158.082 46.6206 157.851 46.5821C157.619 46.5436 157.402 46.446 157.221 46.2991C157.04 46.1528 156.901 45.9625 156.817 45.7472C156.734 45.5319 156.71 45.2993 156.748 45.0727C156.75 45.058 156.753 45.0434 156.753 45.0285C156.757 44.9703 156.749 44.9119 156.73 44.8567C156.71 44.8014 156.68 44.7505 156.64 44.7067C156.601 44.6629 156.553 44.6272 156.5 44.6016C156.446 44.576 156.388 44.5611 156.329 44.5576C156.262 44.5548 156.196 44.5665 156.135 44.5919C156.074 44.6173 156.019 44.6557 155.975 44.7045L155.973 44.7059C155.92 44.7699 155.884 44.8461 155.869 44.9275C155.832 45.1545 155.735 45.3676 155.587 45.5451C155.439 45.7227 155.246 45.8585 155.027 45.9389C154.808 46.0193 154.571 46.0413 154.339 46.0028C154.108 45.9644 153.891 45.8667 153.71 45.7197C153.528 45.5733 153.389 45.3827 153.306 45.1671C153.222 44.9515 153.199 44.7185 153.236 44.4916C153.239 44.4778 153.241 44.4632 153.242 44.4483C153.246 44.3902 153.238 44.3319 153.218 44.2767C153.199 44.2216 153.169 44.1706 153.129 44.1269C153.09 44.0831 153.042 44.0474 152.989 44.0218C152.935 43.9962 152.878 43.9811 152.818 43.9776C152.752 43.9747 152.685 43.9865 152.624 44.012C152.563 44.0375 152.508 44.0762 152.464 44.1252L152.462 44.1266C152.409 44.1907 152.374 44.267 152.359 44.3483C152.321 44.5752 152.224 44.7882 152.076 44.9656C151.928 45.1431 151.735 45.2788 151.516 45.359C151.297 45.4393 151.06 45.4613 150.829 45.4228C150.598 45.3843 150.38 45.2866 150.199 45.1397C150.018 44.9934 149.878 44.8029 149.795 44.5875C149.712 44.372 149.688 44.1392 149.726 43.9125C149.728 43.8978 149.731 43.8832 149.731 43.8691C149.735 43.8109 149.727 43.7524 149.708 43.6971C149.689 43.6418 149.658 43.5907 149.619 43.5468C149.579 43.5029 149.532 43.4671 149.478 43.4415C149.424 43.4159 149.366 43.4009 149.307 43.3974C149.24 43.3947 149.174 43.4065 149.113 43.4321C149.052 43.4576 148.997 43.4962 148.953 43.5451L148.951 43.5466C148.899 43.6107 148.863 43.687 148.848 43.7683C148.811 43.9953 148.714 44.2084 148.566 44.3859C148.418 44.5635 148.225 44.6994 148.006 44.7797C147.787 44.8601 147.55 44.8821 147.318 44.8437C147.087 44.8052 146.87 44.7075 146.689 44.5606C146.507 44.4142 146.368 44.2235 146.285 44.0079C146.201 43.7923 146.178 43.5593 146.215 43.3324C146.218 43.3187 146.22 43.304 146.221 43.2891C146.225 43.2309 146.216 43.1725 146.197 43.1173C146.178 43.0621 146.148 43.0111 146.108 42.9673C146.069 42.9235 146.021 42.8878 145.967 42.8622C145.914 42.8366 145.856 42.8217 145.796 42.8183C145.73 42.8154 145.664 42.8272 145.603 42.8526C145.542 42.8779 145.487 42.9164 145.443 42.9651L145.441 42.9665C145.388 43.0306 145.352 43.1068 145.337 43.1881C145.3 43.4152 145.202 43.6282 145.055 43.8058C144.907 43.9834 144.713 44.1192 144.494 44.1995C144.275 44.2799 144.038 44.302 143.807 44.2635C143.576 44.225 143.359 44.1274 143.177 43.9804C142.996 43.8341 142.856 43.6436 142.773 43.4281C142.69 43.2127 142.666 42.9798 142.704 42.7531C142.717 42.6949 142.719 42.6345 142.707 42.5757C142.696 42.5169 142.673 42.4609 142.639 42.4111C142.605 42.3613 142.561 42.3189 142.51 42.2863C142.458 42.2538 142.401 42.2319 142.341 42.222C142.281 42.2121 142.219 42.2143 142.16 42.2286C142.101 42.2429 142.046 42.269 141.998 42.3052C141.95 42.3413 141.909 42.3869 141.88 42.439C141.85 42.4911 141.832 42.5487 141.826 42.6081C141.789 42.8352 141.692 43.0484 141.544 43.2261C141.396 43.4038 141.203 43.5398 140.984 43.6202C140.765 43.7007 140.528 43.7228 140.297 43.6844C140.065 43.6459 139.848 43.5482 139.667 43.4012C139.495 43.2604 139.362 43.08 139.28 42.8763C139.197 42.6726 139.168 42.4522 139.194 42.2351L142.262 36.9358ZM142.059 43.9406C142.197 44.2076 142.374 44.4571 142.617 44.653C142.92 44.8969 143.282 45.0587 143.667 45.1224C144.052 45.186 144.446 45.1491 144.811 45.0155C145.105 44.9083 145.353 44.729 145.569 44.5207C145.707 44.7876 145.884 45.0371 146.128 45.233C146.43 45.4769 146.792 45.6388 147.177 45.7024C147.562 45.766 147.957 45.7292 148.322 45.5955C148.615 45.4884 148.863 45.309 149.08 45.1007C149.218 45.3676 149.395 45.6171 149.638 45.813C149.941 46.0569 150.302 46.2188 150.688 46.2824C151.073 46.3461 151.467 46.3092 151.832 46.1755C152.126 46.0684 152.374 45.8891 152.59 45.6807C152.728 45.9476 152.905 46.1971 153.149 46.3931C153.451 46.6369 153.813 46.7988 154.198 46.8624C154.583 46.9261 154.978 46.8892 155.343 46.7556C155.636 46.6484 155.884 46.4691 156.101 46.2607C156.239 46.5277 156.416 46.7772 156.659 46.9731C156.961 47.217 157.323 47.3788 157.708 47.4425C158.094 47.5061 158.488 47.4692 158.853 47.3356C159.147 47.2284 159.394 47.0491 159.611 46.8408C159.707 47.0264 159.829 47.1961 159.978 47.3507L158.052 59.005L145.765 56.9749L146.691 51.3729C146.705 51.2594 146.675 51.1445 146.607 51.0512C146.539 50.9579 146.438 50.8932 146.323 50.8699L142.813 50.2899C142.697 50.2751 142.58 50.3038 142.486 50.3702C142.391 50.4366 142.326 50.5358 142.303 50.6479L141.377 56.2499L139.622 55.9599L141.548 44.3055C141.738 44.207 141.909 44.0857 142.059 43.9406ZM151.137 49.0169C151.022 49.0022 150.905 49.0309 150.81 49.0973C150.716 49.1637 150.65 49.2629 150.627 49.375L149.774 54.5413C149.736 54.7669 149.911 55.0063 150.141 55.0443L156.285 56.0594C156.4 56.0741 156.517 56.0454 156.612 55.979C156.706 55.9126 156.772 55.8134 156.795 55.7013L157.648 50.535C157.663 50.4215 157.633 50.3066 157.564 50.2133C157.496 50.12 157.395 50.0552 157.281 50.032L151.137 49.0169ZM151.434 49.9505L156.7 50.8205L155.988 55.1258L150.722 54.2558L151.434 49.9505Z" fill="url(#paint2_linear_1269_29939)"/>
<path d="M145.743 34.8573L159.046 37.0553C159.488 37.1284 159.793 37.5529 159.711 38.0497L159.569 38.9108L144.649 36.4457L144.792 35.5846C144.874 35.0878 145.301 34.7842 145.743 34.8573ZM142.262 36.9358L161.674 40.1432L162.873 46.1467C162.827 46.3663 162.724 46.5702 162.574 46.7387C162.424 46.9071 162.232 47.0343 162.017 47.108C161.801 47.1817 161.57 47.1994 161.345 47.1592C161.119 47.1191 160.908 47.0226 160.732 46.8791C160.55 46.7328 160.411 46.5423 160.328 46.3268C160.245 46.1114 160.221 45.8785 160.258 45.6518C160.261 45.6372 160.263 45.6225 160.264 45.6085C160.268 45.5503 160.26 45.4918 160.24 45.4365C160.221 45.3811 160.191 45.3301 160.151 45.2862C160.112 45.2423 160.064 45.2065 160.01 45.1809C159.957 45.1552 159.899 45.1402 159.839 45.1368C159.773 45.1341 159.707 45.1459 159.645 45.1714C159.584 45.197 159.53 45.2356 159.486 45.2845L159.484 45.2859C159.431 45.3501 159.395 45.4263 159.381 45.5077C159.343 45.7346 159.246 45.9475 159.098 46.1249C158.95 46.3024 158.757 46.4381 158.538 46.5184C158.319 46.5986 158.082 46.6206 157.851 46.5821C157.619 46.5436 157.402 46.446 157.221 46.2991C157.04 46.1528 156.901 45.9625 156.817 45.7472C156.734 45.5319 156.71 45.2993 156.748 45.0727C156.75 45.058 156.753 45.0434 156.753 45.0285C156.757 44.9703 156.749 44.9119 156.73 44.8567C156.71 44.8014 156.68 44.7505 156.64 44.7067C156.601 44.6629 156.553 44.6272 156.5 44.6016C156.446 44.576 156.388 44.5611 156.329 44.5576C156.262 44.5548 156.196 44.5665 156.135 44.5919C156.074 44.6173 156.019 44.6557 155.975 44.7045L155.973 44.7059C155.92 44.7699 155.884 44.8461 155.869 44.9275C155.832 45.1545 155.735 45.3676 155.587 45.5451C155.439 45.7227 155.246 45.8585 155.027 45.9389C154.808 46.0193 154.571 46.0413 154.339 46.0028C154.108 45.9644 153.891 45.8667 153.71 45.7197C153.528 45.5733 153.389 45.3827 153.306 45.1671C153.222 44.9515 153.199 44.7185 153.236 44.4916C153.239 44.4778 153.241 44.4632 153.242 44.4483C153.246 44.3902 153.238 44.3319 153.218 44.2767C153.199 44.2216 153.169 44.1706 153.129 44.1269C153.09 44.0831 153.042 44.0474 152.989 44.0218C152.935 43.9962 152.878 43.9811 152.818 43.9776C152.752 43.9747 152.685 43.9865 152.624 44.012C152.563 44.0375 152.508 44.0762 152.464 44.1252L152.462 44.1266C152.409 44.1907 152.374 44.267 152.359 44.3483C152.321 44.5752 152.224 44.7882 152.076 44.9656C151.928 45.1431 151.735 45.2788 151.516 45.359C151.297 45.4393 151.06 45.4613 150.829 45.4228C150.598 45.3843 150.38 45.2866 150.199 45.1397C150.018 44.9934 149.878 44.8029 149.795 44.5875C149.712 44.372 149.688 44.1392 149.726 43.9125C149.728 43.8978 149.731 43.8832 149.731 43.8691C149.735 43.8109 149.727 43.7524 149.708 43.6971C149.689 43.6418 149.658 43.5907 149.619 43.5468C149.579 43.5029 149.532 43.4671 149.478 43.4415C149.424 43.4159 149.366 43.4009 149.307 43.3974C149.24 43.3947 149.174 43.4065 149.113 43.4321C149.052 43.4576 148.997 43.4962 148.953 43.5451L148.951 43.5466C148.899 43.6107 148.863 43.687 148.848 43.7683C148.811 43.9953 148.714 44.2084 148.566 44.3859C148.418 44.5635 148.225 44.6994 148.006 44.7797C147.787 44.8601 147.55 44.8821 147.318 44.8437C147.087 44.8052 146.87 44.7075 146.689 44.5606C146.507 44.4142 146.368 44.2235 146.285 44.0079C146.201 43.7923 146.178 43.5593 146.215 43.3324C146.218 43.3187 146.22 43.304 146.221 43.2891C146.225 43.2309 146.216 43.1725 146.197 43.1173C146.178 43.0621 146.148 43.0111 146.108 42.9673C146.069 42.9235 146.021 42.8878 145.967 42.8622C145.914 42.8366 145.856 42.8217 145.796 42.8183C145.73 42.8154 145.664 42.8272 145.603 42.8526C145.542 42.8779 145.487 42.9164 145.443 42.9651L145.441 42.9665C145.388 43.0306 145.352 43.1068 145.337 43.1881C145.3 43.4152 145.202 43.6282 145.055 43.8058C144.907 43.9834 144.713 44.1192 144.494 44.1995C144.275 44.2799 144.038 44.302 143.807 44.2635C143.576 44.225 143.359 44.1274 143.177 43.9804C142.996 43.8341 142.856 43.6436 142.773 43.4281C142.69 43.2127 142.666 42.9798 142.704 42.7531C142.717 42.6949 142.719 42.6345 142.707 42.5757C142.696 42.5169 142.673 42.4609 142.639 42.4111C142.605 42.3613 142.561 42.3189 142.51 42.2863C142.458 42.2538 142.401 42.2319 142.341 42.222C142.281 42.2121 142.219 42.2143 142.16 42.2286C142.101 42.2429 142.046 42.269 141.998 42.3052C141.95 42.3413 141.909 42.3869 141.88 42.439C141.85 42.4911 141.832 42.5487 141.826 42.6081C141.789 42.8352 141.692 43.0484 141.544 43.2261C141.396 43.4038 141.203 43.5398 140.984 43.6202C140.765 43.7007 140.528 43.7228 140.297 43.6844C140.065 43.6459 139.848 43.5482 139.667 43.4012C139.495 43.2604 139.362 43.08 139.28 42.8763C139.197 42.6726 139.168 42.4522 139.194 42.2351L142.262 36.9358ZM142.059 43.9406C142.197 44.2076 142.374 44.4571 142.617 44.653C142.92 44.8969 143.282 45.0587 143.667 45.1224C144.052 45.186 144.446 45.1491 144.811 45.0155C145.105 44.9083 145.353 44.729 145.569 44.5207C145.707 44.7876 145.884 45.0371 146.128 45.233C146.43 45.4769 146.792 45.6388 147.177 45.7024C147.562 45.766 147.957 45.7292 148.322 45.5955C148.615 45.4884 148.863 45.309 149.08 45.1007C149.218 45.3676 149.395 45.6171 149.638 45.813C149.941 46.0569 150.302 46.2188 150.688 46.2824C151.073 46.3461 151.467 46.3092 151.832 46.1755C152.126 46.0684 152.374 45.8891 152.59 45.6807C152.728 45.9476 152.905 46.1971 153.149 46.3931C153.451 46.6369 153.813 46.7988 154.198 46.8624C154.583 46.9261 154.978 46.8892 155.343 46.7556C155.636 46.6484 155.884 46.4691 156.101 46.2607C156.239 46.5277 156.416 46.7772 156.659 46.9731C156.961 47.217 157.323 47.3788 157.708 47.4425C158.094 47.5061 158.488 47.4692 158.853 47.3356C159.147 47.2284 159.394 47.0491 159.611 46.8408C159.707 47.0264 159.829 47.1961 159.978 47.3507L158.052 59.005L145.765 56.9749L146.691 51.3729C146.705 51.2594 146.675 51.1445 146.607 51.0512C146.539 50.9579 146.438 50.8932 146.323 50.8699L142.813 50.2899C142.697 50.2751 142.58 50.3038 142.486 50.3702C142.391 50.4366 142.326 50.5358 142.303 50.6479L141.377 56.2499L139.622 55.9599L141.548 44.3055C141.738 44.207 141.909 44.0857 142.059 43.9406ZM151.137 49.0169C151.022 49.0022 150.905 49.0309 150.81 49.0973C150.716 49.1637 150.65 49.2629 150.627 49.375L149.774 54.5413C149.736 54.7669 149.911 55.0063 150.141 55.0443L156.285 56.0594C156.4 56.0741 156.517 56.0454 156.612 55.979C156.706 55.9126 156.772 55.8134 156.795 55.7013L157.648 50.535C157.663 50.4215 157.633 50.3066 157.564 50.2133C157.496 50.12 157.395 50.0552 157.281 50.032L151.137 49.0169ZM151.434 49.9505L156.7 50.8205L155.988 55.1258L150.722 54.2558L151.434 49.9505Z" stroke="#909DA1" stroke-width="2" mask="url(#path-6-outside-1_1269_29939)"/>
<path d="M95.1908 149.105C86.4482 151.122 77.4177 151.55 68.5252 150.37C67.6532 150.253 66.7821 150.122 65.9121 149.976C65.042 149.831 64.1631 149.666 63.2752 149.481C62.6978 149.366 62.1204 149.241 61.543 149.105L61.5964 148.315L61.7565 146.03L61.8485 144.705L62.068 141.513L62.2904 138.318L62.4387 136.173L62.5396 134.711L62.7709 131.361L63.0142 127.864L63.2574 124.35L63.5065 120.74L63.7379 117.387L63.9811 113.891L64.1977 110.752L64.4468 107.142L64.6811 103.786L64.9214 100.29L65.1735 96.671L65.396 93.452L65.6125 90.2957L65.7905 87.727L66.0159 84.4872L66.2206 81.5307L66.4282 78.5117L66.6773 74.9317L66.9265 71.3219L67.1579 67.9687L67.3981 64.4723L67.4723 63.4072H89.2555L94.298 136.179L95.0484 147.014L95.1908 149.105Z" fill="#C8C8C8"/>
<path d="M95.1908 149.105C86.4482 151.122 77.4177 151.55 68.5252 150.37C67.6532 150.253 66.7821 150.122 65.9121 149.977C65.042 149.831 64.1631 149.666 63.2752 149.481C62.6978 149.366 62.1204 149.241 61.543 149.105L61.5964 148.315L61.7565 146.03L61.8485 144.705L62.068 141.513L62.2904 138.318L62.4387 136.173C62.9707 136.288 63.5026 136.398 64.0345 136.501C64.8443 136.659 65.657 136.799 66.4697 136.934C67.2824 137.068 68.1337 137.19 68.9672 137.292C77.409 138.361 85.97 137.982 94.2861 136.173L95.0365 147.008L95.1908 149.105Z" fill="#EEEEEE"/>
<path d="M68.4218 63.4014C68.3345 63.6407 68.1958 63.8577 68.0154 64.0368C67.8446 64.225 67.6337 64.3719 67.3985 64.4664C67.4898 64.2292 67.6273 64.0128 67.8031 63.8298C67.9788 63.6469 68.1892 63.5012 68.4218 63.4014ZM71.4057 63.5446C70.1329 65.1527 68.7096 66.6343 67.1552 67.9688C67.7846 67.1602 68.4579 66.3874 69.1722 65.6538C69.8782 64.9105 70.6238 64.2064 71.4057 63.5446ZM71.4057 66.6532C70.0567 68.3429 68.5565 69.9048 66.9239 71.319C67.5918 70.4695 68.3036 69.6559 69.0565 68.8817C69.801 68.0987 70.5851 67.3549 71.4057 66.6532ZM71.4057 70.0004C70.6998 70.8954 69.9227 71.7427 69.1455 72.569C68.3684 73.3954 67.5468 74.189 66.6747 74.9288C67.3777 74.0338 68.1578 73.1866 68.932 72.3602C69.7061 71.5338 70.5337 70.7403 71.4057 70.0004ZM71.4057 84.2606C70.9667 84.8065 70.5159 85.3286 70.0383 85.8477C69.5608 86.3668 69.0951 86.8769 68.6146 87.3811C68.1341 87.8853 67.6417 88.3835 67.1315 88.8727L66.4019 89.5917C66.1408 89.8274 65.8887 90.069 65.6247 90.2958C65.8413 90.0213 66.0726 89.7588 66.2951 89.4903L66.9921 88.7087C67.4548 88.1866 67.9353 87.6794 68.4159 87.1752C68.8964 86.6711 69.3858 86.1729 69.8989 85.6836C70.4121 85.1943 70.8777 84.726 71.4057 84.2606ZM71.4057 87.1902C70.9489 87.754 70.4684 88.297 69.9849 88.834C69.5015 89.3709 69.0032 89.899 68.5019 90.4241C68.0006 90.9491 67.4964 91.4622 66.9743 91.9664L66.1942 92.7212C65.9243 92.9628 65.6633 93.2134 65.3904 93.4521C65.6158 93.1687 65.8561 92.8972 66.0874 92.6198L66.8112 91.8083C67.2917 91.2653 67.79 90.7403 68.2942 90.2182C68.7985 89.6961 69.3027 89.18 69.8218 88.6758C70.3409 88.1717 70.851 87.6705 71.4057 87.1902ZM71.4057 90.1764C70.9282 90.7731 70.4299 91.322 69.9226 91.8799C69.4154 92.4378 68.9053 92.9837 68.3892 93.5267C67.8731 94.0696 67.3451 94.6036 66.8052 95.1257L65.9955 95.9103C65.7196 96.1639 65.4468 96.4235 65.165 96.6711C65.3993 96.3727 65.6485 96.0953 65.8917 95.8089L66.6421 94.9676C67.1404 94.4067 67.6565 93.8638 68.1756 93.3208C68.6947 92.7779 69.2197 92.2439 69.7595 91.7218C70.2994 91.1997 70.851 90.6746 71.4057 90.1764ZM71.4057 93.5356C70.9074 94.1323 70.3883 94.7289 69.8663 95.3047C69.3443 95.8805 68.8074 96.4503 68.2675 97.0171C67.7277 97.584 67.1819 98.1359 66.6213 98.6818L65.7819 99.4963C65.4853 99.7618 65.2124 100.033 64.9188 100.29C65.165 99.9915 65.423 99.6932 65.6752 99.3948L66.4582 98.5207C66.9802 97.939 67.5171 97.3751 68.054 96.8083C68.5909 96.2415 69.1426 95.6896 69.7002 95.1436C70.2578 94.5977 70.8214 94.0547 71.4057 93.5356ZM71.4057 96.7815C70.8896 97.4079 70.3498 98.0106 69.804 98.6132C69.2582 99.2158 68.7065 99.8065 68.1489 100.388C67.5913 100.97 67.0218 101.549 66.4404 102.116L65.5713 102.963C65.2747 103.237 64.9781 103.518 64.6815 103.786C64.9366 103.47 65.2065 103.169 65.4705 102.858L66.2802 101.963C66.823 101.367 67.3807 100.77 67.9383 100.188C68.4959 99.6066 69.0654 99.0279 69.6438 98.4611C70.2222 97.8942 70.8006 97.3214 71.4057 96.7815ZM71.4057 99.893C70.8688 100.54 70.3082 101.164 69.7476 101.784C69.187 102.405 68.6087 103.014 68.0303 103.622C67.4519 104.231 66.8646 104.815 66.2506 105.412L65.3607 106.289C65.0641 106.588 64.7675 106.868 64.4383 107.145C64.7023 106.82 64.984 106.507 65.254 106.188L66.1052 105.251C66.6658 104.628 67.2442 104.022 67.8197 103.413C68.3951 102.805 68.9854 102.22 69.5845 101.623C70.1837 101.027 70.7799 100.454 71.4057 99.893ZM71.4057 103.243C70.8481 103.912 70.2667 104.559 69.6854 105.2C69.104 105.842 68.4989 106.474 67.9057 107.101C67.3125 107.727 66.6985 108.348 66.0785 108.953L65.1472 109.863C64.8298 110.162 64.5184 110.46 64.195 110.758C64.4709 110.421 64.7616 110.099 65.0434 109.768L65.9154 108.801C66.5086 108.157 67.1019 107.527 67.6951 106.901C68.2883 106.274 68.9023 105.654 69.5222 105.048C70.1421 104.443 70.7591 103.819 71.4057 103.243ZM71.4057 106.155C70.8303 106.841 70.2193 107.506 69.626 108.169C69.0328 108.831 68.4099 109.478 67.7959 110.126C67.1819 110.773 66.5531 111.412 65.9124 112.035L64.9544 112.975C64.6281 113.273 64.3078 113.592 63.9756 113.891C64.2722 113.545 64.5688 113.213 64.8506 112.873L65.7404 111.877C66.3336 111.215 66.9565 110.567 67.5735 109.92C68.1904 109.273 68.8163 108.634 69.454 108.011C70.0917 107.387 70.7413 106.758 71.4057 106.155ZM71.4057 109.398C70.8125 110.105 70.1926 110.791 69.5697 111.486C68.9468 112.181 68.312 112.841 67.6773 113.509C67.0425 114.177 66.393 114.833 65.7345 115.481L64.7467 116.45C64.4086 116.767 64.0794 117.089 63.7353 117.399C64.0319 117.044 64.3285 116.701 64.64 116.349L65.5713 115.323C66.1913 114.636 66.826 113.968 67.4637 113.3C68.1014 112.632 68.7481 111.975 69.4065 111.328C70.065 110.681 70.7205 110.021 71.4057 109.398ZM71.4057 112.512C70.7917 113.24 70.154 113.947 69.5104 114.648C68.8667 115.349 68.2171 116.042 67.5616 116.737C66.9061 117.432 66.2387 118.103 65.5595 118.768L64.5421 119.768C64.195 120.093 63.8569 120.427 63.5039 120.746C63.8006 120.379 64.1268 120.027 64.4383 119.666L65.3963 118.61C66.037 117.906 66.6925 117.217 67.348 116.522C68.0036 115.827 68.6709 115.156 69.3472 114.49C70.0235 113.825 70.7027 113.157 71.4057 112.512ZM71.4057 115.86C70.771 116.608 70.1125 117.336 69.4481 118.061C68.7837 118.786 68.1133 119.499 67.437 120.209C66.7608 120.919 66.0726 121.617 65.3607 122.298L64.3256 123.339C63.9667 123.676 63.6167 124.019 63.2548 124.35C63.5692 123.974 63.8984 123.61 64.2217 123.237L65.2095 122.148C65.8709 121.42 66.5472 120.71 67.2235 120C67.8998 119.29 68.5879 118.592 69.2849 117.912C69.982 117.232 70.682 116.525 71.4057 115.86ZM71.4057 119.123C70.7502 119.893 70.071 120.642 69.3887 121.388C68.7065 122.133 68.0125 122.879 67.3125 123.598C66.6124 124.317 65.9065 125.048 65.1887 125.758L64.109 126.823C63.7412 127.169 63.3823 127.524 63.0086 127.864C63.3349 127.477 63.673 127.104 64.0052 126.722L65.0256 125.6C65.7048 124.851 66.4019 124.108 67.1019 123.389C67.8019 122.67 68.5048 121.94 69.2256 121.23C69.9464 120.52 70.6612 119.81 71.4057 119.123ZM71.4057 134.75C70.6523 135.621 69.8752 136.471 69.0951 137.318C68.315 138.166 67.5201 138.992 66.7222 139.83C65.9243 140.669 65.1205 141.483 64.3078 142.295L63.0827 143.512C62.6675 143.909 62.2582 144.314 61.837 144.705C62.2107 144.267 62.5993 143.843 62.9789 143.41L64.1446 142.136C64.9247 141.289 65.7226 140.463 66.5175 139.625C67.3125 138.786 68.1192 137.972 68.932 137.16C69.7447 136.349 70.5544 135.537 71.4057 134.75ZM61.5938 148.315C61.9793 147.867 62.3768 147.42 62.7802 146.987L63.9667 145.681C64.7675 144.812 65.5862 143.962 66.3959 143.103C67.2057 142.244 68.0392 141.409 68.8726 140.573L70.1303 139.323C70.5544 138.915 70.9756 138.5 71.4087 138.097C71.0231 138.548 70.6256 138.992 70.2222 139.425L69.0358 140.731C68.2379 141.6 67.4192 142.45 66.6095 143.309C65.7997 144.168 64.9662 145.006 64.1328 145.842C63.2993 146.677 62.4539 147.506 61.5938 148.315ZM63.2726 149.481C63.4594 149.258 63.6522 149.037 63.845 148.819C64.0378 148.601 64.2247 148.378 64.4383 148.163L65.6247 146.868C65.6358 146.856 65.6491 146.847 65.6638 146.84C65.6786 146.833 65.6946 146.83 65.7107 146.829L65.6188 146.868C66.5502 145.86 67.5053 144.869 68.4663 143.885C68.9468 143.392 69.4392 142.912 69.9286 142.429C70.418 141.946 70.9163 141.474 71.4116 141.006C70.9638 141.528 70.5218 142.047 70.0472 142.554C69.5726 143.061 69.1248 143.574 68.6531 144.073C67.7129 145.075 66.7637 146.068 65.7938 147.041C65.7694 147.063 65.7378 147.076 65.7048 147.077L65.7968 147.038L64.551 148.267C64.3463 148.473 64.1328 148.67 63.9222 148.864C63.7116 149.058 63.4861 149.284 63.2726 149.481ZM65.9095 149.977C66.3218 149.457 66.7608 148.959 67.2027 148.467C67.6447 147.975 68.0925 147.492 68.5493 147.011C69.0061 146.531 69.4718 146.062 69.9493 145.606L70.6672 144.92C70.9133 144.699 71.1506 144.469 71.4057 144.255C71.2011 144.517 70.9816 144.765 70.771 145.021L70.1125 145.764C69.6735 146.259 69.2226 146.74 68.7629 147.22C68.3031 147.7 67.8434 148.169 67.3658 148.625C66.8883 149.082 66.4019 149.544 65.9095 149.977ZM68.5226 150.358C68.9234 149.788 69.3698 149.251 69.8574 148.753C70.3342 148.245 70.852 147.777 71.4057 147.354C70.5914 148.488 69.6207 149.5 68.5226 150.358ZM71.4057 122.366C70.7294 123.16 70.0294 123.929 69.3294 124.693C68.6294 125.457 67.9116 126.215 67.1968 126.966C66.4819 127.718 65.7523 128.458 65.0107 129.192L63.9014 130.287C63.5247 130.645 63.1539 131.009 62.7713 131.361C63.1065 130.961 63.4565 130.576 63.7976 130.185L64.8476 129.034C65.5476 128.264 66.2654 127.512 66.9832 126.761C67.701 126.009 68.4277 125.269 69.1663 124.535C69.9049 123.801 70.6405 123.073 71.4057 122.366ZM71.4057 125.478C70.7087 126.289 69.9909 127.08 69.2701 127.864C68.5493 128.649 67.8137 129.425 67.0781 130.197C66.3425 130.97 65.5951 131.731 64.8357 132.483L63.6967 133.607C63.3111 133.974 62.9285 134.35 62.537 134.711C62.8811 134.302 63.24 133.909 63.5929 133.518L64.6726 132.324C65.3904 131.534 66.126 130.761 66.8646 129.992C67.6031 129.222 68.3476 128.458 69.107 127.706C69.8663 126.955 70.6227 126.194 71.4057 125.478ZM62.2878 138.318C63.0027 137.483 63.7412 136.671 64.4857 135.866C65.2302 135.06 65.9688 134.261 66.74 133.479C67.5112 132.697 68.2646 131.904 69.0447 131.131L70.2133 129.974C70.6108 129.595 71.0023 129.21 71.3998 128.837C71.0439 129.255 70.6731 129.66 70.3112 130.075L69.2078 131.265C68.4663 132.077 67.7099 132.87 66.9536 133.652C66.1972 134.434 65.426 135.227 64.6489 136C63.8717 136.773 63.0917 137.569 62.2878 138.318ZM62.0654 141.513C62.798 140.66 63.5484 139.83 64.3167 139.004C65.0849 138.178 65.859 137.369 66.6273 136.552C67.3955 135.734 68.1934 134.941 69.0002 134.147L70.1866 132.954C70.596 132.566 70.9934 132.172 71.4087 131.79C71.0439 132.22 70.6642 132.635 70.2934 133.055L69.1544 134.299C68.3921 135.123 67.612 135.931 66.8438 136.749C66.0756 137.566 65.2807 138.363 64.4709 139.153C63.6611 139.944 62.887 140.746 62.0654 141.513ZM71.4057 82.1066C70.9786 82.6198 70.5159 83.106 70.0799 83.5983C69.6438 84.0905 69.1663 84.5589 68.7006 85.0273C68.2349 85.4957 67.7603 85.961 67.2709 86.4085L66.5413 87.0828C66.2891 87.2976 66.0459 87.5243 65.7879 87.7331C65.9985 87.4736 66.2209 87.2319 66.4374 86.9783L67.1108 86.2474C67.5616 85.7582 68.0243 85.2868 68.493 84.8184C68.9616 84.3501 69.4332 83.8847 69.9197 83.4372C70.4061 82.9897 70.8926 82.5303 71.4057 82.1066ZM71.4057 79.0219C70.9994 79.5201 70.5693 79.9974 70.1362 80.4688C69.7032 80.9402 69.2464 81.4026 68.8133 81.859C68.3803 82.3155 67.9235 82.754 67.443 83.2015L66.737 83.8548C66.4968 84.0666 66.2624 84.2844 66.0133 84.4873C66.212 84.2367 66.4285 83.998 66.6362 83.7534L67.2798 83.0404C67.7099 82.5661 68.1697 82.1066 68.6027 81.6502C69.0358 81.1937 69.5074 80.7552 69.976 80.3077C70.4447 79.8602 70.9133 79.4336 71.4057 79.0219ZM71.4057 76.2832C70.6227 77.2409 69.7773 78.1329 68.9171 79.013C68.057 79.893 67.1641 80.7403 66.218 81.5309C66.998 80.5732 67.8434 79.6782 68.7065 78.8011C69.5697 77.9241 70.4566 77.0738 71.4057 76.2832ZM71.4057 73.4521C70.6583 74.3769 69.8455 75.2421 69.0328 76.0863C68.2201 76.9306 67.351 77.751 66.4374 78.5118C67.1819 77.5869 67.9947 76.7218 68.8103 75.8775C69.626 75.0332 70.4921 74.2128 71.4057 73.4521Z" fill="#7F7F7F"/>
<path d="M67.4609 48.5088H89.2561V63.4014H67.4609V48.5088Z" fill="#EEEEEE"/>
<path d="M70.2188 36.4443H86.5028V48.5088H70.2188V36.4443Z" fill="#C8C8C8"/>
<path d="M73.125 24.2539H83.5895V36.4436H73.125V24.2539Z" fill="#EEEEEE"/>
<path d="M85.3105 26.6442H71.4023C71.4033 24.3294 72.0176 22.0567 73.182 20.06L78.3609 11.1758L83.5368 20.06C84.7012 22.0567 85.3155 24.3294 85.3165 26.6442H85.3105Z" fill="#C8C8C8"/>
<path d="M89.5088 67.0616C88.9354 66.2233 88.1021 65.5996 87.1391 65.2879C86.176 64.9762 85.1375 64.9939 84.1855 65.3384C83.2336 65.6829 82.4219 66.3347 81.8771 67.1921C81.3322 68.0494 81.085 69.0641 81.174 70.0777L82.1944 81.5365L90.461 80.7907L89.5088 67.0616ZM91.1966 91.4471C90.7231 90.971 90.1515 90.6053 89.5221 90.3759C88.8927 90.1465 88.2209 90.059 87.5541 90.1195C86.955 90.1735 86.3724 90.3457 85.8394 90.6262C85.3065 90.9067 84.8337 91.29 84.4481 91.7543C84.0625 92.2186 83.7716 92.7548 83.592 93.3322C83.4125 93.9096 83.3477 94.5169 83.4016 95.1195L84.4219 106.575L92.208 105.877L91.1966 91.4471ZM92.9733 117.094C92.3647 116.884 91.7189 116.805 91.0779 116.862C90.4788 116.916 89.8962 117.088 89.3632 117.368C88.8303 117.649 88.3575 118.032 87.9719 118.497C87.5863 118.961 87.2954 119.497 87.1158 120.074C86.9362 120.652 86.8715 121.259 86.9253 121.862L87.9457 133.318L94.0559 132.769L92.9733 117.094Z" fill="#EEEEEE"/>
<path d="M83.5898 30.3486H86.3754V33.1504H83.5898V30.3486Z" fill="#7F7F7F"/>
<path d="M28.4155 44.714C31.536 42.7426 34.4576 40.4695 37.1389 37.927C37.8092 37.2945 38.4558 36.6352 39.0995 35.9759C39.3961 35.6358 39.7402 35.3077 40.0368 34.9616C40.3334 34.6155 40.63 34.2546 40.9058 33.8906C42.0241 32.4258 43.083 30.9073 44.1449 29.3918L47.3305 24.8452C47.8644 24.0905 48.3953 23.3297 48.95 22.5869C49.4935 21.8318 50.1094 21.1324 50.789 20.4986C52.204 19.2611 53.945 18.4622 55.8018 18.1985C57.6378 17.9404 59.5061 18.0417 61.3039 18.4968C59.5049 18.0924 57.6462 18.0337 55.8255 18.3238C54.009 18.6067 52.3125 19.4117 50.9403 20.6418C50.2871 21.2838 49.6915 21.9826 49.1606 22.7301C48.6148 23.4729 48.0898 24.2217 47.5589 24.9944L44.3851 29.5618C43.3173 31.0744 42.2525 32.5869 41.1224 34.0577C40.8258 34.4216 40.5499 34.7856 40.2325 35.1376C39.9152 35.4896 39.5978 35.8148 39.2804 36.1549C38.6338 36.8172 37.9753 37.4705 37.2901 38.0941C35.9331 39.3525 34.5113 40.5385 33.0308 41.6472C31.5479 42.7515 30.0072 43.7753 28.4155 44.714ZM49.1309 33.1149C49.426 31.8587 49.8702 30.6428 50.4538 29.4932C51.0466 28.3404 51.8052 27.2819 52.7051 26.3518C53.6087 25.4179 54.6627 24.6443 55.8225 24.0636C56.9804 23.5122 58.1688 23.0281 59.3819 22.6137C60.5858 22.1925 61.7652 21.7034 62.9145 21.1489C64.0591 20.5862 65.1694 19.9557 66.2396 19.2605C67.3146 18.5701 68.3486 17.817 69.3362 17.0051C70.3328 16.1997 71.2761 15.3315 72.1956 14.4365C70.4522 16.3271 68.4986 18.0097 66.3731 19.4514C64.2332 20.8853 61.9222 22.042 59.4946 22.8942C58.2826 23.2966 57.0943 23.7678 55.9352 24.3053C54.7982 24.8709 53.7587 25.6162 52.8564 26.5129C51.0441 28.2999 49.8398 30.6507 49.1309 33.1149ZM27.3477 89.8214C30.2201 88.8964 32.9832 87.6579 35.5876 86.1281C36.8867 85.3644 38.1355 84.5201 39.3575 83.6311C40.5796 82.742 41.7957 81.8411 42.9347 80.8685C43.5045 80.3788 44.0453 79.8558 44.5542 79.3023C45.0653 78.7607 45.5103 78.1598 45.88 77.5123C46.2453 76.8758 46.449 76.1586 46.4733 75.424C46.4581 74.6839 46.2427 73.962 45.8504 73.3357C45.0851 72.0857 43.8156 71.0803 42.3652 70.8685C41.6414 70.7715 40.9056 70.9029 40.2592 71.2444C39.6103 71.5885 39.056 72.0886 38.6457 72.7003C38.2379 73.3025 37.9907 74 37.9278 74.7259C37.9026 75.0911 37.9236 75.458 37.9901 75.8178C38.0649 76.1787 38.1773 76.5307 38.3253 76.8679C38.624 77.5453 39.0589 78.1531 39.6026 78.6532C40.1462 79.1532 40.7869 79.5347 41.4842 79.7737C42.8961 80.2271 44.4504 80.072 45.8771 79.708C47.3261 79.3186 48.7292 78.7735 50.0623 78.0821C51.4003 77.4045 52.6897 76.6339 53.9212 75.776C55.1545 74.9109 56.3009 73.9267 57.3442 72.8375C59.437 70.6463 61.1379 68.108 62.3717 65.3345C61.1769 68.1322 59.5112 70.7017 57.448 72.93C56.4075 74.0343 55.2621 75.0335 54.028 75.9133C52.7915 76.7908 51.4962 77.5813 50.1513 78.279C48.8124 78.9924 47.3987 79.5537 45.9364 79.9527C45.1976 80.1453 44.4414 80.2622 43.6792 80.3017C42.9088 80.3449 42.1368 80.252 41.3982 80.0272C40.6639 79.777 39.9888 79.3771 39.4151 78.8525C38.8414 78.3279 38.3816 77.6898 38.0643 76.9783C37.9058 76.6212 37.7854 76.2482 37.7054 75.8655C37.6322 75.4824 37.6073 75.0915 37.6312 74.7021C37.7015 73.9172 37.9746 73.1644 38.4232 72.5183C38.862 71.8673 39.454 71.3354 40.1465 70.97C40.8466 70.6033 41.6426 70.4646 42.4245 70.5732C43.1941 70.6939 43.923 71.001 44.5483 71.4682C45.1714 71.9315 45.6993 72.512 46.1025 73.1776C46.517 73.8451 46.7436 74.6133 46.758 75.4002C46.729 76.1831 46.5079 76.9466 46.1144 77.6227C45.355 78.9741 44.2368 80.0451 43.0919 81.0356C41.947 82.026 40.719 82.9061 39.4732 83.7772C38.2475 84.6655 36.9773 85.4899 35.6677 86.2474C33.0331 87.7421 30.2429 88.9406 27.3477 89.8214Z" fill="#EEEEEE"/>
<path d="M99.5268 7.43457C99.6899 8.21619 99.7967 9.0008 99.8827 9.78541C99.9687 10.57 100.028 11.3606 100.076 12.1482C100.123 12.9358 100.141 13.7263 100.138 14.5169C100.142 15.3138 100.107 16.1103 100.031 16.9035C99.8679 16.1189 99.7611 15.3343 99.6751 14.5497C99.5891 13.7651 99.5298 12.9745 99.4823 12.187C99.4348 11.3994 99.417 10.6088 99.423 9.81822C99.4175 9.02242 99.4521 8.22684 99.5268 7.43457Z" fill="#7D7D7D"/>
<path d="M104.484 11.9094C103.71 12.0695 102.929 12.1899 102.144 12.2704C101.364 12.3599 100.58 12.4136 99.7944 12.4613C99.0084 12.5091 98.2253 12.5299 97.4393 12.524C96.6471 12.5295 95.8551 12.4947 95.0664 12.4196C95.8399 12.2595 96.621 12.139 97.4067 12.0586C98.1868 11.9691 98.9698 11.9154 99.7559 11.8677C100.542 11.8199 101.325 11.802 102.111 11.805C102.897 11.808 103.692 11.8289 104.484 11.9094ZM105.736 13.234C105.879 13.7514 105.984 14.279 106.05 14.8122C106.121 15.3432 106.175 15.8712 106.201 16.4023C106.228 16.9333 106.237 17.4643 106.222 17.9983C106.213 18.5362 106.165 19.0727 106.077 19.6033C105.932 19.086 105.826 18.5584 105.759 18.0252C105.688 17.4941 105.638 16.9661 105.608 16.4351C105.578 15.9041 105.575 15.373 105.59 14.839C105.599 14.3011 105.648 13.7646 105.736 13.234Z" fill="#7D7D7D"/>
<path d="M109.076 16.2471C108.56 16.3917 108.035 16.4974 107.504 16.5633C106.979 16.6379 106.454 16.6886 105.926 16.7155C105.398 16.7423 104.867 16.7513 104.339 16.7364C103.803 16.7274 103.269 16.6785 102.74 16.5902C103.256 16.4464 103.781 16.3397 104.312 16.271C104.837 16.1994 105.365 16.1487 105.893 16.1218C106.421 16.095 106.949 16.086 107.48 16.1009C108.015 16.1098 108.548 16.1586 109.076 16.2471ZM28.2191 92.2525C28.3783 93.0305 28.498 93.8161 28.578 94.6063C28.667 95.3909 28.7204 96.1815 28.7708 96.9691C28.8213 97.7567 28.8361 98.5473 28.8302 99.3378C28.8373 100.135 28.8026 100.931 28.7263 101.724C28.5668 100.947 28.4479 100.161 28.3704 99.3707C28.2814 98.586 28.2251 97.7985 28.1776 97.0109C28.1302 96.2233 28.1124 95.4327 28.1183 94.6392C28.1117 93.8424 28.1454 93.0458 28.2191 92.2525Z" fill="#7D7D7D"/>
<path d="M33.1831 96.7305C32.406 96.8946 31.6259 97.002 30.8428 97.0885C30.0598 97.175 29.2767 97.2347 28.4936 97.2824C27.7106 97.3302 26.9246 97.3481 26.1385 97.3451C25.3525 97.3421 24.5635 97.3212 23.7656 97.2407C24.5391 97.0806 25.3202 96.9601 26.1059 96.8797C26.886 96.7902 27.6691 96.7335 28.4521 96.6858C29.2352 96.638 30.0212 96.6201 30.8102 96.6261C31.6024 96.6205 32.3944 96.6554 33.1831 96.7305ZM34.4289 98.0521C34.5709 98.571 34.6759 99.0994 34.7433 99.6333C34.8145 100.161 34.8649 100.692 34.8946 101.223C34.9242 101.754 34.9301 102.285 34.9153 102.819C34.9065 103.357 34.8579 103.894 34.77 104.424C34.6241 103.906 34.518 103.378 34.4526 102.843C34.3814 102.315 34.328 101.784 34.3013 101.253C34.2746 100.722 34.2687 100.191 34.2835 99.6571C34.2925 99.1192 34.341 98.5828 34.4289 98.0521Z" fill="#7D7D7D"/>
<path d="M37.7653 101.068C37.2495 101.211 36.7241 101.317 36.1933 101.384C35.6683 101.456 35.1403 101.507 34.6123 101.537C34.0844 101.566 33.5564 101.572 33.0255 101.557C32.4907 101.548 31.9573 101.5 31.4297 101.411C31.9448 101.265 32.4704 101.158 33.0017 101.092C33.5267 101.02 34.0547 100.967 34.5827 100.94C35.1107 100.913 35.6386 100.907 36.1696 100.922C36.7044 100.931 37.2378 100.98 37.7653 101.068ZM156.912 86.459C157.075 87.2406 157.182 88.0282 157.268 88.8128C157.354 89.5974 157.413 90.388 157.461 91.1756C157.508 91.9632 157.526 92.7537 157.523 93.5443C157.528 94.3412 157.492 95.1377 157.416 95.9309C157.253 95.1493 157.146 94.3647 157.06 93.5771C156.974 92.7895 156.915 92.0049 156.867 91.2173C156.82 90.4298 156.802 89.6392 156.808 88.8307C156.803 88.0389 156.838 87.2473 156.912 86.459Z" fill="#7D7D7D"/>
<path d="M161.867 90.9366C161.09 91.1007 160.309 91.2081 159.526 91.2946C158.743 91.3811 157.963 91.4408 157.177 91.4885C156.391 91.5362 155.608 91.5571 154.822 91.5511C154.03 91.5567 153.238 91.5218 152.449 91.4467C153.223 91.2867 154.004 91.1662 154.789 91.0857C155.57 90.9962 156.353 90.9396 157.139 90.8918C157.925 90.8441 158.708 90.8262 159.494 90.8322C160.286 90.8266 161.078 90.8615 161.867 90.9366ZM163.118 92.2582C163.262 92.7767 163.367 93.3052 163.433 93.8393C163.504 94.3674 163.557 94.8984 163.584 95.4294C163.611 95.9604 163.62 96.4915 163.605 97.0255C163.596 97.5634 163.547 98.0999 163.46 98.6305C163.315 98.112 163.209 97.5835 163.142 97.0493C163.071 96.5213 163.021 95.9933 162.991 95.4622C162.961 94.9312 162.958 94.3972 162.973 93.8632C162.982 93.3253 163.031 92.7888 163.118 92.2582Z" fill="#7D7D7D"/>
<path d="M166.457 95.2743C165.941 95.4189 165.416 95.5246 164.885 95.5905C164.36 95.6621 163.835 95.7158 163.307 95.7427C162.779 95.7695 162.248 95.7785 161.72 95.7636C161.184 95.7546 160.65 95.7057 160.121 95.6174C160.637 95.4721 161.162 95.3654 161.693 95.2982C162.218 95.2266 162.746 95.1729 163.274 95.146C163.802 95.1192 164.33 95.1132 164.861 95.1281C165.396 95.137 165.929 95.1858 166.457 95.2743Z" fill="#7D7D7D"/>
<path d="M66.8265 128.926H89.387C95.213 128.926 100.8 131.254 104.92 135.397C109.04 139.541 111.354 145.16 111.354 151.02H44.8594C44.8594 145.16 47.1738 139.541 51.2934 135.397C55.4131 131.254 61.0005 128.926 66.8265 128.926Z" fill="#A3A3A3"/>
<path d="M53.6496 144.433C53.6578 144.6 53.6323 144.766 53.5746 144.922C53.5169 145.078 53.4284 145.221 53.3142 145.341C53.2001 145.462 53.0628 145.558 52.9106 145.624C52.7585 145.689 52.5946 145.723 52.4291 145.723C52.2635 145.723 52.0997 145.689 51.9476 145.624C51.7954 145.558 51.6581 145.462 51.5439 145.341C51.4298 145.221 51.3412 145.078 51.2835 144.922C51.2259 144.766 51.2004 144.6 51.2085 144.433C51.2085 143.756 52.0509 143.801 52.7272 143.801C53.4035 143.801 53.6496 143.756 53.6496 144.433ZM65.3777 137.336C65.3777 138.622 64.0459 139.067 62.7705 139.067C62.1569 139.067 61.5684 138.821 61.1346 138.385C60.7007 137.949 60.4569 137.357 60.4569 136.74C60.4569 136.122 60.7007 135.531 61.1346 135.094C61.5684 134.658 62.1569 134.413 62.7705 134.413C64.0459 134.413 65.3777 136.053 65.3777 137.336ZM85.589 137.614C85.589 138.231 85.3452 138.823 84.9113 139.259C84.4774 139.695 83.889 139.941 83.2754 139.941C81.9999 139.941 81.2584 139.496 81.2584 138.21C81.2584 136.925 81.9999 135.287 83.2754 135.287C83.889 135.287 84.4774 135.532 84.9113 135.968C85.3452 136.405 85.589 136.997 85.589 137.614ZM107.102 145.842C107.102 147.127 105.771 147.572 104.492 147.572C104.188 147.572 103.887 147.512 103.607 147.395C103.326 147.278 103.071 147.106 102.856 146.89C102.641 146.674 102.471 146.418 102.355 146.135C102.238 145.853 102.179 145.551 102.179 145.245C102.179 143.962 103.513 143.518 104.789 143.518C105.402 143.518 105.99 143.762 106.424 144.198C106.857 144.634 107.102 145.225 107.102 145.842ZM73.7333 146.519C73.7333 146.824 73.6735 147.127 73.5572 147.409C73.4409 147.692 73.2705 147.948 73.0557 148.164C72.8409 148.38 72.5858 148.552 72.3051 148.669C72.0244 148.786 71.7236 148.846 71.4197 148.846C70.1413 148.846 68.8095 147.208 68.8095 145.922C68.8095 145.305 69.0533 144.713 69.4872 144.277C69.9211 143.84 70.5095 143.595 71.1231 143.595C72.3986 143.595 73.7333 145.236 73.7333 146.519ZM92.1085 146.307C92.1085 146.948 91.5924 146.826 90.9517 146.826C90.311 146.826 90.0945 146.904 90.0945 146.259C90.0945 145.951 90.216 145.656 90.4323 145.438C90.6486 145.219 90.942 145.097 91.2483 145.096C91.889 145.096 92.1085 145.663 92.1085 146.307ZM97.9577 134.126C97.9577 134.768 97.7353 135.883 97.0975 135.883C96.7913 135.883 96.4975 135.761 96.2806 135.544C96.0638 135.326 95.9415 135.031 95.9408 134.723C95.9408 134.078 96.1632 132.963 96.8009 132.963C97.1077 132.963 97.402 133.085 97.6189 133.303C97.8358 133.522 97.9577 133.818 97.9577 134.126ZM77.0643 132.074C77.0643 132.837 76.1507 132.858 75.3914 132.858C75.0378 132.842 74.7042 132.689 74.4598 132.431C74.2154 132.174 74.079 131.832 74.079 131.476C74.079 131.12 74.2154 130.777 74.4598 130.52C74.7042 130.262 75.0378 130.109 75.3914 130.093C76.1507 130.093 77.0643 131.31 77.0643 132.074Z" fill="#7F7F7F"/>
<path d="M42.6369 145.287C43.4674 143.36 42.8415 142.178 42.8415 140.812C42.8415 137.939 41.8864 134.684 40.172 132.644C39.7129 134.106 39.4681 135.627 39.4453 137.16C39.4542 140.027 40.9343 143.24 42.6369 145.287Z" fill="#C8C8C8"/>
<path d="M46.6108 147.348C49.8347 147.348 52.4481 142.793 52.4481 137.175C52.4481 131.557 49.8347 127.002 46.6108 127.002C43.3869 127.002 40.7734 131.557 40.7734 137.175C40.7734 142.793 43.3869 147.348 46.6108 147.348Z" fill="white"/>
<path d="M32.2937 141.128C32.2937 142.262 31.8369 143.168 32.4628 144.708C35.1323 142.557 37.1581 138.947 37.1581 135.227C37.122 133.916 36.9329 132.615 36.5946 131.349C33.8954 133.476 32.2937 137.408 32.2937 141.128Z" fill="#7D7D7D"/>
<path d="M30.2592 144.812C33.4831 144.812 36.0966 140.257 36.0966 134.639C36.0966 129.02 33.4831 124.466 30.2592 124.466C27.0353 124.466 24.4219 129.02 24.4219 134.639C24.4219 140.257 27.0353 144.812 30.2592 144.812Z" fill="white"/>
<path d="M30.2592 144.812C33.4831 144.812 36.0966 140.257 36.0966 134.639C36.0966 129.02 33.4831 124.466 30.2592 124.466C27.0353 124.466 24.4219 129.02 24.4219 134.639C24.4219 140.257 27.0353 144.812 30.2592 144.812Z" stroke="#C8C8C8" stroke-miterlimit="10"/>
<path d="M30.26 129.556V151.02M30.26 135.531L27.4007 132.241M30.26 138.777L26.7422 134.732M30.26 142.121L26.7422 138.076M30.26 135.537L33.1283 132.241M30.26 138.783L33.7779 134.738M30.26 142.127L33.7779 138.082" stroke="#C8C8C8" stroke-linecap="round" stroke-linejoin="round"/>
<path d="M46.6108 147.348C49.8347 147.348 52.4481 142.793 52.4481 137.175C52.4481 131.557 49.8347 127.002 46.6108 127.002C43.3869 127.002 40.7734 131.557 40.7734 137.175C40.7734 142.793 43.3869 147.348 46.6108 147.348Z" stroke="#7D7D7D" stroke-linecap="round" stroke-linejoin="round"/>
<path d="M46.6116 132.092V151.021M46.6116 138.067L43.7493 134.777M46.6116 141.313L43.0938 137.268M46.6116 144.657L43.0938 140.612M46.6116 138.076L49.4798 134.777M46.6116 141.319L50.1294 137.274M46.6116 144.666L50.1294 140.621" stroke="#7D7D7D" stroke-linecap="round" stroke-linejoin="round"/>
<path d="M18.5 151.021H134.126" stroke="#545454" stroke-linecap="round" stroke-linejoin="round"/>
<defs>
<linearGradient id="paint0_linear_1269_29939" x1="84.8385" y1="31.5921" x2="165.566" y2="35.2403" gradientUnits="userSpaceOnUse">
<stop stop-color="#E4E4E4"/>
<stop offset="1" stop-color="#EBEBEB" stop-opacity="0"/>
</linearGradient>
<linearGradient id="paint1_linear_1269_29939" x1="129.987" y1="24.6572" x2="129.987" y2="34.6572" gradientUnits="userSpaceOnUse">
<stop stop-color="#FDFDFD"/>
<stop offset="1" stop-color="#BEC5C7"/>
</linearGradient>
<linearGradient id="paint2_linear_1269_29939" x1="152.394" y1="35.9562" x2="148.837" y2="57.4825" gradientUnits="userSpaceOnUse">
<stop stop-color="#FDFDFD"/>
<stop offset="1" stop-color="#BEC5C7"/>
</linearGradient>
<clipPath id="clip0_1269_29939">
<rect width="16" height="16" fill="white" transform="translate(121 21.1377) rotate(-14.9867)"/>
</clipPath>
</defs>
</svg>
