<svg viewBox="0 0 352 237" fill="none" xmlns="http://www.w3.org/2000/svg">
    <g clip-path="url(#prefix__prefix__clip0_496_1741)">
        <path
            d="M208.69 47.212L34.016 72.88c-7.868 1.156-13.31 8.472-12.153 16.34L38.01 199.1c1.156 7.869 8.472 13.31 16.34 12.154l174.675-25.669c7.868-1.156 13.309-8.472 12.153-16.341l-16.147-109.88c-1.157-7.868-8.473-13.31-16.341-12.153z"
            fill="#95ADB8" />
        <path
            d="M28.89 203.01a7.564 7.564 0 01-7.44-6.43L2.58 68.15a7.47 7.47 0 011.41-5.58 7.51 7.51 0 014.94-3l193.23-28.38a6.868 6.868 0 011.1-.08 7.563 7.563 0 017.44 6.42l18.87 128.44a7.463 7.463 0 01-1.41 5.58 7.448 7.448 0 01-2.168 1.997 7.452 7.452 0 01-2.772 1.003L29.99 202.93a6.983 6.983 0 01-1.1.08z"
            fill="#fff" />
        <path
            d="M203.26 33.7a4.997 4.997 0 015 4.29l18.86 128.43a5.012 5.012 0 01-.928 3.731 5.006 5.006 0 01-3.302 1.969L29.64 200.46a5.925 5.925 0 01-.73 0 4.997 4.997 0 01-5-4.29L5.05 67.74a5 5 0 014.23-5.7L202.53 33.7a4.49 4.49 0 01.73-.05v.05zm0-5.05c-.489-.001-.976.032-1.46.1L8.57 57.14a10 10 0 00-6.59 3.94 9.92 9.92 0 00-1.87 7.43l18.87 128.44a10.062 10.062 0 0011.37 8.46l193.23-28.39a9.987 9.987 0 006.596-3.931 10 10 0 001.864-7.449L213.17 37.21a10.08 10.08 0 00-9.91-8.56z"
            fill="#40606E" />
        <path
            d="M28.092 66.644l-.01.002a4.84 4.84 0 00-4.084 5.492l6.33 43.078a4.84 4.84 0 005.492 4.084l.01-.001a4.84 4.84 0 004.085-5.492l-6.33-43.078a4.84 4.84 0 00-5.493-4.085z"
            fill="#95ADB8" />
        <path
            d="M30.054 80l-.01.001a4.84 4.84 0 00-4.084 5.493l4.367 29.72a4.84 4.84 0 005.492 4.085l.01-.001a4.84 4.84 0 004.085-5.492l-4.367-29.721A4.84 4.84 0 0030.054 80z"
            fill="#40606E" />
        <path
            d="M42.704 64.494l-.01.002a4.84 4.84 0 00-4.085 5.492l6.33 43.077a4.84 4.84 0 005.493 4.085l.01-.001a4.84 4.84 0 004.085-5.493l-6.33-43.077a4.84 4.84 0 00-5.493-4.085z"
            fill="#95ADB8" />
        <path
            d="M48.206 101.855l-.01.002a4.84 4.84 0 00-4.085 5.492l.84 5.719a4.841 4.841 0 005.493 4.085l.01-.002a4.84 4.84 0 004.085-5.492l-.84-5.719a4.841 4.841 0 00-5.493-4.085z"
            fill="#40606E" />
        <path
            d="M57.414 62.338l-.01.001a4.84 4.84 0 00-4.085 5.493l6.33 43.077a4.84 4.84 0 005.493 4.085l.01-.002a4.84 4.84 0 004.085-5.492l-6.33-43.077a4.84 4.84 0 00-5.493-4.085z"
            fill="#95ADB8" />
        <path
            d="M58.645 70.66l-.01.002a4.84 4.84 0 00-4.085 5.492l5.106 34.747a4.841 4.841 0 005.492 4.085l.01-.002a4.84 4.84 0 004.085-5.492l-5.106-34.747a4.84 4.84 0 00-5.492-4.085z"
            fill="#40606E" />
        <path
            d="M72.134 60.172l-.01.001a4.84 4.84 0 00-4.085 5.492l6.33 43.078a4.84 4.84 0 005.493 4.085l.01-.002a4.84 4.84 0 004.085-5.492l-6.33-43.077a4.84 4.84 0 00-5.493-4.085z"
            fill="#95ADB8" />
        <path
            d="M75.174 80.889l-.01.001a4.84 4.84 0 00-4.084 5.492l3.285 22.36a4.84 4.84 0 005.493 4.085l.01-.001a4.84 4.84 0 004.085-5.493l-3.286-22.36a4.84 4.84 0 00-5.493-4.084z"
            fill="#40606E" />
        <path
            d="M86.843 58.016l-.01.001a4.84 4.84 0 00-4.084 5.492l6.33 43.078a4.841 4.841 0 005.492 4.085l.01-.002a4.84 4.84 0 004.085-5.492L92.336 62.1a4.84 4.84 0 00-5.493-4.084z"
            fill="#95ADB8" />
        <path
            d="M91.802 93.726l-.01.001a4.846 4.846 0 00-4.066 5.518l1.12 7.395a4.847 4.847 0 005.518 4.066l.01-.002a4.846 4.846 0 004.066-5.517l-1.12-7.396a4.846 4.846 0 00-5.518-4.065z"
            fill="#40606E" />
        <path
            d="M101.551 55.84l-.009.001a4.84 4.84 0 00-4.085 5.492l6.33 43.078a4.841 4.841 0 005.492 4.085l.01-.002a4.839 4.839 0 004.085-5.492l-6.33-43.077a4.84 4.84 0 00-5.493-4.085z"
            fill="#95ADB8" />
        <path
            d="M104.255 74.236l-.009.002a4.84 4.84 0 00-4.085 5.492l3.627 24.685a4.841 4.841 0 005.493 4.085l.009-.002a4.839 4.839 0 004.085-5.492l-3.627-24.685a4.84 4.84 0 00-5.493-4.085z"
            fill="#40606E" />
        <path
            d="M116.261 53.684l-.01.001a4.84 4.84 0 00-4.084 5.492l6.33 43.078a4.84 4.84 0 005.492 4.084l.01-.001a4.84 4.84 0 004.085-5.492l-6.33-43.078a4.84 4.84 0 00-5.493-4.084z"
            fill="#95ADB8" />
        <path
            d="M118.223 67.039l-.01.001a4.84 4.84 0 00-4.084 5.493l4.367 29.721a4.84 4.84 0 005.492 4.084l.01-.001a4.84 4.84 0 004.085-5.492l-4.368-29.721a4.84 4.84 0 00-5.492-4.085z"
            fill="#40606E" />
        <path
            d="M129.954 113.138l-.001-.01a1.88 1.88 0 00-2.134-1.587l-94.04 13.819a1.88 1.88 0 00-1.587 2.134l.002.01a1.88 1.88 0 002.133 1.586l94.04-13.819a1.88 1.88 0 001.587-2.133z"
            fill="#95ADB8" />
        <path
            d="M91.345 166.477l-34.215 5.184a1.83 1.83 0 00-1.537 2.081 1.83 1.83 0 002.085 1.533l34.215-5.184a1.83 1.83 0 001.537-2.082 1.83 1.83 0 00-2.085-1.532z"
            fill="#40606E" />
        <path
            d="M70.19 166c9.257 0 16.76-7.503 16.76-16.76 0-9.256-7.504-16.76-16.76-16.76-9.256 0-16.76 7.504-16.76 16.76 0 9.257 7.504 16.76 16.76 16.76z"
            stroke="#95ADB8" stroke-width="5" stroke-miterlimit="10" />
        <path d="M67.75 132.699a16.77 16.77 0 0119 14.15 16.761 16.761 0 01-14.15 19" stroke="#40606E" stroke-width="5"
            stroke-miterlimit="10" stroke-linecap="round" />
        <path
            d="M173.23 89.03c9.257 0 16.76-7.504 16.76-16.76 0-9.256-7.503-16.76-16.76-16.76-9.256 0-16.76 7.504-16.76 16.76 0 9.256 7.504 16.76 16.76 16.76z"
            stroke="#95ADB8" stroke-width="5" stroke-miterlimit="10" />
        <path d="M156.64 74.7a16.76 16.76 0 0114.15-19 16.77 16.77 0 0119 14.15M123.21 169.9l73.06-56.13"
            stroke="#40606E" stroke-width="5" stroke-miterlimit="10" stroke-linecap="round" />
        <path d="M116.68 125.461l6.53 44.44 79.59-11.7" stroke="#95ADB8" stroke-width="5" stroke-miterlimit="10"
            stroke-linecap="round" />
        <path
            d="M212.812 28.098l-20.081 183.655c-.618 5.655 3.464 10.74 9.119 11.359l118.554 12.963c5.655.618 10.74-3.465 11.358-9.12L351.843 43.3c.619-5.655-3.464-10.74-9.119-11.359L224.17 18.978c-5.654-.618-10.74 3.465-11.358 9.12z"
            fill="#95ADB8" />
        <path
            d="M314.14 225.799a7.66 7.66 0 01-.83 0l-129.04-14.1a7.471 7.471 0 01-5.05-2.769 7.512 7.512 0 01-1.61-5.531l21.23-194.2a7.51 7.51 0 017.47-6.7 7.69 7.69 0 01.83 0l129 14.11a7.508 7.508 0 015 2.77 7.506 7.506 0 011.61 5.53L321.64 219.1a7.508 7.508 0 01-7.5 6.699z"
            fill="#fff" />
        <path
            d="M206.31 5c.187-.01.373-.01.56 0l129 14.11a5 5 0 014.44 5.54l-21.19 194.18a5 5 0 01-5 4.47 5.23 5.23 0 01-.56 0l-129-14.11a4.999 4.999 0 01-4.44-5.54L201.35 9.5a5.002 5.002 0 015-4.47l-.04-.03zm.04-4.97a9.998 9.998 0 00-10 8.93l-21.22 194.12a9.934 9.934 0 00.33 3.895 9.932 9.932 0 001.81 3.465 9.989 9.989 0 006.73 3.69l129 14.11c.365.04.732.06 1.1.06a9.998 9.998 0 0010-8.93l21.23-194.15a9.932 9.932 0 00-.33-3.895 9.932 9.932 0 00-1.81-3.465 9.994 9.994 0 00-6.73-3.69L207.46.06c-.365-.04-.733-.06-1.1-.06l-.01.03z"
            fill="#40606E" />
        <path
            d="M267.98 60.18c9.361 0 16.95-7.59 16.95-16.95 0-9.362-7.589-16.95-16.95-16.95-9.361 0-16.95 7.588-16.95 16.95 0 9.36 7.589 16.95 16.95 16.95z"
            fill="#95ADB8" />
        <path
            d="M210.862 69.894a3.44 3.44 0 00-.748 6.84l70.113 7.665a3.44 3.44 0 10.747-6.839l-70.112-7.666zm86.796 9.492a3.44 3.44 0 00-.748 6.84l20.388 2.229a3.44 3.44 0 00.748-6.84l-20.388-2.229zm14.905 21.307a3.44 3.44 0 10-.747 6.839l6.779.741a3.44 3.44 0 10.748-6.839l-6.78-.741zm-1.456 13.229a3.44 3.44 0 10-.747 6.839l6.779.741a3.44 3.44 0 00.748-6.839l-6.78-.741zm-1.444 13.22a3.44 3.44 0 00-.748 6.839l6.779.742a3.442 3.442 0 00.748-6.84l-6.779-.741zm-1.446 13.229a3.44 3.44 0 10-.748 6.839l6.78.741a3.44 3.44 0 10.747-6.839l-6.779-.741zm-1.447 13.228a3.44 3.44 0 00-.747 6.839l6.779.742a3.442 3.442 0 00.748-6.84l-6.78-.741zm-1.454 13.219a3.44 3.44 0 10-.748 6.839l6.78.741a3.44 3.44 0 10.747-6.839l-6.779-.741z"
            fill="#40606E" />
        <path
            d="M205.806 89.025a3.44 3.44 0 00-.748 6.84l58.283 6.372a3.44 3.44 0 10.748-6.84l-58.283-6.372zm-1.435 13.23a3.44 3.44 0 00-.748 6.84l55.659 6.085a3.44 3.44 0 10.747-6.839l-55.658-6.086zm-1.45 13.217a3.44 3.44 0 00-.747 6.839l66.811 7.306a3.44 3.44 0 00.748-6.84l-66.812-7.305zm-1.453 13.231a3.44 3.44 0 10-.748 6.839l45.807 5.008a3.44 3.44 0 10.748-6.839l-45.807-5.008zm-1.44 13.222a3.44 3.44 0 00-.748 6.84l63.442 6.936a3.44 3.44 0 10.748-6.839l-63.442-6.937zm-1.446 13.225a3.44 3.44 0 10-.748 6.839l51.513 5.633a3.44 3.44 0 00.748-6.84l-51.513-5.632z"
            fill="#95ADB8" />
        <path
            d="M302.649 191.326a3.44 3.44 0 10-.747 6.839l6.779.741a3.44 3.44 0 10.748-6.839l-6.78-.741zm-103.834-11.354a3.44 3.44 0 00-.747 6.839l18.251 1.996a3.44 3.44 0 10.748-6.839l-18.252-1.996z"
            fill="#40606E" />
        <path
            d="M178.39 154.38c27.161 0 49.18-22.019 49.18-49.18 0-27.162-22.019-49.18-49.18-49.18s-49.18 22.018-49.18 49.18c0 27.161 22.019 49.18 49.18 49.18z"
            fill="#fff" />
        <path
            d="M178.39 55.96a49.3 49.3 0 0149.25 49.239 49.3 49.3 0 01-49.24 49.24 49.298 49.298 0 01-49.24-49.24 49.3 49.3 0 0149.24-49.24h-.01zm.01-7.6a56.84 56.84 0 00-56.84 56.839 56.84 56.84 0 0097.039 40.199 56.85 56.85 0 0012.323-61.953A56.84 56.84 0 00178.4 48.36z"
            fill="#E55522" />
        <path opacity=".5"
            d="M178.39 48.36a56.844 56.844 0 0152.522 35.086 56.842 56.842 0 01-12.323 61.953 56.854 56.854 0 01-61.953 12.323A56.833 56.833 0 01121.55 105.2a56.838 56.838 0 0156.84-56.84zm0-7.61a64.52 64.52 0 00-64.45 64.45 64.521 64.521 0 0064.45 64.5 64.527 64.527 0 0045.553-18.897 64.525 64.525 0 0018.897-45.553 64.522 64.522 0 00-64.45-64.45v-.05z"
            fill="#E55522" />
        <path
            d="M159.24 98.26a5.53 5.53 0 100-11.06 5.53 5.53 0 000 11.06zm39.43 0a5.53 5.53 0 100-11.06 5.53 5.53 0 000 11.06zm-20.28 6.439c12.23 0 22.44 9.62 24.6 22.28H153.8c2.16-12.66 12.36-22.28 24.59-22.28zm0-5c-16.57 0-30 14.45-30 32.28h60c0-17.83-13.44-32.28-30-32.28z"
            fill="#E55522" />
    </g>
    <defs>
        <clipPath id="prefix__prefix__clip0_496_1741">
            <path fill="#fff" d="M0 0h351.91v236.14H0z" />
        </clipPath>
    </defs>
</svg>