<svg viewBox="0 0 168 152" fill="none" xmlns="http://www.w3.org/2000/svg">
    <path fill-rule="evenodd" clip-rule="evenodd"
        d="M109.222 100C111.861 100 114 102.149 114 104.8C114 107.451 111.861 109.6 109.222 109.6H81.9162C84.5552 109.6 86.6946 111.749 86.6946 114.4C86.6946 117.051 84.5552 119.2 81.9162 119.2H96.9341C99.5732 119.2 101.713 121.349 101.713 124C101.713 126.651 99.5732 128.8 96.9341 128.8H89.9891C86.6615 128.8 83.9641 130.949 83.9641 133.6C83.9641 135.367 85.3293 136.967 88.0599 138.4C90.6989 138.4 92.8383 140.549 92.8383 143.2C92.8383 145.851 90.6989 148 88.0599 148H31.4012C28.7621 148 26.6228 145.851 26.6228 143.2C26.6228 140.549 28.7621 138.4 31.4012 138.4H4.77844C2.13938 138.4 0 136.251 0 133.6C0 130.949 2.13938 128.8 4.77844 128.8H32.0838C34.7229 128.8 36.8623 126.651 36.8623 124C36.8623 121.349 34.7229 119.2 32.0838 119.2H15.018C12.3789 119.2 10.2395 117.051 10.2395 114.4C10.2395 111.749 12.3789 109.6 15.018 109.6H42.3234C39.6843 109.6 37.5449 107.451 37.5449 104.8C37.5449 102.149 39.6843 100 42.3234 100H109.222ZM109.222 119.2C111.861 119.2 114 121.349 114 124C114 126.651 111.861 128.8 109.222 128.8C106.582 128.8 104.443 126.651 104.443 124C104.443 121.349 106.582 119.2 109.222 119.2Z"
        fill="#F1F3F5" />
    <path
        d="M85.875 30.3491L167.998 0L164.783 12.3598C163.362 17.8251 163.356 23.5651 164.765 29.0334L165.53 32.0167C167.139 38.2691 166.895 44.8581 164.828 50.9726C162.579 57.6254 162.493 64.8251 164.581 71.5305L167.998 82.4881L85.875 33.1504V30.3491Z"
        fill="url(#paint0_linear_1267_29714)" />
    <circle cx="135" cy="23" r="7" fill="#909DA1" />
    <path
        d="M134.995 16.4063C133.469 16.4075 131.992 16.9375 130.813 17.9061C129.635 18.8746 128.829 20.2218 128.532 21.718C128.236 23.2143 128.467 24.7671 129.187 26.1119C129.907 27.4567 131.071 28.5103 132.48 29.0932C133.89 29.6762 135.458 29.7524 136.917 29.3089C138.377 28.8653 139.637 27.9295 140.484 26.6609C141.331 25.3922 141.712 23.8692 141.562 22.3512C141.412 20.8332 140.74 19.4143 139.661 18.336C139.049 17.7229 138.321 17.2368 137.52 16.9056C136.72 16.5744 135.861 16.4047 134.995 16.4063ZM136.147 21.3527H136.993C137.084 21.3527 137.172 21.389 137.237 21.4537C137.301 21.5184 137.338 21.606 137.338 21.6975C137.338 21.7889 137.301 21.8766 137.237 21.9413C137.172 22.0059 137.084 22.0422 136.993 22.0422H136.147C136.062 22.5269 135.807 22.9657 135.429 23.2811C135.051 23.5965 134.574 23.7682 134.082 23.7661H133.782L136.069 25.9281C136.135 25.9909 136.174 26.0776 136.177 26.1691C136.18 26.2606 136.146 26.3495 136.083 26.4161C136.052 26.4491 136.015 26.4756 135.973 26.4942C135.932 26.5128 135.887 26.523 135.842 26.5244C135.751 26.5271 135.662 26.4933 135.595 26.4305L132.678 23.6741C132.628 23.6265 132.594 23.565 132.579 23.4975C132.564 23.43 132.569 23.3596 132.595 23.2953C132.62 23.2311 132.664 23.1759 132.722 23.1369C132.779 23.0979 132.846 23.0769 132.915 23.0765H134.082C134.39 23.075 134.69 22.9733 134.936 22.7867C135.181 22.6002 135.36 22.3389 135.444 22.0422H132.915C132.824 22.0422 132.736 22.0059 132.671 21.9413C132.607 21.8766 132.57 21.7889 132.57 21.6975C132.57 21.606 132.607 21.5184 132.671 21.4537C132.736 21.389 132.824 21.3527 132.915 21.3527H135.444C135.372 21.0443 135.199 20.7688 134.952 20.5708C134.705 20.3727 134.399 20.2636 134.082 20.261H132.915C132.824 20.261 132.736 20.2246 132.671 20.16C132.607 20.0953 132.57 20.0076 132.57 19.9162C132.57 19.8248 132.607 19.7371 132.671 19.6724C132.736 19.6078 132.824 19.5714 132.915 19.5714H136.993C137.084 19.5714 137.172 19.6078 137.237 19.6724C137.301 19.7371 137.338 19.8248 137.338 19.9162C137.338 20.0076 137.301 20.0953 137.237 20.16C137.172 20.2246 137.084 20.261 136.993 20.261H135.634C135.904 20.5694 136.082 20.9478 136.147 21.3527Z"
        fill="url(#paint1_linear_1267_29714)" />
    <path
        d="M94.6869 149.105C85.9443 151.122 76.9138 151.55 68.0213 150.37C67.1493 150.253 66.2782 150.122 65.4082 149.976C64.5381 149.831 63.6591 149.666 62.7713 149.481C62.1939 149.366 61.6165 149.241 61.0391 149.105L61.0925 148.315L61.2526 146.03L61.3446 144.705L61.5641 141.513L61.7865 138.318L61.9348 136.173L62.0357 134.711L62.267 131.361L62.5103 127.864L62.7535 124.35L63.0026 120.74L63.234 117.387L63.4772 113.891L63.6937 110.752L63.9429 107.142L64.1772 103.786L64.4175 100.29L64.6696 96.671L64.8921 93.452L65.1086 90.2957L65.2866 87.727L65.512 84.4872L65.7167 81.5307L65.9243 78.5117L66.1734 74.9317L66.4226 71.3219L66.6539 67.9687L66.8942 64.4723L66.9684 63.4072H88.7516L93.7941 136.179L94.5445 147.014L94.6869 149.105Z"
        fill="#C8C8C8" />
    <path
        d="M94.6869 149.105C85.9443 151.122 76.9138 151.55 68.0213 150.37C67.1493 150.253 66.2782 150.122 65.4082 149.977C64.5381 149.831 63.6591 149.666 62.7713 149.481C62.1939 149.366 61.6165 149.241 61.0391 149.105L61.0925 148.315L61.2526 146.03L61.3446 144.705L61.5641 141.513L61.7865 138.318L61.9348 136.173C62.4668 136.288 62.9987 136.398 63.5306 136.501C64.3404 136.659 65.1531 136.799 65.9658 136.934C66.7785 137.068 67.6298 137.19 68.4633 137.292C76.9051 138.361 85.4661 137.982 93.7822 136.173L94.5326 147.008L94.6869 149.105Z"
        fill="#EEEEEE" />
    <path
        d="M67.9218 63.4014C67.8345 63.6407 67.6958 63.8577 67.5154 64.0368C67.3446 64.225 67.1337 64.3719 66.8985 64.4664C66.9898 64.2292 67.1273 64.0128 67.3031 63.8298C67.4788 63.6469 67.6892 63.5012 67.9218 63.4014ZM70.9057 63.5446C69.6329 65.1527 68.2096 66.6343 66.6552 67.9688C67.2846 67.1602 67.9579 66.3874 68.6722 65.6538C69.3782 64.9105 70.1238 64.2064 70.9057 63.5446ZM70.9057 66.6532C69.5567 68.3429 68.0565 69.9048 66.4239 71.319C67.0918 70.4695 67.8036 69.6559 68.5565 68.8817C69.301 68.0987 70.0851 67.3549 70.9057 66.6532ZM70.9057 70.0004C70.1998 70.8954 69.4227 71.7427 68.6455 72.569C67.8684 73.3954 67.0468 74.189 66.1747 74.9288C66.8777 74.0338 67.6578 73.1866 68.432 72.3602C69.2061 71.5338 70.0337 70.7403 70.9057 70.0004ZM70.9057 84.2606C70.4667 84.8065 70.0159 85.3286 69.5383 85.8477C69.0608 86.3668 68.5951 86.8769 68.1146 87.3811C67.6341 87.8853 67.1417 88.3835 66.6315 88.8727L65.9019 89.5917C65.6408 89.8274 65.3887 90.069 65.1247 90.2958C65.3413 90.0213 65.5726 89.7588 65.7951 89.4903L66.4921 88.7087C66.9548 88.1866 67.4353 87.6794 67.9159 87.1752C68.3964 86.6711 68.8858 86.1729 69.3989 85.6836C69.9121 85.1943 70.3777 84.726 70.9057 84.2606ZM70.9057 87.1902C70.4489 87.754 69.9684 88.297 69.4849 88.834C69.0015 89.3709 68.5032 89.899 68.0019 90.4241C67.5006 90.9491 66.9964 91.4622 66.4743 91.9664L65.6942 92.7212C65.4243 92.9628 65.1633 93.2134 64.8904 93.4521C65.1158 93.1687 65.3561 92.8972 65.5874 92.6198L66.3112 91.8083C66.7917 91.2653 67.29 90.7403 67.7942 90.2182C68.2985 89.6961 68.8027 89.18 69.3218 88.6758C69.8409 88.1717 70.351 87.6705 70.9057 87.1902ZM70.9057 90.1764C70.4282 90.7731 69.9299 91.322 69.4226 91.8799C68.9154 92.4378 68.4053 92.9837 67.8892 93.5267C67.3731 94.0696 66.8451 94.6036 66.3052 95.1257L65.4955 95.9103C65.2196 96.1639 64.9468 96.4235 64.665 96.6711C64.8993 96.3727 65.1485 96.0953 65.3917 95.8089L66.1421 94.9676C66.6404 94.4067 67.1565 93.8638 67.6756 93.3208C68.1947 92.7779 68.7197 92.2439 69.2595 91.7218C69.7994 91.1997 70.351 90.6746 70.9057 90.1764ZM70.9057 93.5356C70.4074 94.1323 69.8883 94.7289 69.3663 95.3047C68.8443 95.8805 68.3074 96.4503 67.7675 97.0171C67.2277 97.584 66.6819 98.1359 66.1213 98.6818L65.2819 99.4963C64.9853 99.7618 64.7124 100.033 64.4188 100.29C64.665 99.9915 64.923 99.6932 65.1752 99.3948L65.9582 98.5207C66.4802 97.939 67.0171 97.3751 67.554 96.8083C68.0909 96.2415 68.6426 95.6896 69.2002 95.1436C69.7578 94.5977 70.3214 94.0547 70.9057 93.5356ZM70.9057 96.7815C70.3896 97.4079 69.8498 98.0106 69.304 98.6132C68.7582 99.2158 68.2065 99.8065 67.6489 100.388C67.0913 100.97 66.5218 101.549 65.9404 102.116L65.0713 102.963C64.7747 103.237 64.4781 103.518 64.1815 103.786C64.4366 103.47 64.7065 103.169 64.9705 102.858L65.7802 101.963C66.323 101.367 66.8807 100.77 67.4383 100.188C67.9959 99.6066 68.5654 99.0279 69.1438 98.4611C69.7222 97.8942 70.3006 97.3214 70.9057 96.7815ZM70.9057 99.893C70.3688 100.54 69.8082 101.164 69.2476 101.784C68.687 102.405 68.1087 103.014 67.5303 103.622C66.9519 104.231 66.3646 104.815 65.7506 105.412L64.8607 106.289C64.5641 106.588 64.2675 106.868 63.9383 107.145C64.2023 106.82 64.484 106.507 64.754 106.188L65.6052 105.251C66.1658 104.628 66.7442 104.022 67.3197 103.413C67.8951 102.805 68.4854 102.22 69.0845 101.623C69.6837 101.027 70.2799 100.454 70.9057 99.893ZM70.9057 103.243C70.3481 103.912 69.7667 104.559 69.1854 105.2C68.604 105.842 67.9989 106.474 67.4057 107.101C66.8125 107.727 66.1985 108.348 65.5785 108.953L64.6472 109.863C64.3298 110.162 64.0184 110.46 63.695 110.758C63.9709 110.421 64.2616 110.099 64.5434 109.768L65.4154 108.801C66.0086 108.157 66.6019 107.527 67.1951 106.901C67.7883 106.274 68.4023 105.654 69.0222 105.048C69.6421 104.443 70.2591 103.819 70.9057 103.243ZM70.9057 106.155C70.3303 106.841 69.7193 107.506 69.126 108.169C68.5328 108.831 67.9099 109.478 67.2959 110.126C66.6819 110.773 66.0531 111.412 65.4124 112.035L64.4544 112.975C64.1281 113.273 63.8078 113.592 63.4756 113.891C63.7722 113.545 64.0688 113.213 64.3506 112.873L65.2404 111.877C65.8336 111.215 66.4565 110.567 67.0735 109.92C67.6904 109.273 68.3163 108.634 68.954 108.011C69.5917 107.387 70.2413 106.758 70.9057 106.155ZM70.9057 109.398C70.3125 110.105 69.6926 110.791 69.0697 111.486C68.4468 112.181 67.812 112.841 67.1773 113.509C66.5425 114.177 65.893 114.833 65.2345 115.481L64.2467 116.45C63.9086 116.767 63.5794 117.089 63.2353 117.399C63.5319 117.044 63.8285 116.701 64.14 116.349L65.0713 115.323C65.6913 114.636 66.326 113.968 66.9637 113.3C67.6014 112.632 68.2481 111.975 68.9065 111.328C69.565 110.681 70.2205 110.021 70.9057 109.398ZM70.9057 112.512C70.2917 113.24 69.654 113.947 69.0104 114.648C68.3667 115.349 67.7171 116.042 67.0616 116.737C66.4061 117.432 65.7387 118.103 65.0595 118.768L64.0421 119.768C63.695 120.093 63.3569 120.427 63.0039 120.746C63.3006 120.379 63.6268 120.027 63.9383 119.666L64.8963 118.61C65.537 117.906 66.1925 117.217 66.848 116.522C67.5036 115.827 68.1709 115.156 68.8472 114.49C69.5235 113.825 70.2027 113.157 70.9057 112.512ZM70.9057 115.86C70.271 116.608 69.6125 117.336 68.9481 118.061C68.2837 118.786 67.6133 119.499 66.937 120.209C66.2608 120.919 65.5726 121.617 64.8607 122.298L63.8256 123.339C63.4667 123.676 63.1167 124.019 62.7548 124.35C63.0692 123.974 63.3984 123.61 63.7217 123.237L64.7095 122.148C65.3709 121.42 66.0472 120.71 66.7235 120C67.3998 119.29 68.0879 118.592 68.7849 117.912C69.482 117.232 70.182 116.525 70.9057 115.86ZM70.9057 119.123C70.2502 119.893 69.571 120.642 68.8887 121.388C68.2065 122.133 67.5125 122.879 66.8125 123.598C66.1124 124.317 65.4065 125.048 64.6887 125.758L63.609 126.823C63.2412 127.169 62.8823 127.524 62.5086 127.864C62.8349 127.477 63.173 127.104 63.5052 126.722L64.5256 125.6C65.2048 124.851 65.9019 124.108 66.6019 123.389C67.3019 122.67 68.0048 121.94 68.7256 121.23C69.4464 120.52 70.1612 119.81 70.9057 119.123ZM70.9057 134.75C70.1523 135.621 69.3752 136.471 68.5951 137.318C67.815 138.166 67.0201 138.992 66.2222 139.83C65.4243 140.669 64.6205 141.483 63.8078 142.295L62.5827 143.512C62.1675 143.909 61.7582 144.314 61.337 144.705C61.7107 144.267 62.0993 143.843 62.4789 143.41L63.6446 142.136C64.4247 141.289 65.2226 140.463 66.0175 139.625C66.8125 138.786 67.6192 137.972 68.432 137.16C69.2447 136.349 70.0544 135.537 70.9057 134.75ZM61.0938 148.315C61.4793 147.867 61.8768 147.42 62.2802 146.987L63.4667 145.681C64.2675 144.812 65.0862 143.962 65.8959 143.103C66.7057 142.244 67.5392 141.409 68.3726 140.573L69.6303 139.323C70.0544 138.915 70.4756 138.5 70.9087 138.097C70.5231 138.548 70.1256 138.992 69.7222 139.425L68.5358 140.731C67.7379 141.6 66.9192 142.45 66.1095 143.309C65.2997 144.168 64.4662 145.006 63.6328 145.842C62.7993 146.677 61.9539 147.506 61.0938 148.315ZM62.7726 149.481C62.9594 149.258 63.1522 149.037 63.345 148.819C63.5378 148.601 63.7247 148.378 63.9383 148.163L65.1247 146.868C65.1358 146.856 65.1491 146.847 65.1638 146.84C65.1786 146.833 65.1946 146.83 65.2107 146.829L65.1188 146.868C66.0502 145.86 67.0053 144.869 67.9663 143.885C68.4468 143.392 68.9392 142.912 69.4286 142.429C69.918 141.946 70.4163 141.474 70.9116 141.006C70.4638 141.528 70.0218 142.047 69.5472 142.554C69.0726 143.061 68.6248 143.574 68.1531 144.073C67.2129 145.075 66.2637 146.068 65.2938 147.041C65.2694 147.063 65.2378 147.076 65.2048 147.077L65.2968 147.038L64.051 148.267C63.8463 148.473 63.6328 148.67 63.4222 148.864C63.2116 149.058 62.9861 149.284 62.7726 149.481ZM65.4095 149.977C65.8218 149.457 66.2608 148.959 66.7027 148.467C67.1447 147.975 67.5925 147.492 68.0493 147.011C68.5061 146.531 68.9718 146.062 69.4493 145.606L70.1672 144.92C70.4133 144.699 70.6506 144.469 70.9057 144.255C70.7011 144.517 70.4816 144.765 70.271 145.021L69.6125 145.764C69.1735 146.259 68.7226 146.74 68.2629 147.22C67.8031 147.7 67.3434 148.169 66.8658 148.625C66.3883 149.082 65.9019 149.544 65.4095 149.977ZM68.0226 150.358C68.4234 149.788 68.8698 149.251 69.3574 148.753C69.8342 148.245 70.352 147.777 70.9057 147.354C70.0914 148.488 69.1207 149.5 68.0226 150.358ZM70.9057 122.366C70.2294 123.16 69.5294 123.929 68.8294 124.693C68.1294 125.457 67.4116 126.215 66.6968 126.966C65.9819 127.718 65.2523 128.458 64.5107 129.192L63.4014 130.287C63.0247 130.645 62.6539 131.009 62.2713 131.361C62.6065 130.961 62.9565 130.576 63.2976 130.185L64.3476 129.034C65.0476 128.264 65.7654 127.512 66.4832 126.761C67.201 126.009 67.9277 125.269 68.6663 124.535C69.4049 123.801 70.1405 123.073 70.9057 122.366ZM70.9057 125.478C70.2087 126.289 69.4909 127.08 68.7701 127.864C68.0493 128.649 67.3137 129.425 66.5781 130.197C65.8425 130.97 65.0951 131.731 64.3357 132.483L63.1967 133.607C62.8111 133.974 62.4285 134.35 62.037 134.711C62.3811 134.302 62.74 133.909 63.0929 133.518L64.1726 132.324C64.8904 131.534 65.626 130.761 66.3646 129.992C67.1031 129.222 67.8476 128.458 68.607 127.706C69.3663 126.955 70.1227 126.194 70.9057 125.478ZM61.7878 138.318C62.5027 137.483 63.2412 136.671 63.9857 135.866C64.7302 135.06 65.4688 134.261 66.24 133.479C67.0112 132.697 67.7646 131.904 68.5447 131.131L69.7133 129.974C70.1108 129.595 70.5023 129.21 70.8998 128.837C70.5439 129.255 70.1731 129.66 69.8112 130.075L68.7078 131.265C67.9663 132.077 67.2099 132.87 66.4536 133.652C65.6972 134.434 64.926 135.227 64.1489 136C63.3717 136.773 62.5917 137.569 61.7878 138.318ZM61.5654 141.513C62.298 140.66 63.0484 139.83 63.8167 139.004C64.5849 138.178 65.359 137.369 66.1273 136.552C66.8955 135.734 67.6934 134.941 68.5002 134.147L69.6866 132.954C70.096 132.566 70.4934 132.172 70.9087 131.79C70.5439 132.22 70.1642 132.635 69.7934 133.055L68.6544 134.299C67.8921 135.123 67.112 135.931 66.3438 136.749C65.5756 137.566 64.7807 138.363 63.9709 139.153C63.1611 139.944 62.387 140.746 61.5654 141.513ZM70.9057 82.1066C70.4786 82.6198 70.0159 83.106 69.5799 83.5983C69.1438 84.0905 68.6663 84.5589 68.2006 85.0273C67.7349 85.4957 67.2603 85.961 66.7709 86.4085L66.0413 87.0828C65.7891 87.2976 65.5459 87.5243 65.2879 87.7331C65.4985 87.4736 65.7209 87.2319 65.9374 86.9783L66.6108 86.2474C67.0616 85.7582 67.5243 85.2868 67.993 84.8184C68.4616 84.3501 68.9332 83.8847 69.4197 83.4372C69.9061 82.9897 70.3926 82.5303 70.9057 82.1066ZM70.9057 79.0219C70.4994 79.5201 70.0693 79.9974 69.6362 80.4688C69.2032 80.9402 68.7464 81.4026 68.3133 81.859C67.8803 82.3155 67.4235 82.754 66.943 83.2015L66.237 83.8548C65.9968 84.0666 65.7624 84.2844 65.5133 84.4873C65.712 84.2367 65.9285 83.998 66.1362 83.7534L66.7798 83.0404C67.2099 82.5661 67.6697 82.1066 68.1027 81.6502C68.5358 81.1937 69.0074 80.7552 69.476 80.3077C69.9447 79.8602 70.4133 79.4336 70.9057 79.0219ZM70.9057 76.2832C70.1227 77.2409 69.2773 78.1329 68.4171 79.013C67.557 79.893 66.6641 80.7403 65.718 81.5309C66.498 80.5732 67.3434 79.6782 68.2065 78.8011C69.0697 77.9241 69.9566 77.0738 70.9057 76.2832ZM70.9057 73.4521C70.1583 74.3769 69.3455 75.2421 68.5328 76.0863C67.7201 76.9306 66.851 77.751 65.9374 78.5118C66.6819 77.5869 67.4947 76.7218 68.3103 75.8775C69.126 75.0332 69.9921 74.2128 70.9057 73.4521Z"
        fill="#7F7F7F" />
    <path d="M66.9609 48.5088H88.7561V63.4014H66.9609V48.5088Z" fill="#EEEEEE" />
    <path d="M69.7188 36.4443H86.0028V48.5088H69.7188V36.4443Z" fill="#C8C8C8" />
    <path d="M72.625 24.2539H83.0895V36.4436H72.625V24.2539Z" fill="#EEEEEE" />
    <path
        d="M84.8144 26.6442H70.9062C70.9072 24.3294 71.5216 22.0567 72.6859 20.06L77.8648 11.1758L83.0407 20.06C84.2051 22.0567 84.8194 24.3294 84.8204 26.6442H84.8144Z"
        fill="#C8C8C8" />
    <path
        d="M89.0088 67.0616C88.4354 66.2233 87.6021 65.5996 86.6391 65.2879C85.676 64.9762 84.6375 64.9939 83.6855 65.3384C82.7336 65.6829 81.9219 66.3347 81.3771 67.1921C80.8322 68.0494 80.585 69.0641 80.674 70.0777L81.6944 81.5365L89.961 80.7907L89.0088 67.0616ZM90.6966 91.4471C90.2231 90.971 89.6515 90.6053 89.0221 90.3759C88.3927 90.1465 87.7209 90.059 87.0541 90.1195C86.455 90.1735 85.8724 90.3457 85.3394 90.6262C84.8065 90.9067 84.3337 91.29 83.9481 91.7543C83.5625 92.2186 83.2716 92.7548 83.092 93.3322C82.9125 93.9096 82.8477 94.5169 82.9016 95.1195L83.9219 106.575L91.708 105.877L90.6966 91.4471ZM92.4733 117.094C91.8647 116.884 91.2189 116.805 90.5779 116.862C89.9788 116.916 89.3962 117.088 88.8632 117.368C88.3303 117.649 87.8575 118.032 87.4719 118.497C87.0863 118.961 86.7954 119.497 86.6158 120.074C86.4362 120.652 86.3715 121.259 86.4253 121.862L87.4457 133.318L93.5559 132.769L92.4733 117.094Z"
        fill="#EEEEEE" />
    <path d="M83.0938 30.3486H85.8794V33.1504H83.0938V30.3486Z" fill="#7F7F7F" />
    <path
        d="M27.9194 44.714C31.0399 42.7426 33.9616 40.4695 36.6428 37.927C37.3131 37.2945 37.9597 36.6352 38.6034 35.9759C38.9 35.6358 39.2441 35.3077 39.5407 34.9616C39.8373 34.6155 40.1339 34.2546 40.4098 33.8906C41.528 32.4258 42.5869 30.9073 43.6488 29.3918L46.8344 24.8452C47.3683 24.0905 47.8992 23.3297 48.4539 22.5869C48.9974 21.8318 49.6133 21.1324 50.2929 20.4986C51.7079 19.2611 53.449 18.4622 55.3057 18.1985C57.1417 17.9404 59.01 18.0417 60.8078 18.4968C59.0089 18.0924 57.1501 18.0337 55.3294 18.3238C53.5129 18.6067 51.8164 19.4117 50.4442 20.6418C49.791 21.2838 49.1954 21.9826 48.6645 22.7301C48.1187 23.4729 47.5937 24.2217 47.0628 24.9944L43.889 29.5618C42.8212 31.0744 41.7564 32.5869 40.6263 34.0577C40.3297 34.4216 40.0538 34.7856 39.7364 35.1376C39.4191 35.4896 39.1017 35.8148 38.7843 36.1549C38.1377 36.8172 37.4792 37.4705 36.794 38.0941C35.437 39.3525 34.0152 40.5385 32.5347 41.6472C31.0518 42.7515 29.5111 43.7753 27.9194 44.714ZM48.6348 33.1149C48.93 31.8587 49.3741 30.6428 49.9577 29.4932C50.5505 28.3404 51.3091 27.2819 52.209 26.3518C53.1126 25.4179 54.1666 24.6443 55.3264 24.0636C56.4843 23.5122 57.6727 23.0281 58.8858 22.6137C60.0897 22.1925 61.2691 21.7034 62.4185 21.1489C63.563 20.5862 64.6733 19.9557 65.7435 19.2605C66.8185 18.5701 67.8525 17.817 68.8401 17.0051C69.8368 16.1997 70.78 15.3315 71.6995 14.4365C69.9561 16.3271 68.0025 18.0097 65.877 19.4514C63.7372 20.8853 61.4261 22.042 58.9985 22.8942C57.7865 23.2966 56.5982 23.7678 55.4391 24.3053C54.3021 24.8709 53.2626 25.6162 52.3603 26.5129C50.548 28.2999 49.3437 30.6507 48.6348 33.1149ZM26.8516 89.8214C29.724 88.8964 32.4871 87.6579 35.0915 86.1281C36.3906 85.3644 37.6394 84.5201 38.8614 83.6311C40.0835 82.742 41.2996 81.8411 42.4386 80.8685C43.0085 80.3788 43.5492 79.8558 44.0581 79.3023C44.5692 78.7607 45.0142 78.1598 45.384 77.5123C45.7492 76.8758 45.9529 76.1586 45.9772 75.424C45.962 74.6839 45.7466 73.962 45.3543 73.3357C44.589 72.0857 43.3195 71.0803 41.8691 70.8685C41.1453 70.7715 40.4095 70.9029 39.7631 71.2444C39.1142 71.5885 38.5599 72.0886 38.1496 72.7003C37.7418 73.3025 37.4946 74 37.4318 74.7259C37.4065 75.0911 37.4275 75.458 37.494 75.8178C37.5688 76.1787 37.6812 76.5307 37.8292 76.8679C38.1279 77.5453 38.5628 78.1531 39.1065 78.6532C39.6501 79.1532 40.2908 79.5347 40.9881 79.7737C42.4 80.2271 43.9543 80.072 45.381 79.708C46.83 79.3186 48.2331 78.7735 49.5662 78.0821C50.9042 77.4045 52.1936 76.6339 53.4251 75.776C54.6584 74.9109 55.8048 73.9267 56.8481 72.8375C58.9409 70.6463 60.6418 68.108 61.8757 65.3345C60.6808 68.1322 59.0151 70.7017 56.9519 72.93C55.9114 74.0343 54.766 75.0335 53.5319 75.9133C52.2954 76.7908 51.0001 77.5813 49.6552 78.279C48.3163 78.9924 46.9026 79.5537 45.4403 79.9527C44.7015 80.1453 43.9453 80.2622 43.1831 80.3017C42.4127 80.3449 41.6407 80.252 40.9021 80.0272C40.1678 79.777 39.4927 79.3771 38.919 78.8525C38.3454 78.3279 37.8855 77.6898 37.5682 76.9783C37.4097 76.6212 37.2894 76.2482 37.2093 75.8655C37.1361 75.4824 37.1112 75.0915 37.1351 74.7021C37.2055 73.9172 37.4785 73.1644 37.9271 72.5183C38.3659 71.8673 38.9579 71.3354 39.6504 70.97C40.3505 70.6033 41.1465 70.4646 41.9284 70.5732C42.698 70.6939 43.4269 71.001 44.0522 71.4682C44.6753 71.9315 45.2032 72.512 45.6064 73.1776C46.0209 73.8451 46.2475 74.6133 46.2619 75.4002C46.2329 76.1831 46.0118 76.9466 45.6183 77.6227C44.8589 78.9741 43.7407 80.0451 42.5958 81.0356C41.4509 82.026 40.2229 82.9061 38.9771 83.7772C37.7514 84.6655 36.4812 85.4899 35.1716 86.2474C32.537 87.7421 29.7468 88.9406 26.8516 89.8214Z"
        fill="#EEEEEE" />
    <path
        d="M99.0268 7.43457C99.1899 8.21619 99.2967 9.0008 99.3827 9.78541C99.4687 10.57 99.5281 11.3606 99.5755 12.1482C99.623 12.9358 99.6408 13.7263 99.6378 14.5169C99.6423 15.3138 99.6066 16.1103 99.531 16.9035C99.3679 16.1189 99.2611 15.3343 99.1751 14.5497C99.0891 13.7651 99.0298 12.9745 98.9823 12.187C98.9348 11.3994 98.917 10.6088 98.923 9.81822C98.9175 9.02242 98.9521 8.22684 99.0268 7.43457Z"
        fill="#7D7D7D" />
    <path
        d="M103.988 11.9094C103.214 12.0695 102.433 12.1899 101.647 12.2704C100.867 12.3599 100.084 12.4136 99.2983 12.4613C98.5123 12.5091 97.7292 12.5299 96.9432 12.524C96.151 12.5295 95.359 12.4947 94.5703 12.4196C95.3438 12.2595 96.1249 12.139 96.9106 12.0586C97.6907 11.9691 98.4737 11.9154 99.2598 11.8677C100.046 11.8199 100.829 11.802 101.615 11.805C102.401 11.808 103.196 11.8289 103.988 11.9094ZM105.239 13.234C105.383 13.7514 105.488 14.279 105.554 14.8122C105.625 15.3432 105.678 15.8712 105.705 16.4023C105.732 16.9333 105.741 17.4643 105.726 17.9983C105.717 18.5362 105.669 19.0727 105.581 19.6033C105.436 19.086 105.33 18.5584 105.263 18.0252C105.192 17.4941 105.142 16.9661 105.112 16.4351C105.082 15.9041 105.079 15.373 105.094 14.839C105.103 14.3011 105.152 13.7646 105.239 13.234Z"
        fill="#7D7D7D" />
    <path
        d="M108.576 16.2471C108.06 16.3917 107.535 16.4974 107.004 16.5633C106.479 16.6379 105.954 16.6886 105.426 16.7155C104.898 16.7423 104.367 16.7513 103.839 16.7364C103.303 16.7274 102.769 16.6785 102.24 16.5902C102.756 16.4464 103.281 16.3397 103.812 16.271C104.337 16.1994 104.865 16.1487 105.393 16.1218C105.921 16.095 106.449 16.086 106.98 16.1009C107.515 16.1098 108.048 16.1586 108.576 16.2471ZM27.7191 92.2525C27.8783 93.0305 27.998 93.8161 28.078 94.6063C28.167 95.3909 28.2204 96.1815 28.2708 96.9691C28.3213 97.7567 28.3361 98.5473 28.3302 99.3378C28.3373 100.135 28.3026 100.931 28.2263 101.724C28.0668 100.947 27.9479 100.161 27.8704 99.3707C27.7814 98.586 27.7251 97.7985 27.6776 97.0109C27.6302 96.2233 27.6124 95.4327 27.6183 94.6392C27.6117 93.8424 27.6454 93.0458 27.7191 92.2525Z"
        fill="#7D7D7D" />
    <path
        d="M32.6831 96.7305C31.906 96.8946 31.1259 97.002 30.3428 97.0885C29.5598 97.175 28.7767 97.2347 27.9936 97.2824C27.2106 97.3302 26.4246 97.3481 25.6385 97.3451C24.8525 97.3421 24.0635 97.3212 23.2656 97.2407C24.0391 97.0806 24.8202 96.9601 25.6059 96.8797C26.386 96.7902 27.1691 96.7335 27.9521 96.6858C28.7352 96.638 29.5212 96.6201 30.3102 96.6261C31.1024 96.6205 31.8944 96.6554 32.6831 96.7305ZM33.9289 98.0521C34.0709 98.571 34.1759 99.0994 34.2433 99.6333C34.3145 100.161 34.3649 100.692 34.3946 101.223C34.4242 101.754 34.4301 102.285 34.4153 102.819C34.4065 103.357 34.3579 103.894 34.27 104.424C34.1241 103.906 34.018 103.378 33.9526 102.843C33.8814 102.315 33.828 101.784 33.8013 101.253C33.7746 100.722 33.7687 100.191 33.7835 99.6571C33.7925 99.1192 33.841 98.5828 33.9289 98.0521Z"
        fill="#7D7D7D" />
    <path
        d="M37.2653 101.068C36.7495 101.211 36.2241 101.317 35.6933 101.384C35.1683 101.456 34.6403 101.507 34.1123 101.537C33.5844 101.566 33.0564 101.572 32.5255 101.557C31.9907 101.548 31.4573 101.5 30.9297 101.411C31.4448 101.265 31.9704 101.158 32.5017 101.092C33.0267 101.02 33.5547 100.967 34.0827 100.94C34.6107 100.913 35.1386 100.907 35.6696 100.922C36.2044 100.931 36.7378 100.98 37.2653 101.068ZM156.412 86.459C156.575 87.2406 156.682 88.0282 156.768 88.8128C156.854 89.5974 156.913 90.388 156.961 91.1756C157.008 91.9632 157.026 92.7537 157.023 93.5443C157.028 94.3412 156.992 95.1377 156.916 95.9309C156.753 95.1493 156.646 94.3647 156.56 93.5771C156.474 92.7895 156.415 92.0049 156.367 91.2173C156.32 90.4298 156.302 89.6392 156.308 88.8307C156.303 88.0389 156.338 87.2473 156.412 86.459Z"
        fill="#7D7D7D" />
    <path
        d="M161.371 90.9366C160.593 91.1007 159.813 91.2081 159.03 91.2946C158.247 91.3811 157.467 91.4408 156.681 91.4885C155.895 91.5362 155.112 91.5571 154.326 91.5511C153.534 91.5567 152.742 91.5218 151.953 91.4467C152.727 91.2867 153.508 91.1662 154.293 91.0857C155.073 90.9962 155.857 90.9396 156.643 90.8918C157.429 90.8441 158.212 90.8262 158.998 90.8322C159.79 90.8266 160.582 90.8615 161.371 90.9366ZM162.622 92.2582C162.766 92.7767 162.871 93.3052 162.937 93.8393C163.008 94.3674 163.061 94.8984 163.088 95.4294C163.115 95.9604 163.124 96.4915 163.109 97.0255C163.1 97.5634 163.051 98.0999 162.963 98.6305C162.819 98.112 162.713 97.5835 162.646 97.0493C162.575 96.5213 162.524 95.9933 162.495 95.4622C162.465 94.9312 162.462 94.3972 162.477 93.8632C162.486 93.3253 162.535 92.7888 162.622 92.2582Z"
        fill="#7D7D7D" />
    <path
        d="M165.961 95.2743C165.445 95.4189 164.92 95.5246 164.389 95.5905C163.864 95.6621 163.339 95.7158 162.811 95.7427C162.283 95.7695 161.752 95.7785 161.224 95.7636C160.688 95.7546 160.154 95.7057 159.625 95.6174C160.14 95.4721 160.666 95.3654 161.197 95.2982C161.722 95.2266 162.25 95.1729 162.778 95.146C163.306 95.1192 163.834 95.1132 164.365 95.1281C164.9 95.137 165.433 95.1858 165.961 95.2743Z"
        fill="#7D7D7D" />
    <path
        d="M66.3265 128.926H88.887C94.713 128.926 100.3 131.254 104.42 135.397C108.54 139.541 110.854 145.16 110.854 151.02H44.3594C44.3594 145.16 46.6738 139.541 50.7934 135.397C54.9131 131.254 60.5005 128.926 66.3265 128.926Z"
        fill="#A3A3A3" />
    <path
        d="M53.1457 144.433C53.1539 144.6 53.1284 144.766 53.0707 144.922C53.013 145.078 52.9245 145.221 52.8103 145.341C52.6962 145.462 52.5589 145.558 52.4067 145.624C52.2545 145.689 52.0907 145.723 51.9252 145.723C51.7596 145.723 51.5958 145.689 51.4436 145.624C51.2915 145.558 51.1542 145.462 51.04 145.341C50.9259 145.221 50.8373 145.078 50.7796 144.922C50.722 144.766 50.6965 144.6 50.7046 144.433C50.7046 143.756 51.547 143.801 52.2233 143.801C52.8995 143.801 53.1457 143.756 53.1457 144.433ZM64.8738 137.336C64.8738 138.622 63.542 139.067 62.2666 139.067C61.653 139.067 61.0645 138.821 60.6306 138.385C60.1968 137.949 59.953 137.357 59.953 136.74C59.953 136.122 60.1968 135.531 60.6306 135.094C61.0645 134.658 61.653 134.413 62.2666 134.413C63.542 134.413 64.8738 136.053 64.8738 137.336ZM85.085 137.614C85.085 138.231 84.8413 138.823 84.4074 139.259C83.9735 139.695 83.3851 139.941 82.7715 139.941C81.496 139.941 80.7545 139.496 80.7545 138.21C80.7545 136.925 81.496 135.287 82.7715 135.287C83.3851 135.287 83.9735 135.532 84.4074 135.968C84.8413 136.405 85.085 136.997 85.085 137.614ZM106.598 145.842C106.598 147.127 105.267 147.572 103.988 147.572C103.684 147.572 103.384 147.512 103.103 147.395C102.822 147.278 102.567 147.106 102.352 146.89C102.137 146.674 101.967 146.418 101.851 146.135C101.734 145.853 101.675 145.551 101.675 145.245C101.675 143.962 103.009 143.518 104.285 143.518C104.898 143.518 105.486 143.762 105.92 144.198C106.354 144.634 106.598 145.225 106.598 145.842ZM73.2294 146.519C73.2294 146.824 73.1696 147.127 73.0533 147.409C72.937 147.692 72.7666 147.948 72.5518 148.164C72.3369 148.38 72.0819 148.552 71.8012 148.669C71.5205 148.786 71.2197 148.846 70.9158 148.846C69.6374 148.846 68.3056 147.208 68.3056 145.922C68.3056 145.305 68.5494 144.713 68.9833 144.277C69.4172 143.84 70.0056 143.595 70.6192 143.595C71.8947 143.595 73.2294 145.236 73.2294 146.519ZM91.6046 146.307C91.6046 146.948 91.0885 146.826 90.4478 146.826C89.8071 146.826 89.5906 146.904 89.5906 146.259C89.5906 145.951 89.7121 145.656 89.9284 145.438C90.1447 145.219 90.4381 145.097 90.7444 145.096C91.3851 145.096 91.6046 145.663 91.6046 146.307ZM97.4538 134.126C97.4538 134.768 97.2314 135.883 96.5936 135.883C96.2874 135.883 95.9936 135.761 95.7767 135.544C95.5599 135.326 95.4376 135.031 95.4368 134.723C95.4368 134.078 95.6593 132.963 96.297 132.963C96.6038 132.963 96.8981 133.085 97.115 133.303C97.3319 133.522 97.4538 133.818 97.4538 134.126ZM76.5604 132.074C76.5604 132.837 75.6468 132.858 74.8875 132.858C74.5339 132.842 74.2003 132.689 73.9559 132.431C73.7114 132.174 73.5751 131.832 73.5751 131.476C73.5751 131.12 73.7114 130.777 73.9559 130.52C74.2003 130.262 74.5339 130.109 74.8875 130.093C75.6468 130.093 76.5604 131.31 76.5604 132.074Z"
        fill="#7F7F7F" />
    <path
        d="M42.1369 145.287C42.9674 143.36 42.3415 142.178 42.3415 140.812C42.3415 137.939 41.3864 134.684 39.672 132.644C39.2129 134.106 38.9681 135.627 38.9453 137.16C38.9542 140.027 40.4343 143.24 42.1369 145.287Z"
        fill="#C8C8C8" />
    <path
        d="M46.1108 147.348C49.3347 147.348 51.9481 142.793 51.9481 137.175C51.9481 131.557 49.3347 127.002 46.1108 127.002C42.8869 127.002 40.2734 131.557 40.2734 137.175C40.2734 142.793 42.8869 147.348 46.1108 147.348Z"
        fill="white" />
    <path
        d="M31.7937 141.128C31.7937 142.262 31.3369 143.168 31.9628 144.708C34.6323 142.557 36.6581 138.947 36.6581 135.227C36.622 133.916 36.4329 132.615 36.0946 131.349C33.3954 133.476 31.7937 137.408 31.7937 141.128Z"
        fill="#7D7D7D" />
    <path
        d="M29.7592 144.812C32.9831 144.812 35.5966 140.257 35.5966 134.639C35.5966 129.02 32.9831 124.466 29.7592 124.466C26.5353 124.466 23.9219 129.02 23.9219 134.639C23.9219 140.257 26.5353 144.812 29.7592 144.812Z"
        fill="white" />
    <path
        d="M29.7592 144.812C32.9831 144.812 35.5966 140.257 35.5966 134.639C35.5966 129.02 32.9831 124.466 29.7592 124.466C26.5353 124.466 23.9219 129.02 23.9219 134.639C23.9219 140.257 26.5353 144.812 29.7592 144.812Z"
        stroke="#C8C8C8" stroke-miterlimit="10" />
    <path
        d="M29.76 129.556V151.02M29.76 135.531L26.9007 132.241M29.76 138.777L26.2422 134.732M29.76 142.121L26.2422 138.076M29.76 135.537L32.6283 132.241M29.76 138.783L33.2779 134.738M29.76 142.127L33.2779 138.082"
        stroke="#C8C8C8" stroke-linecap="round" stroke-linejoin="round" />
    <path
        d="M46.1108 147.348C49.3347 147.348 51.9481 142.793 51.9481 137.175C51.9481 131.557 49.3347 127.002 46.1108 127.002C42.8869 127.002 40.2734 131.557 40.2734 137.175C40.2734 142.793 42.8869 147.348 46.1108 147.348Z"
        stroke="#7D7D7D" stroke-linecap="round" stroke-linejoin="round" />
    <path
        d="M46.1116 132.092V151.021M46.1116 138.067L43.2493 134.777M46.1116 141.313L42.5938 137.268M46.1116 144.657L42.5938 140.612M46.1116 138.076L48.9798 134.777M46.1116 141.319L49.6294 137.274M46.1116 144.666L49.6294 140.621"
        stroke="#7D7D7D" stroke-linecap="round" stroke-linejoin="round" />
    <path d="M18 151.021H133.626" stroke="#545454" stroke-linecap="round" stroke-linejoin="round" />
    <path
        d="M134.133 38.4357H132.5V37.1409L148 30.9409L163.5 37.1409V38.4357H161.867H161.367V38.9357C161.367 39.0741 161.319 39.1945 161.185 39.3189L161.525 39.6857L161.185 39.319C161.05 39.4442 160.902 39.5023 160.717 39.5023H135.283C135.098 39.5023 134.95 39.4442 134.815 39.319L134.815 39.3189C134.681 39.1945 134.633 39.0741 134.633 38.9357V38.4357H134.133ZM136.767 52.869V40.569H140.033V52.869V53.369H140.533H142.667H143.167V52.869V40.569H146.433V52.869V53.369H146.933H149.067H149.567V52.869V40.569H152.833V52.869V53.369H153.333H155.467H155.967V52.869V40.569H159.233V52.869V53.369H159.733H160.717C160.902 53.369 161.05 53.4271 161.185 53.5524C161.319 53.6768 161.367 53.7973 161.367 53.9357V54.5023H134.633V53.9357C134.633 53.7973 134.681 53.6768 134.815 53.5524C134.95 53.4271 135.098 53.369 135.283 53.369H136.267H136.767V52.869ZM162.85 56.569C163.035 56.569 163.183 56.6271 163.318 56.7524C163.453 56.8768 163.5 56.9973 163.5 57.1357V58.769H132.5V57.1357C132.5 56.9973 132.547 56.8768 132.682 56.7524C132.817 56.6271 132.965 56.569 133.15 56.569H162.85Z"
        fill="url(#paint2_linear_1267_29714)" stroke="#909DA1" />
    <defs>
        <linearGradient id="paint0_linear_1267_29714" x1="84.3385" y1="31.5921" x2="165.066" y2="35.2403"
            gradientUnits="userSpaceOnUse">
            <stop stop-color="#E4E4E4" />
            <stop offset="1" stop-color="#EBEBEB" stop-opacity="0" />
        </linearGradient>
        <linearGradient id="paint1_linear_1267_29714" x1="135" y1="16.4062" x2="135" y2="29.5938"
            gradientUnits="userSpaceOnUse">
            <stop stop-color="#FDFDFD" />
            <stop offset="1" stop-color="#BEC5C7" />
        </linearGradient>
        <linearGradient id="paint2_linear_1267_29714" x1="148" y1="30.5" x2="148" y2="59"
            gradientUnits="userSpaceOnUse">
            <stop stop-color="#FDFDFD" />
            <stop offset="1" stop-color="#BEC5C7" />
        </linearGradient>
    </defs>
</svg>