<svg viewBox="0 0 188 150" fill="none" xmlns="http://www.w3.org/2000/svg">
    <rect fill="white" />
    <path fill-rule="evenodd" clip-rule="evenodd"
        d="M155.664 48.75C158.571 48.75 160.928 51.1005 160.928 54C160.928 56.8995 158.571 59.25 155.664 59.25H125.584C128.491 59.25 130.848 61.6005 130.848 64.5C130.848 67.3995 128.491 69.75 125.584 69.75H142.128C145.035 69.75 147.392 72.1005 147.392 75C147.392 77.8995 145.035 80.25 142.128 80.25H134.477C130.811 80.25 127.84 82.6005 127.84 85.5C127.84 87.433 129.344 89.183 132.352 90.75C135.259 90.75 137.616 93.1005 137.616 96C137.616 98.8995 135.259 101.25 132.352 101.25H69.9357C67.0285 101.25 64.6717 98.8995 64.6717 96C64.6717 93.1005 67.0285 90.75 69.9357 90.75H40.6077C37.7005 90.75 35.3438 88.3995 35.3438 85.5C35.3438 82.6005 37.7005 80.25 40.6077 80.25H70.6877C73.595 80.25 75.9517 77.8995 75.9517 75C75.9517 72.1005 73.595 69.75 70.6877 69.75H51.8877C48.9805 69.75 46.6237 67.3995 46.6237 64.5C46.6237 61.6005 48.9805 59.25 51.8877 59.25H81.9677C79.0605 59.25 76.7037 56.8995 76.7037 54C76.7037 51.1005 79.0605 48.75 81.9677 48.75H155.664ZM155.664 69.75C158.571 69.75 160.928 72.1005 160.928 75C160.928 77.8995 158.571 80.25 155.664 80.25C152.757 80.25 150.4 77.8995 150.4 75C150.4 72.1005 152.757 69.75 155.664 69.75Z"
        fill="#F1F3F5" />
    <path fill-rule="evenodd" clip-rule="evenodd"
        d="M115.546 48.0017L122.555 98.8963L123.185 104.002C123.388 105.647 122.216 107.144 120.568 107.345L76.5453 112.725C74.8969 112.927 73.3962 111.757 73.1933 110.112L66.3981 55.0279C66.2967 54.2055 66.8826 53.4571 67.7067 53.3564C67.7119 53.3557 67.7171 53.3551 67.7224 53.3545L71.3747 52.9469M74.3307 52.6288L77.78 52.2437Z"
        fill="white" />
    <path
        d="M116.785 47.832C116.691 47.1481 116.06 46.6697 115.376 46.7634C114.692 46.8572 114.214 47.4876 114.308 48.1715L116.785 47.832ZM122.555 98.8963L123.796 98.744C123.795 98.7382 123.795 98.7324 123.794 98.7265L122.555 98.8963ZM123.185 104.002L124.426 103.85L123.185 104.002ZM120.568 107.345L120.72 108.586L120.568 107.345ZM76.5453 112.725L76.6977 113.966L76.5453 112.725ZM73.1933 110.112L74.434 109.96L73.1933 110.112ZM66.3981 55.0279L65.1574 55.1802L66.3981 55.0279ZM67.7224 53.3545L67.8618 54.5967L67.7224 53.3545ZM71.5141 54.189C72.2002 54.1125 72.694 53.4942 72.6169 52.8082C72.5399 52.1222 71.9213 51.6281 71.2352 51.7047L71.5141 54.189ZM74.1912 51.3867C73.5051 51.4633 73.0114 52.0815 73.0884 52.7676C73.1655 53.4536 73.7841 53.9476 74.4702 53.871L74.1912 51.3867ZM77.9195 53.4858C78.6056 53.4092 79.0993 52.791 79.0222 52.1049C78.9452 51.4189 78.3265 50.9249 77.6404 51.0015L77.9195 53.4858ZM114.308 48.1715L121.317 99.066L123.794 98.7265L116.785 47.832L114.308 48.1715ZM121.315 99.0485L121.945 104.154L124.426 103.85L123.796 98.744L121.315 99.0485ZM121.945 104.154C122.063 105.112 121.381 105.987 120.416 106.105L120.72 108.586C123.052 108.301 124.714 106.183 124.426 103.85L121.945 104.154ZM120.416 106.105L76.3929 111.485L76.6977 113.966L120.72 108.586L120.416 106.105ZM76.3929 111.485C75.4272 111.603 74.5521 110.917 74.434 109.96L71.9526 110.264C72.2403 112.596 74.3666 114.251 76.6977 113.966L76.3929 111.485ZM74.434 109.96L67.6388 54.8757L65.1574 55.1802L71.9526 110.264L74.434 109.96ZM67.6388 54.8757C67.6222 54.7409 67.7182 54.6143 67.8592 54.597L67.5543 52.1157C66.0469 52.2999 64.9712 53.67 65.1574 55.1802L67.6388 54.8757ZM67.8592 54.597C67.8601 54.5969 67.8609 54.5968 67.8618 54.5967L67.5829 52.1124C67.5734 52.1134 67.5638 52.1145 67.5543 52.1157L67.8592 54.597ZM67.8618 54.5967L71.5141 54.189L71.2352 51.7047L67.5829 52.1124L67.8618 54.5967ZM74.4702 53.871L77.9195 53.4858L77.6404 51.0015L74.1912 51.3867L74.4702 53.871Z"
        fill="#ADB8CC" />
    <path fill-rule="evenodd" clip-rule="evenodd"
        d="M113.656 51.2005L119.987 97.3133L120.557 101.939C120.74 103.43 119.692 104.785 118.215 104.965L78.7789 109.795C77.3023 109.975 75.9565 108.914 75.773 107.424L69.7053 58.1374C69.5703 57.0411 70.3497 56.0435 71.4461 55.9092L75.8324 55.3721"
        fill="#F1F3F5" />
    <path
        d="M84.2188 38.75H117.078C117.806 38.75 118.504 39.0385 119.019 39.5523L128.544 49.046C129.062 49.562 129.353 50.2628 129.353 50.9937V96.5C129.353 98.0188 128.122 99.25 126.603 99.25H84.2187C82.7 99.25 81.4688 98.0188 81.4688 96.5V41.5C81.4688 39.9812 82.7 38.75 84.2188 38.75Z"
        fill="white" stroke="#ADB8CC" stroke-width="2.5" />
    <path d="M117.816 39.3008V47.9987C117.816 49.2413 118.826 50.2487 120.072 50.2487H126.038" stroke="#ADB8CC"
        stroke-width="2.5" stroke-linecap="round" stroke-linejoin="round" />
    <path
        d="M88.7344 88.5H108.286M88.7344 50.25H108.286H88.7344ZM88.7344 59.25H121.07H88.7344ZM88.7344 69H121.07H88.7344ZM88.7344 78.75H121.07H88.7344Z"
        stroke="#D9DEE2" stroke-width="2.5" stroke-linecap="round" stroke-linejoin="round" />
</svg>