<svg viewBox="0 0 169 152" fill="none" xmlns="http://www.w3.org/2000/svg">
    <path fill-rule="evenodd" clip-rule="evenodd"
        d="M109.722 100C112.361 100 114.5 102.149 114.5 104.8C114.5 107.451 112.361 109.6 109.722 109.6H82.4162C85.0552 109.6 87.1946 111.749 87.1946 114.4C87.1946 117.051 85.0552 119.2 82.4162 119.2H97.4341C100.073 119.2 102.213 121.349 102.213 124C102.213 126.651 100.073 128.8 97.4341 128.8H90.4891C87.1615 128.8 84.4641 130.949 84.4641 133.6C84.4641 135.367 85.8293 136.967 88.5599 138.4C91.1989 138.4 93.3383 140.549 93.3383 143.2C93.3383 145.851 91.1989 148 88.5599 148H31.9012C29.2621 148 27.1228 145.851 27.1228 143.2C27.1228 140.549 29.2621 138.4 31.9012 138.4H5.27844C2.63938 138.4 0.5 136.251 0.5 133.6C0.5 130.949 2.63938 128.8 5.27844 128.8H32.5838C35.2229 128.8 37.3623 126.651 37.3623 124C37.3623 121.349 35.2229 119.2 32.5838 119.2H15.518C12.8789 119.2 10.7395 117.051 10.7395 114.4C10.7395 111.749 12.8789 109.6 15.518 109.6H42.8234C40.1843 109.6 38.0449 107.451 38.0449 104.8C38.0449 102.149 40.1843 100 42.8234 100H109.722ZM109.722 119.2C112.361 119.2 114.5 121.349 114.5 124C114.5 126.651 112.361 128.8 109.722 128.8C107.082 128.8 104.943 126.651 104.943 124C104.943 121.349 107.082 119.2 109.722 119.2Z"
        fill="#F1F3F5" />
    <path
        d="M86.375 30.3491L168.498 0L165.283 12.3598C163.862 17.8251 163.856 23.5651 165.265 29.0334L166.03 32.0167C167.639 38.2691 167.395 44.8581 165.328 50.9726C163.079 57.6254 162.993 64.8251 165.081 71.5305L168.498 82.4881L86.375 33.1504V30.3491Z"
        fill="url(#paint0_linear_1267_29832)" />
    <g clip-path="url(#clip0_1267_29832)">
        <path
            d="M130.88 22.8412L130.867 24.4547L127.867 24.4777L127.88 22.8176C127.883 22.4199 128.044 22.0397 128.328 21.7607C128.611 21.4817 128.994 21.3267 129.392 21.3298C129.79 21.3329 130.17 21.4939 130.449 21.7774C130.728 22.0608 130.883 22.4435 130.88 22.8412ZM127.849 26.6991L130.849 26.6856L130.752 38.9948L129.24 41.6255L127.752 38.9712L127.849 26.6991Z"
            fill="url(#paint1_linear_1267_29832)" stroke="#909DA1" />
    </g>
    <path d="M140.64 42.5797H136V24.9297H153.65V26.9467" fill="url(#paint2_linear_1267_29832)" />
    <path d="M154.26 44.7701L141.447 47.0701L138.328 29.6981L155.701 26.5791L158.001 39.3911"
        fill="url(#paint3_linear_1267_29832)" />
    <path d="M154.255 44.7696L153.438 40.2096L157.997 39.3906L154.255 44.7696Z" fill="#909DA1" />
    <path
        d="M158.489 39.4327C158.491 39.4108 158.492 39.3887 158.49 39.3667C158.489 39.3447 158.495 39.3247 158.491 39.3027L156.191 26.4897C156.167 26.3596 156.092 26.2443 155.984 26.1686C155.875 26.093 155.741 26.0632 155.611 26.0857L154.15 26.3487V24.9297C154.15 24.7971 154.097 24.6699 154.004 24.5761C153.91 24.4824 153.783 24.4297 153.65 24.4297H136C135.867 24.4297 135.74 24.4824 135.646 24.5761C135.553 24.6699 135.5 24.7971 135.5 24.9297V42.5797C135.5 42.7123 135.553 42.8395 135.646 42.9332C135.74 43.027 135.867 43.0797 136 43.0797H140.222L140.954 47.1587C140.977 47.2891 141.052 47.405 141.16 47.4807C141.269 47.5565 141.404 47.586 141.534 47.5627L154.347 45.2627C154.38 45.2567 154.407 45.2387 154.437 45.2267C154.46 45.2177 154.483 45.2127 154.505 45.1997C154.57 45.1641 154.626 45.1146 154.67 45.0547L158.409 39.6787C158.457 39.6054 158.485 39.5204 158.489 39.4327ZM136.5 42.0797V25.4297H153.15V26.5287L138.239 29.2057C138.174 29.2171 138.113 29.2413 138.057 29.2766C138.002 29.312 137.954 29.3579 137.917 29.4118C137.879 29.4657 137.853 29.5265 137.839 29.5906C137.825 29.6548 137.823 29.7211 137.835 29.7857L140.042 42.0797H136.5ZM138.907 30.1017L155.296 27.1597L157.419 38.9877L153.351 39.7177C153.221 39.7416 153.105 39.816 153.029 39.9249C152.954 40.0337 152.924 40.1681 152.947 40.2987L153.678 44.3667L141.85 46.4897L138.907 30.1017ZM154.537 43.4937L154.019 40.6137L156.9 40.0967L154.537 43.4937Z"
        fill="#909DA1" />
    <path
        d="M95.1869 149.105C86.4443 151.122 77.4138 151.55 68.5213 150.37C67.6493 150.253 66.7782 150.122 65.9082 149.976C65.0381 149.831 64.1591 149.666 63.2713 149.481C62.6939 149.366 62.1165 149.241 61.5391 149.105L61.5925 148.315L61.7526 146.03L61.8446 144.705L62.0641 141.513L62.2865 138.318L62.4348 136.173L62.5357 134.711L62.767 131.361L63.0103 127.864L63.2535 124.35L63.5026 120.74L63.734 117.387L63.9772 113.891L64.1937 110.752L64.4429 107.142L64.6772 103.786L64.9175 100.29L65.1696 96.671L65.3921 93.452L65.6086 90.2957L65.7866 87.727L66.012 84.4872L66.2167 81.5307L66.4243 78.5117L66.6734 74.9317L66.9226 71.3219L67.1539 67.9687L67.3942 64.4723L67.4684 63.4072H89.2516L94.2941 136.179L95.0445 147.014L95.1869 149.105Z"
        fill="#C8C8C8" />
    <path
        d="M95.1869 149.105C86.4443 151.122 77.4138 151.55 68.5213 150.37C67.6493 150.253 66.7782 150.122 65.9082 149.977C65.0381 149.831 64.1591 149.666 63.2713 149.481C62.6939 149.366 62.1165 149.241 61.5391 149.105L61.5925 148.315L61.7526 146.03L61.8446 144.705L62.0641 141.513L62.2865 138.318L62.4348 136.173C62.9668 136.288 63.4987 136.398 64.0306 136.501C64.8404 136.659 65.6531 136.799 66.4658 136.934C67.2785 137.068 68.1298 137.19 68.9633 137.292C77.4051 138.361 85.9661 137.982 94.2822 136.173L95.0326 147.008L95.1869 149.105Z"
        fill="#EEEEEE" />
    <path
        d="M68.4218 63.4014C68.3345 63.6407 68.1958 63.8577 68.0154 64.0368C67.8446 64.225 67.6337 64.3719 67.3985 64.4664C67.4898 64.2292 67.6273 64.0128 67.8031 63.8298C67.9788 63.6469 68.1892 63.5012 68.4218 63.4014ZM71.4057 63.5446C70.1329 65.1527 68.7096 66.6343 67.1552 67.9688C67.7846 67.1602 68.4579 66.3874 69.1722 65.6538C69.8782 64.9105 70.6238 64.2064 71.4057 63.5446ZM71.4057 66.6532C70.0567 68.3429 68.5565 69.9048 66.9239 71.319C67.5918 70.4695 68.3036 69.6559 69.0565 68.8817C69.801 68.0987 70.5851 67.3549 71.4057 66.6532ZM71.4057 70.0004C70.6998 70.8954 69.9227 71.7427 69.1455 72.569C68.3684 73.3954 67.5468 74.189 66.6747 74.9288C67.3777 74.0338 68.1578 73.1866 68.932 72.3602C69.7061 71.5338 70.5337 70.7403 71.4057 70.0004ZM71.4057 84.2606C70.9667 84.8065 70.5159 85.3286 70.0383 85.8477C69.5608 86.3668 69.0951 86.8769 68.6146 87.3811C68.1341 87.8853 67.6417 88.3835 67.1315 88.8727L66.4019 89.5917C66.1408 89.8274 65.8887 90.069 65.6247 90.2958C65.8413 90.0213 66.0726 89.7588 66.2951 89.4903L66.9921 88.7087C67.4548 88.1866 67.9353 87.6794 68.4159 87.1752C68.8964 86.6711 69.3858 86.1729 69.8989 85.6836C70.4121 85.1943 70.8777 84.726 71.4057 84.2606ZM71.4057 87.1902C70.9489 87.754 70.4684 88.297 69.9849 88.834C69.5015 89.3709 69.0032 89.899 68.5019 90.4241C68.0006 90.9491 67.4964 91.4622 66.9743 91.9664L66.1942 92.7212C65.9243 92.9628 65.6633 93.2134 65.3904 93.4521C65.6158 93.1687 65.8561 92.8972 66.0874 92.6198L66.8112 91.8083C67.2917 91.2653 67.79 90.7403 68.2942 90.2182C68.7985 89.6961 69.3027 89.18 69.8218 88.6758C70.3409 88.1717 70.851 87.6705 71.4057 87.1902ZM71.4057 90.1764C70.9282 90.7731 70.4299 91.322 69.9226 91.8799C69.4154 92.4378 68.9053 92.9837 68.3892 93.5267C67.8731 94.0696 67.3451 94.6036 66.8052 95.1257L65.9955 95.9103C65.7196 96.1639 65.4468 96.4235 65.165 96.6711C65.3993 96.3727 65.6485 96.0953 65.8917 95.8089L66.6421 94.9676C67.1404 94.4067 67.6565 93.8638 68.1756 93.3208C68.6947 92.7779 69.2197 92.2439 69.7595 91.7218C70.2994 91.1997 70.851 90.6746 71.4057 90.1764ZM71.4057 93.5356C70.9074 94.1323 70.3883 94.7289 69.8663 95.3047C69.3443 95.8805 68.8074 96.4503 68.2675 97.0171C67.7277 97.584 67.1819 98.1359 66.6213 98.6818L65.7819 99.4963C65.4853 99.7618 65.2124 100.033 64.9188 100.29C65.165 99.9915 65.423 99.6932 65.6752 99.3948L66.4582 98.5207C66.9802 97.939 67.5171 97.3751 68.054 96.8083C68.5909 96.2415 69.1426 95.6896 69.7002 95.1436C70.2578 94.5977 70.8214 94.0547 71.4057 93.5356ZM71.4057 96.7815C70.8896 97.4079 70.3498 98.0106 69.804 98.6132C69.2582 99.2158 68.7065 99.8065 68.1489 100.388C67.5913 100.97 67.0218 101.549 66.4404 102.116L65.5713 102.963C65.2747 103.237 64.9781 103.518 64.6815 103.786C64.9366 103.47 65.2065 103.169 65.4705 102.858L66.2802 101.963C66.823 101.367 67.3807 100.77 67.9383 100.188C68.4959 99.6066 69.0654 99.0279 69.6438 98.4611C70.2222 97.8942 70.8006 97.3214 71.4057 96.7815ZM71.4057 99.893C70.8688 100.54 70.3082 101.164 69.7476 101.784C69.187 102.405 68.6087 103.014 68.0303 103.622C67.4519 104.231 66.8646 104.815 66.2506 105.412L65.3607 106.289C65.0641 106.588 64.7675 106.868 64.4383 107.145C64.7023 106.82 64.984 106.507 65.254 106.188L66.1052 105.251C66.6658 104.628 67.2442 104.022 67.8197 103.413C68.3951 102.805 68.9854 102.22 69.5845 101.623C70.1837 101.027 70.7799 100.454 71.4057 99.893ZM71.4057 103.243C70.8481 103.912 70.2667 104.559 69.6854 105.2C69.104 105.842 68.4989 106.474 67.9057 107.101C67.3125 107.727 66.6985 108.348 66.0785 108.953L65.1472 109.863C64.8298 110.162 64.5184 110.46 64.195 110.758C64.4709 110.421 64.7616 110.099 65.0434 109.768L65.9154 108.801C66.5086 108.157 67.1019 107.527 67.6951 106.901C68.2883 106.274 68.9023 105.654 69.5222 105.048C70.1421 104.443 70.7591 103.819 71.4057 103.243ZM71.4057 106.155C70.8303 106.841 70.2193 107.506 69.626 108.169C69.0328 108.831 68.4099 109.478 67.7959 110.126C67.1819 110.773 66.5531 111.412 65.9124 112.035L64.9544 112.975C64.6281 113.273 64.3078 113.592 63.9756 113.891C64.2722 113.545 64.5688 113.213 64.8506 112.873L65.7404 111.877C66.3336 111.215 66.9565 110.567 67.5735 109.92C68.1904 109.273 68.8163 108.634 69.454 108.011C70.0917 107.387 70.7413 106.758 71.4057 106.155ZM71.4057 109.398C70.8125 110.105 70.1926 110.791 69.5697 111.486C68.9468 112.181 68.312 112.841 67.6773 113.509C67.0425 114.177 66.393 114.833 65.7345 115.481L64.7467 116.45C64.4086 116.767 64.0794 117.089 63.7353 117.399C64.0319 117.044 64.3285 116.701 64.64 116.349L65.5713 115.323C66.1913 114.636 66.826 113.968 67.4637 113.3C68.1014 112.632 68.7481 111.975 69.4065 111.328C70.065 110.681 70.7205 110.021 71.4057 109.398ZM71.4057 112.512C70.7917 113.24 70.154 113.947 69.5104 114.648C68.8667 115.349 68.2171 116.042 67.5616 116.737C66.9061 117.432 66.2387 118.103 65.5595 118.768L64.5421 119.768C64.195 120.093 63.8569 120.427 63.5039 120.746C63.8006 120.379 64.1268 120.027 64.4383 119.666L65.3963 118.61C66.037 117.906 66.6925 117.217 67.348 116.522C68.0036 115.827 68.6709 115.156 69.3472 114.49C70.0235 113.825 70.7027 113.157 71.4057 112.512ZM71.4057 115.86C70.771 116.608 70.1125 117.336 69.4481 118.061C68.7837 118.786 68.1133 119.499 67.437 120.209C66.7608 120.919 66.0726 121.617 65.3607 122.298L64.3256 123.339C63.9667 123.676 63.6167 124.019 63.2548 124.35C63.5692 123.974 63.8984 123.61 64.2217 123.237L65.2095 122.148C65.8709 121.42 66.5472 120.71 67.2235 120C67.8998 119.29 68.5879 118.592 69.2849 117.912C69.982 117.232 70.682 116.525 71.4057 115.86ZM71.4057 119.123C70.7502 119.893 70.071 120.642 69.3887 121.388C68.7065 122.133 68.0125 122.879 67.3125 123.598C66.6124 124.317 65.9065 125.048 65.1887 125.758L64.109 126.823C63.7412 127.169 63.3823 127.524 63.0086 127.864C63.3349 127.477 63.673 127.104 64.0052 126.722L65.0256 125.6C65.7048 124.851 66.4019 124.108 67.1019 123.389C67.8019 122.67 68.5048 121.94 69.2256 121.23C69.9464 120.52 70.6612 119.81 71.4057 119.123ZM71.4057 134.75C70.6523 135.621 69.8752 136.471 69.0951 137.318C68.315 138.166 67.5201 138.992 66.7222 139.83C65.9243 140.669 65.1205 141.483 64.3078 142.295L63.0827 143.512C62.6675 143.909 62.2582 144.314 61.837 144.705C62.2107 144.267 62.5993 143.843 62.9789 143.41L64.1446 142.136C64.9247 141.289 65.7226 140.463 66.5175 139.625C67.3125 138.786 68.1192 137.972 68.932 137.16C69.7447 136.349 70.5544 135.537 71.4057 134.75ZM61.5938 148.315C61.9793 147.867 62.3768 147.42 62.7802 146.987L63.9667 145.681C64.7675 144.812 65.5862 143.962 66.3959 143.103C67.2057 142.244 68.0392 141.409 68.8726 140.573L70.1303 139.323C70.5544 138.915 70.9756 138.5 71.4087 138.097C71.0231 138.548 70.6256 138.992 70.2222 139.425L69.0358 140.731C68.2379 141.6 67.4192 142.45 66.6095 143.309C65.7997 144.168 64.9662 145.006 64.1328 145.842C63.2993 146.677 62.4539 147.506 61.5938 148.315ZM63.2726 149.481C63.4594 149.258 63.6522 149.037 63.845 148.819C64.0378 148.601 64.2247 148.378 64.4383 148.163L65.6247 146.868C65.6358 146.856 65.6491 146.847 65.6638 146.84C65.6786 146.833 65.6946 146.83 65.7107 146.829L65.6188 146.868C66.5502 145.86 67.5053 144.869 68.4663 143.885C68.9468 143.392 69.4392 142.912 69.9286 142.429C70.418 141.946 70.9163 141.474 71.4116 141.006C70.9638 141.528 70.5218 142.047 70.0472 142.554C69.5726 143.061 69.1248 143.574 68.6531 144.073C67.7129 145.075 66.7637 146.068 65.7938 147.041C65.7694 147.063 65.7378 147.076 65.7048 147.077L65.7968 147.038L64.551 148.267C64.3463 148.473 64.1328 148.67 63.9222 148.864C63.7116 149.058 63.4861 149.284 63.2726 149.481ZM65.9095 149.977C66.3218 149.457 66.7608 148.959 67.2027 148.467C67.6447 147.975 68.0925 147.492 68.5493 147.011C69.0061 146.531 69.4718 146.062 69.9493 145.606L70.6672 144.92C70.9133 144.699 71.1506 144.469 71.4057 144.255C71.2011 144.517 70.9816 144.765 70.771 145.021L70.1125 145.764C69.6735 146.259 69.2226 146.74 68.7629 147.22C68.3031 147.7 67.8434 148.169 67.3658 148.625C66.8883 149.082 66.4019 149.544 65.9095 149.977ZM68.5226 150.358C68.9234 149.788 69.3698 149.251 69.8574 148.753C70.3342 148.245 70.852 147.777 71.4057 147.354C70.5914 148.488 69.6207 149.5 68.5226 150.358ZM71.4057 122.366C70.7294 123.16 70.0294 123.929 69.3294 124.693C68.6294 125.457 67.9116 126.215 67.1968 126.966C66.4819 127.718 65.7523 128.458 65.0107 129.192L63.9014 130.287C63.5247 130.645 63.1539 131.009 62.7713 131.361C63.1065 130.961 63.4565 130.576 63.7976 130.185L64.8476 129.034C65.5476 128.264 66.2654 127.512 66.9832 126.761C67.701 126.009 68.4277 125.269 69.1663 124.535C69.9049 123.801 70.6405 123.073 71.4057 122.366ZM71.4057 125.478C70.7087 126.289 69.9909 127.08 69.2701 127.864C68.5493 128.649 67.8137 129.425 67.0781 130.197C66.3425 130.97 65.5951 131.731 64.8357 132.483L63.6967 133.607C63.3111 133.974 62.9285 134.35 62.537 134.711C62.8811 134.302 63.24 133.909 63.5929 133.518L64.6726 132.324C65.3904 131.534 66.126 130.761 66.8646 129.992C67.6031 129.222 68.3476 128.458 69.107 127.706C69.8663 126.955 70.6227 126.194 71.4057 125.478ZM62.2878 138.318C63.0027 137.483 63.7412 136.671 64.4857 135.866C65.2302 135.06 65.9688 134.261 66.74 133.479C67.5112 132.697 68.2646 131.904 69.0447 131.131L70.2133 129.974C70.6108 129.595 71.0023 129.21 71.3998 128.837C71.0439 129.255 70.6731 129.66 70.3112 130.075L69.2078 131.265C68.4663 132.077 67.7099 132.87 66.9536 133.652C66.1972 134.434 65.426 135.227 64.6489 136C63.8717 136.773 63.0917 137.569 62.2878 138.318ZM62.0654 141.513C62.798 140.66 63.5484 139.83 64.3167 139.004C65.0849 138.178 65.859 137.369 66.6273 136.552C67.3955 135.734 68.1934 134.941 69.0002 134.147L70.1866 132.954C70.596 132.566 70.9934 132.172 71.4087 131.79C71.0439 132.22 70.6642 132.635 70.2934 133.055L69.1544 134.299C68.3921 135.123 67.612 135.931 66.8438 136.749C66.0756 137.566 65.2807 138.363 64.4709 139.153C63.6611 139.944 62.887 140.746 62.0654 141.513ZM71.4057 82.1066C70.9786 82.6198 70.5159 83.106 70.0799 83.5983C69.6438 84.0905 69.1663 84.5589 68.7006 85.0273C68.2349 85.4957 67.7603 85.961 67.2709 86.4085L66.5413 87.0828C66.2891 87.2976 66.0459 87.5243 65.7879 87.7331C65.9985 87.4736 66.2209 87.2319 66.4374 86.9783L67.1108 86.2474C67.5616 85.7582 68.0243 85.2868 68.493 84.8184C68.9616 84.3501 69.4332 83.8847 69.9197 83.4372C70.4061 82.9897 70.8926 82.5303 71.4057 82.1066ZM71.4057 79.0219C70.9994 79.5201 70.5693 79.9974 70.1362 80.4688C69.7032 80.9402 69.2464 81.4026 68.8133 81.859C68.3803 82.3155 67.9235 82.754 67.443 83.2015L66.737 83.8548C66.4968 84.0666 66.2624 84.2844 66.0133 84.4873C66.212 84.2367 66.4285 83.998 66.6362 83.7534L67.2798 83.0404C67.7099 82.5661 68.1697 82.1066 68.6027 81.6502C69.0358 81.1937 69.5074 80.7552 69.976 80.3077C70.4447 79.8602 70.9133 79.4336 71.4057 79.0219ZM71.4057 76.2832C70.6227 77.2409 69.7773 78.1329 68.9171 79.013C68.057 79.893 67.1641 80.7403 66.218 81.5309C66.998 80.5732 67.8434 79.6782 68.7065 78.8011C69.5697 77.9241 70.4566 77.0738 71.4057 76.2832ZM71.4057 73.4521C70.6583 74.3769 69.8455 75.2421 69.0328 76.0863C68.2201 76.9306 67.351 77.751 66.4374 78.5118C67.1819 77.5869 67.9947 76.7218 68.8103 75.8775C69.626 75.0332 70.4921 74.2128 71.4057 73.4521Z"
        fill="#7F7F7F" />
    <path d="M67.4609 48.5088H89.2561V63.4014H67.4609V48.5088Z" fill="#EEEEEE" />
    <path d="M70.2188 36.4443H86.5028V48.5088H70.2188V36.4443Z" fill="#C8C8C8" />
    <path d="M73.125 24.2539H83.5895V36.4436H73.125V24.2539Z" fill="#EEEEEE" />
    <path
        d="M85.3144 26.6442H71.4062C71.4072 24.3294 72.0216 22.0567 73.1859 20.06L78.3648 11.1758L83.5407 20.06C84.7051 22.0567 85.3194 24.3294 85.3204 26.6442H85.3144Z"
        fill="#C8C8C8" />
    <path
        d="M89.5088 67.0616C88.9354 66.2233 88.1021 65.5996 87.1391 65.2879C86.176 64.9762 85.1375 64.9939 84.1855 65.3384C83.2336 65.6829 82.4219 66.3347 81.8771 67.1921C81.3322 68.0494 81.085 69.0641 81.174 70.0777L82.1944 81.5365L90.461 80.7907L89.5088 67.0616ZM91.1966 91.4471C90.7231 90.971 90.1515 90.6053 89.5221 90.3759C88.8927 90.1465 88.2209 90.059 87.5541 90.1195C86.955 90.1735 86.3724 90.3457 85.8394 90.6262C85.3065 90.9067 84.8337 91.29 84.4481 91.7543C84.0625 92.2186 83.7716 92.7548 83.592 93.3322C83.4125 93.9096 83.3477 94.5169 83.4016 95.1195L84.4219 106.575L92.208 105.877L91.1966 91.4471ZM92.9733 117.094C92.3647 116.884 91.7189 116.805 91.0779 116.862C90.4788 116.916 89.8962 117.088 89.3632 117.368C88.8303 117.649 88.3575 118.032 87.9719 118.497C87.5863 118.961 87.2954 119.497 87.1158 120.074C86.9362 120.652 86.8715 121.259 86.9253 121.862L87.9457 133.318L94.0559 132.769L92.9733 117.094Z"
        fill="#EEEEEE" />
    <path d="M83.5938 30.3486H86.3794V33.1504H83.5938V30.3486Z" fill="#7F7F7F" />
    <path
        d="M28.4194 44.714C31.5399 42.7426 34.4616 40.4695 37.1428 37.927C37.8131 37.2945 38.4597 36.6352 39.1034 35.9759C39.4 35.6358 39.7441 35.3077 40.0407 34.9616C40.3373 34.6155 40.6339 34.2546 40.9098 33.8906C42.028 32.4258 43.0869 30.9073 44.1488 29.3918L47.3344 24.8452C47.8683 24.0905 48.3992 23.3297 48.9539 22.5869C49.4974 21.8318 50.1133 21.1324 50.7929 20.4986C52.2079 19.2611 53.949 18.4622 55.8057 18.1985C57.6417 17.9404 59.51 18.0417 61.3078 18.4968C59.5089 18.0924 57.6501 18.0337 55.8294 18.3238C54.0129 18.6067 52.3164 19.4117 50.9442 20.6418C50.291 21.2838 49.6954 21.9826 49.1645 22.7301C48.6187 23.4729 48.0937 24.2217 47.5628 24.9944L44.389 29.5618C43.3212 31.0744 42.2564 32.5869 41.1263 34.0577C40.8297 34.4216 40.5538 34.7856 40.2364 35.1376C39.9191 35.4896 39.6017 35.8148 39.2843 36.1549C38.6377 36.8172 37.9792 37.4705 37.294 38.0941C35.937 39.3525 34.5152 40.5385 33.0347 41.6472C31.5518 42.7515 30.0111 43.7753 28.4194 44.714ZM49.1348 33.1149C49.43 31.8587 49.8741 30.6428 50.4577 29.4932C51.0505 28.3404 51.8091 27.2819 52.709 26.3518C53.6126 25.4179 54.6666 24.6443 55.8264 24.0636C56.9843 23.5122 58.1727 23.0281 59.3858 22.6137C60.5897 22.1925 61.7691 21.7034 62.9185 21.1489C64.063 20.5862 65.1733 19.9557 66.2435 19.2605C67.3185 18.5701 68.3525 17.817 69.3401 17.0051C70.3368 16.1997 71.28 15.3315 72.1995 14.4365C70.4561 16.3271 68.5025 18.0097 66.377 19.4514C64.2372 20.8853 61.9261 22.042 59.4985 22.8942C58.2865 23.2966 57.0982 23.7678 55.9391 24.3053C54.8021 24.8709 53.7626 25.6162 52.8603 26.5129C51.048 28.2999 49.8437 30.6507 49.1348 33.1149ZM27.3516 89.8214C30.224 88.8964 32.9871 87.6579 35.5915 86.1281C36.8906 85.3644 38.1394 84.5201 39.3614 83.6311C40.5835 82.742 41.7996 81.8411 42.9386 80.8685C43.5085 80.3788 44.0492 79.8558 44.5581 79.3023C45.0692 78.7607 45.5142 78.1598 45.884 77.5123C46.2492 76.8758 46.4529 76.1586 46.4772 75.424C46.462 74.6839 46.2466 73.962 45.8543 73.3357C45.089 72.0857 43.8195 71.0803 42.3691 70.8685C41.6453 70.7715 40.9095 70.9029 40.2631 71.2444C39.6142 71.5885 39.0599 72.0886 38.6496 72.7003C38.2418 73.3025 37.9946 74 37.9318 74.7259C37.9065 75.0911 37.9275 75.458 37.994 75.8178C38.0688 76.1787 38.1812 76.5307 38.3292 76.8679C38.6279 77.5453 39.0628 78.1531 39.6065 78.6532C40.1501 79.1532 40.7908 79.5347 41.4881 79.7737C42.9 80.2271 44.4543 80.072 45.881 79.708C47.33 79.3186 48.7331 78.7735 50.0662 78.0821C51.4042 77.4045 52.6936 76.6339 53.9251 75.776C55.1584 74.9109 56.3048 73.9267 57.3481 72.8375C59.4409 70.6463 61.1418 68.108 62.3757 65.3345C61.1808 68.1322 59.5151 70.7017 57.4519 72.93C56.4114 74.0343 55.266 75.0335 54.0319 75.9133C52.7954 76.7908 51.5001 77.5813 50.1552 78.279C48.8163 78.9924 47.4026 79.5537 45.9403 79.9527C45.2015 80.1453 44.4453 80.2622 43.6831 80.3017C42.9127 80.3449 42.1407 80.252 41.4021 80.0272C40.6678 79.777 39.9927 79.3771 39.419 78.8525C38.8454 78.3279 38.3855 77.6898 38.0682 76.9783C37.9097 76.6212 37.7894 76.2482 37.7093 75.8655C37.6361 75.4824 37.6112 75.0915 37.6351 74.7021C37.7055 73.9172 37.9785 73.1644 38.4271 72.5183C38.8659 71.8673 39.4579 71.3354 40.1504 70.97C40.8505 70.6033 41.6465 70.4646 42.4284 70.5732C43.198 70.6939 43.9269 71.001 44.5522 71.4682C45.1753 71.9315 45.7032 72.512 46.1064 73.1776C46.5209 73.8451 46.7475 74.6133 46.7619 75.4002C46.7329 76.1831 46.5118 76.9466 46.1183 77.6227C45.3589 78.9741 44.2407 80.0451 43.0958 81.0356C41.9509 82.026 40.7229 82.9061 39.4771 83.7772C38.2514 84.6655 36.9812 85.4899 35.6716 86.2474C33.037 87.7421 30.2468 88.9406 27.3516 89.8214Z"
        fill="#EEEEEE" />
    <path
        d="M99.5268 7.43457C99.6899 8.21619 99.7967 9.0008 99.8827 9.78541C99.9687 10.57 100.028 11.3606 100.076 12.1482C100.123 12.9358 100.141 13.7263 100.138 14.5169C100.142 15.3138 100.107 16.1103 100.031 16.9035C99.8679 16.1189 99.7611 15.3343 99.6751 14.5497C99.5891 13.7651 99.5298 12.9745 99.4823 12.187C99.4348 11.3994 99.417 10.6088 99.423 9.81822C99.4175 9.02242 99.4521 8.22684 99.5268 7.43457Z"
        fill="#7D7D7D" />
    <path
        d="M104.488 11.9094C103.714 12.0695 102.933 12.1899 102.147 12.2704C101.367 12.3599 100.584 12.4136 99.7983 12.4613C99.0123 12.5091 98.2292 12.5299 97.4432 12.524C96.651 12.5295 95.859 12.4947 95.0703 12.4196C95.8438 12.2595 96.6249 12.139 97.4106 12.0586C98.1907 11.9691 98.9737 11.9154 99.7598 11.8677C100.546 11.8199 101.329 11.802 102.115 11.805C102.901 11.808 103.696 11.8289 104.488 11.9094ZM105.739 13.234C105.883 13.7514 105.988 14.279 106.054 14.8122C106.125 15.3432 106.178 15.8712 106.205 16.4023C106.232 16.9333 106.241 17.4643 106.226 17.9983C106.217 18.5362 106.169 19.0727 106.081 19.6033C105.936 19.086 105.83 18.5584 105.763 18.0252C105.692 17.4941 105.642 16.9661 105.612 16.4351C105.582 15.9041 105.579 15.373 105.594 14.839C105.603 14.3011 105.652 13.7646 105.739 13.234Z"
        fill="#7D7D7D" />
    <path
        d="M109.076 16.2471C108.56 16.3917 108.035 16.4974 107.504 16.5633C106.979 16.6379 106.454 16.6886 105.926 16.7155C105.398 16.7423 104.867 16.7513 104.339 16.7364C103.803 16.7274 103.269 16.6785 102.74 16.5902C103.256 16.4464 103.781 16.3397 104.312 16.271C104.837 16.1994 105.365 16.1487 105.893 16.1218C106.421 16.095 106.949 16.086 107.48 16.1009C108.015 16.1098 108.548 16.1586 109.076 16.2471ZM28.2191 92.2525C28.3783 93.0305 28.498 93.8161 28.578 94.6063C28.667 95.3909 28.7204 96.1815 28.7708 96.9691C28.8213 97.7567 28.8361 98.5473 28.8302 99.3378C28.8373 100.135 28.8026 100.931 28.7263 101.724C28.5668 100.947 28.4479 100.161 28.3704 99.3707C28.2814 98.586 28.2251 97.7985 28.1776 97.0109C28.1302 96.2233 28.1124 95.4327 28.1183 94.6392C28.1117 93.8424 28.1454 93.0458 28.2191 92.2525Z"
        fill="#7D7D7D" />
    <path
        d="M33.1831 96.7305C32.406 96.8946 31.6259 97.002 30.8428 97.0885C30.0598 97.175 29.2767 97.2347 28.4936 97.2824C27.7106 97.3302 26.9246 97.3481 26.1385 97.3451C25.3525 97.3421 24.5635 97.3212 23.7656 97.2407C24.5391 97.0806 25.3202 96.9601 26.1059 96.8797C26.886 96.7902 27.6691 96.7335 28.4521 96.6858C29.2352 96.638 30.0212 96.6201 30.8102 96.6261C31.6024 96.6205 32.3944 96.6554 33.1831 96.7305ZM34.4289 98.0521C34.5709 98.571 34.6759 99.0994 34.7433 99.6333C34.8145 100.161 34.8649 100.692 34.8946 101.223C34.9242 101.754 34.9301 102.285 34.9153 102.819C34.9065 103.357 34.8579 103.894 34.77 104.424C34.6241 103.906 34.518 103.378 34.4526 102.843C34.3814 102.315 34.328 101.784 34.3013 101.253C34.2746 100.722 34.2687 100.191 34.2835 99.6571C34.2925 99.1192 34.341 98.5828 34.4289 98.0521Z"
        fill="#7D7D7D" />
    <path
        d="M37.7653 101.068C37.2495 101.211 36.7241 101.317 36.1933 101.384C35.6683 101.456 35.1403 101.507 34.6123 101.537C34.0844 101.566 33.5564 101.572 33.0255 101.557C32.4907 101.548 31.9573 101.5 31.4297 101.411C31.9448 101.265 32.4704 101.158 33.0017 101.092C33.5267 101.02 34.0547 100.967 34.5827 100.94C35.1107 100.913 35.6386 100.907 36.1696 100.922C36.7044 100.931 37.2378 100.98 37.7653 101.068ZM156.912 86.459C157.075 87.2406 157.182 88.0282 157.268 88.8128C157.354 89.5974 157.413 90.388 157.461 91.1756C157.508 91.9632 157.526 92.7537 157.523 93.5443C157.528 94.3412 157.492 95.1377 157.416 95.9309C157.253 95.1493 157.146 94.3647 157.06 93.5771C156.974 92.7895 156.915 92.0049 156.867 91.2173C156.82 90.4298 156.802 89.6392 156.808 88.8307C156.803 88.0389 156.838 87.2473 156.912 86.459Z"
        fill="#7D7D7D" />
    <path
        d="M161.871 90.9366C161.093 91.1007 160.313 91.2081 159.53 91.2946C158.747 91.3811 157.967 91.4408 157.181 91.4885C156.395 91.5362 155.612 91.5571 154.826 91.5511C154.034 91.5567 153.242 91.5218 152.453 91.4467C153.227 91.2867 154.008 91.1662 154.793 91.0857C155.573 90.9962 156.357 90.9396 157.143 90.8918C157.929 90.8441 158.712 90.8262 159.498 90.8322C160.29 90.8266 161.082 90.8615 161.871 90.9366ZM163.122 92.2582C163.266 92.7767 163.371 93.3052 163.437 93.8393C163.508 94.3674 163.561 94.8984 163.588 95.4294C163.615 95.9604 163.624 96.4915 163.609 97.0255C163.6 97.5634 163.551 98.0999 163.463 98.6305C163.319 98.112 163.213 97.5835 163.146 97.0493C163.075 96.5213 163.024 95.9933 162.995 95.4622C162.965 94.9312 162.962 94.3972 162.977 93.8632C162.986 93.3253 163.035 92.7888 163.122 92.2582Z"
        fill="#7D7D7D" />
    <path
        d="M166.461 95.2743C165.945 95.4189 165.42 95.5246 164.889 95.5905C164.364 95.6621 163.839 95.7158 163.311 95.7427C162.783 95.7695 162.252 95.7785 161.724 95.7636C161.188 95.7546 160.654 95.7057 160.125 95.6174C160.64 95.4721 161.166 95.3654 161.697 95.2982C162.222 95.2266 162.75 95.1729 163.278 95.146C163.806 95.1192 164.334 95.1132 164.865 95.1281C165.4 95.137 165.933 95.1858 166.461 95.2743Z"
        fill="#7D7D7D" />
    <path
        d="M66.8265 128.926H89.387C95.213 128.926 100.8 131.254 104.92 135.397C109.04 139.541 111.354 145.16 111.354 151.02H44.8594C44.8594 145.16 47.1738 139.541 51.2934 135.397C55.4131 131.254 61.0005 128.926 66.8265 128.926Z"
        fill="#A3A3A3" />
    <path
        d="M53.6457 144.433C53.6539 144.6 53.6284 144.766 53.5707 144.922C53.513 145.078 53.4245 145.221 53.3103 145.341C53.1962 145.462 53.0589 145.558 52.9067 145.624C52.7545 145.689 52.5907 145.723 52.4252 145.723C52.2596 145.723 52.0958 145.689 51.9436 145.624C51.7915 145.558 51.6542 145.462 51.54 145.341C51.4259 145.221 51.3373 145.078 51.2796 144.922C51.222 144.766 51.1965 144.6 51.2046 144.433C51.2046 143.756 52.047 143.801 52.7233 143.801C53.3995 143.801 53.6457 143.756 53.6457 144.433ZM65.3738 137.336C65.3738 138.622 64.042 139.067 62.7666 139.067C62.153 139.067 61.5645 138.821 61.1306 138.385C60.6968 137.949 60.453 137.357 60.453 136.74C60.453 136.122 60.6968 135.531 61.1306 135.094C61.5645 134.658 62.153 134.413 62.7666 134.413C64.042 134.413 65.3738 136.053 65.3738 137.336ZM85.585 137.614C85.585 138.231 85.3413 138.823 84.9074 139.259C84.4735 139.695 83.8851 139.941 83.2715 139.941C81.996 139.941 81.2545 139.496 81.2545 138.21C81.2545 136.925 81.996 135.287 83.2715 135.287C83.8851 135.287 84.4735 135.532 84.9074 135.968C85.3413 136.405 85.585 136.997 85.585 137.614ZM107.098 145.842C107.098 147.127 105.767 147.572 104.488 147.572C104.184 147.572 103.884 147.512 103.603 147.395C103.322 147.278 103.067 147.106 102.852 146.89C102.637 146.674 102.467 146.418 102.351 146.135C102.234 145.853 102.175 145.551 102.175 145.245C102.175 143.962 103.509 143.518 104.785 143.518C105.398 143.518 105.986 143.762 106.42 144.198C106.854 144.634 107.098 145.225 107.098 145.842ZM73.7294 146.519C73.7294 146.824 73.6696 147.127 73.5533 147.409C73.437 147.692 73.2666 147.948 73.0518 148.164C72.8369 148.38 72.5819 148.552 72.3012 148.669C72.0205 148.786 71.7197 148.846 71.4158 148.846C70.1374 148.846 68.8056 147.208 68.8056 145.922C68.8056 145.305 69.0494 144.713 69.4833 144.277C69.9172 143.84 70.5056 143.595 71.1192 143.595C72.3947 143.595 73.7294 145.236 73.7294 146.519ZM92.1046 146.307C92.1046 146.948 91.5885 146.826 90.9478 146.826C90.3071 146.826 90.0906 146.904 90.0906 146.259C90.0906 145.951 90.2121 145.656 90.4284 145.438C90.6447 145.219 90.9381 145.097 91.2444 145.096C91.8851 145.096 92.1046 145.663 92.1046 146.307ZM97.9538 134.126C97.9538 134.768 97.7314 135.883 97.0936 135.883C96.7874 135.883 96.4936 135.761 96.2767 135.544C96.0599 135.326 95.9376 135.031 95.9368 134.723C95.9368 134.078 96.1593 132.963 96.797 132.963C97.1038 132.963 97.3981 133.085 97.615 133.303C97.8319 133.522 97.9538 133.818 97.9538 134.126ZM77.0604 132.074C77.0604 132.837 76.1468 132.858 75.3875 132.858C75.0339 132.842 74.7003 132.689 74.4559 132.431C74.2114 132.174 74.0751 131.832 74.0751 131.476C74.0751 131.12 74.2114 130.777 74.4559 130.52C74.7003 130.262 75.0339 130.109 75.3875 130.093C76.1468 130.093 77.0604 131.31 77.0604 132.074Z"
        fill="#7F7F7F" />
    <path
        d="M42.6369 145.287C43.4674 143.36 42.8415 142.178 42.8415 140.812C42.8415 137.939 41.8864 134.684 40.172 132.644C39.7129 134.106 39.4681 135.627 39.4453 137.16C39.4542 140.027 40.9343 143.24 42.6369 145.287Z"
        fill="#C8C8C8" />
    <path
        d="M46.6108 147.348C49.8347 147.348 52.4481 142.793 52.4481 137.175C52.4481 131.557 49.8347 127.002 46.6108 127.002C43.3869 127.002 40.7734 131.557 40.7734 137.175C40.7734 142.793 43.3869 147.348 46.6108 147.348Z"
        fill="white" />
    <path
        d="M32.2937 141.128C32.2937 142.262 31.8369 143.168 32.4628 144.708C35.1323 142.557 37.1581 138.947 37.1581 135.227C37.122 133.916 36.9329 132.615 36.5946 131.349C33.8954 133.476 32.2937 137.408 32.2937 141.128Z"
        fill="#7D7D7D" />
    <path
        d="M30.2592 144.812C33.4831 144.812 36.0966 140.257 36.0966 134.639C36.0966 129.02 33.4831 124.466 30.2592 124.466C27.0353 124.466 24.4219 129.02 24.4219 134.639C24.4219 140.257 27.0353 144.812 30.2592 144.812Z"
        fill="white" />
    <path
        d="M30.2592 144.812C33.4831 144.812 36.0966 140.257 36.0966 134.639C36.0966 129.02 33.4831 124.466 30.2592 124.466C27.0353 124.466 24.4219 129.02 24.4219 134.639C24.4219 140.257 27.0353 144.812 30.2592 144.812Z"
        stroke="#C8C8C8" stroke-miterlimit="10" />
    <path
        d="M30.26 129.556V151.02M30.26 135.531L27.4007 132.241M30.26 138.777L26.7422 134.732M30.26 142.121L26.7422 138.076M30.26 135.537L33.1283 132.241M30.26 138.783L33.7779 134.738M30.26 142.127L33.7779 138.082"
        stroke="#C8C8C8" stroke-linecap="round" stroke-linejoin="round" />
    <path
        d="M46.6108 147.348C49.8347 147.348 52.4481 142.793 52.4481 137.175C52.4481 131.557 49.8347 127.002 46.6108 127.002C43.3869 127.002 40.7734 131.557 40.7734 137.175C40.7734 142.793 43.3869 147.348 46.6108 147.348Z"
        stroke="#7D7D7D" stroke-linecap="round" stroke-linejoin="round" />
    <path
        d="M46.6116 132.092V151.021M46.6116 138.067L43.7493 134.777M46.6116 141.313L43.0938 137.268M46.6116 144.657L43.0938 140.612M46.6116 138.076L49.4798 134.777M46.6116 141.319L50.1294 137.274M46.6116 144.666L50.1294 140.621"
        stroke="#7D7D7D" stroke-linecap="round" stroke-linejoin="round" />
    <path d="M18.5 151.021H134.126" stroke="#545454" stroke-linecap="round" stroke-linejoin="round" />
    <defs>
        <linearGradient id="paint0_linear_1267_29832" x1="84.8385" y1="31.5921" x2="165.566" y2="35.2403"
            gradientUnits="userSpaceOnUse">
            <stop stop-color="#E4E4E4" />
            <stop offset="1" stop-color="#EBEBEB" stop-opacity="0" />
        </linearGradient>
        <linearGradient id="paint1_linear_1267_29832" x1="123.701" y1="25.6136" x2="134.936" y2="37.0265"
            gradientUnits="userSpaceOnUse">
            <stop stop-color="#FDFDFD" />
            <stop offset="1" stop-color="#BEC5C7" />
        </linearGradient>
        <linearGradient id="paint2_linear_1267_29832" x1="144.825" y1="24.9297" x2="144.825" y2="42.5797"
            gradientUnits="userSpaceOnUse">
            <stop stop-color="#FDFDFD" />
            <stop offset="1" stop-color="#BEC5C7" />
        </linearGradient>
        <linearGradient id="paint3_linear_1267_29832" x1="148.165" y1="26.5791" x2="148.165" y2="47.0701"
            gradientUnits="userSpaceOnUse">
            <stop stop-color="#FDFDFD" />
            <stop offset="1" stop-color="#BEC5C7" />
        </linearGradient>
        <clipPath id="clip0_1267_29832">
            <rect width="16" height="16" fill="white" transform="translate(118 31.2246) rotate(-44.5488)" />
        </clipPath>
    </defs>
</svg>