<svg viewBox="0 0 24 25" fill="none" xmlns="http://www.w3.org/2000/svg">
    <path
        d="M19.972 6.317l-.461.193.46-.193zm-.384.376a.5.5 0 10.922-.386l-.922.386zm-2.902-4.157a.5.5 0 10-.372.928l.372-.928zm-.019.53l-.186.465.186-.464zm-12.59 3.25l.46.194-.46-.193zm-.538-.01a.5.5 0 00.922.387l-.922-.386zm4.195-2.842a.5.5 0 00-.371-.928l.371.928zm-.353-.397l-.185-.464.185.464zM18.24 9.475l-.496.057.497-.057zm.448 3.94l.496-.056-.496.056zm-13.374 0l-.497-.056.497.056zm.447-3.94l.497.057-.497-.057zm-1.312 5.897l-.381-.324.38.324zm15.104 0l-.38.324.38-.324zM14.27 4.874h-.5a.5.5 0 00.338.473l.162-.473zm-4.54 0l.162.473a.5.5 0 00.338-.473h-.5zm5.738 15.801a.5.5 0 00-.936-.35l.936.35zm-6-.35a.5.5 0 00-.936.35l.936-.35zM19.511 6.51l.077.183.922-.386-.077-.184-.922.387zm-3.197-3.046l.168.067.37-.928-.166-.067-.372.928zm4.119 2.66a6.5 6.5 0 00-3.58-3.521l-.372.928a5.5 5.5 0 013.03 2.98l.922-.388zm-16.817 0l-.077.183.922.386.077-.183-.922-.386zm3.747-3.588l-.167.067.371.928.167-.067-.371-.928zM4.538 6.51a5.5 5.5 0 013.03-2.979l-.372-.928a6.5 6.5 0 00-3.58 3.52l.922.387zM17.778 18H6.222v1h11.554v-1zm-.035-8.468l.447 3.94.993-.113-.447-3.94-.993.113zM5.81 13.472l.447-3.94-.993-.113-.448 3.94.994.113zm-.981 2.224c.546-.642.889-1.41.981-2.224l-.994-.113a3.156 3.156 0 01-.749 1.689l.762.648zm13.36-2.224c.093.813.436 1.582.983 2.224l.761-.648a3.156 3.156 0 01-.75-1.69l-.993.114zM6.224 18c-.742 0-1.29-.37-1.55-.827-.255-.45-.248-1.002.156-1.477l-.762-.648c-.693.814-.713 1.826-.264 2.618C4.248 18.45 5.136 19 6.223 19v-1zm11.554 1c1.087 0 1.975-.55 2.42-1.334.45-.792.429-1.804-.264-2.618l-.761.648c.404.475.41 1.027.155 1.477-.26.458-.808.827-1.55.827v1zM14.77 4.874V4.77h-1v.104h1zm3.966 4.545C18.47 7.07 16.724 5.186 14.432 4.4l-.324.946c1.992.682 3.419 2.284 3.635 4.185l.993-.113zM10.23 4.874V4.77h-1v.104h1zM6.257 9.532C6.473 7.63 7.9 6.029 9.892 5.347L9.568 4.4c-2.292.785-4.038 2.67-4.304 5.018l.993.113zM12 3c.977 0 1.77.792 1.77 1.77h1A2.77 2.77 0 0012 2v1zm0-1a2.77 2.77 0 00-2.77 2.77h1c0-.978.793-1.77 1.77-1.77V2zm2.532 18.325C14.172 21.287 13.185 22 12 22v1c1.585 0 2.956-.957 3.468-2.325l-.936-.35zM12 22c-1.185 0-2.171-.713-2.532-1.675l-.936.35C9.044 22.043 10.415 23 12 23v-1z"
        fill="currentColor" />
</svg>