<svg viewBox="0 0 20 20" fill="none" xmlns="http://www.w3.org/2000/svg">
    <path
        d="M15 10.983v-2.65a5 5 0 00-4.166-4.925v-.909a.833.833 0 10-1.667 0v.909a5 5 0 00-4.166 4.925v2.65a2.5 2.5 0 00-1.667 2.35v1.666a.833.833 0 00.833.834h2.617a3.333 3.333 0 006.433 0h2.617a.833.833 0 00.833-.834v-1.666a2.5 2.5 0 00-1.666-2.35zm-8.333-2.65a3.333 3.333 0 016.667 0v2.5H6.667v-2.5zm3.334 8.333a1.666 1.666 0 01-1.434-.833h2.867a1.667 1.667 0 01-1.433.833zm5-2.5H5v-.833a.833.833 0 01.833-.834h8.333a.833.833 0 01.834.834v.833z"
        fill="currentColor" />
</svg>