<svg viewBox="0 0 16 16" fill="none" xmlns="http://www.w3.org/2000/svg">
    <circle cx="8" cy="8" r="6" fill="currentColor" stroke="currentColor" stroke-width="4" />
    <path fill-rule="evenodd" clip-rule="evenodd"
        d="M3.75 8C3.75 5.65279 5.65279 3.75 8 3.75C8.90271 3.75 9.73969 4.03144 10.428 4.51136L4.51136 10.428C4.03144 9.73969 3.75 8.90271 3.75 8ZM5.57202 11.4886C6.26031 11.9686 7.09729 12.25 8 12.25C10.3472 12.25 12.25 10.3472 12.25 8C12.25 7.09729 11.9686 6.26031 11.4886 5.57202L5.57202 11.4886ZM8 2.25C4.82436 2.25 2.25 4.82436 2.25 8C2.25 11.1756 4.82436 13.75 8 13.75C11.1756 13.75 13.75 11.1756 13.75 8C13.75 4.82436 11.1756 2.25 8 2.25Z"
        fill="white" />
</svg>