<svg viewBox="0 0 92 92" fill="none" xmlns="http://www.w3.org/2000/svg">
    <path
        d="M15.333 74.7493C15.333 76.2743 14.7272 77.7369 13.6489 78.8152C12.5705 79.8935 11.108 80.4993 9.58301 80.4993C8.05801 80.4993 6.59548 79.8935 5.51714 78.8152C4.43881 77.7369 3.83301 76.2743 3.83301 74.7493C3.83301 71.5677 6.40134 65.166 9.58301 65.166C12.7647 65.166 15.333 71.5677 15.333 74.7493ZM76.6663 74.7493C76.6663 76.2743 77.2721 77.7369 78.3505 78.8152C79.4288 79.8935 80.8913 80.4993 82.4163 80.4993C83.9413 80.4993 85.4039 79.8935 86.4822 78.8152C87.5605 77.7369 88.1663 76.2743 88.1663 74.7493C88.1663 71.5677 85.598 65.166 82.4163 65.166C79.2347 65.166 76.6663 71.5677 76.6663 74.7493Z"
        fill="#4CC3C7" />
    <path d="M23 34.5H69V88.1667H23V34.5Z" fill="#F8F9F9" />
    <path d="M38.333 69H53.6663V88.1667H38.333V69Z" fill="#4CC3C7" />
    <path d="M24.917 7.66602H67.0837V34.4993H24.917V7.66602Z" fill="#F8F9F9" />
    <path
        d="M88.167 86.25H84.3337V82.1483C85.9752 81.7245 87.43 80.7685 88.4704 79.4298C89.5108 78.0912 90.0781 76.4454 90.0837 74.75C90.0837 70.8017 87.0937 63.25 82.417 63.25C77.7403 63.25 74.7503 70.8017 74.7503 74.75C74.7558 76.4454 75.3232 78.0912 76.3636 79.4298C77.404 80.7685 78.8587 81.7245 80.5003 82.1483V86.25H70.917V36.4167C71.4253 36.4167 71.9128 36.2147 72.2723 35.8553C72.6317 35.4958 72.8337 35.0083 72.8337 34.5C72.8337 33.9917 72.6317 33.5042 72.2723 33.1447C71.9128 32.7853 71.4253 32.5833 70.917 32.5833H69.0003V7.66667C69.0003 7.15834 68.7984 6.67082 68.4389 6.31138C68.0795 5.95193 67.592 5.75 67.0837 5.75H24.917C24.4087 5.75 23.9211 5.95193 23.5617 6.31138C23.2023 6.67082 23.0003 7.15834 23.0003 7.66667V32.5833H21.0837C20.5753 32.5833 20.0878 32.7853 19.7284 33.1447C19.3689 33.5042 19.167 33.9917 19.167 34.5C19.167 35.0083 19.3689 35.4958 19.7284 35.8553C20.0878 36.2147 20.5753 36.4167 21.0837 36.4167V86.25H11.5003V82.1483C13.1419 81.7245 14.5967 80.7685 15.6371 79.4298C16.6775 78.0912 17.2448 76.4454 17.2503 74.75C17.2503 70.8017 14.2603 63.25 9.58366 63.25C4.90699 63.25 1.91699 70.8017 1.91699 74.75C1.9225 76.4454 2.48983 78.0912 3.53023 79.4298C4.57063 80.7685 6.02541 81.7245 7.66699 82.1483V86.25H3.83366C3.32533 86.25 2.83782 86.4519 2.47837 86.8114C2.11893 87.1708 1.91699 87.6583 1.91699 88.1667C1.91699 88.675 2.11893 89.1625 2.47837 89.522C2.83782 89.8814 3.32533 90.0833 3.83366 90.0833H88.167C88.6753 90.0833 89.1628 89.8814 89.5223 89.522C89.8817 89.1625 90.0837 88.675 90.0837 88.1667C90.0837 87.6583 89.8817 87.1708 89.5223 86.8114C89.1628 86.4519 88.6753 86.25 88.167 86.25ZM78.5837 74.75C78.5837 71.875 80.9795 67.0833 82.417 67.0833C83.8545 67.0833 86.2503 71.875 86.2503 74.75C86.2503 75.7667 85.8465 76.7417 85.1276 77.4606C84.4087 78.1795 83.4337 78.5833 82.417 78.5833C81.4003 78.5833 80.4253 78.1795 79.7064 77.4606C78.9875 76.7417 78.5837 75.7667 78.5837 74.75ZM5.75033 74.75C5.75033 71.875 8.14616 67.0833 9.58366 67.0833C11.0212 67.0833 13.417 71.875 13.417 74.75C13.417 75.7667 13.0131 76.7417 12.2942 77.4606C11.5753 78.1795 10.6003 78.5833 9.58366 78.5833C8.567 78.5833 7.59197 78.1795 6.87308 77.4606C6.15419 76.7417 5.75033 75.7667 5.75033 74.75ZM26.8337 9.58333H65.167V32.5833H26.8337V9.58333ZM40.2503 86.25V70.9167H51.7503V86.25H40.2503ZM55.5837 86.25V69C55.5837 68.4917 55.3817 68.0042 55.0223 67.6447C54.6628 67.2853 54.1753 67.0833 53.667 67.0833H38.3337C37.8253 67.0833 37.3378 67.2853 36.9784 67.6447C36.6189 68.0042 36.417 68.4917 36.417 69V86.25H24.917V36.4167H67.0837V86.25H55.5837Z"
        fill="#101828" />
    <path
        d="M36.417 17.25H32.5837C31.5251 17.25 30.667 18.1081 30.667 19.1667V26.8333C30.667 27.8919 31.5251 28.75 32.5837 28.75H36.417C37.4755 28.75 38.3337 27.8919 38.3337 26.8333V19.1667C38.3337 18.1081 37.4755 17.25 36.417 17.25Z"
        fill="#4CC3C7" />
    <path
        d="M47.917 17.25H44.0837C43.0251 17.25 42.167 18.1081 42.167 19.1667V26.8333C42.167 27.8919 43.0251 28.75 44.0837 28.75H47.917C48.9755 28.75 49.8337 27.8919 49.8337 26.8333V19.1667C49.8337 18.1081 48.9755 17.25 47.917 17.25Z"
        fill="#4CC3C7" />
    <path
        d="M59.417 17.25H55.5837C54.5251 17.25 53.667 18.1081 53.667 19.1667V26.8333C53.667 27.8919 54.5251 28.75 55.5837 28.75H59.417C60.4755 28.75 61.3337 27.8919 61.3337 26.8333V19.1667C61.3337 18.1081 60.4755 17.25 59.417 17.25Z"
        fill="#4CC3C7" />
    <path
        d="M47.917 42.166H44.0837C43.0251 42.166 42.167 43.0241 42.167 44.0827V47.916C42.167 48.9746 43.0251 49.8327 44.0837 49.8327H47.917C48.9755 49.8327 49.8337 48.9746 49.8337 47.916V44.0827C49.8337 43.0241 48.9755 42.166 47.917 42.166Z"
        fill="#4CC3C7" />
    <path
        d="M36.417 42.166H32.5837C31.5251 42.166 30.667 43.0241 30.667 44.0827V47.916C30.667 48.9746 31.5251 49.8327 32.5837 49.8327H36.417C37.4755 49.8327 38.3337 48.9746 38.3337 47.916V44.0827C38.3337 43.0241 37.4755 42.166 36.417 42.166Z"
        fill="#4CC3C7" />
    <path
        d="M59.417 42.166H55.5837C54.5251 42.166 53.667 43.0241 53.667 44.0827V47.916C53.667 48.9746 54.5251 49.8327 55.5837 49.8327H59.417C60.4755 49.8327 61.3337 48.9746 61.3337 47.916V44.0827C61.3337 43.0241 60.4755 42.166 59.417 42.166Z"
        fill="#4CC3C7" />
    <path
        d="M47.917 53.666H44.0837C43.0251 53.666 42.167 54.5241 42.167 55.5827V59.416C42.167 60.4746 43.0251 61.3327 44.0837 61.3327H47.917C48.9755 61.3327 49.8337 60.4746 49.8337 59.416V55.5827C49.8337 54.5241 48.9755 53.666 47.917 53.666Z"
        fill="#4CC3C7" />
    <path
        d="M36.417 53.666H32.5837C31.5251 53.666 30.667 54.5241 30.667 55.5827V59.416C30.667 60.4746 31.5251 61.3327 32.5837 61.3327H36.417C37.4755 61.3327 38.3337 60.4746 38.3337 59.416V55.5827C38.3337 54.5241 37.4755 53.666 36.417 53.666Z"
        fill="#4CC3C7" />
    <path
        d="M59.417 53.666H55.5837C54.5251 53.666 53.667 54.5241 53.667 55.5827V59.416C53.667 60.4746 54.5251 61.3327 55.5837 61.3327H59.417C60.4755 61.3327 61.3337 60.4746 61.3337 59.416V55.5827C61.3337 54.5241 60.4755 53.666 59.417 53.666Z"
        fill="#4CC3C7" />
    <path
        d="M55.5833 1.91602H36.4167C35.3581 1.91602 34.5 2.77414 34.5 3.83268V11.4993C34.5 12.5579 35.3581 13.416 36.4167 13.416H55.5833C56.6419 13.416 57.5 12.5579 57.5 11.4993V3.83268C57.5 2.77414 56.6419 1.91602 55.5833 1.91602Z"
        fill="#4CC3C7" />
</svg>