<svg viewBox="0 0 48 48" fill="none" xmlns="http://www.w3.org/2000/svg">
<rect opacity="0.5" rx="4" fill="currentColor"/>
<path d="M33.3322 20H27.4655C26.7188 20 26.3458 20 26.0605 19.8547C25.8097 19.7268 25.6058 19.5229 25.478 19.272C25.3327 18.9868 25.3327 18.6134 25.3327 17.8667V12M33.3327 31.7333V20.872C33.3327 20.254 33.3329 19.945 33.2663 19.6524C33.2071 19.393 33.1098 19.1438 32.9769 18.9133C32.8271 18.6534 32.617 18.4266 32.1971 17.9731L27.9329 13.3678C27.4663 12.8638 27.2327 12.6118 26.9551 12.4312C26.709 12.2712 26.4375 12.1529 26.1529 12.081C25.8317 12 25.489 12 24.8021 12H18.9329C17.4395 12 16.6922 12 16.1217 12.2906C15.62 12.5463 15.2123 12.9543 14.9567 13.4561C14.666 14.0265 14.666 14.7732 14.666 16.2667V31.7333C14.666 33.2268 14.666 33.9735 14.9567 34.544C15.2123 35.0457 15.62 35.4536 16.1217 35.7093C16.6922 36 17.4395 36 18.9329 36H29.0663C30.5598 36 31.306 36 31.8764 35.7093C32.3782 35.4536 32.7867 35.0457 33.0423 34.544C33.333 33.9735 33.3327 33.2268 33.3327 31.7333Z" stroke="currentColor" stroke-width="1.5" stroke-linecap="round" stroke-linejoin="round"/>
<path fill-rule="evenodd" clip-rule="evenodd" d="M24 33C26.7614 33 29 30.7614 29 28C29 25.2386 26.7614 23 24 23C21.2386 23 19 25.2386 19 28C19 30.7614 21.2386 33 24 33ZM21.5833 30.5C21.5833 30.9142 21.9191 31.25 22.3333 31.25C22.7475 31.25 23.0833 30.9142 23.0833 30.5V25.5C23.0833 25.0858 22.7475 24.75 22.3333 24.75C21.9191 24.75 21.5833 25.0858 21.5833 25.5L21.5833 30.5ZM24.9167 30.5C24.9167 30.9142 25.2525 31.25 25.6667 31.25C26.0809 31.25 26.4167 30.9142 26.4167 30.5L26.4167 25.5C26.4167 25.0858 26.0809 24.75 25.6667 24.75C25.2525 24.75 24.9167 25.0858 24.9167 25.5V30.5Z" fill="#6F3368"/>
</svg>
