<svg viewBox="0 0 21 20" fill="none" xmlns="http://www.w3.org/2000/svg">
<path fill-rule="evenodd" clip-rule="evenodd" d="M5.69194 3.5082C6.10168 3.5689 6.38464 3.95027 6.32393 4.36001L5.48838 10H7.97165C8.50969 10 8.98736 10.3443 9.15751 10.8547L9.31562 11.3291C9.34965 11.4311 9.44518 11.5 9.55279 11.5H11.1113C11.2189 11.5 11.3144 11.4311 11.3484 11.3291L11.5066 10.8547C11.6767 10.3443 12.1544 10 12.6924 10H15.1757L14.3401 4.36001C14.2794 3.95027 14.5624 3.5689 14.9721 3.5082C15.3819 3.4475 15.7632 3.73045 15.8239 4.14019L16.7376 10.3072C16.8005 10.7317 16.832 11.1603 16.832 11.5895V13.2501C16.832 15.045 15.377 16.5001 13.582 16.5001H7.08203C5.28711 16.5001 3.83203 15.045 3.83203 13.2501V11.5895C3.83203 11.1603 3.86361 10.7317 3.9265 10.3072L4.84013 4.14019C4.90083 3.73045 5.2822 3.4475 5.69194 3.5082ZM5.33203 11.5895C5.33203 11.5596 5.33222 11.5298 5.33258 11.5H7.79146L7.89259 11.8034C8.13079 12.518 8.79954 13 9.55279 13H11.1113C11.8645 13 12.5333 12.518 12.7715 11.8034L12.8726 11.5H15.3315C15.3318 11.5298 15.332 11.5596 15.332 11.5895V13.2501C15.332 14.2166 14.5485 15.0001 13.582 15.0001H7.08203C6.11553 15.0001 5.33203 14.2166 5.33203 13.2501V11.5895Z" fill="currentColor"/>
</svg>
