<svg viewBox="0 0 24 24" fill="none" xmlns="http://www.w3.org/2000/svg">
    <path
        d="M11.247 2C11.041 2 10.904 2.137 10.904 2.342V13.027H2.274C2.137 13.096 2 13.233 2 13.37V21.589C2 21.795 2.137 21.932 2.342 21.932H7.205C7 21.726 7.137 21.315 7.411 21.315H12.616C12.89 21.315 13.027 21.795 12.822 21.932H13.918C13.8549 21.8999 13.8022 21.8507 13.7657 21.7901C13.7293 21.7294 13.7107 21.6597 13.712 21.589V20.014C12.959 19.877 12.342 19.124 12.342 18.301C12.342 17.342 13.096 16.589 14.055 16.589C15.014 16.589 15.767 17.342 15.767 18.301C15.767 19.123 15.151 19.808 14.397 20.014V21.589C14.397 21.726 14.329 21.932 14.192 21.932H15.219C15.014 21.726 15.151 21.315 15.425 21.315H19.945C20.219 21.315 20.356 21.795 20.151 21.932H21.384C21.315 21.863 21.315 21.795 21.315 21.726V19.946C20.63 19.534 19.945 18.918 19.74 18.027C19.534 17.068 19.945 15.973 21.384 14.877L21.589 14.671L21.795 14.877C21.863 14.945 21.932 14.945 22 15.014V7.822C22 7.616 21.795 7.479 21.658 7.479H17.205V2.342C17.205 2.137 17.068 2 16.863 2H11.247ZM12.274 3.37H13.644V4.808H12.274V3.37ZM14.329 3.37H15.699V4.808H14.329V3.37ZM12.274 5.493H13.644V6.863H12.274V5.493ZM14.329 5.493H15.699V6.863H14.329V5.493ZM12.274 7.548H13.644V8.918H12.274V7.548ZM14.329 7.548H15.699V8.918H14.329V7.548ZM17.753 8.849H20.493V9.534H17.753V8.849ZM12.274 9.603H13.644V10.973H12.274V9.603ZM14.329 9.603H15.699V10.973H14.329V9.603ZM17.753 10.288H20.493V10.973H17.753V10.288ZM17.753 11.658H20.493V12.342H17.753V11.658ZM12.274 11.658H13.644V13.027H12.274V11.658ZM14.329 11.658H15.699V13.027H14.329V11.658ZM17.753 13.028H20.493V13.712H17.753V13.028ZM12.274 13.712H13.644V15.082H12.274V13.712ZM14.329 13.712H15.699V15.082H14.329V13.712ZM3.3 14.397H10.15V15.082H3.3V14.397ZM17.752 14.397H20.492V15.082H17.752V14.397ZM21.452 15.699C20.424 16.589 20.15 17.342 20.218 17.89C20.355 18.37 20.698 18.78 21.108 19.123V18.37C21.108 18.233 21.246 18.027 21.383 18.027C21.588 17.959 21.725 18.096 21.793 18.233V16.04C21.725 15.903 21.588 15.835 21.451 15.698L21.452 15.699ZM3.3 15.767H10.15V16.452H3.3V15.767ZM17.752 15.767H19.122V16.452H17.752V15.767ZM3.3 17.137H10.15V17.822H3.3V17.137ZM17.752 17.137H19.122V17.822H17.752V17.137ZM13.985 17.342C13.369 17.342 12.958 17.822 12.958 18.37C12.958 18.85 13.232 19.26 13.643 19.397V18.37C13.643 18.233 13.78 18.027 13.917 18.027C14.122 17.959 14.327 18.164 14.327 18.37V19.397C14.739 19.26 15.013 18.849 15.013 18.37C15.013 17.822 14.533 17.342 13.985 17.342ZM3.301 18.507H10.151V19.192H3.3L3.301 18.507ZM17.753 18.507H19.123V19.192H17.753V18.507ZM17.753 19.877H19.808V20.562H17.753V19.877ZM3.301 19.877H10.151V20.562H3.3L3.301 19.877ZM21.863 19.945V21.795C21.863 21.863 21.863 21.932 21.795 22H21.863V19.945Z"
        fill="currentColor" />
</svg>