<svg width="16" height="16" viewBox="0 0 16 16" fill="none" xmlns="http://www.w3.org/2000/svg">
<g clip-path="url(#clip0_2235_44902)">
<path d="M8 0C6.41775 0 4.87104 0.469192 3.55544 1.34824C2.23985 2.22729 1.21447 3.47672 0.608967 4.93853C0.00346629 6.40034 -0.15496 8.00887 0.153721 9.56072C0.462403 11.1126 1.22433 12.538 2.34315 13.6569C3.46197 14.7757 4.88743 15.5376 6.43928 15.8463C7.99113 16.155 9.59966 15.9965 11.0615 15.391C12.5233 14.7855 13.7727 13.7602 14.6518 12.4446C15.5308 11.129 16 9.58225 16 8C15.9977 5.87897 15.1541 3.84547 13.6543 2.34568C12.1545 0.845885 10.121 0.00229405 8 0ZM8 14.6667C6.68146 14.6667 5.39253 14.2757 4.2962 13.5431C3.19987 12.8106 2.34539 11.7694 1.84081 10.5512C1.33622 9.33305 1.2042 7.9926 1.46144 6.6994C1.71867 5.40619 2.35361 4.2183 3.28596 3.28595C4.21831 2.3536 5.4062 1.71867 6.6994 1.46143C7.99261 1.2042 9.33305 1.33622 10.5512 1.8408C11.7694 2.34539 12.8106 3.19987 13.5431 4.2962C14.2757 5.39253 14.6667 6.68146 14.6667 8C14.6647 9.76751 13.9617 11.4621 12.7119 12.7119C11.4621 13.9617 9.76752 14.6647 8 14.6667Z" fill="currentColor"/>
<path d="M6.00016 5.33203C5.82335 5.33203 5.65378 5.40227 5.52876 5.52729C5.40373 5.65232 5.3335 5.82189 5.3335 5.9987V9.9987C5.3335 10.1755 5.40373 10.3451 5.52876 10.4701C5.65378 10.5951 5.82335 10.6654 6.00016 10.6654C6.17697 10.6654 6.34654 10.5951 6.47157 10.4701C6.59659 10.3451 6.66683 10.1755 6.66683 9.9987V5.9987C6.66683 5.82189 6.59659 5.65232 6.47157 5.52729C6.34654 5.40227 6.17697 5.33203 6.00016 5.33203ZM10.0002 5.33203C9.82335 5.33203 9.65378 5.40227 9.52876 5.52729C9.40373 5.65232 9.3335 5.82189 9.3335 5.9987V9.9987C9.3335 10.1755 9.40373 10.3451 9.52876 10.4701C9.65378 10.5951 9.82335 10.6654 10.0002 10.6654C10.177 10.6654 10.3465 10.5951 10.4716 10.4701C10.5966 10.3451 10.6668 10.1755 10.6668 9.9987V5.9987C10.6668 5.82189 10.5966 5.65232 10.4716 5.52729C10.3465 5.40227 10.177 5.33203 10.0002 5.33203Z" fill="currentColor"/>
</g>
<defs>
<clipPath id="clip0_2235_44902">
<rect width="16" height="16" fill="white"/>
</clipPath>
</defs>
</svg>
