<svg viewBox="0 0 17 16" fill="none" xmlns="http://www.w3.org/2000/svg">
<path fill-rule="evenodd" clip-rule="evenodd" d="M2 4.05386C2 2.91955 2.88878 2 3.98514 2H4.98885V2.78464H3.98514C3.30762 2.78464 2.75838 3.35289 2.75838 4.05386V11.9461C2.75838 12.6471 3.30762 13.2154 3.98513 13.2154H10.1413V14H3.98513C2.88877 14 2 13.0805 2 11.9461V4.05386ZM5.97015 2.78464V2H10.1413V2.78464H5.97015ZM12.0149 2.78464H11.0111V2H12.0149C13.1112 2 14 2.91955 14 4.05386V9.38586H13.2416V4.05386C13.2416 3.35289 12.6923 2.78464 12.0149 2.78464Z" fill="currentColor"/>
<path fill-rule="evenodd" clip-rule="evenodd" d="M2 4.38638C2 4.17299 2.16968 4 2.37899 4H13.6147C13.824 4 13.9937 4.17299 13.9937 4.38638C13.9937 4.59977 13.824 4.77276 13.6147 4.77276H2.37899C2.16968 4.77276 2 4.59977 2 4.38638ZM12.8121 9.27271C11.4701 9.27271 10.3822 10.3819 10.3822 11.75C10.3822 13.1182 11.4701 14.2272 12.8121 14.2272C14.1542 14.2272 15.242 13.1182 15.242 11.75C15.242 10.3819 14.1542 9.27271 12.8121 9.27271ZM9.62421 11.75C9.62421 9.95506 11.0515 8.49996 12.8121 8.49996C14.5727 8.49996 16 9.95506 16 11.75C16 13.5449 14.5727 15 12.8121 15C11.0515 15 9.62421 13.5449 9.62421 11.75Z" fill="currentColor"/>
<path fill-rule="evenodd" clip-rule="evenodd" d="M12.1283 10.7834H11.9746C11.4574 10.7834 11.0382 11.189 11.0382 11.6893C11.0382 12.1896 11.4574 12.5952 11.9746 12.5952H12.1273V12.8906H11.4301C11.2136 12.8906 11.0382 13.0603 11.0382 13.2697C11.0382 13.4791 11.2136 13.6488 11.4301 13.6488H12.1283C12.1431 13.8451 12.3124 14 12.5192 14C12.7258 14 12.8952 13.8451 12.9099 13.6488H13.0637C13.5808 13.6488 14 13.2432 14 12.7429C14 12.2426 13.5808 11.837 13.0637 11.837H12.911V11.5416H13.6082C13.8246 11.5416 14 11.3718 14 11.1625C14 10.9531 13.8246 10.7834 13.6082 10.7834H12.9099C12.8952 10.587 12.7258 10.4321 12.5192 10.4321C12.3124 10.4321 12.1431 10.587 12.1283 10.7834ZM12.911 12.5952V12.8906H13.0637C13.148 12.8906 13.2163 12.8244 13.2163 12.7429C13.2163 12.6613 13.148 12.5952 13.0637 12.5952H12.911ZM12.1273 11.837V11.5416H11.9746C11.8903 11.5416 11.8219 11.6077 11.8219 11.6893C11.8219 11.7709 11.8903 11.837 11.9746 11.837H12.1273ZM3.82977 1.98116C3.82977 1.43928 4.28381 1 4.84392 1C5.40402 1 5.85807 1.43929 5.85807 1.98116V3.1853C5.85807 3.72719 5.40402 4.16646 4.84392 4.16646C4.28381 4.16646 3.82977 3.72719 3.82977 3.1853V1.98116ZM4.84392 1.75819C4.71662 1.75819 4.61345 1.85802 4.61345 1.98116V3.1853C4.61345 3.30845 4.71663 3.40828 4.84392 3.40828C4.9712 3.40828 5.07439 3.30845 5.07439 3.1853V1.98116C5.07439 1.85802 4.9712 1.75819 4.84392 1.75819ZM9.22316 1.98116C9.22316 1.43928 9.67723 1 10.2373 1C10.7974 1 11.2515 1.43929 11.2515 1.98116V3.1853C11.2515 3.72719 10.7974 4.16646 10.2373 4.16646C9.67723 4.16646 9.22316 3.72719 9.22316 3.1853V1.98116ZM10.2373 1.75819C10.1101 1.75819 10.0068 1.85802 10.0068 1.98116V3.1853C10.0068 3.30845 10.1101 3.40828 10.2373 3.40828C10.3646 3.40828 10.4678 3.30845 10.4678 3.1853V1.98116C10.4678 1.85802 10.3646 1.75819 10.2373 1.75819ZM3 6.59754C3 6.38817 3.17543 6.21845 3.39184 6.21845H5.05134C5.26775 6.21845 5.44318 6.38817 5.44318 6.59754V8.20307C5.44318 8.4124 5.26775 8.58216 5.05134 8.58216H3.39184C3.17543 8.58216 3 8.4124 3 8.20307V6.59754ZM3.78368 6.97662V7.82397H4.6595V6.97662H3.78368ZM6.31904 6.59754C6.31904 6.38817 6.49446 6.21845 6.71088 6.21845H8.37036C8.58682 6.21845 8.7622 6.38817 8.7622 6.59754V8.20307C8.7622 8.4124 8.58682 8.58216 8.37036 8.58216H6.71088C6.49446 8.58216 6.31904 8.4124 6.31904 8.20307V6.59754ZM7.10268 6.97662V7.82397H7.97852V6.97662H7.10268ZM9.63804 6.59754C9.63804 6.38817 9.81343 6.21845 10.0299 6.21845H11.6894C11.9058 6.21845 12.0812 6.38817 12.0812 6.59754V8.20307C12.0812 8.4124 11.9058 8.58216 11.6894 8.58216H10.0299C9.81343 8.58216 9.63804 8.4124 9.63804 8.20307V6.59754ZM10.4217 6.97662V7.82397H11.2976V6.97662H10.4217ZM3 9.80723C3 9.5979 3.17543 9.42814 3.39184 9.42814H5.05134C5.26775 9.42814 5.44318 9.5979 5.44318 9.80723V11.4128C5.44318 11.6221 5.26775 11.7919 5.05134 11.7919H3.39184C3.17543 11.7919 3 11.6221 3 11.4128V9.80723ZM3.78368 10.1863V11.0337H4.6595V10.1863H3.78368ZM6.31904 9.80723C6.31904 9.5979 6.49446 9.42814 6.71088 9.42814H8.37036C8.58682 9.42814 8.7622 9.5979 8.7622 9.80723V11.4128C8.7622 11.6221 8.58682 11.7919 8.37036 11.7919H6.71088C6.49446 11.7919 6.31904 11.6221 6.31904 11.4128V9.80723ZM7.10268 10.1863V11.0337H7.97852V10.1863H7.10268Z" fill="currentColor"/>
</svg>
