<svg viewBox="0 0 24 24" fill="none" xmlns="http://www.w3.org/2000/svg">
<path d="M13.4617 18C13.3356 18 13.2357 17.9714 13.1622 17.9143C13.0886 17.8571 13.0203 17.7886 12.9572 17.7086L9.34685 13.2171C9.26276 13.1257 9.20495 13.0457 9.17342 12.9771C9.1524 12.8971 9.14189 12.7771 9.14189 12.6171V12.24C9.14189 12.1257 9.17342 12.0343 9.23649 11.9657C9.31006 11.8857 9.3994 11.8457 9.5045 11.8457H10.3559C11.0916 11.8457 11.6539 11.7429 12.0428 11.5371C12.4317 11.3314 12.6944 11.0571 12.8311 10.7143C12.9782 10.3714 13.0518 9.97714 13.0518 9.53143C13.0518 9.10857 12.9782 8.72571 12.8311 8.38286C12.6944 8.02857 12.4422 7.74857 12.0743 7.54286C11.7065 7.33714 11.1862 7.23429 10.5135 7.23429H9.36261C9.25751 7.23429 9.16817 7.2 9.09459 7.13143C9.03153 7.05143 9 6.95429 9 6.84V6.39429C9 6.28 9.03153 6.18857 9.09459 6.12C9.16817 6.04 9.25751 6 9.36261 6H15.6374C15.7425 6 15.8266 6.04 15.8896 6.12C15.9632 6.18857 16 6.28 16 6.39429V6.84C16 6.95429 15.9632 7.05143 15.8896 7.13143C15.8266 7.2 15.7425 7.23429 15.6374 7.23429H13.241L12.8468 6.77143C13.53 6.95429 13.9977 7.30286 14.25 7.81714C14.5023 8.33143 14.6284 8.92571 14.6284 9.6C14.6284 10.2286 14.5023 10.8057 14.25 11.3314C14.0083 11.8571 13.6194 12.28 13.0833 12.6C12.5578 12.9086 11.8799 13.0743 11.0495 13.0971L10.5766 13.1143L10.5923 12.4286L14.6284 17.4686C14.7125 17.56 14.7545 17.6457 14.7545 17.7257C14.7545 17.8171 14.723 17.8857 14.6599 17.9314C14.5968 17.9771 14.518 18 14.4234 18H13.4617ZM9.36261 9.97714C9.247 9.97714 9.15766 9.94286 9.09459 9.87429C9.03153 9.80571 9 9.70857 9 9.58286V9.15429C9 9.02857 9.03153 8.93143 9.09459 8.86286C9.16817 8.79429 9.25751 8.76 9.36261 8.76H15.6374C15.7425 8.76 15.8266 8.79429 15.8896 8.86286C15.9632 8.93143 16 9.02857 16 9.15429V9.58286C16 9.70857 15.9632 9.80571 15.8896 9.87429C15.8266 9.94286 15.7425 9.97714 15.6374 9.97714H9.36261Z" fill="currentColor"/>
<path d="M22 12C22 17.52 17.52 22 12 22C6.48 22 2 17.52 2 12C2 6.48 6.48 2 12 2" stroke="currentColor" stroke-width="1.5" stroke-linecap="round" stroke-linejoin="round"/>
<path d="M20.79 6.75L17.04 3" stroke="currentColor" stroke-width="1.5" stroke-miterlimit="10" stroke-linecap="round" stroke-linejoin="round"/>
<path d="M20.75 3.03906L17 6.78906" stroke="currentColor" stroke-width="1.5" stroke-miterlimit="10" stroke-linecap="round" stroke-linejoin="round"/>
</svg>
