<svg viewBox="0 0 16 16" fill="none" xmlns="http://www.w3.org/2000/svg">
<g clip-path="url(#clip0_2235_44842)">
<path d="M2.19149 7.54866L0 8.42352L2.08508 14L4.27658 13.1222L4.09827 12.6461L4.54404 12.4705L9.14561 13.6251C9.60521 13.7412 10.0883 13.708 10.529 13.5298L15.1737 11.67C15.4952 11.5394 15.7533 11.282 15.8914 10.9544C16.0295 10.6268 16.0361 10.2559 15.9099 9.92328C15.7837 9.59062 15.5349 9.32348 15.2183 9.18062C14.9017 9.03776 14.5432 9.03088 14.2217 9.16149L11.734 10.1524L11.7139 10.0899C11.6292 9.83242 11.4912 9.59723 11.3093 9.40085C11.1275 9.20447 10.9063 9.05167 10.6612 8.95319L6.05968 7.13503C5.60903 6.95499 5.10974 6.95499 4.65908 7.13503L2.37268 8.05155L2.19149 7.54866ZM4.49228 11.792L3.86819 12.042L2.60276 8.6586L4.90354 7.74208C5.20916 7.62147 5.54699 7.62147 5.85261 7.74208L10.4542 9.56321C10.6133 9.62591 10.7569 9.72436 10.8748 9.85146C10.9927 9.97856 11.0818 10.1312 11.1358 10.2982L11.1645 10.3875L11.038 10.4381C10.6576 10.5922 10.2367 10.6017 9.85022 10.4649L6.84482 9.40848L6.64351 10.0244L9.64315 11.0779C10.1695 11.2611 10.7411 11.2484 11.2594 11.0421L11.3572 11.0005L11.665 10.8785L14.4489 9.75663C14.5319 9.71821 14.6215 9.69765 14.7124 9.69621C14.8033 9.69478 14.8936 9.71249 14.9776 9.74828C15.0617 9.78406 15.1378 9.83717 15.2014 9.90438C15.265 9.97158 15.3148 10.0515 15.3476 10.1392C15.3804 10.2269 15.3956 10.3206 15.3923 10.4146C15.389 10.5086 15.3673 10.6009 15.3284 10.6859C15.2896 10.771 15.2344 10.8469 15.1662 10.9092C15.0981 10.9714 15.0184 11.0187 14.9321 11.0481L10.296 12.9139C9.97394 13.0418 9.62196 13.0657 9.28653 12.9823L4.49228 11.792Z" fill="currentColor" stroke="currentColor" stroke-width="0.3"/>
<path d="M11.0028 2C10.4094 1.99944 9.82906 2.17492 9.33534 2.50422C8.84162 2.83353 8.45667 3.30187 8.22917 3.85C8.00168 4.39813 7.94187 5.00142 8.0573 5.58354C8.17274 6.16567 8.45824 6.70048 8.87769 7.12032C9.29713 7.54016 9.83167 7.82616 10.4137 7.94215C10.9957 8.05813 11.5991 7.99889 12.1474 7.77191C12.6957 7.54493 13.1644 7.16041 13.4942 6.667C13.824 6.17359 14 5.59346 14 5C13.9993 4.20507 13.6833 3.44286 13.1215 2.8805C12.5597 2.31813 11.7977 2.00149 11.0028 2ZM11.0028 7.61163C10.4862 7.61219 9.98095 7.45949 9.5511 7.17286C9.12125 6.88623 8.78608 6.47854 8.58798 6.00138C8.38988 5.52422 8.33776 4.99902 8.43821 4.49222C8.53866 3.98543 8.78717 3.51982 9.1523 3.1543C9.51743 2.78877 9.98278 2.53976 10.4895 2.43876C10.9961 2.33776 11.5214 2.38931 11.9988 2.5869C12.4762 2.78448 12.8842 3.11922 13.1713 3.54876C13.4584 3.97831 13.6116 4.48335 13.6116 5C13.6109 5.69193 13.3359 6.35535 12.8469 6.84489C12.3579 7.33442 11.6947 7.61014 11.0028 7.61163Z" fill="currentColor" stroke="currentColor" stroke-width="0.3"/>
<path d="M11.1117 4.46638V3.30947C11.2162 3.33867 11.3157 3.38755 11.406 3.45409C11.5023 3.53057 11.5835 3.62907 11.6445 3.74331C11.7149 3.87384 11.7687 4.01502 11.8044 4.16269H11.8932V3.4107C11.6542 3.25074 11.3875 3.15205 11.1117 3.12148V3H10.9138V3.12148C10.6602 3.13933 10.419 3.25335 10.2288 3.44541C10.1569 3.52222 10.0996 3.61494 10.0604 3.71789C10.0211 3.82084 10.0007 3.93185 10.0004 4.04411C9.99419 4.24933 10.0578 4.44936 10.178 4.60231C10.3978 4.84738 10.6442 5.05928 10.9113 5.23283V6.51988C10.7816 6.51085 10.6548 6.47251 10.5383 6.40709C10.4339 6.34667 10.3461 6.2546 10.2846 6.141C10.2109 5.9987 10.1618 5.84161 10.14 5.67824H10.0436V6.51988C10.1825 6.58213 10.326 6.63051 10.4723 6.6645C10.6146 6.69473 10.759 6.71022 10.9037 6.71077V7H11.1016V6.69631C11.3481 6.68518 11.5826 6.57208 11.7613 6.37816C11.8393 6.28921 11.9007 6.18309 11.9417 6.06625C11.9827 5.94941 12.0025 5.82429 11.9998 5.69848C12.0037 5.46466 11.9324 5.23729 11.7993 5.05929C11.5917 4.83104 11.3609 4.63198 11.1117 4.46638ZM10.9138 4.31309C10.7801 4.22538 10.6608 4.11186 10.5611 3.97758C10.5303 3.93465 10.5079 3.88473 10.4953 3.83113C10.4828 3.77754 10.4804 3.72151 10.4883 3.66678C10.4962 3.61205 10.5143 3.55987 10.5413 3.51372C10.5683 3.46757 10.6036 3.42851 10.6449 3.39913C10.7243 3.33665 10.8174 3.3006 10.9138 3.29501V4.31309ZM11.401 6.33767C11.3247 6.43243 11.2229 6.49553 11.1117 6.51699V5.38901C11.2264 5.47763 11.3275 5.58706 11.4111 5.71294C11.4634 5.80522 11.4916 5.91256 11.4923 6.02241C11.4957 6.13654 11.4633 6.24831 11.401 6.33767Z" fill="currentColor" stroke="currentColor" stroke-width="0.3"/>
</g>
<defs>
<clipPath id="clip0_2235_44842">
<rect width="16" height="16" fill="white"/>
</clipPath>
</defs>
</svg>
