<svg viewBox="0 0 49 48" fill="none" xmlns="http://www.w3.org/2000/svg">
<rect x="0.666016" rx="4" fill="currentColor"/>
<path d="M38.3327 24C38.3327 31.36 32.3593 37.3333 24.9993 37.3333C17.6393 37.3333 11.666 31.36 11.666 24C11.666 16.64 17.6393 10.6666 24.9993 10.6666" stroke="currentColor" stroke-width="1.5" stroke-linecap="round" stroke-linejoin="round"/>
<path d="M29.096 21.6954L29.1331 21.5676H29H27.0182C26.9273 21.0096 26.7584 20.5078 26.5103 20.0632C26.4453 19.9468 26.3748 19.8349 26.2987 19.7277H28.5277H28.6028L28.6238 19.6556L29.096 18.0279L29.1331 17.9H29H21.731H21.3203H21.2452H19.5031H19.4284L19.4072 17.9716L18.9247 19.5993L18.8866 19.7277H19.0205H20.7149H20.848H21.731C22.5017 19.7277 23.1135 19.8534 23.5733 20.0973L23.5733 20.0973L23.5748 20.0981C24.0436 20.3366 24.3832 20.6688 24.5987 21.0946L24.5989 21.0952C24.6753 21.2437 24.7384 21.4011 24.7882 21.5676H19.4723H19.3972L19.3762 21.6397L18.904 23.2675L18.8669 23.3953H19H24.815C24.7583 23.5885 24.6801 23.7721 24.5805 23.9462C24.3517 24.3465 24.0076 24.6667 23.5437 24.9062C23.0897 25.1372 22.5078 25.2558 21.7926 25.2558H19.2875H19.1867L19.1875 25.3566L19.1977 26.634L19.198 26.6704L19.2217 26.6981L24.6529 33.0649L24.6828 33.1H24.729H27.0595H27.1595V33V32.8764V32.8394L27.1355 32.8113L22.224 27.0816C23.3648 27.0606 24.2891 26.8709 24.9906 26.5057C25.7396 26.1193 26.2801 25.586 26.6055 24.9046C26.8294 24.441 26.9766 23.9377 27.0478 23.3953H28.5277H28.6028L28.6238 23.3232L29.096 21.6954Z" fill="currentColor" stroke="currentColor" stroke-width="0.2"/>
<path d="M38.3333 16V10.6666H33" stroke="currentColor" stroke-width="1.5" stroke-linecap="round" stroke-linejoin="round"/>
<path d="M31.666 17.3333L38.3327 10.6666" stroke="currentColor" stroke-width="1.5" stroke-linecap="round" stroke-linejoin="round"/>
</svg>
