<svg width="24" height="24" viewBox="0 0 24 24" fill="none" xmlns="http://www.w3.org/2000/svg">
<path d="M6 6V7.5H6.72V6.75H23.28V8.25H17.913V9H24V6H6Z" fill="#1975FF"/>
<path d="M7.1325 4.5C6.5115 4.5 6 5.03242 6 5.67892V7.96271H6.72V5.67975C6.72 5.43525 6.89775 5.25 7.1325 5.25H22.8675C23.1022 5.25 23.28 5.43517 23.28 5.67892V15.3224C23.28 15.5662 23.1022 15.75 22.8675 15.75H17.6175V16.5H22.8675C23.4885 16.5 24 15.9689 24 15.3224V5.67975C24 5.03325 23.4885 4.5 22.8675 4.5H7.1325Z" fill="#1975FF"/>
<path d="M19.0161 12.4567C18.6959 12.7275 18.2699 12.8295 17.8836 12.6442L17.5776 13.3237C17.934 13.4941 18.3369 13.5413 18.723 13.4578C19.1091 13.3743 19.4565 13.1649 19.7106 12.8625L19.9221 12.615L19.7106 12.3675L19.0161 12.4567ZM19.7106 10.884L19.9221 10.638L19.7121 10.389C19.5424 10.1874 19.3304 10.0255 19.0911 9.91511C18.8518 9.80467 18.5912 9.74836 18.3276 9.75004H18.3261C18.0818 9.75211 17.8408 9.806 17.6189 9.90824L17.9114 10.5953C18.0449 10.5353 18.1881 10.5023 18.3329 10.5C18.5916 10.5 18.8129 10.6447 19.0094 10.812L19.7106 10.884Z" fill="#4CC3C7"/>
<path d="M20.568 9.75C19.5682 9.75 18.75 10.5938 18.75 11.625C18.75 12.6562 19.5682 13.5 20.568 13.5C21.5677 13.5 22.386 12.6562 22.386 11.625C22.386 10.5938 21.5685 9.75 20.568 9.75ZM20.568 10.5C21.1755 10.5 21.6592 10.9995 21.6592 11.625C21.6592 12.2505 21.1747 12.75 20.568 12.75C19.9612 12.75 19.4775 12.2505 19.4775 11.625C19.4775 10.9995 19.9612 10.5 20.568 10.5Z" fill="#4CC3C7"/>
<path d="M1.1325 7.5C0.5115 7.5 0 8.03171 0 8.67746V18.321C0 18.9675 0.5115 19.5 1.1325 19.5H16.8675C17.4885 19.5 18 18.9675 18 18.321V8.67819C18 8.03169 17.4885 7.50073 16.8675 7.50073H1.1325V7.5ZM1.1325 8.25H16.8675C17.1022 8.25 17.28 8.43371 17.28 8.67746V18.321C17.28 18.5647 17.1022 18.75 16.8675 18.75H1.1325C0.89775 18.75 0.72 18.5647 0.72 18.321V8.67819C0.72 8.43369 0.89775 8.25073 1.1325 8.25073V8.25Z" fill="#1975FF"/>
<path d="M9.09089 10.501C7.48889 10.501 6.18164 11.8487 6.18164 13.501C6.18164 15.1532 7.48889 16.501 9.09164 16.501C10.6936 16.501 12.0001 15.1532 12.0001 13.501C12.0001 11.8487 10.6936 10.501 9.09089 10.501ZM9.09089 11.251C10.3006 11.251 11.2734 12.2537 11.2734 13.501C11.2734 14.7482 10.3006 15.751 9.09089 15.751C7.88189 15.751 6.90914 14.7482 6.90914 13.501C6.90914 12.2537 7.88189 11.251 9.09164 11.251H9.09089Z" fill="#4CC3C7"/>
<path fill-rule="evenodd" clip-rule="evenodd" d="M12.75 11.25V12H14.25V11.25H12.75ZM13.5 13.125V13.875H15.75V13.125H13.5ZM12.75 15V15.75H14.25V15H12.75ZM3.75 11.25V12H5.25V11.25H3.75ZM3 13.125V13.875H5.25V13.125H3ZM3.75 15V15.75H5.25V15H3.75Z" fill="#4CC3C7"/>
</svg>
