<svg viewBox="0 0 32 32" fill="none" xmlns="http://www.w3.org/2000/svg">
    <path
        d="M16.37 6.14984C16.17 6.06984 15.83 6.06984 15.63 6.14984L6.63 9.74982C6.28 9.88982 6 10.3098 6 10.6798V13.9998C6 14.5498 6.45 14.9998 7 14.9998H25C25.55 14.9998 26 14.5498 26 13.9998"
        stroke="currentColor" stroke-width="1.5" stroke-miterlimit="10" stroke-linecap="round"
        stroke-linejoin="round" />
    <path d="M26 26H6V23C6 22.45 6.45 22 7 22H25C25.55 22 26 22.45 26 23V26Z" stroke="currentColor" stroke-width="1.5"
        stroke-miterlimit="10" stroke-linecap="round" stroke-linejoin="round" />
    <path d="M8 22V15" stroke="currentColor" stroke-width="1.5" stroke-miterlimit="10" stroke-linecap="round"
        stroke-linejoin="round" />
    <path d="M12 22V15" stroke="currentColor" stroke-width="1.5" stroke-miterlimit="10" stroke-linecap="round"
        stroke-linejoin="round" />
    <path d="M16 22V15" stroke="currentColor" stroke-width="1.5" stroke-miterlimit="10" stroke-linecap="round"
        stroke-linejoin="round" />
    <path d="M20 22V15" stroke="currentColor" stroke-width="1.5" stroke-miterlimit="10" stroke-linecap="round"
        stroke-linejoin="round" />
    <path d="M24 22V15" stroke="currentColor" stroke-width="1.5" stroke-miterlimit="10" stroke-linecap="round"
        stroke-linejoin="round" />
    <path d="M5 26H27" stroke="currentColor" stroke-width="1.5" stroke-miterlimit="10" stroke-linecap="round"
        stroke-linejoin="round" />
    <path
        d="M16 12.5C16.8284 12.5 17.5 11.8284 17.5 11C17.5 10.1716 16.8284 9.5 16 9.5C15.1716 9.5 14.5 10.1716 14.5 11C14.5 11.8284 15.1716 12.5 16 12.5Z"
        stroke="currentColor" stroke-width="1.5" stroke-miterlimit="10" stroke-linecap="round"
        stroke-linejoin="round" />
    <path
        d="M29 7C29 7.9375 28.7375 8.825 28.275 9.575C27.4125 11.025 25.825 12 24 12C22.175 12 20.5875 11.025 19.725 9.575C19.2625 8.825 19 7.9375 19 7C19 4.2375 21.2375 2 24 2C26.7625 2 29 4.2375 29 7Z"
        stroke="currentColor" stroke-width="1.5" stroke-miterlimit="10" stroke-linecap="round"
        stroke-linejoin="round" />
    <path d="M24 10V4L26 6" stroke="currentColor" stroke-width="1.5" stroke-linecap="round" stroke-linejoin="round" />
    <path d="M24 4L22 6" stroke="currentColor" stroke-width="1.5" stroke-linecap="round" stroke-linejoin="round" />
</svg>