<svg  viewBox="0 0 20 24" fill="none" xmlns="http://www.w3.org/2000/svg">
<g opacity="0.3">
<path opacity="0.3" d="M13.9664 4.9248C13.4197 4.92427 12.8956 4.70685 12.509 4.32028C12.1224 3.93371 11.905 3.40956 11.9045 2.86287V0H2.69089C1.97722 0 1.29278 0.283511 0.788145 0.788151C0.283505 1.29279 0 1.97721 0 2.69088V18.9122C0.00105979 19.6252 0.28503 20.3086 0.789555 20.8124C1.29408 21.3161 1.97791 21.5991 2.69089 21.5991H13.7514C14.4644 21.5991 15.1482 21.3161 15.6528 20.8124C16.1573 20.3086 16.4413 19.6252 16.4423 18.9122V4.9248H13.9664Z" fill="#FF3E4C"/>
</g>
<path d="M16.4421 4.9248H13.9662C13.4195 4.92427 12.8954 4.70685 12.5088 4.32028C12.1222 3.93371 11.9048 3.40956 11.9043 2.86287V0L16.4421 4.9248Z" fill="#FF3E4C"/>
<path d="M13.0599 15.0849H2.73631C2.63686 15.0849 2.54148 15.0454 2.47116 14.9751C2.40083 14.9047 2.36133 14.8094 2.36133 14.7099C2.36159 14.6106 2.40122 14.5155 2.47151 14.4454C2.5418 14.3753 2.63703 14.3359 2.73631 14.3359H13.0599C13.1591 14.3359 13.2542 14.3753 13.3243 14.4455C13.3945 14.5156 13.4339 14.6107 13.4339 14.7099C13.434 14.7591 13.4244 14.8079 13.4057 14.8533C13.387 14.8988 13.3594 14.9402 13.3247 14.975C13.2899 15.0098 13.2487 15.0375 13.2032 15.0563C13.1578 15.0752 13.1091 15.0849 13.0599 15.0849Z" fill="#FF3E4C"/>
<path d="M13.0599 10.8583H2.73631C2.63703 10.8583 2.5418 10.819 2.47151 10.7489C2.40122 10.6787 2.36159 10.5836 2.36133 10.4844C2.36133 10.3849 2.40083 10.2895 2.47116 10.2192C2.54148 10.1489 2.63686 10.1094 2.73631 10.1094H13.0599C13.1091 10.1094 13.1578 10.1191 13.2032 10.1379C13.2487 10.1568 13.2899 10.1844 13.3247 10.2193C13.3594 10.2541 13.387 10.2954 13.4057 10.3409C13.4244 10.3864 13.434 10.4352 13.4339 10.4844C13.4339 10.5835 13.3945 10.6787 13.3243 10.7488C13.2542 10.8189 13.1591 10.8583 13.0599 10.8583Z" fill="#FF3E4C"/>
<path d="M13.0599 12.9716H2.73631C2.63686 12.9716 2.54148 12.9321 2.47116 12.8618C2.40083 12.7915 2.36133 12.6961 2.36133 12.5966C2.36159 12.4974 2.40122 12.4022 2.47151 12.3321C2.5418 12.262 2.63703 12.2227 2.73631 12.2227H13.0599C13.1591 12.2227 13.2542 12.2621 13.3243 12.3322C13.3945 12.4023 13.4339 12.4975 13.4339 12.5966C13.434 12.6458 13.4244 12.6946 13.4057 12.7401C13.387 12.7856 13.3594 12.8269 13.3247 12.8617C13.2899 12.8966 13.2487 12.9242 13.2032 12.9431C13.1578 12.9619 13.1091 12.9716 13.0599 12.9716Z" fill="#FF3E4C"/>
<path d="M8.98805 8.74897H2.73631C2.63703 8.74897 2.5418 8.70961 2.47151 8.6395C2.40122 8.56939 2.36159 8.47426 2.36133 8.37498C2.36133 8.27553 2.40083 8.18016 2.47116 8.10983C2.54148 8.03951 2.63686 8 2.73631 8H8.98805C9.08733 8.00026 9.18246 8.03988 9.25256 8.11018C9.32267 8.18047 9.36204 8.27571 9.36204 8.37498C9.36177 8.47409 9.32229 8.56906 9.25221 8.63913C9.18213 8.70921 9.08716 8.7487 8.98805 8.74897Z" fill="#FF3E4C"/>
<path d="M8.98805 6.63569H2.73631C2.63703 6.63569 2.5418 6.5963 2.47151 6.52619C2.40122 6.45609 2.36159 6.36098 2.36133 6.2617C2.36133 6.16225 2.40083 6.06685 2.47116 5.99653C2.54148 5.92621 2.63686 5.88672 2.73631 5.88672H8.98805C9.08733 5.88698 9.18246 5.9266 9.25256 5.99689C9.32267 6.06719 9.36204 6.16242 9.36204 6.2617C9.36177 6.36081 9.32229 6.45577 9.25221 6.52585C9.18213 6.59593 9.08716 6.63542 8.98805 6.63569Z" fill="#FF3E4C"/>
<path d="M18.3926 17.0586H5.88914C5.0022 17.0586 4.2832 17.7776 4.2832 18.6645V22.3924C4.2832 23.2793 5.0022 23.9983 5.88914 23.9983H18.3926C19.2795 23.9983 19.9986 23.2793 19.9986 22.3924V18.6645C19.9986 17.7776 19.2795 17.0586 18.3926 17.0586Z" fill="#FF3E4C"/>
<path d="M8.38478 21.3359V22.0629H7.63281V21.3359H8.38478Z" fill="white"/>
<path d="M9.4926 21.0105V22.0655H8.76562V19.0586H9.94358C10.3006 19.0586 10.5736 19.1476 10.7605 19.3246C10.8552 19.4176 10.929 19.5295 10.9773 19.6531C11.0255 19.7766 11.0471 19.909 11.0405 20.0415C11.0442 20.2164 11.001 20.389 10.9155 20.5415C10.8282 20.6906 10.6988 20.8107 10.5436 20.8865C10.3563 20.975 10.1506 21.0179 9.94358 21.0115L9.4926 21.0105ZM10.3006 20.0415C10.3006 19.7749 10.1546 19.6416 9.86258 19.6416H9.4926V20.4245H9.86258C10.1546 20.4272 10.3006 20.2995 10.3006 20.0415Z" fill="white"/>
<path d="M13.9114 21.3371C13.7862 21.5645 13.5971 21.7502 13.3674 21.8711C13.109 22.0034 12.8217 22.0691 12.5314 22.0621H11.3965V19.0552H12.5314C12.8219 19.0479 13.1096 19.1121 13.3694 19.2422C13.5984 19.3606 13.7871 19.5444 13.9114 19.7702C14.0415 20.01 14.107 20.2795 14.1014 20.5522C14.1068 20.8258 14.0413 21.0962 13.9114 21.3371ZM13.1294 21.1861C13.2107 21.1027 13.2737 21.0032 13.3143 20.8941C13.3549 20.7849 13.3723 20.6685 13.3654 20.5522C13.3724 20.4361 13.355 20.3197 13.3144 20.2107C13.2737 20.1017 13.2107 20.0024 13.1294 19.9192C12.9475 19.7596 12.71 19.6784 12.4684 19.6932H12.1235V21.4111H12.4684C12.7098 21.4258 12.9472 21.345 13.1294 21.1861Z" fill="white"/>
<path d="M16.4746 19.0586V19.6376H15.2416V20.2965H16.1936V20.8495H15.2416V22.0655H14.5137V19.0586H16.4746Z" fill="white"/>
<path d="M12.8767 5.88672H11.1088C10.8006 5.88672 10.5508 6.13653 10.5508 6.4447V8.21262C10.5508 8.52078 10.8006 8.7706 11.1088 8.7706H12.8767C13.1848 8.7706 13.4347 8.52078 13.4347 8.21262V6.4447C13.4347 6.13653 13.1848 5.88672 12.8767 5.88672Z" fill="#FF3E4C"/>
</svg>
