<svg viewBox="0 0 17 16" fill="none" xmlns="http://www.w3.org/2000/svg">
<g clip-path="url(#clip0_2301_45306)">
<path d="M8.75505 0.0117188C7.17383 0.0117187 5.62812 0.480605 4.31338 1.35908C2.99864 2.23756 1.97393 3.48618 1.36882 4.94703C0.763718 6.40789 0.605394 8.01538 0.913875 9.56621C1.22236 11.1171 1.98379 12.5416 3.10188 13.6597C4.21997 14.7778 5.64451 15.5392 7.19534 15.8477C8.74618 16.1562 10.3537 15.9978 11.8145 15.3927C13.2754 14.7876 14.524 13.7629 15.4025 12.4482C16.281 11.1334 16.7498 9.58773 16.7498 8.00651C16.7498 6.95662 16.543 5.91701 16.1413 4.94703C15.7395 3.97706 15.1506 3.09572 14.4082 2.35334C13.6658 1.61095 12.7845 1.02206 11.8145 0.620286C10.8446 0.21851 9.80494 0.0117188 8.75505 0.0117188ZM8.75505 14.4023C7.49007 14.4023 6.2535 14.0272 5.20171 13.3244C4.14992 12.6217 3.33016 11.6228 2.84607 10.4541C2.36198 9.2854 2.23533 7.99941 2.48211 6.75874C2.72889 5.51807 3.33804 4.37845 4.23251 3.48397C5.12698 2.5895 6.26661 1.98036 7.50728 1.73357C8.74795 1.48679 10.0339 1.61345 11.2026 2.09753C12.3713 2.58162 13.3702 3.40139 14.073 4.45318C14.7758 5.50496 15.1509 6.74153 15.1509 8.00651C15.1509 9.70279 14.477 11.3296 13.2776 12.529C12.0781 13.7285 10.4513 14.4023 8.75505 14.4023Z" fill="currentColor"/>
<path d="M8.75431 3.20312C8.54227 3.20312 8.33892 3.28736 8.18899 3.43729C8.03906 3.58722 7.95483 3.79057 7.95483 4.0026V7.67221L5.78824 9.83081C5.70455 9.90248 5.63658 9.99067 5.58859 10.0899C5.5406 10.189 5.51364 10.2971 5.50938 10.4072C5.50513 10.5173 5.52368 10.6271 5.56388 10.7297C5.60407 10.8323 5.66504 10.9254 5.74295 11.0034C5.82086 11.0813 5.91404 11.1422 6.01663 11.1824C6.11923 11.2226 6.22902 11.2412 6.33913 11.2369C6.44923 11.2327 6.55726 11.2057 6.65645 11.1577C6.75564 11.1097 6.84384 11.0418 6.91551 10.9581L9.31394 8.55963C9.46458 8.41203 9.55078 8.21088 9.55379 8V4.0026C9.55379 3.79057 9.46956 3.58722 9.31963 3.43729C9.16969 3.28736 8.96634 3.20312 8.75431 3.20312Z" fill="currentColor"/>
</g>
<defs>
<clipPath id="clip0_2301_45306">
<rect width="16" height="16" fill="white" transform="translate(0.75)"/>
</clipPath>
</defs>
</svg>
