<svg viewBox="0 0 20 20" fill="none" xmlns="http://www.w3.org/2000/svg">
    <g id="people">
        <path id="Stroke 1 Copy"
            d="M0.833984 15C0.833984 13.125 3.33398 13.125 4.58398 11.875C5.20898 11.25 3.33398 11.25 3.33398 8.125C3.33398 6.04188 4.16711 5 5.83398 5C7.50086 5 8.33398 6.04188 8.33398 8.125C8.33398 11.25 6.45898 11.25 7.08398 11.875C8.33398 13.125 10.834 13.125 10.834 15"
            stroke="#06A77D" stroke-width="1.5" stroke-linecap="round" />
        <path id="Stroke 1 Copy 2"
            d="M9.99609 13.5359C10.4686 13.2103 11.082 12.9758 11.6689 12.6931C12.1278 12.4721 12.5705 12.2216 12.9171 11.875C13.5421 11.25 11.6671 11.25 11.6671 8.125C11.6671 6.04188 12.5003 5 14.1671 5C15.834 5 16.6671 6.04188 16.6671 8.125C16.6671 11.25 14.7921 11.25 15.4171 11.875C16.6671 13.125 19.1671 13.125 19.1671 15"
            stroke="#06A77D" stroke-width="1.5" stroke-linecap="round" />
    </g>
</svg>