<svg viewBox="0 0 200 240" fill="none" xmlns="http://www.w3.org/2000/svg">
<g opacity="0.3">
<path opacity="0.3" d="M139.67 49.25C134.203 49.2447 128.961 47.0704 125.095 43.2046C121.229 39.3387 119.055 34.097 119.05 28.6299V0H26.9099C19.7729 0 12.9284 2.83523 7.88184 7.88184C2.83523 12.9284 0 19.7729 0 26.9099V189.13C0 196.267 2.83523 203.112 7.88184 208.158C12.9284 213.205 19.7729 216.04 26.9099 216.04H137.51C141.045 216.041 144.545 215.346 147.811 213.994C151.077 212.643 154.045 210.661 156.545 208.162C159.045 205.663 161.028 202.696 162.381 199.43C163.734 196.165 164.43 192.665 164.43 189.13V49.25H139.67Z" fill="#FF3E4C"/>
</g>
<path d="M164.427 49.25H139.667C134.2 49.2447 128.958 47.0704 125.092 43.2046C121.226 39.3387 119.052 34.097 119.047 28.6299V0L164.427 49.25Z" fill="#FF3E4C"/>
<path d="M183.944 170.609H58.9036C50.0339 170.609 42.8438 177.8 42.8438 186.669V223.949C42.8438 232.819 50.0339 240.009 58.9036 240.009H183.944C192.813 240.009 200.004 232.819 200.004 223.949V186.669C200.004 177.8 192.813 170.609 183.944 170.609Z" fill="#FF3E4C"/>
<path d="M86.8035 213.379V220.649H79.2734V213.379H86.8035Z" fill="white"/>
<path d="M97.8638 210.098V220.648H90.5938V190.578H102.374C105.947 190.578 108.667 191.465 110.534 193.238C111.481 194.167 112.222 195.287 112.706 196.522C113.19 197.758 113.408 199.082 113.344 200.408C113.375 202.156 112.944 203.881 112.094 205.408C111.219 206.902 109.921 208.103 108.364 208.858C106.492 209.747 104.435 210.176 102.364 210.108L97.8638 210.098ZM105.944 200.408C105.944 197.741 104.484 196.408 101.564 196.408H97.8638V204.238H101.564C104.484 204.265 105.944 202.988 105.944 200.408Z" fill="white"/>
<path d="M124.186 210.098V220.648H116.906V190.578H128.686C132.266 190.578 134.99 191.465 136.856 193.238C137.804 194.167 138.544 195.287 139.028 196.522C139.513 197.758 139.73 199.082 139.666 200.408C139.699 202.157 139.264 203.883 138.406 205.408C137.538 206.904 136.243 208.105 134.686 208.858C132.814 209.747 130.757 210.176 128.686 210.108L124.186 210.098ZM132.266 200.408C132.266 197.741 130.806 196.408 127.886 196.408H124.186V204.238H127.886C130.806 204.265 132.266 202.988 132.266 200.408Z" fill="white"/>
<path d="M164.851 190.578V196.368H156.681V220.648H149.371V196.368H141.281V190.578H164.851Z" fill="white"/>
<path d="M74.6899 83.7283H31C30.0072 83.7283 29.0548 83.3346 28.3518 82.6335C27.6488 81.9324 27.2526 80.9811 27.25 79.9883C27.25 78.9937 27.6451 78.0399 28.3484 77.3367C29.0517 76.6334 30.0054 76.2383 31 76.2383H74.6499C75.6445 76.2383 76.5985 76.6334 77.3018 77.3367C78.005 78.0399 78.3999 78.9937 78.3999 79.9883C78.3973 80.9742 78.0066 81.9194 77.3123 82.6194C76.6179 83.3194 75.6758 83.7178 74.6899 83.7283Z" fill="#FF3E4C"/>
<path d="M74.6899 106.099H31C30.0072 106.099 29.0548 105.705 28.3518 105.004C27.6488 104.303 27.2526 103.352 27.25 102.359C27.25 101.365 27.6451 100.411 28.3484 99.7075C29.0517 99.0043 30.0054 98.6094 31 98.6094H74.6499C75.6445 98.6094 76.5985 99.0043 77.3018 99.7075C78.005 100.411 78.3999 101.365 78.3999 102.359C78.3973 103.345 78.0066 104.291 77.3123 104.99C76.6179 105.69 75.6758 106.089 74.6899 106.099Z" fill="#FF3E4C"/>
<path d="M74.6899 128.47H31C30.0054 128.47 29.0517 128.075 28.3484 127.372C27.6451 126.668 27.25 125.715 27.25 124.72C27.2579 123.731 27.6565 122.784 28.3589 122.088C29.0613 121.391 30.0106 121 31 121H74.6499C75.6427 121 76.5951 121.394 77.2981 122.095C78.0011 122.796 78.3973 123.747 78.3999 124.74C78.3947 125.724 78.0029 126.667 77.3088 127.365C76.6148 128.063 75.6741 128.459 74.6899 128.47Z" fill="#FF3E4C"/>
<path d="M74.6899 150.842H31C30.0054 150.842 29.0517 150.446 28.3484 149.743C27.6451 149.04 27.25 148.086 27.25 147.092C27.2526 146.099 27.6488 145.147 28.3518 144.446C29.0548 143.745 30.0072 143.352 31 143.352H74.6499C75.6427 143.352 76.5951 143.745 77.2981 144.446C78.0011 145.147 78.3973 146.099 78.3999 147.092C78.4 148.079 78.0106 149.027 77.3159 149.729C76.6213 150.431 75.6776 150.831 74.6899 150.842Z" fill="#FF3E4C"/>
<path d="M117.25 118.002V84.7617C109.152 85.1893 101.527 88.707 95.9451 94.5898C90.3636 100.473 87.2515 108.272 87.25 116.382C87.2487 120.54 88.0666 124.657 89.6572 128.499C91.2478 132.341 93.5799 135.832 96.52 138.772C99.4602 141.712 102.951 144.044 106.793 145.635C110.634 147.225 114.752 148.043 118.91 148.042C127.019 148.043 134.819 144.931 140.701 139.349C146.582 133.766 150.097 126.14 150.52 118.042L117.25 118.002Z" fill="#FF3E4C"/>
<path d="M123.312 82.2305V112.23H153.312C152.912 104.404 149.622 97.0038 144.081 91.4622C138.539 85.9205 131.139 82.6311 123.312 82.2305Z" fill="#FF3E4C"/>
</svg>
