<svg viewBox="0 0 48 29" fill="none" xmlns="http://www.w3.org/2000/svg">
    <path
        d="M10.2282 17.7189C13.0526 17.7189 15.3422 15.1031 15.3422 11.8764C15.3422 8.6497 13.0526 6.03394 10.2282 6.03394C7.40385 6.03394 5.11426 8.6497 5.11426 11.8764C5.11426 15.1031 7.40385 17.7189 10.2282 17.7189Z"
        fill="url(#paint0_linear_487_17240)" />
    <path
        d="M20.4558 26.3596C20.4558 29.909 15.249 28.6966 10.2279 28.6966C5.20682 28.6966 0 29.909 0 26.3596C0 22.8102 5.20682 19.9329 10.2279 19.9329C15.249 19.9329 20.4558 22.8102 20.4558 26.3596Z"
        fill="url(#paint1_linear_487_17240)" />
    <path
        d="M37.7722 17.7189C40.5965 17.7189 42.8861 15.1031 42.8861 11.8764C42.8861 8.6497 40.5965 6.03394 37.7722 6.03394C34.9478 6.03394 32.6582 8.6497 32.6582 11.8764C32.6582 15.1031 34.9478 17.7189 37.7722 17.7189Z"
        fill="url(#paint2_linear_487_17240)" />
    <path
        d="M47.9997 26.3596C47.9997 29.909 42.7929 28.6966 37.7718 28.6966C32.7508 28.6966 27.5439 29.909 27.5439 26.3596C27.5439 22.8102 32.7508 19.9329 37.7718 19.9329C42.7929 19.9329 47.9997 22.8102 47.9997 26.3596Z"
        fill="url(#paint3_linear_487_17240)" />
    <path
        d="M24.1155 14.7946C27.6914 14.7946 30.5903 11.4827 30.5903 7.39734C30.5903 3.31197 27.6914 0.00012207 24.1155 0.00012207C20.5395 0.00012207 17.6406 3.31197 17.6406 7.39734C17.6406 11.4827 20.5395 14.7946 24.1155 14.7946Z"
        fill="url(#paint4_linear_487_17240)" />
    <path
        d="M37.0654 25.7347C37.0654 30.2286 30.473 28.6935 24.1157 28.6935C17.7584 28.6935 11.166 30.2286 11.166 25.7347C11.166 21.2407 17.7584 17.5977 24.1157 17.5977C30.473 17.5977 37.0654 21.2407 37.0654 25.7347Z"
        fill="url(#paint5_linear_487_17240)" />
    <defs>
        <linearGradient id="paint0_linear_487_17240" x1="10.2282" y1="6.03394" x2="10.2282" y2="17.7189"
            gradientUnits="userSpaceOnUse">
            <stop stop-color="#15FBED" />
            <stop offset="1" stop-color="#15FBED" stop-opacity="0.1" />
        </linearGradient>
        <linearGradient id="paint1_linear_487_17240" x1="10.2279" y1="19.9329" x2="10.2279" y2="28.8963"
            gradientUnits="userSpaceOnUse">
            <stop stop-color="#15FBED" />
            <stop offset="1" stop-color="#15FBED" stop-opacity="0.1" />
        </linearGradient>
        <linearGradient id="paint2_linear_487_17240" x1="37.7722" y1="6.03394" x2="37.7722" y2="17.7189"
            gradientUnits="userSpaceOnUse">
            <stop stop-color="#15FBED" />
            <stop offset="1" stop-color="#15FBED" stop-opacity="0.1" />
        </linearGradient>
        <linearGradient id="paint3_linear_487_17240" x1="37.7718" y1="19.9329" x2="37.7718" y2="28.8963"
            gradientUnits="userSpaceOnUse">
            <stop stop-color="#15FBED" />
            <stop offset="1" stop-color="#15FBED" stop-opacity="0.1" />
        </linearGradient>
        <linearGradient id="paint4_linear_487_17240" x1="24.1155" y1="0.00012207" x2="24.1155" y2="14.7946"
            gradientUnits="userSpaceOnUse">
            <stop stop-color="#15FBED" />
            <stop offset="1" stop-color="#15FBED" stop-opacity="0.1" />
        </linearGradient>
        <linearGradient id="paint5_linear_487_17240" x1="24.1157" y1="17.5977" x2="24.1157" y2="28.9464"
            gradientUnits="userSpaceOnUse">
            <stop stop-color="#15FBED" />
            <stop offset="1" stop-color="#15FBED" stop-opacity="0.1" />
        </linearGradient>
    </defs>
</svg>