<svg viewBox="0 0 48 48" fill="none" xmlns="http://www.w3.org/2000/svg">
    <path
        d="M15.0232 31.1303C19.1717 31.1303 22.5347 27.2882 22.5347 22.5488C22.5347 17.8093 19.1717 13.9672 15.0232 13.9672C10.8747 13.9672 7.51172 17.8093 7.51172 22.5488C7.51172 27.2882 10.8747 31.1303 15.0232 31.1303Z"
        fill="currentColor" />
    <path
        d="M30.0459 43.822C30.0459 49.0354 22.398 47.2546 15.0229 47.2546C7.64788 47.2546 0 49.0354 0 43.822C0 38.6085 7.64788 34.3823 15.0229 34.3823C22.398 34.3823 30.0459 38.6085 30.0459 43.822Z"
        fill="currentColor" />
    <path
        d="M37.6042 0.742419C35.8123 2.03042 34.3452 1.85678 33.3682 1.42282L35.9973 6.72841L39.6677 6.82352L42.2126 1.22645C41.7085 0.672189 39.9364 -0.932188 37.6041 0.742109L37.6042 0.742419Z"
        fill="currentColor" />
    <path
        d="M40.9527 7.62689H40.9639C41.0842 7.62689 41.1963 7.57084 41.2691 7.47573C41.3195 7.41128 41.381 7.33571 41.4511 7.25173C41.5015 7.26286 41.5546 7.26286 41.608 7.25173C44.3433 6.70022 44.9538 7.96007 44.9844 8.02727C45.046 8.17276 45.1889 8.2624 45.3372 8.2624C45.3848 8.2624 45.4352 8.25401 45.4827 8.23448C45.6787 8.15616 45.7738 7.92922 45.6926 7.73336C45.6647 7.66052 45.0011 6.12354 42.3021 6.37547C42.9909 5.74542 43.8783 5.13242 44.6763 5.11562C45.1522 5.10449 45.5555 5.3033 45.9139 5.72592C46.051 5.88821 46.2947 5.90794 46.457 5.77064C46.6193 5.63354 46.639 5.38981 46.5017 5.22754C45.9922 4.62563 45.3735 4.32876 44.6595 4.34555C42.9516 4.38754 41.2548 6.28855 40.7873 6.85686L40.5072 6.84846L39.6729 6.826L39.4489 7.31874C39.4097 7.40545 39.4042 7.50349 39.4294 7.5904L40.4289 7.61559L40.9527 7.62689Z"
        fill="currentColor" />
    <path fill-rule="evenodd" clip-rule="evenodd"
        d="M39.505 7.72791C44.1835 13.036 46.7062 17.1043 47.2184 20.1645C47.6637 22.8298 46.496 24.3956 45.169 25.6947C43.3826 27.4389 38.497 28.6568 34.3393 27.6153C32.2087 27.0831 29.4482 25.7365 28.3758 22.3487C27.3792 19.2044 28.3674 15.8054 31.3101 12.244C33.4537 9.65066 35.916 7.91456 36.1231 7.76859C36.1313 7.7628 36.1359 7.75952 36.1369 7.75877C36.2263 7.69706 36.2824 7.60468 36.2992 7.50391L39.4267 7.58515C39.4406 7.63827 39.4687 7.68593 39.505 7.72791ZM41.8305 14.9075C41.722 15.0071 41.5749 15.0631 41.4214 15.0631H39.1409C39.5925 15.5053 39.8923 16.06 40.0027 16.6579H41.4213C41.5747 16.6579 41.7219 16.7139 41.8304 16.8136C41.9389 16.9132 41.9998 17.0484 41.9998 17.1894C41.9998 17.3304 41.9389 17.4656 41.8304 17.5653C41.7219 17.665 41.5747 17.721 41.4213 17.721H40.0025C39.8583 18.4683 39.4314 19.1448 38.7973 19.6311C38.1631 20.1174 37.3624 20.3822 36.5364 20.3789H36.0329L39.87 23.7298C39.9817 23.8307 40.0466 23.9674 40.0509 24.1113C40.0552 24.2552 39.9986 24.395 39.8931 24.5014C39.8408 24.5521 39.7781 24.5928 39.7086 24.6211C39.6391 24.6494 39.5642 24.6649 39.4881 24.6665C39.4121 24.6682 39.3365 24.656 39.2656 24.6307C39.1947 24.6054 39.13 24.5675 39.0751 24.5191L34.1812 20.2648C34.0974 20.189 34.0396 20.0924 34.0147 19.9868C33.9899 19.8813 33.9991 19.7714 34.0413 19.6706C34.0835 19.5698 34.1568 19.4825 34.2523 19.4195C34.3477 19.3564 34.4611 19.3204 34.5786 19.3157H36.5367C37.6369 19.3157 38.5633 18.6956 38.8219 17.721H34.5786C34.4251 17.721 34.278 17.665 34.1695 17.5653C34.061 17.4656 34 17.3304 34 17.1894C34 17.0484 34.061 16.9132 34.1695 16.8136C34.278 16.7139 34.4251 16.6579 34.5786 16.6579H38.8218C38.5633 15.6833 37.6369 15.0631 36.5366 15.0631H34.5786C34.4251 15.0631 34.278 15.0071 34.1695 14.9075C34.061 14.8078 34 14.6726 34 14.5316C34 14.3906 34.061 14.2554 34.1695 14.1557C34.278 14.056 34.4251 14 34.5786 14H41.4214C41.5749 14 41.722 14.056 41.8305 14.1557C41.939 14.2554 42 14.3906 42 14.5316C42 14.6726 41.939 14.8078 41.8305 14.9075Z"
        fill="currentColor" />
</svg>