<svg viewBox="0 0 48 44" fill="none" xmlns="http://www.w3.org/2000/svg">
    <path
        d="M15.0232 27.1302C19.1717 27.1302 22.5347 23.2881 22.5347 18.5487C22.5347 13.8092 19.1717 9.96716 15.0232 9.96716C10.8747 9.96716 7.51172 13.8092 7.51172 18.5487C7.51172 23.2881 10.8747 27.1302 15.0232 27.1302Z"
        fill="url(#paint0_linear_487_17258)" />
    <path
        d="M30.0459 39.8219C30.0459 45.0354 22.398 43.2546 15.0229 43.2546C7.64788 43.2546 0 45.0354 0 39.8219C0 34.6085 7.64788 30.3823 15.0229 30.3823C22.398 30.3823 30.0459 34.6085 30.0459 39.8219Z"
        fill="url(#paint1_linear_487_17258)" />
    <path fill-rule="evenodd" clip-rule="evenodd"
        d="M38.9908 0.453112L46.1596 4.43179C47.2989 5.06649 48.0036 6.26993 47.9996 7.57411V15.2925C48.0036 16.5967 47.2989 17.8001 46.1596 18.4348L38.9908 22.4135C37.9063 23.0177 36.5864 23.0177 35.502 22.4135L28.3332 18.4348C27.1938 17.8001 26.4892 16.5967 26.4932 15.2925V7.57411C26.4892 6.26993 27.1938 5.06649 28.3332 4.43179L35.502 0.453112C36.5864 -0.151037 37.9063 -0.151037 38.9908 0.453112ZM38.7159 11.2777L43.7699 8.46994H43.7221C44.1061 8.19906 44.2156 7.67759 43.9731 7.27514C43.7328 6.85773 43.2086 6.70044 42.7783 6.9167L37.7362 9.72448C37.398 9.89489 36.9991 9.89489 36.6609 9.72448L31.6188 6.9167C31.1885 6.70044 30.6642 6.85773 30.424 7.27514C30.1992 7.70176 30.3524 8.22978 30.7705 8.46994L35.8723 11.2777C36.0641 11.3866 36.2688 11.4709 36.4817 11.5286V16.8096C36.5322 17.2299 36.8887 17.5462 37.312 17.5462C37.7354 17.5462 38.0919 17.2299 38.1424 16.8096V11.5167C38.3415 11.4576 38.5338 11.3775 38.7159 11.2777Z"
        fill="url(#paint2_linear_487_17258)" />
    <defs>
        <linearGradient id="paint0_linear_487_17258" x1="15.0232" y1="9.96716" x2="15.0232" y2="27.1302"
            gradientUnits="userSpaceOnUse">
            <stop stop-color="#FB7E15" />
            <stop offset="1" stop-color="#FB7E15" stop-opacity="0.1" />
        </linearGradient>
        <linearGradient id="paint1_linear_487_17258" x1="15.0229" y1="30.3823" x2="15.0229" y2="43.5479"
            gradientUnits="userSpaceOnUse">
            <stop stop-color="#FB7E15" />
            <stop offset="1" stop-color="#FB7E15" stop-opacity="0.1" />
        </linearGradient>
        <linearGradient id="paint2_linear_487_17258" x1="37.2464" y1="0" x2="37.2464" y2="22.8666"
            gradientUnits="userSpaceOnUse">
            <stop stop-color="#FB7E15" />
            <stop offset="1" stop-color="#FB7E15" stop-opacity="0.1" />
        </linearGradient>
    </defs>
</svg>