<svg viewBox="0 0 48 46" fill="none" xmlns="http://www.w3.org/2000/svg">
    <path fill-rule="evenodd" clip-rule="evenodd"
        d="M24.9082 0.17879C24.6187 0.0595366 24.3084 -0.00122148 23.9953 1.86067e-05C23.3661 1.86067e-05 22.7627 0.259337 22.3178 0.704237C21.8729 1.14914 21.623 1.75255 21.623 2.38173V3.26316H7.11702H7.10764C7.00913 3.26316 6.91158 3.28256 6.82057 3.32026C6.72956 3.35796 6.64686 3.41321 6.5772 3.48287C6.50755 3.55253 6.45229 3.63522 6.41459 3.72623C6.37689 3.81725 6.35749 3.91479 6.35749 4.0133V7.42647C6.35749 7.52498 6.37689 7.62253 6.41459 7.71354C6.45229 7.80455 6.50755 7.88725 6.5772 7.9569C6.64686 8.02656 6.72956 8.08181 6.82057 8.11951C6.91158 8.15721 7.00913 8.17662 7.10764 8.17662H8.58745L1.17332 25.0174H0.74077C0.541819 25.0174 0.360393 25.0964 0.219713 25.2371C0.0790333 25.3778 0 25.5686 0 25.7675C0.00042189 26.8936 0.223492 28.0085 0.656377 29.0481C1.08926 30.0877 1.72342 31.0314 2.52237 31.825C3.31561 32.6211 4.25815 33.2529 5.29599 33.6841C6.33383 34.1154 7.44656 34.3375 8.57042 34.338H10.8959C12.0213 34.3388 13.1358 34.1172 14.1754 33.6859C15.2149 33.2547 16.159 32.6222 16.9533 31.825C18.5005 30.2684 19.4663 28.1305 19.4663 25.7675C19.4663 25.5686 19.3873 25.3778 19.2466 25.2371C19.1059 25.0964 18.9151 25.0174 18.7162 25.0174H18.1145L10.6917 8.17662H21.623V38.5013H17.094C16.2316 38.5001 15.3776 38.669 14.5807 38.9984C13.7837 39.3278 13.0597 39.8113 12.4499 40.421C11.8402 41.0308 11.3567 41.7548 11.0273 42.5518C10.6979 43.3487 10.5289 44.2028 10.5302 45.0651C10.5302 45.264 10.6092 45.4548 10.7499 45.5955C10.8906 45.7362 11.0814 45.8152 11.2803 45.8152H36.8885C37.0874 45.8152 37.2688 45.7362 37.4095 45.5955C37.5502 45.4548 37.6292 45.264 37.6292 45.0651C37.6305 44.2028 37.4615 43.3487 37.1321 42.5518C36.8027 41.7548 36.3192 41.0308 35.7095 40.421C35.0997 39.8113 34.3757 39.3278 33.5788 38.9984C32.7818 38.669 31.9278 38.5001 31.0654 38.5013H26.377V8.17662H37.1305L29.7164 25.0174H29.2932C29.0942 25.0174 28.8941 25.0964 28.7534 25.2371C28.6127 25.3778 28.5337 25.5686 28.5337 25.7676C28.5329 26.893 28.7545 28.0075 29.1857 29.047C29.617 30.0866 30.2494 31.0306 31.0467 31.825C31.8399 32.6211 32.7824 33.2529 33.8203 33.6841C34.8581 34.1154 35.9709 34.3376 37.0947 34.338H39.4389C40.5628 34.3376 41.6755 34.1154 42.7134 33.6841C43.7512 33.2529 44.6937 32.6211 45.487 31.825C47.0435 30.2684 48 28.1305 48 25.7676C48 25.5686 47.9209 25.3778 47.7803 25.2371C47.6396 25.0964 47.4488 25.0174 47.2498 25.0174H46.6579L39.2438 8.17662H41.0518C41.2507 8.17662 41.4415 8.09758 41.5822 7.9569C41.7229 7.81622 41.8019 7.62542 41.8019 7.42647V4.0133C41.8019 3.81435 41.7229 3.62355 41.5822 3.48287C41.4415 3.34219 41.2507 3.26316 41.0518 3.26316H26.377V2.38173C26.3782 2.06861 26.3175 1.75835 26.1982 1.46882C26.079 1.1793 25.9036 0.916252 25.6822 0.694842C25.4608 0.473432 25.1977 0.298043 24.9082 0.17879ZM38.1872 9.50662L31.3541 25.0174H45.0202L38.1872 9.50662ZM9.63976 9.49692L2.81042 25.0174H16.4771L9.63976 9.49692ZM23.6594 1.56758C23.7658 1.52317 23.88 1.5003 23.9953 1.50031V1.50969C24.1106 1.50845 24.225 1.53009 24.3319 1.57336C24.4388 1.61663 24.536 1.68066 24.618 1.76176C24.7 1.84287 24.765 1.93942 24.8095 2.04584C24.8539 2.15225 24.8767 2.26642 24.8767 2.38173V3.26316H23.1232V2.38173C23.122 2.26643 23.1436 2.15202 23.1869 2.04514C23.2302 1.93825 23.2942 1.84101 23.3753 1.75903C23.4564 1.67706 23.553 1.61199 23.6594 1.56758ZM11.7107 27.4983C11.7874 27.4983 11.861 27.4721 11.9153 27.4254C11.9695 27.3786 12 27.3153 12 27.2492C12 27.1831 11.9695 27.1197 11.9153 27.073C11.861 27.0263 11.7874 27 11.7107 27H8.28928C8.21255 27 8.13898 27.0263 8.08473 27.073C8.03048 27.1197 8 27.1831 8 27.2492C8 27.3153 8.03048 27.3786 8.08473 27.4254C8.13898 27.4721 8.21255 27.4983 8.28928 27.4983H9.26828C9.81843 27.4983 10.2817 27.7891 10.4109 28.2459H8.28928C8.21255 28.2459 8.13898 28.2721 8.08473 28.3189C8.03048 28.3656 8 28.429 8 28.495C8 28.5611 8.03048 28.6245 8.08473 28.6712C8.13898 28.718 8.21255 28.7442 8.28928 28.7442H10.411C10.2817 29.201 9.81843 29.4917 9.26833 29.4917H8.28928C8.23056 29.4939 8.17386 29.5108 8.12614 29.5404C8.07842 29.5699 8.04176 29.6108 8.02065 29.6581C7.99955 29.7053 7.99493 29.7569 8.00735 29.8063C8.01978 29.8558 8.04871 29.9011 8.09059 29.9366L10.5376 31.9308C10.565 31.9535 10.5974 31.9713 10.6328 31.9831C10.6682 31.995 10.7061 32.0007 10.7441 31.9999C10.7821 31.9992 10.8195 31.9919 10.8543 31.9786C10.889 31.9654 10.9204 31.9463 10.9466 31.9225C10.9993 31.8727 11.0276 31.8071 11.0254 31.7397C11.0233 31.6722 10.9909 31.6081 10.935 31.5608L9.01647 29.9901H9.26818C9.68118 29.9917 10.0816 29.8675 10.3986 29.6396C10.7157 29.4116 10.9291 29.0945 11.0012 28.7442H11.7106C11.7873 28.7442 11.8609 28.718 11.9152 28.6712C11.9694 28.6245 11.9999 28.5611 11.9999 28.495C11.9999 28.429 11.9694 28.3656 11.9152 28.3189C11.8609 28.2721 11.7873 28.2459 11.7106 28.2459H11.0013C10.9461 27.9656 10.7963 27.7056 10.5705 27.4983H11.7107ZM40.9153 27.4254C40.861 27.4721 40.7874 27.4983 40.7107 27.4983H39.5704C39.7963 27.7056 39.9461 27.9656 40.0013 28.2459H40.7106C40.7873 28.2459 40.8609 28.2721 40.9152 28.3189C40.9694 28.3656 40.9999 28.429 40.9999 28.495C40.9999 28.5611 40.9694 28.6245 40.9152 28.6712C40.8609 28.718 40.7873 28.7442 40.7106 28.7442H40.0012C39.9291 29.0945 39.7157 29.4116 39.3986 29.6396C39.0816 29.8675 38.6812 29.9917 38.2682 29.9901H38.0165L39.935 31.5608C39.9909 31.6081 40.0233 31.6722 40.0254 31.7397C40.0276 31.8071 39.9993 31.8727 39.9466 31.9225C39.9204 31.9463 39.889 31.9654 39.8543 31.9786C39.8195 31.9919 39.7821 31.9992 39.7441 31.9999C39.7061 32.0007 39.6682 31.995 39.6328 31.9831C39.5974 31.9713 39.565 31.9535 39.5376 31.9308L37.0906 29.9366C37.0487 29.9011 37.0198 29.8558 37.0074 29.8063C36.9949 29.7569 36.9996 29.7053 37.0207 29.6581C37.0418 29.6108 37.0784 29.5699 37.1261 29.5404C37.1739 29.5108 37.2306 29.4939 37.2893 29.4917H38.2683C38.8184 29.4917 39.2817 29.201 39.411 28.7442H37.2893C37.2126 28.7442 37.139 28.718 37.0847 28.6712C37.0305 28.6245 37 28.5611 37 28.495C37 28.429 37.0305 28.3656 37.0847 28.3189C37.139 28.2721 37.2126 28.2459 37.2893 28.2459H39.4109C39.2817 27.7891 38.8184 27.4983 38.2683 27.4983H37.2893C37.2126 27.4983 37.139 27.4721 37.0847 27.4254C37.0305 27.3786 37 27.3153 37 27.2492C37 27.1831 37.0305 27.1197 37.0847 27.073C37.139 27.0263 37.2126 27 37.2893 27H40.7107C40.7874 27 40.861 27.0263 40.9153 27.073C40.9695 27.1197 41 27.1831 41 27.2492C41 27.3153 40.9695 27.3786 40.9153 27.4254Z"
        fill="url(#paint0_linear_487_17205)" />
    <defs>
        <linearGradient id="paint0_linear_487_17205" x1="24" y1="0" x2="24" y2="53.5" gradientUnits="userSpaceOnUse">
            <stop stop-color="#0AE287" />
            <stop offset="0.0001" stop-color="#0AE287" />
            <stop offset="1" stop-color="#0AE287" stop-opacity="0.1" />
        </linearGradient>
    </defs>
</svg>