<svg viewBox="0 0 48 29" fill="none" xmlns="http://www.w3.org/2000/svg">
    <path
        d="M10.2282 17.7189C13.0526 17.7189 15.3422 15.1031 15.3422 11.8764C15.3422 8.6497 13.0526 6.03394 10.2282 6.03394C7.40385 6.03394 5.11426 8.6497 5.11426 11.8764C5.11426 15.1031 7.40385 17.7189 10.2282 17.7189Z"
        fill="currentColor" />
    <path
        d="M20.4558 26.3596C20.4558 29.909 15.249 28.6966 10.2279 28.6966C5.20682 28.6966 0 29.909 0 26.3596C0 22.8102 5.20682 19.9329 10.2279 19.9329C15.249 19.9329 20.4558 22.8102 20.4558 26.3596Z"
        fill="currentColor" />
    <path
        d="M37.7722 17.7189C40.5965 17.7189 42.8861 15.1031 42.8861 11.8764C42.8861 8.6497 40.5965 6.03394 37.7722 6.03394C34.9478 6.03394 32.6582 8.6497 32.6582 11.8764C32.6582 15.1031 34.9478 17.7189 37.7722 17.7189Z"
        fill="currentColor" />
    <path
        d="M47.9997 26.3596C47.9997 29.909 42.7929 28.6966 37.7718 28.6966C32.7508 28.6966 27.5439 29.909 27.5439 26.3596C27.5439 22.8102 32.7508 19.9329 37.7718 19.9329C42.7929 19.9329 47.9997 22.8102 47.9997 26.3596Z"
        fill="currentColor" />
    <path
        d="M24.1155 14.7945C27.6914 14.7945 30.5903 11.4827 30.5903 7.39731C30.5903 3.31194 27.6914 9.15527e-05 24.1155 9.15527e-05C20.5395 9.15527e-05 17.6406 3.31194 17.6406 7.39731C17.6406 11.4827 20.5395 14.7945 24.1155 14.7945Z"
        fill="currentColor" />
    <path
        d="M37.0654 25.7347C37.0654 30.2286 30.473 28.6935 24.1157 28.6935C17.7584 28.6935 11.166 30.2286 11.166 25.7347C11.166 21.2407 17.7584 17.5977 24.1157 17.5977C30.473 17.5977 37.0654 21.2407 37.0654 25.7347Z"
        fill="currentColor" />
</svg>