<svg viewBox="0 0 201 181" fill="none" xmlns="http://www.w3.org/2000/svg">
    <g clip-path="url(#clip0_1204_4114)">
        <path
            d="M199.22 148.773C197.391 160.021 189.154 168.731 180.384 176.342C179.159 177.405 177.932 178.447 176.701 179.469C176.693 179.474 176.684 179.483 176.676 179.489C176.617 179.538 176.557 179.587 176.502 179.635C176.248 179.846 175.994 180.056 175.742 180.264L175.901 180.314L176.393 180.465C176.224 180.419 176.057 180.374 175.888 180.328C175.838 180.314 175.785 180.302 175.735 180.287C169.921 178.717 163.988 176.994 159.234 173.314C154.303 169.493 150.906 162.979 152.607 156.977C152.831 156.19 153.142 155.431 153.534 154.714C153.695 154.414 153.871 154.123 154.057 153.837C155.181 152.072 156.755 150.638 158.617 149.682C160.479 148.727 162.561 148.285 164.651 148.401C166.74 148.517 168.761 149.188 170.506 150.344C172.25 151.5 173.655 153.099 174.576 154.978C174.493 148.365 168.452 143.542 162.785 140.129C157.116 136.718 150.698 133.033 148.915 126.66C147.922 123.115 148.758 119.463 150.709 116.378C150.769 116.284 150.83 116.19 150.893 116.098C153.286 112.49 156.952 109.918 161.159 108.894C169.009 107.114 177.236 110.393 183.675 115.226C194.038 123.001 201.298 135.984 199.22 148.773Z"
            fill="#F2F2F2" />
        <path
            d="M182.569 136.347C184.38 138.537 185.862 140.98 186.967 143.597C187.918 145.941 188.513 148.414 188.732 150.934C189.209 156.111 188.227 161.343 186.269 166.134C184.745 169.771 182.767 173.201 180.383 176.342C179.159 177.405 177.932 178.447 176.701 179.469C176.693 179.474 176.684 179.484 176.676 179.489C176.617 179.538 176.557 179.587 176.502 179.635C176.248 179.846 175.994 180.056 175.742 180.265L175.9 180.314L176.393 180.465C176.224 180.419 176.057 180.374 175.888 180.328C175.838 180.314 175.785 180.302 175.735 180.287C175.743 176.153 174.759 172.077 172.867 168.401C170.974 164.725 168.228 161.556 164.859 159.16C161.487 156.806 157.607 155.283 153.534 154.714C153.694 154.414 153.871 154.123 154.057 153.837C155.633 154.081 157.184 154.465 158.692 154.982C164.082 156.817 168.738 160.338 171.971 165.025C174.878 169.284 176.51 174.283 176.674 179.437C176.877 179.203 177.08 178.965 177.276 178.73C181.019 174.295 184.22 169.336 186.128 163.828C187.797 159.157 188.291 154.147 187.567 149.24C186.715 143.897 183.979 139.182 180.362 135.226C176.488 130.992 171.836 127.393 166.968 124.376C161.982 121.279 156.635 118.804 151.046 117.006C150.92 116.965 150.815 116.876 150.752 116.759C150.689 116.642 150.674 116.506 150.709 116.378C150.731 116.264 150.797 116.164 150.893 116.098C150.943 116.069 150.999 116.052 151.056 116.048C151.113 116.043 151.171 116.052 151.225 116.073C151.915 116.295 152.601 116.522 153.283 116.763C158.966 118.77 164.378 121.475 169.394 124.816C174.239 128.034 178.89 131.817 182.569 136.347Z"
            fill="white" />
        <path
            d="M83.7312 110.661C83.1723 110.66 82.6347 110.447 82.227 110.064C81.8194 109.682 81.5723 109.159 81.5358 108.602L81.2088 103.61C81.1706 103.027 81.3656 102.452 81.751 102.013C82.1363 101.574 82.6804 101.305 83.2635 101.267L122.379 98.706C122.995 98.6653 123.614 98.7465 124.199 98.945C124.785 99.1434 125.325 99.4553 125.79 99.8627C126.255 100.27 126.635 100.765 126.908 101.319C127.182 101.874 127.343 102.476 127.384 103.093C127.424 103.71 127.342 104.328 127.144 104.913C126.945 105.499 126.633 106.039 126.225 106.503C125.817 106.968 125.322 107.347 124.768 107.621C124.213 107.894 123.61 108.055 122.994 108.095L83.8785 110.656C83.8293 110.659 83.7802 110.661 83.7312 110.661Z"
            fill="#4CC3C7" />
        <path
            d="M91.4441 111.305C90.8743 111.304 90.327 111.082 89.9167 110.687C89.5065 110.292 89.2651 109.753 89.2432 109.184L88.9644 101.728C88.9536 101.438 88.9999 101.15 89.1006 100.879C89.2012 100.608 89.3544 100.359 89.5512 100.147C89.748 99.9346 89.9847 99.7634 90.2477 99.6428C90.5107 99.5222 90.795 99.4546 91.0841 99.4438L123.25 98.2418C123.834 98.22 124.402 98.431 124.831 98.8285C125.259 99.2259 125.512 99.7772 125.534 100.361L125.813 107.817C125.823 108.106 125.777 108.395 125.676 108.666C125.576 108.937 125.423 109.186 125.226 109.398C125.029 109.61 124.792 109.781 124.529 109.902C124.266 110.023 123.982 110.09 123.693 110.101L91.5274 111.303C91.4996 111.304 91.4717 111.305 91.4441 111.305Z"
            fill="#2F2E41" />
        <path
            d="M129.137 180.035H124.133C123.549 180.035 122.989 179.802 122.576 179.389C122.163 178.976 121.93 178.416 121.93 177.832V136.138C121.93 135.554 122.163 134.994 122.576 134.581C122.989 134.168 123.549 133.935 124.133 133.935H129.137C129.721 133.935 130.281 134.168 130.694 134.581C131.107 134.994 131.339 135.554 131.34 136.138V177.832C131.339 178.416 131.107 178.976 130.694 179.389C130.281 179.802 129.721 180.035 129.137 180.035Z"
            fill="#2F2E41" />
        <path
            d="M106.929 157.996L102.65 155.403C102.151 155.099 101.792 154.611 101.653 154.043C101.514 153.476 101.606 152.877 101.908 152.377L123.523 116.721C123.827 116.222 124.316 115.863 124.883 115.724C125.451 115.585 126.05 115.677 126.55 115.979L130.829 118.572C131.328 118.875 131.686 119.364 131.825 119.931C131.965 120.499 131.873 121.098 131.571 121.598L109.955 157.254C109.652 157.753 109.163 158.111 108.596 158.251C108.028 158.39 107.429 158.298 106.929 157.996Z"
            fill="#2F2E41" />
        <path
            d="M121.537 90.4216C131.086 90.4216 138.826 82.6824 138.826 73.1356C138.826 63.5888 131.086 55.8496 121.537 55.8496C111.989 55.8496 104.249 63.5888 104.249 73.1356C104.249 82.6824 111.989 90.4216 121.537 90.4216Z"
            fill="#4CC3C7" />
        <path
            d="M112.18 79.0377C111.624 78.855 111.113 78.5554 110.682 78.1589C110.397 77.8759 110.177 77.5339 110.038 77.1569C109.899 76.7799 109.844 76.377 109.876 75.9765C109.895 75.6911 109.978 75.4138 110.121 75.1662C110.264 74.9186 110.463 74.7074 110.701 74.5492C111.319 74.1526 112.146 74.1515 112.988 74.5224L112.956 67.7742L113.634 67.771L113.672 75.7042L113.149 75.3757C112.544 74.9953 111.678 74.7276 111.067 75.1198C110.916 75.2234 110.791 75.3604 110.702 75.5203C110.612 75.6801 110.561 75.8584 110.551 76.0413C110.529 76.3397 110.57 76.6395 110.674 76.9203C110.777 77.2011 110.94 77.4563 111.151 77.6686C111.899 78.3836 112.991 78.6072 114.237 78.807L114.13 79.4762C113.468 79.3886 112.815 79.2418 112.18 79.0377Z"
            fill="#2F2E41" />
        <path d="M105.968 67.4335L105.879 68.1055L109.499 68.5835L109.588 67.9115L105.968 67.4335Z" fill="#2F2E41" />
        <path d="M117.393 68.9418L117.305 69.6138L120.925 70.0918L121.013 69.4198L117.393 68.9418Z" fill="#2F2E41" />
        <path
            d="M135.974 147.324H106.821C106.057 147.324 105.325 147.02 104.784 146.48C104.244 145.94 103.94 145.207 103.939 144.443L110.043 97.6477C110.048 96.8874 110.353 96.1599 110.893 95.6242C111.432 95.0884 112.162 94.788 112.923 94.7886H123.269C127.401 94.7932 131.363 96.4367 134.285 99.3583C137.207 102.28 138.851 106.241 138.855 110.373V144.443C138.855 145.207 138.551 145.94 138.01 146.48C137.47 147.02 136.738 147.324 135.974 147.324Z"
            fill="#2F2E41" />
        <path
            d="M128.632 144.83C128.455 145.216 128.17 145.543 127.811 145.772C127.452 146 127.035 146.12 126.609 146.117L121.606 146.073C121.317 146.071 121.031 146.011 120.764 145.898C120.498 145.785 120.257 145.621 120.054 145.414C119.851 145.208 119.691 144.964 119.582 144.695C119.474 144.427 119.419 144.14 119.422 143.851L119.762 104.659C119.767 104.041 119.894 103.431 120.136 102.862C120.377 102.293 120.728 101.778 121.169 101.345C121.609 100.912 122.131 100.57 122.704 100.338C123.277 100.107 123.89 99.9904 124.507 99.9958C125.125 100.001 125.736 100.128 126.305 100.369C126.874 100.611 127.389 100.962 127.822 101.402C128.255 101.843 128.597 102.365 128.829 102.937C129.06 103.51 129.177 104.123 129.171 104.741L128.832 143.933C128.829 144.242 128.761 144.548 128.632 144.83Z"
            fill="#4CC3C7" />
        <path
            d="M130.843 134.367C130.665 134.754 130.38 135.081 130.021 135.309C129.662 135.538 129.245 135.657 128.82 135.654L120.274 135.58C119.69 135.574 119.132 135.337 118.722 134.92C118.313 134.504 118.086 133.942 118.09 133.358L118.369 101.176C118.372 100.886 118.431 100.6 118.544 100.334C118.657 100.068 118.821 99.8263 119.028 99.6235C119.234 99.4207 119.479 99.2605 119.747 99.1521C120.015 99.0437 120.302 98.9893 120.591 98.9918L129.137 99.0658C129.426 99.0683 129.712 99.1278 129.979 99.2408C130.245 99.3538 130.487 99.5182 130.689 99.7246C130.892 99.9309 131.052 100.175 131.161 100.443C131.269 100.712 131.324 100.999 131.321 101.288L131.042 133.47C131.04 133.78 130.972 134.086 130.843 134.367Z"
            fill="#2F2E41" />
        <path
            d="M121.861 62.8835C119.55 60.9712 116.461 62.7798 113.847 62.5232C111.346 62.2776 109.334 60.0774 108.786 57.7097C108.146 54.9475 109.533 52.1416 111.622 50.3721C113.91 48.4341 116.982 47.8319 119.91 48.1268C123.265 48.4648 126.357 49.9669 129.14 51.802C131.825 53.5169 134.303 55.5367 136.524 57.8212C138.514 59.9366 140.214 62.4709 140.797 65.3573C141.326 67.9804 141.015 70.9043 139.501 73.1638C138.698 74.3223 137.609 75.2543 136.341 75.8698C135.019 76.5504 133.604 77.0458 132.325 77.8112C130.392 78.9684 128.536 81.327 129.194 83.7323C129.335 84.2578 129.604 84.7405 129.975 85.1379C130.422 85.6151 131.199 84.9585 130.751 84.4801C129.965 83.6397 129.973 82.4988 130.364 81.4702C130.831 80.3106 131.677 79.3438 132.765 78.7281C134.103 77.9287 135.589 77.4228 136.962 76.6918C138.278 76.0228 139.412 75.046 140.269 73.8445C141.885 71.5062 142.324 68.4946 141.895 65.7246C141.431 62.727 139.834 60.0254 137.855 57.7736C135.701 55.3231 133.073 53.264 130.393 51.4203C127.517 49.442 124.351 47.7834 120.871 47.2279C117.854 46.7463 114.602 47.1399 112.004 48.8279C109.579 50.4036 107.747 53.0696 107.616 56.0122C107.574 57.3508 107.89 58.6763 108.531 59.8523C109.171 61.0284 110.114 62.0125 111.261 62.7034C112.438 63.3774 113.796 63.6651 115.145 63.5257C116.588 63.4058 118.025 62.9361 119.481 63.0313C120.14 63.0587 120.771 63.3001 121.281 63.7187C121.785 64.1365 122.362 63.2979 121.861 62.8835Z"
            fill="#2F2E41" />
        <path
            d="M101.532 152.979C101.538 152.941 101.545 152.903 101.553 152.864C101.614 152.581 101.73 152.313 101.894 152.075C102.059 151.837 102.269 151.634 102.513 151.478L106.718 148.766C107.209 148.45 107.805 148.342 108.376 148.465C108.947 148.588 109.446 148.933 109.764 149.423L122.734 169.529C123.05 170.02 123.159 170.617 123.036 171.188C122.912 171.759 122.567 172.258 122.076 172.575L117.872 175.287C117.38 175.603 116.784 175.711 116.213 175.588C115.642 175.464 115.143 175.12 114.826 174.629L101.856 154.523C101.559 154.067 101.444 153.516 101.532 152.979Z"
            fill="#2F2E41" />
        <path
            d="M85.7854 20.4712C85.4623 19.7043 84.9215 19.0489 84.2298 18.5861C83.5381 18.1234 82.7258 17.8736 81.8935 17.8677H4.21101C3.09437 17.8683 2.02363 18.3121 1.23404 19.1015C0.44445 19.891 0.000600005 20.9616 0 22.0781V120.34C0.000600005 121.456 0.44445 122.527 1.23404 123.316C2.02363 124.106 3.09437 124.55 4.21101 124.55H81.8964C83.0127 124.549 84.083 124.105 84.8724 123.315C85.6618 122.526 86.1059 121.456 86.1074 120.34V22.0781C86.1092 21.5265 86.0007 20.9802 85.7882 20.4712H85.7854ZM85.1694 120.34C85.1684 121.208 84.8229 122.041 84.2088 122.655C83.5947 123.269 82.7621 123.614 81.8936 123.615H4.21101C3.34234 123.615 2.50928 123.27 1.89498 122.656C1.28069 122.042 0.935438 121.209 0.935143 120.34V22.0786C0.936326 21.2103 1.28184 20.3779 1.89593 19.7639C2.51002 19.1499 3.34256 18.8044 4.21101 18.8032H81.8964C82.5506 18.8057 83.1892 19.0031 83.7308 19.37C84.2724 19.737 84.6923 20.257 84.937 20.8637C84.9846 20.9845 85.0258 21.1079 85.0602 21.2332C85.1345 21.5089 85.1722 21.7931 85.1722 22.0786L85.1694 120.34Z"
            fill="#3F3D56" />
        <path
            d="M69.5738 41.0667H46.1747C45.6783 41.0667 45.2021 40.8695 44.851 40.5185C44.5 40.1675 44.3027 39.6914 44.3027 39.195C44.3027 38.6986 44.5 38.2225 44.851 37.8715C45.2021 37.5204 45.6783 37.3232 46.1747 37.3232H69.5738C70.0703 37.3232 70.5465 37.5204 70.8975 37.8715C71.2486 38.2225 71.4458 38.6986 71.4458 39.195C71.4458 39.6914 71.2486 40.1675 70.8975 40.5185C70.5465 40.8695 70.0703 41.0667 69.5738 41.0667Z"
            fill="#3F3D56" />
        <path
            d="M69.5744 50.8929H46.1753C45.9292 50.8932 45.6855 50.845 45.4581 50.7511C45.2307 50.6572 45.0241 50.5194 44.85 50.3455C44.6759 50.1717 44.5378 49.9653 44.4435 49.738C44.3493 49.5107 44.3008 49.2671 44.3008 49.0211C44.3008 48.7751 44.3493 48.5315 44.4435 48.3043C44.5378 48.077 44.6759 47.8706 44.85 47.6967C45.0241 47.5229 45.2307 47.3851 45.4581 47.2912C45.6855 47.1973 45.9292 47.1491 46.1753 47.1494H69.5744C69.8204 47.1491 70.0641 47.1973 70.2915 47.2912C70.5189 47.3851 70.7256 47.5229 70.8997 47.6967C71.0738 47.8706 71.2119 48.077 71.3061 48.3043C71.4004 48.5315 71.4489 48.7751 71.4489 49.0211C71.4489 49.2671 71.4004 49.5107 71.3061 49.738C71.2119 49.9653 71.0738 50.1717 70.8997 50.3455C70.7256 50.5194 70.5189 50.6572 70.2915 50.7511C70.0641 50.845 69.8204 50.8932 69.5744 50.8929Z"
            fill="#3F3D56" />
        <path
            d="M34.1689 56.488H17.0689C16.5106 56.4874 15.9752 56.2654 15.5804 55.8706C15.1856 55.4758 14.9635 54.9406 14.9629 54.3823V34.2059C14.9635 33.6476 15.1856 33.1123 15.5804 32.7175C15.9752 32.3227 16.5106 32.1007 17.0689 32.1001H34.1689C34.7273 32.1007 35.2626 32.3227 35.6575 32.7175C36.0523 33.1123 36.2744 33.6476 36.275 34.2059V54.3823C36.2744 54.9406 36.0523 55.4758 35.6575 55.8706C35.2626 56.2654 34.7273 56.4874 34.1689 56.488Z"
            fill="#4CC3C7" />
        <path
            d="M69.412 71.0135H16.5302C16.0337 71.0135 15.5576 70.8163 15.2065 70.4653C14.8554 70.1142 14.6582 69.6382 14.6582 69.1418C14.6582 68.6453 14.8554 68.1693 15.2065 67.8182C15.5576 67.4672 16.0337 67.27 16.5302 67.27H69.412C69.9085 67.27 70.3847 67.4672 70.7357 67.8182C71.0868 68.1693 71.284 68.6453 71.284 69.1418C71.284 69.6382 71.0868 70.1142 70.7357 70.4653C70.3847 70.8163 69.9085 71.0135 69.412 71.0135Z"
            fill="#CCCCCC" />
        <path
            d="M69.412 80.8397H16.5302C16.0337 80.8397 15.5576 80.6424 15.2065 80.2914C14.8554 79.9404 14.6582 79.4643 14.6582 78.9679C14.6582 78.4715 14.8554 77.9954 15.2065 77.6444C15.5576 77.2934 16.0337 77.0962 16.5302 77.0962H69.412C69.9085 77.0962 70.3847 77.2934 70.7357 77.6444C71.0868 77.9954 71.284 78.4715 71.284 78.9679C71.284 79.4643 71.0868 79.9404 70.7357 80.2914C70.3847 80.6424 69.9085 80.8397 69.412 80.8397Z"
            fill="#CCCCCC" />
        <path
            d="M69.4115 90.6658H16.5296C16.0336 90.6652 15.5581 90.4677 15.2076 90.1167C14.857 89.7658 14.6602 89.2901 14.6602 88.7941C14.6602 88.2981 14.857 87.8224 15.2076 87.4715C15.5581 87.1205 16.0336 86.923 16.5296 86.9224H69.4115C69.6575 86.922 69.9012 86.9702 70.1286 87.0641C70.356 87.158 70.5627 87.2959 70.7368 87.4697C70.9109 87.6435 71.049 87.85 71.1432 88.0772C71.2375 88.3045 71.286 88.5481 71.286 88.7941C71.286 89.0401 71.2375 89.2837 71.1432 89.5109C71.049 89.7382 70.9109 89.9447 70.7368 90.1185C70.5627 90.2923 70.356 90.4302 70.1286 90.5241C69.9012 90.618 69.6575 90.6662 69.4115 90.6658Z"
            fill="#CCCCCC" />
        <path
            d="M69.412 100.492H16.5302C16.0337 100.492 15.5576 100.295 15.2065 99.9438C14.8554 99.5928 14.6582 99.1167 14.6582 98.6203C14.6582 98.1239 14.8554 97.6478 15.2065 97.2968C15.5576 96.9457 16.0337 96.7485 16.5302 96.7485H69.412C69.9085 96.7485 70.3847 96.9457 70.7357 97.2968C71.0868 97.6478 71.284 98.1239 71.284 98.6203C71.284 99.1167 71.0868 99.5928 70.7357 99.9438C70.3847 100.295 69.9085 100.492 69.412 100.492Z"
            fill="#CCCCCC" />
        <path
            d="M69.412 110.318H16.5302C16.0337 110.318 15.5576 110.121 15.2065 109.77C14.8554 109.419 14.6582 108.943 14.6582 108.446C14.6582 107.95 14.8554 107.474 15.2065 107.123C15.5576 106.772 16.0337 106.575 16.5302 106.575H69.412C69.9085 106.575 70.3847 106.772 70.7357 107.123C71.0868 107.474 71.284 107.95 71.284 108.446C71.284 108.943 71.0868 109.419 70.7357 109.77C70.3847 110.121 69.9085 110.318 69.412 110.318Z"
            fill="#CCCCCC" />
        <path
            d="M86.3657 36.7444C96.3433 36.7444 104.432 28.6571 104.432 18.681C104.432 8.70492 96.3433 0.617676 86.3657 0.617676C76.3882 0.617676 68.2998 8.70492 68.2998 18.681C68.2998 28.6571 76.3882 36.7444 86.3657 36.7444Z"
            fill="#4CC3C7" />
        <path
            d="M84.5763 25.5716C84.1699 25.5722 83.7742 25.4408 83.4491 25.197L83.4289 25.1819L79.1832 21.9345C78.9865 21.7837 78.8215 21.5958 78.6975 21.3813C78.5735 21.1668 78.493 20.93 78.4606 20.6844C78.4281 20.4387 78.4444 20.1892 78.5084 19.9498C78.5725 19.7105 78.683 19.4861 78.8337 19.2895C78.9845 19.0929 79.1725 18.9279 79.387 18.804C79.6016 18.68 79.8384 18.5995 80.084 18.5671C80.3297 18.5346 80.5793 18.5509 80.8187 18.6149C81.058 18.6789 81.2824 18.7894 81.4791 18.9402L84.2291 21.0487L90.7276 12.5719C90.8783 12.3754 91.0663 12.2104 91.2807 12.0865C91.4951 11.9626 91.7319 11.8822 91.9774 11.8497C92.223 11.8173 92.4725 11.8336 92.7117 11.8975C92.951 11.9615 93.1753 12.072 93.3719 12.2227L93.3724 12.2231L93.3321 12.2791L93.3735 12.2231C93.77 12.5278 94.0295 12.9774 94.0949 13.4732C94.1603 13.9689 94.0263 14.4704 93.7224 14.8675L86.0787 24.8336C85.9019 25.0632 85.6745 25.249 85.4142 25.3766C85.154 25.5042 84.8678 25.5701 84.578 25.5693L84.5763 25.5716Z"
            fill="white" />
        <path
            d="M200.666 180.618H77.7539C77.6653 180.618 77.5804 180.582 77.5177 180.52C77.4551 180.457 77.4199 180.372 77.4199 180.284C77.4199 180.195 77.4551 180.11 77.5177 180.048C77.5804 179.985 77.6653 179.95 77.7539 179.95H200.666C200.754 179.95 200.839 179.985 200.902 180.048C200.964 180.11 201 180.195 201 180.284C201 180.372 200.964 180.457 200.902 180.52C200.839 180.582 200.754 180.618 200.666 180.618Z"
            fill="#3F3D56" />
    </g>
    <defs>
        <clipPath id="clip0_1204_4114">
            <rect width="201" height="180" fill="currentColor" transform="translate(0 0.617676)" />
        </clipPath>
    </defs>
</svg>