<svg viewBox="0 0 32 32" fill="none" xmlns="http://www.w3.org/2000/svg">
    <g filter="url(#filter0_i_288_2868)">
        <path fill-rule="evenodd" clip-rule="evenodd"
            d="M15.9987 24.6673C20.7852 24.6673 24.6654 20.7871 24.6654 16.0007C24.6654 11.2142 20.7852 7.33398 15.9987 7.33398C11.2122 7.33398 7.33203 11.2142 7.33203 16.0007C7.33203 20.7871 11.2122 24.6673 15.9987 24.6673ZM19.8685 13.6483C19.9519 13.5649 19.9987 13.4519 19.9987 13.334C19.9987 13.2161 19.9519 13.1031 19.8685 13.0197C19.7852 12.9364 19.6721 12.8895 19.5542 12.8895H17.5854C17.4044 12.3806 17.1027 11.9231 16.7062 11.5562H19.5542C19.6721 11.5562 19.7852 11.5094 19.8685 11.4261C19.9519 11.3427 19.9987 11.2297 19.9987 11.1118C19.9987 10.9939 19.9519 10.8809 19.8685 10.7975C19.7852 10.7141 19.6721 10.6673 19.5542 10.6673H12.4432C12.3253 10.6673 12.2122 10.7141 12.1289 10.7975C12.0456 10.8809 11.9987 10.9939 11.9987 11.1118C11.9987 11.2297 12.0456 11.3427 12.1289 11.4261C12.2122 11.5094 12.3253 11.5562 12.4432 11.5562H14.4432C14.8935 11.5567 15.3349 11.6814 15.7189 11.9166C16.1029 12.1519 16.4145 12.4885 16.6194 12.8895H12.4432C12.3253 12.8895 12.2122 12.9364 12.1289 13.0197C12.0456 13.1031 11.9987 13.2161 11.9987 13.334C11.9987 13.4519 12.0456 13.5649 12.1289 13.6483C12.2122 13.7316 12.3253 13.7785 12.4432 13.7785H16.877C16.8836 13.8517 16.8876 13.9257 16.8876 14.0007C16.8868 14.6487 16.6291 15.2701 16.1708 15.7283C15.7126 16.1866 15.0912 16.4444 14.4432 16.4451H12.4432C12.3534 16.4451 12.2658 16.4723 12.1918 16.523C12.1178 16.5737 12.061 16.6456 12.0286 16.7293C11.9962 16.8129 11.99 16.9045 12.0106 16.9917C12.0312 17.0791 12.0778 17.1581 12.1442 17.2184L17.033 21.6629C17.1203 21.7421 17.2354 21.7835 17.3532 21.7779C17.4709 21.7723 17.5816 21.7202 17.6609 21.633C17.7402 21.5457 17.7816 21.4306 17.776 21.3129C17.7704 21.1951 17.7182 21.0844 17.631 21.0051L13.5927 17.334H14.4432C15.3269 17.333 16.1742 16.9815 16.7991 16.3566C17.424 15.7317 17.7755 14.8844 17.7765 14.0007C17.7765 13.9259 17.7731 13.852 17.7682 13.7785H19.5542C19.6721 13.7784 19.7852 13.7316 19.8685 13.6483Z"
            fill="currentColor" />
    </g>
    <path
        d="M4.22168 18.3077C4.07621 17.5609 4 16.7894 4 16C4 9.37258 9.37258 4 16 4C22.6274 4 28 9.37258 28 16C28 22.6274 22.6274 28 16 28C12.5969 28 9.52462 26.5834 7.34075 24.3077"
        stroke="currentColor" stroke-width="1.5" stroke-linecap="round" />
    <path
        d="M3.74019 22.55C3.85566 22.75 4.14434 22.75 4.25981 22.55L7.20429 17.45C7.31976 17.25 7.17543 17 6.94449 17H1.05551C0.824573 17 0.680236 17.25 0.795706 17.45L3.74019 22.55Z"
        fill="currentColor" />
    <defs>
        <filter id="filter0_i_288_2868" x="6.33203" y="6.33398" width="18.332" height="18.334"
            filterUnits="userSpaceOnUse" color-interpolation-filters="sRGB">
            <feFlood flood-opacity="0" result="BackgroundImageFix" />
            <feBlend mode="normal" in="SourceGraphic" in2="BackgroundImageFix" result="shape" />
            <feColorMatrix in="SourceAlpha" type="matrix" values="0 0 0 0 0 0 0 0 0 0 0 0 0 0 0 0 0 0 127 0"
                result="hardAlpha" />
            <feOffset dx="-1" dy="-1" />
            <feGaussianBlur stdDeviation="1" />
            <feComposite in2="hardAlpha" operator="arithmetic" k2="-1" k3="1" />
            <feColorMatrix type="matrix" values="0 0 0 0 0 0 0 0 0 0 0 0 0 0 0 0 0 0 0.16 0" />
            <feBlend mode="normal" in2="shape" result="effect1_innerShadow_288_2868" />
        </filter>
    </defs>
</svg>