<svg viewBox="0 0 32 32" fill="none" xmlns="http://www.w3.org/2000/svg">
    <g clip-path="url(#clip0_839_3579)">
        <g filter="url(#filter0_df_839_3579)">
            <path
                d="M26.6667 0H5.33333C2.38781 0 0 2.38781 0 5.33333V26.6667C0 29.6122 2.38781 32 5.33333 32H26.6667C29.6122 32 32 29.6122 32 26.6667V5.33333C32 2.38781 29.6122 0 26.6667 0Z"
                fill="white" fill-opacity="0.08" />
        </g>
        <g filter="url(#filter1_i_839_3579)">
            <path fill-rule="evenodd" clip-rule="evenodd"
                d="M15.9997 24.6667C20.7861 24.6667 24.6663 20.7865 24.6663 16C24.6663 11.2136 20.7861 7.33337 15.9997 7.33337C11.2132 7.33337 7.33301 11.2136 7.33301 16C7.33301 20.7865 11.2132 24.6667 15.9997 24.6667ZM19.8695 13.6476C19.9529 13.5643 19.9997 13.4512 19.9997 13.3334C19.9997 13.2155 19.9529 13.1024 19.8695 13.0191C19.7861 12.9358 19.6731 12.8889 19.5552 12.8889H17.5863C17.4053 12.38 17.1037 11.9224 16.7072 11.5556H19.5552C19.6731 11.5556 19.7861 11.5088 19.8695 11.4254C19.9529 11.342 19.9997 11.229 19.9997 11.1112C19.9997 10.9933 19.9529 10.8802 19.8695 10.7969C19.7861 10.7135 19.6731 10.6667 19.5552 10.6667H12.4441C12.3263 10.6667 12.2132 10.7135 12.1299 10.7969C12.0465 10.8802 11.9997 10.9933 11.9997 11.1112C11.9997 11.229 12.0465 11.342 12.1299 11.4254C12.2132 11.5088 12.3263 11.5556 12.4441 11.5556H14.4441C14.8945 11.556 15.3359 11.6808 15.7199 11.916C16.1039 12.1512 16.4155 12.4879 16.6203 12.8889H12.4441C12.3263 12.8889 12.2132 12.9358 12.1299 13.0191C12.0465 13.1024 11.9997 13.2155 11.9997 13.3334C11.9997 13.4512 12.0465 13.5643 12.1299 13.6476C12.2132 13.731 12.3263 13.7778 12.4441 13.7778H16.878C16.8846 13.851 16.8885 13.9251 16.8885 14C16.8878 14.6481 16.6301 15.2694 16.1718 15.7277C15.7135 16.186 15.0922 16.4438 14.4441 16.4445H12.4441C12.3544 16.4445 12.2668 16.4716 12.1928 16.5224C12.1188 16.573 12.0619 16.645 12.0296 16.7286C11.9972 16.8123 11.9909 16.9038 12.0116 16.9911C12.0322 17.0784 12.0787 17.1574 12.1451 17.2178L17.034 21.6622C17.1213 21.7415 17.2364 21.7829 17.3541 21.7773C17.4719 21.7717 17.5826 21.7196 17.6619 21.6324C17.7412 21.5451 17.7826 21.43 17.777 21.3122C17.7714 21.1944 17.7192 21.0838 17.632 21.0044L13.5937 17.3334H14.4441C15.3279 17.3324 16.1751 16.9808 16.8001 16.356C17.4249 15.731 17.7765 14.8838 17.7775 14C17.7775 13.9253 17.7741 13.8514 17.7692 13.7778H19.5552C19.6731 13.7778 19.7861 13.731 19.8695 13.6476Z"
                fill="currentColor" />
        </g>
        <path
            d="M16 25.75C15.5858 25.75 15.25 26.0858 15.25 26.5C15.25 26.9142 15.5858 27.25 16 27.25L16 25.75ZM16 27.25C20.2527 27.25 23.0867 25.3759 24.8391 23.1517C26.5624 20.9644 27.25 18.4277 27.25 17H25.75C25.75 18.0723 25.1876 20.2856 23.6609 22.2233C22.1633 24.1241 19.7473 25.75 16 25.75L16 27.25ZM27.25 17V4H25.75V17H27.25Z"
            fill="currentColor" />
        <path
            d="M26.2402 1.45C26.3557 1.25 26.6443 1.25 26.7598 1.45L29.7043 6.55C29.8198 6.75 29.6754 7 29.4445 7H23.5555C23.3246 7 23.1802 6.75 23.2957 6.55L26.2402 1.45Z"
            fill="currentColor" />
    </g>
    <defs>
        <filter id="filter0_df_839_3579" x="-4" y="-4" width="48" height="48" filterUnits="userSpaceOnUse"
            color-interpolation-filters="sRGB">
            <feFlood flood-opacity="0" result="BackgroundImageFix" />
            <feColorMatrix in="SourceAlpha" type="matrix" values="0 0 0 0 0 0 0 0 0 0 0 0 0 0 0 0 0 0 127 0"
                result="hardAlpha" />
            <feOffset dx="4" dy="4" />
            <feGaussianBlur stdDeviation="4" />
            <feComposite in2="hardAlpha" operator="out" />
            <feColorMatrix type="matrix" values="0 0 0 0 1 0 0 0 0 1 0 0 0 0 1 0 0 0 0.32 0" />
            <feBlend mode="normal" in2="BackgroundImageFix" result="effect1_dropShadow_839_3579" />
            <feBlend mode="normal" in="SourceGraphic" in2="effect1_dropShadow_839_3579" result="shape" />
            <feGaussianBlur stdDeviation="1" result="effect2_foregroundBlur_839_3579" />
        </filter>
        <filter id="filter1_i_839_3579" x="6.33301" y="6.33337" width="18.333" height="18.3334"
            filterUnits="userSpaceOnUse" color-interpolation-filters="sRGB">
            <feFlood flood-opacity="0" result="BackgroundImageFix" />
            <feBlend mode="normal" in="SourceGraphic" in2="BackgroundImageFix" result="shape" />
            <feColorMatrix in="SourceAlpha" type="matrix" values="0 0 0 0 0 0 0 0 0 0 0 0 0 0 0 0 0 0 127 0"
                result="hardAlpha" />
            <feOffset dx="-1" dy="-1" />
            <feGaussianBlur stdDeviation="1" />
            <feComposite in2="hardAlpha" operator="arithmetic" k2="-1" k3="1" />
            <feColorMatrix type="matrix" values="0 0 0 0 0 0 0 0 0 0 0 0 0 0 0 0 0 0 0.16 0" />
            <feBlend mode="normal" in2="shape" result="effect1_innerShadow_839_3579" />
        </filter>
        <clipPath id="clip0_839_3579">
            <rect width="32" height="32" fill="white" />
        </clipPath>
    </defs>
</svg>