<svg viewBox="0 0 16 22" fill="none" xmlns="http://www.w3.org/2000/svg">
    <path
        d="M11.2399 21.75H4.75995C2.86995 21.75 1.48994 20.96 0.959945 19.6C0.409945 18.18 0.919945 16.42 2.23994 15.23L6.87995 11L2.23994 6.77C0.919945 5.58 0.409945 3.82 0.959945 2.4C1.48994 1.03 2.86995 0.25 4.75995 0.25H11.2399C13.1299 0.25 14.5099 1.04 15.0399 2.4C15.5899 3.82 15.0799 5.58 13.7599 6.77L9.11994 11L13.7699 15.23C15.0799 16.42 15.5999 18.18 15.0499 19.6C14.5099 20.96 13.1299 21.75 11.2399 21.75ZM7.99995 12.01L3.24994 16.33C2.40994 17.1 2.03995 18.22 2.35995 19.05C2.65995 19.82 3.50995 20.25 4.75995 20.25H11.2399C12.4899 20.25 13.3399 19.83 13.6399 19.05C13.9599 18.22 13.5999 17.1 12.7499 16.33L7.99995 12.01ZM4.75995 1.75C3.50995 1.75 2.65995 2.17 2.35995 2.95C2.03995 3.78 2.39994 4.9 3.24994 5.67L7.99995 9.99L12.7499 5.67C13.5899 4.9 13.9599 3.78 13.6399 2.95C13.3399 2.18 12.4899 1.75 11.2399 1.75H4.75995Z"
        fill="white" />
</svg>