<svg viewBox="0 0 24 24" fill="none" xmlns="http://www.w3.org/2000/svg">
    <path
        d="M22 4V18C22 18.2652 21.8946 18.5196 21.7071 18.7071C21.5196 18.8946 21.2652 19 21 19H17.79C17.5248 19 17.2704 18.8946 17.0829 18.7071C16.8954 18.5196 16.79 18.2652 16.79 18C16.79 17.7348 16.8954 17.4804 17.0829 17.2929C17.2704 17.1054 17.5248 17 17.79 17H20V6L12.61 11.75C12.4351 11.8846 12.2207 11.9576 12 11.9576C11.7793 11.9576 11.5649 11.8846 11.39 11.75L4 6V17H6C6.26522 17 6.51957 17.1054 6.70711 17.2929C6.89464 17.4804 7 17.7348 7 18C7 18.2652 6.89464 18.5196 6.70711 18.7071C6.51957 18.8946 6.26522 19 6 19H3C2.73478 19 2.48043 18.8946 2.29289 18.7071C2.10536 18.5196 2 18.2652 2 18V4C2 3.73478 2.10536 3.48043 2.29289 3.29289C2.48043 3.10536 2.73478 3 3 3H21C21.2652 3 21.5196 3.10536 21.7071 3.29289C21.8946 3.48043 22 3.73478 22 4ZM18.09 5H5.91L12 9.73L18.09 5Z"
        fill="currentColor" />
    <path
        d="M12.9198 17.9235L12.9285 16.3142C12.7384 16.4033 12.5544 16.5079 12.3723 16.6254C10.3109 17.9589 9.47842 20.6548 10.2747 23C10.0606 22.7466 9.87059 22.4712 9.70739 22.1779C8.30121 19.661 9.05669 16.3915 11.3951 14.8782C11.8714 14.5686 12.394 14.3484 12.94 14.2273L12.9468 13L14.974 14.1423L15.2898 14.3205L17 15.2826L12.9198 17.9235Z"
        fill="currentColor" />
</svg>