<svg viewBox="0 0 16 16" fill="none" xmlns="http://www.w3.org/2000/svg">
<g clip-path="url(#clip0_2235_44873)">
<path d="M16 8C16 12.4114 12.399 16 7.97238 16C3.92737 16 0.501642 12.9902 0.00530547 8.99931C-0.0414841 8.62263 0.226409 8.28069 0.603478 8.23406C0.981464 8.18834 1.32459 8.45349 1.37046 8.83017C1.78239 12.1362 4.62004 14.6286 7.97238 14.6286C11.6403 14.6286 14.6238 11.6553 14.6238 8C14.6238 4.34469 11.6403 1.37143 7.97238 1.37143C6.45584 1.37143 5.01913 1.87703 3.86223 2.78857H4.7283C5.10812 2.78857 5.41638 3.09577 5.41638 3.47429C5.41638 3.8528 5.10812 4.16 4.7283 4.16H2.13377C1.75395 4.16 1.44569 3.8528 1.44569 3.47429V0.887772C1.44569 0.509257 1.75395 0.202057 2.13377 0.202057C2.51359 0.202057 2.82185 0.509257 2.82185 0.887772V1.87429C4.25031 0.673829 6.05676 0 7.97238 0C12.399 0 16 3.58857 16 8ZM8.02742 3.65714C7.6476 3.65714 7.33934 3.96434 7.33934 4.34286V4.59611C6.24116 4.71954 5.39803 5.69326 5.51547 6.84343C5.62464 7.91406 6.61089 8.68571 7.69072 8.68571H8.48615C8.86597 8.68571 9.17423 8.99383 9.17423 9.37143C9.17423 9.74903 8.86597 10.0571 8.48615 10.0571H6.88154C6.50172 10.0571 6.19346 10.3643 6.19346 10.7429C6.19346 11.1214 6.50172 11.4286 6.88154 11.4286H7.33934V11.6571C7.33934 12.0357 7.6476 12.3429 8.02742 12.3429C8.40724 12.3429 8.71551 12.0357 8.71551 11.6571V11.3975C9.64946 11.2512 10.4421 10.539 10.5394 9.58629C10.6651 8.35566 9.69533 7.31429 8.48615 7.31429H7.5687C7.18888 7.31429 6.88062 7.00709 6.88062 6.62857C6.88062 6.25006 7.18888 5.94286 7.5687 5.94286H9.1779C9.55772 5.94286 9.86598 5.63566 9.86598 5.25714C9.86598 4.87863 9.55772 4.57143 9.1779 4.57143H8.71551V4.34286C8.71551 3.96434 8.40724 3.65714 8.02742 3.65714Z" fill="currentColor" stroke="currentColor" stroke-width="0.3"/>
</g>
<defs>
<clipPath id="clip0_2235_44873">
<rect width="16" height="16" fill="white"/>
</clipPath>
</defs>
</svg>
