<svg viewBox="0 0 16 16" fill="none" xmlns="http://www.w3.org/2000/svg">
    <circle cx="8" cy="8" r="6" fill="currentColor" stroke="currentColor" stroke-width="4" />
    <path fill-rule="evenodd" clip-rule="evenodd"
        d="M12.0294 5.03039C12.3223 4.73749 12.3223 4.26262 12.0294 3.96973C11.7365 3.67683 11.2616 3.67683 10.9688 3.96973L7.99908 6.9394L5.02941 3.96973C4.73652 3.67683 4.26164 3.67683 3.96875 3.96973C3.67586 4.26262 3.67586 4.73749 3.96875 5.03039L6.93842 8.00006L3.96875 10.9697C3.67586 11.2626 3.67586 11.7375 3.96875 12.0304C4.26164 12.3233 4.73652 12.3233 5.02941 12.0304L7.99908 9.06072L10.9688 12.0304C11.2616 12.3233 11.7365 12.3233 12.0294 12.0304C12.3223 11.7375 12.3223 11.2626 12.0294 10.9697L9.05974 8.00006L12.0294 5.03039Z"
        fill="white" />
</svg>