<svg viewBox="0 0 32 32" fill="none" xmlns="http://www.w3.org/2000/svg">
    <g clip-path="url(#clip0_1168_29557)">
        <path
            d="M27.9984 14.667C27.6448 14.667 27.3057 14.8075 27.0556 15.0575C26.8056 15.3076 26.6651 15.6467 26.6651 16.0003C26.6651 18.8293 25.5413 21.5424 23.5409 23.5428C21.5405 25.5432 18.8274 26.667 15.9984 26.667C13.8919 26.666 11.8328 26.0413 10.0808 24.8717C8.3288 23.7021 6.96235 22.0399 6.15376 20.0947C5.34517 18.1495 5.13064 16.0085 5.53723 13.9415C5.94383 11.8746 6.95333 9.97431 8.43845 8.48033C9.42605 7.4795 10.6034 6.68571 11.9015 6.14541C13.1996 5.60511 14.5924 5.32914 15.9984 5.33366C16.851 5.339 17.7005 5.43736 18.5318 5.62699C18.7057 5.6808 18.8889 5.6984 19.0699 5.67872C19.2509 5.65904 19.426 5.60249 19.5843 5.51256C19.7426 5.42263 19.8809 5.30122 19.9905 5.15582C20.1001 5.01042 20.1788 4.84411 20.2216 4.66714C20.2645 4.49018 20.2707 4.3063 20.2398 4.12686C20.2089 3.94741 20.1415 3.7762 20.0419 3.62378C19.9423 3.47136 19.8125 3.34095 19.6606 3.24061C19.5086 3.14026 19.3377 3.0721 19.1584 3.04033C18.1226 2.79665 17.0625 2.6714 15.9984 2.66699C13.3642 2.68068 10.7931 3.47435 8.60951 4.94786C6.42592 6.42137 4.72774 8.50868 3.72927 10.9464C2.7308 13.3841 2.47679 16.0629 2.9993 18.6448C3.5218 21.2267 4.7974 23.596 6.66511 25.4537C9.1407 27.9304 12.4967 29.3255 15.9984 29.3337C19.5347 29.3337 22.9261 27.9289 25.4265 25.4284C27.927 22.9279 29.3318 19.5365 29.3318 16.0003C29.3318 15.6467 29.1913 15.3076 28.9413 15.0575C28.6912 14.8075 28.3521 14.667 27.9984 14.667Z"
            fill="currentColor" />
        <path
            d="M21.6966 9.00021C21.5245 9.00008 21.354 9.03402 21.195 9.10008C21.036 9.16614 20.8916 9.26302 20.7702 9.38512L9.38596 20.7694C9.14112 21.0142 9.00358 21.3463 9.00358 21.6925C9.00358 21.864 9.03735 22.0337 9.10296 22.1921C9.16856 22.3505 9.26473 22.4944 9.38596 22.6157C9.50718 22.7369 9.6511 22.8331 9.80949 22.8987C9.96789 22.9643 10.1376 22.998 10.3091 22.998C10.6553 22.998 10.9874 22.8605 11.2322 22.6157L22.6165 11.2314C22.8001 11.0493 22.9255 10.8167 22.9766 10.5632C23.0278 10.3097 23.0025 10.0468 22.904 9.80767C22.8054 9.56858 22.638 9.36418 22.423 9.22042C22.2081 9.07665 21.9552 9.00001 21.6966 9.00021ZM10.3058 9.00021C10.0472 9.00001 9.79439 9.07665 9.57942 9.22042C9.36446 9.36418 9.19707 9.56858 9.0985 9.80767C8.99993 10.0468 8.97463 10.3097 9.02581 10.5632C9.07699 10.8167 9.20234 11.0493 9.38596 11.2314L11.9107 13.7562C12.1555 14.001 12.4876 14.1385 12.8339 14.1385C13.1801 14.1385 13.5122 14.001 13.757 13.7562C14.0018 13.5113 14.1394 13.1793 14.1394 12.833C14.1394 12.4868 14.0018 12.1547 13.757 11.9099L11.2322 9.38512C11.1108 9.26302 10.9665 9.16614 10.8075 9.10008C10.6485 9.03402 10.478 9.00008 10.3058 9.00021Z"
            fill="currentColor" />
        <path
            d="M15.9946 14.6956C15.7374 14.6967 15.4862 14.7738 15.2726 14.9172C15.059 15.0607 14.8926 15.2641 14.7943 15.5018C14.696 15.7396 14.6702 16.0011 14.7201 16.2534C14.77 16.5058 14.8934 16.7378 15.0747 16.9203L20.7636 22.6157C20.8849 22.7369 21.0288 22.8331 21.1872 22.8987C21.3456 22.9643 21.5153 22.998 21.6868 22.998C21.8582 22.998 22.028 22.9643 22.1864 22.8987C22.3447 22.8331 22.4887 22.7369 22.6099 22.6157C22.7311 22.4944 22.8273 22.3505 22.8929 22.1921C22.9585 22.0337 22.9923 21.864 22.9923 21.6925C22.9923 21.5211 22.9585 21.3513 22.8929 21.1929C22.8273 21.0345 22.7311 20.8906 22.6099 20.7694L16.9145 15.0805C16.6709 14.8355 16.3401 14.6971 15.9946 14.6956Z"
            fill="currentColor" />
    </g>
</svg>