<svg viewBox="0 0 24 24" fill="none" xmlns="http://www.w3.org/2000/svg">
    <path
        d="M7.375 16.625C7.625 16.875 7.875 17 8.25 17C8.625 17 8.875 16.875 9.125 16.625L12 13.75L14.875 16.625C15.125 16.875 15.5 17 15.75 17C16 17 16.375 16.875 16.625 16.625C17.125 16.125 17.125 15.375 16.625 14.875L13.75 12L16.625 9.125C17.125 8.625 17.125 7.875 16.625 7.375C16.125 6.875 15.375 6.875 14.875 7.375L12 10.25L9.125 7.375C8.625 6.875 7.875 6.875 7.375 7.375C6.875 7.875 6.875 8.625 7.375 9.125L10.25 12L7.375 14.875C6.875 15.375 6.875 16.125 7.375 16.625Z"
        fill="currentColor" />
    <path
        d="M12 23C18.1111 23 23 18.1111 23 12C23 5.88889 18.1111 1 12 1C5.88889 1 1 5.88889 1 12C1 18.1111 5.88889 23 12 23ZM12 3.44444C16.7667 3.44444 20.5556 7.23333 20.5556 12C20.5556 16.7667 16.7667 20.5556 12 20.5556C7.23333 20.5556 3.44444 16.7667 3.44444 12C3.44444 7.23333 7.23333 3.44444 12 3.44444Z"
        fill="currentColor" />
</svg>