<svg viewBox="0 0 32 32" fill="none" xmlns="http://www.w3.org/2000/svg">
    <path
        d="M27.998 14.667A1.334 1.334 0 0026.665 16a10.667 10.667 0 01-10.667 10.667A10.667 10.667 0 018.438 8.48a10.573 10.573 0 017.56-3.146c.853.005 1.703.103 2.534.293a1.333 1.333 0 10.626-2.587 14.053 14.053 0 00-3.16-.373 13.333 13.333 0 00-9.333 22.787 13.24 13.24 0 009.333 3.88A13.333 13.333 0 0029.332 16a1.334 1.334 0 00-1.334-1.333z"
        fill="currentColor" />
    <path
        d="M21.697 9a1.305 1.305 0 00-.927.385L9.386 20.77a1.305 1.305 0 101.846 1.847L22.616 11.23a1.304 1.304 0 00-.92-2.23zM10.306 9a1.305 1.305 0 00-.92 2.231l2.525 2.525a1.306 1.306 0 001.846-1.846l-2.525-2.525A1.305 1.305 0 0010.306 9z"
        fill="currentColor" />
    <path
        d="M15.998 14.696a1.305 1.305 0 00-.92 2.224l5.69 5.696a1.307 1.307 0 001.846-1.847l-5.696-5.688a1.305 1.305 0 00-.92-.385z"
        fill="currentColor" />
</svg>