<svg viewBox="0 0 24 24" fill="none" xmlns="http://www.w3.org/2000/svg">
    <circle cx="12" cy="12" r="12" fill="currentColor" />
    <g clip-path="url(#clip0_1010_28441)">
        <rect width="16.0995" height="18" transform="translate(4.05469 2.25)" fill="currentColor" />
        <path fill-rule="evenodd" clip-rule="evenodd"
            d="M11.114 4.0013C11.4154 3.81158 11.7555 3.71191 12.1013 3.71191C12.4472 3.71191 12.7872 3.81158 13.0886 4.0013C13.39 4.19101 13.6426 4.46437 13.822 4.795L13.8239 4.79856L19.5057 15.4036L19.5111 15.4139C19.6868 15.7542 19.7798 16.1399 19.7808 16.5328C19.7818 16.9256 19.6907 17.3119 19.5167 17.6533C19.3427 17.9946 19.0918 18.279 18.7889 18.4783C18.4861 18.6775 18.1419 18.7846 17.7905 18.7889L17.7831 18.789L6.41219 18.789C6.06082 18.7847 5.71658 18.6775 5.41373 18.4783C5.11088 18.279 4.85996 17.9946 4.68595 17.6533C4.51194 17.3119 4.4209 16.9256 4.42188 16.5328C4.42287 16.1399 4.51584 15.7542 4.69156 15.4139L4.69701 15.4036L10.3807 4.79499C10.5601 4.46436 10.8127 4.19101 11.114 4.0013ZM12.1013 5.21191C11.986 5.21191 11.8727 5.24514 11.7722 5.30837C11.6722 5.37133 11.5883 5.46191 11.5286 5.57145L5.85118 16.1683C5.79404 16.2807 5.76382 16.4077 5.7635 16.537C5.76317 16.6679 5.79352 16.7967 5.85152 16.9105C5.90953 17.0242 5.99317 17.119 6.09412 17.1855C6.19418 17.2513 6.3078 17.287 6.42386 17.289H17.7788C17.8949 17.287 18.0085 17.2513 18.1086 17.1855C18.2095 17.119 18.2931 17.0242 18.3512 16.9105C18.4092 16.7967 18.4395 16.6679 18.4392 16.537C18.4389 16.4077 18.4086 16.2807 18.3515 16.1684L12.6749 5.57294L12.6741 5.57145C12.6143 5.46191 12.5304 5.37133 12.4304 5.30837C12.33 5.24514 12.2166 5.21191 12.1013 5.21191ZM12.1013 8.28898C12.4718 8.28898 12.7721 8.62476 12.7721 9.03898V12.039C12.7721 12.4532 12.4718 12.789 12.1013 12.789C11.7309 12.789 11.4305 12.4532 11.4305 12.039V9.03898C11.4305 8.62476 11.7309 8.28898 12.1013 8.28898ZM11.4305 15.039C11.4305 14.6248 11.7309 14.289 12.1013 14.289H12.108C12.4785 14.289 12.7789 14.6248 12.7789 15.039C12.7789 15.4532 12.4785 15.789 12.108 15.789H12.1013C11.7309 15.789 11.4305 15.4532 11.4305 15.039Z"
            fill="white" />
    </g>
    <defs>
        <clipPath id="clip0_1010_28441">
            <rect width="16.0995" height="18" fill="white" transform="translate(4.05469 2.25)" />
        </clipPath>
    </defs>
</svg>