<svg viewBox="0 0 20 20" fill="none" xmlns="http://www.w3.org/2000/svg">
    <path
        d="M1.6665 16.6667H18.3332M9.99984 16.6667H16.6665V11.9734C16.6665 11.5356 16.6665 11.3167 16.614 11.1125C16.5675 10.9315 16.4908 10.7597 16.3872 10.6042C16.2704 10.4287 16.1078 10.2823 15.7821 9.98969L13.8654 8.26776C13.2354 7.70177 12.9203 7.41879 12.5641 7.31144C12.2504 7.21688 11.9158 7.21688 11.6021 7.31144C11.2459 7.41879 10.931 7.70177 10.301 8.26776L9.99984 8.53835M9.99984 16.6667V6C9.99984 5.06658 10 4.59993 9.81836 4.24341C9.65857 3.9298 9.40326 3.67482 9.08966 3.51503C8.73314 3.33337 8.26675 3.33337 7.33333 3.33337H6C5.06658 3.33337 4.59952 3.33337 4.243 3.51503C3.9294 3.67482 3.67462 3.9298 3.51483 4.24341C3.33317 4.59993 3.33317 5.06658 3.33317 6V16.6667H9.99984Z"
        stroke="currentColor" stroke-width="1.5" stroke-linecap="round" stroke-linejoin="round" />
</svg>