<svg viewBox="0 0 20 20" fill="none" xmlns="http://www.w3.org/2000/svg">
<path fill-rule="evenodd" clip-rule="evenodd" d="M17.1164 14.0096C17.301 13.8181 17.3442 13.5307 17.224 13.2934L16.6156 12.0918C15.2321 9.35948 12.4296 7.63728 9.36692 7.63728H9.03038C9.00919 7.17616 8.98181 6.71525 8.94824 6.25469L8.8912 5.47222C8.84513 4.84012 8.14031 4.48677 7.60625 4.82802C5.84316 5.95459 4.31043 7.40622 3.08975 9.10551L2.70626 9.63936C2.54974 9.85725 2.54974 10.1507 2.70626 10.3686L3.08975 10.9025C4.31043 12.6018 5.84316 14.0534 7.60625 15.18C8.14032 15.5212 8.84513 15.1679 8.8912 14.5358L8.94824 13.7533C8.98831 13.2037 9.01955 12.6536 9.04197 12.1032C10.8521 12.0501 12.6602 12.4151 14.3218 13.182L16.4045 14.1432C16.6461 14.2547 16.9317 14.2011 17.1164 14.0096ZM15.274 12.2447L14.8456 12.047C12.8192 11.1118 10.5958 10.7169 8.3896 10.8864C8.07101 10.9108 7.82218 11.1717 7.81274 11.4911C7.79132 12.2154 7.75426 12.9393 7.70155 13.6624L7.69627 13.7349C6.3106 12.7568 5.09641 11.5534 4.10496 10.1732L3.98341 10.004L4.10496 9.83478C5.09641 8.4546 6.3106 7.25119 7.69627 6.27309L7.70155 6.34556C7.7486 6.99103 7.78318 7.63718 7.8053 8.28365C7.81682 8.62031 8.09307 8.88728 8.42993 8.88728L9.36692 8.88728C11.801 8.88728 14.0408 10.1728 15.274 12.2447Z" fill="currentColor"/>
</svg>
