<svg viewBox="0 0 20 20" fill="currentColor" xmlns="http://www.w3.org/2000/svg">
    <path fill-rule="evenodd" clip-rule="evenodd"
        d="M4.9987 1.66406H10.1719V2.41406V7.39317C10.1719 7.80738 10.5077 8.14317 10.9219 8.14317H15.918H16.6654V16.6641C16.6654 17.1061 16.4898 17.53 16.1772 17.8426C15.8646 18.1551 15.4407 18.3307 14.9987 18.3307H4.9987C4.55667 18.3307 4.13275 18.1551 3.82019 17.8426C3.50763 17.53 3.33203 17.1061 3.33203 16.6641V3.33073C3.33203 2.8887 3.50763 2.46478 3.82019 2.15222C4.13275 1.83966 4.55667 1.66406 4.9987 1.66406ZM16.6445 6.64317L11.6719 1.67057V2.41406V6.64317H15.918H16.6445ZM6.66797 6.75C6.25376 6.75 5.91797 7.08579 5.91797 7.5C5.91797 7.91421 6.25376 8.25 6.66797 8.25H7.5013H8.33464C8.74885 8.25 9.08464 7.91421 9.08464 7.5C9.08464 7.08579 8.74885 6.75 8.33464 6.75H7.5013H6.66797ZM5.91797 10.8359C5.91797 10.4217 6.25376 10.0859 6.66797 10.0859H13.3346C13.7488 10.0859 14.0846 10.4217 14.0846 10.8359C14.0846 11.2502 13.7488 11.5859 13.3346 11.5859H6.66797C6.25376 11.5859 5.91797 11.2502 5.91797 10.8359ZM5.91797 14.1641C5.91797 13.7498 6.25376 13.4141 6.66797 13.4141H13.3346C13.7488 13.4141 14.0846 13.7498 14.0846 14.1641C14.0846 14.5783 13.7488 14.9141 13.3346 14.9141H6.66797C6.25376 14.9141 5.91797 14.5783 5.91797 14.1641Z"
        fill="currentColor" />
</svg>