<svg viewBox="0 0 24 24" fill="none" xmlns="http://www.w3.org/2000/svg">
    <path
        d="M15 3.9197C14.13 4.2697 13.33 4.65971 12.7 5.04971L12.53 5.15969C12.24 5.33969 11.76 5.33969 11.47 5.15969L11.22 5.00973C9.43997 3.89973 6.25997 2.8397 4.15997 2.6697C2.96997 2.5697 2 3.46969 2 4.65969V16.7397C2 17.6997 2.77999 18.5997 3.73999 18.7197L4.03003 18.7597C6.20003 19.0497 9.54997 20.1497 11.47 21.1997L11.51 21.2197C11.78 21.3697 12.21 21.3697 12.47 21.2197C14.39 20.1597 17.75 19.0497 19.93 18.7597L20.26 18.7197C21.22 18.5997 22 17.6997 22 16.7397V4.6697C22 3.4697 21.02 2.57971 19.83 2.67971H19.77C19.53 2.69971 19.27 2.72975 19 2.77975"
        stroke="currentColor" stroke-width="1.5" stroke-linecap="round" stroke-linejoin="round" />
    <path d="M12 5.49023V20.4902" stroke="currentColor" stroke-width="1.5" stroke-linecap="round"
        stroke-linejoin="round" />
    <path d="M19 2.78027C17.77 2.98027 16.31 3.40023 15 3.92023" stroke="currentColor" stroke-width="1.5"
        stroke-linecap="round" stroke-linejoin="round" />
    <path
        d="M20.1523 9.33496L19.8626 10.3236H14.3398L14.6296 9.33496H20.1523ZM17.5614 15.9997L14.4421 12.1816L14.4251 11.4656H15.9762C16.3796 11.4656 16.7234 11.4088 17.0075 11.2952C17.2915 11.1787 17.5089 11.0054 17.6594 10.7753C17.81 10.5423 17.8853 10.2497 17.8853 9.89746C17.8853 9.37757 17.729 8.9699 17.4165 8.67445C17.104 8.37615 16.6239 8.22701 15.9762 8.22701H14.3398L14.6296 7.27246H15.9762C16.6694 7.27246 17.2376 7.38752 17.6808 7.61763C18.1268 7.8449 18.4563 8.1574 18.6694 8.55513C18.8853 8.95002 18.9933 9.39746 18.9933 9.89746C18.9933 10.3492 18.8938 10.7654 18.695 11.146C18.4989 11.5239 18.1836 11.8279 17.7489 12.058C17.3171 12.2881 16.7461 12.4031 16.0359 12.4031H16.0103L18.891 15.9316V15.9997H17.5614ZM20.1523 7.27246L19.8626 8.2611L15.516 8.22701L15.8058 7.27246H20.1523Z"
        fill="currentColor" />
    <path d="M4 8H10" stroke="currentColor" stroke-linecap="round" />
    <path d="M4 11H10" stroke="currentColor" stroke-linecap="round" />
    <path d="M4 14H10" stroke="currentColor" stroke-linecap="round" />
</svg>