<svg viewBox="0 0 24 24" fill="none" xmlns="http://www.w3.org/2000/svg">
    <path
        d="M19.9013 11C19.3013 11 18.9013 11.4 18.9013 12C18.9013 15.9 15.8013 19 11.9013 19H11.2013C11.0013 19 10.9013 19 10.7013 18.9C10.5013 18.9 10.4013 18.8 10.2013 18.8C10.1013 18.8 10.0013 18.7 9.90125 18.7C9.20125 18.5 8.50125 18.1 7.90125 17.7C7.80125 17.6 7.70125 17.6 7.70125 17.5C7.60125 17.4 7.50125 17.3 7.40125 17.3C7.20125 17.2 7.00125 17 6.90125 16.9L6.70125 16.7L8.50125 16.4C9.00125 16.3 9.40125 15.8 9.30125 15.2C9.20125 14.7 8.70125 14.3 8.10125 14.4L4.80125 15L4.00125 15.2C3.70125 15.2 3.50125 15.4 3.40125 15.6C3.30125 15.8 3.20125 16.1 3.20125 16.3L4.00125 20.5C4.10125 21 4.50125 21.3 5.00125 21.3H5.20125C5.70125 21.2 6.10125 20.7 6.00125 20.1L5.70125 18.4C5.90125 18.6 6.20125 18.8 6.40125 19H6.50125C6.60125 19.1 6.70125 19.2 6.80125 19.2C7.00125 19.4 7.20125 19.5 7.50125 19.6C7.70125 20 8.00125 20.1 8.30125 20.3H8.40125C8.50125 20.4 8.70125 20.4 8.90125 20.5C9.30125 20.6 9.70125 20.7 10.0013 20.8C10.2013 20.8 10.4013 20.9 10.6013 20.9H11.8013C16.8013 20.9 20.8013 16.9 20.8013 11.9C20.9013 11.4 20.4013 11 19.9013 11ZM4.00125 13C4.60125 13 5.00125 12.6 5.00125 12C5.00125 8.1 8.10125 5 12.0013 5H12.7013C12.9013 5 13.0013 5 13.2013 5.1C13.4013 5.1 13.5013 5.2 13.7013 5.2C13.8013 5.2 13.9013 5.3 14.0013 5.3C14.7013 5.5 15.4013 5.8 16.0013 6.3C16.1013 6.4 16.2013 6.4 16.3013 6.5C16.4013 6.6 16.5013 6.6 16.6013 6.7C16.7013 6.8 16.8013 7 17.0013 7.1L17.2013 7.3L15.4013 7.6C14.9013 7.7 14.5013 8.2 14.6013 8.8C14.7013 9.3 15.1013 9.6 15.6013 9.6H15.8013L20.0013 8.8C20.5013 8.7 20.9013 8.2 20.8013 7.6L20.0013 3.5C19.9013 3 19.4013 2.6 18.8013 2.7C18.3013 2.8 17.9013 3.3 18.0013 3.9L18.3013 5.6C18.1013 5.4 17.8013 5.1 17.6013 5H17.5013C17.4013 4.9 17.3013 4.8 17.2013 4.8C17.0013 4.6 16.8013 4.5 16.5013 4.3C16.2013 4.1 15.9013 4 15.6013 3.8H15.5013C15.4013 3.7 15.2013 3.7 15.0013 3.6C14.6013 3.5 14.2013 3.4 13.9013 3.3C13.7013 3.3 13.5013 3.2 13.3013 3.2H12.1013C7.10125 3.2 3.10125 7.2 3.10125 12.2C3.00125 12.6 3.40125 13 4.00125 13Z"
        fill="currentColor" />
</svg>