<svg viewBox="0 0 286 286" fill="none" xmlns="http://www.w3.org/2000/svg">
    <g clip-path="url(#clip0_4477_20211)">
        <path
            d="M140.16 187.475C137.476 187.812 135.321 191.58 134.935 194.713C134.823 195.614 134.766 196.521 134.766 197.429C134.772 200.398 135.386 203.221 136.544 206.113C137.698 208.941 139.396 211.838 141.471 213.499C143.546 211.838 145.243 208.941 146.397 206.112C147.555 203.221 148.17 200.397 148.176 197.429C148.176 196.522 148.118 195.623 148.007 194.713C147.621 191.58 145.466 187.812 142.781 187.475C141.91 187.378 141.031 187.378 140.16 187.475Z"
            stroke="#601B23" stroke-width="6" stroke-miterlimit="10" stroke-linecap="round" stroke-linejoin="round" />
        <path
            d="M140.16 187.475C137.476 187.812 135.321 191.58 134.935 194.713C134.823 195.614 134.766 196.521 134.766 197.429C134.772 200.398 135.386 203.221 136.544 206.113C137.698 208.941 139.396 211.838 141.471 213.499C143.546 211.838 145.243 208.941 146.397 206.112C147.555 203.221 148.17 200.397 148.176 197.429C148.176 196.522 148.118 195.623 148.007 194.713C147.621 191.58 145.466 187.812 142.781 187.475C141.91 187.378 141.031 187.378 140.16 187.475Z"
            fill="#E36535" />
        <path
            d="M153.458 205.405C153.446 210.736 152.348 215.807 150.277 220.998C150.206 221.175 150.131 221.352 150.057 221.529C148.001 226.437 145.049 231.379 141.469 234.259C137.782 231.296 134.765 226.151 132.703 221.106C132.686 221.071 132.671 221.034 132.657 220.998C130.586 215.807 129.488 210.736 129.477 205.405C129.477 203.777 129.58 202.162 129.78 200.529C130.463 194.966 134.236 188.293 138.96 187.558C139.015 187.547 139.069 187.538 139.123 187.533C140.617 187.366 142.124 187.359 143.619 187.513C143.682 187.518 143.748 187.524 143.811 187.533C148.61 188.136 152.465 194.903 153.155 200.529C153.355 202.162 153.458 203.777 153.458 205.405Z"
            fill="#F4A045" />
        <path
            d="M153.458 205.405C153.446 210.736 152.348 215.807 150.277 220.998C150.206 221.175 150.131 221.352 150.057 221.529C148.001 226.437 145.049 231.379 141.469 234.259C137.782 231.296 134.765 226.151 132.703 221.106C132.686 221.071 132.671 221.034 132.657 220.998C130.586 215.807 129.488 210.736 129.477 205.405C129.477 203.777 129.58 202.162 129.78 200.529C130.463 194.966 134.236 188.293 138.96 187.558C139.015 187.547 139.069 187.538 139.123 187.533C140.617 187.366 142.124 187.359 143.619 187.513C143.682 187.518 143.748 187.524 143.811 187.533C148.61 188.136 152.465 194.903 153.155 200.529C153.355 202.162 153.458 203.777 153.458 205.405Z"
            stroke="#601B23" stroke-width="6" stroke-miterlimit="10" stroke-linecap="round" stroke-linejoin="round" />
        <path d="M-46.832 -62.7188H332.829V316.942H-46.832V-62.7188Z" fill="url(#paint0_linear_4477_20211)" />
        <path
            d="M332.829 249.163C327.04 250.862 322.333 255.083 319.984 260.554C315.416 258.923 310.496 258.032 305.366 258.032C290.175 258.032 276.808 265.826 269.052 277.625C264.908 275.688 260.388 274.686 255.812 274.691C253.742 274.691 251.72 274.897 249.762 275.28C249.768 275.084 249.777 274.888 249.777 274.691C249.777 265.028 242.959 256.959 233.866 255.008C230.388 243.052 219.344 234.31 206.248 234.31C195.354 234.31 185.875 240.359 180.993 249.276C177.625 246.116 173.099 244.174 168.113 244.174C165.265 244.174 162.569 244.803 160.15 245.933C157.157 241.33 154.542 236.492 152.331 231.467C146.783 218.871 143.703 204.944 143.703 190.296C143.703 188.98 143.73 187.672 143.783 186.367C144.42 169.418 149.188 153.523 157.107 139.656H124.267C132.196 153.54 136.966 169.455 137.597 186.428C137.646 187.71 137.669 188.999 137.669 190.296C137.669 204.724 134.681 218.454 129.288 230.906C125.789 238.975 121.263 246.561 115.823 253.475C111.232 247.803 104.203 244.174 96.3268 244.174C88.4354 244.174 81.3995 247.816 76.8058 253.507C73.0157 251.266 68.6911 250.086 64.2865 250.092C56.9025 250.092 50.2821 253.34 45.767 258.479C39.0968 248.575 27.7707 242.06 14.9202 242.06C-5.59638 242.06 -22.2283 258.667 -22.2283 279.154C-22.2283 279.263 -22.2252 279.37 -22.2241 279.479C-36.145 286.497 -45.9017 300.54 -46.832 316.943H332.829V249.163Z"
            fill="#72DEE1" />
        <path
            d="M506.501 230.221C500.712 231.921 496.005 236.141 493.656 241.613C489.088 239.982 484.167 239.091 479.038 239.091C463.847 239.091 450.48 246.884 442.724 258.684C438.58 256.747 434.06 255.745 429.484 255.749C427.414 255.749 425.392 255.955 423.434 256.339C423.44 256.142 423.449 255.947 423.449 255.749C423.449 246.087 416.631 238.017 407.538 236.066C404.06 224.11 393.016 215.368 379.92 215.368C369.025 215.368 359.547 221.417 354.665 230.335C351.297 227.175 346.77 225.232 341.785 225.232C338.937 225.232 336.241 225.862 333.822 226.992C330.829 222.389 328.214 217.551 326.003 212.526C320.455 199.93 317.375 186.002 317.375 171.354C317.375 170.039 317.402 168.73 317.455 167.426C318.092 150.476 322.86 134.582 330.779 120.715H297.939C305.867 134.599 310.638 150.514 311.269 167.487C311.318 168.768 311.341 170.058 311.341 171.354C311.341 185.782 308.352 199.512 302.96 211.965C299.461 220.034 294.935 227.619 289.495 234.534C284.903 228.861 277.874 225.232 269.999 225.232C262.107 225.232 255.071 228.874 250.478 234.565C246.688 232.325 242.363 231.145 237.958 231.15C230.574 231.15 223.954 234.399 219.439 239.537C212.769 229.634 201.443 223.118 188.592 223.118C168.075 223.118 151.444 239.726 151.444 260.212C151.444 260.321 151.447 260.429 151.448 260.537C137.527 267.556 127.77 281.599 126.84 298.001H506.501V230.221Z"
            fill="#2E9296" />
        <path
            d="M167.84 279.213C167.84 279.213 208.005 242.639 205.656 248.111C201.088 246.48 196.167 245.589 191.038 245.589C175.847 245.589 162.48 253.382 154.724 265.182C150.58 263.245 146.06 262.243 141.484 262.248C139.414 262.248 137.392 262.454 135.434 262.837C135.44 262.64 135.449 262.445 135.449 262.248C135.449 252.585 128.631 244.515 119.538 242.565C116.06 230.609 105.016 221.867 91.9202 221.867C81.0255 221.867 71.5468 227.916 66.6652 236.833C63.2973 233.673 58.7704 231.731 53.7848 231.731C50.9367 231.731 48.2406 232.36 45.8216 233.49C42.8286 228.887 21.5 203.38 14.9601 218.462C-6 231.73 23.341 292.15 23.341 277.502C17.3069 374.652 21.4468 269.806 21.5 268.501C22.1368 251.552 15.4215 283.868 23.341 270.001L45.8216 268.502C53.7498 282.386 28.8237 245.864 29.4548 262.837C29.5042 264.118 14.9601 276.205 14.9601 277.502C14.9601 291.93 20.3524 206.01 14.9601 218.462C11.4608 226.532 6.93498 234.118 1.49451 241.032C-3.09656 235.359 -10.1255 231.731 -18.0014 231.731C-25.8928 231.731 -32.9286 235.373 -37.5223 241.063C-41.3124 238.823 -45.6371 237.643 -50.0416 237.649C-57.4257 237.649 -64.0461 240.897 -68.5612 246.035C-75.2313 236.132 -86.5575 229.617 -99.4079 229.617C-119.925 229.617 -136.556 246.224 -136.556 266.711C-136.556 266.819 -136.553 266.927 -136.552 267.036C-150.473 274.054 -160.23 288.097 -161.16 304.5H218.501L167.84 279.213Z"
            fill="#45ADB0" />
        <path
            d="M332.829 249.163C327.04 250.862 322.333 255.083 319.984 260.554C315.416 258.923 310.496 258.032 305.366 258.032C290.175 258.032 276.808 265.826 269.052 277.625C264.908 275.688 260.388 274.686 255.812 274.691C253.742 274.691 251.72 274.897 249.762 275.28C249.768 275.084 249.777 274.888 249.777 274.691C249.777 265.028 242.959 256.959 233.866 255.008C230.388 243.052 219.344 234.31 206.248 234.31C195.354 234.31 185.875 240.359 180.993 249.276C177.625 246.116 173.099 244.174 168.113 244.174C165.265 244.174 162.569 244.803 160.15 245.933C157.157 241.33 154.542 236.492 152.331 231.467C146.783 218.871 143.703 204.944 143.703 190.296C143.703 188.98 143.73 187.672 143.783 186.367C144.42 169.418 149.188 153.523 157.107 139.656H124.267C132.196 153.54 136.966 169.455 137.597 186.428C137.646 187.71 137.669 188.999 137.669 190.296C137.669 204.724 134.681 218.454 129.288 230.906C125.789 238.975 121.263 246.561 115.823 253.475C111.232 247.803 104.203 244.174 96.3268 244.174C88.4354 244.174 81.3995 247.816 76.8058 253.507C73.0157 251.266 68.6911 250.086 64.2865 250.092C56.9025 250.092 50.2821 253.34 45.767 258.479C39.0968 248.575 27.7707 242.06 14.9202 242.06C-5.59638 242.06 -22.2283 258.667 -22.2283 279.154C-22.2283 279.263 -22.2252 279.37 -22.2241 279.479C-36.145 286.497 -45.9017 300.54 -46.832 316.943H332.829V249.163Z"
            fill="#72DEE1" />
        <path
            d="M95.0405 128.13L82.7891 132.966V109.287L120.421 79.4453V124.208L111.335 129.063C106.465 126.473 100.566 125.948 95.0405 128.13Z"
            fill="#C11A4D" />
        <path
            d="M78.7054 138.817C74.9462 133.245 72.7613 126.657 72.7539 119.59C72.7443 110.665 76.1972 102.492 81.928 96.168C87.6721 102.479 91.1423 110.645 91.1515 119.569C91.1589 126.637 88.9885 133.23 85.2411 138.81L78.7054 138.817Z"
            fill="#CF264D" />
        <path opacity="0.72"
            d="M82.7891 132.964L95.2934 128.229C95.4333 124.933 95.2013 121.632 94.6016 118.385C93.7036 113.528 91.9941 108.848 89.5413 104.531L82.7891 109.668V132.964Z"
            fill="#A5143A" />
        <path opacity="0.23"
            d="M84.3462 115.945L120.421 87.3378V79.4453L82.7891 109.287V132.966L84.3462 132.351V115.945Z"
            fill="#F4A15D" />
        <path opacity="0.72"
            d="M105.723 126.782C107.737 127.134 109.685 127.81 111.495 128.784L120.42 123.956V79.4453L104.856 91.9386C104.098 96.7583 103.695 101.809 103.695 107.015C103.695 113.937 104.41 120.587 105.723 126.782Z"
            fill="#A5143A" />
        <path
            d="M95.0405 128.13L82.7891 132.966V109.287L120.421 79.4453V124.208L111.335 129.063C106.465 126.473 100.566 125.948 95.0405 128.13Z"
            stroke="#601B23" stroke-width="3" stroke-miterlimit="10" stroke-linecap="round" stroke-linejoin="round" />
        <path
            d="M78.7054 138.817C74.9462 133.245 72.7613 126.657 72.7539 119.59C72.7443 110.665 76.1972 102.492 81.928 96.168C87.6721 102.479 91.1423 110.645 91.1515 119.569C91.1589 126.637 88.9885 133.23 85.2411 138.81L78.7054 138.817Z"
            fill="#CF264D" />
        <path opacity="0.23"
            d="M81.4412 96.168C81.9047 96.6665 82.3542 97.1774 82.7893 97.7002C78.8065 103.75 76.514 110.813 76.5056 118.36C76.4976 125.82 77.6557 132.807 81.5408 138.817L78.0205 138.812C74.1513 133.232 71.91 126.639 71.918 119.57C71.9279 110.646 75.5109 102.479 81.4412 96.168Z"
            fill="#F4A15D" />
        <path opacity="0.32"
            d="M81.4883 96.168C81.6471 96.3368 81.7974 96.5125 81.9531 96.684C77.4716 103.189 74.8802 110.855 74.8714 119.067C74.8633 126.194 76.8124 132.908 80.2467 138.817L78.0506 138.815C74.1624 133.234 71.9099 126.641 71.918 119.572C71.928 110.646 75.5286 102.48 81.4883 96.168Z"
            fill="#F4A15D" />
        <path opacity="0.37"
            d="M91.1523 119.57C91.1431 110.646 87.8361 102.479 82.3616 96.168C81.9338 96.6665 81.5188 97.1774 81.1172 97.7002C84.7936 103.75 86.9098 110.813 86.9175 118.36C86.9249 125.82 84.8655 132.807 81.2792 138.817L85.5192 138.812C89.0907 133.232 91.1597 126.638 91.1523 119.57Z"
            fill="#A5143A" />
        <path opacity="0.72"
            d="M91.1519 119.572C91.1428 110.646 87.8425 102.48 82.3791 96.168C82.2336 96.3368 82.0958 96.5125 81.9531 96.684C86.0611 103.189 88.4366 110.855 88.4447 119.067C88.4521 126.194 86.6654 132.908 83.5173 138.817L85.5304 138.815C89.0946 133.234 91.1593 126.64 91.1519 119.572Z"
            fill="#A5143A" />
        <path opacity="0.37"
            d="M82.3616 96.168C81.9338 96.6665 81.5188 97.1774 81.1172 97.7002C84.7936 103.75 86.9098 110.813 86.9175 118.36C86.9249 125.82 84.8655 132.807 81.2792 138.817L85.5192 138.812C89.0907 133.232 91.1597 126.639 91.1523 119.57C91.1435 110.646 87.8361 102.479 82.3616 96.168Z"
            fill="#A5143A" />
        <path opacity="0.72"
            d="M82.3791 96.168C82.2336 96.3368 82.0958 96.5125 81.9531 96.684C86.0611 103.189 88.4366 110.855 88.4447 119.067C88.4521 126.194 86.6654 132.908 83.5173 138.817L85.5304 138.815C89.0946 133.234 91.1593 126.641 91.1519 119.572C91.1431 110.646 87.8425 102.48 82.3791 96.168Z"
            fill="#A5143A" />
        <path
            d="M86.1327 102.847C84.73 100.438 83.0435 98.1967 81.1076 96.168C79.1762 98.2007 77.4948 100.446 76.0977 102.858L86.1327 102.847Z"
            fill="#601B23" />
        <path
            d="M78.7054 138.817C74.9462 133.245 72.7613 126.657 72.7539 119.59C72.7443 110.665 76.1972 102.492 81.928 96.168C87.6721 102.479 91.1423 110.645 91.1515 119.569C91.1589 126.637 88.9885 133.23 85.2411 138.81L78.7054 138.817Z"
            stroke="#601B23" stroke-width="6" stroke-miterlimit="10" stroke-linecap="round" stroke-linejoin="round" />
        <path
            d="M127.947 168.62C127.947 168.62 123.419 169.623 116.947 176.279C114.585 178.708 110.89 183.621 108.188 187.34C107.065 188.886 104.677 188.101 104.635 186.172L103.746 145.349C103.657 144.78 103.685 144.198 103.828 143.64C103.971 143.083 104.227 142.563 104.577 142.113L114.328 129.621L127.947 168.62Z"
            fill="#CF264D" />
        <path opacity="0.32"
            d="M104.561 186.487C105.57 186.337 106.495 185.814 107.167 185.014C107.839 184.213 108.215 183.188 108.226 182.123L108.618 144.488C108.531 143.923 108.558 143.346 108.698 142.794C108.838 142.241 109.087 141.726 109.429 141.28L115.403 133.503L114.069 129.621L104.556 142.006C104.214 142.451 103.965 142.967 103.825 143.52C103.685 144.072 103.658 144.649 103.745 145.213L104.561 186.487Z"
            fill="#F4A15D" />
        <path opacity="0.72"
            d="M127.949 168.651L114.189 129.621L108.715 136.569C111.647 148.094 116.28 159.782 122.532 171.434C125.877 169.109 127.949 168.651 127.949 168.651Z"
            fill="#A5143A" />
        <path
            d="M127.947 168.62C127.947 168.62 123.419 169.623 116.947 176.279C114.585 178.708 110.89 183.621 108.188 187.34C107.065 188.886 104.677 188.101 104.635 186.172L103.746 145.349C103.657 144.78 103.685 144.198 103.828 143.64C103.971 143.083 104.227 142.563 104.577 142.113L114.328 129.621L127.947 168.62Z"
            stroke="#601B23" stroke-width="3" stroke-miterlimit="10" stroke-linecap="round" stroke-linejoin="round" />
        <path d="M75.2617 133.801H87.8056" stroke="#601B23" stroke-width="4" stroke-miterlimit="10"
            stroke-linecap="round" stroke-linejoin="round" />
        <path
            d="M78.7054 138.817C74.9462 133.245 72.7613 126.657 72.7539 119.59C72.7443 110.665 76.1972 102.492 81.928 96.168C87.6721 102.479 91.1423 110.645 91.1515 119.569C91.1589 126.637 88.9885 133.23 85.2411 138.81L78.7054 138.817Z"
            fill="#CF264D" />
        <path
            d="M78.7054 138.817C74.9462 133.245 72.7613 126.657 72.7539 119.59C72.7443 110.665 76.1972 102.492 81.928 96.168C87.6721 102.479 91.1423 110.645 91.1515 119.569C91.1589 126.637 88.9885 133.23 85.2411 138.81L78.7054 138.817Z"
            fill="#CF264D" />
        <path opacity="0.23"
            d="M81.4412 96.168C81.9047 96.6665 82.3542 97.1774 82.7893 97.7002C78.8065 103.75 76.514 110.813 76.5056 118.36C76.4976 125.82 77.6557 132.807 81.5408 138.817L78.0205 138.812C74.1513 133.232 71.91 126.639 71.918 119.57C71.9279 110.646 75.5109 102.479 81.4412 96.168Z"
            fill="#F4A15D" />
        <path opacity="0.32"
            d="M81.4883 96.168C81.6471 96.3368 81.7974 96.5125 81.9531 96.684C77.4716 103.189 74.8802 110.855 74.8714 119.067C74.8633 126.194 76.8124 132.908 80.2467 138.817L78.0506 138.815C74.1624 133.234 71.9099 126.641 71.918 119.572C71.928 110.646 75.5286 102.48 81.4883 96.168Z"
            fill="#F4A15D" />
        <path opacity="0.37"
            d="M91.1523 119.57C91.1431 110.646 87.8361 102.479 82.3616 96.168C81.9338 96.6665 81.5188 97.1774 81.1172 97.7002C84.7936 103.75 86.9098 110.813 86.9175 118.36C86.9249 125.82 84.8655 132.807 81.2792 138.817L85.5192 138.812C89.0907 133.232 91.1597 126.638 91.1523 119.57Z"
            fill="#A5143A" />
        <path opacity="0.72"
            d="M91.1519 119.572C91.1428 110.646 87.8425 102.48 82.3791 96.168C82.2336 96.3368 82.0958 96.5125 81.9531 96.684C86.0611 103.189 88.4366 110.855 88.4447 119.067C88.4521 126.194 86.6654 132.908 83.5173 138.817L85.5304 138.815C89.0946 133.234 91.1593 126.64 91.1519 119.572Z"
            fill="#A5143A" />
        <path opacity="0.37"
            d="M82.3616 96.168C81.9338 96.6665 81.5188 97.1774 81.1172 97.7002C84.7936 103.75 86.9098 110.813 86.9175 118.36C86.9249 125.82 84.8655 132.807 81.2792 138.817L85.5192 138.812C89.0907 133.232 91.1597 126.639 91.1523 119.57C91.1435 110.646 87.8361 102.479 82.3616 96.168Z"
            fill="#A5143A" />
        <path opacity="0.72"
            d="M82.3791 96.168C82.2336 96.3368 82.0958 96.5125 81.9531 96.684C86.0611 103.189 88.4366 110.855 88.4447 119.067C88.4521 126.194 86.6654 132.908 83.5173 138.817L85.5304 138.815C89.0946 133.234 91.1593 126.641 91.1519 119.572C91.1431 110.646 87.8425 102.48 82.3791 96.168Z"
            fill="#A5143A" />
        <path
            d="M86.9726 102.847C85.5698 100.438 83.8834 98.1968 81.9476 96.168C80.0161 98.2007 78.3347 100.446 76.9375 102.858L86.9726 102.847Z"
            fill="#601B23" />
        <path
            d="M78.7054 138.817C74.9462 133.245 72.7613 126.657 72.7539 119.59C72.7443 110.665 76.1972 102.492 81.928 96.168C87.6721 102.479 91.1423 110.645 91.1515 119.569C91.1589 126.637 88.9885 133.23 85.2411 138.81L78.7054 138.817Z"
            stroke="#601B23" stroke-width="3" stroke-miterlimit="10" stroke-linecap="round" stroke-linejoin="round" />
        <path d="M75.2617 133.801H87.8056" stroke="#601B23" stroke-width="4" stroke-miterlimit="10"
            stroke-linecap="round" stroke-linejoin="round" />
        <path
            d="M184.835 128.13L197.358 132.966V109.287L158.891 79.4453V124.208L168.178 129.063C173.156 126.473 179.187 125.948 184.835 128.13Z"
            fill="#C11A4D" />
        <path opacity="0.72"
            d="M197.356 132.964L184.852 128.229C184.712 124.933 184.944 121.632 185.544 118.385C186.442 113.528 188.151 108.848 190.604 104.531L197.356 109.668V132.964Z"
            fill="#A5143A" />
        <path opacity="0.23"
            d="M195.767 115.945L158.891 87.3378V79.4453L197.358 109.287V132.966L195.767 132.351V115.945Z"
            fill="#F4A15D" />
        <path opacity="0.72"
            d="M174.323 126.782C172.208 127.134 170.163 127.81 168.262 128.784L158.891 123.956V79.4453L175.233 91.9386C176.029 96.7583 176.452 101.809 176.452 107.015C176.452 113.937 175.701 120.587 174.323 126.782Z"
            fill="#A5143A" />
        <path
            d="M184.835 128.13L197.358 132.966V109.287L158.891 79.4453V124.208L168.178 129.063C173.156 126.473 179.187 125.948 184.835 128.13Z"
            stroke="#601B23" stroke-width="3" stroke-miterlimit="10" stroke-linecap="round" stroke-linejoin="round" />
        <path
            d="M151.363 168.62C151.363 168.62 156.047 169.623 162.743 176.279C165.186 178.708 169.008 183.621 171.803 187.34C172.965 188.886 175.435 188.101 175.479 186.172L176.398 145.349C176.49 144.78 176.462 144.198 176.314 143.64C176.165 143.083 175.901 142.563 175.538 142.113L165.452 129.621L151.363 168.62Z"
            fill="#CF264D" />
        <path opacity="0.72"
            d="M175.522 186.487C174.441 186.337 173.451 185.814 172.731 185.014C172.01 184.213 171.608 183.188 171.596 182.123L171.176 144.488C171.269 143.923 171.24 143.346 171.09 142.794C170.941 142.241 170.674 141.726 170.307 141.28L163.906 133.503L165.335 129.621L175.528 142.006C175.895 142.451 176.162 142.967 176.311 143.52C176.461 144.072 176.49 144.649 176.397 145.213L175.522 186.487Z"
            fill="#A5143A" />
        <path opacity="0.72"
            d="M151.363 168.651L165.721 129.621L171.433 136.569C168.374 148.094 163.54 159.782 157.016 171.434C153.525 169.109 151.363 168.651 151.363 168.651Z"
            fill="#A5143A" />
        <path
            d="M151.363 168.62C151.363 168.62 156.047 169.623 162.743 176.279C165.186 178.708 169.008 183.621 171.803 187.34C172.965 188.886 175.435 188.101 175.479 186.172L176.398 145.349C176.49 144.78 176.462 144.198 176.314 143.64C176.165 143.083 175.901 142.563 175.538 142.113L165.452 129.621L151.363 168.62Z"
            stroke="#601B23" stroke-width="3" stroke-miterlimit="10" stroke-linecap="round" stroke-linejoin="round" />
        <path
            d="M151.261 190.475C151.689 185.922 151.073 181.625 143.623 170.291C142.38 168.471 139.441 168.471 138.198 170.291C130.748 181.625 130.132 185.922 130.56 190.475C130.64 191.053 131.657 191.687 132.281 191.456C136.575 189.203 145.246 189.203 149.54 191.456C150.164 191.687 151.18 191.053 151.261 190.475Z"
            fill="#4E8280" />
        <g opacity="0.32">
            <path
                d="M134.277 190.191C133.842 185.682 134.469 181.427 142.053 170.203C142.278 169.885 142.563 169.613 142.891 169.403C141.435 168.46 139.242 168.725 138.205 170.203C130.62 181.427 129.993 185.682 130.429 190.191C130.511 190.764 131.546 191.391 132.181 191.163C132.81 190.841 133.534 190.568 134.321 190.34C134.3 190.292 134.286 190.242 134.277 190.191ZM142.89 189.554C145.511 189.729 147.992 190.265 149.751 191.163C150.332 191.371 151.244 190.865 151.46 190.34C148.978 189.619 145.846 189.356 142.89 189.554Z"
                fill="#F4A15D" />
        </g>
        <path
            d="M139.17 170.289C139.065 170.146 138.949 170.012 138.82 169.889C140.253 168.484 142.936 168.615 144.128 170.289C151.897 181.624 152.54 185.922 152.093 190.475C152.009 191.053 150.949 191.687 150.298 191.456C149.405 191.006 148.328 190.648 147.144 190.378C147.571 185.86 146.883 181.544 139.17 170.289Z"
            fill="#37605D" />
        <path
            d="M151.261 190.475C151.689 185.922 151.073 181.625 143.623 170.291C142.38 168.471 139.441 168.471 138.198 170.291C130.748 181.625 130.132 185.922 130.56 190.475C130.64 191.053 131.657 191.687 132.281 191.456C136.575 189.203 145.246 189.203 149.54 191.456C150.164 191.687 151.18 191.053 151.261 190.475Z"
            stroke="#601B23" stroke-width="3" stroke-miterlimit="10" stroke-linecap="round" stroke-linejoin="round" />
        <path
            d="M149.897 176.451C167.79 147.179 174.309 118.443 170.288 94.4968C166.794 73.6882 155.558 58.6973 141.328 49.3398C127.098 58.6973 115.862 73.6882 112.367 94.4968C108.346 118.443 114.866 147.179 132.759 176.451H149.897Z"
            fill="#CF264D" />
        <path opacity="0.23"
            d="M125.969 94.8997C128.236 76.0717 134.188 61.1067 142.164 49.9054C141.885 49.716 141.607 49.5247 141.326 49.3398C127.097 58.6973 115.861 73.6881 112.367 94.4966C108.347 118.443 114.865 147.179 132.757 176.451H136.375C126.394 147.227 123.056 119.084 125.969 94.8997Z"
            fill="#F4A15D" />
        <path opacity="0.37"
            d="M170.277 94.3603C166.772 73.6712 155.557 58.7266 141.328 49.3398C144.896 55.0329 147.866 61.0722 150.192 67.3636C155.367 81.3763 155.95 92.9575 156.256 100.202C157.638 132.865 145.018 168.98 142.335 176.451H149.671C167.752 147.13 174.34 118.346 170.277 94.3603Z"
            fill="#A5143A" />
        <path opacity="0.72"
            d="M170.268 94.4966C166.708 73.6881 155.262 58.6973 140.765 49.3398C140.393 49.5811 140.023 49.8259 139.656 50.0743C145.171 54.301 149.336 58.7888 152.52 63.1324C181.012 101.997 153.677 160.199 149.938 167.889C149.746 161.476 148.793 155.108 147.099 148.911C145.961 144.757 144.494 140.696 142.71 136.765L140.985 175.36H145.803C145.679 175.724 145.558 176.087 145.431 176.451H149.495C167.723 147.179 174.364 118.443 170.268 94.4966Z"
            fill="#A5143A" />
        <path opacity="0.32"
            d="M117.102 100.972C117.637 94.8789 119.589 75.1363 131.719 58.9049C133.635 56.3406 136.527 52.8997 136.298 52.6937C135.974 52.4036 129.318 58.432 124.576 64.863C118.65 72.9011 114.303 82.7259 112.361 94.3714C108.362 118.354 114.845 147.134 132.64 176.45H134.178C129.295 166.677 126.07 157.877 123.906 150.895C122.46 146.227 119.932 137.945 118.362 126.821C117.311 119.373 116.186 111.402 117.102 100.972Z"
            fill="#F4A15D" />
        <path opacity="0.72"
            d="M143 108.715C148.542 108.715 153.035 104.222 153.035 98.6796C153.035 93.1374 148.542 88.6445 143 88.6445C137.458 88.6445 132.965 93.1374 132.965 98.6796C132.965 104.222 137.458 108.715 143 108.715Z"
            fill="#A5143A" stroke="#A5143A" stroke-width="6" stroke-miterlimit="10" stroke-linecap="round"
            stroke-linejoin="round" />
        <path
            d="M149.897 176.451C167.79 147.179 174.309 118.443 170.288 94.4968C166.794 73.6882 155.558 58.6973 141.328 49.3398C127.098 58.6973 115.862 73.6882 112.367 94.4968C108.346 118.443 114.866 147.179 132.759 176.451H149.897Z"
            stroke="#601B23" stroke-width="3" stroke-miterlimit="10" stroke-linecap="round" stroke-linejoin="round" />
        <path
            d="M140.91 107.043C146.683 107.043 151.363 102.55 151.363 97.0077C151.363 91.4655 146.683 86.9727 140.91 86.9727C135.137 86.9727 130.457 91.4655 130.457 97.0077C130.457 102.55 135.137 107.043 140.91 107.043Z"
            fill="#ABCFD8" />
        <path opacity="0.93"
            d="M139.237 102.86C142.701 102.86 145.509 100.052 145.509 96.5883C145.509 93.1244 142.701 90.3164 139.237 90.3164C135.773 90.3164 132.965 93.1244 132.965 96.5883C132.965 100.052 135.773 102.86 139.237 102.86Z"
            fill="#E2F0F2" />
        <path
            d="M140.91 107.043C146.683 107.043 151.363 102.55 151.363 97.0077C151.363 91.4655 146.683 86.9727 140.91 86.9727C135.137 86.9727 130.457 91.4655 130.457 97.0077C130.457 102.55 135.137 107.043 140.91 107.043Z"
            stroke="#601B23" stroke-width="3" stroke-miterlimit="10" stroke-linecap="round" stroke-linejoin="round" />
        <path
            d="M126.273 62.6627C135.758 59.3255 146.071 59.3457 155.542 62.72C151.262 57.4237 146.291 52.9653 140.885 49.3398C135.499 52.9525 130.543 57.3912 126.273 62.6627Z"
            fill="#601B23" />
        <path
            d="M126.273 62.6627C135.758 59.3255 146.071 59.3457 155.542 62.72C151.262 57.4237 146.291 52.9653 140.885 49.3398C135.499 52.9525 130.543 57.3912 126.273 62.6627Z"
            stroke="#601B23" stroke-width="6" stroke-miterlimit="10" stroke-linecap="round" stroke-linejoin="round" />
        <path
            d="M140.908 194.01C141.33 194.01 141.682 193.546 141.721 192.94L144.633 146.602C144.934 141.817 143.399 137.387 141.127 136.357C141.058 136.325 140.983 136.309 140.908 136.309C140.832 136.309 140.757 136.325 140.689 136.357C138.416 137.387 136.881 141.817 137.182 146.602L140.095 192.94C140.133 193.546 140.485 194.01 140.908 194.01Z"
            fill="#BC1D4E" />
        <path opacity="0.74"
            d="M140.908 194.01C141.33 194.01 141.682 193.546 141.721 192.94L144.633 146.602C144.934 141.817 143.399 137.387 141.127 136.357C141.058 136.325 140.983 136.309 140.908 136.309C140.832 136.309 140.757 136.325 140.689 136.357C138.416 137.387 136.881 141.817 137.182 146.602L140.095 192.94C140.133 193.546 140.485 194.01 140.908 194.01Z"
            fill="#A5143A" />
        <g opacity="0.53">
            <path
                d="M140.75 136.478C138.516 137.511 137.007 141.955 137.303 146.755L140.166 193.237C140.197 193.735 140.437 194.133 140.75 194.262V136.478H140.75ZM140.75 136.478H141.181C141.114 136.446 141.04 136.43 140.966 136.43C140.891 136.43 140.818 136.446 140.75 136.478Z"
                fill="#F4A15D" />
        </g>
        <path
            d="M140.908 194.01C141.33 194.01 141.682 193.546 141.721 192.94L144.633 146.602C144.934 141.817 143.399 137.387 141.127 136.357C141.058 136.325 140.983 136.309 140.908 136.309C140.832 136.309 140.757 136.325 140.689 136.357C138.416 137.387 136.881 141.817 137.182 146.602L140.095 192.94C140.133 193.546 140.485 194.01 140.908 194.01Z"
            stroke="#601B23" stroke-width="3" stroke-miterlimit="10" stroke-linecap="round" stroke-linejoin="round" />
        <path
            d="M196.619 138.817C192.86 133.245 190.675 126.657 190.668 119.59C190.658 110.665 194.111 102.492 199.842 96.168C205.586 102.479 209.056 110.645 209.066 119.569C209.073 126.637 206.903 133.23 203.155 138.81L196.619 138.817Z"
            fill="#CF264D" />
        <path
            d="M196.619 138.817C192.86 133.245 190.675 126.657 190.668 119.59C190.658 110.665 194.111 102.492 199.842 96.168C205.586 102.479 209.056 110.645 209.066 119.569C209.073 126.637 206.903 133.23 203.155 138.81L196.619 138.817Z"
            fill="#CF264D" />
        <path opacity="0.23"
            d="M199.355 96.168C199.819 96.6665 200.268 97.1774 200.703 97.7002C196.721 103.75 194.428 110.813 194.42 118.36C194.412 125.82 195.57 132.807 199.455 138.817L195.934 138.812C192.065 133.232 189.824 126.639 189.832 119.57C189.842 110.646 193.425 102.479 199.355 96.168Z"
            fill="#F4A15D" />
        <path opacity="0.32"
            d="M199.402 96.168C199.561 96.3368 199.711 96.5125 199.867 96.684C195.386 103.189 192.794 110.855 192.785 119.067C192.777 126.194 194.727 132.908 198.161 138.817L195.965 138.815C192.076 133.234 189.824 126.641 189.832 119.572C189.842 110.646 193.442 102.48 199.402 96.168Z"
            fill="#F4A15D" />
        <path opacity="0.37"
            d="M209.062 119.57C209.053 110.646 205.746 102.479 200.272 96.168C199.844 96.6665 199.429 97.1774 199.027 97.7002C202.704 103.75 204.82 110.813 204.828 118.36C204.835 125.82 202.776 132.807 199.189 138.817L203.429 138.812C207.001 133.232 209.069 126.638 209.062 119.57Z"
            fill="#A5143A" />
        <path opacity="0.72"
            d="M209.066 119.572C209.057 110.646 205.756 102.48 200.293 96.168C200.148 96.3368 200.01 96.5125 199.867 96.684C203.975 103.189 206.351 110.855 206.359 119.067C206.366 126.194 204.579 132.908 201.431 138.817L203.444 138.815C207.008 133.234 209.073 126.64 209.066 119.572Z"
            fill="#A5143A" />
        <path opacity="0.37"
            d="M200.272 96.168C199.844 96.6665 199.429 97.1774 199.027 97.7002C202.704 103.75 204.82 110.813 204.828 118.36C204.835 125.82 202.776 132.807 199.189 138.817L203.429 138.812C207.001 133.232 209.07 126.639 209.062 119.57C209.054 110.646 205.746 102.479 200.272 96.168Z"
            fill="#A5143A" />
        <path opacity="0.72"
            d="M200.293 96.168C200.148 96.3368 200.01 96.5125 199.867 96.684C203.975 103.189 206.351 110.855 206.359 119.067C206.366 126.194 204.579 132.908 201.431 138.817L203.444 138.815C207.009 133.234 209.073 126.641 209.066 119.572C209.057 110.646 205.757 102.48 200.293 96.168Z"
            fill="#A5143A" />
        <path
            d="M204.883 102.847C203.48 100.438 201.794 98.1968 199.858 96.168C197.926 98.2007 196.245 100.446 194.848 102.858L204.883 102.847Z"
            fill="#601B23" />
        <path
            d="M196.619 138.817C192.86 133.245 190.675 126.657 190.668 119.59C190.658 110.665 194.111 102.492 199.842 96.168C205.586 102.479 209.056 110.645 209.066 119.569C209.073 126.637 206.903 133.23 203.155 138.81L196.619 138.817Z"
            stroke="#601B23" stroke-width="3" stroke-miterlimit="10" stroke-linecap="round" stroke-linejoin="round" />
        <path d="M194.012 133.801H206.556" stroke="#601B23" stroke-width="4" stroke-miterlimit="10"
            stroke-linecap="round" stroke-linejoin="round" />
        <path opacity="0.41"
            d="M129.621 61.0471C129.621 61.0471 132.074 56.9921 140.492 50.1758C136.616 55.6667 135.859 59.1064 135.587 59.3904C133.117 59.883 129.621 61.0471 129.621 61.0471Z"
            fill="white" />
    </g>
    <defs>
        <linearGradient id="paint0_linear_4477_20211" x1="142.998" y1="-62.7187" x2="142.998" y2="316.942"
            gradientUnits="userSpaceOnUse">
            <stop stop-color="#2D6FA3" />
            <stop offset="1" stop-color="#4CC3C7" />
        </linearGradient>
        <clipPath id="clip0_4477_20211">
            <rect width="286" height="286" rx="143" fill="white" />
        </clipPath>
    </defs>
</svg>