<svg viewBox="0 0 24 24" fill="none" xmlns="http://www.w3.org/2000/svg">
    <path
        d="M10.0017 10.6397C12.2108 10.6397 14.0017 8.59367 14.0017 6.06983C14.0017 3.54598 12.2108 1.5 10.0017 1.5C7.79257 1.5 6.00171 3.54598 6.00171 6.06983C6.00171 8.59367 7.79257 10.6397 10.0017 10.6397Z"
        stroke="currentColor" stroke-width="1.5" />
    <path
        d="M9.5 19C5.57264 19 2 20.1742 2 17.3979C2 14.6216 6.07264 12.3711 10 12.3711C10.4288 12.3711 10.8593 12.3979 11.2861 12.4493"
        stroke="currentColor" stroke-width="1.5" stroke-linecap="round" />
    <path
        d="M16.59 19.18C17.4681 19.18 18.18 18.4681 18.18 17.59C18.18 16.7119 17.4681 16 16.59 16C15.7119 16 15 16.7119 15 17.59C15 18.4681 15.7119 19.18 16.59 19.18Z"
        stroke="currentColor" stroke-width="1.5" stroke-miterlimit="10" stroke-linecap="round"
        stroke-linejoin="round" />
    <path
        d="M11 17.9615V17.0315C11 16.4815 11.45 16.0315 12 16.0315C12.96 16.0315 13.35 15.3515 12.87 14.5215C12.59 14.0415 12.76 13.4215 13.24 13.1515L14.15 12.6215C14.57 12.3715 15.11 12.5215 15.36 12.9415L15.42 13.0415C15.9 13.8715 16.68 13.8715 17.16 13.0415L17.22 12.9415C17.47 12.5215 18.01 12.3815 18.43 12.6215L19.34 13.1515C19.82 13.4315 19.99 14.0415 19.71 14.5215C19.23 15.3515 19.62 16.0315 20.58 16.0315C21.13 16.0315 21.58 16.4815 21.58 17.0315V17.9615C21.58 18.5115 21.13 18.9615 20.58 18.9615C19.62 18.9615 19.23 19.6415 19.71 20.4715C19.99 20.9515 19.82 21.5715 19.34 21.8415L18.43 22.3715C18.01 22.6215 17.47 22.4715 17.22 22.0515L17.16 21.9515C16.68 21.1215 15.9 21.1215 15.42 21.9515L15.36 22.0515C15.11 22.4715 14.57 22.6115 14.15 22.3715L13.24 21.8415C12.76 21.5615 12.59 20.9515 12.87 20.4715C13.35 19.6415 12.96 18.9615 12 18.9615C11.45 18.9715 11 18.5215 11 17.9615Z"
        stroke="currentColor" stroke-width="1.5" stroke-miterlimit="10" stroke-linecap="round"
        stroke-linejoin="round" />
</svg>