<svg viewBox="0 0 37 11" fill="none" xmlns="http://www.w3.org/2000/svg">
    <path opacity=".938" fill-rule="evenodd" clip-rule="evenodd"
        d="M.097 8.48c-.034-.023.2-.924.758-2.92.443-1.587.86-3.072.927-3.3l.12-.413 1.744.032c2.04.037 2.353.064 2.68.23.582.294.742.746.542 1.53-.171.667-.497 1.12-1.127 1.57-.12.084-.224.188-.232.23-.01.047.065.15.19.264.115.103.235.241.269.307.09.176.075.53-.052 1.142-.062.3-.124.73-.139.953l-.025.408h-.844c-.598 0-.86-.015-.897-.053-.083-.082-.064-.292.08-.895.158-.67.168-.933.04-1.096-.17-.216-.325-.263-.935-.283-.492-.017-.574-.01-.649.058-.116.105-.21.377-.486 1.398l-.234.87h-.84c-.463 0-.863-.015-.89-.033zm4.437-3.74c.4-.119.569-.38.57-.882 0-.152-.026-.258-.077-.32-.122-.147-.488-.197-1.176-.16l-.597.032-.087.293c-.134.452-.228.89-.214.993.01.067.056.101.168.123.244.048 1.157-.003 1.413-.079zM7.36 8.608c-.267-.095-.477-.273-.565-.48-.168-.39-.013-1.262.598-3.38.147-.507.267-.927.267-.933 0-.006.031-.042.069-.08.056-.057.185-.07.702-.07.348 0 .682.02.743.042l.109.042-.109.387c-.268.952-.546 2.106-.594 2.467-.043.328-.042.415.01.524.118.247.548.299.914.11.429-.22.51-.409 1.198-2.813.101-.353.179-.536.265-.628l.121-.13h.69c.532 0 .693.013.71.058.017.045-.858 3.304-1.226 4.569l-.059.198-.736.022c-.405.012-.736.01-.736-.006 0-.015.03-.112.067-.216.149-.422-.037-.449-.58-.083-.535.362-.76.448-1.224.467-.313.013-.451-.001-.634-.067zm4.896-.13c-.04-.025.187-.9.859-3.316l.913-3.281 1.542.012c1.924.017 2.317.05 2.69.234.305.15.45.285.587.543.229.434.225.937-.012 1.627-.365 1.061-1.046 1.759-1.943 1.99-.145.039-.601.09-1.014.114-1.36.081-1.279.066-1.352.253-.035.09-.17.544-.302 1.01l-.239.849h-.838c-.461-.001-.862-.017-.891-.035zm3.968-3.532c.449-.058.685-.197.834-.49.161-.315.204-.659.101-.815-.14-.213-.331-.26-1.052-.256-.358.002-.67.021-.691.043-.05.05-.353 1.247-.353 1.393 0 .059.013.12.03.137.041.042.773.034 1.131-.012zm2.519 3.68c-.519-.217-.654-.576-.484-1.293.236-1.003.757-1.338 2.544-1.639 1.08-.182 1.35-.314 1.427-.702.058-.288-.189-.444-.697-.445-.317 0-.436.046-.712.277l-.221.186-.572.014c-.662.017-.866-.01-.866-.112 0-.12.26-.484.502-.706.261-.238.606-.421.98-.518.785-.205 2.137-.181 2.601.045.249.122.47.323.575.524.1.19.064.388-.406 2.249-.23.913-.419 1.739-.419 1.834v.173h-.544c-.3 0-.636.012-.748.028l-.204.028-.09-.21c-.104-.245-.117-.245-.67.005-.602.27-.823.331-1.29.353-.398.019-.468.01-.706-.09zm2.369-1.029c.303-.135.647-.685.649-1.04v-.172l-.28.026c-.31.03-.964.24-1.204.389a.643.643 0 00-.322.545c.001.21.032.267.177.329.166.07.75.025.98-.077zm2.427 3.003c-.177-.04-.184-.105-.061-.59.164-.647.154-.633.56-.696.438-.069.634-.165.731-.36.109-.217.1-1.068-.03-3.35-.073-1.27-.091-1.845-.06-1.884.034-.04.257-.054.831-.054h.785l.014 1.473c.01 1.007.03 1.49.062 1.524.08.08.376-.419 1.584-2.678l.171-.32h.693c.382 0 .703.016.714.034.022.036-1.028 1.909-2.082 3.712-1.498 2.564-1.78 2.917-2.483 3.113-.23.064-1.244.118-1.43.076z"
        fill="#227FBB" />
    <path fill-rule="evenodd" clip-rule="evenodd" d="M30.04 10.013l2.06-7.547 1.96 3.9-4.02 3.647z" fill="#1AAF5D" />
    <path fill-rule="evenodd" clip-rule="evenodd" d="M28.766 10.04l2.06-7.547 1.961 3.9-4.021 3.647z" fill="#F59D00" />
    <path fill-rule="evenodd" clip-rule="evenodd"
        d="M34.438 2.325V1.81h-.196v-.09h.494v.09h-.197v.515h-.101zm.365 0V1.72h.148l.153.482.147-.482h.146v.604h-.092v-.507l-.156.507h-.09l-.163-.515v.515h-.093z"
        fill="#000" />
    <path opacity=".938" clip-rule="evenodd" d="M35.7 2.012a.838.838 0 11-1.676 0 .838.838 0 011.675 0z" stroke="#000"
        stroke-width=".5" />
</svg>