<svg viewBox="0 0 20 20" fill="none" xmlns="http://www.w3.org/2000/svg">
<path fill-rule="evenodd" clip-rule="evenodd" d="M6 3.99999C6 3.4477 6.4477 3 7 3H13C13.5523 3 14 3.4477 14 3.99999C14 4.55229 13.5523 4.99998 13 4.99998H11.4649C11.6439 5.30948 11.7826 5.64523 11.874 5.99998H13C13.5523 5.99998 14 6.44767 14 6.99997C14 7.55226 13.5523 7.99996 13 7.99996H11.874C11.4963 9.4672 10.3071 10.6086 8.81335 10.9172L11.8321 15.4452C12.1384 15.9047 12.0142 16.5256 11.5547 16.8319C11.0951 17.1383 10.4743 17.0141 10.1679 16.5546L6.16795 10.5546C5.9634 10.2478 5.9443 9.85325 6.11835 9.5281C6.29235 9.20295 6.6312 8.99995 7 8.99995H8C8.7403 8.99995 9.38665 8.59776 9.73245 7.99996H7C6.4477 7.99996 6 7.55226 6 6.99997C6 6.44767 6.4477 5.99998 7 5.99998H9.73245C9.38665 5.40218 8.7403 4.99998 8 4.99998H7C6.4477 4.99998 6 4.55229 6 3.99999Z" fill="currentColor"/>
</svg>
