<?xml version="1.0" encoding="UTF-8"?>
<svg viewBox="0 0 22 22" version="1.1" xmlns="http://www.w3.org/2000/svg" xmlns:xlink="http://www.w3.org/1999/xlink">
    <title>vuesax/linear/setting-2</title>
    <g id="Page-1" stroke="none" stroke-width="1" fill="none" fill-rule="evenodd">
        <g id="Sid-Nav-page" transform="translate(-17.000000, -553.000000)">
            <g id="Sidebar" transform="translate(0.000000, 64.000000)">
                <g id="Group-18" transform="translate(0.000000, 480.000000)">
                    <g id="setting-2" transform="translate(16.000000, 8.000000)">
                        <path d="M12,15 C10.3431457,15 9,13.6568543 9,12 C9,10.3431457 10.3431457,9 12,9 C13.6568543,9 15,10.3431457 15,12 C15,13.6568543 13.6568543,15 12,15 Z" id="Vector" stroke="currentColor" stroke-width="1.5" stroke-linecap="round" stroke-linejoin="round" stroke-dasharray="0,0"></path>
                        <path d="M2,11.119936 C2,10.079936 2.85000014,9.21993685 3.9000001,9.21993685 C5.71000004,9.21993685 6.44999999,7.93993652 5.53999996,6.36993647 C5.01999998,5.46993649 5.32999974,4.29993641 6.23999977,3.77993643 L7.96999979,2.78993645 C8.75999981,2.31993645 9.78,2.59993654 10.25,3.38993657 L10.3599997,3.57993639 C11.2599996,5.14993644 12.7399996,5.14993644 13.6499996,3.57993639 L13.7600002,3.38993657 C14.2300002,2.59993654 15.2500009,2.31993645 16.0400009,2.78993645 L17.7700005,3.77993643 C18.6800005,4.29993641 18.9899993,5.46993649 18.4699993,6.36993647 C17.5599993,7.93993652 18.3000007,9.21993685 20.1100006,9.21993685 C21.1500006,9.21993685 22.0100002,10.069936 22.0100002,11.119936 L22.0100002,12.8799362 C22.0100002,13.9199362 21.1600006,14.7799358 20.1100006,14.7799358 C18.3000007,14.7799358 17.5599993,16.0599352 18.4699993,17.6299353 C18.9899993,18.5399353 18.6800005,19.6999364 17.7700005,20.2199364 L16.0400009,21.2099361 C15.2500009,21.6799361 14.2300002,21.3999377 13.7600002,20.6099377 L13.6499996,20.4199371 C12.7499996,18.8499371 11.2699997,18.8499371 10.3599997,20.4199371 L10.25,20.6099377 C9.78,21.3999377 8.75999981,21.6799361 7.96999979,21.2099361 L6.23999977,20.2199364 C5.32999974,19.6999364 5.01999998,18.5299352 5.53999996,17.6299353 C6.44999999,16.0599352 5.71000004,14.7799358 3.9000001,14.7799358 C2.85000014,14.7799358 2,13.9199362 2,12.8799362 L2,11.119936 Z" id="Vector" stroke="currentColor" stroke-width="1.5" stroke-linecap="round" stroke-linejoin="round" stroke-dasharray="0,0" fill-rule="nonzero"></path>
                        <path d="M24,0 L24,24 L0,24 L0,0 L24,0 Z" id="Vector" opacity="0"></path>
                    </g>
                </g>
            </g>
        </g>
    </g>
</svg>