<svg viewBox="0 0 16 16" fill="none" xmlns="http://www.w3.org/2000/svg">
    <g clip-path="url(#clip0_4436_25468)">
        <path
            d="M14.668 3.33464H1.33464C1.15782 3.33464 0.988255 3.40487 0.863231 3.5299C0.738207 3.65492 0.667969 3.82449 0.667969 4.0013V6.66797C0.669128 7.0806 0.797888 7.48277 1.03659 7.81935C1.2753 8.15592 1.61227 8.41043 2.0013 8.54797V14.668C2.0013 14.8448 2.07154 15.0143 2.19656 15.1394C2.32159 15.2644 2.49116 15.3346 2.66797 15.3346H13.3346C13.5114 15.3346 13.681 15.2644 13.806 15.1394C13.9311 15.0143 14.0013 14.8448 14.0013 14.668V8.54797C14.3903 8.41043 14.7273 8.15592 14.966 7.81935C15.2047 7.48277 15.3335 7.0806 15.3346 6.66797V4.0013C15.3346 3.82449 15.2644 3.65492 15.1394 3.5299C15.0143 3.40487 14.8448 3.33464 14.668 3.33464ZM10.0013 4.66797H11.3346V6.66797C11.3346 6.84478 11.2644 7.01435 11.1394 7.13937C11.0143 7.2644 10.8448 7.33464 10.668 7.33464C10.4912 7.33464 10.3216 7.2644 10.1966 7.13937C10.0715 7.01435 10.0013 6.84478 10.0013 6.66797V4.66797ZM7.33464 4.66797H8.66797V6.66797C8.66797 6.84478 8.59773 7.01435 8.47271 7.13937C8.34768 7.2644 8.17811 7.33464 8.0013 7.33464C7.82449 7.33464 7.65492 7.2644 7.5299 7.13937C7.40487 7.01435 7.33464 6.84478 7.33464 6.66797V4.66797ZM4.66797 4.66797H6.0013V6.66797C6.0013 6.84478 5.93106 7.01435 5.80604 7.13937C5.68102 7.2644 5.51145 7.33464 5.33464 7.33464C5.15782 7.33464 4.98826 7.2644 4.86323 7.13937C4.73821 7.01435 4.66797 6.84478 4.66797 6.66797V4.66797ZM2.66797 7.33464C2.49116 7.33464 2.32159 7.2644 2.19656 7.13937C2.07154 7.01435 2.0013 6.84478 2.0013 6.66797V4.66797H3.33464V6.66797C3.33464 6.84478 3.2644 7.01435 3.13937 7.13937C3.01435 7.2644 2.84478 7.33464 2.66797 7.33464ZM9.33464 14.0013H6.66797V12.668C6.66797 12.3143 6.80844 11.9752 7.05849 11.7252C7.30854 11.4751 7.64768 11.3346 8.0013 11.3346C8.35492 11.3346 8.69406 11.4751 8.94411 11.7252C9.19416 11.9752 9.33464 12.3143 9.33464 12.668V14.0013ZM12.668 14.0013H10.668V12.668C10.668 11.9607 10.387 11.2824 9.88692 10.7824C9.38682 10.2823 8.70855 10.0013 8.0013 10.0013C7.29406 10.0013 6.61578 10.2823 6.11568 10.7824C5.61559 11.2824 5.33464 11.9607 5.33464 12.668V14.0013H3.33464V8.54797C3.57968 8.45701 3.80573 8.32138 4.0013 8.14797C4.36798 8.47594 4.84268 8.65726 5.33464 8.65726C5.82659 8.65726 6.30129 8.47594 6.66797 8.14797C7.03465 8.47594 7.50935 8.65726 8.0013 8.65726C8.49326 8.65726 8.96795 8.47594 9.33464 8.14797C9.70132 8.47594 10.176 8.65726 10.668 8.65726C11.1599 8.65726 11.6346 8.47594 12.0013 8.14797C12.1969 8.32138 12.4229 8.45701 12.668 8.54797V14.0013ZM14.0013 6.66797C14.0013 6.84478 13.9311 7.01435 13.806 7.13937C13.681 7.2644 13.5114 7.33464 13.3346 7.33464C13.1578 7.33464 12.9883 7.2644 12.8632 7.13937C12.7382 7.01435 12.668 6.84478 12.668 6.66797V4.66797H14.0013V6.66797ZM2.86797 2.0013H13.3346C13.5114 2.0013 13.681 1.93106 13.806 1.80604C13.9311 1.68102 14.0013 1.51145 14.0013 1.33464C14.0013 1.15782 13.9311 0.988255 13.806 0.863231C13.681 0.738207 13.5114 0.667969 13.3346 0.667969H2.86797C2.69116 0.667969 2.52159 0.738207 2.39656 0.863231C2.27154 0.988255 2.2013 1.15782 2.2013 1.33464C2.2013 1.51145 2.27154 1.68102 2.39656 1.80604C2.52159 1.93106 2.69116 2.0013 2.86797 2.0013Z"
            fill="currentColor" />
    </g>
    <defs>
        <clipPath id="clip0_4436_25468">
            <rect width="16" height="16" fill="white" />
        </clipPath>
    </defs>
</svg>