<svg viewBox="0 0 20 20" fill="none" xmlns="http://www.w3.org/2000/svg">
<path d="M18.123 14.9837C18.123 14.9671 18.1147 14.9504 18.1147 14.9337C18.1063 14.8671 18.098 14.8004 18.073 14.7421C18.0397 14.6671 17.998 14.6087 17.948 14.5504C17.948 14.5504 17.948 14.5421 17.9397 14.5421C17.8813 14.4837 17.8147 14.4421 17.7397 14.4087C17.6647 14.3754 17.5813 14.3587 17.498 14.3587L13.6063 14.3754C13.6063 14.3754 13.6063 14.3754 13.598 14.3754C13.098 14.3754 12.6147 14.1421 12.3147 13.7421L11.298 12.4337C11.0897 12.1587 10.698 12.1087 10.423 12.3254C10.148 12.5421 10.098 12.9254 10.3147 13.2004L11.3313 14.5087C11.873 15.2087 12.723 15.6254 13.6063 15.6254H13.6147L15.9897 15.6171L15.398 16.2087C15.1563 16.4504 15.1563 16.8504 15.398 17.0921C15.523 17.2171 15.6813 17.2754 15.8397 17.2754C15.998 17.2754 16.1563 17.2171 16.2813 17.0921L17.948 15.4254C18.0063 15.3671 18.048 15.3004 18.0813 15.2254C18.1063 15.1421 18.123 15.0587 18.123 14.9837Z" fill="currentColor"/>
<path d="M7.01667 5.57546C6.475 4.82546 5.60833 4.38379 4.68333 4.38379C4.675 4.38379 4.675 4.38379 4.66667 4.38379L2.5 4.39212C2.15833 4.39212 1.875 4.67546 1.875 5.01712C1.875 5.35879 2.15833 5.64212 2.5 5.64212L4.675 5.63379H4.68333C5.20833 5.63379 5.7 5.88379 6 6.30879L6.9 7.55879C7.025 7.72546 7.21667 7.81712 7.40833 7.81712C7.53333 7.81712 7.66667 7.77546 7.775 7.70046C8.05833 7.49212 8.11667 7.10046 7.91667 6.82546L7.01667 5.57546Z" fill="currentColor"/>
<path d="M18.1167 5.0666C18.1167 5.04993 18.125 5.03327 18.125 5.02493C18.125 4.9416 18.1083 4.85827 18.075 4.78327C18.0417 4.70827 18 4.6416 17.9417 4.58327L16.275 2.9166C16.0333 2.67493 15.6333 2.67493 15.3917 2.9166C15.15 3.15827 15.15 3.55827 15.3917 3.79993L15.9833 4.3916L13.7083 4.38327C13.7 4.38327 13.7 4.38327 13.6917 4.38327C12.7333 4.38327 11.8333 4.85827 11.3 5.6666L5.975 13.6499C5.675 14.0999 5.16667 14.3749 4.625 14.3749H4.61667L2.5 14.3583C2.15833 14.3583 1.875 14.6333 1.875 14.9833C1.875 15.3249 2.15 15.6083 2.5 15.6083L4.625 15.6166C4.63333 15.6166 4.63333 15.6166 4.64167 15.6166C5.60833 15.6166 6.5 15.1416 7.03333 14.3333L12.3583 6.34993C12.6583 5.89993 13.1667 5.62493 13.7083 5.62493H13.7167L17.5 5.6416C17.5833 5.6416 17.6583 5.62493 17.7417 5.5916C17.8167 5.55827 17.8833 5.5166 17.9417 5.45827C17.9417 5.45827 17.9417 5.44993 17.95 5.44993C18 5.3916 18.05 5.33327 18.075 5.25827C18.1 5.19993 18.1083 5.13327 18.1167 5.0666Z" fill="currentColor"/>
</svg>
