<svg viewBox="0 0 20 20" fill="none" xmlns="http://www.w3.org/2000/svg">
<path d="M10.0007 9.99935C9.5062 9.99935 9.02285 10.146 8.61173 10.4207C8.2006 10.6954 7.88017 11.0858 7.69095 11.5426C7.50173 11.9995 7.45222 12.5021 7.54869 12.9871C7.64515 13.472 7.88325 13.9175 8.23288 14.2671C8.58252 14.6167 9.02797 14.8548 9.51293 14.9513C9.99788 15.0478 10.5005 14.9983 10.9574 14.809C11.4142 14.6198 11.8046 14.2994 12.0793 13.8883C12.354 13.4772 12.5007 12.9938 12.5007 12.4993C12.5007 11.8363 12.2373 11.2004 11.7684 10.7316C11.2996 10.2627 10.6637 9.99935 10.0007 9.99935ZM10.0007 13.3327C9.83583 13.3327 9.67472 13.2838 9.53768 13.1922C9.40063 13.1007 9.29383 12.9705 9.23075 12.8183C9.16768 12.666 9.15118 12.4984 9.18333 12.3368C9.21548 12.1751 9.29485 12.0266 9.4114 11.9101C9.52794 11.7935 9.67642 11.7142 9.83808 11.682C9.99973 11.6499 10.1673 11.6664 10.3196 11.7294C10.4718 11.7925 10.602 11.8993 10.6935 12.0364C10.7851 12.1734 10.834 12.3345 10.834 12.4993C10.834 12.7204 10.7462 12.9323 10.5899 13.0886C10.4336 13.2449 10.2217 13.3327 10.0007 13.3327ZM4.16732 12.4993C4.16732 12.6642 4.21619 12.8253 4.30776 12.9623C4.39933 13.0994 4.52948 13.2062 4.68175 13.2692C4.83402 13.3323 5.00158 13.3488 5.16323 13.3167C5.32488 13.2845 5.47336 13.2051 5.58991 13.0886C5.70645 12.9721 5.78582 12.8236 5.81797 12.6619C5.85013 12.5003 5.83362 12.3327 5.77055 12.1804C5.70748 12.0282 5.60067 11.898 5.46363 11.8065C5.32659 11.7149 5.16547 11.666 5.00065 11.666C4.77964 11.666 4.56768 11.7538 4.4114 11.9101C4.25512 12.0664 4.16732 12.2783 4.16732 12.4993ZM15.834 12.4993C15.834 12.3345 15.7851 12.1734 15.6935 12.0364C15.602 11.8993 15.4718 11.7925 15.3196 11.7294C15.1673 11.6664 14.9997 11.6499 14.8381 11.682C14.6764 11.7142 14.5279 11.7935 14.4114 11.9101C14.2949 12.0266 14.2155 12.1751 14.1833 12.3368C14.1512 12.4984 14.1677 12.666 14.2308 12.8183C14.2938 12.9705 14.4006 13.1007 14.5377 13.1922C14.6747 13.2838 14.8358 13.3327 15.0007 13.3327C15.2217 13.3327 15.4336 13.2449 15.5899 13.0886C15.7462 12.9323 15.834 12.7204 15.834 12.4993ZM16.6673 6.66602H13.334C13.113 6.66602 12.901 6.75381 12.7447 6.91009C12.5884 7.06637 12.5007 7.27834 12.5007 7.49935C12.5007 7.72036 12.5884 7.93232 12.7447 8.0886C12.901 8.24488 13.113 8.33268 13.334 8.33268H16.6673C16.8883 8.33268 17.1003 8.42048 17.2566 8.57676C17.4129 8.73304 17.5007 8.945 17.5007 9.16602V15.8327C17.5007 16.0537 17.4129 16.2657 17.2566 16.4219C17.1003 16.5782 16.8883 16.666 16.6673 16.666H3.33398C3.11297 16.666 2.90101 16.5782 2.74473 16.4219C2.58845 16.2657 2.50065 16.0537 2.50065 15.8327V9.16602C2.50065 8.945 2.58845 8.73304 2.74473 8.57676C2.90101 8.42048 3.11297 8.33268 3.33398 8.33268H6.66732C6.88833 8.33268 7.10029 8.24488 7.25657 8.0886C7.41285 7.93232 7.50065 7.72036 7.50065 7.49935C7.50065 7.27834 7.41285 7.06637 7.25657 6.91009C7.10029 6.75381 6.88833 6.66602 6.66732 6.66602H3.33398C2.67094 6.66602 2.03506 6.92941 1.56622 7.39825C1.09738 7.86709 0.833984 8.50297 0.833984 9.16602V15.8327C0.833984 16.4957 1.09738 17.1316 1.56622 17.6005C2.03506 18.0693 2.67094 18.3327 3.33398 18.3327H16.6673C17.3304 18.3327 17.9662 18.0693 18.4351 17.6005C18.9039 17.1316 19.1673 16.4957 19.1673 15.8327V9.16602C19.1673 8.50297 18.9039 7.86709 18.4351 7.39825C17.9662 6.92941 17.3304 6.66602 16.6673 6.66602Z" fill="currentColor"/>
<path d="M10.2088 8.33398C10.043 8.33398 9.88396 8.26219 9.76671 8.13439C9.64946 8.00659 9.58359 7.83326 9.58359 7.65253V4.92669C9.58359 4.74596 9.51773 4.57262 9.40048 4.44483C9.28323 4.31703 9.12421 4.24523 8.9584 4.24523H2.96278L3.77553 5.12431C3.89326 5.25263 3.9594 5.42667 3.9594 5.60815C3.9594 5.78962 3.89326 5.96366 3.77553 6.09198C3.65781 6.22031 3.49814 6.2924 3.33165 6.2924C3.16516 6.2924 3.00548 6.22031 2.88776 6.09198L1.01217 4.04761C0.955255 3.9828 0.910638 3.90638 0.880882 3.82273C0.818352 3.65682 0.818352 3.47073 0.880882 3.30482C0.910638 3.22117 0.955255 3.14475 1.01217 3.07994L2.88776 1.03556C2.94588 0.971688 3.01502 0.92099 3.09121 0.886393C3.1674 0.851796 3.24911 0.833984 3.33165 0.833984C3.41418 0.833984 3.4959 0.851796 3.57208 0.886393C3.64827 0.92099 3.71741 0.971688 3.77553 1.03556C3.83413 1.09891 3.88064 1.17428 3.91238 1.25732C3.94412 1.34036 3.96047 1.42943 3.96047 1.51939C3.96047 1.60936 3.94412 1.69843 3.91238 1.78147C3.88064 1.86451 3.83413 1.93988 3.77553 2.00323L2.96278 2.88231H8.9584C9.45584 2.88231 9.9329 3.0977 10.2846 3.4811C10.6364 3.86449 10.834 4.38449 10.834 4.92669V7.65253C10.834 7.83326 10.7681 8.00659 10.6509 8.13439C10.5336 8.26219 10.3746 8.33398 10.2088 8.33398Z" fill="currentColor"/>
</svg>
