<svg width="149" height="32" viewBox="0 0 149 32" fill="none" xmlns="http://www.w3.org/2000/svg">
    <path d="M32.0002 0V31.976H7.1123V28.4241H28.446V0H32.0002Z" fill="white" />
    <path
        d="M17.7772 14.2136H3.55573V3.55189H17.7772V0H0V3.55189L0.000750947 14.2136L0 17.7654L0.000750947 32H3.55573V17.7654H17.7772V14.2136Z"
        fill="white" />
    <path d="M25.8895 21.3183V10.6574V7.10547H8.1123V10.6574H22.3345V21.3183H8.1123V24.8709H25.8895V21.3183Z"
        fill="#4CC3C7" />
    <path
        d="M24.1134 3.55264C25.0951 3.55264 25.8909 2.75735 25.8909 1.77632C25.8909 0.795285 25.0951 0 24.1134 0C23.1317 0 22.3359 0.795285 22.3359 1.77632C22.3359 2.75735 23.1317 3.55264 24.1134 3.55264Z"
        fill="#4CC3C7" />
    <path d="M65.3989 9.54688H62.0996V22.6137H65.3989V9.54688Z" fill="white" />
    <path
        d="M63.7268 4.12109C63.1464 4.12109 62.662 4.30646 62.2781 4.67493C62.0902 4.85149 61.9417 5.06574 61.8422 5.30368C61.7427 5.54162 61.6945 5.7979 61.7007 6.05576C61.6945 6.31328 61.7427 6.56923 61.8422 6.80681C61.9417 7.04438 62.0903 7.25823 62.2781 7.43433C62.662 7.80506 63.1464 7.98892 63.7268 7.98892C64.3072 7.98892 64.7908 7.80506 65.1762 7.43433C65.364 7.25819 65.5124 7.04432 65.6118 6.80674C65.7111 6.56916 65.7592 6.31323 65.7528 6.05576C65.7592 5.79794 65.7111 5.54169 65.6118 5.30375C65.5124 5.0658 65.364 4.85153 65.1762 4.67493C64.7908 4.30671 64.3077 4.12209 63.7268 4.12109Z"
        fill="white" />
    <path
        d="M78.2414 9.3597C77.4651 9.35103 76.6966 9.51588 75.9919 9.84224C75.3325 10.1462 74.7549 10.6031 74.3071 11.175V9.54731H71.0078V22.6112H74.3071V15.3933C74.3071 14.3562 74.5703 13.5585 75.0967 13.0001C75.623 12.4418 76.3419 12.1626 77.2532 12.1626C78.1485 12.1626 78.8553 12.4418 79.3737 13.0001C79.8921 13.5585 80.1513 14.3562 80.1513 15.3933V22.6112H83.4505V14.9483C83.4505 13.1888 82.9714 11.8169 82.0131 10.8328C81.0548 9.84874 79.7976 9.3577 78.2414 9.3597Z"
        fill="white" />
    <path
        d="M96.175 9.35971C95.3987 9.35096 94.6301 9.51581 93.9255 9.84225C93.2659 10.146 92.6883 10.6029 92.2407 11.175V9.54732H88.9414V22.6112H92.2407V15.3933C92.2407 14.3562 92.5036 13.5585 93.0295 13.0001C93.5554 12.4418 94.2745 12.1626 95.1868 12.1626C96.0821 12.1626 96.7889 12.4418 97.3073 13.0001C97.8257 13.5585 98.0849 14.3562 98.0849 15.3933V22.6112H101.384V14.9483C101.384 13.1888 100.905 11.8169 99.9467 10.8328C98.9884 9.84875 97.7312 9.3577 96.175 9.35971Z"
        fill="white" />
    <path
        d="M116.182 10.1734C115.161 9.61611 114.022 9.33694 112.765 9.33594C111.508 9.33494 110.369 9.61411 109.348 10.1734C108.337 10.7222 107.501 11.5431 106.932 12.5434C106.343 13.566 106.049 14.7457 106.049 16.0825C106.049 17.4193 106.336 18.5985 106.909 19.6201C107.458 20.6183 108.28 21.4399 109.278 21.9893C110.282 22.5476 111.414 22.8271 112.671 22.8276C113.943 22.8276 115.093 22.5481 116.121 21.9893C117.142 21.4414 117.991 20.6214 118.576 19.6201C119.181 18.598 119.484 17.4188 119.483 16.0825C119.482 14.7462 119.187 13.5665 118.599 12.5434C118.031 11.5423 117.194 10.7211 116.182 10.1734ZM115.617 18.2033C115.333 18.7531 114.895 19.208 114.356 19.5121C113.842 19.8001 113.262 19.9506 112.672 19.9488C111.729 19.9488 110.947 19.6146 110.326 18.9462C109.705 18.2778 109.395 17.3235 109.396 16.0832C109.396 14.841 109.714 13.8857 110.349 13.2173C110.984 12.5489 111.774 12.2144 112.719 12.2139C113.165 12.2058 113.608 12.2908 114.02 12.4635C114.432 12.6363 114.803 12.893 115.111 13.2173C115.76 13.8857 116.085 14.841 116.085 16.0832C116.088 16.9152 115.932 17.6224 115.617 18.2048V18.2033Z"
        fill="white" />
    <path
        d="M128.107 6.31641H124.784V9.54335H123.228V12.2562H124.784V18.5585C124.784 21.2631 126.174 22.6155 128.954 22.6155H131.028V19.8343H129.496C128.994 19.8343 128.637 19.7357 128.425 19.5386C128.213 19.3415 128.107 19.023 128.107 18.5833V12.263H131.031V9.5501H128.107V6.31641Z"
        fill="white" />
    <path
        d="M147.488 12.5434C146.921 11.5425 146.084 10.7214 145.073 10.1734C144.052 9.61611 142.913 9.33694 141.656 9.33594C140.4 9.33494 139.261 9.61411 138.239 10.1734C137.228 10.7217 136.39 11.5428 135.822 12.5434C135.233 13.566 134.938 14.7457 134.938 16.0825C134.938 17.4193 135.225 18.5985 135.799 19.6201C136.348 20.6184 137.17 21.44 138.168 21.9893C139.173 22.5476 140.304 22.8271 141.562 22.8276C142.833 22.8276 143.983 22.5481 145.011 21.9893C146.03 21.4408 146.878 20.6208 147.461 19.6201C148.067 18.598 148.37 17.4188 148.369 16.0825C148.368 14.7462 148.074 13.5665 147.488 12.5434ZM144.508 18.2048C144.223 18.7548 143.784 19.2096 143.245 19.5136C142.731 19.8016 142.151 19.9521 141.561 19.9503C140.618 19.9503 139.836 19.6161 139.215 18.9477C138.594 18.2793 138.285 17.3245 138.287 16.0832C138.287 14.841 138.605 13.8857 139.24 13.2173C139.876 12.5489 140.665 12.2144 141.61 12.2139C142.056 12.2059 142.499 12.2909 142.911 12.4636C143.323 12.6364 143.694 12.893 144.002 13.2173C144.652 13.8857 144.976 14.841 144.976 16.0832C144.979 16.9152 144.823 17.6224 144.508 18.2048Z"
        fill="white" />
    <path
        d="M55.3106 9.00264C55.3106 8.2642 55.4681 7.75314 55.783 7.46947C56.0979 7.1858 56.6555 7.05247 57.4559 7.06948V4.2853C55.6173 4.23878 54.2426 4.59274 53.3318 5.34719C52.421 6.10164 51.9656 7.28085 51.9656 8.88482V9.54522H50.4817V12.2581H51.9656V22.6143V23.1569C51.9656 23.8948 51.8081 24.4059 51.4932 24.6901C51.1805 24.9722 50.6211 25.1058 49.8203 25.0901V27.8742C51.6589 27.9208 53.0336 27.5668 53.9444 26.8124C54.8552 26.0579 55.3106 24.8787 55.3106 23.2747V22.6091V12.2528H57.5968V9.53996H55.3106V9.00264Z"
        fill="white" />
</svg>