<svg  viewBox="0 0 20 20" fill="none" xmlns="http://www.w3.org/2000/svg">
<path fill-rule="evenodd" clip-rule="evenodd" d="M13.9231 3.58002L13.8446 3.51069C13.5177 3.2565 13.045 3.27961 12.7446 3.58002L12.6752 3.65852C12.4211 3.98543 12.4442 4.45812 12.7446 4.75853L15.488 7.5026L5.83382 7.5026L5.73664 7.50821C5.32219 7.55635 5.00049 7.90857 5.00049 8.33594C5.00049 8.79618 5.37359 9.16927 5.83382 9.16927L17.5005 9.16927L17.5952 9.16429C18.2735 9.09192 18.5919 8.24883 18.0897 7.74668L13.9231 3.58002ZM15.001 11.67C15.001 11.2098 14.6279 10.8367 14.1677 10.8367H2.50102L2.40633 10.8417C1.72796 10.914 1.40962 11.7571 1.91176 12.2593L6.07843 16.426L6.15694 16.4953C6.48385 16.7495 6.95654 16.7264 7.25694 16.426L7.32627 16.3474C7.58045 16.0205 7.55735 15.5478 7.25694 15.2474L4.51352 12.5034L14.1677 12.5034L14.2649 12.4978C14.6793 12.4496 15.001 12.0974 15.001 11.67Z" fill="currentColor"/>
</svg>
