<svg viewBox="0 0 20 20" fill="none" xmlns="http://www.w3.org/2000/svg">
<path d="M15 1.66602H5C4.33696 1.66602 3.70107 1.92941 3.23223 2.39825C2.76339 2.86709 2.5 3.50297 2.5 4.16602V13.3327C2.5 13.9957 2.76339 14.6316 3.23223 15.1005C3.70107 15.5693 4.33696 15.8327 5 15.8327H7.15833L9.40833 18.091C9.4862 18.1683 9.57855 18.2294 9.68008 18.2708C9.78161 18.3123 9.89033 18.3333 10 18.3327C10.1986 18.3327 10.3907 18.2618 10.5417 18.1327L13.225 15.8327H15C15.663 15.8327 16.2989 15.5693 16.7678 15.1005C17.2366 14.6316 17.5 13.9957 17.5 13.3327V4.16602C17.5 3.50297 17.2366 2.86709 16.7678 2.39825C16.2989 1.92941 15.663 1.66602 15 1.66602ZM15.8333 13.3327C15.8333 13.5537 15.7455 13.7657 15.5893 13.9219C15.433 14.0782 15.221 14.166 15 14.166H12.9167C12.718 14.166 12.526 14.2369 12.375 14.366L10.0417 16.366L8.09167 14.4077C8.0138 14.3304 7.92145 14.2693 7.81992 14.2279C7.71839 14.1864 7.60967 14.1654 7.5 14.166H5C4.77899 14.166 4.56702 14.0782 4.41074 13.9219C4.25446 13.7657 4.16667 13.5537 4.16667 13.3327V4.16602C4.16667 3.945 4.25446 3.73304 4.41074 3.57676C4.56702 3.42048 4.77899 3.33268 5 3.33268H15C15.221 3.33268 15.433 3.42048 15.5893 3.57676C15.7455 3.73304 15.8333 3.945 15.8333 4.16602V13.3327Z" fill="currentColor"/>
<path d="M10 5V9.16667" stroke="currentColor" stroke-width="2" stroke-linecap="round"/>
<path fill-rule="evenodd" clip-rule="evenodd" d="M9.99935 13.3327C10.4596 13.3327 10.8327 12.9596 10.8327 12.4993C10.8327 12.0391 10.4596 11.666 9.99935 11.666C9.53911 11.666 9.16602 12.0391 9.16602 12.4993C9.16602 12.9596 9.53911 13.3327 9.99935 13.3327Z" fill="white" stroke="currentColor" stroke-width="1.5"/>
</svg>
