<?xml version="1.0" encoding="UTF-8"?>
<svg viewBox="0 0 24 22" version="1.1" xmlns="http://www.w3.org/2000/svg" xmlns:xlink="http://www.w3.org/1999/xlink">
    <g id="Page-1" stroke="none" stroke-width="1" fill="none" fill-rule="evenodd">
        <g id="Bank-logos" transform="translate(-535.000000, -1087.000000)">
            <g id="menu-board" transform="translate(535.000000, 1086.000000)">
                <path
                    d="M18.5600147,20.2900391 C18.3200147,21.3000391 17.420022,22 16.380022,22 L3.2400074,22 C1.73000741,22 0.650023296,20.5199463 1.10002328,19.0699463 L5.31001472,5.55004883 C5.60001472,4.61004883 6.47002935,3.95996094 7.45002937,3.95996094 L19.7500172,3.95996094 C20.7000172,3.95996094 21.4900245,4.53996581 21.8200245,5.33996582 C22.0100245,5.76996583 22.0500098,6.26000977 21.9300098,6.76000977 L18.5600147,20.2900391 Z"
                    id="Vector" stroke="currentColor" stroke-width="1.5" stroke-dasharray="0,0" fill-rule="nonzero">
                </path>
                <path d="M16,22 L20.7799988,22 C22.0699987,22 23.0799902,20.9099951 22.9899902,19.6199951 L22,6"
                    id="Vector" stroke="currentColor" stroke-width="1.5" stroke-linecap="round" stroke-linejoin="round"
                    stroke-dasharray="0,0" fill-rule="nonzero"></path>
                <line x1="9.67999268" y1="6.38000488" x2="10.7200012" y2="2.06005859" id="Vector" stroke="currentColor"
                    stroke-width="1.5" stroke-linecap="round" stroke-linejoin="round" stroke-dasharray="0,0"></line>
                <line x1="16.3800049" y1="6.39001465" x2="17.3200073" y2="2.05004883" id="Vector" stroke="currentColor"
                    stroke-width="1.5" stroke-linecap="round" stroke-linejoin="round" stroke-dasharray="0,0"></line>
                <line x1="7.70001221" y1="12" x2="15.7000122" y2="12" id="Vector" stroke="currentColor"
                    stroke-width="1.5" stroke-linecap="round" stroke-linejoin="round" stroke-dasharray="0,0"></line>
                <line x1="6.70001221" y1="16" x2="14.7000122" y2="16" id="Vector" stroke="currentColor"
                    stroke-width="1.5" stroke-linecap="round" stroke-linejoin="round" stroke-dasharray="0,0"></line>
                <path d="M24,0 L24,24 L0,24 L0,0 L24,0 Z" id="Vector" opacity="0"></path>
            </g>
        </g>
    </g>
</svg>