<svg viewBox="0 0 24 24" fill="none" xmlns="http://www.w3.org/2000/svg">
    <path
        d="M20.49 7.51999C20.4843 7.49362 20.4843 7.46635 20.49 7.43999C20.4852 7.41691 20.4852 7.39307 20.49 7.36999V7.27999L20.43 7.12999C20.4056 7.08906 20.3753 7.05199 20.34 7.01999L20.25 6.93999H20.2L16.26 4.44999L12.54 2.14999C12.4539 2.08172 12.3555 2.03078 12.25 1.99999H12.17C12.0806 1.98507 11.9894 1.98507 11.9 1.99999H11.8C11.6838 2.02568 11.5725 2.06956 11.47 2.12999L4.00001 6.77999L3.91001 6.84999L3.82001 6.92999L3.72001 6.99999L3.67001 7.05999L3.61001 7.20999V7.29999V7.35999C3.60029 7.4263 3.60029 7.49368 3.61001 7.55999V16.29C3.60967 16.4599 3.65264 16.6272 3.73488 16.7759C3.81711 16.9246 3.93589 17.0499 4.08001 17.14L11.58 21.78L11.73 21.84H11.81C11.9792 21.8936 12.1608 21.8936 12.33 21.84H12.41L12.56 21.78L20 17.21C20.1441 17.1199 20.2629 16.9946 20.3451 16.8459C20.4274 16.6972 20.4703 16.5299 20.47 16.36V7.62999C20.47 7.62999 20.49 7.55999 20.49 7.51999ZM12 4.16999L13.78 5.26999L8.19001 8.72999L6.40001 7.62999L12 4.16999ZM11 19.17L5.50001 15.81V9.41999L11 12.82V19.17ZM12 11.06L10.09 9.90999L15.68 6.43999L17.6 7.62999L12 11.06ZM18.5 15.78L13 19.2V12.82L18.5 9.41999V15.78Z"
        fill="currentColor" />
</svg>