<svg viewBox="0 0 28 28" fill="none" xmlns="http://www.w3.org/2000/svg">
    <path
        d="M11.8895 16.9293H12.6395C12.6395 16.6603 12.4954 16.4118 12.2619 16.2783C12.0283 16.1447 11.7411 16.1464 11.5093 16.2828L11.8895 16.9293ZM5.00702 20.9778L4.62676 20.3314L5.00702 20.9778ZM5.00702 7.02044L5.38729 6.37399L5.00702 7.02044ZM11.8895 11.069L11.5093 11.7154C11.7411 11.8518 12.0283 11.8536 12.2619 11.72C12.4954 11.5864 12.6395 11.338 12.6395 11.069H11.8895ZM13.3965 7.02044L13.0163 7.66689L13.3965 7.02044ZM23.795 13.1372L24.1753 12.4907L23.795 13.1372ZM23.795 14.8611L24.1753 15.5075L23.795 14.8611ZM13.3965 20.9778L13.0163 20.3314L13.3965 20.9778ZM11.5093 16.2828L4.62676 20.3314L5.38729 21.6243L12.2698 17.5757L11.5093 16.2828ZM4.62676 20.3314C4.4601 20.4294 4.25 20.3092 4.25 20.1159H2.75C2.75 21.4694 4.22068 22.3105 5.38729 21.6243L4.62676 20.3314ZM4.25 20.1159V7.88238H2.75V20.1159H4.25ZM4.25 7.88238C4.25 7.68902 4.4601 7.56886 4.62675 7.66689L5.38729 6.37399C4.22068 5.68775 2.75 6.5289 2.75 7.88238H4.25ZM4.62675 7.66689L11.5093 11.7154L12.2698 10.4225L5.38729 6.37399L4.62675 7.66689ZM12.6395 11.069V7.88238H11.1395V11.069H12.6395ZM12.6395 7.88238C12.6395 7.68902 12.8496 7.56886 13.0163 7.66689L13.7768 6.37399C12.6102 5.68775 11.1395 6.5289 11.1395 7.88238H12.6395ZM13.0163 7.66689L23.4148 13.7836L24.1753 12.4907L13.7768 6.37399L13.0163 7.66689ZM23.4148 13.7836C23.5791 13.8803 23.5791 14.118 23.4148 14.2146L24.1753 15.5075C25.3256 14.8309 25.3256 13.1674 24.1753 12.4907L23.4148 13.7836ZM23.4148 14.2146L13.0163 20.3314L13.7768 21.6243L24.1753 15.5075L23.4148 14.2146ZM13.0163 20.3314C12.8496 20.4294 12.6395 20.3092 12.6395 20.1159H11.1395C11.1395 21.4694 12.6102 22.3105 13.7768 21.6243L13.0163 20.3314ZM12.6395 20.1159V16.9293H11.1395V20.1159H12.6395Z"
        fill="white" />
</svg>