<svg viewBox="0 0 36 36" fill="none" xmlns="http://www.w3.org/2000/svg">
    <path d="M36.0001 0V35.973H8.00195V31.9771H32.0017V0H36.0001Z" fill="white" />
    <path
        d="M19.9988 15.9902H4.00009V3.99587H19.9988V0H0V3.99587H0.000844792V15.9902H0V19.9861H0.000844792V36H4.00009V19.9861H19.9988V15.9902Z"
        fill="white" />
    <path d="M27.9988 23.9816V11.9881V7.99219H8V11.9881H23.9995V23.9816H8V27.9783H27.9988V23.9816Z" fill="#4CC3C7" />
    <path
        d="M25.9996 3.99672C27.104 3.99672 27.9992 3.10202 27.9992 1.99836C27.9992 0.894695 27.104 0 25.9996 0C24.8953 0 24 0.894695 24 1.99836C24 3.10202 24.8953 3.99672 25.9996 3.99672Z"
        fill="#4CC3C7" />
</svg>