<svg width="32" height="32" viewBox="0 0 32 32" fill="none" xmlns="http://www.w3.org/2000/svg">
<path d="M29.3307 14.0013V20.668C29.3307 25.3346 26.6641 27.3346 22.6641 27.3346H9.33073C5.33073 27.3346 2.66406 25.3346 2.66406 20.668V11.3346C2.66406 6.66797 5.33073 4.66797 9.33073 4.66797H18.6641" stroke="#6F3368" stroke-width="1.5" stroke-miterlimit="10" stroke-linecap="round" stroke-linejoin="round"/>
<path d="M9.33594 12L13.5093 15.3333C14.8826 16.4267 17.1359 16.4267 18.5093 15.3333L20.0826 14.08" stroke="#6F3368" stroke-width="1.5" stroke-miterlimit="10" stroke-linecap="round" stroke-linejoin="round"/>
<path d="M30.9245 7.46615C30.9245 8.46615 30.6445 9.41281 30.1512 10.2128C29.8712 10.6928 29.5112 11.1195 29.0978 11.4661C28.1645 12.3061 26.9378 12.7995 25.5911 12.7995C23.6445 12.7995 21.9511 11.7595 21.0311 10.2128C20.5378 9.41281 20.2578 8.46615 20.2578 7.46615C20.2578 5.78615 21.0311 4.27949 22.2578 3.30615C23.1778 2.57282 24.3378 2.13281 25.5911 2.13281C28.5378 2.13281 30.9245 4.51948 30.9245 7.46615Z" stroke="#6F3368" stroke-width="1.5" stroke-miterlimit="10" stroke-linecap="round" stroke-linejoin="round"/>
<path d="M23.5078 7.4668L24.8278 8.78678L27.6678 6.16016" stroke="#6F3368" stroke-width="1.5" stroke-linecap="round" stroke-linejoin="round"/>
</svg>
