<svg viewBox="0 0 20 20" fill="none" xmlns="http://www.w3.org/2000/svg">
    <circle cx="9.9987" cy="4.16667" r="0.916667" stroke="currentColor" stroke-width="1.5" />
    <path
        d="M9.99935 7.41663C11.165 7.41663 12.1511 8.18919 12.4723 9.24996H12.471H12.4664H12.4618H12.4571H12.4525H12.4478H12.4431H12.4384H12.4337H12.429H12.4243H12.4196H12.4148H12.4101H12.4053H12.4006H12.3958H12.391H12.3862H12.3814H12.3766H12.3717H12.3669H12.362H12.3572H12.3523H12.3474H12.3425H12.3376H12.3327H12.3278H12.3229H12.3179H12.313H12.308H12.3031H12.2981H12.2931H12.2881H12.2831H12.2781H12.2731H12.268H12.263H12.2579H12.2528H12.2478H12.2427H12.2376H12.2325H12.2274H12.2222H12.2171H12.212H12.2068H12.2017H12.1965H12.1913H12.1861H12.1809H12.1757H12.1705H12.1653H12.16H12.1548H12.1495H12.1442H12.139H12.1337H12.1284H12.1231H12.1178H12.1125H12.1071H12.1018H12.0964H12.0911H12.0857H12.0803H12.075H12.0696H12.0642H12.0588H12.0533H12.0479H12.0425H12.037H12.0316H12.0261H12.0206H12.0151H12.0096H12.0041H11.9986H11.9931H11.9876H11.982H11.9765H11.9709H11.9654H11.9598H11.9542H11.9486H11.943H11.9374H11.9318H11.9262H11.9206H11.9149H11.9093H11.9036H11.8979H11.8923H11.8866H11.8809H11.8752H11.8695H11.8638H11.858H11.8523H11.8466H11.8408H11.8351H11.8293H11.8235H11.8177H11.8119H11.8061H11.8003H11.7945H11.7887H11.7828H11.777H11.7711H11.7653H11.7594H11.7535H11.7477H11.7418H11.7359H11.73H11.724H11.7181H11.7122H11.7063H11.7003H11.6944H11.6884H11.6824H11.6764H11.6704H11.6645H11.6584H11.6524H11.6464H11.6404H11.6344H11.6283H11.6223H11.6162H11.6101H11.6041H11.598H11.5919H11.5858H11.5797H11.5736H11.5675H11.5613H11.5552H11.5491H11.5429H11.5368H11.5306H11.5244H11.5182H11.5121H11.5059H11.4997H11.4935H11.4872H11.481H11.4748H11.4685H11.4623H11.456H11.4498H11.4435H11.4372H11.431H11.4247H11.4184H11.4121H11.4058H11.3994H11.3931H11.3868H11.3804H11.3741H11.3677H11.3614H11.355H11.3486H11.3422H11.3359H11.3295H11.3231H11.3166H11.3102H11.3038H11.2974H11.2909H11.2845H11.278H11.2716H11.2651H11.2586H11.2522H11.2457H11.2392H11.2327H11.2262H11.2197H11.2131H11.2066H11.2001H11.1936H11.187H11.1805H11.1739H11.1673H11.1608H11.1542H11.1476H11.141H11.1344H11.1278H11.1212H11.1146H11.1079H11.1013H11.0947H11.088H11.0814H11.0747H11.0681H11.0614H11.0547H11.048H11.0414H11.0347H11.028H11.0213H11.0145H11.0078H11.0011H10.9944H10.9876H10.9809H10.9741H10.9674H10.9606H10.9539H10.9471H10.9403H10.9335H10.9267H10.9199H10.9131H10.9063H10.8995H10.8927H10.8859H10.879H10.8722H10.8653H10.8585H10.8516H10.8448H10.8379H10.831H10.8242H10.8173H10.8104H10.8035H10.7966H10.7897H10.7828H10.7759H10.7689H10.762H10.7551H10.7481H10.7412H10.7342H10.7273H10.7203H10.7133H10.7064H10.6994H10.6924H10.6854H10.6784H10.6714H10.6644H10.6574H10.6504H10.6434H10.6363H10.6293H10.6223H10.6152H10.6082H10.6011H10.5941H10.587H10.5799H10.5729H10.5658H10.5587H10.5516H10.5445H10.5374H10.5303H10.5232H10.5161H10.509H10.5019H10.4947H10.4876H10.4805H10.4733H10.4662H10.459H10.4519H10.4447H10.4375H10.4304H10.4232H10.416H10.4088H10.4016H10.3944H10.3872H10.38H10.3728H10.3656H10.3584H10.3512H10.3439H10.3367H10.3295H10.3222H10.315H10.3077H10.3005H10.2932H10.2859H10.2787H10.2714H10.2641H10.2568H10.2496H10.2423H10.235H10.2277H10.2204H10.2131H10.2057H10.1984H10.1911H10.1838H10.1765H10.1691H10.1618H10.1544H10.1471H10.1398H10.1324H10.125H10.1177H10.1103H10.1029H10.0956H10.0882H10.0808H10.0734H10.066H10.0586H10.0512H10.0438H10.0364H10.029H10.0216H10.0142H10.0068H9.99935H9.99192H9.9845H9.97709H9.96967H9.96226H9.95486H9.94746H9.94006H9.93267H9.92528H9.91789H9.91051H9.90313H9.89576H9.88839H9.88102H9.87366H9.8663H9.85895H9.8516H9.84425H9.83691H9.82957H9.82224H9.81491H9.80759H9.80027H9.79295H9.78564H9.77833H9.77103H9.76373H9.75643H9.74914H9.74186H9.73457H9.7273H9.72002H9.71275H9.70549H9.69823H9.69098H9.68373H9.67648H9.66924H9.662H9.65477H9.64754H9.64032H9.6331H9.62588H9.61867H9.61147H9.60427H9.59707H9.58988H9.58269H9.57551H9.56834H9.56116H9.554H9.54683H9.53968H9.53252H9.52538H9.51823H9.5111H9.50396H9.49683H9.48971H9.48259H9.47548H9.46837H9.46127H9.45417H9.44707H9.43999H9.4329H9.42582H9.41875H9.41168H9.40462H9.39756H9.39051H9.38346H9.37642H9.36938H9.36235H9.35533H9.3483H9.34129H9.33428H9.32727H9.32027H9.31328H9.30629H9.2993H9.29233H9.28535H9.27838H9.27142H9.26447H9.25751H9.25057H9.24363H9.23669H9.22976H9.22284H9.21592H9.20901H9.2021H9.1952H9.18831H9.18142H9.17453H9.16765H9.16078H9.15392H9.14705H9.1402H9.13335H9.1265H9.11967H9.11283H9.10601H9.09919H9.09237H9.08556H9.07876H9.07196H9.06517H9.05839H9.05161H9.04484H9.03807H9.03131H9.02455H9.01781H9.01106H9.00433H8.9976H8.99087H8.98415H8.97744H8.97073H8.96404H8.95734H8.95065H8.94397H8.9373H8.93063H8.92397H8.91731H8.91066H8.90402H8.89738H8.89075H8.88413H8.87751H8.8709H8.8643H8.8577H8.85111H8.84452H8.83794H8.83137H8.8248H8.81825H8.81169H8.80515H8.79861H8.79208H8.78555H8.77903H8.77252H8.76601H8.75951H8.75302H8.74653H8.74006H8.73358H8.72712H8.72066H8.71421H8.70776H8.70132H8.69489H8.68847H8.68205H8.67564H8.66924H8.66284H8.65645H8.65007H8.6437H8.63733H8.63097H8.62461H8.61826H8.61192H8.60559H8.59927H8.59295H8.58664H8.58033H8.57403H8.56774H8.56146H8.55519H8.54892H8.54266H8.5364H8.53016H8.52392H8.51769H8.51146H8.50525H8.49904H8.49284H8.48664H8.48045H8.47427H8.4681H8.46194H8.45578H8.44963H8.44349H8.43736H8.43123H8.42511H8.419H8.41289H8.4068H8.40071H8.39463H8.38855H8.38249H8.37643H8.37038H8.36434H8.3583H8.35228H8.34626H8.34025H8.33425H8.32825H8.32226H8.31628H8.31031H8.30435H8.29839H8.29244H8.2865H8.28057H8.27465H8.26873H8.26283H8.25693H8.25103H8.24515H8.23928H8.23341H8.22755H8.2217H8.21586H8.21002H8.2042H8.19838H8.19257H8.18677H8.18097H8.17519H8.16941H8.16365H8.15789H8.15213H8.14639H8.14066H8.13493H8.12921H8.1235H8.1178H8.11211H8.10643H8.10075H8.09508H8.08943H8.08378H8.07813H8.0725H8.06688H8.06126H8.05566H8.05006H8.04447H8.03889H8.03332H8.02775H8.0222H8.01665H8.01112H8.00559H8.00007H7.99456H7.98906H7.98357H7.97808H7.97261H7.96714H7.96169H7.95624H7.9508H7.94537H7.93995H7.93454H7.92913H7.92374H7.91835H7.91298H7.90761H7.90225H7.89691H7.89157H7.88624H7.88092H7.8756H7.8703H7.86501H7.85972H7.85445H7.84919H7.84393H7.83868H7.83344H7.82822H7.823H7.81779H7.81259H7.8074H7.80222H7.79705H7.79188H7.78673H7.78159H7.77645H7.77133H7.76622H7.76111H7.75602H7.75093H7.74585H7.74079H7.73573H7.73068H7.72565H7.72062H7.7156H7.71059H7.70559H7.70061H7.69563H7.69066H7.6857H7.68075H7.67581H7.67088H7.66596H7.66105H7.65615H7.65126H7.64638H7.64151H7.63665H7.6318H7.62696H7.62213H7.61731H7.6125H7.6077H7.60291H7.59813H7.59336H7.5886H7.58385H7.57911H7.57438H7.56967H7.56496H7.56026H7.55557H7.55089H7.54623H7.54157H7.53692H7.53229H7.52766H7.52639C7.84758 8.18919 8.83367 7.41663 9.99935 7.41663Z"
        stroke="currentColor" stroke-width="1.5" />
    <circle cx="3.33268" cy="11.6667" r="0.916667" stroke="currentColor" stroke-width="1.5" />
    <path
        d="M3.33333 14.9166C4.49901 14.9166 5.4851 15.6892 5.80629 16.75H5.80502H5.8004H5.79576H5.79111H5.78646H5.78179H5.77711H5.77242H5.76773H5.76302H5.7583H5.75357H5.74883H5.74408H5.73932H5.73455H5.72977H5.72498H5.72018H5.71537H5.71055H5.70572H5.70088H5.69603H5.69117H5.6863H5.68142H5.67653H5.67163H5.66672H5.6618H5.65687H5.65193H5.64698H5.64202H5.63706H5.63208H5.62709H5.62209H5.61708H5.61206H5.60704H5.602H5.59695H5.59189H5.58683H5.58175H5.57667H5.57157H5.56647H5.56135H5.55623H5.55109H5.54595H5.5408H5.53564H5.53046H5.52528H5.52009H5.51489H5.50968H5.50447H5.49924H5.494H5.48875H5.4835H5.47823H5.47296H5.46767H5.46238H5.45708H5.45177H5.44645H5.44112H5.43578H5.43043H5.42507H5.4197H5.41433H5.40894H5.40355H5.39815H5.39274H5.38731H5.38188H5.37644H5.371H5.36554H5.36007H5.3546H5.34912H5.34362H5.33812H5.33261H5.32709H5.32156H5.31603H5.31048H5.30493H5.29937H5.29379H5.28821H5.28262H5.27703H5.27142H5.2658H5.26018H5.25455H5.24891H5.24326H5.2376H5.23193H5.22626H5.22057H5.21488H5.20918H5.20347H5.19775H5.19203H5.18629H5.18055H5.1748H5.16904H5.16327H5.15749H5.15171H5.14592H5.14011H5.1343H5.12849H5.12266H5.11683H5.11098H5.10513H5.09927H5.09341H5.08753H5.08165H5.07576H5.06986H5.06395H5.05803H5.05211H5.04618H5.04024H5.03429H5.02833H5.02237H5.0164H5.01042H5.00443H4.99844H4.99243H4.98642H4.9804H4.97438H4.96834H4.9623H4.95625H4.95019H4.94413H4.93805H4.93197H4.92589H4.91979H4.91368H4.90757H4.90145H4.89533H4.88919H4.88305H4.8769H4.87074H4.86458H4.85841H4.85223H4.84604H4.83985H4.83364H4.82744H4.82122H4.81499H4.80876H4.80252H4.79628H4.79002H4.78376H4.7775H4.77122H4.76494H4.75865H4.75235H4.74605H4.73974H4.73342H4.72709H4.72076H4.71442H4.70807H4.70172H4.69536H4.68899H4.68261H4.67623H4.66984H4.66344H4.65704H4.65063H4.64421H4.63779H4.63136H4.62492H4.61847H4.61202H4.60556H4.5991H4.59263H4.58615H4.57966H4.57317H4.56667H4.56016H4.55365H4.54713H4.54061H4.53407H4.52754H4.52099H4.51444H4.50788H4.50131H4.49474H4.48816H4.48158H4.47499H4.46839H4.46178H4.45517H4.44855H4.44193H4.4353H4.42866H4.42202H4.41537H4.40871H4.40205H4.39538H4.38871H4.38203H4.37534H4.36865H4.36195H4.35524H4.34853H4.34181H4.33509H4.32836H4.32162H4.31488H4.30813H4.30137H4.29461H4.28785H4.28107H4.27429H4.26751H4.26072H4.25392H4.24712H4.24031H4.23349H4.22667H4.21985H4.21302H4.20618H4.19933H4.19248H4.18563H4.17877H4.1719H4.16503H4.15815H4.15126H4.14437H4.13748H4.13058H4.12367H4.11676H4.10984H4.10292H4.09599H4.08905H4.08211H4.07517H4.06822H4.06126H4.0543H4.04733H4.04036H4.03338H4.02639H4.0194H4.01241H4.00541H3.9984H3.99139H3.98438H3.97736H3.97033H3.9633H3.95626H3.94922H3.94217H3.93512H3.92806H3.921H3.91393H3.90686H3.89978H3.8927H3.88561H3.87851H3.87142H3.86431H3.8572H3.85009H3.84297H3.83585H3.82872H3.82159H3.81445H3.80731H3.80016H3.793H3.78585H3.77868H3.77152H3.76435H3.75717H3.74999H3.7428H3.73561H3.72841H3.72121H3.71401H3.7068H3.69959H3.69237H3.68514H3.67791H3.67068H3.66344H3.6562H3.64896H3.64171H3.63445H3.62719H3.61993H3.61266H3.60539H3.59811H3.59083H3.58354H3.57625H3.56895H3.56166H3.55435H3.54704H3.53973H3.53242H3.5251H3.51777H3.51044H3.50311H3.49577H3.48843H3.48109H3.47374H3.46638H3.45902H3.45166H3.4443H3.43693H3.42955H3.42217H3.41479H3.40741H3.40002H3.39262H3.38523H3.37782H3.37042H3.36301H3.3556H3.34818H3.34076H3.33333H3.32591H3.31849H3.31107H3.30366H3.29625H3.28884H3.28144H3.27404H3.26665H3.25926H3.25187H3.24449H3.23711H3.22974H3.22237H3.215H3.20764H3.20028H3.19293H3.18558H3.17824H3.17089H3.16356H3.15622H3.1489H3.14157H3.13425H3.12693H3.11962H3.11231H3.10501H3.09771H3.09042H3.08313H3.07584H3.06856H3.06128H3.05401H3.04674H3.03948H3.03222H3.02496H3.01771H3.01046H3.00322H2.99598H2.98875H2.98152H2.9743H2.96708H2.95987H2.95266H2.94545H2.93825H2.93106H2.92387H2.91668H2.9095H2.90232H2.89515H2.88798H2.88082H2.87366H2.86651H2.85936H2.85222H2.84508H2.83795H2.83082H2.82369H2.81658H2.80946H2.80235H2.79525H2.78815H2.78106H2.77397H2.76689H2.75981H2.75274H2.74567H2.7386H2.73155H2.72449H2.71745H2.7104H2.70337H2.69634H2.68931H2.68229H2.67527H2.66826H2.66126H2.65426H2.64726H2.64027H2.63329H2.62631H2.61934H2.61237H2.60541H2.59845H2.5915H2.58455H2.57761H2.57068H2.56375H2.55683H2.54991H2.543H2.53609H2.52919H2.52229H2.5154H2.50852H2.50164H2.49477H2.4879H2.48104H2.47418H2.46733H2.46049H2.45365H2.44682H2.43999H2.43317H2.42636H2.41955H2.41275H2.40595H2.39916H2.39237H2.38559H2.37882H2.37205H2.36529H2.35854H2.35179H2.34505H2.33831H2.33158H2.32486H2.31814H2.31142H2.30472H2.29802H2.29133H2.28464H2.27796H2.27128H2.26461H2.25795H2.2513H2.24465H2.238H2.23137H2.22474H2.21811H2.2115H2.20488H2.19828H2.19168H2.18509H2.1785H2.17193H2.16535H2.15879H2.15223H2.14568H2.13913H2.13259H2.12606H2.11953H2.11301H2.1065H2.1H2.0935H2.087H2.08052H2.07404H2.06757H2.0611H2.05464H2.04819H2.04175H2.03531H2.02888H2.02245H2.01604H2.00963H2.00322H1.99683H1.99044H1.98406H1.97768H1.97131H1.96495H1.9586H1.95225H1.94591H1.93958H1.93325H1.92693H1.92062H1.91432H1.90802H1.90173H1.89545H1.88917H1.8829H1.87664H1.87039H1.86414H1.8579H1.85167H1.84545H1.83923H1.83302H1.82682H1.82063H1.81444H1.80826H1.80209H1.79592H1.78977H1.78362H1.77747H1.77134H1.76521H1.75909H1.75298H1.74688H1.74078H1.73469H1.72861H1.72254H1.71647H1.71042H1.70437H1.69832H1.69229H1.68626H1.68024H1.67423H1.66823H1.66223H1.65625H1.65027H1.6443H1.63833H1.63238H1.62643H1.62049H1.61456H1.60863H1.60272H1.59681H1.59091H1.58502H1.57914H1.57326H1.56739H1.56153H1.55568H1.54984H1.54401H1.53818H1.53236H1.52655H1.52075H1.51496H1.50917H1.5034H1.49763H1.49187H1.48612H1.48038H1.47464H1.46891H1.4632H1.45749H1.45179H1.44609H1.44041H1.43473H1.42907H1.42341H1.41776H1.41212H1.40649H1.40086H1.39525H1.38964H1.38404H1.37845H1.37287H1.3673H1.36174H1.35618H1.35064H1.3451H1.33957H1.33406H1.32854H1.32304H1.31755H1.31207H1.30659H1.30113H1.29567H1.29022H1.28478H1.27935H1.27393H1.26852H1.26312H1.25772H1.25234H1.24696H1.2416H1.23624H1.23089H1.22555H1.22022H1.2149H1.20959H1.20429H1.19899H1.19371H1.18843H1.18317H1.17791H1.17267H1.16743H1.1622H1.15698H1.15177H1.14657H1.14138H1.1362H1.13103H1.12587H1.12072H1.11557H1.11044H1.10532H1.1002H1.0951H1.09H1.08492H1.07984H1.07477H1.06972H1.06467H1.05963H1.0546H1.04959H1.04458H1.03958H1.03459H1.02961H1.02464H1.01968H1.01473H1.00979H1.00486H0.999944H0.995034H0.990134H0.985244H0.980364H0.975494H0.970634H0.965784H0.960943H0.956113H0.951293H0.946483H0.941683H0.936894H0.932114H0.927345H0.922585H0.917836H0.913097H0.908368H0.90365H0.898941H0.894243H0.889556H0.884878H0.880211H0.875554H0.870907H0.866271H0.861646H0.860376C1.18157 15.6892 2.16766 14.9166 3.33333 14.9166Z"
        stroke="currentColor" stroke-width="1.5" />
    <circle cx="16.6667" cy="11.6667" r="0.916667" stroke="currentColor" stroke-width="1.5" />
    <path
        d="M16.6673 14.9166C17.833 14.9166 18.8191 15.6892 19.1403 16.75H19.139H19.1344H19.1297H19.1251H19.1204H19.1158H19.1111H19.1064H19.1017H19.097H19.0923H19.0876H19.0828H19.0781H19.0733H19.0685H19.0638H19.059H19.0542H19.0494H19.0445H19.0397H19.0349H19.03H19.0252H19.0203H19.0154H19.0105H19.0056H19.0007H18.9958H18.9909H18.9859H18.981H18.976H18.971H18.9661H18.9611H18.9561H18.9511H18.946H18.941H18.936H18.9309H18.9259H18.9208H18.9157H18.9107H18.9056H18.9005H18.8953H18.8902H18.8851H18.8799H18.8748H18.8696H18.8644H18.8593H18.8541H18.8489H18.8437H18.8384H18.8332H18.828H18.8227H18.8175H18.8122H18.8069H18.8017H18.7964H18.7911H18.7858H18.7804H18.7751H18.7698H18.7644H18.7591H18.7537H18.7483H18.7429H18.7375H18.7321H18.7267H18.7213H18.7159H18.7104H18.705H18.6995H18.6941H18.6886H18.6831H18.6776H18.6721H18.6666H18.6611H18.6555H18.65H18.6445H18.6389H18.6333H18.6278H18.6222H18.6166H18.611H18.6054H18.5998H18.5942H18.5885H18.5829H18.5772H18.5716H18.5659H18.5602H18.5546H18.5489H18.5432H18.5375H18.5317H18.526H18.5203H18.5145H18.5088H18.503H18.4973H18.4915H18.4857H18.4799H18.4741H18.4683H18.4625H18.4566H18.4508H18.445H18.4391H18.4333H18.4274H18.4215H18.4156H18.4097H18.4038H18.3979H18.392H18.3861H18.3802H18.3742H18.3683H18.3623H18.3564H18.3504H18.3444H18.3384H18.3324H18.3264H18.3204H18.3144H18.3084H18.3023H18.2963H18.2902H18.2842H18.2781H18.272H18.266H18.2599H18.2538H18.2477H18.2416H18.2354H18.2293H18.2232H18.217H18.2109H18.2047H18.1986H18.1924H18.1862H18.18H18.1738H18.1676H18.1614H18.1552H18.149H18.1427H18.1365H18.1303H18.124H18.1177H18.1115H18.1052H18.0989H18.0926H18.0863H18.08H18.0737H18.0674H18.0611H18.0547H18.0484H18.0421H18.0357H18.0293H18.023H18.0166H18.0102H18.0038H17.9974H17.991H17.9846H17.9782H17.9718H17.9653H17.9589H17.9525H17.946H17.9395H17.9331H17.9266H17.9201H17.9136H17.9072H17.9007H17.8941H17.8876H17.8811H17.8746H17.8681H17.8615H17.855H17.8484H17.8419H17.8353H17.8287H17.8221H17.8156H17.809H17.8024H17.7958H17.7892H17.7825H17.7759H17.7693H17.7626H17.756H17.7494H17.7427H17.736H17.7294H17.7227H17.716H17.7093H17.7026H17.6959H17.6892H17.6825H17.6758H17.6691H17.6623H17.6556H17.6489H17.6421H17.6354H17.6286H17.6218H17.6151H17.6083H17.6015H17.5947H17.5879H17.5811H17.5743H17.5675H17.5607H17.5538H17.547H17.5402H17.5333H17.5265H17.5196H17.5128H17.5059H17.499H17.4921H17.4852H17.4784H17.4715H17.4646H17.4577H17.4507H17.4438H17.4369H17.43H17.423H17.4161H17.4092H17.4022H17.3952H17.3883H17.3813H17.3743H17.3674H17.3604H17.3534H17.3464H17.3394H17.3324H17.3254H17.3184H17.3113H17.3043H17.2973H17.2902H17.2832H17.2762H17.2691H17.262H17.255H17.2479H17.2408H17.2338H17.2267H17.2196H17.2125H17.2054H17.1983H17.1912H17.1841H17.177H17.1698H17.1627H17.1556H17.1484H17.1413H17.1341H17.127H17.1198H17.1127H17.1055H17.0983H17.0912H17.084H17.0768H17.0696H17.0624H17.0552H17.048H17.0408H17.0336H17.0264H17.0191H17.0119H17.0047H16.9974H16.9902H16.9829H16.9757H16.9684H16.9612H16.9539H16.9466H16.9394H16.9321H16.9248H16.9175H16.9102H16.9029H16.8956H16.8883H16.881H16.8737H16.8664H16.8591H16.8518H16.8444H16.8371H16.8298H16.8224H16.8151H16.8077H16.8004H16.793H16.7856H16.7783H16.7709H16.7635H16.7562H16.7488H16.7414H16.734H16.7266H16.7192H16.7118H16.7044H16.697H16.6896H16.6822H16.6747H16.6673H16.6599H16.6525H16.6451H16.6376H16.6302H16.6228H16.6154H16.608H16.6006H16.5932H16.5859H16.5785H16.5711H16.5637H16.5564H16.549H16.5416H16.5343H16.5269H16.5196H16.5122H16.5049H16.4975H16.4902H16.4829H16.4756H16.4682H16.4609H16.4536H16.4463H16.439H16.4317H16.4244H16.4171H16.4098H16.4025H16.3953H16.388H16.3807H16.3735H16.3662H16.3589H16.3517H16.3444H16.3372H16.33H16.3227H16.3155H16.3083H16.3011H16.2939H16.2866H16.2794H16.2722H16.265H16.2578H16.2507H16.2435H16.2363H16.2291H16.222H16.2148H16.2076H16.2005H16.1933H16.1862H16.1791H16.1719H16.1648H16.1577H16.1506H16.1434H16.1363H16.1292H16.1221H16.115H16.108H16.1009H16.0938H16.0867H16.0797H16.0726H16.0655H16.0585H16.0514H16.0444H16.0374H16.0303H16.0233H16.0163H16.0093H16.0022H15.9952H15.9882H15.9812H15.9743H15.9673H15.9603H15.9533H15.9464H15.9394H15.9324H15.9255H15.9185H15.9116H15.9047H15.8977H15.8908H15.8839H15.877H15.8701H15.8632H15.8563H15.8494H15.8425H15.8356H15.8288H15.8219H15.815H15.8082H15.8013H15.7945H15.7876H15.7808H15.774H15.7672H15.7603H15.7535H15.7467H15.7399H15.7331H15.7264H15.7196H15.7128H15.706H15.6993H15.6925H15.6858H15.679H15.6723H15.6656H15.6588H15.6521H15.6454H15.6387H15.632H15.6253H15.6186H15.6119H15.6053H15.5986H15.5919H15.5853H15.5786H15.572H15.5654H15.5587H15.5521H15.5455H15.5389H15.5323H15.5257H15.5191H15.5125H15.5059H15.4993H15.4928H15.4862H15.4797H15.4731H15.4666H15.46H15.4535H15.447H15.4405H15.434H15.4275H15.421H15.4145H15.408H15.4016H15.3951H15.3886H15.3822H15.3757H15.3693H15.3629H15.3564H15.35H15.3436H15.3372H15.3308H15.3244H15.318H15.3117H15.3053H15.2989H15.2926H15.2862H15.2799H15.2736H15.2672H15.2609H15.2546H15.2483H15.242H15.2357H15.2294H15.2232H15.2169H15.2106H15.2044H15.1981H15.1919H15.1857H15.1794H15.1732H15.167H15.1608H15.1546H15.1484H15.1422H15.1361H15.1299H15.1237H15.1176H15.1115H15.1053H15.0992H15.0931H15.087H15.0809H15.0748H15.0687H15.0626H15.0565H15.0505H15.0444H15.0384H15.0323H15.0263H15.0202H15.0142H15.0082H15.0022H14.9962H14.9902H14.9843H14.9783H14.9723H14.9664H14.9604H14.9545H14.9485H14.9426H14.9367H14.9308H14.9249H14.919H14.9131H14.9072H14.9014H14.8955H14.8897H14.8838H14.878H14.8722H14.8663H14.8605H14.8547H14.8489H14.8432H14.8374H14.8316H14.8259H14.8201H14.8144H14.8086H14.8029H14.7972H14.7915H14.7858H14.7801H14.7744H14.7687H14.7631H14.7574H14.7517H14.7461H14.7405H14.7348H14.7292H14.7236H14.718H14.7124H14.7069H14.7013H14.6957H14.6902H14.6846H14.6791H14.6736H14.668H14.6625H14.657H14.6515H14.6461H14.6406H14.6351H14.6297H14.6242H14.6188H14.6133H14.6079H14.6025H14.5971H14.5917H14.5863H14.5809H14.5756H14.5702H14.5649H14.5595H14.5542H14.5489H14.5436H14.5383H14.533H14.5277H14.5224H14.5172H14.5119H14.5067H14.5014H14.4962H14.491H14.4858H14.4806H14.4754H14.4702H14.465H14.4599H14.4547H14.4496H14.4444H14.4393H14.4342H14.4291H14.424H14.4189H14.4138H14.4088H14.4037H14.3987H14.3936H14.3886H14.3836H14.3786H14.3736H14.3686H14.3636H14.3586H14.3537H14.3487H14.3438H14.3388H14.3339H14.329H14.3241H14.3192H14.3143H14.3095H14.3046H14.2998H14.2949H14.2901H14.2853H14.2805H14.2757H14.2709H14.2661H14.2613H14.2566H14.2518H14.2471H14.2424H14.2376H14.2329H14.2282H14.2235H14.2189H14.2142H14.2095H14.2049H14.2003H14.1956H14.1944C14.5156 15.6892 15.5016 14.9166 16.6673 14.9166Z"
        stroke="currentColor" stroke-width="1.5" />
    <path fill-rule="evenodd" clip-rule="evenodd"
        d="M10.7494 11.3062L12.5512 12.7477C12.8747 13.0064 12.9271 13.4784 12.6684 13.8019C12.4096 14.1253 11.9376 14.1777 11.6142 13.919L9.99938 12.6271L8.38456 13.919C8.06112 14.1777 7.58915 14.1253 7.33039 13.8019C7.07163 13.4784 7.12408 13.0064 7.44752 12.7477L9.24938 11.3062V10H10.7494V11.3062Z"
        fill="currentColor" />
</svg>