<svg  viewBox="0 0 48 48" fill="none" xmlns="http://www.w3.org/2000/svg">
<rect opacity="0.5" rx="4" fill="currentColor"/>
<path d="M19.9993 30.6667H27.9993M19.9993 26.6667H27.9993M33.3322 20H27.4655C26.7188 20 26.3458 20 26.0605 19.8547C25.8097 19.7268 25.6058 19.5229 25.478 19.272C25.3327 18.9868 25.3327 18.6134 25.3327 17.8667V12M33.3327 31.7333V20.872C33.3327 20.254 33.3329 19.945 33.2663 19.6524C33.2071 19.393 33.1098 19.1438 32.9769 18.9133C32.8271 18.6534 32.617 18.4266 32.1971 17.9731L27.9329 13.3678C27.4663 12.8638 27.2327 12.6118 26.9551 12.4312C26.709 12.2712 26.4375 12.1529 26.1529 12.081C25.8317 12 25.489 12 24.8021 12H18.9329C17.4395 12 16.6922 12 16.1217 12.2906C15.62 12.5463 15.2123 12.9543 14.9567 13.4561C14.666 14.0265 14.666 14.7732 14.666 16.2667V31.7333C14.666 33.2268 14.666 33.9735 14.9567 34.544C15.2123 35.0457 15.62 35.4536 16.1217 35.7093C16.6922 36 17.4395 36 18.9329 36H29.0663C30.5598 36 31.306 36 31.8764 35.7093C32.3782 35.4536 32.7867 35.0457 33.0423 34.544C33.333 33.9735 33.3327 33.2268 33.3327 31.7333Z" stroke="currentColor" stroke-width="1.5" stroke-linecap="round" stroke-linejoin="round"/>
</svg>
