<svg  viewBox="0 0 49 48" fill="none" xmlns="http://www.w3.org/2000/svg">
<rect x="0.666016" rx="4" fill="currentColor"/>
<path d="M34.3322 20H28.4655C27.7188 20 27.3458 20 27.0605 19.8547C26.8097 19.7268 26.6058 19.5229 26.478 19.272C26.3327 18.9868 26.3327 18.6134 26.3327 17.8667V12M34.3327 31.7333V20.872C34.3327 20.254 34.3329 19.945 34.2663 19.6524C34.2071 19.393 34.1098 19.1438 33.9769 18.9133C33.8271 18.6534 33.617 18.4266 33.1971 17.9731L28.9329 13.3678C28.4663 12.8638 28.2327 12.6118 27.9551 12.4312C27.709 12.2712 27.4375 12.1529 27.1529 12.081C26.8317 12 26.489 12 25.8021 12H19.9329C18.4395 12 17.6922 12 17.1217 12.2906C16.62 12.5463 16.2123 12.9543 15.9567 13.4561C15.666 14.0265 15.666 14.7732 15.666 16.2667V31.7333C15.666 33.2268 15.666 33.9735 15.9567 34.544C16.2123 35.0457 16.62 35.4536 17.1217 35.7093C17.6922 36 18.4395 36 19.9329 36H30.0663C31.5598 36 32.306 36 32.8764 35.7093C33.3782 35.4536 33.7867 35.0457 34.0423 34.544C34.333 33.9735 34.3327 33.2268 34.3327 31.7333Z" stroke="currentColor" stroke-width="1.5" stroke-linecap="round" stroke-linejoin="round"/>
<path fill-rule="evenodd" clip-rule="evenodd" d="M30 28C30 30.7614 27.7614 33 25 33C22.2386 33 20 30.7614 20 28C20 25.2386 22.2386 23 25 23C27.7614 23 30 25.2386 30 28ZM22.4697 25.4696C22.7626 25.1768 23.2375 25.1768 23.5304 25.4697L24.9999 26.9395L26.4697 25.47C26.7626 25.1771 27.2375 25.1772 27.5304 25.4701C27.8232 25.763 27.8232 26.2379 27.5303 26.5307L26.0605 28.0003L27.5297 29.4697C27.8226 29.7626 27.8225 30.2375 27.5296 30.5304C27.2367 30.8232 26.7618 30.8232 26.469 30.5303L24.9998 29.0608L23.5303 30.5301C23.2374 30.8229 22.7625 30.8229 22.4696 30.53C22.1768 30.2371 22.1768 29.7622 22.4697 29.4693L23.9392 28.0001L22.4696 26.5303C22.1768 26.2374 22.1768 25.7625 22.4697 25.4696Z" fill="currentColor"/>
</svg>
