<svg viewBox="0 0 21 20" fill="none" xmlns="http://www.w3.org/2000/svg">
<path fill-rule="evenodd" clip-rule="evenodd" d="M4.33203 5.25C4.33203 4.00736 5.33939 3 6.58203 3C7.5617 3 8.39512 3.62611 8.704 4.5H11.9601C12.2689 3.62611 13.1024 3 14.082 3C15.3247 3 16.332 4.00736 16.332 5.25C16.332 6.49264 15.3247 7.5 14.082 7.5C13.1024 7.5 12.2689 6.87389 11.9601 6H9.08203V11.25C9.08203 11.9404 9.64168 12.5 10.332 12.5H10.582C10.9962 12.5 11.332 12.8358 11.332 13.25C11.332 13.6642 10.9962 14 10.582 14H10.332C8.81325 14 7.58203 12.7688 7.58203 11.25V7.26612C7.28079 7.41582 6.94124 7.5 6.58203 7.5C5.33939 7.5 4.33203 6.49264 4.33203 5.25ZM6.58203 4.5C6.16782 4.5 5.83203 4.83579 5.83203 5.25C5.83203 5.66421 6.16782 6 6.58203 6C6.99624 6 7.33203 5.66421 7.33203 5.25C7.33203 4.83579 6.99624 4.5 6.58203 4.5ZM14.082 4.5C13.6678 4.5 13.332 4.83579 13.332 5.25C13.332 5.66421 13.6678 6 14.082 6C14.4962 6 14.832 5.66421 14.832 5.25C14.832 4.83579 14.4962 4.5 14.082 4.5Z" fill="currentColor"/>
<path d="M15.332 8.75C14.3655 8.75 13.582 9.5335 13.582 10.5V12.5H13.082C12.6678 12.5 12.332 12.8358 12.332 13.25C12.332 13.6642 12.6678 14 13.082 14H13.582V15.5H13.082C12.6678 15.5 12.332 15.8358 12.332 16.25C12.332 16.6642 12.6678 17 13.082 17H16.582C16.9962 17 17.332 16.6642 17.332 16.25C17.332 15.8358 16.9962 15.5 16.582 15.5H15.082V14H15.582C15.9962 14 16.332 13.6642 16.332 13.25C16.332 12.8358 15.9962 12.5 15.582 12.5H15.082V10.5C15.082 10.3619 15.194 10.25 15.332 10.25H15.832V11.25C15.832 11.6642 16.1678 12 16.582 12C16.9962 12 17.332 11.6642 17.332 11.25V10C17.332 9.30964 16.7724 8.75 16.082 8.75H15.332Z" fill="currentColor"/>
</svg>
