<svg width="42" height="20" viewBox="0 0 42 20" fill="none" xmlns="http://www.w3.org/2000/svg">
<path d="M6.9282 5.73205C6.9282 4.96225 7.76154 4.48113 8.4282 4.86603L19.2846 11.134C19.9513 11.5189 19.9513 12.4811 19.2846 12.866L8.4282 19.134C7.76154 19.5189 6.9282 19.0378 6.9282 18.268L6.9282 5.73205Z" fill="#06A77D" fill-opacity="0.3"/>
<path d="M17.3735 5.73205C17.3735 4.96225 18.2068 4.48113 18.8735 4.86603L29.7299 11.134C30.3966 11.5189 30.3966 12.4811 29.7299 12.866L18.8735 19.134C18.2068 19.5189 17.3735 19.0378 17.3735 18.268L17.3735 5.73205Z" fill="#06A77D" fill-opacity="0.6"/>
<path d="M27.3813 5.73205C27.3813 4.96225 28.2147 4.48113 28.8813 4.86603L39.7377 11.134C40.4044 11.5189 40.4044 12.4811 39.7377 12.866L28.8813 19.134C28.2147 19.5189 27.3813 19.0378 27.3813 18.268L27.3813 5.73205Z" fill="#06A77D" fill-opacity="0.9"/>
</svg>
