<svg width="510" height="300" viewBox="0 0 510 389" fill="none" xmlns="http://www.w3.org/2000/svg">
    <path
        d="M39.374 200.151S-55.772 84.595 50.7 55.139c106.472-29.455 143.851 90.632 216.343 94.031 72.492 3.399 157.443-45.316 180.097-45.316 22.654 0 63.431 2.266 61.165 41.917-2.265 39.652-31.715 75.905-32.848 95.164-1.132 19.26 26.052 71.373 30.583 83.835 4.531 12.462 10.194 47.582-14.725 49.848-12.754 1.133-85.518 15.294-184.062-13.595-74.57-21.859-191.288 15.86-218.5 15.86a42.409 42.409 0 01-24.608-7.794c-19.992-14.223-51.804-49.95-23.64-123.622 14.725-38.519-1.132-45.316-1.132-45.316z"
        fill="#F4FFFF" />
    <path
        d="M94.413 136.51c15.952 0 28.884-12.934 28.884-28.889s-12.932-28.89-28.883-28.89c-15.952 0-28.884 12.935-28.884 28.89s12.932 28.889 28.883 28.889z"
        fill="#fff" />
    <path
        d="M59.3 131.978c10.635 0 19.256-8.623 19.256-19.259 0-10.637-8.621-19.26-19.256-19.26-10.634 0-19.255 8.623-19.255 19.26 0 10.636 8.62 19.259 19.255 19.259zM124.996 131.978c10.322 0 18.689-8.369 18.689-18.693 0-10.324-8.367-18.693-18.689-18.693s-18.689 8.369-18.689 18.693c0 10.324 8.367 18.693 18.689 18.693zM406.511 165.385c10.634 0 19.255-8.623 19.255-19.259 0-10.637-8.621-19.26-19.255-19.26-10.635 0-19.256 8.623-19.256 19.26 0 10.636 8.621 19.259 19.256 19.259z"
        fill="#fff" />
    <path
        d="M429.164 163.119c7.507 0 13.592-6.087 13.592-13.595 0-7.508-6.085-13.595-13.592-13.595-7.507 0-13.592 6.087-13.592 13.595 0 7.508 6.085 13.595 13.592 13.595z"
        fill="#fff" />
    <path
        d="M144.553 172.369s13.025-16.427 26.618 1.7c0 0 13.026-19.26 20.954-2.833m-79.288-13.679s9.356-11.811 19.114 1.217c0 0 9.356-13.832 15.048-2.033m267.699-90.383s9.356-11.8 19.114 1.218c0 0 9.356-13.833 15.048-2.034M52.239 8.58s9.356-11.81 19.114 1.218c0 0 9.356-13.833 15.047-2.034"
        stroke="#B3FDFF" stroke-width="5" stroke-linecap="round" stroke-linejoin="round" />
    <path d="M217.076 264.805h-7.13v109.027h7.13V264.805z" fill="#306C72" />
    <path opacity=".14" d="M213.511 264.805h-3.565v109.027h3.565V264.805z" fill="#2F2C2D" />
    <path
        d="M203.816 277.819l-25.02-33.036c-3.588-4.736-3.588-12.414 0-17.149l25.02-33.037c1.794-2.371 4.143-3.55 6.492-3.55.246 0 3.465.016 3.711.039 2.095.223 1.178 1.394 2.788 3.511l25.02 33.037c3.588 4.735 3.588 12.413 0 17.149l-25.02 33.036c-1.71 2.256-.547 3.435-2.788 3.542l-3.711.008c-2.349 0-4.706-1.186-6.492-3.55z"
        fill="#DB9C0F" />
    <path
        d="M208.875 277.819l-25.019-33.036c-3.589-4.736-3.589-12.414 0-17.15l25.019-33.036c3.589-4.736 9.403-4.736 12.991 0l25.02 33.036c3.589 4.736 3.589 12.414 0 17.15l-25.02 33.036c-3.588 4.736-9.402 4.736-12.991 0z"
        fill="#F9BB0B" />
    <path
        d="M208.875 271.081l-19.914-26.29c-3.588-4.736-3.588-12.413 0-17.149l19.914-26.291c3.589-4.736 9.403-4.736 12.991 0l19.914 26.291c3.589 4.736 3.589 12.413 0 17.149l-19.914 26.29c-3.588 4.736-9.402 4.736-12.991 0z"
        stroke="#06383D" stroke-width="1.87" stroke-linecap="round" stroke-linejoin="round" />
    <path
        d="M215.367 257.643c2.356 0 4.266-2.524 4.266-5.637 0-3.113-1.91-5.637-4.266-5.637s-4.266 2.524-4.266 5.637c0 3.113 1.91 5.637 4.266 5.637zM214.166 241.803l-3.204-25.143c-.123-.986.447-1.879 1.209-1.879h6.399c.755 0 1.333.901 1.209 1.879l-3.203 25.143c-.231 1.794-2.187 1.794-2.41 0z"
        fill="#06383D" />
    <path
        d="M332.741 371.922s5.768 4.282 1.648 8.394c-3.211 3.211-11.751 1.402-14.777 1.178-6.215-.462-11.444-1.717-11.444-1.717l18.428-8.402 6.145.54v.007z"
        fill="#094F5E" />
    <path
        d="M291.204 345.486c-33.09 10.611-49.816 6.976-49.816 6.976s-3.427 10.674-1.078 15.941c5.467 12.252 17.157 15.178 46.735 13.545 32.351-1.794 50.933-10.064 58.418-20.684 2.033-2.88 1.394-15.902-12.706-15.902s-35.778.347-41.546.116l-.007.008z"
        fill="#434159" />
    <path opacity=".03"
        d="M345.463 361.272c-7.485 10.619-26.067 18.89-58.418 20.684-29.578 1.641-41.268-1.286-46.735-13.545-2.349-5.268 1.078-15.941 1.078-15.941l9.656 1.017s-2.733 12.244 11.79 17.388c30.118 10.665 82.629-9.603 82.629-9.603z"
        fill="#141313" />
    <path
        d="M285.551 251.837c3.527 5.075 7.154 24.027 4.167 35.655 0 0-9.026-12.683-14.693-14.385-9.28-2.788-17.912 12.49-19.737 20.399l-1.826 7.909s-16.933-11.713-3.688-35.347c5.198-9.279 6.853-24.265 6.853-24.265l18.39 3.712s4.713-2.048 10.527 6.322h.007z"
        fill="#06383D" />
    <path
        d="M340.442 341.658c.37.154 2.464-.061 4.158.224.778.13 2.673.469.362-1.248-.716-.531-1.671-.254-2.718-.685a8.216 8.216 0 012.718.685c.64.293 1.048 1.047 1.725.685.701-.369.362-1.609-2.148-3.026-.801-.454-1.841-.847-2.973-1.147.963.077 1.887.277 2.734.662.639.293 1.047 1.047 1.725.685.701-.369.362-1.609-2.148-3.026-4.521-2.549-8.702-2.303-13.862-1.787 0 0-5.798.886-3.665 3.943 1.625 2.326 2.225 2.549 4.512 3.327 3.312 1.124 9.896.901 9.572.716l.008-.008z"
        fill="#E5A46E" />
    <path
        d="M280.7 274.816s15.779 19.583 15.093 20.923c-.685 1.348-9.872 7.585-14.754 8.255 0 0-4.682-21.523-4.436-26.952.247-5.429 4.105-2.234 4.105-2.234l-.008.008z"
        fill="#4CC3C7" />
    <path
        d="M293.36 297.887l12.067 21.555a9.161 9.161 0 003.296 2.687l24.049 12.737 2.411 6.138-33.76-11.105a9.233 9.233 0 01-3.658-2.711l-16.734-23.186 12.329-6.107v-.008z"
        fill="#E5A46E" />
    <path opacity=".08"
        d="M281.17 345.139s-30.88 5.814-39.428 4.728l-.647 3.905s16.58 2.941 37.133-3.489c8.278-2.595 12.976-4.79 12.976-4.79l-10.034-.346v-.008z"
        fill="#141313" />
    <path
        d="M250.59 281.416c-10.719 23.41-9.449 71.478-9.449 71.478 18.074 3.704 46.058-5.406 50.063-7.408 1.856-25.659-3.489-61.844-8.671-71.586-1.648-3.096-6.261-5.098-8.641-7.677-5.49-5.961-16.787.97-23.302 15.185v.008z"
        fill="#4CC3C7" />
    <path d="M292.967 263.111s34.392-38.927 3.989-56.893c-18.651-11.02-9.456 17.904-9.456 17.904l5.459 38.989h.008z"
        fill="#06383D" />
    <path
        d="M307.329 224.854s2.695-20.977-27.815-23.518c-9.187-1.479-22.047 1.848-29.247 13.36-8.171 13.053-5.722 60.351 39.389 44.28 8.617-3.073 17.673-34.122 17.673-34.122z"
        fill="#06383D" />
    <path
        d="M266.723 239.108c10.319 11.559 35.678-1.217 38.049-5.083.663-1.078.678 2.534-.454 11.028-.246 1.863.462 4.543-.031 6.8-.754 3.496-2.21 6.838-4.482 9.61-5.298 6.453-11.52 6.438-15.802 6.584-1.647.062-1.894 2.834-2.24 4.983-10.188.993-16.495-8.132-16.495-8.132s1.717-2.072 2.464-3.835c-3.473-5.73-4.675-9.803-4.659-15.825.023-8.625 3.642-6.138 3.642-6.138l.008.008z"
        fill="#F8BA7E" />
    <path
        d="M298.003 260.27c1.687.03 2.857-1.725 2.811-2.696-.038-.747-2.649 1.81-6.469-1.709-.631 2.71 1.117 4.358 3.658 4.405z"
        fill="#fff" />
    <path opacity=".46"
        d="M284.573 248.087c-.277 1.625 1.348 3.257 3.627 3.642 2.272.385 4.344-.623 4.613-2.256.277-1.625-1.348-3.257-3.627-3.642-2.272-.385-4.343.631-4.613 2.256z"
        fill="#EA9D5E" />
    <path
        d="M294.8 242.519c-.624-.161-1.309.416-1.533 1.286-.223.871.101 1.702.724 1.864.624.162 1.309-.416 1.533-1.286.223-.87-.1-1.702-.724-1.864z"
        fill="#2F2C2D" />
    <path opacity=".08"
        d="M284.011 268.055c-1.74.046-13.361-3.558-15.617-6.615 0 0 3.573 4.667 13.908 8.609.184-.608.485-1.817 1.709-1.994z"
        fill="#141313" />
    <path
        d="M290.534 242.75c-.886 3.258.331 6.423 2.71 7.069 2.38.647 5.021-1.47 5.907-4.736.885-3.257-.331-6.422-2.711-7.069-2.379-.647-5.021 1.471-5.906 4.736z"
        stroke="#4CC3C7" stroke-width="1.62" stroke-miterlimit="10" />
    <path
        d="M302.308 245.261c-.885 3.257-.223 6.268 1.471 6.73 1.694.463 3.781-1.809 4.667-5.067.885-3.257.223-6.268-1.471-6.73-1.694-.462-3.781 1.81-4.667 5.067z"
        stroke="#4CC3C7" stroke-width="1.37" stroke-miterlimit="10" />
    <path
        d="M301.862 244.398c.6 2.649 1.147 4.69 2.279 7.008.285.577.269 1.255-.331 1.501-1.841.77-4.089-.508-4.089-.739"
        fill="#F8BA7E" />
    <path
        d="M301.862 244.398c.6 2.649 1.147 4.69 2.279 7.008.285.577.269 1.255-.331 1.501-1.841.77-4.089-.508-4.089-.739"
        stroke="#EA9D5E" stroke-width="1.62" stroke-linecap="round" stroke-linejoin="round" />
    <path d="M302.762 243.536s-1.078-.893-3.034.377" stroke="#4CC3C7" stroke-width="1.62" stroke-linecap="round"
        stroke-linejoin="round" />
    <path opacity=".08" d="M285.551 282.44s3.235 13.576 3.512 17.573l.993-.493s-2.972-14.246-4.505-17.08z"
        fill="#141313" />
    <path
        d="M341.166 342.983c.37.154 2.464-.062 4.158.223.778.131 2.673.47.362-1.247-.716-.532-1.671-.254-2.718-.686a8.218 8.218 0 012.718.686c.64.292 1.048 1.047 1.725.685.701-.369.362-1.609-2.148-3.026-.801-.455-1.841-.847-2.973-1.148.963.077 1.887.278 2.734.663.639.292 1.047 1.047 1.725.685.701-.37.362-1.609-2.148-3.026-4.521-2.549-9.434-2.295-13.862-1.787 0 0-5.798.886-3.665 3.943 1.625 2.325 2.225 2.549 4.512 3.327 3.312 1.124 9.896.9 9.572.716l.008-.008z"
        fill="#F8BA7E" />
    <path opacity=".08"
        d="M285.243 298.442s-4.443-17.765-15.078-21.215c-3.889-1.263-8.555-.378-10.249 2.379 0 0-3.735 2.179-.624 15.725 2.079 9.033 2.88 10.119 2.88 10.119s2.957.608 6.23.608c3.273 0 15.24-4.836 16.841-7.608v-.008z"
        fill="#141313" />
    <path d="M263.235 305.442s8.671-8.201 20.876-6.353c0 0-10.596 9.819-20.876 6.353z" fill="#3C9497" />
    <path
        d="M276.634 292.028l16.272 31.611 38.896 11.243 3.488 7.116-44.779-7.401c-6.4-1.409-7.717-4.328-10.797-9.141l-15.833-30.248c-3.288-6.861 2.211-8.517 2.272-8.54 4.159-1.571 8.987 1.178 10.481 5.36z"
        fill="#F8BA7E" />
    <path
        d="M258.668 289.902l4.567 15.54s8.956-7.247 20.876-6.353c0 0-4.435-18.413-14.115-22.879-3.712-1.71-9.079-.054-10.766 2.703-2.171 3.55-1.109 8.517-.562 10.989z"
        fill="#4CC3C7" />
    <path
        d="M311.041 233.856c-.224-2.01-2.418-3.442-2.418-3.442s-.077 5.105-1.902 10.103c-.193.531 4.974-.755 4.32-6.661zM243.244 242.774c-.532 1.956 5.721 2.487 6.853 2.472-2.464-3.165-.616-7.239-.616-7.239s-5.367 1.54-6.237 4.767z"
        fill="#381E12" />
    <path
        d="M243.005 241.865s.323-1.833.246-3.758c-.4-10.15-2.302-40.837 35.886-41.153 24.095-.192 31.01 23.78 31.111 33.167.03 2.572.793 3.735.793 3.735s-27.269-12.329-68.036 8.001v.008z"
        fill="#FFD151" />
    <path opacity=".07"
        d="M260.616 200.419s8.286-1.262 16.303 1.795c5.39 2.056 13.707 7.754 14.916 25.72l1.494-.077s.1-10.496-5.113-18.32c-5.337-8.009-11.782-10.226-15.024-10.465-7.254-.539-12.576 1.34-12.576 1.34v.007z"
        fill="#343031" />
    <path
        d="M259.438 201.005s12.799-3.373 20.815.677c5.152 2.603 12.137 10.843 13.346 28.816l17.088.293s-1.448-23.356-14.57-31.804c0 0-16.564-10.681-36.679 2.018z"
        fill="#FFD151" />
    <path opacity=".07"
        d="M242.889 242.797s15.594-7.924 25.544-9.672c9.949-1.748 21.392-3.589 25.527-3.296 4.136.292 13.947 2.01 15.517 3.018l1.564 1.009s-.1-2.271-.355-4.289c-1.355-1.047-1.701-1.332-8.955-1.91-8.117-.647-38.65.277-58.449 12.306 0 0 .154 2.048-.393 2.834z"
        fill="#343031" />
    <path
        d="M246.154 246.185c-1.832-.74-2.81-1.248-3.165-2.726-.154-.663-.385-2.126 1.433-3.312 8.193-5.321 16.094-7.662 33.891-10.735 13.23-2.287 28.069-2.702 34.915 1.017 2.31 1.255 2.818 3.042 2.764 3.881-.169 2.718-4.173 5.029-7.439 6.33l-2.202.809 1.163-2.911c1.833-.716 3.196-1.979 3.25-3.011.038-.77-.786-1.34-1.479-1.687-10.758-5.382-60.451 7.047-60.666 10.419.315.917.693 2.218 1.055 2.804 0 0-2.164-.278-3.52-.871v-.007z"
        fill="#FFD151" />
    <path d="M308.453 246.924c.886-3.257.224-6.268-1.471-6.73l-.5-.054" stroke="#4CC3C7" stroke-width="1.62"
        stroke-miterlimit="10" />
    <path
        d="M272.876 265.267c3.527 5.075 11.135 10.604 8.155 22.232 0 0-7.115-13.568-15.632-12.86-10.643.886-16.973 10.974-18.798 18.874l-1.825 7.909s-16.934-11.713-3.689-35.346c5.198-9.28 7.524-21.824 7.524-21.824l17.719 1.271s.724 11.381 6.538 19.744h.008z"
        fill="#06383D" />
    <path
        d="M265.791 247.748c2.495-.061 2.288-9.094-.208-9.033-2.495.062-4.474 2.126-4.412 4.621.062 2.495 2.125 4.474 4.62 4.412z"
        fill="#F8BA7E" />
    <path
        d="M297.788 343.129h51.579l14.793-47.444 2.719.77c.285.085.061 1.178-.023 1.463l-14.87 47.737a1.437 1.437 0 01-1.371 1.009h-52.327c-.292 0-.862 0-1.039-.539v-2.464c0-.478.238-.539.539-.539v.007z"
        fill="#06383D" />
    <path
        d="M297.788 343.129h54.244l14.439-46.327a.534.534 0 01.67-.354l1.224.385a.533.533 0 01.354.669l-15.008 48.145a1.437 1.437 0 01-1.371 1.009h-54.544a.54.54 0 01-.539-.539v-2.464a.54.54 0 01.539-.539l-.008.015z"
        fill="#094F5E" />
    <path
        d="M235.674 314.952c-.801-3.126-3.635-5.306-6.908-5.306h-.146c-3.204 0-6.107 2.18-6.908 5.306l-2.556 9.672h19.082l-2.556-9.672h-.008zM204.832 378.737c-.215.362-.292.655-.292 1.017 0 3.996 10.835 7.269 24.149 7.269 13.315 0 24.15-3.273 24.15-7.269 0-.362-.147-.655-.293-1.017l-3.558-13.461h-40.59l-3.558 13.461h-.008zM215.344 339.017l-3.142 11.867h32.982l-3.142-11.867h-26.698z"
        fill="#F9BB0B" />
    <path
        d="M208.398 365.276h40.59l-3.804-14.392h-32.982l-3.804 14.392zM238.23 324.625h-19.082l-3.804 14.392h26.698l-3.812-14.392z"
        fill="#fff" />
    <path d="M266.146 379.662h-74.913v8.932h74.913v-8.932z" fill="#EAAB0C" />
</svg>