<svg viewBox="0 0 24 24">
    <path
        d="M18.397 10.706c-.267 0-.53.026-.789.077C17.49 7.574 14.87 5 11.666 5 8.72 5 6.227 7.203 5.79 10.1c-2.375.058-4.29 2.029-4.29 4.443 0 2.452 1.973 4.446 4.399 4.446h3.68a.506.506 0 00.504-.51.506.506 0 00-.504-.508h-3.68c-1.87 0-3.391-1.538-3.391-3.428s1.521-3.427 3.39-3.427c.093 0 .19.005.298.014l.51.045.036-.517c.179-2.602 2.342-4.64 4.924-4.64 2.723 0 4.939 2.24 4.939 4.991 0 .127-.006.262-.019.414l-.066.812.752-.296c.36-.142.738-.214 1.125-.214 1.707 0 3.095 1.403 3.095 3.128s-1.388 3.129-3.095 3.129l-2.719-.006-2.687-.005c-.313 0-.477-.153-.487-.454v-5.496l.547.656a.5.5 0 00.71.062.513.513 0 00.06-.718l-1.211-1.455a.785.785 0 00-.602-.288c-.23 0-.45.105-.602.288l-1.211 1.455a.513.513 0 00.06.718.498.498 0 00.71-.062l.531-.637v5.482c0 .59.398 1.467 1.495 1.467l2.685.006 2.72.005c2.263 0 4.104-1.86 4.104-4.147s-1.84-4.147-4.103-4.147z"
        stroke="currentColor" fill="currentColor" fill-rule="nonzero" />
</svg>