<svg viewBox="0 0 17 16" fill="none" xmlns="http://www.w3.org/2000/svg">
<path d="M8.49984 7.9987C10.3408 7.9987 11.8332 6.50631 11.8332 4.66536C11.8332 2.82442 10.3408 1.33203 8.49984 1.33203C6.65889 1.33203 5.1665 2.82442 5.1665 4.66536C5.1665 6.50631 6.65889 7.9987 8.49984 7.9987Z" stroke="currentColor" stroke-width="1.5" stroke-linecap="round" stroke-linejoin="round"/>
<path d="M2.77344 14.6667C2.77344 12.0867 5.34012 10 8.50012 10" stroke="currentColor" stroke-width="1.5" stroke-linecap="round" stroke-linejoin="round"/>
<path d="M15.096 10.4949L15.1331 10.367H15H14.2577C14.2187 10.1577 14.152 9.96711 14.0565 9.79605C14.0481 9.78087 14.0394 9.76589 14.0304 9.7511H14.8111H14.8862L14.9071 9.67896L15.096 9.02787L15.1331 8.9H15H12.0924H11.9281H11.853H11.2012H11.1266L11.1054 8.97158L10.9123 9.62268L10.8743 9.7511H11.0082H11.6061H11.7392H12.0924C12.3949 9.7511 12.6289 9.80054 12.8012 9.89191L12.8012 9.89193L12.8027 9.8927C12.98 9.98288 13.106 10.107 13.1859 10.2649L13.1859 10.2649L13.1862 10.2655C13.203 10.2981 13.2181 10.3319 13.2315 10.367H11.1889H11.1138L11.0929 10.4392L10.904 11.0903L10.8669 11.2181H11H13.2423C13.2249 11.2632 13.2041 11.3067 13.1801 11.3487C13.095 11.4976 12.9666 11.618 12.7901 11.7091C12.6195 11.7959 12.3969 11.8423 12.117 11.8423H11.115H11.0142L11.015 11.9431L11.0191 12.4541L11.0194 12.4905L11.043 12.5182L13.2155 15.0649L13.2454 15.1H13.2916H14.2238H14.3238V15V14.9505V14.9136L14.2997 14.8855L12.4165 12.6885C12.8218 12.6693 13.1591 12.5933 13.4238 12.4555C13.7334 12.2958 13.9598 12.0736 14.0963 11.7878C14.1816 11.6112 14.2397 11.4211 14.2711 11.2181H14.8111H14.8862L14.9071 11.146L15.096 10.4949Z" fill="currentColor" stroke="currentColor" stroke-width="0.2"/>
</svg>
