<svg viewBox="0 0 144 32" fill="none" xmlns="http://www.w3.org/2000/svg">
    <g clip-path="url(#clip0_1214_30685)">
        <path d="M31.8689 0.00146484V31.9775H7.08203V28.4256H28.3291V0.00146484H31.8689Z" fill="#0B0924" />
        <path
            d="M17.705 14.2136H3.54131V3.55189H17.705V0H0V3.55189H0.0007479V14.2136H0V17.7654H0.0007479V32H3.54131V17.7654H17.705V14.2136Z"
            fill="#0B0924" />
        <path d="M24.7871 21.3192V10.6583V7.10645H7.08203V10.6583H21.2465V21.3192H7.08203V24.8719H24.7871V21.3192Z"
            fill="#4CC3C7" />
        <path
            d="M23.0164 3.55215C23.9941 3.55215 24.7867 2.75686 24.7867 1.77583C24.7867 0.794797 23.9941 -0.000488281 23.0164 -0.000488281C22.0387 -0.000488281 21.2461 0.794797 21.2461 1.77583C21.2461 2.75686 22.0387 3.55215 23.0164 3.55215Z"
            fill="#4CC3C7" />
        <path d="M61.24 9.54688H57.9492V22.6137H61.24V9.54688Z" fill="#0B0924" />
        <path
            d="M59.619 4.12256C59.0401 4.12256 58.557 4.30792 58.1741 4.67639C57.9867 4.85295 57.8385 5.06721 57.7393 5.30515C57.6401 5.54309 57.592 5.79936 57.5982 6.05722C57.592 6.31475 57.64 6.57069 57.7393 6.80827C57.8385 7.04585 57.9867 7.2597 58.1741 7.4358C58.557 7.80652 59.0401 7.99038 59.619 7.99038C60.1979 7.99038 60.6803 7.80652 61.0647 7.4358C61.252 7.25966 61.4 7.04579 61.4992 6.80821C61.5983 6.57063 61.6462 6.3147 61.6398 6.05722C61.6462 5.79941 61.5983 5.54316 61.4992 5.30521C61.4001 5.06727 61.252 4.85299 61.0647 4.67639C60.6803 4.30817 60.1984 4.12356 59.619 4.12256Z"
            fill="#0B0924" />
        <path
            d="M74.0509 9.35921C73.2766 9.35054 72.51 9.51539 71.8072 9.84175C71.1495 10.1457 70.5734 10.6026 70.1267 11.1746V9.54682H66.8359V22.6107H70.1267V15.3928C70.1267 14.3557 70.3892 13.558 70.9142 12.9997C71.4393 12.4413 72.1563 12.1621 73.0652 12.1621C73.9582 12.1621 74.6632 12.4413 75.1803 12.9997C75.6973 13.558 75.9558 14.3557 75.9558 15.3928V22.6107H79.2466V14.9478C79.2466 13.1883 78.7687 11.8164 77.8129 10.8323C76.8571 9.84826 75.6031 9.35721 74.0509 9.35921Z"
            fill="#0B0924" />
        <path
            d="M91.9376 9.35922C91.1633 9.35047 90.3967 9.51532 89.6939 9.84176C89.0361 10.1455 88.4599 10.6024 88.0134 11.1746V9.54683H84.7227V22.6107H88.0134V15.3928C88.0134 14.3557 88.2757 13.558 88.8002 12.9997C89.3247 12.4413 90.042 12.1622 90.9519 12.1622C91.8449 12.1622 92.5499 12.4413 93.067 12.9997C93.584 13.558 93.8425 14.3557 93.8425 15.3928V22.6107H97.1333V14.9478C97.1333 13.1883 96.6554 11.8164 95.6996 10.8324C94.7438 9.84826 93.4898 9.35722 91.9376 9.35922Z"
            fill="#0B0924" />
        <path
            d="M111.892 10.1725C110.874 9.61513 109.738 9.33596 108.484 9.33496C107.231 9.33396 106.095 9.61313 105.076 10.1725C104.068 10.7212 103.233 11.5422 102.666 12.5424C102.079 13.565 101.785 14.7447 101.785 16.0815C101.785 17.4183 102.071 18.5975 102.643 19.6191C103.191 20.6174 104.01 21.4389 105.006 21.9883C106.008 22.5467 107.136 22.8261 108.391 22.8266C109.659 22.8266 110.806 22.5472 111.831 21.9883C112.849 21.4405 113.697 20.6205 114.28 19.6191C114.884 18.597 115.186 17.4178 115.185 16.0815C115.184 14.7452 114.89 13.5655 114.303 12.5424C113.737 11.5413 112.901 10.7201 111.892 10.1725ZM111.328 18.2023C111.045 18.7521 110.608 19.207 110.071 19.5111C109.558 19.7991 108.979 19.9496 108.391 19.9478C107.451 19.9478 106.67 19.6136 106.051 18.9452C105.432 18.2768 105.123 17.3225 105.124 16.0823C105.124 14.84 105.441 13.8847 106.074 13.2163C106.708 12.5479 107.496 12.2134 108.438 12.2129C108.883 12.2048 109.325 12.2898 109.736 12.4625C110.147 12.6353 110.517 12.892 110.824 13.2163C111.472 13.8847 111.796 14.84 111.796 16.0823C111.798 16.9143 111.642 17.6214 111.328 18.2038V18.2023Z"
            fill="#0B0924" />
        <path
            d="M123.788 6.31592H120.475V9.54286H118.922V12.2557H120.475V18.558C120.475 21.2627 121.861 22.615 124.634 22.615H126.702V19.8338H125.174C124.673 19.8338 124.317 19.7352 124.106 19.5381C123.894 19.341 123.788 19.0226 123.788 18.5828V12.2625H126.705V9.54962H123.788V6.31592Z"
            fill="#0B0924" />
        <path
            d="M143.119 12.5424C142.553 11.5416 141.719 10.7204 140.71 10.1725C139.692 9.61513 138.555 9.33596 137.302 9.33496C136.049 9.33396 134.912 9.61313 133.894 10.1725C132.885 10.7208 132.05 11.5418 131.483 12.5424C130.895 13.565 130.602 14.7447 130.602 16.0815C130.602 17.4183 130.888 18.5975 131.459 19.6191C132.008 20.6175 132.827 21.439 133.823 21.9883C134.825 22.5467 135.953 22.8261 137.208 22.8266C138.476 22.8266 139.623 22.5472 140.648 21.9883C141.665 21.4398 142.511 20.6199 143.092 19.6191C143.697 18.597 143.998 17.4178 143.997 16.0815C143.996 14.7452 143.704 13.5655 143.119 12.5424ZM140.146 18.2038C139.862 18.7538 139.425 19.2087 138.887 19.5126C138.374 19.8006 137.795 19.9511 137.207 19.9493C136.266 19.9493 135.486 19.6151 134.867 18.9467C134.248 18.2783 133.939 17.3235 133.942 16.0823C133.942 14.84 134.259 13.8847 134.892 13.2163C135.526 12.5479 136.314 12.2134 137.256 12.2129C137.701 12.2049 138.143 12.2899 138.554 12.4627C138.965 12.6354 139.335 12.8921 139.641 13.2163C140.29 13.8847 140.614 14.84 140.614 16.0823C140.616 16.9143 140.46 17.6214 140.146 18.2038Z"
            fill="#0B0924" />
        <path
            d="M51.1793 9.00459C51.1793 8.26615 51.3363 7.75509 51.6504 7.47142C51.9645 7.18775 52.5207 7.05442 53.319 7.07143V4.28726C51.4851 4.24073 50.114 4.59469 49.2055 5.34914C48.2971 6.1036 47.8429 7.28281 47.8429 8.88677V9.54717H46.3628V12.2601H47.8429V22.6163V23.1589C47.8429 23.8968 47.6858 24.4079 47.3717 24.692C47.0598 24.9742 46.5019 25.1078 45.7031 25.092V27.8762C47.537 27.9227 48.9081 27.5688 49.8166 26.8143C50.725 26.0599 51.1793 24.8806 51.1793 23.2767V22.611V12.2548H53.4596V9.54192H51.1793V9.00459Z"
            fill="#0B0924" />
    </g>

</svg>