<svg viewBox="0 0 24 22" fill="none" xmlns="http://www.w3.org/2000/svg">
    <path
        d="M5.25881 0H18.7421C19.1904 0 19.5604 0.369164 19.5604 0.872727V1.74545H4.43868V0.872727C4.43868 0.369164 4.8105 0 5.25881 0ZM2.1633 2.61818H21.8385L24 8.34589C23.9906 8.57007 23.9222 8.78806 23.8016 8.9787C23.681 9.16935 23.5123 9.32619 23.3117 9.43401C23.1112 9.54183 22.8856 9.59698 22.657 9.5941C22.4283 9.59123 22.2043 9.53043 22.0066 9.4176C21.8036 9.30284 21.6351 9.13762 21.518 8.93859C21.4009 8.73956 21.3393 8.51375 21.3395 8.28393C21.3395 8.26909 21.3395 8.25426 21.3377 8.24029C21.332 8.18222 21.3147 8.12583 21.2866 8.07439C21.2586 8.02295 21.2204 7.97748 21.1743 7.94062C21.1282 7.90377 21.0751 7.87625 21.0181 7.85968C20.9611 7.84311 20.9013 7.8378 20.8422 7.84407C20.7761 7.85222 20.7127 7.8747 20.6565 7.90987C20.6004 7.94504 20.5529 7.99202 20.5175 8.04742L20.5158 8.04916C20.4741 8.12108 20.4515 8.20209 20.4499 8.2848C20.4503 8.51472 20.3889 8.74068 20.2719 8.93987C20.1548 9.13906 19.9863 9.30445 19.7833 9.41934C19.5803 9.53424 19.35 9.59457 19.1157 9.59427C18.8813 9.59396 18.6512 9.53302 18.4485 9.4176C18.2457 9.30292 18.0773 9.13783 17.9602 8.93897C17.843 8.7401 17.7814 8.51447 17.7814 8.2848C17.7814 8.26996 17.7814 8.25513 17.7796 8.24029C17.7739 8.1823 17.7564 8.126 17.7283 8.07466C17.7002 8.02332 17.6621 7.97795 17.616 7.94119C17.5699 7.90442 17.5168 7.87698 17.4599 7.86046C17.4029 7.84394 17.3432 7.83867 17.2842 7.84495C17.2181 7.853 17.1548 7.87534 17.0986 7.91036C17.0425 7.94537 16.9949 7.99219 16.9595 8.04742L16.9577 8.04916C16.9157 8.121 16.8928 8.20201 16.891 8.2848C16.8915 8.5148 16.8302 8.74086 16.7132 8.94018C16.5963 9.13949 16.4278 9.305 16.2247 9.42C16.0217 9.535 15.7914 9.59541 15.557 9.59514C15.3225 9.59487 15.0923 9.53393 14.8896 9.41847C14.6865 9.30364 14.5179 9.13828 14.4008 8.93908C14.2836 8.73989 14.2221 8.5139 14.2225 8.28393C14.2225 8.26996 14.2225 8.25513 14.2207 8.24029C14.2149 8.18238 14.1975 8.12616 14.1695 8.07488C14.1414 8.0236 14.1033 7.97828 14.0573 7.94152C14.0114 7.90477 13.9584 7.87731 13.9016 7.86074C13.8447 7.84416 13.7851 7.83879 13.7261 7.84495C13.6598 7.85297 13.5962 7.87539 13.5399 7.91057C13.4836 7.94574 13.436 7.99279 13.4005 8.04829L13.3988 8.05004C13.3571 8.12195 13.3345 8.20296 13.3329 8.28567C13.3333 8.5156 13.2719 8.74155 13.1548 8.94074C13.0378 9.13994 12.8693 9.30532 12.6663 9.42022C12.4633 9.53511 12.233 9.59545 11.9987 9.59514C11.7643 9.59483 11.5342 9.5339 11.3315 9.41847C11.1286 9.30371 10.96 9.13849 10.8429 8.93946C10.7258 8.74043 10.6642 8.51462 10.6644 8.2848C10.6644 8.26996 10.6644 8.25513 10.6626 8.24116C10.657 8.18309 10.6396 8.1267 10.6116 8.07526C10.5835 8.02382 10.5453 7.97835 10.4993 7.9415C10.4532 7.90464 10.4001 7.87713 10.3431 7.86055C10.2861 7.84398 10.2263 7.83867 10.1672 7.84495C10.1011 7.8531 10.0376 7.87557 9.98148 7.91074C9.92532 7.94591 9.87784 7.9929 9.84248 8.04829L9.8407 8.05004C9.79903 8.12195 9.7764 8.20296 9.77488 8.28567C9.77542 8.51567 9.7141 8.74174 9.59712 8.94105C9.48014 9.14037 9.31164 9.30587 9.10862 9.42087C8.9056 9.53587 8.67526 9.59628 8.44084 9.59601C8.20642 9.59575 7.97621 9.53481 7.77347 9.41935C7.57039 9.30451 7.40177 9.13915 7.28464 8.93996C7.16751 8.74076 7.106 8.51477 7.10633 8.2848C7.10633 8.27084 7.10633 8.256 7.10455 8.24116C7.09878 8.18317 7.08135 8.12687 7.05326 8.07553C7.02517 8.02419 6.98698 7.97883 6.94091 7.94206C6.89483 7.90529 6.84178 7.87786 6.78482 7.86134C6.72787 7.84482 6.66814 7.83954 6.6091 7.84582C6.54307 7.85387 6.4797 7.87621 6.42355 7.91123C6.3674 7.94624 6.31988 7.99306 6.28442 8.04829L6.28264 8.05004C6.24066 8.12187 6.21772 8.20289 6.21593 8.28567C6.21647 8.51567 6.15515 8.74174 6.03817 8.94105C5.92119 9.14037 5.75269 9.30587 5.54967 9.42087C5.34665 9.53587 5.11631 9.59628 4.88189 9.59601C4.64747 9.59575 4.41726 9.53481 4.21452 9.41935C4.01157 9.30459 3.84304 9.13937 3.72591 8.94033C3.60879 8.7413 3.54721 8.5155 3.54739 8.28567C3.55123 8.22605 3.54258 8.16628 3.52197 8.11006C3.50136 8.05385 3.46922 8.00237 3.42755 7.95881C3.38587 7.91525 3.33554 7.88053 3.27965 7.8568C3.22377 7.83307 3.16352 7.82083 3.10263 7.82083C3.04173 7.82083 2.98149 7.83307 2.9256 7.8568C2.86972 7.88053 2.81939 7.91525 2.77771 7.95881C2.73603 8.00237 2.7039 8.05385 2.68329 8.11006C2.66267 8.16628 2.65402 8.22605 2.65787 8.28567C2.65856 8.51574 2.59736 8.74192 2.48045 8.94136C2.36353 9.14079 2.19504 9.30643 1.992 9.42153C1.78896 9.53663 1.55855 9.59712 1.32405 9.59689C1.08955 9.59666 0.859271 9.53572 0.656462 9.42022C0.46442 9.30926 0.303742 9.15291 0.189078 8.96541C0.0744146 8.77791 0.009413 8.56523 0 8.34676L2.1633 2.61818ZM3.10441 9.56247C3.28409 9.80335 3.49935 10.0207 3.77154 10.1743C4.10966 10.3656 4.49312 10.4663 4.88344 10.4663C5.27376 10.4663 5.65721 10.3656 5.99533 10.1743C6.26752 10.0207 6.48278 9.80335 6.66247 9.56247C6.84215 9.80335 7.05741 10.0207 7.3296 10.1743C7.66772 10.3656 8.05118 10.4663 8.4415 10.4663C8.83182 10.4663 9.21527 10.3656 9.55339 10.1743C9.82558 10.0207 10.0408 9.80335 10.2205 9.56247C10.4002 9.80335 10.6155 10.0207 10.8877 10.1743C11.2258 10.3656 11.6092 10.4663 11.9996 10.4663C12.3899 10.4663 12.7733 10.3656 13.1115 10.1743C13.3836 10.0207 13.5989 9.80335 13.7786 9.56247C13.9583 9.80335 14.1735 10.0207 14.4457 10.1743C14.7838 10.3656 15.1673 10.4663 15.5576 10.4663C15.9479 10.4663 16.3314 10.3656 16.6695 10.1743C16.9417 10.0207 17.157 9.80335 17.3366 9.56247C17.5163 9.80335 17.7316 10.0207 18.0038 10.1743C18.3419 10.3656 18.7254 10.4663 19.1157 10.4663C19.506 10.4663 19.8895 10.3656 20.2276 10.1743C20.4998 10.0207 20.715 9.80335 20.8947 9.56247C21.0192 9.73004 21.1678 9.87753 21.3395 10.0058V21.8182H8.88625V16.1402C8.88185 16.0259 8.83358 15.9174 8.75111 15.8365C8.66863 15.7555 8.55805 15.7082 8.4415 15.7039H4.88344C4.76688 15.7082 4.6563 15.7555 4.57383 15.8365C4.49135 15.9174 4.44308 16.0259 4.43868 16.1402V21.8182H2.65965V10.0058C2.83133 9.87753 2.97987 9.73004 3.10441 9.56247ZM12.8891 13.0909C12.7725 13.0952 12.6619 13.1426 12.5795 13.2235C12.497 13.3044 12.4487 13.4129 12.4443 13.5273V18.7636C12.4443 18.9923 12.656 19.2 12.8891 19.2H19.1157C19.2322 19.1957 19.3428 19.1483 19.4253 19.0674C19.5078 18.9865 19.556 18.878 19.5604 18.7636V13.5273C19.556 13.4129 19.5078 13.3044 19.4253 13.2235C19.3428 13.1426 19.2322 13.0952 19.1157 13.0909H12.8891ZM13.3338 13.9636H18.6709V18.3273H13.3338V13.9636Z"
        fill="currentColor" />
</svg>