<svg viewBox="0 0 32 32" fill="none" xmlns="http://www.w3.org/2000/svg">
    <circle cx="16" cy="16" r="14.5" fill="currentColor" stroke="white" stroke-width="3" />
    <path fill-rule="evenodd" clip-rule="evenodd"
        d="M17.2582 6.0957C17.2582 5.54342 16.8105 5.0957 16.2582 5.0957C15.7059 5.0957 15.2582 5.54342 15.2582 6.0957V14.6195H6.73438C6.18209 14.6195 5.73438 15.0672 5.73438 15.6195C5.73438 16.1718 6.18209 16.6195 6.73438 16.6195H15.2582V25.1433C15.2582 25.6956 15.7059 26.1433 16.2582 26.1433C16.8105 26.1433 17.2582 25.6956 17.2582 25.1433V16.6195H25.782C26.3343 16.6195 26.782 16.1718 26.782 15.6195C26.782 15.0672 26.3343 14.6195 25.782 14.6195H17.2582V6.0957Z"
        fill="white" />
</svg>