<svg viewBox="0 0 17 16" fill="none" xmlns="http://www.w3.org/2000/svg">
<path d="M14.9168 7.9987C14.9168 11.6787 11.9302 14.6654 8.25016 14.6654C4.57016 14.6654 1.5835 11.6787 1.5835 7.9987C1.5835 4.3187 4.57016 1.33203 8.25016 1.33203" stroke="currentColor" stroke-width="1.5" stroke-linecap="round" stroke-linejoin="round"/>
<path d="M10.346 6.86166L10.3831 6.73379H10.25H9.30131C9.25358 6.46644 9.16977 6.22396 9.04882 6.00724C9.03107 5.97544 9.01252 5.94432 8.99318 5.91387H10.0139H10.089L10.1099 5.84174L10.346 5.02787L10.3831 4.9H10.25H6.6155H6.41016H6.33505H5.50154H5.42688L5.40566 4.97158L5.16439 5.78545L5.12632 5.91387H5.26027H6.04089H6.17402H6.6155C6.99601 5.91387 7.29301 5.97602 7.51321 6.09281L7.5132 6.09282L7.51472 6.09359C7.74057 6.2085 7.90223 6.36732 8.00471 6.56987L8.00471 6.56987L8.005 6.57043C8.03175 6.62248 8.05518 6.67692 8.07524 6.73379H5.48614H5.41103L5.3901 6.80593L5.15396 7.6198L5.11686 7.74766H5.25H8.08881C8.0642 7.81733 8.03353 7.88418 7.99687 7.9483C7.8878 8.13904 7.72341 8.29277 7.49905 8.4086C7.2812 8.51942 6.99869 8.57788 6.6463 8.57788H5.39374H5.29293L5.29374 8.67869L5.29887 9.31742L5.29917 9.35383L5.32279 9.38152L8.0384 12.5649L8.06834 12.6H8.11448H9.27977H9.37977V12.5V12.4382V12.4012L9.3557 12.3731L6.96818 9.58784C7.49546 9.56804 7.93055 9.47303 8.26829 9.29723C8.65112 9.09974 8.92984 8.82563 9.09785 8.47392C9.20622 8.24944 9.27921 8.00717 9.31741 7.74766H10.0139H10.089L10.1099 7.67553L10.346 6.86166Z" fill="currentColor" stroke="currentColor" stroke-width="0.2"/>
<path d="M14.9167 3.9987V1.33203H12.25" stroke="currentColor" stroke-width="1.5" stroke-linecap="round" stroke-linejoin="round"/>
<path d="M11.5835 4.66536L14.9168 1.33203" stroke="currentColor" stroke-width="1.5" stroke-linecap="round" stroke-linejoin="round"/>
</svg>
