<svg viewBox="0 0 24 24" fill="none" xmlns="http://www.w3.org/2000/svg">
    <mask id="path-1-outside-1_1289_32736" maskUnits="userSpaceOnUse" x="0.5" y="1.25" width="24" height="22"
        fill="currentColor">

        <path
            d="M6.6968 2.25C5.8943 2.25 5.2553 2.93625 5.2553 3.75V4.5H3.8258C3.74904 4.50007 3.67416 4.5237 3.61125 4.5677C3.54835 4.61169 3.50046 4.67392 3.47405 4.746L1.5518 9.933C1.53075 9.97124 1.51654 10.0129 1.5098 10.056C1.49262 10.1297 1.49811 10.2068 1.52555 10.2773C1.57805 10.884 1.9103 11.436 2.4428 11.7435C2.84555 11.976 3.3128 12.036 3.7553 11.946V22.125C3.7553 22.2245 3.79481 22.3198 3.86514 22.3902C3.93547 22.4605 4.03085 22.5 4.1303 22.5H6.3233C6.37711 22.5083 6.43207 22.5047 6.48436 22.4896C6.53666 22.4745 6.58505 22.4482 6.62615 22.4125C6.66726 22.3769 6.70011 22.3327 6.72241 22.283C6.74471 22.2333 6.75594 22.1794 6.7553 22.125V17.2455H9.0053V22.125C9.00474 22.1791 9.0159 22.2328 9.03803 22.2822C9.06016 22.3316 9.09272 22.3756 9.13348 22.4112C9.17425 22.4469 9.22224 22.4733 9.27417 22.4886C9.3261 22.5039 9.38073 22.5078 9.4343 22.5C9.4373 22.5 9.4403 22.5 9.4433 22.5H20.6303C20.7298 22.5 20.8251 22.4605 20.8955 22.3902C20.9658 22.3198 21.0053 22.2245 21.0053 22.125V11.946C21.4478 12.036 21.9151 11.976 22.3178 11.7435C22.5777 11.5909 22.7969 11.3778 22.9566 11.1222C23.1163 10.8666 23.2118 10.5762 23.2351 10.2758C23.2643 10.2023 23.2695 10.1214 23.2501 10.0447C23.2422 10.0052 23.228 9.96725 23.2081 9.93225L21.2881 4.746C21.2616 4.67392 21.2138 4.61169 21.1509 4.5677C21.088 4.5237 21.0131 4.50007 20.9363 4.5H19.5053V3.75C19.5053 2.93625 18.8678 2.25 18.0653 2.25H6.6968ZM6.6968 3H18.0653C18.4433 3 18.7553 3.31725 18.7553 3.75V4.5H6.0053V3.75C6.0053 3.31725 6.3188 3 6.6968 3ZM4.0868 5.25H20.6761L22.4986 10.1722C22.4906 10.3649 22.433 10.5522 22.3313 10.7161C22.2296 10.8799 22.0873 11.0147 21.9182 11.1074C21.7491 11.2 21.559 11.2474 21.3662 11.2449C21.1734 11.2425 20.9845 11.1902 20.8178 11.0933C20.6467 10.9946 20.5046 10.8526 20.4058 10.6816C20.3071 10.5106 20.2552 10.3165 20.2553 10.119C20.2554 10.1065 20.2549 10.094 20.2538 10.0815C20.246 9.99326 20.2072 9.91063 20.1443 9.84825C20.1357 9.83956 20.1267 9.8313 20.1173 9.8235C20.1168 9.8235 20.1163 9.8235 20.1158 9.8235C20.0576 9.77554 19.9862 9.74626 19.9111 9.7395C19.8866 9.73759 19.8619 9.73809 19.8376 9.741C19.8371 9.741 19.8366 9.741 19.8361 9.741C19.749 9.75141 19.6683 9.79202 19.6081 9.85575C19.6081 9.85625 19.6081 9.85675 19.6081 9.85725C19.5991 9.86607 19.5906 9.87533 19.5826 9.885C19.5826 9.8855 19.5826 9.886 19.5826 9.8865C19.5753 9.89592 19.5686 9.90568 19.5623 9.91575C19.5618 9.91625 19.5613 9.91675 19.5608 9.91725C19.5582 9.92145 19.5557 9.9257 19.5533 9.93C19.5499 9.93591 19.5466 9.94191 19.5436 9.948C19.5436 9.9485 19.5436 9.949 19.5436 9.9495C19.538 9.9605 19.533 9.97176 19.5286 9.98325C19.5286 9.98375 19.5286 9.98425 19.5286 9.98475C19.5243 9.99557 19.5205 10.0066 19.5173 10.0178C19.5173 10.0183 19.5173 10.0188 19.5173 10.0193C19.5142 10.0309 19.5117 10.0426 19.5098 10.0545C19.5098 10.055 19.5098 10.0555 19.5098 10.056C19.5077 10.0682 19.5062 10.0804 19.5053 10.0927C19.505 10.1015 19.505 10.1103 19.5053 10.119C19.5058 10.3167 19.4541 10.5109 19.3554 10.6822C19.2568 10.8535 19.1147 10.9957 18.9435 11.0946C18.7724 11.1934 18.5782 11.2453 18.3805 11.2451C18.1828 11.2448 17.9888 11.1925 17.8178 11.0933C17.6467 10.9946 17.5046 10.8526 17.4058 10.6816C17.3071 10.5106 17.2552 10.3165 17.2553 10.119C17.2554 10.1065 17.2549 10.094 17.2538 10.0815C17.246 9.99326 17.2072 9.91063 17.1443 9.84825C17.1357 9.83956 17.1267 9.8313 17.1173 9.8235C17.1168 9.8235 17.1163 9.8235 17.1158 9.8235C17.0576 9.77554 16.9862 9.74626 16.9111 9.7395C16.8866 9.73759 16.8619 9.73809 16.8376 9.741C16.8371 9.741 16.8366 9.741 16.8361 9.741C16.749 9.75141 16.6683 9.79202 16.6081 9.85575C16.6081 9.85625 16.6081 9.85675 16.6081 9.85725C16.5991 9.86607 16.5906 9.87533 16.5826 9.885C16.5826 9.8855 16.5826 9.886 16.5826 9.8865C16.5753 9.89592 16.5686 9.90568 16.5623 9.91575C16.5618 9.91625 16.5613 9.91675 16.5608 9.91725C16.5582 9.92145 16.5557 9.9257 16.5533 9.93C16.5499 9.93591 16.5466 9.94191 16.5436 9.948C16.5436 9.9485 16.5436 9.949 16.5436 9.9495C16.538 9.9605 16.533 9.97176 16.5286 9.98325C16.5286 9.98375 16.5286 9.98425 16.5286 9.98475C16.5243 9.99557 16.5205 10.0066 16.5173 10.0178C16.5173 10.0183 16.5173 10.0188 16.5173 10.0193C16.5142 10.0309 16.5117 10.0426 16.5098 10.0545C16.5098 10.055 16.5098 10.0555 16.5098 10.056C16.5077 10.0682 16.5062 10.0804 16.5053 10.0927C16.505 10.1015 16.505 10.1103 16.5053 10.119C16.5058 10.3167 16.4541 10.5109 16.3554 10.6822C16.2568 10.8535 16.1147 10.9957 15.9435 11.0946C15.7724 11.1934 15.5782 11.2453 15.3805 11.2451C15.1828 11.2448 14.9888 11.1925 14.8178 11.0933C14.6467 10.9946 14.5046 10.8526 14.4058 10.6816C14.3071 10.5106 14.2552 10.3165 14.2553 10.119C14.2554 10.1065 14.2549 10.094 14.2538 10.0815C14.246 9.99326 14.2072 9.91063 14.1443 9.84825C14.1357 9.83956 14.1267 9.8313 14.1173 9.8235C14.1168 9.8235 14.1163 9.8235 14.1158 9.8235C14.0576 9.77554 13.9862 9.74626 13.9111 9.7395C13.8866 9.73759 13.8619 9.73809 13.8376 9.741C13.8371 9.741 13.8366 9.741 13.8361 9.741C13.749 9.75141 13.6683 9.79202 13.6081 9.85575C13.6081 9.85625 13.6081 9.85675 13.6081 9.85725C13.5991 9.86607 13.5906 9.87533 13.5826 9.885C13.5826 9.8855 13.5826 9.886 13.5826 9.8865C13.5753 9.89592 13.5686 9.90568 13.5623 9.91575C13.5618 9.91625 13.5613 9.91675 13.5608 9.91725C13.5582 9.92145 13.5557 9.9257 13.5533 9.93C13.5499 9.93591 13.5466 9.94191 13.5436 9.948C13.5436 9.9485 13.5436 9.949 13.5436 9.9495C13.538 9.9605 13.533 9.97176 13.5286 9.98325C13.5286 9.98375 13.5286 9.98425 13.5286 9.98475C13.5243 9.99557 13.5205 10.0066 13.5173 10.0178C13.5173 10.0183 13.5173 10.0188 13.5173 10.0193C13.5142 10.0309 13.5117 10.0426 13.5098 10.0545C13.5098 10.055 13.5098 10.0555 13.5098 10.056C13.5077 10.0682 13.5062 10.0804 13.5053 10.0927C13.505 10.1015 13.505 10.1103 13.5053 10.119C13.5058 10.3167 13.4541 10.5109 13.3554 10.6822C13.2568 10.8535 13.1147 10.9957 12.9435 11.0946C12.7724 11.1934 12.5782 11.2453 12.3805 11.2451C12.1828 11.2448 11.9887 11.1925 11.8178 11.0933C11.6467 10.9946 11.5046 10.8526 11.4058 10.6816C11.3071 10.5106 11.2552 10.3165 11.2553 10.119C11.2554 10.1065 11.2549 10.094 11.2538 10.0815C11.246 9.99326 11.2072 9.91063 11.1443 9.84825C11.1357 9.83956 11.1267 9.8313 11.1173 9.8235C11.1168 9.8235 11.1163 9.8235 11.1158 9.8235C11.0576 9.77554 10.9862 9.74626 10.9111 9.7395C10.8866 9.73759 10.8619 9.73809 10.8376 9.741C10.8371 9.741 10.8366 9.741 10.8361 9.741C10.749 9.75141 10.6683 9.79202 10.6081 9.85575C10.6081 9.85625 10.6081 9.85675 10.6081 9.85725C10.5991 9.86607 10.5906 9.87533 10.5826 9.885C10.5826 9.8855 10.5826 9.886 10.5826 9.8865C10.5753 9.89592 10.5686 9.90568 10.5623 9.91575C10.5618 9.91625 10.5613 9.91675 10.5608 9.91725C10.5582 9.92145 10.5557 9.9257 10.5533 9.93C10.5499 9.93591 10.5466 9.94191 10.5436 9.948C10.5436 9.9485 10.5436 9.949 10.5436 9.9495C10.538 9.9605 10.533 9.97176 10.5286 9.98325C10.5286 9.98375 10.5286 9.98425 10.5286 9.98475C10.5243 9.99557 10.5205 10.0066 10.5173 10.0178C10.5173 10.0183 10.5173 10.0188 10.5173 10.0193C10.5142 10.0309 10.5117 10.0426 10.5098 10.0545C10.5098 10.055 10.5098 10.0555 10.5098 10.056C10.5077 10.0682 10.5062 10.0804 10.5053 10.0927C10.505 10.1015 10.505 10.1103 10.5053 10.119C10.5058 10.3167 10.4541 10.5109 10.3554 10.6822C10.2568 10.8535 10.1147 10.9957 9.94355 11.0946C9.77237 11.1934 9.57815 11.2453 9.3805 11.2451C9.18284 11.2448 8.98875 11.1925 8.8178 11.0933C8.64668 10.9946 8.50459 10.8526 8.40583 10.6816C8.30708 10.5106 8.25516 10.3165 8.2553 10.119C8.25543 10.1065 8.25493 10.094 8.2538 10.0815C8.246 9.99326 8.20721 9.91063 8.1443 9.84825C8.13571 9.83956 8.1267 9.8313 8.1173 9.8235C8.1168 9.8235 8.1163 9.8235 8.1158 9.8235C8.05756 9.77554 7.9862 9.74626 7.91105 9.7395C7.88656 9.73759 7.86195 9.73809 7.83755 9.741C7.83705 9.741 7.83655 9.741 7.83605 9.741C7.74897 9.75141 7.6683 9.79202 7.60805 9.85575C7.60805 9.85625 7.60805 9.85675 7.60805 9.85725C7.59909 9.86607 7.59058 9.87533 7.58255 9.885C7.58255 9.8855 7.58255 9.886 7.58255 9.8865C7.57535 9.89592 7.56859 9.90568 7.5623 9.91575C7.5618 9.91625 7.5613 9.91675 7.5608 9.91725C7.55822 9.92145 7.55572 9.9257 7.5533 9.93C7.54989 9.93591 7.54664 9.94191 7.54355 9.948C7.54355 9.9485 7.54355 9.949 7.54355 9.9495C7.538 9.9605 7.533 9.97176 7.52855 9.98325C7.52855 9.98375 7.52855 9.98425 7.52855 9.98475C7.52429 9.99557 7.52054 10.0066 7.5173 10.0178C7.5173 10.0183 7.5173 10.0188 7.5173 10.0193C7.51424 10.0309 7.51174 10.0426 7.5098 10.0545C7.5098 10.055 7.5098 10.0555 7.5098 10.056C7.5077 10.0682 7.5062 10.0804 7.5053 10.0927C7.505 10.1015 7.505 10.1103 7.5053 10.119C7.50576 10.3167 7.45406 10.5109 7.35543 10.6822C7.25679 10.8535 7.11472 10.9957 6.94355 11.0946C6.77237 11.1934 6.57815 11.2453 6.3805 11.2451C6.18284 11.2448 5.98875 11.1925 5.8178 11.0933C5.64668 10.9946 5.50459 10.8526 5.40583 10.6816C5.30708 10.5106 5.25516 10.3165 5.2553 10.119C5.25543 10.1065 5.25493 10.094 5.2538 10.0815C5.246 9.99326 5.20721 9.91063 5.1443 9.84825C5.13571 9.83956 5.1267 9.8313 5.1173 9.8235C5.1168 9.8235 5.1163 9.8235 5.1158 9.8235C5.05756 9.77554 4.9862 9.74626 4.91105 9.7395C4.88656 9.73759 4.86195 9.73809 4.83755 9.741C4.83705 9.741 4.83655 9.741 4.83605 9.741C4.74897 9.75141 4.6683 9.79202 4.60805 9.85575C4.60805 9.85625 4.60805 9.85675 4.60805 9.85725C4.59909 9.86607 4.59058 9.87533 4.58255 9.885C4.58255 9.8855 4.58255 9.886 4.58255 9.8865C4.57535 9.89592 4.56859 9.90568 4.5623 9.91575C4.5618 9.91625 4.5613 9.91675 4.5608 9.91725C4.55822 9.92145 4.55572 9.9257 4.5533 9.93C4.54989 9.93591 4.54664 9.94191 4.54355 9.948C4.54355 9.9485 4.54355 9.949 4.54355 9.9495C4.538 9.9605 4.533 9.97176 4.52855 9.98325C4.52855 9.98375 4.52855 9.98425 4.52855 9.98475C4.52429 9.99557 4.52054 10.0066 4.5173 10.0178C4.5173 10.0183 4.5173 10.0188 4.5173 10.0193C4.51424 10.0309 4.51174 10.0426 4.5098 10.0545C4.5098 10.055 4.5098 10.0555 4.5098 10.056C4.5077 10.0682 4.5062 10.0804 4.5053 10.0927C4.505 10.1015 4.505 10.1103 4.5053 10.119C4.50576 10.3167 4.45406 10.5109 4.35543 10.6822C4.25679 10.8535 4.11472 10.9957 3.94354 11.0946C3.77237 11.1934 3.57815 11.2453 3.3805 11.2451C3.18284 11.2448 2.98875 11.1925 2.8178 11.0933C2.65555 10.9987 2.51968 10.8649 2.42269 10.7041C2.32571 10.5432 2.27073 10.3606 2.2628 10.173L4.0868 5.25ZM4.8803 11.2177C5.0318 11.4247 5.2133 11.6115 5.4428 11.7435C5.72789 11.9079 6.0512 11.9945 6.3803 11.9945C6.70941 11.9945 7.03272 11.9079 7.3178 11.7435C7.5473 11.6115 7.7288 11.4247 7.8803 11.2177C8.0318 11.4247 8.2133 11.6115 8.4428 11.7435C8.72789 11.9079 9.0512 11.9945 9.3803 11.9945C9.70941 11.9945 10.0327 11.9079 10.3178 11.7435C10.5473 11.6115 10.7288 11.4247 10.8803 11.2177C11.0318 11.4247 11.2133 11.6115 11.4428 11.7435C11.7279 11.9079 12.0512 11.9945 12.3803 11.9945C12.7094 11.9945 13.0327 11.9079 13.3178 11.7435C13.5473 11.6115 13.7288 11.4247 13.8803 11.2177C14.0318 11.4247 14.2133 11.6115 14.4428 11.7435C14.7279 11.9079 15.0512 11.9945 15.3803 11.9945C15.7094 11.9945 16.0327 11.9079 16.3178 11.7435C16.5473 11.6115 16.7288 11.4247 16.8803 11.2177C17.0318 11.4247 17.2133 11.6115 17.4428 11.7435C17.7279 11.9079 18.0512 11.9945 18.3803 11.9945C18.7094 11.9945 19.0327 11.9079 19.3178 11.7435C19.5473 11.6115 19.7288 11.4247 19.8803 11.2177C19.9853 11.3617 20.1106 11.4885 20.2553 11.5988V21.75H9.7553V16.8705C9.7553 16.771 9.7158 16.6757 9.64547 16.6053C9.57514 16.535 9.47976 16.4955 9.3803 16.4955H6.3803C6.28085 16.4955 6.18547 16.535 6.11514 16.6053C6.04481 16.6757 6.0053 16.771 6.0053 16.8705V21.75H4.5053V11.5988C4.65005 11.4885 4.7753 11.3617 4.8803 11.2177ZM13.1303 14.25C13.0308 14.25 12.9355 14.2895 12.8651 14.3598C12.7948 14.4302 12.7553 14.5255 12.7553 14.625V19.125C12.7553 19.2245 12.7948 19.3198 12.8651 19.3902C12.9355 19.4605 13.0308 19.5 13.1303 19.5H18.3803C18.4798 19.5 18.5751 19.4605 18.6455 19.3902C18.7158 19.3198 18.7553 19.2245 18.7553 19.125V14.625C18.7553 14.5255 18.7158 14.4302 18.6455 14.3598C18.5751 14.2895 18.4798 14.25 18.3803 14.25H13.1303ZM13.5053 15H18.0053V18.75H13.5053V15Z" />
    </mask>
    <path
        d="M6.6968 2.25C5.8943 2.25 5.2553 2.93625 5.2553 3.75V4.5H3.8258C3.74904 4.50007 3.67416 4.5237 3.61125 4.5677C3.54835 4.61169 3.50046 4.67392 3.47405 4.746L1.5518 9.933C1.53075 9.97124 1.51654 10.0129 1.5098 10.056C1.49262 10.1297 1.49811 10.2068 1.52555 10.2773C1.57805 10.884 1.9103 11.436 2.4428 11.7435C2.84555 11.976 3.3128 12.036 3.7553 11.946V22.125C3.7553 22.2245 3.79481 22.3198 3.86514 22.3902C3.93547 22.4605 4.03085 22.5 4.1303 22.5H6.3233C6.37711 22.5083 6.43207 22.5047 6.48436 22.4896C6.53666 22.4745 6.58505 22.4482 6.62615 22.4125C6.66726 22.3769 6.70011 22.3327 6.72241 22.283C6.74471 22.2333 6.75594 22.1794 6.7553 22.125V17.2455H9.0053V22.125C9.00474 22.1791 9.0159 22.2328 9.03803 22.2822C9.06016 22.3316 9.09272 22.3756 9.13348 22.4112C9.17425 22.4469 9.22224 22.4733 9.27417 22.4886C9.3261 22.5039 9.38073 22.5078 9.4343 22.5C9.4373 22.5 9.4403 22.5 9.4433 22.5H20.6303C20.7298 22.5 20.8251 22.4605 20.8955 22.3902C20.9658 22.3198 21.0053 22.2245 21.0053 22.125V11.946C21.4478 12.036 21.9151 11.976 22.3178 11.7435C22.5777 11.5909 22.7969 11.3778 22.9566 11.1222C23.1163 10.8666 23.2118 10.5762 23.2351 10.2758C23.2643 10.2023 23.2695 10.1214 23.2501 10.0447C23.2422 10.0052 23.228 9.96725 23.2081 9.93225L21.2881 4.746C21.2616 4.67392 21.2138 4.61169 21.1509 4.5677C21.088 4.5237 21.0131 4.50007 20.9363 4.5H19.5053V3.75C19.5053 2.93625 18.8678 2.25 18.0653 2.25H6.6968ZM6.6968 3H18.0653C18.4433 3 18.7553 3.31725 18.7553 3.75V4.5H6.0053V3.75C6.0053 3.31725 6.3188 3 6.6968 3ZM4.0868 5.25H20.6761L22.4986 10.1722C22.4906 10.3649 22.433 10.5522 22.3313 10.7161C22.2296 10.8799 22.0873 11.0147 21.9182 11.1074C21.7491 11.2 21.559 11.2474 21.3662 11.2449C21.1734 11.2425 20.9845 11.1902 20.8178 11.0933C20.6467 10.9946 20.5046 10.8526 20.4058 10.6816C20.3071 10.5106 20.2552 10.3165 20.2553 10.119C20.2554 10.1065 20.2549 10.094 20.2538 10.0815C20.246 9.99326 20.2072 9.91063 20.1443 9.84825C20.1357 9.83956 20.1267 9.8313 20.1173 9.8235C20.1168 9.8235 20.1163 9.8235 20.1158 9.8235C20.0576 9.77554 19.9862 9.74626 19.9111 9.7395C19.8866 9.73759 19.8619 9.73809 19.8376 9.741C19.8371 9.741 19.8366 9.741 19.8361 9.741C19.749 9.75141 19.6683 9.79202 19.6081 9.85575C19.6081 9.85625 19.6081 9.85675 19.6081 9.85725C19.5991 9.86607 19.5906 9.87533 19.5826 9.885C19.5826 9.8855 19.5826 9.886 19.5826 9.8865C19.5753 9.89592 19.5686 9.90568 19.5623 9.91575C19.5618 9.91625 19.5613 9.91675 19.5608 9.91725C19.5582 9.92145 19.5557 9.9257 19.5533 9.93C19.5499 9.93591 19.5466 9.94191 19.5436 9.948C19.5436 9.9485 19.5436 9.949 19.5436 9.9495C19.538 9.9605 19.533 9.97176 19.5286 9.98325C19.5286 9.98375 19.5286 9.98425 19.5286 9.98475C19.5243 9.99557 19.5205 10.0066 19.5173 10.0178C19.5173 10.0183 19.5173 10.0188 19.5173 10.0193C19.5142 10.0309 19.5117 10.0426 19.5098 10.0545C19.5098 10.055 19.5098 10.0555 19.5098 10.056C19.5077 10.0682 19.5062 10.0804 19.5053 10.0927C19.505 10.1015 19.505 10.1103 19.5053 10.119C19.5058 10.3167 19.4541 10.5109 19.3554 10.6822C19.2568 10.8535 19.1147 10.9957 18.9435 11.0946C18.7724 11.1934 18.5782 11.2453 18.3805 11.2451C18.1828 11.2448 17.9888 11.1925 17.8178 11.0933C17.6467 10.9946 17.5046 10.8526 17.4058 10.6816C17.3071 10.5106 17.2552 10.3165 17.2553 10.119C17.2554 10.1065 17.2549 10.094 17.2538 10.0815C17.246 9.99326 17.2072 9.91063 17.1443 9.84825C17.1357 9.83956 17.1267 9.8313 17.1173 9.8235C17.1168 9.8235 17.1163 9.8235 17.1158 9.8235C17.0576 9.77554 16.9862 9.74626 16.9111 9.7395C16.8866 9.73759 16.8619 9.73809 16.8376 9.741C16.8371 9.741 16.8366 9.741 16.8361 9.741C16.749 9.75141 16.6683 9.79202 16.6081 9.85575C16.6081 9.85625 16.6081 9.85675 16.6081 9.85725C16.5991 9.86607 16.5906 9.87533 16.5826 9.885C16.5826 9.8855 16.5826 9.886 16.5826 9.8865C16.5753 9.89592 16.5686 9.90568 16.5623 9.91575C16.5618 9.91625 16.5613 9.91675 16.5608 9.91725C16.5582 9.92145 16.5557 9.9257 16.5533 9.93C16.5499 9.93591 16.5466 9.94191 16.5436 9.948C16.5436 9.9485 16.5436 9.949 16.5436 9.9495C16.538 9.9605 16.533 9.97176 16.5286 9.98325C16.5286 9.98375 16.5286 9.98425 16.5286 9.98475C16.5243 9.99557 16.5205 10.0066 16.5173 10.0178C16.5173 10.0183 16.5173 10.0188 16.5173 10.0193C16.5142 10.0309 16.5117 10.0426 16.5098 10.0545C16.5098 10.055 16.5098 10.0555 16.5098 10.056C16.5077 10.0682 16.5062 10.0804 16.5053 10.0927C16.505 10.1015 16.505 10.1103 16.5053 10.119C16.5058 10.3167 16.4541 10.5109 16.3554 10.6822C16.2568 10.8535 16.1147 10.9957 15.9435 11.0946C15.7724 11.1934 15.5782 11.2453 15.3805 11.2451C15.1828 11.2448 14.9888 11.1925 14.8178 11.0933C14.6467 10.9946 14.5046 10.8526 14.4058 10.6816C14.3071 10.5106 14.2552 10.3165 14.2553 10.119C14.2554 10.1065 14.2549 10.094 14.2538 10.0815C14.246 9.99326 14.2072 9.91063 14.1443 9.84825C14.1357 9.83956 14.1267 9.8313 14.1173 9.8235C14.1168 9.8235 14.1163 9.8235 14.1158 9.8235C14.0576 9.77554 13.9862 9.74626 13.9111 9.7395C13.8866 9.73759 13.8619 9.73809 13.8376 9.741C13.8371 9.741 13.8366 9.741 13.8361 9.741C13.749 9.75141 13.6683 9.79202 13.6081 9.85575C13.6081 9.85625 13.6081 9.85675 13.6081 9.85725C13.5991 9.86607 13.5906 9.87533 13.5826 9.885C13.5826 9.8855 13.5826 9.886 13.5826 9.8865C13.5753 9.89592 13.5686 9.90568 13.5623 9.91575C13.5618 9.91625 13.5613 9.91675 13.5608 9.91725C13.5582 9.92145 13.5557 9.9257 13.5533 9.93C13.5499 9.93591 13.5466 9.94191 13.5436 9.948C13.5436 9.9485 13.5436 9.949 13.5436 9.9495C13.538 9.9605 13.533 9.97176 13.5286 9.98325C13.5286 9.98375 13.5286 9.98425 13.5286 9.98475C13.5243 9.99557 13.5205 10.0066 13.5173 10.0178C13.5173 10.0183 13.5173 10.0188 13.5173 10.0193C13.5142 10.0309 13.5117 10.0426 13.5098 10.0545C13.5098 10.055 13.5098 10.0555 13.5098 10.056C13.5077 10.0682 13.5062 10.0804 13.5053 10.0927C13.505 10.1015 13.505 10.1103 13.5053 10.119C13.5058 10.3167 13.4541 10.5109 13.3554 10.6822C13.2568 10.8535 13.1147 10.9957 12.9435 11.0946C12.7724 11.1934 12.5782 11.2453 12.3805 11.2451C12.1828 11.2448 11.9887 11.1925 11.8178 11.0933C11.6467 10.9946 11.5046 10.8526 11.4058 10.6816C11.3071 10.5106 11.2552 10.3165 11.2553 10.119C11.2554 10.1065 11.2549 10.094 11.2538 10.0815C11.246 9.99326 11.2072 9.91063 11.1443 9.84825C11.1357 9.83956 11.1267 9.8313 11.1173 9.8235C11.1168 9.8235 11.1163 9.8235 11.1158 9.8235C11.0576 9.77554 10.9862 9.74626 10.9111 9.7395C10.8866 9.73759 10.8619 9.73809 10.8376 9.741C10.8371 9.741 10.8366 9.741 10.8361 9.741C10.749 9.75141 10.6683 9.79202 10.6081 9.85575C10.6081 9.85625 10.6081 9.85675 10.6081 9.85725C10.5991 9.86607 10.5906 9.87533 10.5826 9.885C10.5826 9.8855 10.5826 9.886 10.5826 9.8865C10.5753 9.89592 10.5686 9.90568 10.5623 9.91575C10.5618 9.91625 10.5613 9.91675 10.5608 9.91725C10.5582 9.92145 10.5557 9.9257 10.5533 9.93C10.5499 9.93591 10.5466 9.94191 10.5436 9.948C10.5436 9.9485 10.5436 9.949 10.5436 9.9495C10.538 9.9605 10.533 9.97176 10.5286 9.98325C10.5286 9.98375 10.5286 9.98425 10.5286 9.98475C10.5243 9.99557 10.5205 10.0066 10.5173 10.0178C10.5173 10.0183 10.5173 10.0188 10.5173 10.0193C10.5142 10.0309 10.5117 10.0426 10.5098 10.0545C10.5098 10.055 10.5098 10.0555 10.5098 10.056C10.5077 10.0682 10.5062 10.0804 10.5053 10.0927C10.505 10.1015 10.505 10.1103 10.5053 10.119C10.5058 10.3167 10.4541 10.5109 10.3554 10.6822C10.2568 10.8535 10.1147 10.9957 9.94355 11.0946C9.77237 11.1934 9.57815 11.2453 9.3805 11.2451C9.18284 11.2448 8.98875 11.1925 8.8178 11.0933C8.64668 10.9946 8.50459 10.8526 8.40583 10.6816C8.30708 10.5106 8.25516 10.3165 8.2553 10.119C8.25543 10.1065 8.25493 10.094 8.2538 10.0815C8.246 9.99326 8.20721 9.91063 8.1443 9.84825C8.13571 9.83956 8.1267 9.8313 8.1173 9.8235C8.1168 9.8235 8.1163 9.8235 8.1158 9.8235C8.05756 9.77554 7.9862 9.74626 7.91105 9.7395C7.88656 9.73759 7.86195 9.73809 7.83755 9.741C7.83705 9.741 7.83655 9.741 7.83605 9.741C7.74897 9.75141 7.6683 9.79202 7.60805 9.85575C7.60805 9.85625 7.60805 9.85675 7.60805 9.85725C7.59909 9.86607 7.59058 9.87533 7.58255 9.885C7.58255 9.8855 7.58255 9.886 7.58255 9.8865C7.57535 9.89592 7.56859 9.90568 7.5623 9.91575C7.5618 9.91625 7.5613 9.91675 7.5608 9.91725C7.55822 9.92145 7.55572 9.9257 7.5533 9.93C7.54989 9.93591 7.54664 9.94191 7.54355 9.948C7.54355 9.9485 7.54355 9.949 7.54355 9.9495C7.538 9.9605 7.533 9.97176 7.52855 9.98325C7.52855 9.98375 7.52855 9.98425 7.52855 9.98475C7.52429 9.99557 7.52054 10.0066 7.5173 10.0178C7.5173 10.0183 7.5173 10.0188 7.5173 10.0193C7.51424 10.0309 7.51174 10.0426 7.5098 10.0545C7.5098 10.055 7.5098 10.0555 7.5098 10.056C7.5077 10.0682 7.5062 10.0804 7.5053 10.0927C7.505 10.1015 7.505 10.1103 7.5053 10.119C7.50576 10.3167 7.45406 10.5109 7.35543 10.6822C7.25679 10.8535 7.11472 10.9957 6.94355 11.0946C6.77237 11.1934 6.57815 11.2453 6.3805 11.2451C6.18284 11.2448 5.98875 11.1925 5.8178 11.0933C5.64668 10.9946 5.50459 10.8526 5.40583 10.6816C5.30708 10.5106 5.25516 10.3165 5.2553 10.119C5.25543 10.1065 5.25493 10.094 5.2538 10.0815C5.246 9.99326 5.20721 9.91063 5.1443 9.84825C5.13571 9.83956 5.1267 9.8313 5.1173 9.8235C5.1168 9.8235 5.1163 9.8235 5.1158 9.8235C5.05756 9.77554 4.9862 9.74626 4.91105 9.7395C4.88656 9.73759 4.86195 9.73809 4.83755 9.741C4.83705 9.741 4.83655 9.741 4.83605 9.741C4.74897 9.75141 4.6683 9.79202 4.60805 9.85575C4.60805 9.85625 4.60805 9.85675 4.60805 9.85725C4.59909 9.86607 4.59058 9.87533 4.58255 9.885C4.58255 9.8855 4.58255 9.886 4.58255 9.8865C4.57535 9.89592 4.56859 9.90568 4.5623 9.91575C4.5618 9.91625 4.5613 9.91675 4.5608 9.91725C4.55822 9.92145 4.55572 9.9257 4.5533 9.93C4.54989 9.93591 4.54664 9.94191 4.54355 9.948C4.54355 9.9485 4.54355 9.949 4.54355 9.9495C4.538 9.9605 4.533 9.97176 4.52855 9.98325C4.52855 9.98375 4.52855 9.98425 4.52855 9.98475C4.52429 9.99557 4.52054 10.0066 4.5173 10.0178C4.5173 10.0183 4.5173 10.0188 4.5173 10.0193C4.51424 10.0309 4.51174 10.0426 4.5098 10.0545C4.5098 10.055 4.5098 10.0555 4.5098 10.056C4.5077 10.0682 4.5062 10.0804 4.5053 10.0927C4.505 10.1015 4.505 10.1103 4.5053 10.119C4.50576 10.3167 4.45406 10.5109 4.35543 10.6822C4.25679 10.8535 4.11472 10.9957 3.94354 11.0946C3.77237 11.1934 3.57815 11.2453 3.3805 11.2451C3.18284 11.2448 2.98875 11.1925 2.8178 11.0933C2.65555 10.9987 2.51968 10.8649 2.42269 10.7041C2.32571 10.5432 2.27073 10.3606 2.2628 10.173L4.0868 5.25ZM4.8803 11.2177C5.0318 11.4247 5.2133 11.6115 5.4428 11.7435C5.72789 11.9079 6.0512 11.9945 6.3803 11.9945C6.70941 11.9945 7.03272 11.9079 7.3178 11.7435C7.5473 11.6115 7.7288 11.4247 7.8803 11.2177C8.0318 11.4247 8.2133 11.6115 8.4428 11.7435C8.72789 11.9079 9.0512 11.9945 9.3803 11.9945C9.70941 11.9945 10.0327 11.9079 10.3178 11.7435C10.5473 11.6115 10.7288 11.4247 10.8803 11.2177C11.0318 11.4247 11.2133 11.6115 11.4428 11.7435C11.7279 11.9079 12.0512 11.9945 12.3803 11.9945C12.7094 11.9945 13.0327 11.9079 13.3178 11.7435C13.5473 11.6115 13.7288 11.4247 13.8803 11.2177C14.0318 11.4247 14.2133 11.6115 14.4428 11.7435C14.7279 11.9079 15.0512 11.9945 15.3803 11.9945C15.7094 11.9945 16.0327 11.9079 16.3178 11.7435C16.5473 11.6115 16.7288 11.4247 16.8803 11.2177C17.0318 11.4247 17.2133 11.6115 17.4428 11.7435C17.7279 11.9079 18.0512 11.9945 18.3803 11.9945C18.7094 11.9945 19.0327 11.9079 19.3178 11.7435C19.5473 11.6115 19.7288 11.4247 19.8803 11.2177C19.9853 11.3617 20.1106 11.4885 20.2553 11.5988V21.75H9.7553V16.8705C9.7553 16.771 9.7158 16.6757 9.64547 16.6053C9.57514 16.535 9.47976 16.4955 9.3803 16.4955H6.3803C6.28085 16.4955 6.18547 16.535 6.11514 16.6053C6.04481 16.6757 6.0053 16.771 6.0053 16.8705V21.75H4.5053V11.5988C4.65005 11.4885 4.7753 11.3617 4.8803 11.2177ZM13.1303 14.25C13.0308 14.25 12.9355 14.2895 12.8651 14.3598C12.7948 14.4302 12.7553 14.5255 12.7553 14.625V19.125C12.7553 19.2245 12.7948 19.3198 12.8651 19.3902C12.9355 19.4605 13.0308 19.5 13.1303 19.5H18.3803C18.4798 19.5 18.5751 19.4605 18.6455 19.3902C18.7158 19.3198 18.7553 19.2245 18.7553 19.125V14.625C18.7553 14.5255 18.7158 14.4302 18.6455 14.3598C18.5751 14.2895 18.4798 14.25 18.3803 14.25H13.1303ZM13.5053 15H18.0053V18.75H13.5053V15Z"
        fill="currentColor" />
    <path
        d="M6.6968 2.25C5.8943 2.25 5.2553 2.93625 5.2553 3.75V4.5H3.8258C3.74904 4.50007 3.67416 4.5237 3.61125 4.5677C3.54835 4.61169 3.50046 4.67392 3.47405 4.746L1.5518 9.933C1.53075 9.97124 1.51654 10.0129 1.5098 10.056C1.49262 10.1297 1.49811 10.2068 1.52555 10.2773C1.57805 10.884 1.9103 11.436 2.4428 11.7435C2.84555 11.976 3.3128 12.036 3.7553 11.946V22.125C3.7553 22.2245 3.79481 22.3198 3.86514 22.3902C3.93547 22.4605 4.03085 22.5 4.1303 22.5H6.3233C6.37711 22.5083 6.43207 22.5047 6.48436 22.4896C6.53666 22.4745 6.58505 22.4482 6.62615 22.4125C6.66726 22.3769 6.70011 22.3327 6.72241 22.283C6.74471 22.2333 6.75594 22.1794 6.7553 22.125V17.2455H9.0053V22.125C9.00474 22.1791 9.0159 22.2328 9.03803 22.2822C9.06016 22.3316 9.09272 22.3756 9.13348 22.4112C9.17425 22.4469 9.22224 22.4733 9.27417 22.4886C9.3261 22.5039 9.38073 22.5078 9.4343 22.5C9.4373 22.5 9.4403 22.5 9.4433 22.5H20.6303C20.7298 22.5 20.8251 22.4605 20.8955 22.3902C20.9658 22.3198 21.0053 22.2245 21.0053 22.125V11.946C21.4478 12.036 21.9151 11.976 22.3178 11.7435C22.5777 11.5909 22.7969 11.3778 22.9566 11.1222C23.1163 10.8666 23.2118 10.5762 23.2351 10.2758C23.2643 10.2023 23.2695 10.1214 23.2501 10.0447C23.2422 10.0052 23.228 9.96725 23.2081 9.93225L21.2881 4.746C21.2616 4.67392 21.2138 4.61169 21.1509 4.5677C21.088 4.5237 21.0131 4.50007 20.9363 4.5H19.5053V3.75C19.5053 2.93625 18.8678 2.25 18.0653 2.25H6.6968ZM6.6968 3H18.0653C18.4433 3 18.7553 3.31725 18.7553 3.75V4.5H6.0053V3.75C6.0053 3.31725 6.3188 3 6.6968 3ZM4.0868 5.25H20.6761L22.4986 10.1722C22.4906 10.3649 22.433 10.5522 22.3313 10.7161C22.2296 10.8799 22.0873 11.0147 21.9182 11.1074C21.7491 11.2 21.559 11.2474 21.3662 11.2449C21.1734 11.2425 20.9845 11.1902 20.8178 11.0933C20.6467 10.9946 20.5046 10.8526 20.4058 10.6816C20.3071 10.5106 20.2552 10.3165 20.2553 10.119C20.2554 10.1065 20.2549 10.094 20.2538 10.0815C20.246 9.99326 20.2072 9.91063 20.1443 9.84825C20.1357 9.83956 20.1267 9.8313 20.1173 9.8235C20.1168 9.8235 20.1163 9.8235 20.1158 9.8235C20.0576 9.77554 19.9862 9.74626 19.9111 9.7395C19.8866 9.73759 19.8619 9.73809 19.8376 9.741C19.8371 9.741 19.8366 9.741 19.8361 9.741C19.749 9.75141 19.6683 9.79202 19.6081 9.85575C19.6081 9.85625 19.6081 9.85675 19.6081 9.85725C19.5991 9.86607 19.5906 9.87533 19.5826 9.885C19.5826 9.8855 19.5826 9.886 19.5826 9.8865C19.5753 9.89592 19.5686 9.90568 19.5623 9.91575C19.5618 9.91625 19.5613 9.91675 19.5608 9.91725C19.5582 9.92145 19.5557 9.9257 19.5533 9.93C19.5499 9.93591 19.5466 9.94191 19.5436 9.948C19.5436 9.9485 19.5436 9.949 19.5436 9.9495C19.538 9.9605 19.533 9.97176 19.5286 9.98325C19.5286 9.98375 19.5286 9.98425 19.5286 9.98475C19.5243 9.99557 19.5205 10.0066 19.5173 10.0178C19.5173 10.0183 19.5173 10.0188 19.5173 10.0193C19.5142 10.0309 19.5117 10.0426 19.5098 10.0545C19.5098 10.055 19.5098 10.0555 19.5098 10.056C19.5077 10.0682 19.5062 10.0804 19.5053 10.0927C19.505 10.1015 19.505 10.1103 19.5053 10.119C19.5058 10.3167 19.4541 10.5109 19.3554 10.6822C19.2568 10.8535 19.1147 10.9957 18.9435 11.0946C18.7724 11.1934 18.5782 11.2453 18.3805 11.2451C18.1828 11.2448 17.9888 11.1925 17.8178 11.0933C17.6467 10.9946 17.5046 10.8526 17.4058 10.6816C17.3071 10.5106 17.2552 10.3165 17.2553 10.119C17.2554 10.1065 17.2549 10.094 17.2538 10.0815C17.246 9.99326 17.2072 9.91063 17.1443 9.84825C17.1357 9.83956 17.1267 9.8313 17.1173 9.8235C17.1168 9.8235 17.1163 9.8235 17.1158 9.8235C17.0576 9.77554 16.9862 9.74626 16.9111 9.7395C16.8866 9.73759 16.8619 9.73809 16.8376 9.741C16.8371 9.741 16.8366 9.741 16.8361 9.741C16.749 9.75141 16.6683 9.79202 16.6081 9.85575C16.6081 9.85625 16.6081 9.85675 16.6081 9.85725C16.5991 9.86607 16.5906 9.87533 16.5826 9.885C16.5826 9.8855 16.5826 9.886 16.5826 9.8865C16.5753 9.89592 16.5686 9.90568 16.5623 9.91575C16.5618 9.91625 16.5613 9.91675 16.5608 9.91725C16.5582 9.92145 16.5557 9.9257 16.5533 9.93C16.5499 9.93591 16.5466 9.94191 16.5436 9.948C16.5436 9.9485 16.5436 9.949 16.5436 9.9495C16.538 9.9605 16.533 9.97176 16.5286 9.98325C16.5286 9.98375 16.5286 9.98425 16.5286 9.98475C16.5243 9.99557 16.5205 10.0066 16.5173 10.0178C16.5173 10.0183 16.5173 10.0188 16.5173 10.0193C16.5142 10.0309 16.5117 10.0426 16.5098 10.0545C16.5098 10.055 16.5098 10.0555 16.5098 10.056C16.5077 10.0682 16.5062 10.0804 16.5053 10.0927C16.505 10.1015 16.505 10.1103 16.5053 10.119C16.5058 10.3167 16.4541 10.5109 16.3554 10.6822C16.2568 10.8535 16.1147 10.9957 15.9435 11.0946C15.7724 11.1934 15.5782 11.2453 15.3805 11.2451C15.1828 11.2448 14.9888 11.1925 14.8178 11.0933C14.6467 10.9946 14.5046 10.8526 14.4058 10.6816C14.3071 10.5106 14.2552 10.3165 14.2553 10.119C14.2554 10.1065 14.2549 10.094 14.2538 10.0815C14.246 9.99326 14.2072 9.91063 14.1443 9.84825C14.1357 9.83956 14.1267 9.8313 14.1173 9.8235C14.1168 9.8235 14.1163 9.8235 14.1158 9.8235C14.0576 9.77554 13.9862 9.74626 13.9111 9.7395C13.8866 9.73759 13.8619 9.73809 13.8376 9.741C13.8371 9.741 13.8366 9.741 13.8361 9.741C13.749 9.75141 13.6683 9.79202 13.6081 9.85575C13.6081 9.85625 13.6081 9.85675 13.6081 9.85725C13.5991 9.86607 13.5906 9.87533 13.5826 9.885C13.5826 9.8855 13.5826 9.886 13.5826 9.8865C13.5753 9.89592 13.5686 9.90568 13.5623 9.91575C13.5618 9.91625 13.5613 9.91675 13.5608 9.91725C13.5582 9.92145 13.5557 9.9257 13.5533 9.93C13.5499 9.93591 13.5466 9.94191 13.5436 9.948C13.5436 9.9485 13.5436 9.949 13.5436 9.9495C13.538 9.9605 13.533 9.97176 13.5286 9.98325C13.5286 9.98375 13.5286 9.98425 13.5286 9.98475C13.5243 9.99557 13.5205 10.0066 13.5173 10.0178C13.5173 10.0183 13.5173 10.0188 13.5173 10.0193C13.5142 10.0309 13.5117 10.0426 13.5098 10.0545C13.5098 10.055 13.5098 10.0555 13.5098 10.056C13.5077 10.0682 13.5062 10.0804 13.5053 10.0927C13.505 10.1015 13.505 10.1103 13.5053 10.119C13.5058 10.3167 13.4541 10.5109 13.3554 10.6822C13.2568 10.8535 13.1147 10.9957 12.9435 11.0946C12.7724 11.1934 12.5782 11.2453 12.3805 11.2451C12.1828 11.2448 11.9887 11.1925 11.8178 11.0933C11.6467 10.9946 11.5046 10.8526 11.4058 10.6816C11.3071 10.5106 11.2552 10.3165 11.2553 10.119C11.2554 10.1065 11.2549 10.094 11.2538 10.0815C11.246 9.99326 11.2072 9.91063 11.1443 9.84825C11.1357 9.83956 11.1267 9.8313 11.1173 9.8235C11.1168 9.8235 11.1163 9.8235 11.1158 9.8235C11.0576 9.77554 10.9862 9.74626 10.9111 9.7395C10.8866 9.73759 10.8619 9.73809 10.8376 9.741C10.8371 9.741 10.8366 9.741 10.8361 9.741C10.749 9.75141 10.6683 9.79202 10.6081 9.85575C10.6081 9.85625 10.6081 9.85675 10.6081 9.85725C10.5991 9.86607 10.5906 9.87533 10.5826 9.885C10.5826 9.8855 10.5826 9.886 10.5826 9.8865C10.5753 9.89592 10.5686 9.90568 10.5623 9.91575C10.5618 9.91625 10.5613 9.91675 10.5608 9.91725C10.5582 9.92145 10.5557 9.9257 10.5533 9.93C10.5499 9.93591 10.5466 9.94191 10.5436 9.948C10.5436 9.9485 10.5436 9.949 10.5436 9.9495C10.538 9.9605 10.533 9.97176 10.5286 9.98325C10.5286 9.98375 10.5286 9.98425 10.5286 9.98475C10.5243 9.99557 10.5205 10.0066 10.5173 10.0178C10.5173 10.0183 10.5173 10.0188 10.5173 10.0193C10.5142 10.0309 10.5117 10.0426 10.5098 10.0545C10.5098 10.055 10.5098 10.0555 10.5098 10.056C10.5077 10.0682 10.5062 10.0804 10.5053 10.0927C10.505 10.1015 10.505 10.1103 10.5053 10.119C10.5058 10.3167 10.4541 10.5109 10.3554 10.6822C10.2568 10.8535 10.1147 10.9957 9.94355 11.0946C9.77237 11.1934 9.57815 11.2453 9.3805 11.2451C9.18284 11.2448 8.98875 11.1925 8.8178 11.0933C8.64668 10.9946 8.50459 10.8526 8.40583 10.6816C8.30708 10.5106 8.25516 10.3165 8.2553 10.119C8.25543 10.1065 8.25493 10.094 8.2538 10.0815C8.246 9.99326 8.20721 9.91063 8.1443 9.84825C8.13571 9.83956 8.1267 9.8313 8.1173 9.8235C8.1168 9.8235 8.1163 9.8235 8.1158 9.8235C8.05756 9.77554 7.9862 9.74626 7.91105 9.7395C7.88656 9.73759 7.86195 9.73809 7.83755 9.741C7.83705 9.741 7.83655 9.741 7.83605 9.741C7.74897 9.75141 7.6683 9.79202 7.60805 9.85575C7.60805 9.85625 7.60805 9.85675 7.60805 9.85725C7.59909 9.86607 7.59058 9.87533 7.58255 9.885C7.58255 9.8855 7.58255 9.886 7.58255 9.8865C7.57535 9.89592 7.56859 9.90568 7.5623 9.91575C7.5618 9.91625 7.5613 9.91675 7.5608 9.91725C7.55822 9.92145 7.55572 9.9257 7.5533 9.93C7.54989 9.93591 7.54664 9.94191 7.54355 9.948C7.54355 9.9485 7.54355 9.949 7.54355 9.9495C7.538 9.9605 7.533 9.97176 7.52855 9.98325C7.52855 9.98375 7.52855 9.98425 7.52855 9.98475C7.52429 9.99557 7.52054 10.0066 7.5173 10.0178C7.5173 10.0183 7.5173 10.0188 7.5173 10.0193C7.51424 10.0309 7.51174 10.0426 7.5098 10.0545C7.5098 10.055 7.5098 10.0555 7.5098 10.056C7.5077 10.0682 7.5062 10.0804 7.5053 10.0927C7.505 10.1015 7.505 10.1103 7.5053 10.119C7.50576 10.3167 7.45406 10.5109 7.35543 10.6822C7.25679 10.8535 7.11472 10.9957 6.94355 11.0946C6.77237 11.1934 6.57815 11.2453 6.3805 11.2451C6.18284 11.2448 5.98875 11.1925 5.8178 11.0933C5.64668 10.9946 5.50459 10.8526 5.40583 10.6816C5.30708 10.5106 5.25516 10.3165 5.2553 10.119C5.25543 10.1065 5.25493 10.094 5.2538 10.0815C5.246 9.99326 5.20721 9.91063 5.1443 9.84825C5.13571 9.83956 5.1267 9.8313 5.1173 9.8235C5.1168 9.8235 5.1163 9.8235 5.1158 9.8235C5.05756 9.77554 4.9862 9.74626 4.91105 9.7395C4.88656 9.73759 4.86195 9.73809 4.83755 9.741C4.83705 9.741 4.83655 9.741 4.83605 9.741C4.74897 9.75141 4.6683 9.79202 4.60805 9.85575C4.60805 9.85625 4.60805 9.85675 4.60805 9.85725C4.59909 9.86607 4.59058 9.87533 4.58255 9.885C4.58255 9.8855 4.58255 9.886 4.58255 9.8865C4.57535 9.89592 4.56859 9.90568 4.5623 9.91575C4.5618 9.91625 4.5613 9.91675 4.5608 9.91725C4.55822 9.92145 4.55572 9.9257 4.5533 9.93C4.54989 9.93591 4.54664 9.94191 4.54355 9.948C4.54355 9.9485 4.54355 9.949 4.54355 9.9495C4.538 9.9605 4.533 9.97176 4.52855 9.98325C4.52855 9.98375 4.52855 9.98425 4.52855 9.98475C4.52429 9.99557 4.52054 10.0066 4.5173 10.0178C4.5173 10.0183 4.5173 10.0188 4.5173 10.0193C4.51424 10.0309 4.51174 10.0426 4.5098 10.0545C4.5098 10.055 4.5098 10.0555 4.5098 10.056C4.5077 10.0682 4.5062 10.0804 4.5053 10.0927C4.505 10.1015 4.505 10.1103 4.5053 10.119C4.50576 10.3167 4.45406 10.5109 4.35543 10.6822C4.25679 10.8535 4.11472 10.9957 3.94354 11.0946C3.77237 11.1934 3.57815 11.2453 3.3805 11.2451C3.18284 11.2448 2.98875 11.1925 2.8178 11.0933C2.65555 10.9987 2.51968 10.8649 2.42269 10.7041C2.32571 10.5432 2.27073 10.3606 2.2628 10.173L4.0868 5.25ZM4.8803 11.2177C5.0318 11.4247 5.2133 11.6115 5.4428 11.7435C5.72789 11.9079 6.0512 11.9945 6.3803 11.9945C6.70941 11.9945 7.03272 11.9079 7.3178 11.7435C7.5473 11.6115 7.7288 11.4247 7.8803 11.2177C8.0318 11.4247 8.2133 11.6115 8.4428 11.7435C8.72789 11.9079 9.0512 11.9945 9.3803 11.9945C9.70941 11.9945 10.0327 11.9079 10.3178 11.7435C10.5473 11.6115 10.7288 11.4247 10.8803 11.2177C11.0318 11.4247 11.2133 11.6115 11.4428 11.7435C11.7279 11.9079 12.0512 11.9945 12.3803 11.9945C12.7094 11.9945 13.0327 11.9079 13.3178 11.7435C13.5473 11.6115 13.7288 11.4247 13.8803 11.2177C14.0318 11.4247 14.2133 11.6115 14.4428 11.7435C14.7279 11.9079 15.0512 11.9945 15.3803 11.9945C15.7094 11.9945 16.0327 11.9079 16.3178 11.7435C16.5473 11.6115 16.7288 11.4247 16.8803 11.2177C17.0318 11.4247 17.2133 11.6115 17.4428 11.7435C17.7279 11.9079 18.0512 11.9945 18.3803 11.9945C18.7094 11.9945 19.0327 11.9079 19.3178 11.7435C19.5473 11.6115 19.7288 11.4247 19.8803 11.2177C19.9853 11.3617 20.1106 11.4885 20.2553 11.5988V21.75H9.7553V16.8705C9.7553 16.771 9.7158 16.6757 9.64547 16.6053C9.57514 16.535 9.47976 16.4955 9.3803 16.4955H6.3803C6.28085 16.4955 6.18547 16.535 6.11514 16.6053C6.04481 16.6757 6.0053 16.771 6.0053 16.8705V21.75H4.5053V11.5988C4.65005 11.4885 4.7753 11.3617 4.8803 11.2177ZM13.1303 14.25C13.0308 14.25 12.9355 14.2895 12.8651 14.3598C12.7948 14.4302 12.7553 14.5255 12.7553 14.625V19.125C12.7553 19.2245 12.7948 19.3198 12.8651 19.3902C12.9355 19.4605 13.0308 19.5 13.1303 19.5H18.3803C18.4798 19.5 18.5751 19.4605 18.6455 19.3902C18.7158 19.3198 18.7553 19.2245 18.7553 19.125V14.625C18.7553 14.5255 18.7158 14.4302 18.6455 14.3598C18.5751 14.2895 18.4798 14.25 18.3803 14.25H13.1303ZM13.5053 15H18.0053V18.75H13.5053V15Z"
        stroke="currentColor" stroke-width="0.8" mask="url(#path-1-outside-1_1289_32736)" />
</svg>