<svg viewBox="0 0 24 24" fill="none" xmlns="http://www.w3.org/2000/svg">
    <g clip-path="url(#clip0_4727_25293)">
        <path
            d="M12 24C18.6274 24 24 18.6274 24 12C24 5.37258 18.6274 0 12 0C5.37258 0 0 5.37258 0 12C0 18.6274 5.37258 24 12 24Z"
            fill="currentColor" />
        <path
            d="M10.0947 17.784L5.21966 12.9899C4.92678 12.7019 4.92678 12.2349 5.21966 11.9468L6.2803 10.9038C6.57318 10.6157 7.04808 10.6157 7.34096 10.9038L10.625 14.1333L17.659 7.21601C17.9519 6.928 18.4268 6.928 18.7197 7.21601L19.7803 8.25907C20.0732 8.54709 20.0732 9.01408 19.7803 9.30213L11.1553 17.784C10.8624 18.072 10.3875 18.072 10.0947 17.784Z"
            fill="white" />
    </g>
    <defs>
        <clipPath id="clip0_4727_25293">
            <rect width="24" height="24" fill="white" />
        </clipPath>
    </defs>
</svg>