<svg viewBox="0 0 364 364" fill="none" xmlns="http://www.w3.org/2000/svg">
    <path
        d="M63.3609 111.12C80.06 106.1 98.1508 84.2765 105.109 73.9923C115.024 56.2128 83.1911 73.9923 67.5357 82.359C51.8802 90.7258 42.4869 117.395 63.3609 111.12Z"
        fill="#4CC3C7" fill-opacity="0.2" />
    <path
        d="M340.984 263.58C340.984 281.346 331.105 298.557 321.257 310.879C313.24 320.907 300.538 325.286 287.714 325.286H58.4219C45.5536 325.286 36.5669 307.035 34.3467 294.334C30.4067 271.794 9.70467 246.657 13.2628 208.151C18.4812 151.675 53.9671 134.417 91.0183 112.978C128.07 91.5378 104.065 60.1622 167.73 41.3368C231.396 22.5116 298.714 84.7397 296.627 142.785C294.539 200.829 340.984 209.196 340.984 263.58Z"
        fill="#4CC3C7" fill-opacity="0.2" />
    <path
        d="M131.756 252.768C121.143 264.286 159.352 295.959 159.352 325.285H187.214H215.076C212.245 323.508 207.434 317.714 210.83 308.756C215.076 297.558 241.08 293.292 235.773 281.562C230.466 269.831 218.259 281.562 206.585 274.63C194.909 267.698 207.646 261.3 223.036 245.836C238.426 230.374 210.83 231.973 199.156 237.838C187.48 243.703 188.01 233.039 189.603 210.645C191.195 188.249 181.642 170.121 173.682 174.386C165.721 178.652 178.989 227.708 170.498 222.375C162.006 217.043 153.515 197.848 150.861 215.976C148.208 234.106 167.844 262.366 159.352 264.499C150.861 266.632 145.024 238.372 131.756 252.768Z"
        fill="white" />
    <path d="M145.881 325.064L141.282 287.753L43.66 283.664L41.1045 325.064H145.881Z" fill="#0B0924" />
    <path
        d="M78.5074 138.156L76.4629 148.889L78.5074 160.133C83.7888 160.815 94.556 162.178 95.3738 162.178C96.1916 162.178 102.188 157.067 105.085 154.512L102.018 138.156C110.605 135.294 113.433 122.652 113.774 116.69C115.818 92.1564 99.4626 89.0898 96.396 89.0898C93.3293 89.0898 73.9074 89.0898 71.3518 109.534C69.3075 125.889 75.2703 135.43 78.5074 138.156Z"
        fill="white" />
    <path fill-rule="evenodd" clip-rule="evenodd"
        d="M84.1185 92.593C78.8483 95.016 73.6162 99.8405 72.3885 109.662C70.3794 125.734 76.2632 134.899 79.1802 137.355L79.648 137.749L77.5257 148.892L79.3986 159.193C82.0098 159.528 85.6063 159.986 88.7421 160.373C90.4682 160.585 92.0524 160.777 93.2549 160.914C93.8566 160.983 94.3594 161.039 94.7355 161.076C94.9236 161.096 95.0764 161.109 95.1919 161.119C95.2112 161.12 95.2292 161.121 95.2458 161.124C95.2802 161.106 95.3246 161.081 95.3799 161.049C95.5861 160.928 95.8682 160.74 96.2188 160.489C96.9159 159.988 97.8138 159.284 98.7902 158.491C100.548 157.06 102.52 155.369 103.948 154.118L100.823 137.45L101.687 137.163C105.563 135.871 108.251 132.326 110.027 128.173C111.793 124.043 112.565 119.515 112.73 116.628L112.731 116.614L112.732 116.601C113.733 104.591 110.229 98.0343 106.298 94.4611C102.311 90.8362 97.7234 90.1329 96.3958 90.1329C94.8841 90.1329 89.4577 90.1382 84.1185 92.593ZM95.1565 161.164C95.1565 161.164 95.1617 161.161 95.1713 161.159C95.1611 161.163 95.1565 161.164 95.1565 161.164ZM96.3867 88.043H96.3958C98.1346 88.043 103.258 88.8731 107.704 92.9146C112.205 97.0067 115.856 104.246 114.816 116.761C114.638 119.838 113.826 124.605 111.949 128.995C110.195 133.096 107.43 137.052 103.206 138.823L106.221 154.901L105.776 155.292C104.322 156.576 102.087 158.503 100.109 160.112C99.1219 160.915 98.1862 161.649 97.4383 162.187C97.0665 162.454 96.7231 162.685 96.4338 162.854C96.29 162.938 96.1401 163.018 95.9943 163.08C95.8787 163.129 95.6452 163.222 95.3735 163.222C95.0917 163.222 94.1803 163.125 93.0168 162.991C91.8054 162.852 90.2143 162.66 88.4863 162.446C85.0295 162.02 81.0152 161.508 78.3733 161.167L77.6156 161.07L75.3996 148.882L77.3705 138.536C73.7808 135.107 68.3229 125.338 70.3147 109.403C71.6426 98.7798 77.3991 93.382 83.2454 90.694C89.0117 88.043 94.8183 88.043 96.3867 88.043Z"
        fill="#0B0924" />
    <path
        d="M199.922 166.805C197.787 169.951 189.298 178.635 188.325 180.187L192.15 189.108L202.621 191.539C204.977 188.197 211.716 184.723 213.32 179.509C214.601 175.336 209.697 169.67 207.296 168.75L214.627 158.706C215.606 157.365 215.329 155.488 214.007 154.486C212.712 153.507 210.877 153.714 209.836 154.959L199.922 166.805Z"
        fill="white" />
    <path fill-rule="evenodd" clip-rule="evenodd"
        d="M214.637 153.654C212.899 152.337 210.434 152.616 209.036 154.288L199.087 166.175L199.057 166.219C198.043 167.714 195.451 170.604 192.915 173.391C192.602 173.734 192.292 174.075 191.986 174.41C191.067 175.417 190.196 176.373 189.468 177.188C188.529 178.238 187.742 179.151 187.439 179.632L187.149 180.096L191.399 190.006L203.07 192.716L203.475 192.142C203.99 191.411 204.776 190.634 205.755 189.765C206.223 189.349 206.722 188.924 207.242 188.48L207.297 188.435C207.834 187.976 208.392 187.5 208.947 187.007C211.133 185.063 213.424 182.724 214.318 179.816C215.102 177.266 213.974 174.458 212.559 172.331C211.831 171.236 210.979 170.25 210.143 169.468C209.716 169.069 209.273 168.708 208.838 168.409L215.471 159.322C216.785 157.522 216.415 154.999 214.637 153.654ZM210.637 155.63C211.321 154.814 212.526 154.677 213.376 155.32C214.244 155.977 214.425 157.21 213.783 158.09L205.647 169.237L206.922 169.726C207.339 169.886 207.981 170.309 208.718 170.996C209.436 171.667 210.181 172.53 210.819 173.488C212.136 175.467 212.819 177.578 212.32 179.2C211.611 181.507 209.732 183.513 207.558 185.445C207.023 185.921 206.48 186.385 205.942 186.843L205.881 186.895C205.365 187.335 204.852 187.771 204.368 188.201C203.572 188.907 202.814 189.629 202.202 190.369L192.902 188.211L189.521 180.325C189.837 179.931 190.349 179.339 191.027 178.58C191.747 177.774 192.607 176.83 193.523 175.825C193.83 175.489 194.144 175.145 194.46 174.797C196.923 172.092 199.618 169.096 200.756 167.437L210.637 155.63Z"
        fill="#0B0924" />
    <path
        d="M84.1288 127.933C82.0843 139.791 79.1881 141.051 77.9955 140.2C63.6846 131 64.0298 101.606 72.8845 91.6446C81.0621 82.4446 87.1954 86.0225 104.062 81.9336C120.928 77.8448 126.55 85.0001 123.484 94.2001C119.069 107.444 105.084 100.333 101.506 101.867C97.9287 103.4 93.3287 107.489 91.2842 115.667C89.2399 123.844 88.2176 122.31 86.6843 117.711C85.151 113.111 81.0621 106.467 77.9955 114.644C75.5422 121.186 81.0621 126.229 84.1288 127.933Z"
        fill="#0B0924" />
    <path fill-rule="evenodd" clip-rule="evenodd"
        d="M100.392 300.53C82.8445 300.871 46.2153 300.939 40.082 298.485C37.8535 297.595 36.9204 288.885 36.7685 276.69C30.6404 270.486 24.4649 263.584 19.6382 257.086C9.00714 242.775 11.4604 226.249 14.016 219.775C27.3038 181.957 43.9984 161.512 52.3471 155.888C52.3476 155.888 52.3481 155.888 52.3486 155.887C56.9485 152.31 69.2151 147.709 75.8594 146.688C77.2224 150.435 81.4815 157.931 91.7036 157.931C101.926 157.931 103.8 150.435 104.481 146.688C111.807 146.857 131.059 150.878 141.281 165.599C149.09 176.845 152.318 186.754 154.464 193.343C155.829 197.535 156.756 200.382 158.148 201.376C160.021 202.714 167.221 195.642 174.39 188.601C180.909 182.197 187.401 175.821 189.835 175.821C194.947 175.821 206.702 186.042 206.702 192.175C206.702 198.309 178.591 250.442 170.414 256.063C162.236 261.686 153.036 258.62 148.436 252.997C149.458 264.071 150.583 292.25 146.903 295.93C143.223 299.61 114.363 300.53 100.392 300.53Z"
        fill="white" />
    <path fill-rule="evenodd" clip-rule="evenodd"
        d="M76.549 145.525L76.8421 146.332C78.1437 149.91 82.1343 156.888 91.7044 156.888C96.5178 156.888 99.2285 155.143 100.848 153.072C102.513 150.943 103.118 148.349 103.454 146.502L103.614 145.624L104.506 145.644C108.299 145.733 115.069 146.808 122.191 149.721C129.319 152.637 136.879 157.428 142.14 165.004C150.037 176.376 153.303 186.404 155.455 193.012L155.459 193.021C156.145 195.133 156.703 196.843 157.259 198.153C157.811 199.457 158.286 200.168 158.715 200.497C158.743 200.497 158.795 200.494 158.883 200.477C159.122 200.429 159.477 200.292 159.96 200.022C160.919 199.488 162.156 198.564 163.609 197.335C166.502 194.884 170.065 191.387 173.659 187.856L173.676 187.839C176.922 184.651 180.192 181.439 182.958 179.023C184.342 177.815 185.626 176.783 186.736 176.047C187.29 175.679 187.823 175.371 188.319 175.153C188.802 174.939 189.324 174.776 189.836 174.776C191.399 174.776 193.29 175.534 195.152 176.611C197.05 177.71 199.061 179.228 200.898 180.934C202.732 182.638 204.424 184.556 205.663 186.466C206.886 188.349 207.748 190.345 207.748 192.177C207.748 192.716 207.602 193.396 207.389 194.134C207.17 194.895 206.852 195.803 206.454 196.83C205.655 198.887 204.514 201.473 203.127 204.404C200.352 210.266 196.572 217.555 192.539 224.82C188.506 232.085 184.212 239.344 180.408 245.146C178.507 248.046 176.72 250.595 175.144 252.603C173.588 254.583 172.171 256.126 171.006 256.926C163.408 262.15 154.982 260.31 149.717 255.793C150.144 261.513 150.522 269.708 150.479 277.244C150.452 281.704 150.28 285.963 149.877 289.352C149.676 291.044 149.414 292.549 149.074 293.766C148.746 294.939 148.305 296.008 147.642 296.67C146.996 297.318 145.934 297.795 144.742 298.18C143.51 298.579 141.974 298.926 140.229 299.232C136.737 299.844 132.308 300.308 127.583 300.654C118.134 301.345 107.405 301.576 100.403 301.577C91.62 301.747 78.0669 301.849 65.9361 301.601C59.8696 301.478 54.147 301.266 49.55 300.932C47.2522 300.764 45.2233 300.565 43.5673 300.327C41.9356 300.094 40.5857 299.814 39.6946 299.457C39.1561 299.241 38.7515 298.831 38.4459 298.387C38.137 297.938 37.8808 297.386 37.6616 296.771C37.2235 295.541 36.8813 293.906 36.6121 291.972C36.0845 288.183 35.813 283.058 35.7298 277.126C29.6774 270.978 23.5871 264.155 18.7999 257.71C7.8991 243.036 10.397 226.12 13.0372 219.413C19.7048 200.44 27.2336 185.803 34.1591 175.189C41.0556 164.62 47.3942 157.978 51.7344 155.043C54.1669 153.161 58.4892 151.081 62.9619 149.356C67.4689 147.617 72.2749 146.183 75.7012 145.656L76.549 145.525ZM105.336 147.77C104.941 149.646 104.202 152.176 102.494 154.36C100.45 156.974 97.113 158.978 91.7044 158.978C81.5394 158.978 76.92 151.974 75.1972 147.861C72.0378 148.446 67.7866 149.734 63.7141 151.306C59.2591 153.024 55.1637 155.023 52.9911 156.714C52.991 156.714 52.9914 156.714 52.9911 156.714L52.9619 156.737L52.9316 156.757C48.9238 159.457 42.7539 165.841 35.9095 176.331C29.0808 186.797 21.621 201.287 15.0025 220.124L14.996 220.142L14.9886 220.16C12.5204 226.413 10.1266 242.53 20.4776 256.464C25.266 262.911 31.4059 269.774 37.5126 275.958L37.8088 276.257L37.814 276.679C37.8899 282.763 38.1606 287.937 38.6822 291.685C38.9438 293.563 39.2621 295.036 39.6305 296.07C39.8147 296.587 39.998 296.957 40.1674 297.202C40.3401 297.453 40.4521 297.509 40.4707 297.517C41.113 297.773 42.2493 298.028 43.8633 298.259C45.4529 298.487 47.4291 298.681 49.7019 298.847C54.2462 299.178 59.9275 299.389 65.9787 299.512C78.0781 299.759 91.6079 299.656 100.373 299.486H100.383H100.393C107.362 299.486 118.043 299.257 127.431 298.569C132.127 298.226 136.477 297.768 139.868 297.174C141.565 296.875 142.996 296.548 144.101 296.191C145.247 295.821 145.893 295.465 146.164 295.192C146.423 294.934 146.751 294.319 147.061 293.204C147.361 292.131 147.607 290.744 147.801 289.105C148.191 285.829 148.363 281.66 148.389 277.232C148.439 268.379 147.904 258.601 147.396 253.095L147.083 249.692L149.246 252.336C153.567 257.618 162.173 260.463 169.822 255.205C170.702 254.599 171.953 253.283 173.5 251.312C175.026 249.369 176.777 246.874 178.661 244.001C182.427 238.254 186.695 231.044 190.712 223.806C194.728 216.568 198.487 209.322 201.239 203.509C202.615 200.602 203.734 198.065 204.505 196.075C204.891 195.079 205.185 194.233 205.381 193.554C205.584 192.85 205.658 192.405 205.658 192.177C205.658 190.944 205.051 189.361 203.909 187.603C202.786 185.871 201.217 184.083 199.475 182.465C197.734 180.848 195.847 179.428 194.104 178.419C192.323 177.389 190.83 176.867 189.836 176.867C189.74 176.867 189.527 176.903 189.164 177.065C188.813 177.219 188.388 177.459 187.89 177.789C186.894 178.449 185.691 179.411 184.332 180.598C181.618 182.968 178.389 186.139 175.123 189.347L175.099 189.372C171.533 192.875 167.918 196.424 164.959 198.929C163.481 200.18 162.119 201.213 160.977 201.848C160.409 202.165 159.839 202.416 159.298 202.525C158.76 202.635 158.104 202.63 157.541 202.227C156.588 201.547 155.916 200.341 155.335 198.968C154.74 197.566 154.155 195.772 153.485 193.709L153.471 193.668C151.331 187.098 148.141 177.31 140.423 166.196C135.462 159.052 128.286 154.473 121.4 151.655C115.046 149.056 109.008 147.986 105.336 147.77Z"
        fill="#0B0924" />
    <path
        d="M73.05 248.461C74.487 247.495 76.4349 247.877 77.4008 249.314L100.175 283.195C101.141 284.632 100.759 286.58 99.322 287.546L53.0851 318.626C51.6482 319.592 49.7003 319.209 48.7343 317.773L25.9602 283.892C24.9944 282.455 25.3762 280.508 26.8132 279.542L73.05 248.461Z"
        fill="white" />
    <path fill-rule="evenodd" clip-rule="evenodd"
        d="M72.4673 247.595C74.3832 246.306 76.9804 246.816 78.2683 248.731L101.042 282.613C102.33 284.528 101.821 287.125 99.9052 288.413L53.6683 319.493C51.7523 320.78 49.1552 320.272 47.8672 318.355L25.0932 284.475C23.8052 282.559 24.3145 279.961 26.2303 278.674L72.4673 247.595ZM76.5337 249.897C75.8898 248.939 74.5911 248.684 73.6332 249.328L27.3964 280.408C26.4383 281.052 26.1837 282.35 26.8277 283.309L49.6018 317.19C50.2457 318.147 51.5444 318.402 52.5023 317.758L98.7393 286.678C99.6972 286.034 99.9517 284.736 99.3078 283.777L76.5337 249.897Z"
        fill="#0B0924" />
    <path
        d="M80.971 286.22C77.7 284.584 75.8599 282.812 75.3489 282.131C72.7934 285.027 67.3756 291.841 66.1489 295.93C64.6156 301.041 72.7934 308.708 75.3489 309.219C77.9044 309.731 85.571 305.13 87.1043 302.574C88.3309 300.53 85.571 296.782 84.0377 295.419C84.8894 294.227 87.922 292.864 87.1043 290.82C86.082 288.263 85.0598 288.263 80.971 286.22Z"
        fill="white" />
    <path fill-rule="evenodd" clip-rule="evenodd"
        d="M75.4148 280.477L76.185 281.504C76.5749 282.024 78.2722 283.702 81.4385 285.285C82.1999 285.666 82.8484 285.972 83.4211 286.242C83.6086 286.331 83.7879 286.416 83.9604 286.498C84.6451 286.825 85.2434 287.122 85.7529 287.45C86.8658 288.164 87.5002 288.995 88.0747 290.432C88.7413 292.098 87.7333 293.399 86.9278 294.186C86.5845 294.522 86.199 294.841 85.8702 295.114C85.7977 295.174 85.7279 295.232 85.662 295.286C85.6085 295.331 85.5579 295.374 85.5101 295.415C86.2074 296.181 86.9615 297.189 87.5278 298.249C87.9232 298.99 88.2538 299.804 88.3891 300.614C88.5248 301.427 88.4763 302.32 88.0006 303.112C87.5187 303.916 86.632 304.777 85.6346 305.578C84.6132 306.398 83.3864 307.227 82.1336 307.951C80.8828 308.676 79.5799 309.313 78.4043 309.739C77.2865 310.144 76.0885 310.434 75.1441 310.244C74.6607 310.147 74.1381 309.907 73.6347 309.616C73.1154 309.316 72.5503 308.924 71.9702 308.467C70.81 307.55 69.5437 306.333 68.4114 304.968C67.2822 303.605 66.2567 302.061 65.6131 300.487C64.9735 298.923 64.6701 297.224 65.1482 295.631C65.8154 293.407 67.5696 290.558 69.3984 287.98C71.25 285.367 73.2671 282.912 74.5655 281.44L75.4148 280.477ZM71.1032 289.188C69.2775 291.763 67.7095 294.367 67.1501 296.232C66.8615 297.193 67.0054 298.37 67.5477 299.696C68.086 301.013 68.9772 302.376 70.0202 303.633C71.06 304.888 72.2216 306.001 73.2655 306.827C73.7875 307.239 74.2685 307.569 74.6795 307.807C75.1065 308.053 75.3986 308.164 75.554 308.195C75.8874 308.262 76.6059 308.167 77.6924 307.774C78.7208 307.402 79.9096 306.824 81.0865 306.143C82.2614 305.463 83.3985 304.693 84.3258 303.948C85.277 303.184 85.9236 302.512 86.2084 302.037C86.346 301.808 86.4125 301.466 86.3277 300.959C86.2426 300.449 86.0174 299.857 85.6845 299.235C85.0158 297.983 84.0203 296.802 83.3436 296.201L82.6415 295.576L83.1874 294.812C83.49 294.389 83.9439 293.999 84.3208 293.684C84.4031 293.615 84.484 293.548 84.5636 293.482C84.8884 293.213 85.191 292.962 85.4667 292.692C86.1861 291.989 86.2854 291.586 86.1342 291.208C85.6865 290.089 85.2987 289.642 84.6227 289.208C84.2378 288.96 83.7499 288.714 83.061 288.385C82.8983 288.307 82.7253 288.226 82.5419 288.139C81.9661 287.867 81.2881 287.547 80.5039 287.155C78.0858 285.945 76.3824 284.646 75.3783 283.696C74.1619 285.127 72.5768 287.11 71.1032 289.188Z"
        fill="#0B0924" />
    <path
        d="M19.6382 257.087C9.00714 242.775 11.4604 226.25 14.016 219.775L52.3488 232.042C52.3488 240.731 79.4374 274.975 77.9041 282.131C76.3708 289.286 65.6376 297.975 61.0376 296.953C56.4377 295.93 32.9268 274.975 19.6382 257.087Z"
        fill="white" />
    <path fill-rule="evenodd" clip-rule="evenodd"
        d="M18.7999 257.71C7.88891 243.022 10.4017 226.088 13.0446 219.393L14.9886 220.159C12.5204 226.413 10.1266 242.53 20.4776 256.464C27.0724 265.342 36.2248 275.006 44.3113 282.583C48.3526 286.369 52.1135 289.622 55.1408 291.985C56.6555 293.167 57.9743 294.117 59.0448 294.799C60.1528 295.504 60.8867 295.848 61.265 295.933C62.0711 296.112 63.3412 295.881 64.9567 295.128C66.5303 294.394 68.2729 293.236 69.9438 291.813C73.324 288.934 76.187 285.16 76.8829 281.912C77.0072 281.332 76.854 280.263 76.2644 278.637C75.6953 277.067 74.7894 275.159 73.6367 273C71.3327 268.685 68.1105 263.494 64.8157 258.216C64.6477 257.946 64.4797 257.677 64.3115 257.408C61.1904 252.41 58.0464 247.374 55.6438 243.034C54.3776 240.747 53.3043 238.63 52.5449 236.795C51.7984 234.992 51.3045 233.347 51.3045 232.043H53.3944C53.3944 232.912 53.7469 234.235 54.476 235.997C55.192 237.726 56.223 239.766 57.4723 242.022C59.8472 246.312 62.9641 251.303 66.0966 256.32C66.2606 256.584 66.4245 256.846 66.5886 257.109C69.8742 262.372 73.1366 267.626 75.4804 272.016C76.6517 274.21 77.6106 276.218 78.2293 277.925C78.8277 279.575 79.1855 281.142 78.9265 282.35C78.0891 286.258 74.8189 290.407 71.2991 293.405C69.5201 294.92 67.621 296.191 65.8406 297.022C64.1019 297.833 62.3054 298.305 60.8115 297.973C60.0399 297.802 59.0328 297.268 57.9227 296.562C56.7752 295.831 55.3986 294.838 53.8547 293.632C50.7645 291.219 46.9549 287.924 42.8822 284.107C34.7411 276.479 25.4938 266.721 18.7999 257.71Z"
        fill="#0B0924" />
    <path
        d="M144.348 202.398L148.437 253.509C150.072 254.736 153.206 257.087 154.57 257.598C154.161 253.509 147.585 219.095 144.348 202.398Z"
        fill="#0B0924" />
    <path
        d="M14.5283 218.754C18.2764 224.546 24.6481 240.527 20.1504 258.108C15.3801 252.998 7.57725 237.971 14.5283 218.754Z"
        fill="#0B0924" />
    <path
        d="M148.437 252.998C160.703 247.274 170.926 249.591 174.503 251.465C173.31 253.85 169.085 258.723 161.725 259.132C154.365 259.541 149.799 255.213 148.437 252.998Z"
        fill="#0B0924" />
    <path
        d="M58.9936 233.065C58.5848 224.888 61.8899 210.577 63.5935 204.443C62.5713 205.977 59.7092 210.781 56.438 217.732C52.3492 226.42 51.327 232.043 53.8825 237.154C54.9893 239.368 59.2414 246.673 63.8822 254.532L66.1491 252.628C62.5459 245.313 59.2585 238.365 58.9936 233.065Z"
        fill="#0B0924" />
    <path d="M93.7485 312.797L90.1709 325.574H93.7485V312.797Z" fill="white" />
    <path
        d="M91.1934 138C96.1 139.636 100.223 138.681 101.927 138L103.46 145.155C96.9177 144.337 92.5563 139.873 91.1934 138Z"
        fill="#0B0924" />
    <path
        d="M138.253 76.5765C138.253 73.6909 140.592 71.3516 143.479 71.3516H335.758C338.645 71.3516 340.984 73.6909 340.984 76.5765V223.805C340.984 226.692 338.645 229.031 335.758 229.031H143.479C140.592 229.031 138.253 226.692 138.253 223.805V76.5765Z"
        fill="white" />
    <path fill-rule="evenodd" clip-rule="evenodd"
        d="M137.209 76.5747C137.209 73.112 140.017 70.3047 143.479 70.3047H335.759C339.222 70.3047 342.029 73.1119 342.029 76.5747V223.804C342.029 227.266 339.222 230.074 335.759 230.074H143.479C140.017 230.074 137.209 227.266 137.209 223.804V76.5747ZM143.479 72.3948C141.171 72.3948 139.3 74.2662 139.3 76.5747V223.804C139.3 226.112 141.171 227.984 143.479 227.984H335.759C338.068 227.984 339.939 226.112 339.939 223.804V76.5747C339.939 74.2662 338.068 72.3948 335.759 72.3948H143.479Z"
        fill="#0B0924" />
    <mask id="mask0_1659_39443" style="mask-type:alpha" maskUnits="userSpaceOnUse" x="139" y="72" width="201"
        height="156">
        <path fill-rule="evenodd" clip-rule="evenodd"
            d="M143.477 72.3945C141.168 72.3945 139.297 74.266 139.297 76.5745V223.804C139.297 226.112 141.168 227.984 143.477 227.984H335.756C338.065 227.984 339.936 226.112 339.936 223.804V76.5745C339.936 74.266 338.065 72.3945 335.756 72.3945H143.477Z"
            fill="#0B0924" />
    </mask>
    <g mask="url(#mask0_1659_39443)">
        <circle cx="175" cy="227" r="46" fill="#4CC3C7" fill-opacity="0.5" />
        <circle cx="310" cy="202" r="6" fill="#0B0924" />
        <circle cx="331" cy="101" r="25" fill="#4CC3C7" />
    </g>
    <path d="M270.166 143.711V181.156H208.854V143.711" fill="#F9F9F9" />
    <path d="M270.166 143.711V181.156H208.854V143.711" stroke="#101828" stroke-width="1.5" stroke-linecap="round"
        stroke-linejoin="round" />
    <path d="M239.455 119.844L208.854 142.781L239.455 161.856L270.054 142.741L239.455 119.844Z" fill="#F2F2F2"
        stroke="#101828" stroke-width="1.5" stroke-linecap="round" stroke-linejoin="round" />
    <path d="M215.666 126.588V147.025L239.156 161.672H239.755L263.354 146.927V126.591L215.666 126.588Z" fill="#D9F1F2"
        stroke="#4CC3C7" stroke-width="1.5" />
    <path d="M208.878 181.143L229.271 167.545ZM270.112 181.143L249.75 167.545Z" fill="#FFF593" />
    <path d="M208.878 181.143L229.271 167.545M270.112 181.143L249.75 167.545" stroke="#101828" stroke-width="1.5"
        stroke-linecap="round" stroke-linejoin="round" />
    <path d="M208.854 142.781L239.455 161.856L270.054 142.74" stroke="#101828" stroke-width="1.5" stroke-linecap="round"
        stroke-linejoin="round" />
    <path
        d="M227.588 131.66H251.377V135.281H227.588V131.66ZM224.182 138.578H254.838V142.199H224.182V138.578ZM230.994 145.391H248.025V149.012H230.994V145.391Z"
        fill="#4CC3C7" />
    <path
        d="M256.811 146.633C264.187 146.633 270.167 140.635 270.167 133.237C270.167 125.838 264.187 119.84 256.811 119.84C249.435 119.84 243.455 125.838 243.455 133.237C243.455 140.635 249.435 146.633 256.811 146.633Z"
        fill="#0B0924" stroke="#101828" stroke-width="1.5" stroke-linecap="round" stroke-linejoin="round" />
    <path fill-rule="evenodd" clip-rule="evenodd"
        d="M264.53 128.47C264.823 128.763 264.823 129.237 264.53 129.53L255.03 139.03C254.75 139.311 254.299 139.324 254.002 139.061L249.502 135.061C249.192 134.785 249.164 134.311 249.439 134.002C249.715 133.692 250.189 133.664 250.498 133.939L254.5 136L263.47 128.47C263.763 128.177 264.237 128.177 264.53 128.47Z"
        fill="#4CC3C7" />
    <path
        d="M138.253 76.5765C138.253 73.6909 140.592 71.3516 143.479 71.3516H335.758C338.645 71.3516 340.984 73.6909 340.984 76.5765V96.9841H138.253V76.5765Z"
        fill="#0B0924" />
    <path
        d="M163.768 83.7193C163.768 86.6892 161.359 89.0967 158.39 89.0967C155.42 89.0967 153.013 86.6892 153.013 83.7193C153.013 80.7494 155.42 78.3418 158.39 78.3418C161.359 78.3418 163.768 80.7494 163.768 83.7193Z"
        fill="white" />
    <path
        d="M181.691 83.7193C181.691 86.6892 179.283 89.0967 176.313 89.0967C173.344 89.0967 170.936 86.6892 170.936 83.7193C170.936 80.7494 173.344 78.3418 176.313 78.3418C179.283 78.3418 181.691 80.7494 181.691 83.7193Z"
        fill="white" />
    <path
        d="M199.616 83.7193C199.616 86.6892 197.208 89.0967 194.239 89.0967C191.269 89.0967 188.861 86.6892 188.861 83.7193C188.861 80.7494 191.269 78.3418 194.239 78.3418C197.208 78.3418 199.616 80.7494 199.616 83.7193Z"
        fill="white" />
    <path
        d="M246.967 269.375C251.473 300.007 274.798 317.71 286.909 323.157C287.299 323.332 287.709 323.413 288.135 323.413H291.549C293.578 323.413 295.074 321.509 294.526 319.556C285.19 286.331 263.544 271.093 250.573 266.337C248.579 265.606 246.657 267.272 246.967 269.375Z"
        fill="white" />
    <path fill-rule="evenodd" clip-rule="evenodd"
        d="M250.214 267.319C249.02 266.881 247.798 267.844 248.001 269.222C252.439 299.39 275.433 316.851 287.34 322.205C287.581 322.314 287.844 322.368 288.136 322.368H291.55C292.914 322.368 293.875 321.1 293.519 319.839C284.283 286.964 262.897 271.968 250.214 267.319ZM245.933 269.527C245.517 266.701 248.138 264.332 250.934 265.357C264.194 270.219 286.1 285.701 295.532 319.274C296.276 321.92 294.245 324.458 291.55 324.458H288.136C287.575 324.458 287.017 324.351 286.482 324.111C274.165 318.572 250.508 300.626 245.933 269.527Z"
        fill="#0B0924" />
    <path fill-rule="evenodd" clip-rule="evenodd"
        d="M265.743 287.006C262.513 283.685 259.595 281.024 257.036 278.75L258.424 277.188C261.441 279.869 264.982 283.109 268.949 287.336C271.895 290.476 275.071 294.158 278.441 298.562V294.055H280.531V301.353C283.409 305.282 286.416 309.738 289.529 314.824C291.007 317.236 292.508 319.791 294.031 322.498L292.209 323.522C290.784 320.989 289.379 318.591 287.996 316.321L281.285 315.194L281.63 313.132L286.533 313.956C283.808 309.61 281.174 305.754 278.644 302.316C274.74 297.009 271.084 292.693 267.733 289.095H260.947V287.006H265.743Z"
        fill="#0B0924" />
    <path
        d="M283.533 216.183C264.011 257.422 278.02 302.644 288.623 322.237C289.158 323.226 290.195 323.815 291.318 323.815H296.226C297.874 323.815 299.242 322.523 299.344 320.879C302.54 268.866 294.606 232.602 288.61 216.356C287.731 213.976 284.619 213.89 283.533 216.183Z"
        fill="#4CC3C7" />
    <path
        d="M328.751 239.689C303.726 256.59 291.578 297.881 288.001 320.299C287.704 322.169 289.169 323.816 291.061 323.816H298.29C299.101 323.816 299.882 323.504 300.457 322.932C323.295 300.187 331.396 262.645 333.035 242.273C333.227 239.886 330.735 238.349 328.751 239.689Z"
        fill="white" />
    <path fill-rule="evenodd" clip-rule="evenodd"
        d="M331.995 242.19C332.121 240.618 330.546 239.737 329.336 240.555C317.066 248.842 307.872 263.178 301.293 278.342C294.721 293.484 290.811 309.324 289.034 320.464C288.841 321.671 289.783 322.772 291.062 322.772H298.291C298.834 322.772 299.348 322.562 299.72 322.192C310.986 310.971 318.653 296.06 323.708 281.373C328.761 266.692 331.181 252.3 331.995 242.19ZM328.167 238.823C330.925 236.96 334.335 239.155 334.078 242.357C333.252 252.618 330.802 267.184 325.684 282.052C320.569 296.916 312.766 312.148 301.194 323.673C300.418 324.446 299.368 324.861 298.291 324.861H291.062C288.554 324.861 286.566 322.666 286.97 320.135C288.77 308.856 292.722 292.843 299.375 277.51C306.02 262.199 315.413 247.437 328.167 238.823Z"
        fill="#0B0924" />
    <path
        d="M349.781 283.869C324.961 284.799 306.231 305.418 297.66 319.35C296.431 321.348 297.921 323.816 300.267 323.816H308.949C309.383 323.816 309.811 323.727 310.207 323.548C326.491 316.138 343.052 299.147 351.929 288.442C353.504 286.544 352.247 283.777 349.781 283.869Z"
        fill="#4CC3C7" />
    <path fill-rule="evenodd" clip-rule="evenodd"
        d="M286.925 222.909C286.65 231.246 286.606 239.297 286.742 246.985C286.848 252.937 287.059 258.67 287.353 264.147L291.828 256.91L293.606 258.01L287.561 267.782C287.985 274.692 288.533 281.162 289.153 287.111C289.888 294.172 290.722 300.497 291.565 305.953L295.443 299.548L297.231 300.63L292.075 309.148C293.102 315.378 294.113 320.263 294.938 323.562L292.911 324.069C292.051 320.632 291.006 315.556 289.949 309.105C288.967 303.108 287.976 295.916 287.117 287.737L279.565 281.172L280.936 279.595L286.808 284.7C286.285 279.362 285.821 273.636 285.455 267.577C285.068 261.18 284.788 254.412 284.659 247.333L279.386 239.546L281.116 238.375L284.604 243.525C284.535 236.87 284.601 229.958 284.836 222.84L286.925 222.909Z"
        fill="white" />
    <path fill-rule="evenodd" clip-rule="evenodd"
        d="M315.542 272.319C319.485 263.494 323.551 255.22 327.398 248.744L325.601 247.676C321.381 254.783 316.927 263.972 312.674 273.63C310.359 278.885 308.101 284.288 305.969 289.578L304.2 280.583L302.148 280.985L304.542 293.152C302.337 298.718 300.292 304.097 298.491 308.976C296.401 314.642 294.638 319.639 293.337 323.48L295.316 324.15C296.584 320.408 298.295 315.556 300.323 310.048L310.942 303.803L309.883 302.002L301.474 306.947C303.04 302.755 304.764 298.26 306.599 293.637C309.043 287.473 311.681 281.086 314.399 274.897L324.012 271.723L323.356 269.738L315.542 272.319Z"
        fill="#0B0924" />
    <path fill-rule="evenodd" clip-rule="evenodd"
        d="M346.219 289.786C340.483 292.272 334.656 295.668 329.096 299.435C325.593 301.808 322.202 304.324 319.013 306.846H324.488V308.935H316.416C309.025 314.986 302.971 320.831 299.514 324.529L297.986 323.102C301.555 319.284 307.791 313.271 315.383 307.081C319.193 303.974 323.349 300.817 327.684 297.867L330.779 291.202L332.674 292.083L331.008 295.672C335.703 292.664 340.563 289.96 345.388 287.869L346.219 289.786Z"
        fill="white" />
</svg>