<svg viewBox="0 0 36 36" fill="none" xmlns="http://www.w3.org/2000/svg">
    <path fill-rule="evenodd" clip-rule="evenodd"
        d="M27.8701 17.5004C27.2301 16.3904 23.7101 10.8204 17.7301 11.0004C12.2001 11.1404 9.00007 16.0004 8.13007 17.5004C7.95144 17.8098 7.95144 18.191 8.13007 18.5004C8.76007 19.5904 12.1301 25.0004 18.0201 25.0004H18.2701C23.8001 24.8604 27.0101 20.0004 27.8701 18.5004C28.0487 18.191 28.0487 17.8098 27.8701 17.5004ZM18.0001 21.5004C16.0671 21.5004 14.5001 19.9334 14.5001 18.0004C14.5001 16.0674 16.0671 14.5004 18.0001 14.5004C19.9331 14.5004 21.5001 16.0674 21.5001 18.0004C21.5001 19.9334 19.9331 21.5004 18.0001 21.5004ZM18.0001 19.5004C18.8285 19.5004 19.5001 18.8288 19.5001 18.0004C19.5001 17.1719 18.8285 16.5004 18.0001 16.5004C17.1716 16.5004 16.5001 17.1719 16.5001 18.0004C16.5001 18.8288 17.1716 19.5004 18.0001 19.5004Z"
        fill="currentColor" />
</svg>