<svg viewBox="0 0 61 18" fill="none" xmlns="http://www.w3.org/2000/svg">
    <path
        d="M24.428.295l-3.1 17.439h4.958L29.389.294h-4.96zM17.168.316L12.312 12.21l-.518-1.796c-.958-2.163-3.676-5.27-6.868-7.23l4.44 14.544 5.246-.009L22.42.313l-5.252.003z"
        fill="currentColor" />
    <path
        d="M9.91 1.567C9.624.505 8.788.188 7.75.15H.065L0 .498C5.982 1.888 9.94 5.24 11.582 9.27L9.912 1.567zM39.435 3.643a9.498 9.498 0 013.711.667l.448.202.67-3.78C43.282.38 41.744 0 39.823 0c-4.9 0-8.353 2.365-8.38 5.755-.031 2.505 2.46 3.903 4.343 4.738 1.931.856 2.58 1.4 2.57 2.164-.015 1.167-1.54 1.703-2.964 1.703-1.986 0-3.04-.263-4.669-.913l-.639-.28-.697 3.904c1.16.488 3.301.907 5.524.929 5.212 0 8.598-2.337 8.634-5.96.022-1.98-1.3-3.493-4.166-4.734-1.734-.809-2.795-1.347-2.785-2.163 0-.725.9-1.5 2.841-1.5zM56.987.316h-3.83c-1.19 0-2.075.31-2.598 1.448l-7.362 15.982h5.207s.85-2.15 1.042-2.62l6.349.007c.148.609.604 2.613.604 2.613H61L56.987.316zm-6.114 11.24c.408-1 1.975-4.873 1.975-4.873-.027.047.404-1.009.66-1.665l.334 1.503s.95 4.164 1.15 5.035h-4.12z"
        fill="currentColor" />
</svg>