<svg viewBox="0 0 20 20" fill="none" xmlns="http://www.w3.org/2000/svg">
    <path
        d="M10.8331 7.49947C10.8331 7.95971 10.46 8.3328 9.99977 8.3328C9.53953 8.3328 9.16643 7.95971 9.16643 7.49947C9.16643 7.03923 9.53953 6.66614 9.99977 6.66614C10.46 6.66614 10.8331 7.03923 10.8331 7.49947Z"
        fill="currentColor" />
    <path
        d="M9.99977 9.79114C10.3449 9.79114 10.6248 10.071 10.6248 10.4161V14.5828C10.6248 14.928 10.3449 15.2078 9.99977 15.2078C9.65459 15.2078 9.37477 14.928 9.37477 14.5828V10.4161C9.37477 10.071 9.65459 9.79114 9.99977 9.79114Z"
        fill="currentColor" />
    <path fill-rule="evenodd" clip-rule="evenodd"
        d="M11.8917 3.32667C10.9817 1.99528 9.01775 1.99528 8.10778 3.32667L7.74784 3.85329C5.49281 7.15263 3.55534 10.6582 1.9614 14.3229L1.88622 14.4957C1.32451 15.7872 2.17314 17.2536 3.57276 17.4101C7.84412 17.8874 12.1554 17.8874 16.4267 17.4101C17.8264 17.2536 18.675 15.7872 18.1133 14.4957L18.0381 14.3229C16.4442 10.6581 14.5067 7.15264 12.2517 3.85329L11.8917 3.32667ZM9.13976 4.03201C9.55339 3.42683 10.4461 3.42683 10.8597 4.03201L11.2197 4.55863C13.4302 7.79281 15.3294 11.2291 16.8918 14.8214L16.967 14.9943C17.1932 15.5143 16.8515 16.1048 16.2879 16.1678C12.1088 16.6349 7.89069 16.6349 3.7116 16.1678C3.14802 16.1048 2.80631 15.5143 3.03249 14.9943L3.10767 14.8214C4.67013 11.2291 6.56933 7.79281 8.77983 4.55863L9.13976 4.03201Z"
        fill="currentColor" />
</svg>