<svg viewBox="0 0 16 16" fill="none" xmlns="http://www.w3.org/2000/svg">
    <circle cx="8" cy="8" r="8" fill="#FBBD23" />
    <g clip-path="url(#prefix__clip0_588_24713)">
        <path fill-rule="evenodd" clip-rule="evenodd"
            d="M7.407 2.668c.2-.127.427-.193.658-.193.23 0 .457.066.658.193.201.126.37.308.489.529l.001.002 3.788 7.07.004.007c.117.227.179.484.18.746 0 .262-.06.52-.177.747a1.434 1.434 0 01-.485.55 1.236 1.236 0 01-.665.207H4.273a1.236 1.236 0 01-.666-.207 1.434 1.434 0 01-.486-.55 1.64 1.64 0 01-.176-.747c.001-.262.063-.52.18-.746l.004-.007 3.789-7.072c.12-.22.288-.403.489-.53zm.658.807a.411.411 0 00-.22.064.474.474 0 00-.162.175L3.898 10.78a.546.546 0 000 .495c.04.076.095.139.162.183a.413.413 0 00.22.069h7.57a.413.413 0 00.22-.069.478.478 0 00.162-.183.546.546 0 000-.495L8.447 3.715a.474.474 0 00-.163-.176.411.411 0 00-.22-.064zm0 2.051c.247 0 .447.224.447.5v2c0 .276-.2.5-.447.5s-.447-.224-.447-.5v-2c0-.276.2-.5.447-.5zm-.447 4.5c0-.276.2-.5.447-.5h.004c.247 0 .448.224.448.5s-.2.5-.448.5h-.004c-.247 0-.447-.224-.447-.5z"
            fill="#fff" />
    </g>
    <defs>
        <clipPath id="prefix__clip0_588_24713">
            <path fill="#fff" transform="translate(2.7 1.5)" d="M0 0h10.733v12H0z" />
        </clipPath>
    </defs>
</svg>