<svg viewBox="0 0 40 40" fill="none" xmlns="http://www.w3.org/2000/svg">
    <g filter="url(#filter0_d_574_21076)">
        <circle cx="20" cy="14" r="8" fill="currentcolor" />
        <g clip-path="url(#clip0_574_21076)">
            <path fill-rule="evenodd" clip-rule="evenodd"
                d="M19.7083 8.66753C19.9092 8.54105 20.1359 8.47461 20.3665 8.47461C20.5971 8.47461 20.8237 8.54105 21.0247 8.66753C21.2256 8.79401 21.394 8.97625 21.5136 9.19667L21.5148 9.19904L25.3027 16.269L25.3063 16.276C25.4235 16.5028 25.4854 16.7599 25.4861 17.0218C25.4868 17.2838 25.4261 17.5413 25.3101 17.7688C25.1941 17.9964 25.0268 18.186 24.8249 18.3188C24.623 18.4517 24.3935 18.5231 24.1592 18.526L24.1543 18.526L16.5737 18.526C16.3395 18.5231 16.11 18.4517 15.9081 18.3188C15.7062 18.186 15.5389 17.9964 15.4229 17.7688C15.3069 17.5413 15.2462 17.2838 15.2468 17.0218C15.2475 16.7599 15.3095 16.5028 15.4266 16.276L15.4302 16.269L19.2194 9.19666C19.339 8.97624 19.5073 8.79401 19.7083 8.66753ZM20.3665 9.47461C20.2896 9.47461 20.214 9.49676 20.1471 9.53892C20.0804 9.58088 20.0245 9.64127 19.9846 9.7143L16.1997 16.7789C16.1616 16.8538 16.1415 16.9384 16.1412 17.0246C16.141 17.1119 16.1613 17.1978 16.1999 17.2736C16.2386 17.3495 16.2944 17.4127 16.3617 17.457C16.4284 17.5009 16.5041 17.5246 16.5815 17.526H24.1515C24.2288 17.5246 24.3046 17.5009 24.3713 17.457C24.4386 17.4127 24.4943 17.3495 24.533 17.2736C24.5717 17.1978 24.5919 17.1119 24.5917 17.0246C24.5915 16.9385 24.5713 16.8538 24.5333 16.7789L20.7488 9.7153L20.7483 9.7143C20.7085 9.64127 20.6525 9.58088 20.5859 9.53892C20.5189 9.49676 20.4433 9.47461 20.3665 9.47461ZM20.3665 11.526C20.6135 11.526 20.8137 11.7498 20.8137 12.026V14.026C20.8137 14.3021 20.6135 14.526 20.3665 14.526C20.1195 14.526 19.9193 14.3021 19.9193 14.026V12.026C19.9193 11.7498 20.1195 11.526 20.3665 11.526ZM19.9193 16.026C19.9193 15.7498 20.1195 15.526 20.3665 15.526H20.3709C20.6179 15.526 20.8181 15.7498 20.8181 16.026C20.8181 16.3021 20.6179 16.526 20.3709 16.526H20.3665C20.1195 16.526 19.9193 16.3021 19.9193 16.026Z"
                fill="white" />
        </g>
    </g>
    <defs>
        <filter id="filter0_d_574_21076" x="0" y="0" width="40" height="40" filterUnits="userSpaceOnUse"
            color-interpolation-filters="sRGB">
            <feFlood flood-opacity="0" result="BackgroundImageFix" />
            <feColorMatrix in="SourceAlpha" type="matrix" values="0 0 0 0 0 0 0 0 0 0 0 0 0 0 0 0 0 0 127 0"
                result="hardAlpha" />
            <feOffset dy="6" />
            <feGaussianBlur stdDeviation="6" />
            <feComposite in2="hardAlpha" operator="out" />
            <feColorMatrix type="matrix" values="0 0 0 0 0.580392 0 0 0 0 0.639216 0 0 0 0 0.721569 0 0 0 0.15 0" />
            <feBlend mode="normal" in2="BackgroundImageFix" result="effect1_dropShadow_574_21076" />
            <feBlend mode="normal" in="SourceGraphic" in2="effect1_dropShadow_574_21076" result="shape" />
        </filter>
        <clipPath id="clip0_574_21076">
            <rect width="10.733" height="12" fill="white" transform="translate(15 7.5)" />
        </clipPath>
    </defs>
</svg>