<svg viewBox="0 0 32 32" xmlns="http://www.w3.org/2000/svg">
    <g fill="none" fill-rule="evenodd">
        <path d="M0 0h32v32H0z" />
        <g fill="#00AEFC">
            <path
                d="M29.895 26.926l-2.404-3.821a10.966 10.966 0 01-1.696-5.84v-3.348c0-5.152-4.396-9.346-9.797-9.346-5.402 0-9.798 4.194-9.798 9.346v3.348c0 2.057-.587 4.076-1.695 5.84L2.1 26.925a.641.641 0 00-.01.672c.125.21.358.34.61.34h26.595c.252 0 .485-.13.61-.34a.641.641 0 00-.01-.671zM3.936 26.6l1.768-2.81A12.244 12.244 0 007.6 17.265v-3.348c0-4.418 3.767-8.01 8.399-8.01 4.631 0 8.398 3.592 8.398 8.01v3.348c0 2.299.655 4.555 1.894 6.526l1.769 2.81H3.936z"
                fill-rule="nonzero" />
            <path
                d="M15.998 0c-1.603 0-2.906 1.215-2.906 2.709v2.709c0 .374.326.677.727.677.4 0 .726-.303.726-.677V2.709c0-.748.65-1.354 1.453-1.354.801 0 1.452.606 1.452 1.354v2.709c0 .374.326.677.726.677.401 0 .727-.303.727-.677V2.709C18.903 1.215 17.6 0 15.998 0zM18.967 27.234c-.194-.303-.612-.402-.94-.228-.329.178-.438.568-.246.87.178.28.276.617.276.949 0 1.05-.924 1.905-2.06 1.905-1.135 0-2.059-.855-2.059-1.905 0-.332.098-.668.276-.949.191-.303.081-.692-.245-.87-.331-.174-.749-.075-.94.228a2.975 2.975 0 00-.465 1.59c0 1.752 1.54 3.176 3.432 3.176 1.893 0 3.432-1.424 3.435-3.175 0-.561-.16-1.111-.464-1.591z" />
        </g>
    </g>
</svg>