<svg viewBox="0 0 32 32" xmlns="http://www.w3.org/2000/svg">
    <g fill="none" fill-rule="evenodd">
        <path d="M0 0h32v32H0z" />
        <path
            d="M16 0c2.208 0 4.286.417 6.234 1.25a16.056 16.056 0 015.094 3.422 16.056 16.056 0 013.422 5.094C31.583 11.714 32 13.792 32 16s-.417 4.286-1.25 6.234a16.056 16.056 0 01-3.422 5.094 16.056 16.056 0 01-5.094 3.422C20.286 31.583 18.208 32 16 32s-4.286-.417-6.234-1.25a16.056 16.056 0 01-5.094-3.422 16.056 16.056 0 01-3.422-5.094C.417 20.286 0 18.208 0 16s.417-4.286 1.25-6.234a16.056 16.056 0 013.422-5.094A16.056 16.056 0 019.766 1.25C11.714.417 13.792 0 16 0zm0 30.031c1.938 0 3.755-.37 5.453-1.11a14.129 14.129 0 004.438-3.015 14.456 14.456 0 003-4.453C29.63 19.755 30 17.938 30 16c0-1.938-.37-3.755-1.11-5.453a14.262 14.262 0 00-3-4.438 14.262 14.262 0 00-4.437-3C19.755 2.37 17.938 2 16 2c-1.938 0-3.755.37-5.453 1.11a14.262 14.262 0 00-4.438 3 14.262 14.262 0 00-3 4.437C2.37 12.245 2 14.062 2 16c0 1.938.37 3.755 1.11 5.453a14.456 14.456 0 003 4.453 14.129 14.129 0 004.437 3.016c1.698.74 3.515 1.11 5.453 1.11zm6.375-19.875a.988.988 0 01.719-.312c.27 0 .51.104.718.312a.954.954 0 01.282.703.954.954 0 01-.282.704l-9.968 10.03-.125.126a.907.907 0 01-.703.312.907.907 0 01-.704-.312L7.345 16.78a.954.954 0 01-.282-.703c0-.281.094-.515.282-.703a.988.988 0 01.718-.313c.271 0 .51.105.72.313L13 19.594l9.375-9.438z"
            fill="#67B930" />
    </g>
</svg>