<svg viewBox="0 0 32 32" xmlns="http://www.w3.org/2000/svg">
    <g fill="none" fill-rule="evenodd">
        <path d="M0 0h32v32H0z" />
        <path
            d="M16 0c2.208 0 4.286.417 6.234 1.25a16.056 16.056 0 015.094 3.422 16.056 16.056 0 013.422 5.094C31.583 11.714 32 13.792 32 16s-.417 4.286-1.25 6.234a16.056 16.056 0 01-3.422 5.094 16.056 16.056 0 01-5.094 3.422C20.286 31.583 18.208 32 16 32s-4.286-.417-6.234-1.25a16.056 16.056 0 01-5.094-3.422 16.056 16.056 0 01-3.422-5.094C.417 20.286 0 18.208 0 16s.417-4.286 1.25-6.234a16.056 16.056 0 013.422-5.094A16.056 16.056 0 019.766 1.25C11.714.417 13.792 0 16 0zm0 30.031c1.938 0 3.755-.37 5.453-1.11a14.129 14.129 0 004.438-3.015 14.456 14.456 0 003-4.453C29.63 19.755 30 17.938 30 16c0-1.938-.37-3.755-1.11-5.453a14.262 14.262 0 00-3-4.438 14.262 14.262 0 00-4.437-3C19.755 2.37 17.938 2 16 2c-1.938 0-3.755.37-5.453 1.11a14.262 14.262 0 00-4.438 3 14.262 14.262 0 00-3 4.437C2.37 12.245 2 14.062 2 16c0 1.938.37 3.755 1.11 5.453a14.456 14.456 0 003 4.453 14.129 14.129 0 004.437 3.016c1.698.74 3.515 1.11 5.453 1.11zm1-12.837c0 .117.076.759-.102 1.125-.195.2-.609.496-.89.496s-.374-.038-.561-.246c-.125-.14-.16-.202-.103-.188 0-.02-.151-.112-.016-.047l-.015-.015a.775.775 0 01-.235-.313A1.046 1.046 0 0115 17.6v-10c0-.27.099-.505.297-.703A.961.961 0 0116 6.6c.27 0 .505.099.703.297A.961.961 0 0117 7.6v9.594zm0 6.4c0 .117.076.759-.102 1.125-.195.2-.609.496-.89.496s-.374-.038-.561-.246c-.125-.14-.16-.202-.103-.188 0-.02-.151-.112-.016-.047l-.015-.015a.775.775 0 01-.235-.313A1.046 1.046 0 0115 24v-2c0-.27.099-.505.297-.703A.961.961 0 0116 21c.27 0 .505.099.703.297A.961.961 0 0117 22v1.594z"
            fill="#F5A623" />
    </g>
</svg>