<svg viewBox="0 0 311 359" fill="none" xmlns="http://www.w3.org/2000/svg">
    <path opacity="0.5"
        d="M25.672 350C25.432 350 25.228 349.916 25.06 349.748C24.892 349.58 24.808 349.376 24.808 349.136V325.7C24.808 325.436 24.892 325.22 25.06 325.052C25.228 324.884 25.432 324.8 25.672 324.8H35.32C37.192 324.8 38.824 325.1 40.216 325.7C41.608 326.276 42.688 327.164 43.456 328.364C44.224 329.54 44.608 331.016 44.608 332.792C44.608 334.592 44.224 336.08 43.456 337.256C42.688 338.408 41.608 339.272 40.216 339.848C38.824 340.424 37.192 340.712 35.32 340.712H29.956V349.136C29.956 349.376 29.872 349.58 29.704 349.748C29.56 349.916 29.356 350 29.092 350H25.672ZM29.884 336.716H35.14C36.532 336.716 37.6 336.392 38.344 335.744C39.088 335.072 39.46 334.088 39.46 332.792C39.46 331.592 39.112 330.632 38.416 329.912C37.72 329.168 36.628 328.796 35.14 328.796H29.884V336.716ZM53.1558 350.36C51.9078 350.36 50.7798 350.12 49.7718 349.64C48.7638 349.136 47.9598 348.476 47.3598 347.66C46.7838 346.82 46.4958 345.884 46.4958 344.852C46.4958 343.172 47.1678 341.84 48.5118 340.856C49.8798 339.848 51.6798 339.176 53.9118 338.84L58.8438 338.12V337.364C58.8438 336.356 58.5918 335.576 58.0878 335.024C57.5838 334.472 56.7198 334.196 55.4958 334.196C54.6318 334.196 53.9238 334.376 53.3718 334.736C52.8438 335.072 52.4478 335.528 52.1838 336.104C51.9918 336.416 51.7158 336.572 51.3558 336.572H48.5118C48.2478 336.572 48.0438 336.5 47.8998 336.356C47.7798 336.212 47.7197 336.02 47.7197 335.78C47.7438 335.396 47.8998 334.928 48.1878 334.376C48.4758 333.824 48.9318 333.296 49.5558 332.792C50.1798 332.264 50.9838 331.82 51.9678 331.46C52.9518 331.1 54.1398 330.92 55.5318 330.92C57.0438 330.92 58.3158 331.112 59.3478 331.496C60.4038 331.856 61.2438 332.348 61.8678 332.972C62.4918 333.596 62.9478 334.328 63.2358 335.168C63.5238 336.008 63.6678 336.896 63.6678 337.832V349.136C63.6678 349.376 63.5838 349.58 63.4158 349.748C63.2478 349.916 63.0438 350 62.8038 350H59.8878C59.6238 350 59.4078 349.916 59.2398 349.748C59.0958 349.58 59.0238 349.376 59.0238 349.136V347.732C58.7118 348.188 58.2918 348.62 57.7638 349.028C57.2358 349.412 56.5878 349.736 55.8198 350C55.0758 350.24 54.1878 350.36 53.1558 350.36ZM54.3798 346.94C55.2198 346.94 55.9758 346.76 56.6478 346.4C57.3438 346.04 57.8838 345.488 58.2678 344.744C58.6758 343.976 58.8798 343.016 58.8798 341.864V341.108L55.2798 341.684C53.8638 341.9 52.8078 342.248 52.1118 342.728C51.4158 343.208 51.0678 343.796 51.0678 344.492C51.0678 345.02 51.2238 345.476 51.5358 345.86C51.8718 346.22 52.2918 346.496 52.7958 346.688C53.2998 346.856 53.8278 346.94 54.3798 346.94ZM76.7462 357.92C74.9942 357.92 73.5542 357.692 72.4262 357.236C71.2982 356.78 70.4102 356.228 69.7622 355.58C69.1142 354.932 68.6462 354.284 68.3582 353.636C68.0942 353.012 67.9502 352.52 67.9262 352.16C67.9022 351.92 67.9742 351.704 68.1422 351.512C68.3342 351.344 68.5502 351.26 68.7902 351.26H71.9222C72.1622 351.26 72.3542 351.308 72.4982 351.404C72.6422 351.524 72.7622 351.728 72.8582 352.016C73.0022 352.328 73.1942 352.664 73.4342 353.024C73.6742 353.384 74.0342 353.684 74.5142 353.924C75.0182 354.188 75.7022 354.32 76.5662 354.32C77.4782 354.32 78.2462 354.188 78.8702 353.924C79.4942 353.66 79.9622 353.216 80.2742 352.592C80.6102 351.968 80.7782 351.104 80.7782 350V347.552C80.2022 348.248 79.4582 348.812 78.5462 349.244C77.6582 349.676 76.5542 349.892 75.2342 349.892C73.9382 349.892 72.8222 349.688 71.8862 349.28C70.9502 348.848 70.1702 348.26 69.5462 347.516C68.9222 346.748 68.4422 345.848 68.1062 344.816C67.7942 343.784 67.6142 342.644 67.5662 341.396C67.5422 340.748 67.5422 340.1 67.5662 339.452C67.6142 338.252 67.7942 337.136 68.1062 336.104C68.4182 335.072 68.8862 334.172 69.5102 333.404C70.1582 332.612 70.9502 332 71.8862 331.568C72.8222 331.136 73.9382 330.92 75.2342 330.92C76.6022 330.92 77.7542 331.184 78.6902 331.712C79.6262 332.216 80.3942 332.852 80.9942 333.62V332.18C80.9942 331.916 81.0782 331.7 81.2462 331.532C81.4142 331.364 81.6182 331.28 81.8582 331.28H84.7742C85.0142 331.28 85.2182 331.364 85.3862 331.532C85.5542 331.7 85.6382 331.916 85.6382 332.18L85.6742 349.532C85.6742 351.26 85.3502 352.748 84.7022 353.996C84.0542 355.244 83.0702 356.204 81.7502 356.876C80.4542 357.572 78.7862 357.92 76.7462 357.92ZM76.5662 346.076C77.5502 346.076 78.3422 345.86 78.9422 345.428C79.5422 344.996 79.9862 344.432 80.2742 343.736C80.5622 343.04 80.7302 342.332 80.7782 341.612C80.8022 341.3 80.8142 340.904 80.8142 340.424C80.8142 339.944 80.8022 339.56 80.7782 339.272C80.7302 338.528 80.5622 337.82 80.2742 337.148C79.9862 336.452 79.5422 335.888 78.9422 335.456C78.3422 335 77.5502 334.772 76.5662 334.772C75.5822 334.772 74.7902 335 74.1902 335.456C73.5902 335.888 73.1582 336.464 72.8942 337.184C72.6542 337.904 72.5102 338.696 72.4622 339.56C72.4142 340.136 72.4142 340.724 72.4622 341.324C72.5102 342.164 72.6542 342.956 72.8942 343.7C73.1582 344.42 73.5902 344.996 74.1902 345.428C74.7902 345.86 75.5822 346.076 76.5662 346.076ZM98.5338 350.36C95.8698 350.36 93.7578 349.592 92.1978 348.056C90.6378 346.52 89.7978 344.336 89.6778 341.504C89.6538 341.264 89.6418 340.964 89.6418 340.604C89.6418 340.22 89.6538 339.92 89.6778 339.704C89.7738 337.904 90.1818 336.344 90.9018 335.024C91.6458 333.704 92.6658 332.696 93.9618 332C95.2578 331.28 96.7818 330.92 98.5338 330.92C100.478 330.92 102.11 331.328 103.43 332.144C104.75 332.936 105.746 334.052 106.418 335.492C107.09 336.908 107.426 338.552 107.426 340.424V341.18C107.426 341.42 107.342 341.624 107.174 341.792C107.006 341.96 106.79 342.044 106.526 342.044H94.5738C94.5738 342.044 94.5738 342.08 94.5738 342.152C94.5738 342.224 94.5738 342.284 94.5738 342.332C94.5978 343.172 94.7538 343.952 95.0418 344.672C95.3538 345.368 95.7978 345.932 96.3738 346.364C96.9738 346.796 97.6818 347.012 98.4978 347.012C99.1698 347.012 99.7338 346.916 100.19 346.724C100.646 346.508 101.018 346.268 101.306 346.004C101.594 345.74 101.798 345.524 101.918 345.356C102.134 345.068 102.302 344.9 102.422 344.852C102.566 344.78 102.77 344.744 103.034 344.744H106.13C106.37 344.744 106.562 344.816 106.706 344.96C106.874 345.104 106.946 345.284 106.922 345.5C106.898 345.884 106.694 346.352 106.31 346.904C105.95 347.456 105.422 347.996 104.726 348.524C104.03 349.052 103.154 349.496 102.098 349.856C101.066 350.192 99.8778 350.36 98.5338 350.36ZM94.5738 339.02H102.53V338.912C102.53 337.976 102.374 337.16 102.062 336.464C101.75 335.768 101.294 335.216 100.694 334.808C100.094 334.4 99.3738 334.196 98.5338 334.196C97.6938 334.196 96.9738 334.4 96.3738 334.808C95.7738 335.216 95.3178 335.768 95.0058 336.464C94.7178 337.16 94.5738 337.976 94.5738 338.912V339.02ZM120.338 350C120.098 350 119.894 349.916 119.726 349.748C119.558 349.58 119.474 349.376 119.474 349.136V332.144C119.474 331.904 119.558 331.7 119.726 331.532C119.894 331.364 120.098 331.28 120.338 331.28H123.29C123.53 331.28 123.734 331.364 123.902 331.532C124.07 331.7 124.154 331.904 124.154 332.144V333.62C124.778 332.852 125.57 332.216 126.53 331.712C127.514 331.184 128.726 330.92 130.166 330.92C131.63 330.92 132.902 331.256 133.982 331.928C135.062 332.576 135.89 333.5 136.466 334.7C137.066 335.9 137.366 337.34 137.366 339.02V349.136C137.366 349.376 137.282 349.58 137.114 349.748C136.946 349.916 136.742 350 136.502 350H133.334C133.094 350 132.89 349.916 132.722 349.748C132.554 349.58 132.47 349.376 132.47 349.136V339.236C132.47 337.844 132.122 336.752 131.426 335.96C130.754 335.168 129.77 334.772 128.474 334.772C127.226 334.772 126.23 335.168 125.486 335.96C124.742 336.752 124.37 337.844 124.37 339.236V349.136C124.37 349.376 124.286 349.58 124.118 349.748C123.95 349.916 123.746 350 123.506 350H120.338ZM150.219 350.36C148.299 350.36 146.679 350.024 145.359 349.352C144.063 348.68 143.067 347.732 142.371 346.508C141.699 345.284 141.315 343.856 141.219 342.224C141.195 341.792 141.183 341.264 141.183 340.64C141.183 340.016 141.195 339.488 141.219 339.056C141.315 337.4 141.711 335.972 142.407 334.772C143.127 333.548 144.135 332.6 145.431 331.928C146.751 331.256 148.347 330.92 150.219 330.92C152.091 330.92 153.675 331.256 154.971 331.928C156.291 332.6 157.299 333.548 157.995 334.772C158.715 335.972 159.123 337.4 159.219 339.056C159.243 339.488 159.255 340.016 159.255 340.64C159.255 341.264 159.243 341.792 159.219 342.224C159.123 343.856 158.727 345.284 158.031 346.508C157.359 347.732 156.363 348.68 155.043 349.352C153.747 350.024 152.139 350.36 150.219 350.36ZM150.219 346.796C151.491 346.796 152.475 346.4 153.171 345.608C153.867 344.792 154.251 343.604 154.323 342.044C154.347 341.684 154.359 341.216 154.359 340.64C154.359 340.064 154.347 339.596 154.323 339.236C154.251 337.7 153.867 336.524 153.171 335.708C152.475 334.892 151.491 334.484 150.219 334.484C148.947 334.484 147.963 334.892 147.267 335.708C146.571 336.524 146.187 337.7 146.115 339.236C146.091 339.596 146.079 340.064 146.079 340.64C146.079 341.216 146.091 341.684 146.115 342.044C146.187 343.604 146.571 344.792 147.267 345.608C147.963 346.4 148.947 346.796 150.219 346.796ZM171.563 350C170.123 350 168.911 349.748 167.927 349.244C166.943 348.74 166.211 347.996 165.731 347.012C165.251 346.004 165.011 344.756 165.011 343.268V335.096H162.167C161.927 335.096 161.723 335.012 161.555 334.844C161.387 334.676 161.303 334.472 161.303 334.232V332.144C161.303 331.904 161.387 331.7 161.555 331.532C161.723 331.364 161.927 331.28 162.167 331.28H165.011V325.304C165.011 325.064 165.083 324.86 165.227 324.692C165.395 324.524 165.611 324.44 165.875 324.44H168.791C169.031 324.44 169.235 324.524 169.403 324.692C169.571 324.86 169.655 325.064 169.655 325.304V331.28H174.155C174.395 331.28 174.599 331.364 174.767 331.532C174.935 331.7 175.019 331.904 175.019 332.144V334.232C175.019 334.472 174.935 334.676 174.767 334.844C174.599 335.012 174.395 335.096 174.155 335.096H169.655V342.908C169.655 343.892 169.823 344.66 170.159 345.212C170.519 345.764 171.131 346.04 171.995 346.04H174.479C174.719 346.04 174.923 346.124 175.091 346.292C175.259 346.46 175.343 346.664 175.343 346.904V349.136C175.343 349.376 175.259 349.58 175.091 349.748C174.923 349.916 174.719 350 174.479 350H171.563ZM189.01 350C188.77 350 188.566 349.916 188.398 349.748C188.23 349.58 188.146 349.376 188.146 349.136V335.096H185.23C184.99 335.096 184.786 335.012 184.618 334.844C184.45 334.676 184.366 334.472 184.366 334.232V332.144C184.366 331.904 184.45 331.7 184.618 331.532C184.786 331.364 184.99 331.28 185.23 331.28H188.146V329.804C188.146 328.364 188.41 327.176 188.938 326.24C189.466 325.28 190.246 324.56 191.278 324.08C192.31 323.6 193.618 323.36 195.202 323.36H197.65C197.914 323.36 198.118 323.444 198.262 323.612C198.43 323.78 198.514 323.984 198.514 324.224V326.312C198.514 326.552 198.43 326.756 198.262 326.924C198.118 327.092 197.914 327.176 197.65 327.176H195.346C194.386 327.176 193.726 327.416 193.366 327.896C193.006 328.376 192.826 329.072 192.826 329.984V331.28H197.29C197.554 331.28 197.758 331.364 197.902 331.532C198.07 331.7 198.154 331.904 198.154 332.144V334.232C198.154 334.472 198.07 334.676 197.902 334.844C197.758 335.012 197.554 335.096 197.29 335.096H192.826V349.136C192.826 349.376 192.742 349.58 192.574 349.748C192.406 349.916 192.202 350 191.962 350H189.01ZM209.035 350.36C207.115 350.36 205.495 350.024 204.175 349.352C202.879 348.68 201.883 347.732 201.187 346.508C200.515 345.284 200.131 343.856 200.035 342.224C200.011 341.792 199.999 341.264 199.999 340.64C199.999 340.016 200.011 339.488 200.035 339.056C200.131 337.4 200.527 335.972 201.223 334.772C201.943 333.548 202.951 332.6 204.247 331.928C205.567 331.256 207.163 330.92 209.035 330.92C210.907 330.92 212.491 331.256 213.787 331.928C215.107 332.6 216.115 333.548 216.811 334.772C217.531 335.972 217.939 337.4 218.035 339.056C218.059 339.488 218.071 340.016 218.071 340.64C218.071 341.264 218.059 341.792 218.035 342.224C217.939 343.856 217.543 345.284 216.847 346.508C216.175 347.732 215.179 348.68 213.859 349.352C212.563 350.024 210.955 350.36 209.035 350.36ZM209.035 346.796C210.307 346.796 211.291 346.4 211.987 345.608C212.683 344.792 213.067 343.604 213.139 342.044C213.163 341.684 213.175 341.216 213.175 340.64C213.175 340.064 213.163 339.596 213.139 339.236C213.067 337.7 212.683 336.524 211.987 335.708C211.291 334.892 210.307 334.484 209.035 334.484C207.763 334.484 206.779 334.892 206.083 335.708C205.387 336.524 205.003 337.7 204.931 339.236C204.907 339.596 204.895 340.064 204.895 340.64C204.895 341.216 204.907 341.684 204.931 342.044C205.003 343.604 205.387 344.792 206.083 345.608C206.779 346.4 207.763 346.796 209.035 346.796ZM229.008 350.36C227.544 350.36 226.272 350.036 225.192 349.388C224.136 348.716 223.32 347.78 222.744 346.58C222.168 345.356 221.88 343.916 221.88 342.26V332.144C221.88 331.904 221.964 331.7 222.132 331.532C222.3 331.364 222.504 331.28 222.744 331.28H225.912C226.176 331.28 226.38 331.364 226.524 331.532C226.692 331.7 226.776 331.904 226.776 332.144V342.044C226.776 345.02 228.084 346.508 230.7 346.508C231.948 346.508 232.932 346.112 233.652 345.32C234.396 344.528 234.768 343.436 234.768 342.044V332.144C234.768 331.904 234.852 331.7 235.02 331.532C235.188 331.364 235.392 331.28 235.632 331.28H238.8C239.04 331.28 239.244 331.364 239.412 331.532C239.58 331.7 239.664 331.904 239.664 332.144V349.136C239.664 349.376 239.58 349.58 239.412 349.748C239.244 349.916 239.04 350 238.8 350H235.884C235.62 350 235.404 349.916 235.236 349.748C235.092 349.58 235.02 349.376 235.02 349.136V347.66C234.372 348.5 233.568 349.16 232.608 349.64C231.648 350.12 230.448 350.36 229.008 350.36ZM245.283 350C245.043 350 244.839 349.916 244.671 349.748C244.503 349.58 244.419 349.376 244.419 349.136V332.144C244.419 331.904 244.503 331.7 244.671 331.532C244.839 331.364 245.043 331.28 245.283 331.28H248.235C248.475 331.28 248.679 331.364 248.847 331.532C249.015 331.7 249.099 331.904 249.099 332.144V333.62C249.723 332.852 250.515 332.216 251.475 331.712C252.459 331.184 253.671 330.92 255.111 330.92C256.575 330.92 257.847 331.256 258.927 331.928C260.007 332.576 260.835 333.5 261.411 334.7C262.011 335.9 262.311 337.34 262.311 339.02V349.136C262.311 349.376 262.227 349.58 262.059 349.748C261.891 349.916 261.687 350 261.447 350H258.279C258.039 350 257.835 349.916 257.667 349.748C257.499 349.58 257.415 349.376 257.415 349.136V339.236C257.415 337.844 257.067 336.752 256.371 335.96C255.699 335.168 254.715 334.772 253.419 334.772C252.171 334.772 251.175 335.168 250.431 335.96C249.687 336.752 249.315 337.844 249.315 339.236V349.136C249.315 349.376 249.231 349.58 249.063 349.748C248.895 349.916 248.691 350 248.451 350H245.283ZM273.832 350.36C272.584 350.36 271.48 350.156 270.52 349.748C269.584 349.316 268.804 348.716 268.18 347.948C267.556 347.18 267.076 346.28 266.74 345.248C266.404 344.192 266.212 343.04 266.164 341.792C266.14 341.36 266.128 340.976 266.128 340.64C266.128 340.28 266.14 339.884 266.164 339.452C266.212 338.252 266.392 337.136 266.704 336.104C267.04 335.072 267.52 334.172 268.144 333.404C268.792 332.612 269.584 332 270.52 331.568C271.48 331.136 272.584 330.92 273.832 330.92C275.128 330.92 276.22 331.148 277.108 331.604C278.02 332.036 278.776 332.6 279.376 333.296V325.304C279.376 325.064 279.448 324.86 279.592 324.692C279.76 324.524 279.976 324.44 280.24 324.44H283.3C283.54 324.44 283.744 324.524 283.912 324.692C284.08 324.86 284.164 325.064 284.164 325.304V349.136C284.164 349.376 284.08 349.58 283.912 349.748C283.744 349.916 283.54 350 283.3 350H280.456C280.192 350 279.976 349.916 279.808 349.748C279.664 349.58 279.592 349.376 279.592 349.136V347.804C278.992 348.548 278.224 349.16 277.288 349.64C276.376 350.12 275.224 350.36 273.832 350.36ZM275.164 346.508C276.172 346.508 276.976 346.28 277.576 345.824C278.176 345.368 278.62 344.792 278.908 344.096C279.196 343.376 279.352 342.644 279.376 341.9C279.4 341.468 279.412 341.012 279.412 340.532C279.412 340.028 279.4 339.56 279.376 339.128C279.352 338.408 279.184 337.724 278.872 337.076C278.56 336.404 278.104 335.852 277.504 335.42C276.904 334.988 276.124 334.772 275.164 334.772C274.156 334.772 273.352 335 272.752 335.456C272.176 335.888 271.756 336.464 271.492 337.184C271.228 337.904 271.072 338.696 271.024 339.56C271 340.28 271 341 271.024 341.72C271.072 342.584 271.228 343.376 271.492 344.096C271.756 344.816 272.176 345.404 272.752 345.86C273.352 346.292 274.156 346.508 275.164 346.508Z"
        fill="currentColor" />
    <g opacity="0.5">
        <path
            d="M273.511 281.36C272.422 281.36 271.496 280.979 270.734 280.217C269.972 279.455 269.591 278.529 269.591 277.44V256.534H217.815C216.617 256.534 215.637 256.152 214.875 255.39C214.221 254.628 213.895 253.702 213.895 252.614V241.507C213.895 240.854 214.003 240.091 214.221 239.22C214.548 238.24 215.038 237.369 215.691 236.607L263.874 169.804C265.29 167.953 267.304 167.027 269.918 167.027H287.721C288.81 167.027 289.735 167.408 290.497 168.171C291.26 168.933 291.641 169.858 291.641 170.947V237.26H306.177C307.484 237.26 308.464 237.641 309.117 238.404C309.88 239.057 310.261 239.983 310.261 241.18V252.614C310.261 253.702 309.88 254.628 309.117 255.39C308.355 256.152 307.43 256.534 306.341 256.534H291.641V277.44C291.641 278.529 291.26 279.455 290.497 280.217C289.735 280.979 288.81 281.36 287.721 281.36H273.511ZM236.598 237.914H270.081V190.711L236.598 237.914Z"
            fill="currentColor" />
        <path
            d="M155.223 282.998C147.492 282.998 140.904 281.854 135.46 279.568C130.016 277.281 125.551 274.123 122.067 270.095C118.582 266.066 115.969 261.438 114.227 256.211C112.485 250.876 111.45 245.214 111.124 239.225C111.015 236.285 110.906 233.073 110.797 229.588C110.797 225.995 110.797 222.401 110.797 218.808C110.906 215.215 111.015 211.894 111.124 208.845C111.341 202.856 112.376 197.248 114.227 192.022C116.078 186.686 118.746 182.058 122.23 178.138C125.823 174.218 130.342 171.115 135.787 168.828C141.231 166.542 147.71 165.398 155.223 165.398C162.845 165.398 169.379 166.542 174.823 168.828C180.268 171.115 184.732 174.218 188.216 178.138C191.81 182.058 194.478 186.686 196.22 192.022C198.071 197.248 199.105 202.856 199.323 208.845C199.541 211.894 199.65 215.215 199.65 218.808C199.65 222.401 199.65 225.995 199.65 229.588C199.65 233.073 199.541 236.285 199.323 239.225C199.105 245.214 198.125 250.876 196.383 256.211C194.641 261.438 192.028 266.066 188.543 270.095C185.059 274.123 180.54 277.281 174.987 279.568C169.542 281.854 162.954 282.998 155.223 282.998ZM155.223 264.215C162.301 264.215 167.473 261.928 170.74 257.355C174.115 252.672 175.858 246.357 175.967 238.408C176.184 235.25 176.293 232.093 176.293 228.935C176.293 225.668 176.293 222.401 176.293 219.135C176.293 215.868 176.184 212.765 175.967 209.825C175.858 202.094 174.115 195.887 170.74 191.205C167.473 186.414 162.301 184.018 155.223 184.018C148.254 184.018 143.082 186.414 139.707 191.205C136.44 195.887 134.698 202.094 134.48 209.825C134.48 212.765 134.426 215.868 134.317 219.135C134.317 222.401 134.317 225.668 134.317 228.935C134.426 232.093 134.48 235.25 134.48 238.408C134.698 246.357 136.495 252.672 139.87 257.355C143.246 261.928 148.363 264.215 155.223 264.215Z"
            fill="currentColor" />
        <path
            d="M59.6163 281.36C58.5275 281.36 57.6019 280.979 56.8397 280.217C56.0775 279.455 55.6964 278.529 55.6964 277.44V256.534H3.91998C2.72221 256.534 1.74221 256.152 0.979995 255.39C0.326665 254.628 0 253.702 0 252.614V241.507C0 240.854 0.108888 240.091 0.326665 239.22C0.653329 238.24 1.14333 237.369 1.79666 236.607L49.9797 169.804C51.3953 167.953 53.4097 167.027 56.023 167.027H73.8263C74.9151 167.027 75.8407 167.408 76.6029 168.171C77.3651 168.933 77.7462 169.858 77.7462 170.947V237.26H92.2828C93.5895 237.26 94.5695 237.641 95.2228 238.404C95.985 239.057 96.3661 239.983 96.3661 241.18V252.614C96.3661 253.702 95.985 254.628 95.2228 255.39C94.4606 256.152 93.535 256.534 92.4462 256.534H77.7462V277.44C77.7462 278.529 77.3651 279.455 76.6029 280.217C75.8407 280.979 74.9151 281.36 73.8263 281.36H59.6163ZM22.7032 237.914H56.1864V190.711L22.7032 237.914Z"
            fill="currentColor" />
    </g>
    <g opacity="0.5">
        <path
            d="M204.4 50.6016H105.6C101.403 50.6016 98 54.0042 98 58.2016V134.202C98 138.399 101.403 141.802 105.6 141.802H204.4C208.597 141.802 212 138.399 212 134.202V58.2016C212 54.0042 208.597 50.6016 204.4 50.6016Z"
            stroke="currentColor" stroke-width="10" />
        <path
            d="M128.401 88.5984C132.598 88.5984 136.001 85.1958 136.001 80.9984C136.001 76.8011 132.598 73.3984 128.401 73.3984C124.203 73.3984 120.801 76.8011 120.801 80.9984C120.801 85.1958 124.203 88.5984 128.401 88.5984Z"
            fill="currentColor" />
        <path
            d="M181.6 88.5984C185.797 88.5984 189.2 85.1958 189.2 80.9984C189.2 76.8011 185.797 73.3984 181.6 73.3984C177.403 73.3984 174 76.8011 174 80.9984C174 85.1958 177.403 88.5984 181.6 88.5984Z"
            fill="currentColor" />
        <path
            d="M139.799 103.801C137.784 103.801 135.85 104.601 134.425 106.027C133 107.452 132.199 109.385 132.199 111.401C132.199 113.416 133 115.35 134.425 116.775C135.85 118.2 137.784 119.001 139.799 119.001V103.801ZM170.199 119.001C172.215 119.001 174.148 118.2 175.573 116.775C176.999 115.35 177.799 113.416 177.799 111.401C177.799 109.385 176.999 107.452 175.573 106.027C174.148 104.601 172.215 103.801 170.199 103.801V119.001ZM139.799 119.001L154.999 115.004L170.199 119.001V103.801C170.199 103.801 161.584 103.801 154.999 103.801C148.415 103.801 139.799 103.801 139.799 103.801V119.001Z"
            fill="currentColor" />
        <path d="M155 20.1992V50.5992M79 80.9992V111.399M231 80.9992V111.399" stroke="currentColor" stroke-width="10"
            stroke-linecap="round" stroke-linejoin="round" />
        <path
            d="M154.998 20.2C159.196 20.2 162.598 16.7974 162.598 12.6C162.598 8.40264 159.196 5 154.998 5C150.801 5 147.398 8.40264 147.398 12.6C147.398 16.7974 150.801 20.2 154.998 20.2Z"
            stroke="currentColor" stroke-width="10" />
    </g>
</svg>