<svg width="318" height="151" viewBox="0 0 318 151" fill="none" xmlns="http://www.w3.org/2000/svg">
<rect width="318" height="151" rx="4" fill="#F1FFFF"/>
<g clip-path="url(#clip0_2682_35684)">
<path d="M103.5 100C116.701 100 127.403 89.2548 127.403 76C127.403 62.7452 116.701 52 103.5 52C90.2991 52 79.5977 62.7452 79.5977 76C79.5977 89.2548 90.2991 100 103.5 100Z" fill="#4CC3C7"/>
<path d="M103 64.1387L116 69.3387V71.072H114.267C114.267 71.3067 114.174 71.5098 113.989 71.6814C113.804 71.8529 113.585 71.9387 113.332 71.9387H92.6677C92.4149 71.9387 92.196 71.8529 92.0109 71.6814C91.8259 71.5098 91.7333 71.3067 91.7333 71.072H90V69.3387L103 64.1387ZM93.4667 72.8053H96.9333V83.2053H98.6667V72.8053H102.133V83.2053H103.867V72.8053H107.333V83.2053H109.067V72.8053H112.533V83.2053H113.332C113.585 83.2053 113.804 83.2911 113.989 83.4626C114.174 83.6342 114.267 83.8373 114.267 84.072V84.9387H91.7333V84.072C91.7333 83.8373 91.8259 83.6342 92.0109 83.4626C92.196 83.2911 92.4149 83.2053 92.6677 83.2053H93.4667V72.8053ZM115.066 85.8053C115.318 85.8053 115.537 85.8911 115.722 86.0626C115.907 86.2342 116 86.4373 116 86.672V88.4053H90V86.672C90 86.4373 90.0925 86.2342 90.2776 86.0626C90.4627 85.8911 90.6816 85.8053 90.9344 85.8053H115.066Z" fill="white"/>
</g>
<circle cx="214" cy="76" r="24" fill="#101828"/>
<path d="M227.499 62.5V89.4797H206.5V86.4828H224.5V62.5H227.499Z" fill="white"/>
<path d="M215.499 74.4927H203.5V65.4969H215.499V62.5H200.5V65.4969H200.501V74.4927H200.5V77.4896H200.501V89.5H203.5V77.4896H215.499V74.4927Z" fill="white"/>
<path d="M221.499 80.4862V71.491V68.4941H206.5V71.491H218.5V80.4862H206.5V83.4837H221.499V80.4862Z" fill="#4CC3C7"/>
<path d="M220.002 65.4975C220.83 65.4975 221.501 64.8265 221.501 63.9988C221.501 63.171 220.83 62.5 220.002 62.5C219.173 62.5 218.502 63.171 218.502 63.9988C218.502 64.8265 219.173 65.4975 220.002 65.4975Z" fill="#4CC3C7"/>
<path d="M155.333 76.0007C155.333 75.7575 155.43 75.5244 155.601 75.3525C155.773 75.1806 156.007 75.084 156.25 75.084H161.75C161.993 75.084 162.226 75.1806 162.398 75.3525C162.57 75.5244 162.666 75.7575 162.666 76.0007C162.666 76.2438 162.57 76.4769 162.398 76.6488C162.226 76.8207 161.993 76.9173 161.75 76.9173H156.25C156.007 76.9173 155.773 76.8207 155.601 76.6488C155.43 76.4769 155.333 76.2438 155.333 76.0007ZM157.166 73.2507H154.416C153.687 73.2507 152.988 73.5404 152.472 74.0561C151.956 74.5718 151.666 75.2713 151.666 76.0007C151.666 76.73 151.956 77.4295 152.472 77.9452C152.988 78.4609 153.687 78.7507 154.416 78.7507H157.166C157.409 78.7507 157.643 78.8472 157.815 79.0191C157.986 79.191 158.083 79.4242 158.083 79.6673C158.083 79.9104 157.986 80.1436 157.815 80.3155C157.643 80.4874 157.409 80.584 157.166 80.584H154.416C153.201 80.584 152.035 80.1011 151.175 79.2416C150.316 78.382 149.833 77.2162 149.833 76.0007C149.833 74.7851 150.316 73.6193 151.175 72.7597C152.035 71.9002 153.201 71.4173 154.416 71.4173H157.166C157.409 71.4173 157.643 71.5139 157.815 71.6858C157.986 71.8577 158.083 72.0909 158.083 72.334C158.083 72.5771 157.986 72.8103 157.815 72.9822C157.643 73.1541 157.409 73.2507 157.166 73.2507ZM163.583 80.584H160.833C160.59 80.584 160.357 80.4874 160.185 80.3155C160.013 80.1436 159.916 79.9104 159.916 79.6673C159.916 79.4242 160.013 79.191 160.185 79.0191C160.357 78.8472 160.59 78.7507 160.833 78.7507H163.583C164.312 78.7507 165.012 78.4609 165.528 77.9452C166.043 77.4295 166.333 76.73 166.333 76.0007C166.333 75.2713 166.043 74.5718 165.528 74.0561C165.012 73.5404 164.312 73.2507 163.583 73.2507H160.833C160.59 73.2507 160.357 73.1541 160.185 72.9822C160.013 72.8103 159.916 72.5771 159.916 72.334C159.916 72.0909 160.013 71.8577 160.185 71.6858C160.357 71.5139 160.59 71.4173 160.833 71.4173H163.583C164.799 71.4173 165.964 71.9002 166.824 72.7597C167.683 73.6193 168.166 74.7851 168.166 76.0007C168.166 77.2162 167.683 78.382 166.824 79.2416C165.964 80.1011 164.799 80.584 163.583 80.584Z" fill="black"/>
<defs>
<clipPath id="clip0_2682_35684">
<rect width="49" height="48" fill="white" transform="translate(79 52)"/>
</clipPath>
</defs>
</svg>
