<svg width="148" height="148" viewBox="0 0 148 148" fill="none" xmlns="http://www.w3.org/2000/svg">
<rect width="148" height="148" rx="74" fill="#4CC3C7" fill-opacity="0.2"/>
<mask id="path-2-outside-1_2692_45530" maskUnits="userSpaceOnUse" x="4.875" y="59.377" width="48" height="37" fill="black">
<rect fill="white" x="4.875" y="59.377" width="48" height="37"/>
<path d="M11.6833 61.377H46.3198L50.125 71.1198C50.1084 71.5012 49.9881 71.872 49.7758 72.1963C49.5635 72.5206 49.2664 72.7873 48.9134 72.9707C48.5603 73.1542 48.1633 73.248 47.7607 73.2431C47.3582 73.2382 46.9638 73.1348 46.6158 72.9428C46.2585 72.7476 45.9618 72.4666 45.7556 72.128C45.5494 71.7895 45.441 71.4054 45.4413 71.0144C45.4413 70.9892 45.4413 70.964 45.4382 70.9402C45.4282 70.8414 45.3977 70.7455 45.3483 70.658C45.299 70.5705 45.2318 70.4932 45.1506 70.4305C45.0695 70.3678 44.976 70.321 44.8757 70.2928C44.7753 70.2646 44.6701 70.2556 44.566 70.2662C44.4496 70.2801 44.338 70.3183 44.2391 70.3782C44.1403 70.438 44.0567 70.5179 43.9944 70.6121L43.9913 70.6151C43.9179 70.7374 43.8781 70.8752 43.8754 71.0159C43.8761 71.407 43.768 71.7914 43.5619 72.1302C43.3559 72.469 43.0592 72.7504 42.7019 72.9458C42.3445 73.1412 41.9391 73.2439 41.5266 73.2433C41.114 73.2428 40.7089 73.1392 40.3521 72.9428C39.9951 72.7478 39.6985 72.4669 39.4923 72.1287C39.2862 71.7904 39.1776 71.4066 39.1777 71.0159C39.1777 70.9907 39.1777 70.9655 39.1745 70.9402C39.1644 70.8416 39.1337 70.7458 39.0842 70.6585C39.0348 70.5711 38.9676 70.494 38.8865 70.4314C38.8053 70.3689 38.712 70.3222 38.6117 70.2941C38.5114 70.266 38.4063 70.2571 38.3023 70.2677C38.1861 70.2814 38.0745 70.3194 37.9757 70.379C37.8768 70.4386 37.7932 70.5182 37.7308 70.6121L37.7276 70.6151C37.6537 70.7373 37.6133 70.8751 37.6102 71.0159C37.6111 71.4072 37.5032 71.7917 37.2973 72.1307C37.0913 72.4698 36.7947 72.7513 36.4373 72.9469C36.0799 73.1425 35.6744 73.2453 35.2617 73.2448C34.849 73.2444 34.4438 73.1407 34.0869 72.9443C33.7294 72.749 33.4325 72.4677 33.2263 72.1289C33.0201 71.79 32.9119 71.4056 32.9124 71.0144C32.9124 70.9907 32.9124 70.9655 32.9093 70.9402C32.8991 70.8417 32.8685 70.7461 32.8192 70.6589C32.7698 70.5716 32.7027 70.4945 32.6218 70.432C32.5408 70.3695 32.4476 70.3228 32.3475 70.2946C32.2475 70.2664 32.1425 70.2573 32.0387 70.2677C31.922 70.2814 31.8101 70.3195 31.7109 70.3794C31.6118 70.4392 31.528 70.5192 31.4655 70.6136L31.4624 70.6166C31.389 70.7389 31.3492 70.8767 31.3465 71.0174C31.3472 71.4085 31.2391 71.7929 31.033 72.1317C30.827 72.4705 30.5303 72.7518 30.173 72.9473C29.8156 73.1427 29.4102 73.2454 28.9977 73.2448C28.5851 73.2443 28.18 73.1407 27.8232 72.9443C27.4659 72.7491 27.1692 72.4681 26.9631 72.1295C26.7569 71.791 26.6485 71.4069 26.6488 71.0159C26.6488 70.9907 26.6488 70.9655 26.6456 70.9417C26.6357 70.8429 26.6051 70.747 26.5558 70.6595C26.5064 70.572 26.4392 70.4947 26.3581 70.432C26.2769 70.3693 26.1835 70.3225 26.0831 70.2943C25.9828 70.2661 25.8775 70.2571 25.7734 70.2677C25.6571 70.2816 25.5454 70.3198 25.4466 70.3797C25.3477 70.4395 25.2641 70.5194 25.2019 70.6136L25.1987 70.6166C25.1254 70.7389 25.0855 70.8767 25.0829 71.0174C25.0838 71.4086 24.9759 71.7932 24.7699 72.1322C24.564 72.4713 24.2674 72.7528 23.91 72.9484C23.5526 73.144 23.1471 73.2468 22.7344 73.2463C22.3217 73.2459 21.9165 73.1422 21.5595 72.9458C21.202 72.7505 20.9052 72.4692 20.699 72.1304C20.4928 71.7915 20.3845 71.4071 20.3851 71.0159C20.3851 70.9922 20.3851 70.9669 20.382 70.9417C20.3718 70.8431 20.3411 70.7473 20.2917 70.66C20.2422 70.5726 20.175 70.4955 20.0939 70.4329C20.0128 70.3704 19.9194 70.3237 19.8191 70.2956C19.7189 70.2675 19.6137 70.2585 19.5098 70.2692C19.3935 70.2829 19.282 70.3209 19.1831 70.3805C19.0843 70.44 19.0006 70.5197 18.9382 70.6136L18.9351 70.6166C18.8612 70.7388 18.8208 70.8766 18.8176 71.0174C18.8186 71.4086 18.7106 71.7932 18.5047 72.1322C18.2988 72.4713 18.0021 72.7528 17.6447 72.9484C17.2873 73.144 16.8818 73.2468 16.4692 73.2463C16.0565 73.2459 15.6512 73.1422 15.2943 72.9458C14.937 72.7506 14.6403 72.4696 14.4342 72.131C14.228 71.7924 14.1196 71.4083 14.1199 71.0174C14.1266 70.916 14.1114 70.8143 14.0751 70.7187C14.0388 70.6231 13.9823 70.5355 13.9089 70.4614C13.8355 70.3873 13.7469 70.3283 13.6486 70.2879C13.5502 70.2475 13.4441 70.2267 13.3369 70.2267C13.2297 70.2267 13.1237 70.2475 13.0253 70.2879C12.9269 70.3283 12.8383 70.3873 12.7649 70.4614C12.6916 70.5355 12.635 70.6231 12.5987 70.7187C12.5624 70.8143 12.5472 70.916 12.554 71.0174C12.5552 71.4088 12.4474 71.7935 12.2416 72.1327C12.0358 72.472 11.7392 72.7537 11.3817 72.9495C11.0243 73.1453 10.6187 73.2482 10.2059 73.2478C9.79307 73.2474 9.38767 73.1438 9.03065 72.9473C8.69257 72.7585 8.40971 72.4926 8.20786 72.1736C8.006 71.8547 7.89157 71.4929 7.875 71.1213L11.6833 61.377ZM13.34 73.1893C13.6564 73.599 14.0353 73.9686 14.5145 74.2299C15.1097 74.5554 15.7848 74.7267 16.4719 74.7267C17.159 74.7267 17.8341 74.5554 18.4293 74.2299C18.9084 73.9686 19.2874 73.599 19.6037 73.1893C19.92 73.599 20.299 73.9686 20.7782 74.2299C21.3734 74.5554 22.0484 74.7267 22.7356 74.7267C23.4227 74.7267 24.0977 74.5554 24.6929 74.2299C25.1721 73.9686 25.5511 73.599 25.8674 73.1893C26.1837 73.599 26.5627 73.9686 27.0418 74.2299C27.637 74.5554 28.3121 74.7267 28.9992 74.7267C29.6863 74.7267 30.3614 74.5554 30.9566 74.2299C31.4358 73.9686 31.8147 73.599 32.1311 73.1893C32.4474 73.599 32.8263 73.9686 33.3055 74.2299C33.9007 74.5554 34.5758 74.7267 35.2629 74.7267C35.95 74.7267 36.6251 74.5554 37.2203 74.2299C37.6995 73.9686 38.0784 73.599 38.3947 73.1893C38.711 73.599 39.09 73.9686 39.5692 74.2299C40.1644 74.5554 40.8394 74.7267 41.5266 74.7267C42.2137 74.7267 42.8887 74.5554 43.4839 74.2299C43.9631 73.9686 44.3421 73.599 44.6584 73.1893C44.8776 73.4743 45.1391 73.7252 45.4413 73.9434V94.0364H23.5185V84.3781C23.5108 84.1836 23.4258 83.999 23.2806 83.8614C23.1354 83.7237 22.9407 83.6432 22.7356 83.6358H16.4719C16.2667 83.6432 16.072 83.7237 15.9268 83.8614C15.7817 83.999 15.6967 84.1836 15.6889 84.3781V94.0364H12.5571V73.9434C12.8593 73.7252 13.1208 73.4743 13.34 73.1893ZM30.5651 79.1912C30.36 79.1985 30.1653 79.2791 30.0201 79.4167C29.8749 79.5544 29.7899 79.7389 29.7822 79.9334V88.8405C29.7822 89.2295 30.1549 89.5828 30.5651 89.5828H41.5266C41.7317 89.5755 41.9264 89.4949 42.0716 89.3573C42.2168 89.2196 42.3018 89.0351 42.3095 88.8405V79.9334C42.3018 79.7389 42.2168 79.5544 42.0716 79.4167C41.9264 79.2791 41.7317 79.1985 41.5266 79.1912H30.5651Z"/>
</mask>
<path d="M11.6833 61.377H46.3198L50.125 71.1198C50.1084 71.5012 49.9881 71.872 49.7758 72.1963C49.5635 72.5206 49.2664 72.7873 48.9134 72.9707C48.5603 73.1542 48.1633 73.248 47.7607 73.2431C47.3582 73.2382 46.9638 73.1348 46.6158 72.9428C46.2585 72.7476 45.9618 72.4666 45.7556 72.128C45.5494 71.7895 45.441 71.4054 45.4413 71.0144C45.4413 70.9892 45.4413 70.964 45.4382 70.9402C45.4282 70.8414 45.3977 70.7455 45.3483 70.658C45.299 70.5705 45.2318 70.4932 45.1506 70.4305C45.0695 70.3678 44.976 70.321 44.8757 70.2928C44.7753 70.2646 44.6701 70.2556 44.566 70.2662C44.4496 70.2801 44.338 70.3183 44.2391 70.3782C44.1403 70.438 44.0567 70.5179 43.9944 70.6121L43.9913 70.6151C43.9179 70.7374 43.8781 70.8752 43.8754 71.0159C43.8761 71.407 43.768 71.7914 43.5619 72.1302C43.3559 72.469 43.0592 72.7504 42.7019 72.9458C42.3445 73.1412 41.9391 73.2439 41.5266 73.2433C41.114 73.2428 40.7089 73.1392 40.3521 72.9428C39.9951 72.7478 39.6985 72.4669 39.4923 72.1287C39.2862 71.7904 39.1776 71.4066 39.1777 71.0159C39.1777 70.9907 39.1777 70.9655 39.1745 70.9402C39.1644 70.8416 39.1337 70.7458 39.0842 70.6585C39.0348 70.5711 38.9676 70.494 38.8865 70.4314C38.8053 70.3689 38.712 70.3222 38.6117 70.2941C38.5114 70.266 38.4063 70.2571 38.3023 70.2677C38.1861 70.2814 38.0745 70.3194 37.9757 70.379C37.8768 70.4386 37.7932 70.5182 37.7308 70.6121L37.7276 70.6151C37.6537 70.7373 37.6133 70.8751 37.6102 71.0159C37.6111 71.4072 37.5032 71.7917 37.2973 72.1307C37.0913 72.4698 36.7947 72.7513 36.4373 72.9469C36.0799 73.1425 35.6744 73.2453 35.2617 73.2448C34.849 73.2444 34.4438 73.1407 34.0869 72.9443C33.7294 72.749 33.4325 72.4677 33.2263 72.1289C33.0201 71.79 32.9119 71.4056 32.9124 71.0144C32.9124 70.9907 32.9124 70.9655 32.9093 70.9402C32.8991 70.8417 32.8685 70.7461 32.8192 70.6589C32.7698 70.5716 32.7027 70.4945 32.6218 70.432C32.5408 70.3695 32.4476 70.3228 32.3475 70.2946C32.2475 70.2664 32.1425 70.2573 32.0387 70.2677C31.922 70.2814 31.8101 70.3195 31.7109 70.3794C31.6118 70.4392 31.528 70.5192 31.4655 70.6136L31.4624 70.6166C31.389 70.7389 31.3492 70.8767 31.3465 71.0174C31.3472 71.4085 31.2391 71.7929 31.033 72.1317C30.827 72.4705 30.5303 72.7518 30.173 72.9473C29.8156 73.1427 29.4102 73.2454 28.9977 73.2448C28.5851 73.2443 28.18 73.1407 27.8232 72.9443C27.4659 72.7491 27.1692 72.4681 26.9631 72.1295C26.7569 71.791 26.6485 71.4069 26.6488 71.0159C26.6488 70.9907 26.6488 70.9655 26.6456 70.9417C26.6357 70.8429 26.6051 70.747 26.5558 70.6595C26.5064 70.572 26.4392 70.4947 26.3581 70.432C26.2769 70.3693 26.1835 70.3225 26.0831 70.2943C25.9828 70.2661 25.8775 70.2571 25.7734 70.2677C25.6571 70.2816 25.5454 70.3198 25.4466 70.3797C25.3477 70.4395 25.2641 70.5194 25.2019 70.6136L25.1987 70.6166C25.1254 70.7389 25.0855 70.8767 25.0829 71.0174C25.0838 71.4086 24.9759 71.7932 24.7699 72.1322C24.564 72.4713 24.2674 72.7528 23.91 72.9484C23.5526 73.144 23.1471 73.2468 22.7344 73.2463C22.3217 73.2459 21.9165 73.1422 21.5595 72.9458C21.202 72.7505 20.9052 72.4692 20.699 72.1304C20.4928 71.7915 20.3845 71.4071 20.3851 71.0159C20.3851 70.9922 20.3851 70.9669 20.382 70.9417C20.3718 70.8431 20.3411 70.7473 20.2917 70.66C20.2422 70.5726 20.175 70.4955 20.0939 70.4329C20.0128 70.3704 19.9194 70.3237 19.8191 70.2956C19.7189 70.2675 19.6137 70.2585 19.5098 70.2692C19.3935 70.2829 19.282 70.3209 19.1831 70.3805C19.0843 70.44 19.0006 70.5197 18.9382 70.6136L18.9351 70.6166C18.8612 70.7388 18.8208 70.8766 18.8176 71.0174C18.8186 71.4086 18.7106 71.7932 18.5047 72.1322C18.2988 72.4713 18.0021 72.7528 17.6447 72.9484C17.2873 73.144 16.8818 73.2468 16.4692 73.2463C16.0565 73.2459 15.6512 73.1422 15.2943 72.9458C14.937 72.7506 14.6403 72.4696 14.4342 72.131C14.228 71.7924 14.1196 71.4083 14.1199 71.0174C14.1266 70.916 14.1114 70.8143 14.0751 70.7187C14.0388 70.6231 13.9823 70.5355 13.9089 70.4614C13.8355 70.3873 13.7469 70.3283 13.6486 70.2879C13.5502 70.2475 13.4441 70.2267 13.3369 70.2267C13.2297 70.2267 13.1237 70.2475 13.0253 70.2879C12.9269 70.3283 12.8383 70.3873 12.7649 70.4614C12.6916 70.5355 12.635 70.6231 12.5987 70.7187C12.5624 70.8143 12.5472 70.916 12.554 71.0174C12.5552 71.4088 12.4474 71.7935 12.2416 72.1327C12.0358 72.472 11.7392 72.7537 11.3817 72.9495C11.0243 73.1453 10.6187 73.2482 10.2059 73.2478C9.79307 73.2474 9.38767 73.1438 9.03065 72.9473C8.69257 72.7585 8.40971 72.4926 8.20786 72.1736C8.006 71.8547 7.89157 71.4929 7.875 71.1213L11.6833 61.377ZM13.34 73.1893C13.6564 73.599 14.0353 73.9686 14.5145 74.2299C15.1097 74.5554 15.7848 74.7267 16.4719 74.7267C17.159 74.7267 17.8341 74.5554 18.4293 74.2299C18.9084 73.9686 19.2874 73.599 19.6037 73.1893C19.92 73.599 20.299 73.9686 20.7782 74.2299C21.3734 74.5554 22.0484 74.7267 22.7356 74.7267C23.4227 74.7267 24.0977 74.5554 24.6929 74.2299C25.1721 73.9686 25.5511 73.599 25.8674 73.1893C26.1837 73.599 26.5627 73.9686 27.0418 74.2299C27.637 74.5554 28.3121 74.7267 28.9992 74.7267C29.6863 74.7267 30.3614 74.5554 30.9566 74.2299C31.4358 73.9686 31.8147 73.599 32.1311 73.1893C32.4474 73.599 32.8263 73.9686 33.3055 74.2299C33.9007 74.5554 34.5758 74.7267 35.2629 74.7267C35.95 74.7267 36.6251 74.5554 37.2203 74.2299C37.6995 73.9686 38.0784 73.599 38.3947 73.1893C38.711 73.599 39.09 73.9686 39.5692 74.2299C40.1644 74.5554 40.8394 74.7267 41.5266 74.7267C42.2137 74.7267 42.8887 74.5554 43.4839 74.2299C43.9631 73.9686 44.3421 73.599 44.6584 73.1893C44.8776 73.4743 45.1391 73.7252 45.4413 73.9434V94.0364H23.5185V84.3781C23.5108 84.1836 23.4258 83.999 23.2806 83.8614C23.1354 83.7237 22.9407 83.6432 22.7356 83.6358H16.4719C16.2667 83.6432 16.072 83.7237 15.9268 83.8614C15.7817 83.999 15.6967 84.1836 15.6889 84.3781V94.0364H12.5571V73.9434C12.8593 73.7252 13.1208 73.4743 13.34 73.1893ZM30.5651 79.1912C30.36 79.1985 30.1653 79.2791 30.0201 79.4167C29.8749 79.5544 29.7899 79.7389 29.7822 79.9334V88.8405C29.7822 89.2295 30.1549 89.5828 30.5651 89.5828H41.5266C41.7317 89.5755 41.9264 89.4949 42.0716 89.3573C42.2168 89.2196 42.3018 89.0351 42.3095 88.8405V79.9334C42.3018 79.7389 42.2168 79.5544 42.0716 79.4167C41.9264 79.2791 41.7317 79.1985 41.5266 79.1912H30.5651Z" fill="#F8F9F9"/>
<path d="M11.6833 61.377H46.3198L50.125 71.1198C50.1084 71.5012 49.9881 71.872 49.7758 72.1963C49.5635 72.5206 49.2664 72.7873 48.9134 72.9707C48.5603 73.1542 48.1633 73.248 47.7607 73.2431C47.3582 73.2382 46.9638 73.1348 46.6158 72.9428C46.2585 72.7476 45.9618 72.4666 45.7556 72.128C45.5494 71.7895 45.441 71.4054 45.4413 71.0144C45.4413 70.9892 45.4413 70.964 45.4382 70.9402C45.4282 70.8414 45.3977 70.7455 45.3483 70.658C45.299 70.5705 45.2318 70.4932 45.1506 70.4305C45.0695 70.3678 44.976 70.321 44.8757 70.2928C44.7753 70.2646 44.6701 70.2556 44.566 70.2662C44.4496 70.2801 44.338 70.3183 44.2391 70.3782C44.1403 70.438 44.0567 70.5179 43.9944 70.6121L43.9913 70.6151C43.9179 70.7374 43.8781 70.8752 43.8754 71.0159C43.8761 71.407 43.768 71.7914 43.5619 72.1302C43.3559 72.469 43.0592 72.7504 42.7019 72.9458C42.3445 73.1412 41.9391 73.2439 41.5266 73.2433C41.114 73.2428 40.7089 73.1392 40.3521 72.9428C39.9951 72.7478 39.6985 72.4669 39.4923 72.1287C39.2862 71.7904 39.1776 71.4066 39.1777 71.0159C39.1777 70.9907 39.1777 70.9655 39.1745 70.9402C39.1644 70.8416 39.1337 70.7458 39.0842 70.6585C39.0348 70.5711 38.9676 70.494 38.8865 70.4314C38.8053 70.3689 38.712 70.3222 38.6117 70.2941C38.5114 70.266 38.4063 70.2571 38.3023 70.2677C38.1861 70.2814 38.0745 70.3194 37.9757 70.379C37.8768 70.4386 37.7932 70.5182 37.7308 70.6121L37.7276 70.6151C37.6537 70.7373 37.6133 70.8751 37.6102 71.0159C37.6111 71.4072 37.5032 71.7917 37.2973 72.1307C37.0913 72.4698 36.7947 72.7513 36.4373 72.9469C36.0799 73.1425 35.6744 73.2453 35.2617 73.2448C34.849 73.2444 34.4438 73.1407 34.0869 72.9443C33.7294 72.749 33.4325 72.4677 33.2263 72.1289C33.0201 71.79 32.9119 71.4056 32.9124 71.0144C32.9124 70.9907 32.9124 70.9655 32.9093 70.9402C32.8991 70.8417 32.8685 70.7461 32.8192 70.6589C32.7698 70.5716 32.7027 70.4945 32.6218 70.432C32.5408 70.3695 32.4476 70.3228 32.3475 70.2946C32.2475 70.2664 32.1425 70.2573 32.0387 70.2677C31.922 70.2814 31.8101 70.3195 31.7109 70.3794C31.6118 70.4392 31.528 70.5192 31.4655 70.6136L31.4624 70.6166C31.389 70.7389 31.3492 70.8767 31.3465 71.0174C31.3472 71.4085 31.2391 71.7929 31.033 72.1317C30.827 72.4705 30.5303 72.7518 30.173 72.9473C29.8156 73.1427 29.4102 73.2454 28.9977 73.2448C28.5851 73.2443 28.18 73.1407 27.8232 72.9443C27.4659 72.7491 27.1692 72.4681 26.9631 72.1295C26.7569 71.791 26.6485 71.4069 26.6488 71.0159C26.6488 70.9907 26.6488 70.9655 26.6456 70.9417C26.6357 70.8429 26.6051 70.747 26.5558 70.6595C26.5064 70.572 26.4392 70.4947 26.3581 70.432C26.2769 70.3693 26.1835 70.3225 26.0831 70.2943C25.9828 70.2661 25.8775 70.2571 25.7734 70.2677C25.6571 70.2816 25.5454 70.3198 25.4466 70.3797C25.3477 70.4395 25.2641 70.5194 25.2019 70.6136L25.1987 70.6166C25.1254 70.7389 25.0855 70.8767 25.0829 71.0174C25.0838 71.4086 24.9759 71.7932 24.7699 72.1322C24.564 72.4713 24.2674 72.7528 23.91 72.9484C23.5526 73.144 23.1471 73.2468 22.7344 73.2463C22.3217 73.2459 21.9165 73.1422 21.5595 72.9458C21.202 72.7505 20.9052 72.4692 20.699 72.1304C20.4928 71.7915 20.3845 71.4071 20.3851 71.0159C20.3851 70.9922 20.3851 70.9669 20.382 70.9417C20.3718 70.8431 20.3411 70.7473 20.2917 70.66C20.2422 70.5726 20.175 70.4955 20.0939 70.4329C20.0128 70.3704 19.9194 70.3237 19.8191 70.2956C19.7189 70.2675 19.6137 70.2585 19.5098 70.2692C19.3935 70.2829 19.282 70.3209 19.1831 70.3805C19.0843 70.44 19.0006 70.5197 18.9382 70.6136L18.9351 70.6166C18.8612 70.7388 18.8208 70.8766 18.8176 71.0174C18.8186 71.4086 18.7106 71.7932 18.5047 72.1322C18.2988 72.4713 18.0021 72.7528 17.6447 72.9484C17.2873 73.144 16.8818 73.2468 16.4692 73.2463C16.0565 73.2459 15.6512 73.1422 15.2943 72.9458C14.937 72.7506 14.6403 72.4696 14.4342 72.131C14.228 71.7924 14.1196 71.4083 14.1199 71.0174C14.1266 70.916 14.1114 70.8143 14.0751 70.7187C14.0388 70.6231 13.9823 70.5355 13.9089 70.4614C13.8355 70.3873 13.7469 70.3283 13.6486 70.2879C13.5502 70.2475 13.4441 70.2267 13.3369 70.2267C13.2297 70.2267 13.1237 70.2475 13.0253 70.2879C12.9269 70.3283 12.8383 70.3873 12.7649 70.4614C12.6916 70.5355 12.635 70.6231 12.5987 70.7187C12.5624 70.8143 12.5472 70.916 12.554 71.0174C12.5552 71.4088 12.4474 71.7935 12.2416 72.1327C12.0358 72.472 11.7392 72.7537 11.3817 72.9495C11.0243 73.1453 10.6187 73.2482 10.2059 73.2478C9.79307 73.2474 9.38767 73.1438 9.03065 72.9473C8.69257 72.7585 8.40971 72.4926 8.20786 72.1736C8.006 71.8547 7.89157 71.4929 7.875 71.1213L11.6833 61.377ZM13.34 73.1893C13.6564 73.599 14.0353 73.9686 14.5145 74.2299C15.1097 74.5554 15.7848 74.7267 16.4719 74.7267C17.159 74.7267 17.8341 74.5554 18.4293 74.2299C18.9084 73.9686 19.2874 73.599 19.6037 73.1893C19.92 73.599 20.299 73.9686 20.7782 74.2299C21.3734 74.5554 22.0484 74.7267 22.7356 74.7267C23.4227 74.7267 24.0977 74.5554 24.6929 74.2299C25.1721 73.9686 25.5511 73.599 25.8674 73.1893C26.1837 73.599 26.5627 73.9686 27.0418 74.2299C27.637 74.5554 28.3121 74.7267 28.9992 74.7267C29.6863 74.7267 30.3614 74.5554 30.9566 74.2299C31.4358 73.9686 31.8147 73.599 32.1311 73.1893C32.4474 73.599 32.8263 73.9686 33.3055 74.2299C33.9007 74.5554 34.5758 74.7267 35.2629 74.7267C35.95 74.7267 36.6251 74.5554 37.2203 74.2299C37.6995 73.9686 38.0784 73.599 38.3947 73.1893C38.711 73.599 39.09 73.9686 39.5692 74.2299C40.1644 74.5554 40.8394 74.7267 41.5266 74.7267C42.2137 74.7267 42.8887 74.5554 43.4839 74.2299C43.9631 73.9686 44.3421 73.599 44.6584 73.1893C44.8776 73.4743 45.1391 73.7252 45.4413 73.9434V94.0364H23.5185V84.3781C23.5108 84.1836 23.4258 83.999 23.2806 83.8614C23.1354 83.7237 22.9407 83.6432 22.7356 83.6358H16.4719C16.2667 83.6432 16.072 83.7237 15.9268 83.8614C15.7817 83.999 15.6967 84.1836 15.6889 84.3781V94.0364H12.5571V73.9434C12.8593 73.7252 13.1208 73.4743 13.34 73.1893ZM30.5651 79.1912C30.36 79.1985 30.1653 79.2791 30.0201 79.4167C29.8749 79.5544 29.7899 79.7389 29.7822 79.9334V88.8405C29.7822 89.2295 30.1549 89.5828 30.5651 89.5828H41.5266C41.7317 89.5755 41.9264 89.4949 42.0716 89.3573C42.2168 89.2196 42.3018 89.0351 42.3095 88.8405V79.9334C42.3018 79.7389 42.2168 79.5544 42.0716 79.4167C41.9264 79.2791 41.7317 79.1985 41.5266 79.1912H30.5651Z" stroke="#101828" stroke-width="4" mask="url(#path-2-outside-1_2692_45530)"/>
<path d="M42.3091 57.9319H43.3091V56.9319V55.4474C43.3091 54.0477 42.2191 52.9629 40.8684 52.9629H17.1323C15.7844 52.9629 14.6885 54.0449 14.6885 55.4474V56.9319V57.9319H15.6885H42.3091Z" fill="#4CC3C7" stroke="#101828" stroke-width="2"/>
<path d="M40.6426 80.7324H31.2471V88.155H40.6426V80.7324Z" fill="#4CC3C7"/>
<path d="M70.7604 73.5482C70.7591 72.4788 70.3336 71.4534 69.5774 70.6972C68.8211 69.941 67.7958 69.5155 66.7263 69.5142L64.2762 69.5142C63.207 69.5167 62.1824 69.9426 61.4265 70.6985C60.6705 71.4545 60.2446 72.4791 60.2421 73.5482L60.2421 74.4517C60.2446 75.5209 60.6705 76.5455 61.4265 77.3015C62.1824 78.0574 63.207 78.4833 64.2762 78.4858H66.7263C67.7958 78.4845 68.8211 78.059 69.5774 77.3028C70.3336 76.5466 70.7591 75.5212 70.7604 74.4517L70.7604 73.5482ZM62.7382 75.9897C62.5338 75.7882 62.3715 75.5481 62.2607 75.2833C62.1499 75.0185 62.0929 74.7344 62.0929 74.4474L62.0929 73.5439C62.0954 72.9671 62.3256 72.4146 62.7335 72.0067C63.1414 71.5988 63.6939 71.3686 64.2707 71.3661H66.7209C67.2982 71.3669 67.8516 71.5967 68.2598 72.0049C68.6681 72.4131 68.8978 72.9666 68.8987 73.5439L68.8987 74.4474C68.8978 75.0247 68.6681 75.5781 68.2598 75.9863C67.8516 76.3946 67.2982 76.6243 66.7209 76.6252L64.2707 76.6252C63.986 76.6252 63.7041 76.569 63.4412 76.46C63.1782 76.3509 62.9394 76.1911 62.7382 75.9897ZM84.0088 74.4452L84.0088 73.5548C84.0076 72.4835 83.5815 71.4565 82.824 70.699C82.0665 69.9415 81.0395 69.5154 79.9682 69.5142L77.5312 69.5142C76.4603 69.5166 75.4339 69.9431 74.6767 70.7004C73.9195 71.4576 73.493 72.4839 73.4906 73.5548L73.4906 74.4452C73.4918 75.5164 73.9179 76.5435 74.6754 77.301C75.4329 78.0585 76.4599 78.4846 77.5312 78.4858L79.9682 78.4858C81.0395 78.4846 82.0665 78.0585 82.824 77.301C83.5815 76.5435 84.0076 75.5164 84.0088 74.4452ZM79.9682 76.6307H77.5312C77.2439 76.6307 76.9594 76.5741 76.6939 76.4642C76.4285 76.3543 76.1873 76.1932 75.9842 75.99C75.781 75.7868 75.6199 75.5457 75.5099 75.2802C75.4 75.0148 75.3435 74.7303 75.3435 74.443L75.3435 73.5526C75.345 72.9729 75.576 72.4174 75.986 72.0074C76.3959 71.5975 76.9514 71.3665 77.5312 71.365L79.9671 71.3704C80.2544 71.3704 80.5389 71.4269 80.8043 71.5369C81.0698 71.6468 81.311 71.8079 81.5141 72.0111C81.7173 72.2142 81.8784 72.4554 81.9883 72.7209C82.0983 72.9863 82.1548 73.2708 82.1548 73.5581L82.1548 74.4485C82.1534 75.0276 81.9225 75.5825 81.5126 75.9916C81.1027 76.4006 80.5473 76.6305 79.9682 76.6307Z" fill="#4CC3C7"/>
<path d="M78.6174 74.0003C78.6173 73.7544 78.5195 73.5185 78.3456 73.3446C78.1717 73.1707 77.9358 73.0729 77.6899 73.0728L66.5591 73.0728C66.4366 73.0717 66.315 73.0949 66.2015 73.141C66.088 73.1871 65.9848 73.2553 65.8977 73.3415C65.8107 73.4278 65.7416 73.5304 65.6944 73.6434C65.6472 73.7565 65.6229 73.8778 65.6228 74.0003C65.6228 74.1228 65.647 74.2442 65.694 74.3573C65.7411 74.4704 65.81 74.5731 65.897 74.6594C65.9839 74.7458 66.0871 74.814 66.2005 74.8603C66.314 74.9066 66.4355 74.9299 66.558 74.929L77.6899 74.9279C77.8118 74.928 77.9326 74.904 78.0453 74.8573C78.158 74.8107 78.2604 74.7423 78.3467 74.656C78.4329 74.5698 78.5013 74.4674 78.548 74.3547C78.5946 74.242 78.6186 74.1212 78.6185 73.9992L78.6174 74.0003Z" fill="#101828"/>
<path d="M101.792 88.3757C101.792 89.1381 101.489 89.8694 100.95 90.4086C100.411 90.9477 99.6795 91.2507 98.917 91.2507C98.1545 91.2507 97.4232 90.9477 96.8841 90.4086C96.3449 89.8694 96.042 89.1381 96.042 88.3757C96.042 86.7848 97.3262 83.584 98.917 83.584C100.508 83.584 101.792 86.7848 101.792 88.3757ZM132.459 88.3757C132.459 89.1381 132.762 89.8694 133.301 90.4086C133.84 90.9477 134.571 91.2507 135.334 91.2507C136.096 91.2507 136.827 90.9477 137.367 90.4086C137.906 89.8694 138.209 89.1381 138.209 88.3757C138.209 86.7848 136.924 83.584 135.334 83.584C133.743 83.584 132.459 86.7848 132.459 88.3757Z" fill="#4CC3C7"/>
<path d="M105.625 68.25H128.625V95.0833H105.625V68.25Z" fill="#F8F9F9"/>
<path d="M113.292 85.5H120.959V95.0833H113.292V85.5Z" fill="#4CC3C7"/>
<path d="M106.583 54.834H127.666V68.2507H106.583V54.834Z" fill="#F8F9F9"/>
<path d="M138.208 94.125H136.291V92.0742C137.112 91.8622 137.84 91.3842 138.36 90.7149C138.88 90.0456 139.164 89.2227 139.166 88.375C139.166 86.4008 137.671 82.625 135.333 82.625C132.995 82.625 131.5 86.4008 131.5 88.375C131.502 89.2227 131.786 90.0456 132.306 90.7149C132.826 91.3842 133.554 91.8622 134.375 92.0742V94.125H129.583V69.2083C129.837 69.2083 130.081 69.1074 130.261 68.9276C130.44 68.7479 130.541 68.5042 130.541 68.25C130.541 67.9958 130.44 67.7521 130.261 67.5724C130.081 67.3926 129.837 67.2917 129.583 67.2917H128.625V54.8333C128.625 54.5792 128.524 54.3354 128.344 54.1557C128.164 53.976 127.921 53.875 127.666 53.875H106.583C106.329 53.875 106.085 53.976 105.905 54.1557C105.726 54.3354 105.625 54.5792 105.625 54.8333V67.2917H104.666C104.412 67.2917 104.168 67.3926 103.989 67.5724C103.809 67.7521 103.708 67.9958 103.708 68.25C103.708 68.5042 103.809 68.7479 103.989 68.9276C104.168 69.1074 104.412 69.2083 104.666 69.2083V94.125H99.8747V92.0742C100.695 91.8622 101.423 91.3842 101.943 90.7149C102.463 90.0456 102.747 89.2227 102.75 88.375C102.75 86.4008 101.255 82.625 98.9163 82.625C96.578 82.625 95.083 86.4008 95.083 88.375C95.0858 89.2227 95.3694 90.0456 95.8896 90.7149C96.4098 91.3842 97.1372 91.8622 97.958 92.0742V94.125H96.0413C95.7872 94.125 95.5434 94.226 95.3637 94.4057C95.184 94.5854 95.083 94.8292 95.083 95.0833C95.083 95.3375 95.184 95.5813 95.3637 95.761C95.5434 95.9407 95.7872 96.0417 96.0413 96.0417H138.208C138.462 96.0417 138.706 95.9407 138.886 95.761C139.065 95.5813 139.166 95.3375 139.166 95.0833C139.166 94.8292 139.065 94.5854 138.886 94.4057C138.706 94.226 138.462 94.125 138.208 94.125ZM133.416 88.375C133.416 86.9375 134.614 84.5417 135.333 84.5417C136.052 84.5417 137.25 86.9375 137.25 88.375C137.25 88.8833 137.048 89.3708 136.688 89.7303C136.329 90.0897 135.841 90.2917 135.333 90.2917C134.825 90.2917 134.337 90.0897 133.978 89.7303C133.618 89.3708 133.416 88.8833 133.416 88.375ZM96.9997 88.375C96.9997 86.9375 98.1976 84.5417 98.9163 84.5417C99.6351 84.5417 100.833 86.9375 100.833 88.375C100.833 88.8833 100.631 89.3708 100.272 89.7303C99.9122 90.0897 99.4247 90.2917 98.9163 90.2917C98.408 90.2917 97.9205 90.0897 97.5611 89.7303C97.2016 89.3708 96.9997 88.8833 96.9997 88.375ZM107.541 55.7917H126.708V67.2917H107.541V55.7917ZM114.25 94.125V86.4583H120V94.125H114.25ZM121.916 94.125V85.5C121.916 85.2458 121.815 85.0021 121.636 84.8224C121.456 84.6426 121.212 84.5417 120.958 84.5417H113.291C113.037 84.5417 112.793 84.6426 112.614 84.8224C112.434 85.0021 112.333 85.2458 112.333 85.5V94.125H106.583V69.2083H127.666V94.125H121.916Z" fill="#101828"/>
<path d="M112.333 59.625H110.416C109.887 59.625 109.458 60.0541 109.458 60.5833V64.4167C109.458 64.9459 109.887 65.375 110.416 65.375H112.333C112.862 65.375 113.291 64.9459 113.291 64.4167V60.5833C113.291 60.0541 112.862 59.625 112.333 59.625Z" fill="#4CC3C7"/>
<path d="M118.083 59.625H116.166C115.637 59.625 115.208 60.0541 115.208 60.5833V64.4167C115.208 64.9459 115.637 65.375 116.166 65.375H118.083C118.612 65.375 119.041 64.9459 119.041 64.4167V60.5833C119.041 60.0541 118.612 59.625 118.083 59.625Z" fill="#4CC3C7"/>
<path d="M123.833 59.625H121.916C121.387 59.625 120.958 60.0541 120.958 60.5833V64.4167C120.958 64.9459 121.387 65.375 121.916 65.375H123.833C124.362 65.375 124.791 64.9459 124.791 64.4167V60.5833C124.791 60.0541 124.362 59.625 123.833 59.625Z" fill="#4CC3C7"/>
<path d="M118.083 72.084H116.166C115.637 72.084 115.208 72.513 115.208 73.0423V74.959C115.208 75.4883 115.637 75.9173 116.166 75.9173H118.083C118.612 75.9173 119.041 75.4883 119.041 74.959V73.0423C119.041 72.513 118.612 72.084 118.083 72.084Z" fill="#4CC3C7"/>
<path d="M112.333 72.084H110.416C109.887 72.084 109.458 72.513 109.458 73.0423V74.959C109.458 75.4883 109.887 75.9173 110.416 75.9173H112.333C112.862 75.9173 113.291 75.4883 113.291 74.959V73.0423C113.291 72.513 112.862 72.084 112.333 72.084Z" fill="#4CC3C7"/>
<path d="M123.833 72.084H121.916C121.387 72.084 120.958 72.513 120.958 73.0423V74.959C120.958 75.4883 121.387 75.9173 121.916 75.9173H123.833C124.362 75.9173 124.791 75.4883 124.791 74.959V73.0423C124.791 72.513 124.362 72.084 123.833 72.084Z" fill="#4CC3C7"/>
<path d="M118.083 77.834H116.166C115.637 77.834 115.208 78.263 115.208 78.7923V80.709C115.208 81.2383 115.637 81.6673 116.166 81.6673H118.083C118.612 81.6673 119.041 81.2383 119.041 80.709V78.7923C119.041 78.263 118.612 77.834 118.083 77.834Z" fill="#4CC3C7"/>
<path d="M112.333 77.834H110.416C109.887 77.834 109.458 78.263 109.458 78.7923V80.709C109.458 81.2383 109.887 81.6673 110.416 81.6673H112.333C112.862 81.6673 113.291 81.2383 113.291 80.709V78.7923C113.291 78.263 112.862 77.834 112.333 77.834Z" fill="#4CC3C7"/>
<path d="M123.833 77.834H121.916C121.387 77.834 120.958 78.263 120.958 78.7923V80.709C120.958 81.2383 121.387 81.6673 121.916 81.6673H123.833C124.362 81.6673 124.791 81.2383 124.791 80.709V78.7923C124.791 78.263 124.362 77.834 123.833 77.834Z" fill="#4CC3C7"/>
<path d="M121.917 51.959H112.333C111.804 51.959 111.375 52.388 111.375 52.9173V56.7507C111.375 57.2799 111.804 57.709 112.333 57.709H121.917C122.446 57.709 122.875 57.2799 122.875 56.7507V52.9173C122.875 52.388 122.446 51.959 121.917 51.959Z" fill="#4CC3C7"/>
</svg>
