<svg viewBox="0 0 364 364" fill="none" xmlns="http://www.w3.org/2000/svg">
    <path
        d="M63.3609 111.12C80.06 106.1 98.1508 84.2765 105.109 73.9923C115.024 56.2128 83.1911 73.9923 67.5357 82.359C51.8802 90.7258 42.4869 117.395 63.3609 111.12Z"
        fill="#4CC3C7" fill-opacity="0.2" />
    <path
        d="M340.984 263.58C340.984 281.346 331.105 298.557 321.257 310.879C313.24 320.907 300.538 325.286 287.714 325.286H58.4219C45.5536 325.286 36.5669 307.035 34.3467 294.334C30.4067 271.793 9.70467 246.657 13.2628 208.151C18.4812 151.675 53.9671 134.417 91.0183 112.978C128.07 91.5378 104.065 60.1622 167.73 41.3368C231.396 22.5116 298.714 84.7397 296.627 142.785C294.539 200.829 340.984 209.196 340.984 263.58Z"
        fill="#4CC3C7" fill-opacity="0.2" />
    <path
        d="M131.756 252.768C121.143 264.286 159.352 295.959 159.352 325.285H187.214H215.076C212.245 323.508 207.434 317.714 210.83 308.756C215.076 297.558 241.08 293.292 235.773 281.562C230.466 269.831 218.259 281.562 206.585 274.63C194.909 267.698 207.646 261.3 223.036 245.836C238.426 230.374 210.83 231.973 199.156 237.838C187.48 243.703 188.01 233.039 189.603 210.645C191.195 188.249 181.642 170.121 173.682 174.386C165.721 178.652 178.989 227.708 170.498 222.375C162.006 217.043 153.515 197.848 150.861 215.976C148.208 234.106 167.844 262.366 159.352 264.499C150.861 266.632 145.024 238.372 131.756 252.768Z"
        fill="white" />
    <path d="M145.881 325.064L141.282 287.753L43.66 283.664L41.1045 325.064H145.881Z" fill="#0B0924" />
    <path
        d="M78.5074 138.156L76.4629 148.889L78.5074 160.133C83.7888 160.815 94.556 162.178 95.3738 162.178C96.1916 162.178 102.188 157.067 105.085 154.512L102.018 138.156C110.605 135.294 113.433 122.652 113.774 116.69C115.818 92.1564 99.4626 89.0898 96.396 89.0898C93.3293 89.0898 73.9074 89.0898 71.3518 109.534C69.3075 125.889 75.2703 135.43 78.5074 138.156Z"
        fill="white" />
    <path fill-rule="evenodd" clip-rule="evenodd"
        d="M84.1185 92.593C78.8483 95.016 73.6162 99.8405 72.3885 109.662C70.3794 125.734 76.2632 134.899 79.1802 137.355L79.648 137.749L77.5257 148.892L79.3986 159.193C82.0098 159.528 85.6063 159.986 88.7421 160.373C90.4682 160.585 92.0524 160.777 93.2549 160.914C93.8566 160.983 94.3594 161.039 94.7355 161.076C94.9236 161.096 95.0764 161.109 95.1919 161.119C95.2112 161.12 95.2292 161.121 95.2458 161.124C95.2802 161.106 95.3246 161.081 95.3799 161.049C95.5861 160.928 95.8682 160.74 96.2187 160.489C96.9159 159.988 97.8138 159.284 98.7902 158.491C100.548 157.06 102.52 155.369 103.948 154.118L100.823 137.45L101.687 137.163C105.563 135.871 108.251 132.326 110.027 128.173C111.793 124.043 112.565 119.515 112.73 116.628L112.731 116.614L112.732 116.601C113.733 104.591 110.229 98.0343 106.298 94.4611C102.311 90.8362 97.7234 90.1329 96.3958 90.1329C94.8841 90.1329 89.4577 90.1382 84.1185 92.593ZM95.1565 161.164C95.1565 161.164 95.1617 161.161 95.1713 161.159C95.1611 161.163 95.1565 161.164 95.1565 161.164ZM96.3867 88.043H96.3958C98.1346 88.043 103.258 88.8731 107.704 92.9146C112.205 97.0067 115.856 104.246 114.816 116.761C114.638 119.838 113.826 124.605 111.949 128.995C110.195 133.096 107.43 137.052 103.206 138.823L106.221 154.901L105.776 155.292C104.322 156.576 102.087 158.503 100.109 160.112C99.1219 160.915 98.1862 161.649 97.4383 162.187C97.0665 162.454 96.7231 162.685 96.4338 162.854C96.29 162.938 96.1401 163.018 95.9943 163.08C95.8787 163.129 95.6452 163.222 95.3735 163.222C95.0917 163.222 94.1803 163.125 93.0168 162.991C91.8054 162.852 90.2143 162.66 88.4863 162.446C85.0295 162.02 81.0152 161.508 78.3733 161.167L77.6156 161.07L75.3996 148.882L77.3705 138.536C73.7808 135.107 68.3229 125.338 70.3147 109.403C71.6426 98.7798 77.3991 93.382 83.2454 90.694C89.0117 88.043 94.8183 88.043 96.3867 88.043Z"
        fill="#0B0924" />
    <path
        d="M199.922 166.805C197.787 169.951 189.298 178.635 188.325 180.187L192.15 189.108L202.621 191.539C204.977 188.197 211.716 184.723 213.32 179.509C214.601 175.336 209.697 169.67 207.296 168.75L214.627 158.706C215.606 157.365 215.329 155.488 214.007 154.486C212.712 153.507 210.877 153.714 209.836 154.959L199.922 166.805Z"
        fill="white" />
    <path fill-rule="evenodd" clip-rule="evenodd"
        d="M214.637 153.654C212.899 152.337 210.434 152.616 209.036 154.288L199.087 166.175L199.057 166.219C198.043 167.714 195.451 170.604 192.915 173.391C192.602 173.734 192.292 174.075 191.986 174.41C191.067 175.417 190.196 176.373 189.468 177.188C188.529 178.238 187.742 179.151 187.439 179.632L187.149 180.096L191.399 190.006L203.07 192.716L203.475 192.142C203.99 191.411 204.776 190.634 205.755 189.765C206.223 189.349 206.722 188.924 207.242 188.48L207.297 188.435C207.834 187.976 208.392 187.5 208.947 187.007C211.133 185.063 213.424 182.724 214.318 179.816C215.102 177.266 213.974 174.458 212.559 172.331C211.831 171.236 210.979 170.25 210.143 169.468C209.716 169.069 209.273 168.708 208.838 168.409L215.471 159.322C216.785 157.522 216.415 154.999 214.637 153.654ZM210.637 155.63C211.321 154.814 212.526 154.677 213.376 155.32C214.244 155.977 214.425 157.21 213.783 158.09L205.647 169.237L206.922 169.726C207.339 169.886 207.981 170.309 208.718 170.996C209.436 171.667 210.181 172.53 210.819 173.488C212.136 175.467 212.819 177.578 212.32 179.2C211.611 181.507 209.732 183.513 207.558 185.445C207.023 185.921 206.48 186.385 205.942 186.843L205.881 186.895C205.365 187.335 204.852 187.771 204.368 188.201C203.572 188.907 202.814 189.629 202.202 190.369L192.902 188.211L189.521 180.325C189.837 179.931 190.349 179.339 191.027 178.58C191.747 177.774 192.607 176.83 193.523 175.825C193.83 175.489 194.144 175.145 194.46 174.797C196.923 172.092 199.618 169.096 200.756 167.437L210.637 155.63Z"
        fill="#0B0924" />
    <path
        d="M84.1288 127.933C82.0843 139.791 79.1881 141.051 77.9955 140.2C63.6846 131 64.0298 101.606 72.8845 91.6446C81.0621 82.4446 87.1954 86.0225 104.062 81.9336C120.928 77.8448 126.55 85.0001 123.484 94.2001C119.069 107.444 105.084 100.333 101.506 101.867C97.9287 103.4 93.3287 107.489 91.2842 115.667C89.2399 123.844 88.2176 122.31 86.6843 117.711C85.151 113.111 81.0621 106.467 77.9955 114.644C75.5422 121.186 81.0621 126.229 84.1288 127.933Z"
        fill="#0B0924" />
    <path fill-rule="evenodd" clip-rule="evenodd"
        d="M100.392 300.53C82.8445 300.871 46.2153 300.939 40.082 298.485C37.8535 297.595 36.9204 288.885 36.7685 276.69C30.6404 270.486 24.4649 263.584 19.6382 257.086C9.00714 242.775 11.4604 226.249 14.016 219.775C27.3038 181.957 43.9984 161.512 52.3471 155.888C52.3476 155.888 52.3481 155.888 52.3486 155.887C56.9485 152.31 69.2151 147.709 75.8594 146.688C77.2224 150.435 81.4815 157.931 91.7036 157.931C101.926 157.931 103.8 150.435 104.481 146.688C111.807 146.857 131.059 150.878 141.281 165.599C149.09 176.845 152.318 186.754 154.464 193.343C155.829 197.535 156.756 200.382 158.148 201.376C160.021 202.714 167.221 195.642 174.39 188.601C180.909 182.197 187.401 175.821 189.835 175.821C194.947 175.821 206.702 186.042 206.702 192.175C206.702 198.309 178.591 250.442 170.414 256.063C162.236 261.686 153.036 258.62 148.436 252.997C149.458 264.071 150.583 292.25 146.903 295.93C143.223 299.61 114.363 300.53 100.392 300.53Z"
        fill="white" />
    <path fill-rule="evenodd" clip-rule="evenodd"
        d="M76.549 145.525L76.8421 146.332C78.1437 149.91 82.1343 156.888 91.7044 156.888C96.5178 156.888 99.2285 155.143 100.848 153.072C102.513 150.943 103.118 148.349 103.454 146.502L103.614 145.624L104.506 145.644C108.299 145.733 115.069 146.808 122.191 149.721C129.319 152.637 136.879 157.428 142.14 165.004C150.037 176.376 153.303 186.404 155.455 193.012L155.459 193.021C156.145 195.133 156.703 196.843 157.259 198.153C157.811 199.457 158.286 200.168 158.715 200.497C158.743 200.497 158.795 200.494 158.883 200.477C159.122 200.429 159.477 200.292 159.96 200.022C160.919 199.488 162.156 198.564 163.609 197.335C166.502 194.884 170.065 191.387 173.659 187.856L173.676 187.839C176.922 184.651 180.192 181.439 182.958 179.023C184.342 177.815 185.626 176.783 186.736 176.047C187.29 175.679 187.823 175.371 188.319 175.153C188.802 174.939 189.324 174.776 189.836 174.776C191.399 174.776 193.29 175.534 195.152 176.611C197.05 177.71 199.061 179.228 200.898 180.934C202.733 182.638 204.424 184.556 205.663 186.466C206.886 188.349 207.748 190.345 207.748 192.177C207.748 192.716 207.602 193.396 207.389 194.134C207.17 194.895 206.852 195.803 206.454 196.83C205.655 198.887 204.514 201.473 203.127 204.404C200.352 210.266 196.572 217.555 192.539 224.82C188.506 232.085 184.212 239.344 180.408 245.146C178.507 248.046 176.72 250.595 175.144 252.603C173.588 254.583 172.171 256.126 171.006 256.926C163.408 262.15 154.982 260.31 149.717 255.793C150.144 261.513 150.522 269.708 150.479 277.244C150.452 281.704 150.28 285.963 149.877 289.351C149.676 291.044 149.414 292.549 149.074 293.766C148.746 294.939 148.305 296.008 147.642 296.67C146.996 297.318 145.934 297.795 144.742 298.18C143.51 298.579 141.974 298.926 140.229 299.232C136.737 299.844 132.308 300.308 127.583 300.654C118.134 301.345 107.405 301.576 100.403 301.577C91.62 301.747 78.0669 301.849 65.9361 301.601C59.8696 301.478 54.147 301.266 49.55 300.932C47.2522 300.764 45.2233 300.565 43.5673 300.327C41.9356 300.094 40.5857 299.814 39.6946 299.457C39.1561 299.241 38.7515 298.831 38.4459 298.387C38.137 297.938 37.8808 297.386 37.6616 296.771C37.2235 295.541 36.8813 293.906 36.6121 291.972C36.0845 288.183 35.813 283.058 35.7298 277.126C29.6774 270.978 23.5871 264.155 18.7999 257.71C7.8991 243.036 10.397 226.12 13.0372 219.413C19.7048 200.44 27.2336 185.803 34.1591 175.189C41.0556 164.62 47.3942 157.978 51.7344 155.043C54.1669 153.161 58.4892 151.081 62.9619 149.356C67.4689 147.617 72.2749 146.183 75.7012 145.656L76.549 145.525ZM105.336 147.77C104.941 149.646 104.202 152.176 102.494 154.36C100.45 156.974 97.113 158.978 91.7044 158.978C81.5394 158.978 76.92 151.974 75.1972 147.861C72.0378 148.446 67.7866 149.734 63.7141 151.306C59.2591 153.024 55.1637 155.023 52.9911 156.714C52.9914 156.714 52.991 156.714 52.9911 156.714L52.9619 156.737L52.9316 156.757C48.9238 159.457 42.7539 165.841 35.9095 176.331C29.0808 186.797 21.621 201.287 15.0025 220.124L14.996 220.142L14.9886 220.16C12.5204 226.413 10.1266 242.53 20.4776 256.464C25.266 262.911 31.4059 269.774 37.5126 275.958L37.8088 276.257L37.814 276.679C37.8899 282.763 38.1606 287.937 38.6822 291.685C38.9438 293.563 39.2621 295.036 39.6305 296.07C39.8147 296.587 39.998 296.957 40.1674 297.202C40.3401 297.453 40.4521 297.509 40.4707 297.517C41.113 297.773 42.2493 298.028 43.8634 298.259C45.4529 298.487 47.4291 298.681 49.7019 298.847C54.2462 299.178 59.9275 299.389 65.9787 299.512C78.0781 299.759 91.6079 299.656 100.373 299.486H100.383H100.393C107.362 299.486 118.043 299.257 127.431 298.569C132.127 298.226 136.477 297.768 139.868 297.174C141.565 296.875 142.996 296.548 144.101 296.191C145.247 295.821 145.893 295.465 146.164 295.192C146.423 294.934 146.751 294.319 147.061 293.204C147.361 292.131 147.607 290.744 147.801 289.105C148.191 285.829 148.363 281.66 148.389 277.232C148.439 268.379 147.904 258.601 147.396 253.095L147.083 249.692L149.246 252.336C153.567 257.618 162.173 260.463 169.822 255.205C170.702 254.599 171.953 253.283 173.5 251.312C175.026 249.369 176.777 246.874 178.661 244.001C182.427 238.254 186.695 231.044 190.712 223.806C194.728 216.568 198.487 209.322 201.239 203.509C202.615 200.602 203.733 198.065 204.505 196.075C204.891 195.079 205.185 194.233 205.381 193.554C205.584 192.85 205.658 192.405 205.658 192.177C205.658 190.944 205.051 189.361 203.909 187.603C202.786 185.871 201.217 184.083 199.475 182.465C197.734 180.848 195.847 179.428 194.104 178.419C192.323 177.389 190.83 176.867 189.836 176.867C189.74 176.867 189.527 176.903 189.164 177.065C188.813 177.219 188.388 177.459 187.89 177.789C186.894 178.449 185.691 179.411 184.332 180.598C181.618 182.968 178.389 186.139 175.123 189.347L175.099 189.372C171.533 192.875 167.918 196.424 164.959 198.929C163.481 200.18 162.119 201.213 160.977 201.848C160.409 202.165 159.839 202.416 159.298 202.525C158.76 202.635 158.104 202.63 157.541 202.227C156.588 201.547 155.916 200.341 155.335 198.968C154.74 197.566 154.155 195.772 153.485 193.709L153.471 193.668C151.331 187.098 148.141 177.31 140.423 166.196C135.462 159.052 128.286 154.473 121.4 151.655C115.046 149.056 109.008 147.986 105.336 147.77Z"
        fill="#0B0924" />
    <path
        d="M73.05 248.461C74.487 247.495 76.4349 247.877 77.4008 249.314L100.175 283.195C101.141 284.632 100.759 286.58 99.322 287.546L53.0851 318.626C51.6482 319.592 49.7003 319.209 48.7343 317.773L25.9602 283.892C24.9944 282.455 25.3762 280.508 26.8132 279.542L73.05 248.461Z"
        fill="white" />
    <path fill-rule="evenodd" clip-rule="evenodd"
        d="M72.4673 247.595C74.3832 246.306 76.9804 246.816 78.2683 248.731L101.042 282.613C102.33 284.528 101.821 287.125 99.9052 288.413L53.6683 319.493C51.7523 320.78 49.1552 320.272 47.8672 318.355L25.0932 284.475C23.8052 282.559 24.3145 279.961 26.2303 278.674L72.4673 247.595ZM76.5337 249.897C75.8898 248.939 74.5911 248.684 73.6332 249.328L27.3964 280.408C26.4383 281.052 26.1837 282.35 26.8277 283.309L49.6018 317.19C50.2457 318.147 51.5444 318.402 52.5023 317.758L98.7393 286.678C99.6972 286.034 99.9517 284.736 99.3078 283.777L76.5337 249.897Z"
        fill="#0B0924" />
    <path
        d="M80.971 286.22C77.7 284.584 75.8599 282.812 75.3489 282.131C72.7934 285.027 67.3756 291.841 66.1489 295.93C64.6156 301.041 72.7934 308.708 75.3489 309.219C77.9044 309.731 85.571 305.13 87.1043 302.574C88.3309 300.53 85.571 296.782 84.0377 295.419C84.8894 294.227 87.922 292.864 87.1043 290.82C86.082 288.263 85.0598 288.263 80.971 286.22Z"
        fill="white" />
    <path fill-rule="evenodd" clip-rule="evenodd"
        d="M75.4148 280.477L76.185 281.504C76.5749 282.024 78.2722 283.702 81.4385 285.285C82.1999 285.666 82.8484 285.972 83.4211 286.242C83.6086 286.331 83.7879 286.416 83.9604 286.498C84.6451 286.825 85.2434 287.122 85.7529 287.45C86.8658 288.164 87.5002 288.995 88.0747 290.432C88.7413 292.098 87.7333 293.399 86.9278 294.186C86.5845 294.522 86.199 294.841 85.8702 295.114C85.7977 295.174 85.7279 295.232 85.662 295.286C85.6085 295.331 85.5579 295.374 85.5101 295.415C86.2074 296.181 86.9615 297.189 87.5278 298.249C87.9232 298.99 88.2538 299.804 88.3891 300.614C88.5248 301.427 88.4763 302.32 88.0006 303.112C87.5187 303.916 86.632 304.777 85.6346 305.578C84.6132 306.398 83.3864 307.227 82.1336 307.951C80.8828 308.676 79.5799 309.313 78.4043 309.739C77.2865 310.144 76.0885 310.434 75.1441 310.244C74.6607 310.147 74.1381 309.907 73.6347 309.616C73.1154 309.316 72.5503 308.924 71.9702 308.467C70.81 307.55 69.5437 306.333 68.4114 304.968C67.2822 303.605 66.2567 302.061 65.6131 300.487C64.9735 298.923 64.6701 297.224 65.1482 295.631C65.8154 293.407 67.5696 290.558 69.3984 287.98C71.25 285.367 73.2671 282.912 74.5655 281.44L75.4148 280.477ZM71.1032 289.188C69.2775 291.763 67.7095 294.367 67.1501 296.232C66.8615 297.193 67.0054 298.37 67.5477 299.696C68.086 301.013 68.9772 302.376 70.0202 303.633C71.06 304.888 72.2216 306.001 73.2655 306.827C73.7875 307.239 74.2685 307.569 74.6795 307.807C75.1065 308.053 75.3986 308.164 75.554 308.195C75.8874 308.262 76.6059 308.167 77.6924 307.774C78.7208 307.402 79.9096 306.824 81.0865 306.143C82.2614 305.463 83.3985 304.693 84.3258 303.948C85.277 303.184 85.9236 302.512 86.2084 302.037C86.346 301.808 86.4125 301.466 86.3277 300.959C86.2426 300.449 86.0174 299.857 85.6845 299.235C85.0158 297.983 84.0203 296.802 83.3436 296.201L82.6415 295.576L83.1874 294.812C83.49 294.389 83.9439 293.999 84.3208 293.684C84.4031 293.615 84.484 293.548 84.5636 293.482C84.8884 293.213 85.191 292.962 85.4667 292.692C86.1861 291.989 86.2854 291.586 86.1342 291.208C85.6865 290.089 85.2987 289.642 84.6227 289.208C84.2378 288.96 83.7499 288.714 83.061 288.385C82.8983 288.307 82.7253 288.226 82.5419 288.139C81.9661 287.867 81.2881 287.547 80.5039 287.155C78.0858 285.945 76.3824 284.646 75.3783 283.696C74.1619 285.127 72.5768 287.11 71.1032 289.188Z"
        fill="#0B0924" />
    <path
        d="M19.6382 257.087C9.00714 242.775 11.4604 226.25 14.016 219.775L52.3488 232.042C52.3488 240.731 79.4374 274.975 77.9041 282.131C76.3709 289.286 65.6376 297.975 61.0376 296.953C56.4377 295.93 32.9268 274.975 19.6382 257.087Z"
        fill="white" />
    <path fill-rule="evenodd" clip-rule="evenodd"
        d="M18.7999 257.71C7.88891 243.022 10.4017 226.088 13.0446 219.393L14.9886 220.159C12.5204 226.413 10.1266 242.53 20.4776 256.464C27.0724 265.342 36.2248 275.006 44.3113 282.583C48.3526 286.369 52.1135 289.622 55.1408 291.985C56.6555 293.167 57.9743 294.117 59.0448 294.799C60.1528 295.504 60.8867 295.848 61.265 295.933C62.0711 296.112 63.3412 295.881 64.9567 295.128C66.5303 294.394 68.2729 293.236 69.9438 291.813C73.324 288.934 76.187 285.16 76.8829 281.912C77.0072 281.332 76.854 280.263 76.2644 278.637C75.6953 277.067 74.7894 275.159 73.6367 273C71.3327 268.685 68.1105 263.494 64.8157 258.216C64.6477 257.946 64.4797 257.677 64.3115 257.408C61.1904 252.41 58.0464 247.374 55.6438 243.034C54.3776 240.747 53.3043 238.63 52.5449 236.795C51.7984 234.992 51.3045 233.347 51.3045 232.043H53.3944C53.3944 232.912 53.7469 234.235 54.476 235.997C55.192 237.726 56.223 239.766 57.4723 242.022C59.8472 246.312 62.9641 251.303 66.0966 256.32C66.2606 256.584 66.4245 256.846 66.5886 257.109C69.8742 262.372 73.1366 267.626 75.4804 272.016C76.6517 274.21 77.6106 276.218 78.2293 277.925C78.8277 279.575 79.1855 281.142 78.9265 282.35C78.0891 286.258 74.8189 290.407 71.2991 293.405C69.5201 294.92 67.621 296.191 65.8406 297.022C64.1019 297.833 62.3054 298.305 60.8115 297.973C60.0399 297.802 59.0328 297.268 57.9227 296.562C56.7752 295.831 55.3986 294.838 53.8547 293.632C50.7645 291.219 46.9549 287.924 42.8822 284.107C34.7411 276.479 25.4938 266.721 18.7999 257.71Z"
        fill="#0B0924" />
    <path
        d="M144.348 202.398L148.437 253.509C150.072 254.736 153.206 257.087 154.57 257.598C154.161 253.509 147.585 219.095 144.348 202.398Z"
        fill="#0B0924" />
    <path
        d="M14.5283 218.754C18.2764 224.546 24.6481 240.527 20.1504 258.108C15.3801 252.998 7.57725 237.971 14.5283 218.754Z"
        fill="#0B0924" />
    <path
        d="M148.437 252.998C160.703 247.274 170.926 249.591 174.503 251.465C173.31 253.85 169.085 258.723 161.725 259.132C154.365 259.541 149.799 255.213 148.437 252.998Z"
        fill="#0B0924" />
    <path
        d="M58.9936 233.065C58.5848 224.888 61.8899 210.577 63.5935 204.443C62.5713 205.977 59.7092 210.781 56.438 217.732C52.3492 226.42 51.327 232.043 53.8825 237.154C54.9893 239.368 59.2414 246.673 63.8822 254.532L66.1491 252.628C62.546 245.313 59.2585 238.365 58.9936 233.065Z"
        fill="#0B0924" />
    <path d="M93.7485 312.797L90.1709 325.574H93.7485V312.797Z" fill="white" />
    <path
        d="M91.1934 138C96.1 139.636 100.223 138.681 101.927 138L103.46 145.155C96.9177 144.337 92.5563 139.873 91.1934 138Z"
        fill="#0B0924" />
    <path
        d="M138.253 76.5765C138.253 73.6909 140.592 71.3516 143.479 71.3516H335.758C338.645 71.3516 340.984 73.6909 340.984 76.5765V223.805C340.984 226.692 338.645 229.031 335.758 229.031H143.479C140.592 229.031 138.253 226.692 138.253 223.805V76.5765Z"
        fill="white" />
    <path fill-rule="evenodd" clip-rule="evenodd"
        d="M137.209 76.5747C137.209 73.112 140.017 70.3047 143.479 70.3047H335.759C339.222 70.3047 342.029 73.1119 342.029 76.5747V223.804C342.029 227.266 339.222 230.074 335.759 230.074H143.479C140.017 230.074 137.209 227.266 137.209 223.804V76.5747ZM143.479 72.3948C141.171 72.3948 139.3 74.2662 139.3 76.5747V223.804C139.3 226.112 141.171 227.984 143.479 227.984H335.759C338.068 227.984 339.939 226.112 339.939 223.804V76.5747C339.939 74.2662 338.068 72.3948 335.759 72.3948H143.479Z"
        fill="#0B0924" />
    <mask id="mask0_1919_40042" style="mask-type:alpha" maskUnits="userSpaceOnUse" x="139" y="72" width="201"
        height="156">
        <path fill-rule="evenodd" clip-rule="evenodd"
            d="M143.477 72.3945C141.168 72.3945 139.297 74.266 139.297 76.5745V223.804C139.297 226.112 141.168 227.984 143.477 227.984H335.756C338.065 227.984 339.936 226.112 339.936 223.804V76.5745C339.936 74.266 338.065 72.3945 335.756 72.3945H143.477Z"
            fill="#0B0924" />
    </mask>
    <g mask="url(#mask0_1919_40042)">
        <path d="M257.95 107.206L263.847 109.411L264.005 117.635L283.252 104L257.95 107.206Z" fill="#4CC3C7" />
        <path d="M267.955 111.82L277.022 116.188L283.252 104L267.955 111.82Z" fill="#4CC3C7" />
        <path d="M263.847 109.411L263.995 117.1L264.005 117.635L267.954 111.82L283.251 104L263.847 109.411Z"
            fill="#219EA3" />
        <path
            d="M215.913 139.436C216.236 140.394 216.469 140.955 216.479 140.979L217.038 140.745C217.036 140.74 216.804 140.177 216.487 139.241L215.913 139.436ZM217.438 119.16L217.86 119.596C218.228 119.237 218.634 118.902 219.066 118.6L218.719 118.103C218.261 118.423 217.83 118.779 217.438 119.16ZM223.254 116.175L223.388 116.766C223.886 116.652 224.411 116.558 224.949 116.485L224.868 115.884C224.312 115.96 223.769 116.057 223.254 116.175ZM220.146 117.259L220.414 117.803C220.871 117.576 221.36 117.373 221.867 117.198L221.669 116.624C221.138 116.809 220.625 117.022 220.146 117.259ZM215.581 136.157L214.994 136.305C215.135 136.868 215.28 137.396 215.422 137.879L216.003 137.709C215.864 137.232 215.721 136.712 215.581 136.157ZM214.939 133.013L214.341 133.106C214.427 133.658 214.525 134.195 214.632 134.713L215.225 134.591C215.121 134.082 215.024 133.554 214.939 133.013ZM226.533 116.331C227.044 116.3 227.576 116.284 228.128 116.285V115.678C227.563 115.678 227.019 115.693 226.497 115.725L226.533 116.331ZM214.718 126.643L214.115 126.575C214.056 127.102 214.017 127.653 214 128.214L214.606 128.232C214.621 127.688 214.659 127.154 214.718 126.643ZM216.836 120.776L216.347 120.416C216.026 120.854 215.733 121.331 215.475 121.831L216.014 122.109C216.258 121.636 216.534 121.188 216.836 120.776ZM214.618 129.83L214.011 129.854C214.032 130.377 214.072 130.926 214.13 131.487L214.733 131.424C214.676 130.876 214.637 130.339 214.618 129.83ZM215.399 123.554L214.826 123.356C214.651 123.864 214.502 124.399 214.382 124.948L214.973 125.077C215.088 124.551 215.231 124.039 215.399 123.554ZM251.787 120.987C252.358 121.06 252.899 121.113 253.409 121.151L253.452 120.546C252.953 120.509 252.424 120.456 251.863 120.385L251.787 120.987ZM255.045 120.61L255.042 121.216C255.609 121.219 256.161 121.198 256.682 121.155L256.632 120.551C256.129 120.593 255.594 120.613 255.045 120.61ZM258.191 120.329L258.314 120.923C258.895 120.802 259.433 120.642 259.911 120.449L259.684 119.886C259.239 120.067 258.737 120.216 258.191 120.329ZM248.58 120.436C249.11 120.549 249.642 120.651 250.177 120.744L250.279 120.145C249.777 120.058 249.251 119.958 248.705 119.843L248.58 120.436ZM229.725 116.329C230.241 116.357 230.773 116.397 231.321 116.451L231.38 115.847C230.821 115.793 230.281 115.752 229.756 115.724L229.725 116.329ZM261.482 118.634C261.481 118.637 261.355 118.852 261.005 119.136L261.387 119.607C261.806 119.265 261.977 118.99 262.007 118.938L261.482 118.634ZM236.079 117.18C236.591 117.283 237.114 117.396 237.65 117.519L237.785 116.928C237.245 116.804 236.716 116.69 236.198 116.586L236.079 117.18ZM232.912 116.64C233.427 116.71 233.959 116.791 234.499 116.885L234.601 116.287C234.052 116.193 233.515 116.11 232.995 116.039L232.912 116.64ZM239.213 117.897C239.722 118.026 240.24 118.163 240.768 118.309L240.93 117.724C240.397 117.577 239.874 117.439 239.362 117.309L239.213 117.897ZM242.489 118.171L242.318 118.752C242.639 118.847 242.963 118.945 243.29 119.046L243.864 119.22L244.036 118.639L243.468 118.467C243.139 118.366 242.812 118.267 242.489 118.171ZM245.424 119.668C245.965 119.816 246.488 119.951 246.995 120.075L247.14 119.487C246.637 119.363 246.118 119.23 245.583 119.083L245.424 119.668Z"
            fill="#101828" />
        <circle cx="175" cy="227" r="46" fill="#4CC3C7" fill-opacity="0.5" />
        <circle cx="310" cy="202" r="6" fill="#0B0924" />
        <circle cx="331" cy="101" r="25" fill="#4CC3C7" />
    </g>
    <g clip-path="url(#clip0_1919_40042)">
        <path
            d="M266.972 188.4H220.028C219.174 188.4 218.354 188.06 217.75 187.456C217.145 186.851 216.806 186.032 216.806 185.177V159.181L241.609 141.214C242.159 140.816 242.821 140.602 243.5 140.602C244.179 140.602 244.841 140.816 245.391 141.214L270.194 159.181V185.177C270.194 186.032 269.855 186.851 269.25 187.456C268.646 188.06 267.826 188.4 266.972 188.4Z"
            fill="white" />
        <path
            d="M245.391 141.214C244.841 140.816 244.179 140.602 243.5 140.602C242.821 140.602 242.159 140.816 241.609 141.214L241.083 141.596L262.385 157.026C263.306 157.693 264.056 158.569 264.574 159.582C265.091 160.596 265.36 161.717 265.36 162.855V185.177C265.36 186.032 265.021 186.851 264.416 187.456C263.812 188.06 262.992 188.4 262.138 188.4H266.972C267.826 188.4 268.646 188.06 269.25 187.456C269.855 186.851 270.194 186.032 270.194 185.177V159.181L245.391 141.214Z"
            fill="#E1E1E3" />
        <path
            d="M232.919 152.734H254.081C254.936 152.734 255.755 153.074 256.36 153.678C256.964 154.283 257.304 155.102 257.304 155.957V186.787H229.696V155.957C229.696 155.102 230.036 154.283 230.64 153.678C231.245 153.074 232.064 152.734 232.919 152.734Z"
            fill="white" />
        <path
            d="M270.194 159.18V185.176C270.194 186.03 269.854 186.85 269.25 187.454C268.645 188.058 267.826 188.398 266.972 188.398H220.028C219.174 188.398 218.354 188.058 217.75 187.454C217.146 186.85 216.806 186.03 216.806 185.176V159.18L233.851 171.527L241.609 177.146C242.159 177.545 242.821 177.759 243.5 177.759C244.179 177.759 244.841 177.545 245.391 177.146L253.337 171.39L270.194 159.18Z"
            fill="#4CC3C7" />
        <path
            d="M270.194 159.18V185.176C270.195 185.975 269.898 186.747 269.36 187.338L269.238 187.311L253.528 171.601L253.337 171.39L270.194 159.18ZM233.851 171.527L233.789 171.601L218.079 187.311L217.843 187.543C217.516 187.242 217.254 186.876 217.076 186.469C216.897 186.061 216.805 185.621 216.806 185.176V159.18L233.851 171.527Z"
            fill="#4CC3C7" />
        <path
            d="M270.194 159.18V185.176C270.194 185.232 270.193 185.286 270.19 185.341C270.188 185.39 270.185 185.437 270.179 185.484C270.177 185.514 270.174 185.544 270.169 185.574C270.166 185.605 270.162 185.635 270.157 185.666C270.15 185.709 270.144 185.75 270.134 185.792C270.13 185.82 270.124 185.847 270.117 185.874C270.112 185.906 270.104 185.938 270.094 185.97C270.085 186.012 270.073 186.053 270.06 186.095C270.051 186.125 270.043 186.155 270.032 186.186C270.026 186.206 270.019 186.225 270.012 186.245C270.004 186.268 269.996 186.292 269.986 186.314C269.975 186.347 269.962 186.378 269.948 186.409C269.944 186.421 269.939 186.434 269.933 186.446C269.921 186.477 269.908 186.507 269.892 186.537C269.882 186.56 269.871 186.584 269.858 186.608C269.854 186.617 269.85 186.627 269.844 186.637C269.825 186.675 269.804 186.713 269.783 186.751C269.783 186.752 269.783 186.752 269.782 186.753C269.759 186.792 269.737 186.831 269.713 186.869C269.708 186.877 269.702 186.886 269.697 186.893C269.675 186.929 269.653 186.963 269.629 186.997C269.548 187.117 269.458 187.231 269.36 187.338C269.359 187.339 269.358 187.341 269.356 187.342C269.321 187.382 269.284 187.421 269.246 187.457C269.207 187.496 269.167 187.534 269.127 187.57C269.086 187.608 269.045 187.643 269.002 187.678C268.963 187.71 268.924 187.741 268.883 187.77C268.845 187.798 268.806 187.825 268.768 187.851C268.727 187.88 268.685 187.905 268.642 187.931C268.611 187.952 268.579 187.97 268.545 187.988C268.52 188.003 268.494 188.017 268.467 188.03C268.45 188.039 268.433 188.048 268.415 188.056C268.393 188.069 268.369 188.081 268.345 188.091C268.305 188.111 268.265 188.129 268.225 188.145L268.224 188.146C268.177 188.165 268.129 188.185 268.079 188.203C268.076 188.205 268.072 188.206 268.068 188.207C268.024 188.222 267.979 188.238 267.934 188.252C267.926 188.254 267.917 188.258 267.908 188.26C267.865 188.273 267.821 188.286 267.776 188.296C267.727 188.309 267.676 188.321 267.625 188.332C267.623 188.333 267.619 188.333 267.617 188.334C267.567 188.344 267.514 188.353 267.463 188.361C267.424 188.367 267.384 188.373 267.346 188.376C267.338 188.378 267.33 188.379 267.322 188.379C267.301 188.382 267.28 188.383 267.26 188.386C267.219 188.39 267.178 188.392 267.137 188.394C267.082 188.397 267.028 188.398 266.972 188.398H262.138C262.561 188.398 262.98 188.315 263.371 188.153C263.762 187.991 264.117 187.754 264.417 187.455C264.716 187.155 264.953 186.8 265.115 186.409C265.277 186.018 265.36 185.599 265.36 185.176V162.854C265.36 162.797 265.359 162.74 265.358 162.683L270.194 159.18Z"
            fill="#4CC3C7" />
        <path
            d="M270.194 159.18V185.176C270.194 185.232 270.193 185.286 270.19 185.341C270.188 185.39 270.185 185.437 270.179 185.484C270.177 185.514 270.174 185.544 270.169 185.574C270.166 185.605 270.162 185.635 270.157 185.666C270.15 185.709 270.144 185.75 270.134 185.792C270.13 185.82 270.124 185.847 270.117 185.874C270.112 185.906 270.104 185.938 270.094 185.97C270.085 186.012 270.073 186.053 270.06 186.095C270.051 186.125 270.043 186.155 270.032 186.186C270.026 186.206 270.019 186.225 270.012 186.245C270.004 186.268 269.996 186.292 269.986 186.314C269.975 186.347 269.962 186.378 269.948 186.409C269.944 186.421 269.939 186.434 269.933 186.446C269.921 186.477 269.908 186.507 269.892 186.537C269.882 186.56 269.871 186.584 269.858 186.608C269.854 186.617 269.85 186.627 269.844 186.637C269.825 186.675 269.804 186.713 269.783 186.751C269.783 186.752 269.783 186.752 269.782 186.753C269.759 186.792 269.737 186.831 269.713 186.869C269.708 186.877 269.702 186.886 269.697 186.893C269.675 186.929 269.653 186.963 269.629 186.997C269.547 187.116 269.457 187.23 269.36 187.338C269.359 187.339 269.358 187.341 269.356 187.342C269.32 187.382 269.283 187.42 269.246 187.457C269.207 187.496 269.167 187.534 269.127 187.57C269.086 187.608 269.045 187.643 269.002 187.678C268.963 187.71 268.924 187.741 268.883 187.77C268.845 187.798 268.806 187.825 268.768 187.851C268.727 187.88 268.685 187.905 268.642 187.931C268.611 187.952 268.579 187.97 268.545 187.988C268.52 188.003 268.494 188.017 268.467 188.03C268.45 188.039 268.433 188.048 268.415 188.056C268.393 188.069 268.369 188.081 268.345 188.091C268.305 188.111 268.265 188.129 268.225 188.145L268.224 188.146C268.177 188.165 268.129 188.185 268.079 188.203C268.076 188.205 268.072 188.206 268.068 188.207C268.024 188.222 267.979 188.238 267.934 188.252C267.926 188.254 267.917 188.258 267.908 188.26C267.865 188.273 267.821 188.286 267.776 188.296C267.727 188.309 267.676 188.321 267.625 188.332C267.623 188.333 267.619 188.333 267.617 188.334C267.567 188.344 267.514 188.353 267.463 188.361C267.424 188.367 267.384 188.373 267.346 188.376C267.338 188.378 267.33 188.379 267.322 188.379C267.301 188.382 267.28 188.383 267.26 188.386C267.219 188.39 267.178 188.392 267.137 188.394C267.082 188.397 267.028 188.398 266.972 188.398H262.138C262.561 188.398 262.98 188.315 263.371 188.153C263.762 187.991 264.117 187.754 264.417 187.455C264.716 187.155 264.953 186.8 265.115 186.409C265.277 186.018 265.36 185.599 265.36 185.176V162.854C265.36 162.797 265.359 162.74 265.358 162.683L270.194 159.18Z"
            fill="#44B4B8" />
        <path
            d="M269.238 187.312L269.36 187.338C269.359 187.339 269.358 187.342 269.356 187.343C269.32 187.382 269.283 187.42 269.246 187.458C269.207 187.496 269.167 187.534 269.127 187.57C269.086 187.608 269.045 187.643 269.002 187.678C268.963 187.71 268.924 187.741 268.883 187.77C268.845 187.798 268.806 187.825 268.768 187.851C268.727 187.88 268.685 187.906 268.642 187.931C268.611 187.952 268.579 187.97 268.545 187.988C268.52 188.003 268.494 188.017 268.467 188.03C268.45 188.04 268.433 188.048 268.415 188.056C268.393 188.069 268.369 188.081 268.345 188.091C268.305 188.111 268.265 188.129 268.225 188.145L268.224 188.146C268.177 188.166 268.129 188.185 268.079 188.203C268.076 188.205 268.072 188.206 268.068 188.207C268.024 188.222 267.979 188.239 267.934 188.253C267.926 188.255 267.917 188.258 267.908 188.26C267.865 188.273 267.821 188.286 267.776 188.297C267.727 188.309 267.676 188.321 267.625 188.332C267.623 188.333 267.619 188.333 267.617 188.334C267.567 188.344 267.514 188.354 267.463 188.361C267.424 188.367 267.384 188.373 267.346 188.376C267.338 188.378 267.33 188.379 267.322 188.379C267.301 188.383 267.28 188.384 267.26 188.386C267.219 188.39 267.178 188.392 267.137 188.394C267.082 188.398 267.028 188.399 266.972 188.399H262.138C262.561 188.399 262.98 188.315 263.371 188.153C263.762 187.991 264.117 187.754 264.417 187.455C264.716 187.156 264.953 186.8 265.115 186.409C265.277 186.018 265.36 185.599 265.36 185.176V183.434L269.238 187.312Z"
            fill="#44B4B8" />
        <path
            d="M270.993 159.075C270.991 159.064 270.989 159.053 270.987 159.041C270.983 159.019 270.978 158.996 270.972 158.973C270.969 158.961 270.965 158.948 270.961 158.935C270.95 158.902 270.937 158.869 270.923 158.838C270.914 158.819 270.904 158.8 270.893 158.782C270.887 158.77 270.88 158.759 270.873 158.747C270.861 158.729 270.848 158.71 270.834 158.693C270.827 158.683 270.82 158.673 270.813 158.664C270.794 158.642 270.775 158.621 270.754 158.601C270.75 158.597 270.746 158.593 270.742 158.589C270.718 158.567 270.693 158.546 270.667 158.527L245.863 140.561C245.176 140.062 244.349 139.793 243.5 139.793C242.651 139.793 241.824 140.062 241.137 140.561L216.333 158.527C216.307 158.546 216.282 158.567 216.258 158.589C216.254 158.593 216.25 158.597 216.246 158.601C216.226 158.621 216.206 158.642 216.187 158.664C216.18 158.673 216.173 158.683 216.166 158.693C216.152 158.71 216.139 158.729 216.127 158.747C216.12 158.759 216.113 158.77 216.107 158.782C216.09 158.812 216.074 158.843 216.061 158.875C216.053 158.895 216.046 158.915 216.039 158.935C216.035 158.948 216.031 158.961 216.028 158.973C216.022 158.996 216.017 159.019 216.013 159.041C216.011 159.053 216.009 159.064 216.007 159.075C216.003 159.11 216 159.145 216 159.18V185.176C216.001 186.244 216.426 187.268 217.181 188.023C217.936 188.778 218.96 189.203 220.028 189.204H266.972C268.04 189.203 269.064 188.778 269.819 188.023C270.574 187.268 270.999 186.244 271 185.176V159.18C271 159.145 270.998 159.11 270.993 159.075ZM242.082 141.866C242.494 141.566 242.991 141.405 243.5 141.405C244.01 141.405 244.506 141.566 244.918 141.866L268.821 159.18L258.109 166.939V155.957C258.108 154.889 257.683 153.865 256.928 153.11C256.173 152.355 255.149 151.93 254.081 151.929H232.919C231.851 151.93 230.827 152.355 230.072 153.11C229.317 153.865 228.892 154.889 228.891 155.957V166.939L218.179 159.18L242.082 141.866ZM217.611 185.176V160.758L232.621 171.63L217.911 186.34C217.714 185.984 217.611 185.583 217.611 185.176ZM266.972 187.593H220.028C219.716 187.593 219.406 187.532 219.116 187.414L233.942 172.588L241.137 177.799C241.824 178.298 242.651 178.567 243.5 178.567C244.349 178.567 245.176 178.298 245.863 177.799L253.242 172.454L268.1 187.313C267.753 187.497 267.365 187.593 266.972 187.593ZM269.389 185.176C269.389 185.503 269.323 185.827 269.194 186.127L254.563 171.497L269.389 160.758V185.176Z"
            fill="#101828" />
        <path
            d="M235.059 165.148L234.316 164.588C234.262 164.55 234.232 164.497 234.224 164.428C234.217 164.359 234.228 164.298 234.259 164.245C234.259 164.238 234.281 164.215 234.327 164.177L235.093 163.514L234.087 163.434C234.057 163.426 234.034 163.422 234.019 163.422C234.011 163.415 234.003 163.411 233.996 163.411C233.942 163.396 233.897 163.358 233.859 163.297C233.828 163.228 233.821 163.159 233.836 163.091L234.121 162.211C234.137 162.15 234.179 162.104 234.247 162.074C234.316 162.043 234.377 162.036 234.43 162.051C234.445 162.051 234.476 162.062 234.521 162.085L235.379 162.611L235.161 161.628C235.154 161.605 235.15 161.586 235.15 161.571C235.15 161.556 235.15 161.544 235.15 161.537C235.15 161.476 235.173 161.418 235.219 161.365C235.272 161.312 235.333 161.285 235.401 161.285H236.327C236.396 161.285 236.453 161.312 236.499 161.365C236.552 161.418 236.579 161.476 236.579 161.537C236.579 161.544 236.579 161.556 236.579 161.571C236.579 161.586 236.575 161.605 236.567 161.628L236.327 162.611L237.207 162.085C237.253 162.062 237.283 162.051 237.299 162.051C237.36 162.036 237.421 162.043 237.481 162.074C237.55 162.104 237.592 162.15 237.607 162.211L237.893 163.091C237.908 163.159 237.901 163.228 237.87 163.297C237.84 163.358 237.794 163.396 237.733 163.411C237.725 163.411 237.714 163.415 237.699 163.422C237.691 163.422 237.672 163.426 237.641 163.434L236.636 163.525L237.401 164.177C237.447 164.215 237.47 164.238 237.47 164.245C237.508 164.298 237.523 164.359 237.516 164.428C237.508 164.497 237.474 164.55 237.413 164.588L236.67 165.148C236.609 165.178 236.544 165.19 236.476 165.182C236.407 165.167 236.354 165.133 236.316 165.079C236.308 165.072 236.301 165.064 236.293 165.057C236.285 165.041 236.274 165.026 236.259 165.011L235.859 164.074L235.47 165.011C235.462 165.026 235.451 165.041 235.436 165.057C235.428 165.064 235.421 165.072 235.413 165.079C235.382 165.133 235.329 165.167 235.253 165.182C235.184 165.19 235.12 165.178 235.059 165.148Z"
            fill="white" />
        <path
            d="M240.148 165.148L239.405 164.588C239.352 164.55 239.321 164.497 239.314 164.428C239.306 164.359 239.317 164.298 239.348 164.245C239.348 164.238 239.371 164.215 239.416 164.177L240.182 163.514L239.176 163.434C239.146 163.426 239.123 163.422 239.108 163.422C239.1 163.415 239.093 163.411 239.085 163.411C239.032 163.396 238.986 163.358 238.948 163.297C238.917 163.228 238.91 163.159 238.925 163.091L239.211 162.211C239.226 162.15 239.268 162.104 239.336 162.074C239.405 162.043 239.466 162.036 239.519 162.051C239.535 162.051 239.565 162.062 239.611 162.085L240.468 162.611L240.251 161.628C240.243 161.605 240.239 161.586 240.239 161.571C240.239 161.556 240.239 161.544 240.239 161.537C240.239 161.476 240.262 161.418 240.308 161.365C240.361 161.312 240.422 161.285 240.491 161.285H241.416C241.485 161.285 241.542 161.312 241.588 161.365C241.641 161.418 241.668 161.476 241.668 161.537C241.668 161.544 241.668 161.556 241.668 161.571C241.668 161.586 241.664 161.605 241.656 161.628L241.416 162.611L242.296 162.085C242.342 162.062 242.373 162.051 242.388 162.051C242.449 162.036 242.51 162.043 242.571 162.074C242.639 162.104 242.681 162.15 242.696 162.211L242.982 163.091C242.997 163.159 242.99 163.228 242.959 163.297C242.929 163.358 242.883 163.396 242.822 163.411C242.815 163.411 242.803 163.415 242.788 163.422C242.78 163.422 242.761 163.426 242.731 163.434L241.725 163.525L242.491 164.177C242.536 164.215 242.559 164.238 242.559 164.245C242.597 164.298 242.613 164.359 242.605 164.428C242.597 164.497 242.563 164.55 242.502 164.588L241.759 165.148C241.698 165.178 241.634 165.19 241.565 165.182C241.496 165.167 241.443 165.133 241.405 165.079C241.397 165.072 241.39 165.064 241.382 165.057C241.375 165.041 241.363 165.026 241.348 165.011L240.948 164.074L240.559 165.011C240.552 165.026 240.54 165.041 240.525 165.057C240.517 165.064 240.51 165.072 240.502 165.079C240.472 165.133 240.418 165.167 240.342 165.182C240.274 165.19 240.209 165.178 240.148 165.148Z"
            fill="white" />
        <path
            d="M245.237 165.148L244.494 164.588C244.441 164.55 244.411 164.497 244.403 164.428C244.395 164.359 244.407 164.298 244.437 164.245C244.437 164.238 244.46 164.215 244.506 164.177L245.271 163.514L244.266 163.434C244.235 163.426 244.212 163.422 244.197 163.422C244.19 163.415 244.182 163.411 244.174 163.411C244.121 163.396 244.075 163.358 244.037 163.297C244.007 163.228 243.999 163.159 244.014 163.091L244.3 162.211C244.315 162.15 244.357 162.104 244.426 162.074C244.494 162.043 244.555 162.036 244.609 162.051C244.624 162.051 244.654 162.062 244.7 162.085L245.557 162.611L245.34 161.628C245.332 161.605 245.329 161.586 245.329 161.571C245.329 161.556 245.329 161.544 245.329 161.537C245.329 161.476 245.351 161.418 245.397 161.365C245.451 161.312 245.511 161.285 245.58 161.285H246.506C246.574 161.285 246.631 161.312 246.677 161.365C246.731 161.418 246.757 161.476 246.757 161.537C246.757 161.544 246.757 161.556 246.757 161.571C246.757 161.586 246.753 161.605 246.746 161.628L246.506 162.611L247.386 162.085C247.431 162.062 247.462 162.051 247.477 162.051C247.538 162.036 247.599 162.043 247.66 162.074C247.729 162.104 247.771 162.15 247.786 162.211L248.071 163.091C248.087 163.159 248.079 163.228 248.049 163.297C248.018 163.358 247.972 163.396 247.911 163.411C247.904 163.411 247.892 163.415 247.877 163.422C247.87 163.422 247.851 163.426 247.82 163.434L246.814 163.525L247.58 164.177C247.626 164.215 247.649 164.238 247.649 164.245C247.687 164.298 247.702 164.359 247.694 164.428C247.687 164.497 247.652 164.55 247.591 164.588L246.849 165.148C246.788 165.178 246.723 165.19 246.654 165.182C246.586 165.167 246.532 165.133 246.494 165.079C246.487 165.072 246.479 165.064 246.471 165.057C246.464 165.041 246.452 165.026 246.437 165.011L246.037 164.074L245.649 165.011C245.641 165.026 245.63 165.041 245.614 165.057C245.607 165.064 245.599 165.072 245.591 165.079C245.561 165.133 245.508 165.167 245.431 165.182C245.363 165.19 245.298 165.178 245.237 165.148Z"
            fill="white" />
        <path
            d="M250.326 165.148L249.584 164.588C249.53 164.55 249.5 164.497 249.492 164.428C249.485 164.359 249.496 164.298 249.526 164.245C249.526 164.238 249.549 164.215 249.595 164.177L250.361 163.514L249.355 163.434C249.325 163.426 249.302 163.422 249.286 163.422C249.279 163.415 249.271 163.411 249.264 163.411C249.21 163.396 249.165 163.358 249.126 163.297C249.096 163.228 249.088 163.159 249.104 163.091L249.389 162.211C249.405 162.15 249.446 162.104 249.515 162.074C249.584 162.043 249.645 162.036 249.698 162.051C249.713 162.051 249.744 162.062 249.789 162.085L250.646 162.611L250.429 161.628C250.422 161.605 250.418 161.586 250.418 161.571C250.418 161.556 250.418 161.544 250.418 161.537C250.418 161.476 250.441 161.418 250.486 161.365C250.54 161.312 250.601 161.285 250.669 161.285H251.595C251.664 161.285 251.721 161.312 251.766 161.365C251.82 161.418 251.846 161.476 251.846 161.537C251.846 161.544 251.846 161.556 251.846 161.571C251.846 161.586 251.843 161.605 251.835 161.628L251.595 162.611L252.475 162.085C252.521 162.062 252.551 162.051 252.566 162.051C252.627 162.036 252.688 162.043 252.749 162.074C252.818 162.104 252.86 162.15 252.875 162.211L253.161 163.091C253.176 163.159 253.168 163.228 253.138 163.297C253.107 163.358 253.062 163.396 253.001 163.411C252.993 163.411 252.982 163.415 252.966 163.422C252.959 163.422 252.94 163.426 252.909 163.434L251.904 163.525L252.669 164.177C252.715 164.215 252.738 164.238 252.738 164.245C252.776 164.298 252.791 164.359 252.784 164.428C252.776 164.497 252.742 164.55 252.681 164.588L251.938 165.148C251.877 165.178 251.812 165.19 251.744 165.182C251.675 165.167 251.622 165.133 251.584 165.079C251.576 165.072 251.568 165.064 251.561 165.057C251.553 165.041 251.542 165.026 251.526 165.011L251.126 164.074L250.738 165.011C250.73 165.026 250.719 165.041 250.704 165.057C250.696 165.064 250.688 165.072 250.681 165.079C250.65 165.133 250.597 165.167 250.521 165.182C250.452 165.19 250.387 165.178 250.326 165.148Z"
            fill="white" />
    </g>
    <path
        d="M138.253 76.5765C138.253 73.6909 140.592 71.3516 143.479 71.3516H335.758C338.645 71.3516 340.984 73.6909 340.984 76.5765V96.9841H138.253V76.5765Z"
        fill="#0B0924" />
    <path
        d="M163.768 83.7193C163.768 86.6892 161.359 89.0967 158.39 89.0967C155.42 89.0967 153.013 86.6892 153.013 83.7193C153.013 80.7494 155.42 78.3418 158.39 78.3418C161.359 78.3418 163.768 80.7494 163.768 83.7193Z"
        fill="white" />
    <path
        d="M181.691 83.7193C181.691 86.6892 179.283 89.0967 176.313 89.0967C173.344 89.0967 170.936 86.6892 170.936 83.7193C170.936 80.7494 173.344 78.3418 176.313 78.3418C179.283 78.3418 181.691 80.7494 181.691 83.7193Z"
        fill="white" />
    <path
        d="M199.616 83.7193C199.616 86.6892 197.208 89.0967 194.239 89.0967C191.269 89.0967 188.861 86.6892 188.861 83.7193C188.861 80.7494 191.269 78.3418 194.239 78.3418C197.208 78.3418 199.616 80.7494 199.616 83.7193Z"
        fill="white" />
    <path
        d="M246.967 269.375C251.473 300.007 274.798 317.71 286.909 323.157C287.299 323.332 287.709 323.413 288.135 323.413H291.549C293.578 323.413 295.074 321.509 294.526 319.556C285.19 286.331 263.544 271.093 250.573 266.337C248.579 265.606 246.657 267.272 246.967 269.375Z"
        fill="white" />
    <path fill-rule="evenodd" clip-rule="evenodd"
        d="M250.214 267.319C249.02 266.881 247.798 267.844 248.001 269.222C252.439 299.39 275.433 316.851 287.34 322.205C287.581 322.314 287.844 322.368 288.136 322.368H291.55C292.914 322.368 293.875 321.1 293.519 319.839C284.283 286.964 262.897 271.968 250.214 267.319ZM245.933 269.527C245.517 266.701 248.138 264.332 250.934 265.357C264.194 270.219 286.1 285.701 295.532 319.274C296.276 321.92 294.245 324.458 291.55 324.458H288.136C287.575 324.458 287.017 324.351 286.482 324.111C274.165 318.572 250.508 300.626 245.933 269.527Z"
        fill="#0B0924" />
    <path fill-rule="evenodd" clip-rule="evenodd"
        d="M265.743 287.006C262.513 283.685 259.595 281.024 257.036 278.75L258.424 277.188C261.441 279.869 264.982 283.109 268.949 287.336C271.895 290.476 275.071 294.158 278.441 298.562V294.055H280.531V301.353C283.409 305.282 286.416 309.738 289.529 314.824C291.007 317.236 292.508 319.791 294.031 322.498L292.209 323.522C290.784 320.989 289.379 318.591 287.996 316.321L281.285 315.194L281.63 313.132L286.533 313.956C283.808 309.61 281.174 305.754 278.644 302.316C274.74 297.009 271.084 292.693 267.733 289.095H260.947V287.006H265.743Z"
        fill="#0B0924" />
    <path
        d="M283.533 216.183C264.011 257.422 278.02 302.644 288.623 322.237C289.158 323.226 290.195 323.815 291.318 323.815H296.226C297.874 323.815 299.242 322.523 299.344 320.879C302.54 268.866 294.606 232.602 288.61 216.356C287.731 213.976 284.619 213.89 283.533 216.183Z"
        fill="#4CC3C7" />
    <path
        d="M328.751 239.689C303.726 256.59 291.578 297.881 288.001 320.299C287.704 322.169 289.169 323.816 291.061 323.816H298.29C299.101 323.816 299.882 323.504 300.457 322.932C323.295 300.187 331.396 262.645 333.035 242.273C333.227 239.886 330.735 238.349 328.751 239.689Z"
        fill="white" />
    <path fill-rule="evenodd" clip-rule="evenodd"
        d="M331.995 242.19C332.121 240.618 330.546 239.737 329.336 240.555C317.066 248.842 307.872 263.178 301.293 278.342C294.721 293.484 290.811 309.324 289.034 320.464C288.841 321.671 289.783 322.772 291.062 322.772H298.291C298.834 322.772 299.348 322.562 299.72 322.192C310.986 310.971 318.653 296.06 323.708 281.373C328.761 266.692 331.181 252.3 331.995 242.19ZM328.167 238.823C330.925 236.96 334.335 239.155 334.078 242.357C333.252 252.618 330.802 267.184 325.684 282.052C320.569 296.916 312.766 312.148 301.194 323.673C300.418 324.446 299.368 324.861 298.291 324.861H291.062C288.554 324.861 286.566 322.666 286.97 320.135C288.77 308.856 292.722 292.843 299.375 277.51C306.02 262.199 315.413 247.437 328.167 238.823Z"
        fill="#0B0924" />
    <path
        d="M349.781 283.869C324.961 284.799 306.231 305.418 297.66 319.35C296.431 321.348 297.921 323.816 300.267 323.816H308.949C309.383 323.816 309.811 323.727 310.207 323.548C326.491 316.138 343.052 299.147 351.929 288.442C353.504 286.544 352.247 283.777 349.781 283.869Z"
        fill="#4CC3C7" />
    <path fill-rule="evenodd" clip-rule="evenodd"
        d="M286.925 222.909C286.65 231.246 286.606 239.297 286.742 246.985C286.848 252.937 287.059 258.67 287.353 264.147L291.828 256.91L293.606 258.01L287.561 267.782C287.985 274.692 288.533 281.162 289.153 287.111C289.888 294.172 290.722 300.497 291.565 305.953L295.443 299.548L297.231 300.63L292.075 309.148C293.102 315.378 294.113 320.263 294.938 323.562L292.911 324.069C292.051 320.632 291.006 315.556 289.949 309.105C288.967 303.108 287.976 295.916 287.117 287.737L279.565 281.172L280.936 279.595L286.808 284.7C286.285 279.362 285.821 273.636 285.455 267.577C285.068 261.18 284.788 254.412 284.659 247.333L279.386 239.546L281.116 238.375L284.604 243.525C284.535 236.87 284.601 229.958 284.836 222.84L286.925 222.909Z"
        fill="white" />
    <path fill-rule="evenodd" clip-rule="evenodd"
        d="M315.542 272.319C319.485 263.494 323.551 255.22 327.398 248.744L325.601 247.676C321.381 254.783 316.927 263.972 312.674 273.63C310.359 278.885 308.101 284.288 305.969 289.578L304.2 280.583L302.148 280.985L304.542 293.152C302.337 298.718 300.292 304.097 298.491 308.976C296.401 314.642 294.638 319.639 293.337 323.48L295.316 324.15C296.584 320.408 298.295 315.556 300.323 310.048L310.942 303.803L309.883 302.002L301.474 306.947C303.04 302.755 304.764 298.26 306.599 293.637C309.043 287.473 311.681 281.086 314.399 274.897L324.012 271.723L323.356 269.738L315.542 272.319Z"
        fill="#0B0924" />
    <path fill-rule="evenodd" clip-rule="evenodd"
        d="M346.219 289.786C340.483 292.272 334.656 295.668 329.096 299.435C325.593 301.808 322.202 304.324 319.013 306.846H324.488V308.935H316.416C309.025 314.986 302.971 320.831 299.514 324.529L297.986 323.102C301.555 319.284 307.791 313.271 315.383 307.081C319.193 303.974 323.349 300.817 327.684 297.867L330.779 291.202L332.674 292.083L331.008 295.672C335.703 292.664 340.563 289.96 345.388 287.869L346.219 289.786Z"
        fill="white" />
    <defs>
        <clipPath id="clip0_1919_40042">
            <rect width="55" height="55" fill="white" transform="translate(216 137)" />
        </clipPath>
    </defs>
</svg>