<svg width="1350" height="515" viewBox="0 0 1350 515" fill="none" xmlns="http://www.w3.org/2000/svg">
<path d="M595 260H375" stroke="black" stroke-width="5"/>
<path d="M372.5 62.5C492.5 62.5 482.5 255 595 255" stroke="black" stroke-width="5"/>
<path d="M372.5 457.5C492.5 457.5 482.5 265 595 265" stroke="black" stroke-width="5"/>
<path d="M755 260H975" stroke="black" stroke-width="5"/>
<path d="M977.5 62.5C857.5 62.5 867.5 255 755 255" stroke="black" stroke-width="5"/>
<path d="M977.5 457.5C857.5 457.5 867.5 265 755 265" stroke="black" stroke-width="5"/>
<circle cx="675" cy="260" r="80" fill="#101828"/>
<path fill-rule="evenodd" clip-rule="evenodd" d="M704.233 278.542V220.699C704.233 218.763 703.464 216.906 702.095 215.537C700.726 214.168 698.869 213.398 696.932 213.398H649.112C648.669 213.398 648.244 213.574 647.931 213.888C647.618 214.201 647.442 214.626 647.442 215.069V302.977C647.443 304.567 647.963 306.113 648.922 307.381C649.882 308.649 651.229 309.569 652.759 310.003C652.465 309.365 652.38 308.651 652.516 307.962C652.652 307.273 653.001 306.645 653.514 306.166C659.776 300.321 659.886 291.492 659.144 282.146C659.108 281.687 659.166 281.224 659.317 280.789C659.468 280.353 659.707 279.953 660.02 279.615C660.333 279.276 660.713 279.006 661.135 278.821C661.558 278.637 662.014 278.541 662.475 278.542H704.233ZM689.2 263.509H662.475C662.032 263.509 661.607 263.333 661.294 263.019C660.981 262.706 660.805 262.281 660.805 261.838C660.805 261.395 660.981 260.97 661.294 260.657C661.607 260.344 662.032 260.168 662.475 260.168H689.2C689.643 260.168 690.068 260.344 690.381 260.657C690.695 260.97 690.871 261.395 690.871 261.838C690.871 262.281 690.695 262.706 690.381 263.019C690.068 263.333 689.643 263.509 689.2 263.509ZM689.2 256.827H662.475C662.032 256.827 661.607 256.651 661.294 256.338C660.981 256.025 660.805 255.6 660.805 255.157C660.805 254.714 660.981 254.289 661.294 253.976C661.607 253.663 662.032 253.487 662.475 253.487H689.2C689.643 253.487 690.068 253.663 690.381 253.976C690.695 254.289 690.871 254.714 690.871 255.157C690.871 255.6 690.695 256.025 690.381 256.338C690.068 256.651 689.643 256.827 689.2 256.827ZM689.2 250.146H662.475C662.032 250.146 661.607 249.97 661.294 249.657C660.981 249.343 660.805 248.919 660.805 248.476C660.805 248.033 660.981 247.608 661.294 247.294C661.607 246.981 662.032 246.805 662.475 246.805H689.2C689.643 246.805 690.068 246.981 690.381 247.294C690.695 247.608 690.871 248.033 690.871 248.476C690.871 248.919 690.695 249.343 690.381 249.657C690.068 249.97 689.643 250.146 689.2 250.146ZM689.2 243.465H662.475C662.032 243.465 661.607 243.289 661.294 242.975C660.981 242.662 660.805 242.237 660.805 241.794C660.805 241.351 660.981 240.926 661.294 240.613C661.607 240.3 662.032 240.124 662.475 240.124H689.2C689.643 240.124 690.068 240.3 690.381 240.613C690.695 240.926 690.871 241.351 690.871 241.794C690.871 242.237 690.695 242.662 690.381 242.975C690.068 243.289 689.643 243.465 689.2 243.465ZM682.519 230.102H669.156C668.713 230.102 668.288 229.926 667.975 229.613C667.662 229.299 667.486 228.875 667.486 228.431C667.486 227.988 667.662 227.564 667.975 227.25C668.288 226.937 668.713 226.761 669.156 226.761H682.519C682.962 226.761 683.387 226.937 683.7 227.25C684.013 227.564 684.189 227.988 684.189 228.431C684.189 228.875 684.013 229.299 683.7 229.613C683.387 229.926 682.962 230.102 682.519 230.102Z" fill="white"/>
<path fill-rule="evenodd" clip-rule="evenodd" d="M715.923 295.25C715.923 298.793 714.515 302.191 712.01 304.697C709.505 307.202 706.107 308.61 702.563 308.61H656.08C656.081 308.496 656.003 308.411 655.791 308.61C662.751 302.114 663.294 292.409 662.482 282.028C662.594 281.998 662.741 281.884 662.472 281.884H715.923V295.25ZM646.058 213.711C639.217 215.122 634.076 221.177 634.076 228.433V241.796C634.076 242.239 634.252 242.664 634.565 242.977C634.879 243.29 635.304 243.466 635.747 243.466H645.769V215.071C645.769 214.586 645.872 214.127 646.058 213.711Z" fill="white"/>
<rect width="375" height="120" rx="20" fill="#4CC3C7"/>
<path d="M123.193 77C122.859 77 122.576 76.8833 122.343 76.65C122.109 76.4167 121.993 76.1333 121.993 75.8V48.15H112.743C112.409 48.15 112.126 48.0333 111.893 47.8C111.659 47.5667 111.543 47.2833 111.543 46.95V43.25C111.543 42.8833 111.659 42.5833 111.893 42.35C112.126 42.1167 112.409 42 112.743 42H138.243C138.609 42 138.909 42.1167 139.143 42.35C139.376 42.5833 139.493 42.8833 139.493 43.25V46.95C139.493 47.2833 139.376 47.5667 139.143 47.8C138.909 48.0333 138.609 48.15 138.243 48.15H129.043V75.8C129.043 76.1333 128.926 76.4167 128.693 76.65C128.459 76.8833 128.159 77 127.793 77H123.193ZM141.846 77C141.512 77 141.229 76.8833 140.996 76.65C140.762 76.4167 140.646 76.1333 140.646 75.8V52.25C140.646 51.8833 140.762 51.5833 140.996 51.35C141.229 51.1167 141.512 51 141.846 51H145.896C146.229 51 146.512 51.1167 146.746 51.35C147.012 51.5833 147.146 51.8833 147.146 52.25V54.3C147.912 53.2333 148.896 52.4167 150.096 51.85C151.329 51.2833 152.746 51 154.346 51H156.396C156.762 51 157.046 51.1167 157.246 51.35C157.479 51.5833 157.596 51.8667 157.596 52.2V55.8C157.596 56.1333 157.479 56.4167 157.246 56.65C157.046 56.8833 156.762 57 156.396 57H152.496C150.896 57 149.646 57.45 148.746 58.35C147.879 59.25 147.446 60.4833 147.446 62.05V75.8C147.446 76.1333 147.329 76.4167 147.096 76.65C146.862 76.8833 146.562 77 146.196 77H141.846ZM168.655 77.5C166.921 77.5 165.355 77.1667 163.955 76.5C162.555 75.8 161.438 74.8833 160.605 73.75C159.805 72.5833 159.405 71.2833 159.405 69.85C159.405 67.5167 160.338 65.6667 162.205 64.3C164.105 62.9 166.605 61.9667 169.705 61.5L176.555 60.5V59.45C176.555 58.05 176.205 56.9667 175.505 56.2C174.805 55.4333 173.605 55.05 171.905 55.05C170.705 55.05 169.721 55.3 168.955 55.8C168.221 56.2667 167.671 56.9 167.305 57.7C167.038 58.1333 166.655 58.35 166.155 58.35H162.205C161.838 58.35 161.555 58.25 161.355 58.05C161.188 57.85 161.105 57.5833 161.105 57.25C161.138 56.7167 161.355 56.0667 161.755 55.3C162.155 54.5333 162.788 53.8 163.655 53.1C164.521 52.3667 165.638 51.75 167.005 51.25C168.371 50.75 170.021 50.5 171.955 50.5C174.055 50.5 175.821 50.7667 177.255 51.3C178.721 51.8 179.888 52.4833 180.755 53.35C181.621 54.2167 182.255 55.2333 182.655 56.4C183.055 57.5667 183.255 58.8 183.255 60.1V75.8C183.255 76.1333 183.138 76.4167 182.905 76.65C182.671 76.8833 182.388 77 182.055 77H178.005C177.638 77 177.338 76.8833 177.105 76.65C176.905 76.4167 176.805 76.1333 176.805 75.8V73.85C176.371 74.4833 175.788 75.0833 175.055 75.65C174.321 76.1833 173.421 76.6333 172.355 77C171.321 77.3333 170.088 77.5 168.655 77.5ZM170.355 72.75C171.521 72.75 172.571 72.5 173.505 72C174.471 71.5 175.221 70.7333 175.755 69.7C176.321 68.6333 176.605 67.3 176.605 65.7V64.65L171.605 65.45C169.638 65.75 168.171 66.2333 167.205 66.9C166.238 67.5667 165.755 68.3833 165.755 69.35C165.755 70.0833 165.971 70.7167 166.405 71.25C166.871 71.75 167.455 72.1333 168.155 72.4C168.855 72.6333 169.588 72.75 170.355 72.75ZM198.234 77C197.701 77 197.301 76.8833 197.034 76.65C196.801 76.3833 196.601 76.0833 196.434 75.75L187.084 52.55C187.018 52.3833 186.984 52.2333 186.984 52.1C186.984 51.8 187.084 51.55 187.284 51.35C187.518 51.1167 187.784 51 188.084 51H192.134C192.534 51 192.834 51.1167 193.034 51.35C193.234 51.55 193.368 51.75 193.434 51.95L200.084 69.5L206.734 51.95C206.801 51.75 206.934 51.55 207.134 51.35C207.334 51.1167 207.634 51 208.034 51H212.134C212.401 51 212.634 51.1167 212.834 51.35C213.068 51.55 213.184 51.8 213.184 52.1C213.184 52.2333 213.168 52.3833 213.134 52.55L203.734 75.75C203.601 76.0833 203.401 76.3833 203.134 76.65C202.868 76.8833 202.468 77 201.934 77H198.234ZM228.018 77.5C224.318 77.5 221.384 76.4333 219.218 74.3C217.051 72.1667 215.884 69.1333 215.718 65.2C215.684 64.8667 215.668 64.45 215.668 63.95C215.668 63.4167 215.684 63 215.718 62.7C215.851 60.2 216.418 58.0333 217.418 56.2C218.451 54.3667 219.868 52.9667 221.668 52C223.468 51 225.584 50.5 228.018 50.5C230.718 50.5 232.984 51.0667 234.818 52.2C236.651 53.3 238.034 54.85 238.968 56.85C239.901 58.8167 240.368 61.1 240.368 63.7V64.75C240.368 65.0833 240.251 65.3667 240.018 65.6C239.784 65.8333 239.484 65.95 239.118 65.95H222.518C222.518 65.95 222.518 66 222.518 66.1C222.518 66.2 222.518 66.2833 222.518 66.35C222.551 67.5167 222.768 68.6 223.168 69.6C223.601 70.5667 224.218 71.35 225.018 71.95C225.851 72.55 226.834 72.85 227.968 72.85C228.901 72.85 229.684 72.7167 230.318 72.45C230.951 72.15 231.468 71.8167 231.868 71.45C232.268 71.0833 232.551 70.7833 232.718 70.55C233.018 70.15 233.251 69.9167 233.418 69.85C233.618 69.75 233.901 69.7 234.268 69.7H238.568C238.901 69.7 239.168 69.8 239.368 70C239.601 70.2 239.701 70.45 239.668 70.75C239.634 71.2833 239.351 71.9333 238.818 72.7C238.318 73.4667 237.584 74.2167 236.618 74.95C235.651 75.6833 234.434 76.3 232.968 76.8C231.534 77.2667 229.884 77.5 228.018 77.5ZM222.518 61.75H233.568V61.6C233.568 60.3 233.351 59.1667 232.918 58.2C232.484 57.2333 231.851 56.4667 231.018 55.9C230.184 55.3333 229.184 55.05 228.018 55.05C226.851 55.05 225.851 55.3333 225.018 55.9C224.184 56.4667 223.551 57.2333 223.118 58.2C222.718 59.1667 222.518 60.3 222.518 61.6V61.75ZM246.925 77C246.592 77 246.308 76.8833 246.075 76.65C245.842 76.4167 245.725 76.1333 245.725 75.8V42.7C245.725 42.3667 245.842 42.0833 246.075 41.85C246.308 41.6167 246.592 41.5 246.925 41.5H251.075C251.408 41.5 251.692 41.6167 251.925 41.85C252.158 42.0833 252.275 42.3667 252.275 42.7V75.8C252.275 76.1333 252.158 76.4167 251.925 76.65C251.692 76.8833 251.408 77 251.075 77H246.925Z" fill="white"/>
<rect y="200" width="375" height="120" rx="20" fill="#4CC3C7"/>
<path d="M130.408 277C130.074 277 129.791 276.883 129.558 276.65C129.324 276.417 129.208 276.133 129.208 275.8V243.25C129.208 242.883 129.324 242.583 129.558 242.35C129.791 242.117 130.074 242 130.408 242H152.108C152.474 242 152.774 242.117 153.008 242.35C153.241 242.583 153.358 242.883 153.358 243.25V246.75C153.358 247.117 153.241 247.417 153.008 247.65C152.774 247.85 152.474 247.95 152.108 247.95H136.058V257.45H151.108C151.474 257.45 151.774 257.567 152.008 257.8C152.241 258.033 152.358 258.333 152.358 258.7V262.2C152.358 262.533 152.241 262.817 152.008 263.05C151.774 263.283 151.474 263.4 151.108 263.4H136.058V275.8C136.058 276.133 135.941 276.417 135.708 276.65C135.474 276.883 135.174 277 134.808 277H130.408ZM169.649 277.5C166.982 277.5 164.732 277.033 162.899 276.1C161.099 275.167 159.715 273.85 158.749 272.15C157.815 270.45 157.282 268.467 157.149 266.2C157.115 265.6 157.099 264.867 157.099 264C157.099 263.133 157.115 262.4 157.149 261.8C157.282 259.5 157.832 257.517 158.799 255.85C159.799 254.15 161.199 252.833 162.999 251.9C164.832 250.967 167.049 250.5 169.649 250.5C172.249 250.5 174.449 250.967 176.249 251.9C178.082 252.833 179.482 254.15 180.449 255.85C181.449 257.517 182.015 259.5 182.149 261.8C182.182 262.4 182.199 263.133 182.199 264C182.199 264.867 182.182 265.6 182.149 266.2C182.015 268.467 181.465 270.45 180.499 272.15C179.565 273.85 178.182 275.167 176.349 276.1C174.549 277.033 172.315 277.5 169.649 277.5ZM169.649 272.55C171.415 272.55 172.782 272 173.749 270.9C174.715 269.767 175.249 268.117 175.349 265.95C175.382 265.45 175.399 264.8 175.399 264C175.399 263.2 175.382 262.55 175.349 262.05C175.249 259.917 174.715 258.283 173.749 257.15C172.782 256.017 171.415 255.45 169.649 255.45C167.882 255.45 166.515 256.017 165.549 257.15C164.582 258.283 164.049 259.917 163.949 262.05C163.915 262.55 163.899 263.2 163.899 264C163.899 264.8 163.915 265.45 163.949 265.95C164.049 268.117 164.582 269.767 165.549 270.9C166.515 272 167.882 272.55 169.649 272.55ZM199.238 277.5C196.572 277.5 194.322 277.033 192.488 276.1C190.688 275.167 189.305 273.85 188.338 272.15C187.405 270.45 186.872 268.467 186.738 266.2C186.705 265.6 186.688 264.867 186.688 264C186.688 263.133 186.705 262.4 186.738 261.8C186.872 259.5 187.422 257.517 188.388 255.85C189.388 254.15 190.788 252.833 192.588 251.9C194.422 250.967 196.638 250.5 199.238 250.5C201.838 250.5 204.038 250.967 205.838 251.9C207.672 252.833 209.072 254.15 210.038 255.85C211.038 257.517 211.605 259.5 211.738 261.8C211.772 262.4 211.788 263.133 211.788 264C211.788 264.867 211.772 265.6 211.738 266.2C211.605 268.467 211.055 270.45 210.088 272.15C209.155 273.85 207.772 275.167 205.938 276.1C204.138 277.033 201.905 277.5 199.238 277.5ZM199.238 272.55C201.005 272.55 202.372 272 203.338 270.9C204.305 269.767 204.838 268.117 204.938 265.95C204.972 265.45 204.988 264.8 204.988 264C204.988 263.2 204.972 262.55 204.938 262.05C204.838 259.917 204.305 258.283 203.338 257.15C202.372 256.017 201.005 255.45 199.238 255.45C197.472 255.45 196.105 256.017 195.138 257.15C194.172 258.283 193.638 259.917 193.538 262.05C193.505 262.55 193.488 263.2 193.488 264C193.488 264.8 193.505 265.45 193.538 265.95C193.638 268.117 194.172 269.767 195.138 270.9C196.105 272 197.472 272.55 199.238 272.55ZM226.978 277.5C225.245 277.5 223.712 277.217 222.378 276.65C221.078 276.05 219.995 275.217 219.128 274.15C218.262 273.083 217.595 271.833 217.128 270.4C216.662 268.933 216.395 267.333 216.328 265.6C216.295 265 216.278 264.467 216.278 264C216.278 263.5 216.295 262.95 216.328 262.35C216.395 260.683 216.645 259.133 217.078 257.7C217.545 256.267 218.212 255.017 219.078 253.95C219.978 252.85 221.078 252 222.378 251.4C223.712 250.8 225.245 250.5 226.978 250.5C228.778 250.5 230.295 250.817 231.528 251.45C232.795 252.05 233.845 252.833 234.678 253.8V242.7C234.678 242.367 234.778 242.083 234.978 241.85C235.212 241.617 235.512 241.5 235.878 241.5H240.128C240.462 241.5 240.745 241.617 240.978 241.85C241.212 242.083 241.328 242.367 241.328 242.7V275.8C241.328 276.133 241.212 276.417 240.978 276.65C240.745 276.883 240.462 277 240.128 277H236.178C235.812 277 235.512 276.883 235.278 276.65C235.078 276.417 234.978 276.133 234.978 275.8V273.95C234.145 274.983 233.078 275.833 231.778 276.5C230.512 277.167 228.912 277.5 226.978 277.5ZM228.828 272.15C230.228 272.15 231.345 271.833 232.178 271.2C233.012 270.567 233.628 269.767 234.028 268.8C234.428 267.8 234.645 266.783 234.678 265.75C234.712 265.15 234.728 264.517 234.728 263.85C234.728 263.15 234.712 262.5 234.678 261.9C234.645 260.9 234.412 259.95 233.978 259.05C233.545 258.117 232.912 257.35 232.078 256.75C231.245 256.15 230.162 255.85 228.828 255.85C227.428 255.85 226.312 256.167 225.478 256.8C224.678 257.4 224.095 258.2 223.728 259.2C223.362 260.2 223.145 261.3 223.078 262.5C223.045 263.5 223.045 264.5 223.078 265.5C223.145 266.7 223.362 267.8 223.728 268.8C224.095 269.8 224.678 270.617 225.478 271.25C226.312 271.85 227.428 272.15 228.828 272.15Z" fill="white"/>
<rect x="975" y="200" width="375" height="120" rx="20" fill="#4CC3C7"/>
<path d="M1111.38 277.5C1108.28 277.5 1105.68 277.05 1103.58 276.15C1101.51 275.217 1099.93 274.017 1098.83 272.55C1097.76 271.05 1097.19 269.483 1097.13 267.85C1097.13 267.55 1097.23 267.3 1097.43 267.1C1097.63 266.9 1097.88 266.8 1098.18 266.8H1102.63C1103.06 266.8 1103.38 266.9 1103.58 267.1C1103.81 267.267 1104.01 267.483 1104.18 267.75C1104.38 268.383 1104.76 269.017 1105.33 269.65C1105.89 270.25 1106.66 270.75 1107.63 271.15C1108.63 271.55 1109.88 271.75 1111.38 271.75C1113.78 271.75 1115.56 271.35 1116.73 270.55C1117.93 269.75 1118.53 268.667 1118.53 267.3C1118.53 266.333 1118.21 265.567 1117.58 265C1116.94 264.4 1115.96 263.867 1114.63 263.4C1113.33 262.9 1111.59 262.383 1109.43 261.85C1106.93 261.25 1104.83 260.533 1103.13 259.7C1101.46 258.833 1100.19 257.75 1099.33 256.45C1098.49 255.15 1098.08 253.5 1098.08 251.5C1098.08 249.567 1098.59 247.85 1099.63 246.35C1100.69 244.85 1102.19 243.667 1104.13 242.8C1106.09 241.933 1108.43 241.5 1111.13 241.5C1113.29 241.5 1115.21 241.8 1116.88 242.4C1118.54 242.967 1119.93 243.733 1121.03 244.7C1122.13 245.633 1122.96 246.65 1123.53 247.75C1124.13 248.817 1124.44 249.867 1124.48 250.9C1124.48 251.167 1124.38 251.417 1124.18 251.65C1124.01 251.85 1123.76 251.95 1123.43 251.95H1118.78C1118.51 251.95 1118.24 251.883 1117.98 251.75C1117.71 251.617 1117.49 251.367 1117.33 251C1117.13 249.967 1116.48 249.083 1115.38 248.35C1114.28 247.617 1112.86 247.25 1111.13 247.25C1109.33 247.25 1107.88 247.583 1106.78 248.25C1105.68 248.917 1105.13 249.95 1105.13 251.35C1105.13 252.283 1105.39 253.067 1105.93 253.7C1106.49 254.3 1107.38 254.833 1108.58 255.3C1109.81 255.767 1111.43 256.267 1113.43 256.8C1116.26 257.433 1118.58 258.167 1120.38 259C1122.18 259.833 1123.49 260.9 1124.33 262.2C1125.16 263.467 1125.58 265.083 1125.58 267.05C1125.58 269.25 1124.98 271.133 1123.78 272.7C1122.61 274.233 1120.96 275.417 1118.83 276.25C1116.69 277.083 1114.21 277.5 1111.38 277.5ZM1138.26 277.5C1136.52 277.5 1134.96 277.167 1133.56 276.5C1132.16 275.8 1131.04 274.883 1130.21 273.75C1129.41 272.583 1129.01 271.283 1129.01 269.85C1129.01 267.517 1129.94 265.667 1131.81 264.3C1133.71 262.9 1136.21 261.967 1139.31 261.5L1146.16 260.5V259.45C1146.16 258.05 1145.81 256.967 1145.11 256.2C1144.41 255.433 1143.21 255.05 1141.51 255.05C1140.31 255.05 1139.32 255.3 1138.56 255.8C1137.82 256.267 1137.27 256.9 1136.91 257.7C1136.64 258.133 1136.26 258.35 1135.76 258.35H1131.81C1131.44 258.35 1131.16 258.25 1130.96 258.05C1130.79 257.85 1130.71 257.583 1130.71 257.25C1130.74 256.717 1130.96 256.067 1131.36 255.3C1131.76 254.533 1132.39 253.8 1133.26 253.1C1134.12 252.367 1135.24 251.75 1136.61 251.25C1137.97 250.75 1139.62 250.5 1141.56 250.5C1143.66 250.5 1145.42 250.767 1146.86 251.3C1148.32 251.8 1149.49 252.483 1150.36 253.35C1151.22 254.217 1151.86 255.233 1152.26 256.4C1152.66 257.567 1152.86 258.8 1152.86 260.1V275.8C1152.86 276.133 1152.74 276.417 1152.51 276.65C1152.27 276.883 1151.99 277 1151.66 277H1147.61C1147.24 277 1146.94 276.883 1146.71 276.65C1146.51 276.417 1146.41 276.133 1146.41 275.8V273.85C1145.97 274.483 1145.39 275.083 1144.66 275.65C1143.92 276.183 1143.02 276.633 1141.96 277C1140.92 277.333 1139.69 277.5 1138.26 277.5ZM1139.96 272.75C1141.12 272.75 1142.17 272.5 1143.11 272C1144.07 271.5 1144.82 270.733 1145.36 269.7C1145.92 268.633 1146.21 267.3 1146.21 265.7V264.65L1141.21 265.45C1139.24 265.75 1137.77 266.233 1136.81 266.9C1135.84 267.567 1135.36 268.383 1135.36 269.35C1135.36 270.083 1135.57 270.717 1136.01 271.25C1136.47 271.75 1137.06 272.133 1137.76 272.4C1138.46 272.633 1139.19 272.75 1139.96 272.75ZM1160.52 277C1160.19 277 1159.91 276.883 1159.67 276.65C1159.44 276.417 1159.32 276.133 1159.32 275.8V242.7C1159.32 242.367 1159.44 242.083 1159.67 241.85C1159.91 241.617 1160.19 241.5 1160.52 241.5H1164.67C1165.01 241.5 1165.29 241.617 1165.52 241.85C1165.76 242.083 1165.87 242.367 1165.87 242.7V275.8C1165.87 276.133 1165.76 276.417 1165.52 276.65C1165.29 276.883 1165.01 277 1164.67 277H1160.52ZM1183.7 277.5C1180 277.5 1177.07 276.433 1174.9 274.3C1172.74 272.167 1171.57 269.133 1171.4 265.2C1171.37 264.867 1171.35 264.45 1171.35 263.95C1171.35 263.417 1171.37 263 1171.4 262.7C1171.54 260.2 1172.1 258.033 1173.1 256.2C1174.14 254.367 1175.55 252.967 1177.35 252C1179.15 251 1181.27 250.5 1183.7 250.5C1186.4 250.5 1188.67 251.067 1190.5 252.2C1192.34 253.3 1193.72 254.85 1194.65 256.85C1195.59 258.817 1196.05 261.1 1196.05 263.7V264.75C1196.05 265.083 1195.94 265.367 1195.7 265.6C1195.47 265.833 1195.17 265.95 1194.8 265.95H1178.2C1178.2 265.95 1178.2 266 1178.2 266.1C1178.2 266.2 1178.2 266.283 1178.2 266.35C1178.24 267.517 1178.45 268.6 1178.85 269.6C1179.29 270.567 1179.9 271.35 1180.7 271.95C1181.54 272.55 1182.52 272.85 1183.65 272.85C1184.59 272.85 1185.37 272.717 1186 272.45C1186.64 272.15 1187.15 271.817 1187.55 271.45C1187.95 271.083 1188.24 270.783 1188.4 270.55C1188.7 270.15 1188.94 269.917 1189.1 269.85C1189.3 269.75 1189.59 269.7 1189.95 269.7H1194.25C1194.59 269.7 1194.85 269.8 1195.05 270C1195.29 270.2 1195.39 270.45 1195.35 270.75C1195.32 271.283 1195.04 271.933 1194.5 272.7C1194 273.467 1193.27 274.217 1192.3 274.95C1191.34 275.683 1190.12 276.3 1188.65 276.8C1187.22 277.267 1185.57 277.5 1183.7 277.5ZM1178.2 261.75H1189.25V261.6C1189.25 260.3 1189.04 259.167 1188.6 258.2C1188.17 257.233 1187.54 256.467 1186.7 255.9C1185.87 255.333 1184.87 255.05 1183.7 255.05C1182.54 255.05 1181.54 255.333 1180.7 255.9C1179.87 256.467 1179.24 257.233 1178.8 258.2C1178.4 259.167 1178.2 260.3 1178.2 261.6V261.75ZM1211.21 277.5C1209.21 277.5 1207.49 277.267 1206.06 276.8C1204.66 276.333 1203.51 275.75 1202.61 275.05C1201.71 274.35 1201.04 273.65 1200.61 272.95C1200.18 272.25 1199.94 271.667 1199.91 271.2C1199.88 270.833 1199.98 270.55 1200.21 270.35C1200.48 270.117 1200.76 270 1201.06 270H1205.01C1205.14 270 1205.26 270.017 1205.36 270.05C1205.46 270.083 1205.59 270.183 1205.76 270.35C1206.19 270.717 1206.64 271.1 1207.11 271.5C1207.61 271.9 1208.19 272.25 1208.86 272.55C1209.53 272.817 1210.36 272.95 1211.36 272.95C1212.66 272.95 1213.74 272.7 1214.61 272.2C1215.51 271.667 1215.96 270.917 1215.96 269.95C1215.96 269.25 1215.76 268.683 1215.36 268.25C1214.99 267.817 1214.29 267.433 1213.26 267.1C1212.23 266.733 1210.76 266.35 1208.86 265.95C1206.99 265.517 1205.44 264.967 1204.21 264.3C1202.98 263.633 1202.06 262.8 1201.46 261.8C1200.86 260.8 1200.56 259.633 1200.56 258.3C1200.56 257 1200.94 255.767 1201.71 254.6C1202.51 253.4 1203.68 252.417 1205.21 251.65C1206.78 250.883 1208.71 250.5 1211.01 250.5C1212.81 250.5 1214.38 250.733 1215.71 251.2C1217.04 251.633 1218.14 252.183 1219.01 252.85C1219.91 253.517 1220.59 254.2 1221.06 254.9C1221.53 255.567 1221.78 256.15 1221.81 256.65C1221.84 257.017 1221.74 257.317 1221.51 257.55C1221.28 257.75 1221.01 257.85 1220.71 257.85H1217.01C1216.84 257.85 1216.69 257.817 1216.56 257.75C1216.43 257.683 1216.29 257.6 1216.16 257.5C1215.79 257.167 1215.39 256.817 1214.96 256.45C1214.53 256.083 1213.99 255.767 1213.36 255.5C1212.76 255.2 1211.96 255.05 1210.96 255.05C1209.69 255.05 1208.73 255.333 1208.06 255.9C1207.39 256.433 1207.06 257.117 1207.06 257.95C1207.06 258.517 1207.21 259.017 1207.51 259.45C1207.84 259.85 1208.49 260.233 1209.46 260.6C1210.43 260.967 1211.89 261.35 1213.86 261.75C1216.09 262.15 1217.86 262.75 1219.16 263.55C1220.49 264.317 1221.43 265.217 1221.96 266.25C1222.53 267.25 1222.81 268.367 1222.81 269.6C1222.81 271.1 1222.36 272.45 1221.46 273.65C1220.59 274.85 1219.29 275.8 1217.56 276.5C1215.86 277.167 1213.74 277.5 1211.21 277.5Z" fill="white"/>
<rect x="975" width="375" height="120" rx="20" fill="#4CC3C7"/>
<path d="M1045.34 77C1044.97 77 1044.67 76.8833 1044.44 76.65C1044.2 76.4167 1044.09 76.1333 1044.09 75.8V43.25C1044.09 42.8833 1044.2 42.5833 1044.44 42.35C1044.67 42.1167 1044.97 42 1045.34 42H1049.29C1049.75 42 1050.1 42.1333 1050.34 42.4C1050.57 42.6333 1050.72 42.8167 1050.79 42.95L1060.44 60.95L1070.19 42.95C1070.25 42.8167 1070.4 42.6333 1070.64 42.4C1070.87 42.1333 1071.22 42 1071.69 42H1075.59C1075.95 42 1076.25 42.1167 1076.49 42.35C1076.72 42.5833 1076.84 42.8833 1076.84 43.25V75.8C1076.84 76.1333 1076.72 76.4167 1076.49 76.65C1076.25 76.8833 1075.95 77 1075.59 77H1071.39C1071.02 77 1070.72 76.8833 1070.49 76.65C1070.29 76.4167 1070.19 76.1333 1070.19 75.8V54.15L1063.19 67.5C1063.02 67.8 1062.8 68.0667 1062.54 68.3C1062.27 68.5 1061.92 68.6 1061.49 68.6H1059.44C1058.97 68.6 1058.6 68.5 1058.34 68.3C1058.1 68.0667 1057.9 67.8 1057.74 67.5L1050.74 54.15V75.8C1050.74 76.1333 1050.62 76.4167 1050.39 76.65C1050.15 76.8833 1049.87 77 1049.54 77H1045.34ZM1091.56 77.5C1089.83 77.5 1088.26 77.1667 1086.86 76.5C1085.46 75.8 1084.35 74.8833 1083.51 73.75C1082.71 72.5833 1082.31 71.2833 1082.31 69.85C1082.31 67.5167 1083.25 65.6667 1085.11 64.3C1087.01 62.9 1089.51 61.9667 1092.61 61.5L1099.46 60.5V59.45C1099.46 58.05 1099.11 56.9667 1098.41 56.2C1097.71 55.4333 1096.51 55.05 1094.81 55.05C1093.61 55.05 1092.63 55.3 1091.86 55.8C1091.13 56.2667 1090.58 56.9 1090.21 57.7C1089.95 58.1333 1089.56 58.35 1089.06 58.35H1085.11C1084.75 58.35 1084.46 58.25 1084.26 58.05C1084.1 57.85 1084.01 57.5833 1084.01 57.25C1084.05 56.7167 1084.26 56.0667 1084.66 55.3C1085.06 54.5333 1085.7 53.8 1086.56 53.1C1087.43 52.3667 1088.55 51.75 1089.91 51.25C1091.28 50.75 1092.93 50.5 1094.86 50.5C1096.96 50.5 1098.73 50.7667 1100.16 51.3C1101.63 51.8 1102.8 52.4833 1103.66 53.35C1104.53 54.2167 1105.16 55.2333 1105.56 56.4C1105.96 57.5667 1106.16 58.8 1106.16 60.1V75.8C1106.16 76.1333 1106.05 76.4167 1105.81 76.65C1105.58 76.8833 1105.3 77 1104.96 77H1100.91C1100.55 77 1100.25 76.8833 1100.01 76.65C1099.81 76.4167 1099.71 76.1333 1099.71 75.8V73.85C1099.28 74.4833 1098.7 75.0833 1097.96 75.65C1097.23 76.1833 1096.33 76.6333 1095.26 77C1094.23 77.3333 1093 77.5 1091.56 77.5ZM1093.26 72.75C1094.43 72.75 1095.48 72.5 1096.41 72C1097.38 71.5 1098.13 70.7333 1098.66 69.7C1099.23 68.6333 1099.51 67.3 1099.51 65.7V64.65L1094.51 65.45C1092.55 65.75 1091.08 66.2333 1090.11 66.9C1089.15 67.5667 1088.66 68.3833 1088.66 69.35C1088.66 70.0833 1088.88 70.7167 1089.31 71.25C1089.78 71.75 1090.36 72.1333 1091.06 72.4C1091.76 72.6333 1092.5 72.75 1093.26 72.75ZM1113.78 77C1113.44 77 1113.16 76.8833 1112.93 76.65C1112.69 76.4167 1112.58 76.1333 1112.58 75.8V52.25C1112.58 51.8833 1112.69 51.5833 1112.93 51.35C1113.16 51.1167 1113.44 51 1113.78 51H1117.83C1118.16 51 1118.44 51.1167 1118.68 51.35C1118.94 51.5833 1119.08 51.8833 1119.08 52.25V54.3C1119.84 53.2333 1120.83 52.4167 1122.03 51.85C1123.26 51.2833 1124.68 51 1126.28 51H1128.33C1128.69 51 1128.98 51.1167 1129.18 51.35C1129.41 51.5833 1129.53 51.8667 1129.53 52.2V55.8C1129.53 56.1333 1129.41 56.4167 1129.18 56.65C1128.98 56.8833 1128.69 57 1128.33 57H1124.43C1122.83 57 1121.58 57.45 1120.68 58.35C1119.81 59.25 1119.38 60.4833 1119.38 62.05V75.8C1119.38 76.1333 1119.26 76.4167 1119.03 76.65C1118.79 76.8833 1118.49 77 1118.13 77H1113.78ZM1134.68 77C1134.34 77 1134.06 76.8833 1133.83 76.65C1133.59 76.4167 1133.48 76.1333 1133.48 75.8V42.7C1133.48 42.3667 1133.59 42.0833 1133.83 41.85C1134.06 41.6167 1134.34 41.5 1134.68 41.5H1138.73C1139.09 41.5 1139.38 41.6167 1139.58 41.85C1139.81 42.0833 1139.93 42.3667 1139.93 42.7V59.8L1148.33 51.85C1148.63 51.5833 1148.89 51.3833 1149.13 51.25C1149.36 51.0833 1149.71 51 1150.18 51H1154.83C1155.16 51 1155.43 51.1 1155.63 51.3C1155.83 51.5 1155.93 51.7667 1155.93 52.1C1155.93 52.2333 1155.89 52.3833 1155.83 52.55C1155.76 52.7167 1155.63 52.8667 1155.43 53L1145.13 62.65L1156.68 75.05C1157.01 75.3833 1157.18 75.6667 1157.18 75.9C1157.18 76.2333 1157.06 76.5 1156.83 76.7C1156.63 76.9 1156.38 77 1156.08 77H1151.33C1150.83 77 1150.46 76.9333 1150.23 76.8C1150.03 76.6333 1149.78 76.4167 1149.48 76.15L1139.93 66.1V75.8C1139.93 76.1333 1139.81 76.4167 1139.58 76.65C1139.38 76.8833 1139.09 77 1138.73 77H1134.68ZM1170.9 77.5C1167.2 77.5 1164.26 76.4333 1162.1 74.3C1159.93 72.1667 1158.76 69.1333 1158.6 65.2C1158.56 64.8667 1158.55 64.45 1158.55 63.95C1158.55 63.4167 1158.56 63 1158.6 62.7C1158.73 60.2 1159.3 58.0333 1160.3 56.2C1161.33 54.3667 1162.75 52.9667 1164.55 52C1166.35 51 1168.46 50.5 1170.9 50.5C1173.6 50.5 1175.86 51.0667 1177.7 52.2C1179.53 53.3 1180.91 54.85 1181.85 56.85C1182.78 58.8167 1183.25 61.1 1183.25 63.7V64.75C1183.25 65.0833 1183.13 65.3667 1182.9 65.6C1182.66 65.8333 1182.36 65.95 1182 65.95H1165.4C1165.4 65.95 1165.4 66 1165.4 66.1C1165.4 66.2 1165.4 66.2833 1165.4 66.35C1165.43 67.5167 1165.65 68.6 1166.05 69.6C1166.48 70.5667 1167.1 71.35 1167.9 71.95C1168.73 72.55 1169.71 72.85 1170.85 72.85C1171.78 72.85 1172.56 72.7167 1173.2 72.45C1173.83 72.15 1174.35 71.8167 1174.75 71.45C1175.15 71.0833 1175.43 70.7833 1175.6 70.55C1175.9 70.15 1176.13 69.9167 1176.3 69.85C1176.5 69.75 1176.78 69.7 1177.15 69.7H1181.45C1181.78 69.7 1182.05 69.8 1182.25 70C1182.48 70.2 1182.58 70.45 1182.55 70.75C1182.51 71.2833 1182.23 71.9333 1181.7 72.7C1181.2 73.4667 1180.46 74.2167 1179.5 74.95C1178.53 75.6833 1177.31 76.3 1175.85 76.8C1174.41 77.2667 1172.76 77.5 1170.9 77.5ZM1165.4 61.75H1176.45V61.6C1176.45 60.3 1176.23 59.1667 1175.8 58.2C1175.36 57.2333 1174.73 56.4667 1173.9 55.9C1173.06 55.3333 1172.06 55.05 1170.9 55.05C1169.73 55.05 1168.73 55.3333 1167.9 55.9C1167.06 56.4667 1166.43 57.2333 1166 58.2C1165.6 59.1667 1165.4 60.3 1165.4 61.6V61.75ZM1200.21 77C1198.21 77 1196.52 76.65 1195.16 75.95C1193.79 75.25 1192.77 74.2167 1192.11 72.85C1191.44 71.45 1191.11 69.7167 1191.11 67.65V56.3H1187.16C1186.82 56.3 1186.54 56.1833 1186.31 55.95C1186.07 55.7167 1185.96 55.4333 1185.96 55.1V52.2C1185.96 51.8667 1186.07 51.5833 1186.31 51.35C1186.54 51.1167 1186.82 51 1187.16 51H1191.11V42.7C1191.11 42.3667 1191.21 42.0833 1191.41 41.85C1191.64 41.6167 1191.94 41.5 1192.31 41.5H1196.36C1196.69 41.5 1196.97 41.6167 1197.21 41.85C1197.44 42.0833 1197.56 42.3667 1197.56 42.7V51H1203.81C1204.14 51 1204.42 51.1167 1204.66 51.35C1204.89 51.5833 1205.01 51.8667 1205.01 52.2V55.1C1205.01 55.4333 1204.89 55.7167 1204.66 55.95C1204.42 56.1833 1204.14 56.3 1203.81 56.3H1197.56V67.15C1197.56 68.5167 1197.79 69.5833 1198.26 70.35C1198.76 71.1167 1199.61 71.5 1200.81 71.5H1204.26C1204.59 71.5 1204.87 71.6167 1205.11 71.85C1205.34 72.0833 1205.46 72.3667 1205.46 72.7V75.8C1205.46 76.1333 1205.34 76.4167 1205.11 76.65C1204.87 76.8833 1204.59 77 1204.26 77H1200.21ZM1211.09 77C1210.76 77 1210.48 76.8833 1210.24 76.65C1210.01 76.4167 1209.89 76.1333 1209.89 75.8V52.2C1209.89 51.8667 1210.01 51.5833 1210.24 51.35C1210.48 51.1167 1210.76 51 1211.09 51H1215.24C1215.61 51 1215.89 51.1167 1216.09 51.35C1216.33 51.5833 1216.44 51.8667 1216.44 52.2V75.8C1216.44 76.1333 1216.33 76.4167 1216.09 76.65C1215.89 76.8833 1215.61 77 1215.24 77H1211.09ZM1210.89 46.7C1210.53 46.7 1210.23 46.6 1209.99 46.4C1209.79 46.1667 1209.69 45.8667 1209.69 45.5V41.9C1209.69 41.5667 1209.79 41.2833 1209.99 41.05C1210.23 40.8167 1210.53 40.7 1210.89 40.7H1215.44C1215.81 40.7 1216.11 40.8167 1216.34 41.05C1216.58 41.2833 1216.69 41.5667 1216.69 41.9V45.5C1216.69 45.8667 1216.58 46.1667 1216.34 46.4C1216.11 46.6 1215.81 46.7 1215.44 46.7H1210.89ZM1225.3 77C1224.97 77 1224.69 76.8833 1224.45 76.65C1224.22 76.4167 1224.1 76.1333 1224.1 75.8V52.2C1224.1 51.8667 1224.22 51.5833 1224.45 51.35C1224.69 51.1167 1224.97 51 1225.3 51H1229.4C1229.74 51 1230.02 51.1167 1230.25 51.35C1230.49 51.5833 1230.6 51.8667 1230.6 52.2V54.25C1231.47 53.1833 1232.57 52.3 1233.9 51.6C1235.27 50.8667 1236.95 50.5 1238.95 50.5C1240.99 50.5 1242.75 50.9667 1244.25 51.9C1245.75 52.8 1246.9 54.0833 1247.7 55.75C1248.54 57.4167 1248.95 59.4167 1248.95 61.75V75.8C1248.95 76.1333 1248.84 76.4167 1248.6 76.65C1248.37 76.8833 1248.09 77 1247.75 77H1243.35C1243.02 77 1242.74 76.8833 1242.5 76.65C1242.27 76.4167 1242.15 76.1333 1242.15 75.8V62.05C1242.15 60.1167 1241.67 58.6 1240.7 57.5C1239.77 56.4 1238.4 55.85 1236.6 55.85C1234.87 55.85 1233.49 56.4 1232.45 57.5C1231.42 58.6 1230.9 60.1167 1230.9 62.05V75.8C1230.9 76.1333 1230.79 76.4167 1230.55 76.65C1230.32 76.8833 1230.04 77 1229.7 77H1225.3ZM1267.05 88C1264.62 88 1262.62 87.6833 1261.05 87.05C1259.49 86.4167 1258.25 85.65 1257.35 84.75C1256.45 83.85 1255.8 82.95 1255.4 82.05C1255.04 81.1833 1254.84 80.5 1254.8 80C1254.77 79.6667 1254.87 79.3667 1255.1 79.1C1255.37 78.8667 1255.67 78.75 1256 78.75H1260.35C1260.69 78.75 1260.95 78.8167 1261.15 78.95C1261.35 79.1167 1261.52 79.4 1261.65 79.8C1261.85 80.2333 1262.12 80.7 1262.45 81.2C1262.79 81.7 1263.29 82.1167 1263.95 82.45C1264.65 82.8167 1265.6 83 1266.8 83C1268.07 83 1269.14 82.8167 1270 82.45C1270.87 82.0833 1271.52 81.4667 1271.95 80.6C1272.42 79.7333 1272.65 78.5333 1272.65 77V73.6C1271.85 74.5667 1270.82 75.35 1269.55 75.95C1268.32 76.55 1266.79 76.85 1264.95 76.85C1263.15 76.85 1261.6 76.5667 1260.3 76C1259 75.4 1257.92 74.5833 1257.05 73.55C1256.19 72.4833 1255.52 71.2333 1255.05 69.8C1254.62 68.3667 1254.37 66.7833 1254.3 65.05C1254.27 64.15 1254.27 63.25 1254.3 62.35C1254.37 60.6833 1254.62 59.1333 1255.05 57.7C1255.49 56.2667 1256.14 55.0167 1257 53.95C1257.9 52.85 1259 52 1260.3 51.4C1261.6 50.8 1263.15 50.5 1264.95 50.5C1266.85 50.5 1268.45 50.8667 1269.75 51.6C1271.05 52.3 1272.12 53.1833 1272.95 54.25V52.25C1272.95 51.8833 1273.07 51.5833 1273.3 51.35C1273.54 51.1167 1273.82 51 1274.15 51H1278.2C1278.54 51 1278.82 51.1167 1279.05 51.35C1279.29 51.5833 1279.4 51.8833 1279.4 52.25L1279.45 76.35C1279.45 78.75 1279 80.8167 1278.1 82.55C1277.2 84.2833 1275.84 85.6167 1274 86.55C1272.2 87.5167 1269.89 88 1267.05 88ZM1266.8 71.55C1268.17 71.55 1269.27 71.25 1270.1 70.65C1270.94 70.05 1271.55 69.2667 1271.95 68.3C1272.35 67.3333 1272.59 66.35 1272.65 65.35C1272.69 64.9167 1272.7 64.3667 1272.7 63.7C1272.7 63.0333 1272.69 62.5 1272.65 62.1C1272.59 61.0667 1272.35 60.0833 1271.95 59.15C1271.55 58.1833 1270.94 57.4 1270.1 56.8C1269.27 56.1667 1268.17 55.85 1266.8 55.85C1265.44 55.85 1264.34 56.1667 1263.5 56.8C1262.67 57.4 1262.07 58.2 1261.7 59.2C1261.37 60.2 1261.17 61.3 1261.1 62.5C1261.04 63.3 1261.04 64.1167 1261.1 64.95C1261.17 66.1167 1261.37 67.2167 1261.7 68.25C1262.07 69.25 1262.67 70.05 1263.5 70.65C1264.34 71.25 1265.44 71.55 1266.8 71.55Z" fill="white"/>
<rect y="395" width="375" height="120" rx="20" fill="#4CC3C7"/>
<path d="M35.2047 472C34.838 472 34.538 471.883 34.3047 471.65C34.0714 471.417 33.9547 471.133 33.9547 470.8V438.25C33.9547 437.883 34.0714 437.583 34.3047 437.35C34.538 437.117 34.838 437 35.2047 437H39.1547C39.6214 437 39.9714 437.133 40.2047 437.4C40.438 437.633 40.588 437.817 40.6547 437.95L50.3047 455.95L60.0547 437.95C60.1214 437.817 60.2714 437.633 60.5047 437.4C60.738 437.133 61.088 437 61.5547 437H65.4547C65.8214 437 66.1214 437.117 66.3547 437.35C66.588 437.583 66.7047 437.883 66.7047 438.25V470.8C66.7047 471.133 66.588 471.417 66.3547 471.65C66.1214 471.883 65.8214 472 65.4547 472H61.2547C60.888 472 60.588 471.883 60.3547 471.65C60.1547 471.417 60.0547 471.133 60.0547 470.8V449.15L53.0547 462.5C52.888 462.8 52.6714 463.067 52.4047 463.3C52.138 463.5 51.788 463.6 51.3547 463.6H49.3047C48.838 463.6 48.4714 463.5 48.2047 463.3C47.9714 463.067 47.7714 462.8 47.6047 462.5L40.6047 449.15V470.8C40.6047 471.133 40.488 471.417 40.2547 471.65C40.0214 471.883 39.738 472 39.4047 472H35.2047ZM81.432 472.5C79.6987 472.5 78.132 472.167 76.732 471.5C75.332 470.8 74.2154 469.883 73.382 468.75C72.582 467.583 72.182 466.283 72.182 464.85C72.182 462.517 73.1154 460.667 74.982 459.3C76.882 457.9 79.382 456.967 82.482 456.5L89.332 455.5V454.45C89.332 453.05 88.982 451.967 88.282 451.2C87.582 450.433 86.382 450.05 84.682 450.05C83.482 450.05 82.4987 450.3 81.732 450.8C80.9987 451.267 80.4487 451.9 80.082 452.7C79.8154 453.133 79.432 453.35 78.932 453.35H74.982C74.6154 453.35 74.332 453.25 74.132 453.05C73.9654 452.85 73.882 452.583 73.882 452.25C73.9154 451.717 74.132 451.067 74.532 450.3C74.932 449.533 75.5654 448.8 76.432 448.1C77.2987 447.367 78.4154 446.75 79.782 446.25C81.1487 445.75 82.7987 445.5 84.732 445.5C86.832 445.5 88.5987 445.767 90.032 446.3C91.4987 446.8 92.6654 447.483 93.532 448.35C94.3987 449.217 95.032 450.233 95.432 451.4C95.832 452.567 96.032 453.8 96.032 455.1V470.8C96.032 471.133 95.9154 471.417 95.682 471.65C95.4487 471.883 95.1654 472 94.832 472H90.782C90.4154 472 90.1154 471.883 89.882 471.65C89.682 471.417 89.582 471.133 89.582 470.8V468.85C89.1487 469.483 88.5654 470.083 87.832 470.65C87.0987 471.183 86.1987 471.633 85.132 472C84.0987 472.333 82.8654 472.5 81.432 472.5ZM83.132 467.75C84.2987 467.75 85.3487 467.5 86.282 467C87.2487 466.5 87.9987 465.733 88.532 464.7C89.0987 463.633 89.382 462.3 89.382 460.7V459.65L84.382 460.45C82.4154 460.75 80.9487 461.233 79.982 461.9C79.0154 462.567 78.532 463.383 78.532 464.35C78.532 465.083 78.7487 465.717 79.182 466.25C79.6487 466.75 80.232 467.133 80.932 467.4C81.632 467.633 82.3654 467.75 83.132 467.75ZM103.646 472C103.313 472 103.03 471.883 102.796 471.65C102.563 471.417 102.446 471.133 102.446 470.8V447.2C102.446 446.867 102.563 446.583 102.796 446.35C103.03 446.117 103.313 446 103.646 446H107.796C108.163 446 108.446 446.117 108.646 446.35C108.88 446.583 108.996 446.867 108.996 447.2V470.8C108.996 471.133 108.88 471.417 108.646 471.65C108.446 471.883 108.163 472 107.796 472H103.646ZM103.446 441.7C103.08 441.7 102.78 441.6 102.546 441.4C102.346 441.167 102.246 440.867 102.246 440.5V436.9C102.246 436.567 102.346 436.283 102.546 436.05C102.78 435.817 103.08 435.7 103.446 435.7H107.996C108.363 435.7 108.663 435.817 108.896 436.05C109.13 436.283 109.246 436.567 109.246 436.9V440.5C109.246 440.867 109.13 441.167 108.896 441.4C108.663 441.6 108.363 441.7 107.996 441.7H103.446ZM117.855 472C117.522 472 117.239 471.883 117.005 471.65C116.772 471.417 116.655 471.133 116.655 470.8V447.2C116.655 446.867 116.772 446.583 117.005 446.35C117.239 446.117 117.522 446 117.855 446H121.955C122.289 446 122.572 446.117 122.805 446.35C123.039 446.583 123.155 446.867 123.155 447.2V449.25C124.022 448.183 125.122 447.3 126.455 446.6C127.822 445.867 129.505 445.5 131.505 445.5C133.539 445.5 135.305 445.967 136.805 446.9C138.305 447.8 139.455 449.083 140.255 450.75C141.089 452.417 141.505 454.417 141.505 456.75V470.8C141.505 471.133 141.389 471.417 141.155 471.65C140.922 471.883 140.639 472 140.305 472H135.905C135.572 472 135.289 471.883 135.055 471.65C134.822 471.417 134.705 471.133 134.705 470.8V457.05C134.705 455.117 134.222 453.6 133.255 452.5C132.322 451.4 130.955 450.85 129.155 450.85C127.422 450.85 126.039 451.4 125.005 452.5C123.972 453.6 123.455 455.117 123.455 457.05V470.8C123.455 471.133 123.339 471.417 123.105 471.65C122.872 471.883 122.589 472 122.255 472H117.855ZM159.314 472C157.314 472 155.63 471.65 154.264 470.95C152.897 470.25 151.88 469.217 151.214 467.85C150.547 466.45 150.214 464.717 150.214 462.65V451.3H146.264C145.93 451.3 145.647 451.183 145.414 450.95C145.18 450.717 145.064 450.433 145.064 450.1V447.2C145.064 446.867 145.18 446.583 145.414 446.35C145.647 446.117 145.93 446 146.264 446H150.214V437.7C150.214 437.367 150.314 437.083 150.514 436.85C150.747 436.617 151.047 436.5 151.414 436.5H155.464C155.797 436.5 156.08 436.617 156.314 436.85C156.547 437.083 156.664 437.367 156.664 437.7V446H162.914C163.247 446 163.53 446.117 163.764 446.35C163.997 446.583 164.114 446.867 164.114 447.2V450.1C164.114 450.433 163.997 450.717 163.764 450.95C163.53 451.183 163.247 451.3 162.914 451.3H156.664V462.15C156.664 463.517 156.897 464.583 157.364 465.35C157.864 466.117 158.714 466.5 159.914 466.5H163.364C163.697 466.5 163.98 466.617 164.214 466.85C164.447 467.083 164.564 467.367 164.564 467.7V470.8C164.564 471.133 164.447 471.417 164.214 471.65C163.98 471.883 163.697 472 163.364 472H159.314ZM180.199 472.5C176.499 472.5 173.566 471.433 171.399 469.3C169.233 467.167 168.066 464.133 167.899 460.2C167.866 459.867 167.849 459.45 167.849 458.95C167.849 458.417 167.866 458 167.899 457.7C168.033 455.2 168.599 453.033 169.599 451.2C170.633 449.367 172.049 447.967 173.849 447C175.649 446 177.766 445.5 180.199 445.5C182.899 445.5 185.166 446.067 186.999 447.2C188.833 448.3 190.216 449.85 191.149 451.85C192.083 453.817 192.549 456.1 192.549 458.7V459.75C192.549 460.083 192.433 460.367 192.199 460.6C191.966 460.833 191.666 460.95 191.299 460.95H174.699C174.699 460.95 174.699 461 174.699 461.1C174.699 461.2 174.699 461.283 174.699 461.35C174.733 462.517 174.949 463.6 175.349 464.6C175.783 465.567 176.399 466.35 177.199 466.95C178.033 467.55 179.016 467.85 180.149 467.85C181.083 467.85 181.866 467.717 182.499 467.45C183.133 467.15 183.649 466.817 184.049 466.45C184.449 466.083 184.733 465.783 184.899 465.55C185.199 465.15 185.433 464.917 185.599 464.85C185.799 464.75 186.083 464.7 186.449 464.7H190.749C191.083 464.7 191.349 464.8 191.549 465C191.783 465.2 191.883 465.45 191.849 465.75C191.816 466.283 191.533 466.933 190.999 467.7C190.499 468.467 189.766 469.217 188.799 469.95C187.833 470.683 186.616 471.3 185.149 471.8C183.716 472.267 182.066 472.5 180.199 472.5ZM174.699 456.75H185.749V456.6C185.749 455.3 185.533 454.167 185.099 453.2C184.666 452.233 184.033 451.467 183.199 450.9C182.366 450.333 181.366 450.05 180.199 450.05C179.033 450.05 178.033 450.333 177.199 450.9C176.366 451.467 175.733 452.233 175.299 453.2C174.899 454.167 174.699 455.3 174.699 456.6V456.75ZM199.057 472C198.723 472 198.44 471.883 198.207 471.65C197.973 471.417 197.857 471.133 197.857 470.8V447.2C197.857 446.867 197.973 446.583 198.207 446.35C198.44 446.117 198.723 446 199.057 446H203.157C203.49 446 203.773 446.117 204.007 446.35C204.24 446.583 204.357 446.867 204.357 447.2V449.25C205.223 448.183 206.323 447.3 207.657 446.6C209.023 445.867 210.707 445.5 212.707 445.5C214.74 445.5 216.507 445.967 218.007 446.9C219.507 447.8 220.657 449.083 221.457 450.75C222.29 452.417 222.707 454.417 222.707 456.75V470.8C222.707 471.133 222.59 471.417 222.357 471.65C222.123 471.883 221.84 472 221.507 472H217.107C216.773 472 216.49 471.883 216.257 471.65C216.023 471.417 215.907 471.133 215.907 470.8V457.05C215.907 455.117 215.423 453.6 214.457 452.5C213.523 451.4 212.157 450.85 210.357 450.85C208.623 450.85 207.24 451.4 206.207 452.5C205.173 453.6 204.657 455.117 204.657 457.05V470.8C204.657 471.133 204.54 471.417 204.307 471.65C204.073 471.883 203.79 472 203.457 472H199.057ZM236.608 472.5C234.874 472.5 233.308 472.167 231.908 471.5C230.508 470.8 229.391 469.883 228.558 468.75C227.758 467.583 227.358 466.283 227.358 464.85C227.358 462.517 228.291 460.667 230.158 459.3C232.058 457.9 234.558 456.967 237.658 456.5L244.508 455.5V454.45C244.508 453.05 244.158 451.967 243.458 451.2C242.758 450.433 241.558 450.05 239.858 450.05C238.658 450.05 237.674 450.3 236.908 450.8C236.174 451.267 235.624 451.9 235.258 452.7C234.991 453.133 234.608 453.35 234.108 453.35H230.158C229.791 453.35 229.508 453.25 229.308 453.05C229.141 452.85 229.058 452.583 229.058 452.25C229.091 451.717 229.308 451.067 229.708 450.3C230.108 449.533 230.741 448.8 231.608 448.1C232.474 447.367 233.591 446.75 234.958 446.25C236.324 445.75 237.974 445.5 239.908 445.5C242.008 445.5 243.774 445.767 245.208 446.3C246.674 446.8 247.841 447.483 248.708 448.35C249.574 449.217 250.208 450.233 250.608 451.4C251.008 452.567 251.208 453.8 251.208 455.1V470.8C251.208 471.133 251.091 471.417 250.858 471.65C250.624 471.883 250.341 472 250.008 472H245.958C245.591 472 245.291 471.883 245.058 471.65C244.858 471.417 244.758 471.133 244.758 470.8V468.85C244.324 469.483 243.741 470.083 243.008 470.65C242.274 471.183 241.374 471.633 240.308 472C239.274 472.333 238.041 472.5 236.608 472.5ZM238.308 467.75C239.474 467.75 240.524 467.5 241.458 467C242.424 466.5 243.174 465.733 243.708 464.7C244.274 463.633 244.558 462.3 244.558 460.7V459.65L239.558 460.45C237.591 460.75 236.124 461.233 235.158 461.9C234.191 462.567 233.708 463.383 233.708 464.35C233.708 465.083 233.924 465.717 234.358 466.25C234.824 466.75 235.408 467.133 236.108 467.4C236.808 467.633 237.541 467.75 238.308 467.75ZM258.822 472C258.489 472 258.206 471.883 257.972 471.65C257.739 471.417 257.622 471.133 257.622 470.8V447.2C257.622 446.867 257.739 446.583 257.972 446.35C258.206 446.117 258.489 446 258.822 446H262.922C263.256 446 263.539 446.117 263.772 446.35C264.006 446.583 264.122 446.867 264.122 447.2V449.25C264.989 448.183 266.089 447.3 267.422 446.6C268.789 445.867 270.472 445.5 272.472 445.5C274.506 445.5 276.272 445.967 277.772 446.9C279.272 447.8 280.422 449.083 281.222 450.75C282.056 452.417 282.472 454.417 282.472 456.75V470.8C282.472 471.133 282.356 471.417 282.122 471.65C281.889 471.883 281.606 472 281.272 472H276.872C276.539 472 276.256 471.883 276.022 471.65C275.789 471.417 275.672 471.133 275.672 470.8V457.05C275.672 455.117 275.189 453.6 274.222 452.5C273.289 451.4 271.922 450.85 270.122 450.85C268.389 450.85 267.006 451.4 265.972 452.5C264.939 453.6 264.422 455.117 264.422 457.05V470.8C264.422 471.133 264.306 471.417 264.072 471.65C263.839 471.883 263.556 472 263.222 472H258.822ZM300.073 472.5C297.673 472.5 295.557 472.05 293.723 471.15C291.923 470.25 290.507 468.95 289.473 467.25C288.473 465.517 287.923 463.433 287.823 461C287.79 460.5 287.773 459.85 287.773 459.05C287.773 458.217 287.79 457.533 287.823 457C287.923 454.567 288.473 452.5 289.473 450.8C290.507 449.067 291.923 447.75 293.723 446.85C295.557 445.95 297.673 445.5 300.073 445.5C302.207 445.5 304.023 445.8 305.523 446.4C307.023 447 308.257 447.75 309.223 448.65C310.19 449.55 310.907 450.5 311.373 451.5C311.873 452.467 312.14 453.35 312.173 454.15C312.207 454.517 312.09 454.817 311.823 455.05C311.59 455.25 311.307 455.35 310.973 455.35H306.573C306.24 455.35 305.973 455.267 305.773 455.1C305.607 454.933 305.44 454.683 305.273 454.35C304.773 453.017 304.107 452.083 303.273 451.55C302.473 450.983 301.44 450.7 300.173 450.7C298.507 450.7 297.173 451.233 296.173 452.3C295.207 453.333 294.69 454.983 294.623 457.25C294.557 458.517 294.557 459.683 294.623 460.75C294.69 463.05 295.207 464.717 296.173 465.75C297.173 466.783 298.507 467.3 300.173 467.3C301.473 467.3 302.523 467.033 303.323 466.5C304.123 465.933 304.773 464.983 305.273 463.65C305.44 463.317 305.607 463.067 305.773 462.9C305.973 462.733 306.24 462.65 306.573 462.65H310.973C311.307 462.65 311.59 462.767 311.823 463C312.09 463.2 312.207 463.483 312.173 463.85C312.14 464.45 311.973 465.133 311.673 465.9C311.407 466.633 310.957 467.4 310.323 468.2C309.723 468.967 308.957 469.683 308.023 470.35C307.09 470.983 305.957 471.5 304.623 471.9C303.323 472.3 301.807 472.5 300.073 472.5ZM328.588 472.5C324.888 472.5 321.955 471.433 319.788 469.3C317.621 467.167 316.455 464.133 316.288 460.2C316.255 459.867 316.238 459.45 316.238 458.95C316.238 458.417 316.255 458 316.288 457.7C316.421 455.2 316.988 453.033 317.988 451.2C319.021 449.367 320.438 447.967 322.238 447C324.038 446 326.155 445.5 328.588 445.5C331.288 445.5 333.555 446.067 335.388 447.2C337.221 448.3 338.605 449.85 339.538 451.85C340.471 453.817 340.938 456.1 340.938 458.7V459.75C340.938 460.083 340.821 460.367 340.588 460.6C340.355 460.833 340.055 460.95 339.688 460.95H323.088C323.088 460.95 323.088 461 323.088 461.1C323.088 461.2 323.088 461.283 323.088 461.35C323.121 462.517 323.338 463.6 323.738 464.6C324.171 465.567 324.788 466.35 325.588 466.95C326.421 467.55 327.405 467.85 328.538 467.85C329.471 467.85 330.255 467.717 330.888 467.45C331.521 467.15 332.038 466.817 332.438 466.45C332.838 466.083 333.121 465.783 333.288 465.55C333.588 465.15 333.821 464.917 333.988 464.85C334.188 464.75 334.471 464.7 334.838 464.7H339.138C339.471 464.7 339.738 464.8 339.938 465C340.171 465.2 340.271 465.45 340.238 465.75C340.205 466.283 339.921 466.933 339.388 467.7C338.888 468.467 338.155 469.217 337.188 469.95C336.221 470.683 335.005 471.3 333.538 471.8C332.105 472.267 330.455 472.5 328.588 472.5ZM323.088 456.75H334.138V456.6C334.138 455.3 333.921 454.167 333.488 453.2C333.055 452.233 332.421 451.467 331.588 450.9C330.755 450.333 329.755 450.05 328.588 450.05C327.421 450.05 326.421 450.333 325.588 450.9C324.755 451.467 324.121 452.233 323.688 453.2C323.288 454.167 323.088 455.3 323.088 456.6V456.75Z" fill="white"/>
<rect x="977.5" y="397.5" width="370" height="115" rx="17.5" stroke="#4CC3C7" stroke-width="5" stroke-dasharray="10 10"/>
<path d="M1049.18 470.35C1048.85 470.35 1048.56 470.233 1048.33 470C1048.1 469.767 1047.98 469.483 1047.98 469.15V459.4H1038.38C1038.05 459.4 1037.76 459.283 1037.53 459.05C1037.3 458.817 1037.18 458.533 1037.18 458.2V455.55C1037.18 455.183 1037.3 454.9 1037.53 454.7C1037.76 454.467 1038.05 454.35 1038.38 454.35H1047.98V444.85C1047.98 444.517 1048.1 444.233 1048.33 444C1048.56 443.767 1048.85 443.65 1049.18 443.65H1052.08C1052.45 443.65 1052.73 443.767 1052.93 444C1053.16 444.233 1053.28 444.517 1053.28 444.85V454.35H1062.88C1063.21 454.35 1063.5 454.467 1063.73 454.7C1063.96 454.9 1064.08 455.183 1064.08 455.55V458.2C1064.08 458.533 1063.96 458.817 1063.73 459.05C1063.5 459.283 1063.21 459.4 1062.88 459.4H1053.28V469.15C1053.28 469.483 1053.16 469.767 1052.93 470C1052.73 470.233 1052.45 470.35 1052.08 470.35H1049.18ZM1077.85 472C1077.58 472 1077.33 471.9 1077.1 471.7C1076.9 471.5 1076.8 471.25 1076.8 470.95C1076.8 470.817 1076.83 470.667 1076.9 470.5L1088.95 438.25C1089.05 437.917 1089.23 437.633 1089.5 437.4C1089.8 437.133 1090.2 437 1090.7 437H1096.15C1096.65 437 1097.03 437.133 1097.3 437.4C1097.57 437.633 1097.77 437.917 1097.9 438.25L1109.95 470.5C1109.98 470.667 1110 470.817 1110 470.95C1110 471.25 1109.9 471.5 1109.7 471.7C1109.5 471.9 1109.27 472 1109 472H1104.65C1104.18 472 1103.83 471.9 1103.6 471.7C1103.4 471.467 1103.27 471.25 1103.2 471.05L1100.85 464.95H1086L1083.65 471.05C1083.58 471.25 1083.43 471.467 1083.2 471.7C1083 471.9 1082.67 472 1082.2 472H1077.85ZM1087.75 459.2H1099.1L1093.4 443.75L1087.75 459.2ZM1123.42 472.5C1121.69 472.5 1120.16 472.217 1118.82 471.65C1117.52 471.05 1116.44 470.217 1115.57 469.15C1114.71 468.083 1114.04 466.833 1113.57 465.4C1113.11 463.933 1112.84 462.333 1112.77 460.6C1112.74 460 1112.72 459.467 1112.72 459C1112.72 458.5 1112.74 457.95 1112.77 457.35C1112.84 455.683 1113.09 454.133 1113.52 452.7C1113.99 451.267 1114.66 450.017 1115.52 448.95C1116.42 447.85 1117.52 447 1118.82 446.4C1120.16 445.8 1121.69 445.5 1123.42 445.5C1125.22 445.5 1126.74 445.817 1127.97 446.45C1129.24 447.05 1130.29 447.833 1131.12 448.8V437.7C1131.12 437.367 1131.22 437.083 1131.42 436.85C1131.66 436.617 1131.96 436.5 1132.32 436.5H1136.57C1136.91 436.5 1137.19 436.617 1137.42 436.85C1137.66 437.083 1137.77 437.367 1137.77 437.7V470.8C1137.77 471.133 1137.66 471.417 1137.42 471.65C1137.19 471.883 1136.91 472 1136.57 472H1132.62C1132.26 472 1131.96 471.883 1131.72 471.65C1131.52 471.417 1131.42 471.133 1131.42 470.8V468.95C1130.59 469.983 1129.52 470.833 1128.22 471.5C1126.96 472.167 1125.36 472.5 1123.42 472.5ZM1125.27 467.15C1126.67 467.15 1127.79 466.833 1128.62 466.2C1129.46 465.567 1130.07 464.767 1130.47 463.8C1130.87 462.8 1131.09 461.783 1131.12 460.75C1131.16 460.15 1131.17 459.517 1131.17 458.85C1131.17 458.15 1131.16 457.5 1131.12 456.9C1131.09 455.9 1130.86 454.95 1130.42 454.05C1129.99 453.117 1129.36 452.35 1128.52 451.75C1127.69 451.15 1126.61 450.85 1125.27 450.85C1123.87 450.85 1122.76 451.167 1121.92 451.8C1121.12 452.4 1120.54 453.2 1120.17 454.2C1119.81 455.2 1119.59 456.3 1119.52 457.5C1119.49 458.5 1119.49 459.5 1119.52 460.5C1119.59 461.7 1119.81 462.8 1120.17 463.8C1120.54 464.8 1121.12 465.617 1121.92 466.25C1122.76 466.85 1123.87 467.15 1125.27 467.15ZM1154.09 472.5C1152.36 472.5 1150.82 472.217 1149.49 471.65C1148.19 471.05 1147.11 470.217 1146.24 469.15C1145.37 468.083 1144.71 466.833 1144.24 465.4C1143.77 463.933 1143.51 462.333 1143.44 460.6C1143.41 460 1143.39 459.467 1143.39 459C1143.39 458.5 1143.41 457.95 1143.44 457.35C1143.51 455.683 1143.76 454.133 1144.19 452.7C1144.66 451.267 1145.32 450.017 1146.19 448.95C1147.09 447.85 1148.19 447 1149.49 446.4C1150.82 445.8 1152.36 445.5 1154.09 445.5C1155.89 445.5 1157.41 445.817 1158.64 446.45C1159.91 447.05 1160.96 447.833 1161.79 448.8V437.7C1161.79 437.367 1161.89 437.083 1162.09 436.85C1162.32 436.617 1162.62 436.5 1162.99 436.5H1167.24C1167.57 436.5 1167.86 436.617 1168.09 436.85C1168.32 437.083 1168.44 437.367 1168.44 437.7V470.8C1168.44 471.133 1168.32 471.417 1168.09 471.65C1167.86 471.883 1167.57 472 1167.24 472H1163.29C1162.92 472 1162.62 471.883 1162.39 471.65C1162.19 471.417 1162.09 471.133 1162.09 470.8V468.95C1161.26 469.983 1160.19 470.833 1158.89 471.5C1157.62 472.167 1156.02 472.5 1154.09 472.5ZM1155.94 467.15C1157.34 467.15 1158.46 466.833 1159.29 466.2C1160.12 465.567 1160.74 464.767 1161.14 463.8C1161.54 462.8 1161.76 461.783 1161.79 460.75C1161.82 460.15 1161.84 459.517 1161.84 458.85C1161.84 458.15 1161.82 457.5 1161.79 456.9C1161.76 455.9 1161.52 454.95 1161.09 454.05C1160.66 453.117 1160.02 452.35 1159.19 451.75C1158.36 451.15 1157.27 450.85 1155.94 450.85C1154.54 450.85 1153.42 451.167 1152.59 451.8C1151.79 452.4 1151.21 453.2 1150.84 454.2C1150.47 455.2 1150.26 456.3 1150.19 457.5C1150.16 458.5 1150.16 459.5 1150.19 460.5C1150.26 461.7 1150.47 462.8 1150.84 463.8C1151.21 464.8 1151.79 465.617 1152.59 466.25C1153.42 466.85 1154.54 467.15 1155.94 467.15ZM1188.33 472C1188 472 1187.71 471.883 1187.48 471.65C1187.25 471.417 1187.13 471.133 1187.13 470.8V438.25C1187.13 437.883 1187.25 437.583 1187.48 437.35C1187.71 437.117 1188 437 1188.33 437H1192.18C1192.65 437 1192.98 437.117 1193.18 437.35C1193.41 437.55 1193.56 437.7 1193.63 437.8L1208.03 460.2V438.25C1208.03 437.883 1208.13 437.583 1208.33 437.35C1208.56 437.117 1208.86 437 1209.23 437H1213.43C1213.8 437 1214.1 437.117 1214.33 437.35C1214.56 437.583 1214.68 437.883 1214.68 438.25V470.75C1214.68 471.117 1214.56 471.417 1214.33 471.65C1214.1 471.883 1213.81 472 1213.48 472H1209.58C1209.11 472 1208.78 471.883 1208.58 471.65C1208.38 471.417 1208.23 471.267 1208.13 471.2L1193.78 449.3V470.8C1193.78 471.133 1193.66 471.417 1193.43 471.65C1193.2 471.883 1192.9 472 1192.53 472H1188.33ZM1233.08 472.5C1229.38 472.5 1226.45 471.433 1224.28 469.3C1222.11 467.167 1220.95 464.133 1220.78 460.2C1220.75 459.867 1220.73 459.45 1220.73 458.95C1220.73 458.417 1220.75 458 1220.78 457.7C1220.91 455.2 1221.48 453.033 1222.48 451.2C1223.51 449.367 1224.93 447.967 1226.73 447C1228.53 446 1230.65 445.5 1233.08 445.5C1235.78 445.5 1238.05 446.067 1239.88 447.2C1241.71 448.3 1243.1 449.85 1244.03 451.85C1244.96 453.817 1245.43 456.1 1245.43 458.7V459.75C1245.43 460.083 1245.31 460.367 1245.08 460.6C1244.85 460.833 1244.55 460.95 1244.18 460.95H1227.58C1227.58 460.95 1227.58 461 1227.58 461.1C1227.58 461.2 1227.58 461.283 1227.58 461.35C1227.61 462.517 1227.83 463.6 1228.23 464.6C1228.66 465.567 1229.28 466.35 1230.08 466.95C1230.91 467.55 1231.9 467.85 1233.03 467.85C1233.96 467.85 1234.75 467.717 1235.38 467.45C1236.01 467.15 1236.53 466.817 1236.93 466.45C1237.33 466.083 1237.61 465.783 1237.78 465.55C1238.08 465.15 1238.31 464.917 1238.48 464.85C1238.68 464.75 1238.96 464.7 1239.33 464.7H1243.63C1243.96 464.7 1244.23 464.8 1244.43 465C1244.66 465.2 1244.76 465.45 1244.73 465.75C1244.7 466.283 1244.41 466.933 1243.88 467.7C1243.38 468.467 1242.65 469.217 1241.68 469.95C1240.71 470.683 1239.5 471.3 1238.03 471.8C1236.6 472.267 1234.95 472.5 1233.08 472.5ZM1227.58 456.75H1238.63V456.6C1238.63 455.3 1238.41 454.167 1237.98 453.2C1237.55 452.233 1236.91 451.467 1236.08 450.9C1235.25 450.333 1234.25 450.05 1233.08 450.05C1231.91 450.05 1230.91 450.333 1230.08 450.9C1229.25 451.467 1228.61 452.233 1228.18 453.2C1227.78 454.167 1227.58 455.3 1227.58 456.6V456.75ZM1257.11 472C1256.64 472 1256.29 471.883 1256.06 471.65C1255.82 471.417 1255.62 471.117 1255.46 470.75L1248.31 447.55C1248.27 447.383 1248.26 447.233 1248.26 447.1C1248.26 446.8 1248.36 446.55 1248.56 446.35C1248.79 446.117 1249.04 446 1249.31 446H1253.01C1253.41 446 1253.72 446.117 1253.96 446.35C1254.19 446.55 1254.32 446.75 1254.36 446.95L1259.26 463.5L1264.46 447.1C1264.52 446.867 1264.67 446.633 1264.91 446.4C1265.14 446.133 1265.49 446 1265.96 446H1268.46C1268.92 446 1269.27 446.133 1269.51 446.4C1269.74 446.633 1269.89 446.867 1269.96 447.1L1275.16 463.5L1280.06 446.95C1280.09 446.75 1280.21 446.55 1280.41 446.35C1280.64 446.117 1280.96 446 1281.36 446H1285.06C1285.36 446 1285.61 446.117 1285.81 446.35C1286.04 446.55 1286.16 446.8 1286.16 447.1C1286.16 447.233 1286.12 447.383 1286.06 447.55L1278.91 470.75C1278.81 471.117 1278.62 471.417 1278.36 471.65C1278.12 471.883 1277.77 472 1277.31 472H1274.06C1273.59 472 1273.22 471.883 1272.96 471.65C1272.69 471.417 1272.51 471.117 1272.41 470.75L1267.21 454.95L1262.01 470.75C1261.87 471.117 1261.67 471.417 1261.41 471.65C1261.17 471.883 1260.81 472 1260.31 472H1257.11Z" fill="#4CC3C7"/>
</svg>
