<svg viewBox="0 0 364 364" fill="none" xmlns="http://www.w3.org/2000/svg">
    <path
        d="M63.3609 111.12C80.06 106.1 98.1508 84.2765 105.109 73.9923C115.024 56.2128 83.1911 73.9923 67.5357 82.359C51.8802 90.7258 42.4869 117.395 63.3609 111.12Z"
        fill="#4CC3C7" fill-opacity="0.2" />
    <path
        d="M340.984 263.58C340.984 281.346 331.105 298.557 321.257 310.879C313.24 320.907 300.538 325.286 287.714 325.286H58.4219C45.5536 325.286 36.5669 307.035 34.3467 294.334C30.4067 271.794 9.70467 246.657 13.2628 208.151C18.4812 151.675 53.9671 134.417 91.0183 112.978C128.07 91.5378 104.065 60.1622 167.73 41.3368C231.396 22.5116 298.714 84.7397 296.627 142.785C294.539 200.829 340.984 209.196 340.984 263.58Z"
        fill="#4CC3C7" fill-opacity="0.2" />
    <path
        d="M131.756 252.768C121.143 264.286 159.352 295.959 159.352 325.285H187.214H215.076C212.245 323.508 207.434 317.714 210.83 308.756C215.076 297.558 241.08 293.292 235.773 281.562C230.466 269.831 218.259 281.562 206.585 274.63C194.909 267.698 207.646 261.3 223.036 245.836C238.426 230.374 210.83 231.973 199.156 237.838C187.48 243.703 188.01 233.039 189.603 210.645C191.195 188.249 181.642 170.121 173.682 174.386C165.721 178.652 178.989 227.708 170.498 222.375C162.006 217.043 153.515 197.848 150.861 215.976C148.208 234.106 167.844 262.366 159.352 264.499C150.861 266.632 145.024 238.372 131.756 252.768Z"
        fill="white" />
    <path d="M145.881 325.064L141.282 287.753L43.66 283.664L41.1045 325.064H145.881Z" fill="#0B0924" />
    <path
        d="M78.5074 138.156L76.4629 148.889L78.5074 160.133C83.7888 160.815 94.556 162.178 95.3738 162.178C96.1916 162.178 102.188 157.067 105.085 154.512L102.018 138.156C110.605 135.294 113.433 122.652 113.774 116.69C115.818 92.1564 99.4626 89.0898 96.396 89.0898C93.3293 89.0898 73.9074 89.0898 71.3518 109.534C69.3075 125.889 75.2703 135.43 78.5074 138.156Z"
        fill="white" />
    <path fill-rule="evenodd" clip-rule="evenodd"
        d="M84.1185 92.593C78.8483 95.016 73.6162 99.8405 72.3885 109.662C70.3794 125.734 76.2632 134.899 79.1802 137.355L79.648 137.749L77.5257 148.892L79.3986 159.193C82.0098 159.528 85.6063 159.986 88.7421 160.373C90.4682 160.585 92.0524 160.777 93.2549 160.914C93.8566 160.983 94.3594 161.039 94.7355 161.076C94.9236 161.096 95.0764 161.109 95.1919 161.119C95.2112 161.12 95.2292 161.121 95.2458 161.124C95.2802 161.106 95.3246 161.081 95.3799 161.049C95.5861 160.928 95.8682 160.74 96.2188 160.489C96.9159 159.988 97.8138 159.284 98.7902 158.491C100.548 157.06 102.52 155.369 103.948 154.118L100.823 137.45L101.687 137.163C105.563 135.871 108.251 132.326 110.027 128.173C111.793 124.043 112.565 119.515 112.73 116.628L112.731 116.614L112.732 116.601C113.733 104.591 110.229 98.0343 106.298 94.4611C102.311 90.8362 97.7234 90.1329 96.3958 90.1329C94.8841 90.1329 89.4577 90.1382 84.1185 92.593ZM95.1565 161.164C95.1565 161.164 95.1617 161.161 95.1713 161.159C95.1611 161.163 95.1565 161.164 95.1565 161.164ZM96.3867 88.043H96.3958C98.1346 88.043 103.258 88.8731 107.704 92.9146C112.205 97.0067 115.856 104.246 114.816 116.761C114.638 119.838 113.826 124.605 111.949 128.995C110.195 133.096 107.43 137.052 103.206 138.823L106.221 154.901L105.776 155.292C104.322 156.576 102.087 158.503 100.109 160.112C99.1219 160.915 98.1862 161.649 97.4383 162.187C97.0665 162.454 96.7231 162.685 96.4338 162.854C96.29 162.938 96.1401 163.018 95.9943 163.08C95.8787 163.129 95.6452 163.222 95.3735 163.222C95.0917 163.222 94.1803 163.125 93.0168 162.991C91.8054 162.852 90.2143 162.66 88.4863 162.446C85.0295 162.02 81.0152 161.508 78.3733 161.167L77.6156 161.07L75.3996 148.882L77.3705 138.536C73.7808 135.107 68.3229 125.338 70.3147 109.403C71.6426 98.7798 77.3991 93.382 83.2454 90.694C89.0117 88.043 94.8183 88.043 96.3867 88.043Z"
        fill="#0B0924" />
    <path
        d="M199.922 166.805C197.787 169.951 189.298 178.635 188.325 180.187L192.15 189.108L202.621 191.539C204.977 188.197 211.716 184.723 213.32 179.509C214.601 175.336 209.697 169.67 207.296 168.75L214.627 158.706C215.606 157.365 215.329 155.488 214.007 154.486C212.712 153.507 210.877 153.714 209.836 154.959L199.922 166.805Z"
        fill="white" />
    <path fill-rule="evenodd" clip-rule="evenodd"
        d="M214.637 153.654C212.899 152.337 210.434 152.616 209.036 154.288L199.087 166.175L199.057 166.219C198.043 167.714 195.451 170.604 192.915 173.391C192.602 173.734 192.292 174.075 191.986 174.41C191.067 175.417 190.196 176.373 189.468 177.188C188.529 178.238 187.742 179.151 187.439 179.632L187.149 180.096L191.399 190.006L203.07 192.716L203.475 192.142C203.99 191.411 204.776 190.634 205.755 189.765C206.223 189.349 206.722 188.924 207.242 188.48L207.297 188.435C207.834 187.976 208.392 187.5 208.947 187.007C211.133 185.063 213.424 182.724 214.318 179.816C215.102 177.266 213.974 174.458 212.559 172.331C211.831 171.236 210.979 170.25 210.143 169.468C209.716 169.069 209.273 168.708 208.838 168.409L215.471 159.322C216.785 157.522 216.415 154.999 214.637 153.654ZM210.637 155.63C211.321 154.814 212.526 154.677 213.376 155.32C214.244 155.977 214.425 157.21 213.783 158.09L205.647 169.237L206.922 169.726C207.339 169.886 207.981 170.309 208.718 170.996C209.436 171.667 210.181 172.53 210.819 173.488C212.136 175.467 212.819 177.578 212.32 179.2C211.611 181.507 209.732 183.513 207.558 185.445C207.023 185.921 206.48 186.385 205.942 186.843L205.881 186.895C205.365 187.335 204.852 187.771 204.368 188.201C203.572 188.907 202.814 189.629 202.202 190.369L192.902 188.211L189.521 180.325C189.837 179.931 190.349 179.339 191.027 178.58C191.747 177.774 192.607 176.83 193.523 175.825C193.83 175.489 194.144 175.145 194.46 174.797C196.923 172.092 199.618 169.096 200.756 167.437L210.637 155.63Z"
        fill="#0B0924" />
    <path
        d="M84.1288 127.933C82.0843 139.791 79.1881 141.051 77.9955 140.2C63.6846 131 64.0298 101.606 72.8845 91.6446C81.0621 82.4446 87.1954 86.0225 104.062 81.9336C120.928 77.8448 126.55 85.0001 123.484 94.2001C119.069 107.444 105.084 100.333 101.506 101.867C97.9287 103.4 93.3287 107.489 91.2842 115.667C89.2399 123.844 88.2176 122.31 86.6843 117.711C85.151 113.111 81.0621 106.467 77.9955 114.644C75.5422 121.186 81.0621 126.229 84.1288 127.933Z"
        fill="#0B0924" />
    <path fill-rule="evenodd" clip-rule="evenodd"
        d="M100.392 300.53C82.8445 300.871 46.2153 300.939 40.082 298.485C37.8535 297.595 36.9204 288.885 36.7685 276.69C30.6404 270.486 24.4649 263.584 19.6382 257.086C9.00714 242.775 11.4604 226.249 14.016 219.775C27.3038 181.957 43.9984 161.512 52.3471 155.888C52.3476 155.888 52.3481 155.888 52.3486 155.887C56.9485 152.31 69.2151 147.709 75.8594 146.688C77.2224 150.435 81.4815 157.931 91.7036 157.931C101.926 157.931 103.8 150.435 104.481 146.688C111.807 146.857 131.059 150.878 141.281 165.599C149.09 176.845 152.318 186.754 154.464 193.343C155.829 197.535 156.756 200.382 158.148 201.376C160.021 202.714 167.221 195.642 174.39 188.601C180.909 182.197 187.401 175.821 189.835 175.821C194.947 175.821 206.702 186.042 206.702 192.175C206.702 198.309 178.591 250.442 170.414 256.063C162.236 261.686 153.036 258.62 148.436 252.997C149.458 264.071 150.583 292.25 146.903 295.93C143.223 299.61 114.363 300.53 100.392 300.53Z"
        fill="white" />
    <path fill-rule="evenodd" clip-rule="evenodd"
        d="M76.549 145.525L76.8421 146.332C78.1437 149.91 82.1343 156.888 91.7044 156.888C96.5178 156.888 99.2285 155.143 100.848 153.072C102.513 150.943 103.118 148.349 103.454 146.502L103.614 145.624L104.506 145.644C108.299 145.733 115.069 146.808 122.191 149.721C129.319 152.637 136.879 157.428 142.14 165.004C150.037 176.376 153.303 186.404 155.455 193.012L155.459 193.021C156.145 195.133 156.703 196.843 157.259 198.153C157.811 199.457 158.286 200.168 158.715 200.497C158.743 200.497 158.795 200.494 158.883 200.477C159.122 200.429 159.477 200.292 159.96 200.022C160.919 199.488 162.156 198.564 163.609 197.335C166.502 194.884 170.065 191.387 173.659 187.856L173.676 187.839C176.922 184.651 180.192 181.439 182.958 179.023C184.342 177.815 185.626 176.783 186.736 176.047C187.29 175.679 187.823 175.371 188.319 175.153C188.802 174.939 189.324 174.776 189.836 174.776C191.399 174.776 193.29 175.534 195.152 176.611C197.05 177.71 199.061 179.228 200.898 180.934C202.732 182.638 204.424 184.556 205.663 186.466C206.886 188.349 207.748 190.345 207.748 192.177C207.748 192.716 207.602 193.396 207.389 194.134C207.17 194.895 206.852 195.803 206.454 196.83C205.655 198.887 204.514 201.473 203.127 204.404C200.352 210.266 196.572 217.555 192.539 224.82C188.506 232.085 184.212 239.344 180.408 245.146C178.507 248.046 176.72 250.595 175.144 252.603C173.588 254.583 172.171 256.126 171.006 256.926C163.408 262.15 154.982 260.31 149.717 255.793C150.144 261.513 150.522 269.708 150.479 277.244C150.452 281.704 150.28 285.963 149.877 289.352C149.676 291.044 149.414 292.549 149.074 293.766C148.746 294.939 148.305 296.008 147.642 296.67C146.996 297.318 145.934 297.795 144.742 298.18C143.51 298.579 141.974 298.926 140.229 299.232C136.737 299.844 132.308 300.308 127.583 300.654C118.134 301.345 107.405 301.576 100.403 301.577C91.62 301.747 78.0669 301.849 65.9361 301.601C59.8696 301.478 54.147 301.266 49.55 300.932C47.2522 300.764 45.2233 300.565 43.5673 300.327C41.9356 300.094 40.5857 299.814 39.6946 299.457C39.1561 299.241 38.7515 298.831 38.4459 298.387C38.137 297.938 37.8808 297.386 37.6616 296.771C37.2235 295.541 36.8813 293.906 36.6121 291.972C36.0845 288.183 35.813 283.058 35.7298 277.126C29.6774 270.978 23.5871 264.155 18.7999 257.71C7.8991 243.036 10.397 226.12 13.0372 219.413C19.7048 200.44 27.2336 185.803 34.1591 175.189C41.0556 164.62 47.3942 157.978 51.7344 155.043C54.1669 153.161 58.4892 151.081 62.9619 149.356C67.4689 147.617 72.2749 146.183 75.7012 145.656L76.549 145.525ZM105.336 147.77C104.941 149.646 104.202 152.176 102.494 154.36C100.45 156.974 97.113 158.978 91.7044 158.978C81.5394 158.978 76.92 151.974 75.1972 147.861C72.0378 148.446 67.7866 149.734 63.7141 151.306C59.2591 153.024 55.1637 155.023 52.9911 156.714C52.991 156.714 52.9914 156.714 52.9911 156.714L52.9619 156.737L52.9316 156.757C48.9238 159.457 42.7539 165.841 35.9095 176.331C29.0808 186.797 21.621 201.287 15.0025 220.124L14.996 220.142L14.9886 220.16C12.5204 226.413 10.1266 242.53 20.4776 256.464C25.266 262.911 31.4059 269.774 37.5126 275.958L37.8088 276.257L37.814 276.679C37.8899 282.763 38.1606 287.937 38.6822 291.685C38.9438 293.563 39.2621 295.036 39.6305 296.07C39.8147 296.587 39.998 296.957 40.1674 297.202C40.3401 297.453 40.4521 297.509 40.4707 297.517C41.113 297.773 42.2493 298.028 43.8633 298.259C45.4529 298.487 47.4291 298.681 49.7019 298.847C54.2462 299.178 59.9275 299.389 65.9787 299.512C78.0781 299.759 91.6079 299.656 100.373 299.486H100.383H100.393C107.362 299.486 118.043 299.257 127.431 298.569C132.127 298.226 136.477 297.768 139.868 297.174C141.565 296.875 142.996 296.548 144.101 296.191C145.247 295.821 145.893 295.465 146.164 295.192C146.423 294.934 146.751 294.319 147.061 293.204C147.361 292.131 147.607 290.744 147.801 289.105C148.191 285.829 148.363 281.66 148.389 277.232C148.439 268.379 147.904 258.601 147.396 253.095L147.083 249.692L149.246 252.336C153.567 257.618 162.173 260.463 169.822 255.205C170.702 254.599 171.953 253.283 173.5 251.312C175.026 249.369 176.777 246.874 178.661 244.001C182.427 238.254 186.695 231.044 190.712 223.806C194.728 216.568 198.487 209.322 201.239 203.509C202.615 200.602 203.734 198.065 204.505 196.075C204.891 195.079 205.185 194.233 205.381 193.554C205.584 192.85 205.658 192.405 205.658 192.177C205.658 190.944 205.051 189.361 203.909 187.603C202.786 185.871 201.217 184.083 199.475 182.465C197.734 180.848 195.847 179.428 194.104 178.419C192.323 177.389 190.83 176.867 189.836 176.867C189.74 176.867 189.527 176.903 189.164 177.065C188.813 177.219 188.388 177.459 187.89 177.789C186.894 178.449 185.691 179.411 184.332 180.598C181.618 182.968 178.389 186.139 175.123 189.347L175.099 189.372C171.533 192.875 167.918 196.424 164.959 198.929C163.481 200.18 162.119 201.213 160.977 201.848C160.409 202.165 159.839 202.416 159.298 202.525C158.76 202.635 158.104 202.63 157.541 202.227C156.588 201.547 155.916 200.341 155.335 198.968C154.74 197.566 154.155 195.772 153.485 193.709L153.471 193.668C151.331 187.098 148.141 177.31 140.423 166.196C135.462 159.052 128.286 154.473 121.4 151.655C115.046 149.056 109.008 147.986 105.336 147.77Z"
        fill="#0B0924" />
    <path
        d="M73.05 248.461C74.487 247.495 76.4349 247.877 77.4008 249.314L100.175 283.195C101.141 284.632 100.759 286.58 99.322 287.546L53.0851 318.626C51.6482 319.592 49.7003 319.209 48.7343 317.773L25.9602 283.892C24.9944 282.455 25.3762 280.508 26.8132 279.542L73.05 248.461Z"
        fill="white" />
    <path fill-rule="evenodd" clip-rule="evenodd"
        d="M72.4673 247.595C74.3832 246.306 76.9804 246.816 78.2683 248.731L101.042 282.613C102.33 284.528 101.821 287.125 99.9052 288.413L53.6683 319.493C51.7523 320.78 49.1552 320.272 47.8672 318.355L25.0932 284.475C23.8052 282.559 24.3145 279.961 26.2303 278.674L72.4673 247.595ZM76.5337 249.897C75.8898 248.939 74.5911 248.684 73.6332 249.328L27.3964 280.408C26.4383 281.052 26.1837 282.35 26.8277 283.309L49.6018 317.19C50.2457 318.147 51.5444 318.402 52.5023 317.758L98.7393 286.678C99.6972 286.034 99.9517 284.736 99.3078 283.777L76.5337 249.897Z"
        fill="#0B0924" />
    <path
        d="M80.971 286.22C77.7 284.584 75.8599 282.812 75.3489 282.131C72.7934 285.027 67.3756 291.841 66.1489 295.93C64.6156 301.041 72.7934 308.708 75.3489 309.219C77.9044 309.731 85.571 305.13 87.1043 302.574C88.3309 300.53 85.571 296.782 84.0377 295.419C84.8894 294.227 87.922 292.864 87.1043 290.82C86.082 288.263 85.0598 288.263 80.971 286.22Z"
        fill="white" />
    <path fill-rule="evenodd" clip-rule="evenodd"
        d="M75.4148 280.477L76.185 281.504C76.5749 282.024 78.2722 283.702 81.4385 285.285C82.1999 285.666 82.8484 285.972 83.4211 286.242C83.6086 286.331 83.7879 286.416 83.9604 286.498C84.6451 286.825 85.2434 287.122 85.7529 287.45C86.8658 288.164 87.5002 288.995 88.0747 290.432C88.7413 292.098 87.7333 293.399 86.9278 294.186C86.5845 294.522 86.199 294.841 85.8702 295.114C85.7977 295.174 85.7279 295.232 85.662 295.286C85.6085 295.331 85.5579 295.374 85.5101 295.415C86.2074 296.181 86.9615 297.189 87.5278 298.249C87.9232 298.99 88.2538 299.804 88.3891 300.614C88.5248 301.427 88.4763 302.32 88.0006 303.112C87.5187 303.916 86.632 304.777 85.6346 305.578C84.6132 306.398 83.3864 307.227 82.1336 307.951C80.8828 308.676 79.5799 309.313 78.4043 309.739C77.2865 310.144 76.0885 310.434 75.1441 310.244C74.6607 310.147 74.1381 309.907 73.6347 309.616C73.1154 309.316 72.5503 308.924 71.9702 308.467C70.81 307.55 69.5437 306.333 68.4114 304.968C67.2822 303.605 66.2567 302.061 65.6131 300.487C64.9735 298.923 64.6701 297.224 65.1482 295.631C65.8154 293.407 67.5696 290.558 69.3984 287.98C71.25 285.367 73.2671 282.912 74.5655 281.44L75.4148 280.477ZM71.1032 289.188C69.2775 291.763 67.7095 294.367 67.1501 296.232C66.8615 297.193 67.0054 298.37 67.5477 299.696C68.086 301.013 68.9772 302.376 70.0202 303.633C71.06 304.888 72.2216 306.001 73.2655 306.827C73.7875 307.239 74.2685 307.569 74.6795 307.807C75.1065 308.053 75.3986 308.164 75.554 308.195C75.8874 308.262 76.6059 308.167 77.6924 307.774C78.7208 307.402 79.9096 306.824 81.0865 306.143C82.2614 305.463 83.3985 304.693 84.3258 303.948C85.277 303.184 85.9236 302.512 86.2084 302.037C86.346 301.808 86.4125 301.466 86.3277 300.959C86.2426 300.449 86.0174 299.857 85.6845 299.235C85.0158 297.983 84.0203 296.802 83.3436 296.201L82.6415 295.576L83.1874 294.812C83.49 294.389 83.9439 293.999 84.3208 293.684C84.4031 293.615 84.484 293.548 84.5636 293.482C84.8884 293.213 85.191 292.962 85.4667 292.692C86.1861 291.989 86.2854 291.586 86.1342 291.208C85.6865 290.089 85.2987 289.642 84.6227 289.208C84.2378 288.96 83.7499 288.714 83.061 288.385C82.8983 288.307 82.7253 288.226 82.5419 288.139C81.9661 287.867 81.2881 287.547 80.5039 287.155C78.0858 285.945 76.3824 284.646 75.3783 283.696C74.1619 285.127 72.5768 287.11 71.1032 289.188Z"
        fill="#0B0924" />
    <path
        d="M19.6382 257.087C9.00714 242.775 11.4604 226.25 14.016 219.775L52.3488 232.042C52.3488 240.731 79.4374 274.975 77.9041 282.131C76.3708 289.286 65.6376 297.975 61.0376 296.953C56.4377 295.93 32.9268 274.975 19.6382 257.087Z"
        fill="white" />
    <path fill-rule="evenodd" clip-rule="evenodd"
        d="M18.7999 257.71C7.88891 243.022 10.4017 226.088 13.0446 219.393L14.9886 220.159C12.5204 226.413 10.1266 242.53 20.4776 256.464C27.0724 265.342 36.2248 275.006 44.3113 282.583C48.3526 286.369 52.1135 289.622 55.1408 291.985C56.6555 293.167 57.9743 294.117 59.0448 294.799C60.1528 295.504 60.8867 295.848 61.265 295.933C62.0711 296.112 63.3412 295.881 64.9567 295.128C66.5303 294.394 68.2729 293.236 69.9438 291.813C73.324 288.934 76.187 285.16 76.8829 281.912C77.0072 281.332 76.854 280.263 76.2644 278.637C75.6953 277.067 74.7894 275.159 73.6367 273C71.3327 268.685 68.1105 263.494 64.8157 258.216C64.6477 257.946 64.4797 257.677 64.3115 257.408C61.1904 252.41 58.0464 247.374 55.6438 243.034C54.3776 240.747 53.3043 238.63 52.5449 236.795C51.7984 234.992 51.3045 233.347 51.3045 232.043H53.3944C53.3944 232.912 53.7469 234.235 54.476 235.997C55.192 237.726 56.223 239.766 57.4723 242.022C59.8472 246.312 62.9641 251.303 66.0966 256.32C66.2606 256.584 66.4245 256.846 66.5886 257.109C69.8742 262.372 73.1366 267.626 75.4804 272.016C76.6517 274.21 77.6106 276.218 78.2293 277.925C78.8277 279.575 79.1855 281.142 78.9265 282.35C78.0891 286.258 74.8189 290.407 71.2991 293.405C69.5201 294.92 67.621 296.191 65.8406 297.022C64.1019 297.833 62.3054 298.305 60.8115 297.973C60.0399 297.802 59.0328 297.268 57.9227 296.562C56.7752 295.831 55.3986 294.838 53.8547 293.632C50.7645 291.219 46.9549 287.924 42.8822 284.107C34.7411 276.479 25.4938 266.721 18.7999 257.71Z"
        fill="#0B0924" />
    <path
        d="M144.348 202.398L148.437 253.509C150.072 254.736 153.206 257.087 154.57 257.598C154.161 253.509 147.585 219.095 144.348 202.398Z"
        fill="#0B0924" />
    <path
        d="M14.5283 218.754C18.2764 224.546 24.6481 240.527 20.1504 258.108C15.3801 252.998 7.57725 237.971 14.5283 218.754Z"
        fill="#0B0924" />
    <path
        d="M148.437 252.998C160.703 247.274 170.926 249.591 174.503 251.465C173.31 253.85 169.085 258.723 161.725 259.132C154.365 259.541 149.799 255.213 148.437 252.998Z"
        fill="#0B0924" />
    <path
        d="M58.9936 233.065C58.5848 224.888 61.8899 210.577 63.5935 204.443C62.5713 205.977 59.7092 210.781 56.438 217.732C52.3492 226.42 51.327 232.043 53.8825 237.154C54.9893 239.368 59.2414 246.673 63.8822 254.532L66.1491 252.628C62.5459 245.313 59.2585 238.365 58.9936 233.065Z"
        fill="#0B0924" />
    <path d="M93.7485 312.797L90.1709 325.574H93.7485V312.797Z" fill="white" />
    <path
        d="M91.1934 138C96.1 139.636 100.223 138.681 101.927 138L103.46 145.155C96.9177 144.337 92.5563 139.873 91.1934 138Z"
        fill="#0B0924" />
    <path
        d="M138.253 76.5765C138.253 73.6909 140.592 71.3516 143.479 71.3516H335.758C338.645 71.3516 340.984 73.6909 340.984 76.5765V223.805C340.984 226.692 338.645 229.031 335.758 229.031H143.479C140.592 229.031 138.253 226.692 138.253 223.805V76.5765Z"
        fill="white" />
    <path fill-rule="evenodd" clip-rule="evenodd"
        d="M137.209 76.5747C137.209 73.112 140.017 70.3047 143.479 70.3047H335.759C339.222 70.3047 342.029 73.1119 342.029 76.5747V223.804C342.029 227.266 339.222 230.074 335.759 230.074H143.479C140.017 230.074 137.209 227.266 137.209 223.804V76.5747ZM143.479 72.3948C141.171 72.3948 139.3 74.2662 139.3 76.5747V223.804C139.3 226.112 141.171 227.984 143.479 227.984H335.759C338.068 227.984 339.939 226.112 339.939 223.804V76.5747C339.939 74.2662 338.068 72.3948 335.759 72.3948H143.479Z"
        fill="#0B0924" />
    <mask id="mask0_1978_33740" style="mask-type:alpha" maskUnits="userSpaceOnUse" x="139" y="72" width="201"
        height="156">
        <path fill-rule="evenodd" clip-rule="evenodd"
            d="M143.477 72.3945C141.168 72.3945 139.297 74.266 139.297 76.5745V223.804C139.297 226.112 141.168 227.984 143.477 227.984H335.756C338.065 227.984 339.936 226.112 339.936 223.804V76.5745C339.936 74.266 338.065 72.3945 335.756 72.3945H143.477Z"
            fill="#0B0924" />
    </mask>
    <g mask="url(#mask0_1978_33740)">
        <circle cx="175" cy="227" r="46" fill="#4CC3C7" fill-opacity="0.5" />
        <circle cx="310" cy="202" r="6" fill="#0B0924" />
        <circle cx="331" cy="101" r="25" fill="#4CC3C7" />
    </g>
    <rect x="224" y="123" width="36" height="28" rx="7" fill="#4CC3C7" stroke="#0B0924" stroke-width="2" />
    <rect x="206" y="159" width="72" height="19" rx="1" fill="#4CC3C7" stroke="#0B0924" stroke-width="2" />
    <path fill-rule="evenodd" clip-rule="evenodd"
        d="M223.63 170.235L224.591 170.953C224.669 170.992 224.753 171.007 224.842 170.997C224.94 170.978 225.009 170.934 225.049 170.865L225.078 170.836C225.098 170.816 225.113 170.797 225.122 170.777L225.625 169.576L226.142 170.777C226.161 170.797 226.176 170.816 226.186 170.836L226.216 170.865C226.265 170.934 226.334 170.978 226.422 170.997C226.511 171.007 226.595 170.992 226.674 170.953L227.634 170.235C227.713 170.186 227.757 170.118 227.767 170.03C227.777 169.942 227.757 169.864 227.708 169.795C227.708 169.786 227.678 169.756 227.619 169.708L226.629 168.872L227.929 168.755C227.969 168.745 227.993 168.74 228.003 168.74C228.023 168.731 228.038 168.726 228.047 168.726C228.126 168.706 228.185 168.657 228.225 168.579C228.264 168.491 228.274 168.403 228.254 168.315L227.885 167.187C227.865 167.109 227.811 167.05 227.722 167.011C227.644 166.972 227.565 166.962 227.486 166.982C227.466 166.982 227.427 166.996 227.368 167.026L226.23 167.7L226.541 166.44C226.55 166.41 226.555 166.386 226.555 166.366V166.322C226.555 166.244 226.521 166.171 226.452 166.103C226.393 166.034 226.319 166 226.23 166H225.034C224.945 166 224.866 166.034 224.797 166.103C224.738 166.171 224.709 166.244 224.709 166.322V166.366C224.709 166.386 224.714 166.41 224.724 166.44L225.004 167.7L223.896 167.026C223.837 166.996 223.798 166.982 223.778 166.982C223.709 166.962 223.63 166.972 223.542 167.011C223.453 167.05 223.399 167.109 223.379 167.187L223.01 168.315C222.99 168.403 223 168.491 223.039 168.579C223.089 168.657 223.148 168.706 223.217 168.726C223.227 168.726 223.236 168.731 223.246 168.74C223.266 168.74 223.295 168.745 223.335 168.755L224.635 168.858L223.645 169.708C223.586 169.756 223.556 169.786 223.556 169.795C223.517 169.864 223.502 169.942 223.512 170.03C223.522 170.118 223.561 170.186 223.63 170.235ZM230.209 170.235L231.169 170.953C231.248 170.992 231.332 171.007 231.42 170.997C231.519 170.978 231.588 170.934 231.627 170.865L231.657 170.836C231.676 170.816 231.691 170.797 231.701 170.777L232.203 169.576L232.72 170.777C232.74 170.797 232.755 170.816 232.765 170.836L232.794 170.865C232.843 170.934 232.912 170.978 233.001 170.997C233.09 171.007 233.173 170.992 233.252 170.953L234.212 170.235C234.291 170.186 234.336 170.118 234.345 170.03C234.355 169.942 234.336 169.864 234.286 169.795C234.286 169.786 234.257 169.756 234.198 169.708L233.208 168.872L234.508 168.755C234.547 168.745 234.572 168.74 234.582 168.74C234.601 168.731 234.616 168.726 234.626 168.726C234.705 168.706 234.764 168.657 234.803 168.579C234.843 168.491 234.853 168.403 234.833 168.315L234.464 167.187C234.444 167.109 234.39 167.05 234.301 167.011C234.222 166.972 234.143 166.962 234.065 166.982C234.045 166.982 234.006 166.996 233.947 167.026L232.809 167.7L233.119 166.44C233.129 166.41 233.134 166.386 233.134 166.366V166.322C233.134 166.244 233.1 166.171 233.031 166.103C232.972 166.034 232.898 166 232.809 166H231.612C231.524 166 231.445 166.034 231.376 166.103C231.317 166.171 231.287 166.244 231.287 166.322V166.366C231.287 166.386 231.292 166.41 231.302 166.44L231.583 167.7L230.475 167.026C230.416 166.996 230.376 166.982 230.357 166.982C230.288 166.962 230.209 166.972 230.12 167.011C230.032 167.05 229.977 167.109 229.958 167.187L229.588 168.315C229.569 168.403 229.579 168.491 229.618 168.579C229.667 168.657 229.726 168.706 229.795 168.726C229.805 168.726 229.815 168.731 229.825 168.74C229.845 168.74 229.874 168.745 229.913 168.755L231.214 168.858L230.224 169.708C230.165 169.756 230.135 169.786 230.135 169.795C230.096 169.864 230.081 169.942 230.091 170.03C230.101 170.118 230.14 170.186 230.209 170.235ZM237.748 170.953L236.788 170.235C236.719 170.186 236.679 170.118 236.669 170.03C236.66 169.942 236.674 169.864 236.714 169.795C236.714 169.786 236.743 169.756 236.802 169.708L237.792 168.858L236.492 168.755C236.453 168.745 236.423 168.74 236.403 168.74C236.394 168.731 236.384 168.726 236.374 168.726C236.305 168.706 236.246 168.657 236.197 168.579C236.157 168.491 236.147 168.403 236.167 168.315L236.536 167.187C236.556 167.109 236.61 167.05 236.699 167.011C236.788 166.972 236.866 166.962 236.935 166.982C236.955 166.982 236.994 166.996 237.053 167.026L238.161 167.7L237.881 166.44C237.871 166.41 237.866 166.386 237.866 166.366V166.322C237.866 166.244 237.896 166.171 237.955 166.103C238.024 166.034 238.102 166 238.191 166H239.388C239.476 166 239.55 166.034 239.609 166.103C239.678 166.171 239.713 166.244 239.713 166.322V166.366C239.713 166.386 239.708 166.41 239.698 166.44L239.388 167.7L240.525 167.026C240.584 166.996 240.624 166.982 240.643 166.982C240.722 166.962 240.801 166.972 240.88 167.011C240.968 167.05 241.023 167.109 241.042 167.187L241.412 168.315C241.431 168.403 241.421 168.491 241.382 168.579C241.343 168.657 241.283 168.706 241.205 168.726C241.195 168.726 241.18 168.731 241.16 168.74C241.151 168.74 241.126 168.745 241.087 168.755L239.786 168.872L240.776 169.708C240.835 169.756 240.865 169.786 240.865 169.795C240.914 169.864 240.934 169.942 240.924 170.03C240.914 170.118 240.87 170.186 240.791 170.235L239.831 170.953C239.752 170.992 239.668 171.007 239.58 170.997C239.491 170.978 239.422 170.934 239.373 170.865L239.343 170.836C239.333 170.816 239.319 170.797 239.299 170.777L238.782 169.576L238.28 170.777C238.27 170.797 238.255 170.816 238.235 170.836L238.206 170.865C238.166 170.934 238.097 170.978 237.999 170.997C237.91 171.007 237.827 170.992 237.748 170.953ZM243.366 170.235L244.326 170.953C244.405 170.992 244.489 171.007 244.578 170.997C244.676 170.978 244.745 170.934 244.784 170.865L244.814 170.836C244.834 170.816 244.848 170.797 244.858 170.777L245.361 169.576L245.878 170.777C245.897 170.797 245.912 170.816 245.922 170.836L245.951 170.865C246.001 170.934 246.07 170.978 246.158 170.997C246.247 171.007 246.331 170.992 246.409 170.953L247.37 170.235C247.448 170.186 247.493 170.118 247.503 170.03C247.512 169.942 247.493 169.864 247.444 169.795C247.444 169.786 247.414 169.756 247.355 169.708L246.365 168.872L247.665 168.755C247.705 168.745 247.729 168.74 247.739 168.74C247.759 168.731 247.773 168.726 247.783 168.726C247.862 168.706 247.921 168.657 247.961 168.579C248 168.491 248.01 168.403 247.99 168.315L247.621 167.187C247.601 167.109 247.547 167.05 247.458 167.011C247.38 166.972 247.301 166.962 247.222 166.982C247.202 166.982 247.163 166.996 247.104 167.026L245.966 167.7L246.276 166.44C246.286 166.41 246.291 166.386 246.291 166.366V166.322C246.291 166.244 246.257 166.171 246.188 166.103C246.129 166.034 246.055 166 245.966 166H244.77C244.681 166 244.602 166.034 244.533 166.103C244.474 166.171 244.445 166.244 244.445 166.322V166.366C244.445 166.386 244.45 166.41 244.459 166.44L244.74 167.7L243.632 167.026C243.573 166.996 243.534 166.982 243.514 166.982C243.445 166.962 243.366 166.972 243.278 167.011C243.189 167.05 243.135 167.109 243.115 167.187L242.746 168.315C242.726 168.403 242.736 168.491 242.775 168.579C242.825 168.657 242.884 168.706 242.953 168.726C242.962 168.726 242.972 168.731 242.982 168.74C243.002 168.74 243.031 168.745 243.071 168.755L244.371 168.858L243.381 169.708C243.322 169.756 243.292 169.786 243.292 169.795C243.253 169.864 243.238 169.942 243.248 170.03C243.258 170.118 243.297 170.186 243.366 170.235ZM249.788 170.235L250.748 170.953C250.827 170.992 250.91 171.007 250.999 170.997C251.097 170.978 251.166 170.934 251.206 170.865L251.235 170.836C251.255 170.816 251.27 170.797 251.28 170.777L251.782 169.576L252.299 170.777C252.319 170.797 252.333 170.816 252.343 170.836L252.373 170.865C252.422 170.934 252.491 170.978 252.58 170.997C252.668 171.007 252.752 170.992 252.831 170.953L253.791 170.235C253.87 170.186 253.914 170.118 253.924 170.03C253.934 169.942 253.914 169.864 253.865 169.795C253.865 169.786 253.835 169.756 253.776 169.708L252.786 168.872L254.087 168.755C254.126 168.745 254.151 168.74 254.16 168.74C254.18 168.731 254.195 168.726 254.205 168.726C254.283 168.706 254.343 168.657 254.382 168.579C254.421 168.491 254.431 168.403 254.412 168.315L254.042 167.187C254.022 167.109 253.968 167.05 253.88 167.011C253.801 166.972 253.722 166.962 253.643 166.982C253.624 166.982 253.584 166.996 253.525 167.026L252.388 167.7L252.698 166.44C252.708 166.41 252.713 166.386 252.713 166.366V166.322C252.713 166.244 252.678 166.171 252.609 166.103C252.55 166.034 252.476 166 252.388 166H251.191C251.102 166 251.024 166.034 250.955 166.103C250.896 166.171 250.866 166.244 250.866 166.322V166.366C250.866 166.386 250.871 166.41 250.881 166.44L251.161 167.7L250.053 167.026C249.994 166.996 249.955 166.982 249.935 166.982C249.866 166.962 249.788 166.972 249.699 167.011C249.61 167.05 249.556 167.109 249.536 167.187L249.167 168.315C249.147 168.403 249.157 168.491 249.197 168.579C249.246 168.657 249.305 168.706 249.374 168.726C249.384 168.726 249.394 168.731 249.403 168.74C249.423 168.74 249.453 168.745 249.492 168.755L250.792 168.858L249.802 169.708C249.743 169.756 249.714 169.786 249.714 169.795C249.674 169.864 249.66 169.942 249.669 170.03C249.679 170.118 249.719 170.186 249.788 170.235ZM256.366 170.235L257.326 170.953C257.405 170.992 257.489 171.007 257.578 170.997C257.676 170.978 257.745 170.934 257.784 170.865L257.814 170.836C257.834 170.816 257.848 170.797 257.858 170.777L258.361 169.576L258.878 170.777C258.897 170.797 258.912 170.816 258.922 170.836L258.951 170.865C259.001 170.934 259.07 170.978 259.158 170.997C259.247 171.007 259.331 170.992 259.409 170.953L260.37 170.235C260.448 170.186 260.493 170.118 260.503 170.03C260.512 169.942 260.493 169.864 260.444 169.795C260.444 169.786 260.414 169.756 260.355 169.708L259.365 168.872L260.665 168.755C260.705 168.745 260.729 168.74 260.739 168.74C260.759 168.731 260.773 168.726 260.783 168.726C260.862 168.706 260.921 168.657 260.961 168.579C261 168.491 261.01 168.403 260.99 168.315L260.621 167.187C260.601 167.109 260.547 167.05 260.458 167.011C260.38 166.972 260.301 166.962 260.222 166.982C260.202 166.982 260.163 166.996 260.104 167.026L258.966 167.7L259.276 166.44C259.286 166.41 259.291 166.386 259.291 166.366V166.322C259.291 166.244 259.257 166.171 259.188 166.103C259.129 166.034 259.055 166 258.966 166H257.77C257.681 166 257.602 166.034 257.533 166.103C257.474 166.171 257.445 166.244 257.445 166.322V166.366C257.445 166.386 257.45 166.41 257.459 166.44L257.74 167.7L256.632 167.026C256.573 166.996 256.534 166.982 256.514 166.982C256.445 166.962 256.366 166.972 256.278 167.011C256.189 167.05 256.135 167.109 256.115 167.187L255.746 168.315C255.726 168.403 255.736 168.491 255.775 168.579C255.824 168.657 255.884 168.706 255.953 168.726C255.962 168.726 255.972 168.731 255.982 168.74C256.002 168.74 256.031 168.745 256.071 168.755L257.371 168.858L256.381 169.708C256.322 169.756 256.292 169.786 256.292 169.795C256.253 169.864 256.238 169.942 256.248 170.03C256.258 170.118 256.297 170.186 256.366 170.235Z"
        fill="white" />
    <path
        d="M138.253 76.5765C138.253 73.6909 140.592 71.3516 143.479 71.3516H335.758C338.645 71.3516 340.984 73.6909 340.984 76.5765V96.9841H138.253V76.5765Z"
        fill="#0B0924" />
    <path
        d="M163.768 83.7193C163.768 86.6892 161.359 89.0967 158.39 89.0967C155.42 89.0967 153.013 86.6892 153.013 83.7193C153.013 80.7494 155.42 78.3418 158.39 78.3418C161.359 78.3418 163.768 80.7494 163.768 83.7193Z"
        fill="white" />
    <path
        d="M181.691 83.7193C181.691 86.6892 179.283 89.0967 176.313 89.0967C173.344 89.0967 170.936 86.6892 170.936 83.7193C170.936 80.7494 173.344 78.3418 176.313 78.3418C179.283 78.3418 181.691 80.7494 181.691 83.7193Z"
        fill="white" />
    <path
        d="M199.616 83.7193C199.616 86.6892 197.208 89.0967 194.239 89.0967C191.269 89.0967 188.861 86.6892 188.861 83.7193C188.861 80.7494 191.269 78.3418 194.239 78.3418C197.208 78.3418 199.616 80.7494 199.616 83.7193Z"
        fill="white" />
    <path
        d="M246.967 269.375C251.473 300.007 274.798 317.71 286.909 323.157C287.299 323.332 287.709 323.413 288.135 323.413H291.549C293.578 323.413 295.074 321.509 294.526 319.556C285.19 286.331 263.544 271.093 250.573 266.337C248.579 265.606 246.657 267.272 246.967 269.375Z"
        fill="white" />
    <path fill-rule="evenodd" clip-rule="evenodd"
        d="M250.214 267.319C249.02 266.881 247.798 267.844 248.001 269.222C252.439 299.39 275.433 316.851 287.34 322.205C287.581 322.314 287.844 322.368 288.136 322.368H291.55C292.914 322.368 293.875 321.1 293.519 319.839C284.283 286.964 262.897 271.968 250.214 267.319ZM245.933 269.527C245.517 266.701 248.138 264.332 250.934 265.357C264.194 270.219 286.1 285.701 295.532 319.274C296.276 321.92 294.245 324.458 291.55 324.458H288.136C287.575 324.458 287.017 324.351 286.482 324.111C274.165 318.572 250.508 300.626 245.933 269.527Z"
        fill="#0B0924" />
    <path fill-rule="evenodd" clip-rule="evenodd"
        d="M265.743 287.006C262.513 283.685 259.595 281.024 257.036 278.75L258.424 277.188C261.441 279.869 264.982 283.109 268.949 287.336C271.895 290.476 275.071 294.158 278.441 298.562V294.055H280.531V301.353C283.409 305.282 286.416 309.738 289.529 314.824C291.007 317.236 292.508 319.791 294.031 322.498L292.209 323.522C290.784 320.989 289.379 318.591 287.996 316.321L281.285 315.194L281.63 313.132L286.533 313.956C283.808 309.61 281.174 305.754 278.644 302.316C274.74 297.009 271.084 292.693 267.733 289.095H260.947V287.006H265.743Z"
        fill="#0B0924" />
    <path
        d="M283.533 216.183C264.011 257.422 278.02 302.644 288.623 322.237C289.158 323.226 290.195 323.815 291.318 323.815H296.226C297.874 323.815 299.242 322.523 299.344 320.879C302.54 268.866 294.606 232.602 288.61 216.356C287.731 213.976 284.619 213.89 283.533 216.183Z"
        fill="#4CC3C7" />
    <path
        d="M328.751 239.689C303.726 256.59 291.578 297.881 288.001 320.299C287.704 322.169 289.169 323.816 291.061 323.816H298.29C299.101 323.816 299.882 323.504 300.457 322.932C323.295 300.187 331.396 262.645 333.035 242.273C333.227 239.886 330.735 238.349 328.751 239.689Z"
        fill="white" />
    <path fill-rule="evenodd" clip-rule="evenodd"
        d="M331.995 242.19C332.121 240.618 330.546 239.737 329.336 240.555C317.066 248.842 307.872 263.178 301.293 278.342C294.721 293.484 290.811 309.324 289.034 320.464C288.841 321.671 289.783 322.772 291.062 322.772H298.291C298.834 322.772 299.348 322.562 299.72 322.192C310.986 310.971 318.653 296.06 323.708 281.373C328.761 266.692 331.181 252.3 331.995 242.19ZM328.167 238.823C330.925 236.96 334.335 239.155 334.078 242.357C333.252 252.618 330.802 267.184 325.684 282.052C320.569 296.916 312.766 312.148 301.194 323.673C300.418 324.446 299.368 324.861 298.291 324.861H291.062C288.554 324.861 286.566 322.666 286.97 320.135C288.77 308.856 292.722 292.843 299.375 277.51C306.02 262.199 315.413 247.437 328.167 238.823Z"
        fill="#0B0924" />
    <path
        d="M349.781 283.869C324.961 284.799 306.231 305.418 297.66 319.35C296.431 321.348 297.921 323.816 300.267 323.816H308.949C309.383 323.816 309.811 323.727 310.207 323.548C326.491 316.138 343.052 299.147 351.929 288.442C353.504 286.544 352.247 283.777 349.781 283.869Z"
        fill="#4CC3C7" />
    <path fill-rule="evenodd" clip-rule="evenodd"
        d="M286.925 222.909C286.65 231.246 286.606 239.297 286.742 246.985C286.848 252.937 287.059 258.67 287.353 264.147L291.828 256.91L293.606 258.01L287.561 267.782C287.985 274.692 288.533 281.162 289.153 287.111C289.888 294.172 290.722 300.497 291.565 305.953L295.443 299.548L297.231 300.63L292.075 309.148C293.102 315.378 294.113 320.263 294.938 323.562L292.911 324.069C292.051 320.632 291.006 315.556 289.949 309.105C288.967 303.108 287.976 295.916 287.117 287.737L279.565 281.172L280.936 279.595L286.808 284.7C286.285 279.362 285.821 273.636 285.455 267.577C285.068 261.18 284.788 254.412 284.659 247.333L279.386 239.546L281.116 238.375L284.604 243.525C284.535 236.87 284.601 229.958 284.836 222.84L286.925 222.909Z"
        fill="white" />
    <path fill-rule="evenodd" clip-rule="evenodd"
        d="M315.542 272.319C319.485 263.494 323.551 255.22 327.398 248.744L325.601 247.676C321.381 254.783 316.927 263.972 312.674 273.63C310.359 278.885 308.101 284.288 305.969 289.578L304.2 280.583L302.148 280.985L304.542 293.152C302.337 298.718 300.292 304.097 298.491 308.976C296.401 314.642 294.638 319.639 293.337 323.48L295.316 324.15C296.584 320.408 298.295 315.556 300.323 310.048L310.942 303.803L309.883 302.002L301.474 306.947C303.04 302.755 304.764 298.26 306.599 293.637C309.043 287.473 311.681 281.086 314.399 274.897L324.012 271.723L323.356 269.738L315.542 272.319Z"
        fill="#0B0924" />
    <path fill-rule="evenodd" clip-rule="evenodd"
        d="M346.219 289.786C340.483 292.272 334.656 295.668 329.096 299.435C325.593 301.808 322.202 304.324 319.013 306.846H324.488V308.935H316.416C309.025 314.986 302.971 320.831 299.514 324.529L297.986 323.102C301.555 319.284 307.791 313.271 315.383 307.081C319.193 303.974 323.349 300.817 327.684 297.867L330.779 291.202L332.674 292.083L331.008 295.672C335.703 292.664 340.563 289.96 345.388 287.869L346.219 289.786Z"
        fill="white" />
    <circle cx="242" cy="137" r="8" fill="#0B0924" />
    <path fill-rule="evenodd" clip-rule="evenodd"
        d="M247.28 133.22C247.573 133.513 247.573 133.987 247.28 134.28L241.28 140.28C240.987 140.573 240.513 140.573 240.22 140.28L237.22 137.28C236.927 136.987 236.927 136.513 237.22 136.22C237.513 135.927 237.987 135.927 238.28 136.22L240.75 137.75L246.22 133.22C246.513 132.927 246.987 132.927 247.28 133.22Z"
        fill="#4CC3C7" />
    <path
        d="M253.878 122.136C253.932 122.545 253.594 123 253.003 123H252.989H252.976H252.962H252.949H252.935H252.921H252.907H252.894H252.88H252.866H252.852H252.838H252.824H252.81H252.796H252.782H252.768H252.754H252.739H252.725H252.711H252.696H252.682H252.668H252.653H252.639H252.624H252.609H252.595H252.58H252.566H252.551H252.536H252.521H252.506H252.491H252.477H252.462H252.447H252.431H252.416H252.401H252.386H252.371H252.356H252.34H252.325H252.31H252.294H252.279H252.264H252.248H252.232H252.217H252.201H252.186H252.17H252.154H252.138H252.123H252.107H252.091H252.075H252.059H252.043H252.027H252.011H251.995H251.979H251.963H251.946H251.93H251.914H251.898H251.881H251.865H251.848H251.832H251.816H251.799H251.782H251.766H251.749H251.732H251.716H251.699H251.682H251.665H251.649H251.632H251.615H251.598H251.581H251.564H251.547H251.53H251.512H251.495H251.478H251.461H251.444H251.426H251.409H251.392H251.374H251.357H251.339H251.322H251.304H251.286H251.269H251.251H251.233H251.216H251.198H251.18H251.162H251.145H251.127H251.109H251.091H251.073H251.055H251.037H251.018H251H250.982H250.964H250.946H250.927H250.909H250.891H250.872H250.854H250.836H250.817H250.799H250.78H250.762H250.743H250.724H250.706H250.687H250.668H250.649H250.631H250.612H250.593H250.574H250.555H250.536H250.517H250.498H250.479H250.46H250.441H250.422H250.402H250.383H250.364H250.345H250.325H250.306H250.287H250.267H250.248H250.228H250.209H250.189H250.17H250.15H250.131H250.111H250.091H250.071H250.052H250.032H250.012H249.992H249.972H249.952H249.933H249.913H249.893H249.873H249.852H249.832H249.812H249.792H249.772H249.752H249.731H249.711H249.691H249.671H249.65H249.63H249.609H249.589H249.568H249.548H249.527H249.507H249.486H249.466H249.445H249.424H249.404H249.383H249.362H249.341H249.32H249.299H249.279H249.258H249.237H249.216H249.195H249.174H249.153H249.132H249.11H249.089H249.068H249.047H249.026H249.004H248.983H248.962H248.94H248.919H248.898H248.876H248.855H248.833H248.812H248.79H248.769H248.747H248.725H248.704H248.682H248.66H248.639H248.617H248.595H248.573H248.551H248.53H248.508H248.486H248.464H248.442H248.42H248.398H248.376H248.354H248.331H248.309H248.287H248.265H248.243H248.22H248.198H248.176H248.154H248.131H248.109H248.086H248.064H248.042H248.019H247.997H247.974H247.951H247.929H247.906H247.884H247.861H247.838H247.816H247.793H247.77H247.747H247.724H247.702H247.679H247.656H247.633H247.61H247.587H247.564H247.541H247.518H247.495H247.472H247.449H247.426H247.402H247.379H247.356H247.333H247.31H247.286H247.263H247.24H247.216H247.193H247.17H247.146H247.123H247.099H247.076H247.052H247.029H247.005H246.981H246.958H246.934H246.911H246.887H246.863H246.839H246.816H246.792H246.768H246.744H246.72H246.697H246.673H246.649H246.625H246.601H246.577H246.553H246.529H246.505H246.481H246.457H246.432H246.408H246.384H246.36H246.336H246.312H246.287H246.263H246.239H246.214H246.19H246.166H246.141H246.117H246.093H246.068H246.044H246.019H245.995H245.97H245.946H245.921H245.896H245.872H245.847H245.823H245.798H245.773H245.748H245.724H245.699H245.674H245.649H245.625H245.6H245.575H245.55H245.525H245.5H245.475H245.45H245.425H245.4H245.375H245.35H245.325H245.3H245.275H245.25H245.225H245.2H245.174H245.149H245.124H245.099H245.073H245.048H245.023H244.998H244.972H244.947H244.921H244.896H244.871H244.845H244.82H244.794H244.769H244.743H244.718H244.692H244.667H244.641H244.616H244.59H244.564H244.539H244.513H244.487H244.462H244.436H244.41H244.384H244.359H244.333H244.307H244.281H244.255H244.229H244.204H244.178H244.152H244.126H244.1H244.074H244.048H244.022H243.996H243.97H243.944H243.918H243.892H243.866H243.839H243.813H243.787H243.761H243.735H243.709H243.682H243.656H243.63H243.604H243.577H243.551H243.525H243.498H243.472H243.446H243.419H243.393H243.367H243.34H243.314H243.287H243.261H243.234H243.208H243.181H243.155H243.128H243.102H243.075H243.048H243.022H242.995H242.969H242.942H242.915H242.889H242.862H242.835H242.808H242.782H242.755H242.728H242.701H242.675H242.648H242.621H242.594H242.567H242.54H242.513H242.487H242.46H242.433H242.406H242.379H242.352H242.325H242.298H242.271H242.244H242.217H242.19H242.163H242.136H242.108H242.081H242.054H242.027H242H241.973H241.946H241.919H241.892H241.864H241.837H241.81H241.783H241.756H241.729H241.702H241.675H241.648H241.621H241.594H241.567H241.54H241.513H241.487H241.46H241.433H241.406H241.379H241.352H241.325H241.299H241.272H241.245H241.218H241.192H241.165H241.138H241.111H241.085H241.058H241.031H241.005H240.978H240.952H240.925H240.898H240.872H240.845H240.819H240.792H240.766H240.739H240.713H240.686H240.66H240.633H240.607H240.581H240.554H240.528H240.502H240.475H240.449H240.423H240.396H240.37H240.344H240.318H240.291H240.265H240.239H240.213H240.187H240.161H240.134H240.108H240.082H240.056H240.03H240.004H239.978H239.952H239.926H239.9H239.874H239.848H239.822H239.796H239.771H239.745H239.719H239.693H239.667H239.641H239.616H239.59H239.564H239.538H239.513H239.487H239.461H239.436H239.41H239.384H239.359H239.333H239.308H239.282H239.257H239.231H239.206H239.18H239.155H239.129H239.104H239.079H239.053H239.028H239.002H238.977H238.952H238.927H238.901H238.876H238.851H238.826H238.8H238.775H238.75H238.725H238.7H238.675H238.65H238.625H238.6H238.575H238.55H238.525H238.5H238.475H238.45H238.425H238.4H238.375H238.351H238.326H238.301H238.276H238.252H238.227H238.202H238.177H238.153H238.128H238.104H238.079H238.054H238.03H238.005H237.981H237.956H237.932H237.907H237.883H237.859H237.834H237.81H237.786H237.761H237.737H237.713H237.688H237.664H237.64H237.616H237.592H237.568H237.543H237.519H237.495H237.471H237.447H237.423H237.399H237.375H237.351H237.327H237.303H237.28H237.256H237.232H237.208H237.184H237.161H237.137H237.113H237.089H237.066H237.042H237.019H236.995H236.971H236.948H236.924H236.901H236.877H236.854H236.83H236.807H236.784H236.76H236.737H236.714H236.69H236.667H236.644H236.621H236.598H236.574H236.551H236.528H236.505H236.482H236.459H236.436H236.413H236.39H236.367H236.344H236.321H236.298H236.276H236.253H236.23H236.207H236.184H236.162H236.139H236.116H236.094H236.071H236.049H236.026H236.003H235.981H235.958H235.936H235.914H235.891H235.869H235.846H235.824H235.802H235.78H235.757H235.735H235.713H235.691H235.669H235.646H235.624H235.602H235.58H235.558H235.536H235.514H235.492H235.47H235.449H235.427H235.405H235.383H235.361H235.34H235.318H235.296H235.275H235.253H235.231H235.21H235.188H235.167H235.145H235.124H235.102H235.081H235.06H235.038H235.017H234.996H234.974H234.953H234.932H234.911H234.89H234.868H234.847H234.826H234.805H234.784H234.763H234.742H234.721H234.701H234.68H234.659H234.638H234.617H234.596H234.576H234.555H234.534H234.514H234.493H234.473H234.452H234.432H234.411H234.391H234.37H234.35H234.329H234.309H234.289H234.269H234.248H234.228H234.208H234.188H234.168H234.148H234.127H234.107H234.087H234.067H234.048H234.028H234.008H233.988H233.968H233.948H233.929H233.909H233.889H233.869H233.85H233.83H233.811H233.791H233.772H233.752H233.733H233.713H233.694H233.675H233.655H233.636H233.617H233.598H233.578H233.559H233.54H233.521H233.502H233.483H233.464H233.445H233.426H233.407H233.388H233.369H233.351H233.332H233.313H233.294H233.276H233.257H233.238H233.22H233.201H233.183H233.164H233.146H233.128H233.109H233.091H233.073H233.054H233.036H233.018H233H232.982H232.963H232.945H232.927H232.909H232.891H232.873H232.855H232.838H232.82H232.802H232.784H232.767H232.749H232.731H232.714H232.696H232.678H232.661H232.643H232.626H232.608H232.591H232.574H232.556H232.539H232.522H232.505H232.488H232.47H232.453H232.436H232.419H232.402H232.385H232.368H232.351H232.335H232.318H232.301H232.284H232.268H232.251H232.234H232.218H232.201H232.184H232.168H232.152H232.135H232.119H232.102H232.086H232.07H232.054H232.037H232.021H232.005H231.989H231.973H231.957H231.941H231.925H231.909H231.893H231.877H231.862H231.846H231.83H231.814H231.799H231.783H231.768H231.752H231.736H231.721H231.706H231.69H231.675H231.66H231.644H231.629H231.614H231.599H231.584H231.569H231.553H231.538H231.523H231.509H231.494H231.479H231.464H231.449H231.434H231.42H231.405H231.391H231.376H231.361H231.347H231.332H231.318H231.304H231.289H231.275H231.261H231.246H231.232H231.218H231.204H231.19H231.176H231.162H231.148H231.134H231.12H231.106H231.093H231.079H231.065H231.051H231.038H231.024H231.011H230.997C230.406 123 230.068 122.545 230.122 122.136C230.964 115.782 236.013 111 242 111C247.987 111 253.036 115.782 253.878 122.136Z"
        stroke="#0B0924" stroke-width="2" />
</svg>