<svg width="2960" height="1129" viewBox="0 0 2960 1129" fill="none" xmlns="http://www.w3.org/2000/svg">
    <path d="M1304.38 569.982H822.088" stroke="black" stroke-width="10.9612" />
    <path d="M816.607 137.016C1079.68 137.016 1057.75 559.02 1304.38 559.02" stroke="black" stroke-width="10.9612" />
    <path d="M816.607 1002.95C1079.68 1002.95 1057.75 580.942 1304.38 580.942" stroke="black" stroke-width="10.9612" />
    <path d="M1655.14 569.982H2137.43" stroke="black" stroke-width="10.9612" />
    <path d="M2142.91 137.016C1879.84 137.016 1901.76 559.02 1655.14 559.02" stroke="black" stroke-width="10.9612" />
    <path d="M2142.91 1002.95C1879.84 1002.95 1901.76 580.942 1655.14 580.942" stroke="black" stroke-width="10.9612" />
    <circle cx="1479.76" cy="569.98" r="175.379" fill="#101828" />
    <path d="M1578.41 471.33V668.483H1424.96V646.583H1556.49V471.33H1578.41Z" fill="white" />
    <path
        d="M1490.72 558.966H1403.03V493.23H1490.72V471.33H1381.11V493.23H1381.11V558.966H1381.11V580.866H1381.11V668.631H1403.03V580.866H1490.72V558.966Z"
        fill="white" />
    <path d="M1534.57 602.764V537.033V515.133H1424.96V537.033H1512.65V602.764H1424.96V624.668H1534.57V602.764Z"
        fill="#4CC3C7" />
    <path
        d="M1523.61 493.234C1529.66 493.234 1534.57 488.331 1534.57 482.282C1534.57 476.234 1529.66 471.33 1523.61 471.33C1517.56 471.33 1512.65 476.234 1512.65 482.282C1512.65 488.331 1517.56 493.234 1523.61 493.234Z"
        fill="#4CC3C7" />
    <rect width="822.087" height="263.068" rx="43.8447" fill="#4CC3C7" />
    <path
        d="M208.858 168.768C208.127 168.768 207.506 168.512 206.994 168C206.483 167.489 206.227 166.868 206.227 166.137V94.7797C206.227 93.9759 206.483 93.3182 206.994 92.8067C207.506 92.2952 208.127 92.0394 208.858 92.0394H256.429C257.233 92.0394 257.891 92.2952 258.402 92.8067C258.914 93.3182 259.17 93.9759 259.17 94.7797V102.453C259.17 103.256 258.914 103.914 258.402 104.426C257.891 104.864 257.233 105.083 256.429 105.083H221.244V125.909H254.237C255.041 125.909 255.699 126.165 256.21 126.677C256.722 127.188 256.977 127.846 256.977 128.65V136.323C256.977 137.053 256.722 137.674 256.21 138.186C255.699 138.697 255.041 138.953 254.237 138.953H221.244V166.137C221.244 166.868 220.988 167.489 220.477 168C219.965 168.512 219.308 168.768 218.504 168.768H208.858ZM274.337 168.768C273.606 168.768 272.985 168.512 272.474 168C271.962 167.489 271.706 166.868 271.706 166.137V114.4C271.706 113.669 271.962 113.048 272.474 112.537C272.985 112.025 273.606 111.77 274.337 111.77H283.435C284.239 111.77 284.86 112.025 285.298 112.537C285.81 113.048 286.066 113.669 286.066 114.4V166.137C286.066 166.868 285.81 167.489 285.298 168C284.86 168.512 284.239 168.768 283.435 168.768H274.337ZM273.899 102.343C273.095 102.343 272.437 102.124 271.926 101.685C271.487 101.174 271.268 100.516 271.268 99.7122V91.8202C271.268 91.0894 271.487 90.4683 271.926 89.9568C272.437 89.4453 273.095 89.1895 273.899 89.1895H283.873C284.677 89.1895 285.335 89.4453 285.846 89.9568C286.358 90.4683 286.614 91.0894 286.614 91.8202V99.7122C286.614 100.516 286.358 101.174 285.846 101.685C285.335 102.124 284.677 102.343 283.873 102.343H273.899ZM305.487 168.768C304.756 168.768 304.135 168.512 303.623 168C303.112 167.489 302.856 166.868 302.856 166.137V114.4C302.856 113.669 303.112 113.048 303.623 112.537C304.135 112.025 304.756 111.77 305.487 111.77H314.475C315.205 111.77 315.827 112.025 316.338 112.537C316.85 113.048 317.105 113.669 317.105 114.4V118.894C319.005 116.556 321.417 114.619 324.34 113.085C327.336 111.477 331.026 110.673 335.411 110.673C339.868 110.673 343.741 111.696 347.029 113.743C350.318 115.716 352.839 118.529 354.593 122.183C356.419 125.836 357.333 130.221 357.333 135.336V166.137C357.333 166.868 357.077 167.489 356.566 168C356.054 168.512 355.433 168.768 354.702 168.768H345.056C344.326 168.768 343.704 168.512 343.193 168C342.681 167.489 342.426 166.868 342.426 166.137V135.994C342.426 131.755 341.366 128.43 339.247 126.019C337.201 123.608 334.205 122.402 330.259 122.402C326.459 122.402 323.426 123.608 321.161 126.019C318.896 128.43 317.763 131.755 317.763 135.994V166.137C317.763 166.868 317.507 167.489 316.996 168C316.484 168.512 315.863 168.768 315.132 168.768H305.487ZM387.807 169.864C384.008 169.864 380.573 169.133 377.504 167.671C374.435 166.137 371.987 164.127 370.16 161.643C368.406 159.085 367.529 156.235 367.529 153.093C367.529 147.978 369.575 143.922 373.668 140.926C377.833 137.857 383.313 135.811 390.109 134.788L405.126 132.596V130.294C405.126 127.225 404.359 124.85 402.824 123.169C401.29 121.488 398.659 120.648 394.932 120.648C392.302 120.648 390.146 121.196 388.465 122.292C386.858 123.315 385.652 124.704 384.848 126.457C384.263 127.407 383.423 127.882 382.327 127.882H373.668C372.864 127.882 372.243 127.663 371.804 127.225C371.439 126.786 371.256 126.202 371.256 125.471C371.329 124.302 371.804 122.877 372.681 121.196C373.558 119.515 374.946 117.908 376.846 116.373C378.746 114.766 381.194 113.414 384.19 112.318C387.186 111.221 390.804 110.673 395.042 110.673C399.646 110.673 403.518 111.258 406.661 112.427C409.876 113.523 412.434 115.021 414.333 116.921C416.233 118.821 417.622 121.05 418.499 123.608C419.376 126.165 419.814 128.869 419.814 131.719V166.137C419.814 166.868 419.558 167.489 419.047 168C418.535 168.512 417.914 168.768 417.183 168.768H408.305C407.501 168.768 406.843 168.512 406.332 168C405.893 167.489 405.674 166.868 405.674 166.137V161.862C404.724 163.25 403.445 164.566 401.838 165.808C400.23 166.977 398.257 167.964 395.919 168.768C393.653 169.498 390.95 169.864 387.807 169.864ZM391.534 159.451C394.092 159.451 396.394 158.903 398.44 157.806C400.559 156.71 402.203 155.03 403.372 152.764C404.615 150.426 405.236 147.503 405.236 143.995V141.693L394.275 143.447C389.963 144.105 386.748 145.165 384.629 146.626C382.51 148.088 381.45 149.878 381.45 151.997C381.45 153.605 381.925 154.993 382.875 156.162C383.898 157.258 385.177 158.099 386.711 158.683C388.246 159.195 389.854 159.451 391.534 159.451ZM436.507 168.768C435.776 168.768 435.155 168.512 434.643 168C434.132 167.489 433.876 166.868 433.876 166.137V114.4C433.876 113.669 434.132 113.048 434.643 112.537C435.155 112.025 435.776 111.77 436.507 111.77H445.495C446.226 111.77 446.847 112.025 447.358 112.537C447.87 113.048 448.126 113.669 448.126 114.4V118.894C450.026 116.556 452.437 114.619 455.36 113.085C458.356 111.477 462.046 110.673 466.431 110.673C470.888 110.673 474.761 111.696 478.05 113.743C481.338 115.716 483.859 118.529 485.613 122.183C487.44 125.836 488.353 130.221 488.353 135.336V166.137C488.353 166.868 488.097 167.489 487.586 168C487.074 168.512 486.453 168.768 485.722 168.768H476.077C475.346 168.768 474.725 168.512 474.213 168C473.702 167.489 473.446 166.868 473.446 166.137V135.994C473.446 131.755 472.386 128.43 470.267 126.019C468.221 123.608 465.225 122.402 461.279 122.402C457.479 122.402 454.447 123.608 452.181 126.019C449.916 128.43 448.783 131.755 448.783 135.994V166.137C448.783 166.868 448.527 167.489 448.016 168C447.504 168.512 446.883 168.768 446.153 168.768H436.507ZM526.939 169.864C521.678 169.864 517.037 168.877 513.018 166.904C509.072 164.931 505.967 162.081 503.701 158.354C501.509 154.555 500.303 149.987 500.084 144.653C500.011 143.557 499.974 142.132 499.974 140.378C499.974 138.551 500.011 137.053 500.084 135.884C500.303 130.55 501.509 126.019 503.701 122.292C505.967 118.492 509.072 115.606 513.018 113.633C517.037 111.66 521.678 110.673 526.939 110.673C531.616 110.673 535.598 111.331 538.887 112.646C542.175 113.962 544.879 115.606 546.998 117.579C549.117 119.552 550.688 121.635 551.711 123.827C552.807 125.946 553.392 127.882 553.465 129.636C553.538 130.44 553.282 131.098 552.698 131.609C552.186 132.048 551.565 132.267 550.834 132.267H541.188C540.458 132.267 539.873 132.084 539.435 131.719C539.069 131.353 538.704 130.805 538.339 130.075C537.242 127.152 535.781 125.106 533.954 123.936C532.2 122.694 529.935 122.073 527.158 122.073C523.504 122.073 520.581 123.242 518.389 125.581C516.27 127.846 515.137 131.463 514.991 136.432C514.845 139.209 514.845 141.767 514.991 144.105C515.137 149.147 516.27 152.801 518.389 155.066C520.581 157.331 523.504 158.464 527.158 158.464C530.008 158.464 532.31 157.879 534.064 156.71C535.817 155.468 537.242 153.385 538.339 150.462C538.704 149.732 539.069 149.184 539.435 148.818C539.873 148.453 540.458 148.27 541.188 148.27H550.834C551.565 148.27 552.186 148.526 552.698 149.037C553.282 149.476 553.538 150.097 553.465 150.901C553.392 152.216 553.026 153.714 552.369 155.395C551.784 157.003 550.798 158.683 549.409 160.437C548.094 162.118 546.413 163.689 544.367 165.15C542.321 166.539 539.837 167.671 536.914 168.548C534.064 169.425 530.739 169.864 526.939 169.864ZM589.449 169.864C581.338 169.864 574.907 167.525 570.158 162.849C565.408 158.172 562.85 151.522 562.485 142.899C562.412 142.168 562.375 141.255 562.375 140.159C562.375 138.99 562.412 138.076 562.485 137.419C562.777 131.938 564.019 127.188 566.212 123.169C568.477 119.15 571.583 116.081 575.529 113.962C579.475 111.77 584.115 110.673 589.449 110.673C595.368 110.673 600.337 111.916 604.356 114.4C608.376 116.812 611.408 120.21 613.454 124.594C615.5 128.905 616.523 133.911 616.523 139.611V141.913C616.523 142.643 616.268 143.265 615.756 143.776C615.245 144.288 614.587 144.543 613.783 144.543H577.392C577.392 144.543 577.392 144.653 577.392 144.872C577.392 145.091 577.392 145.274 577.392 145.42C577.465 147.978 577.94 150.353 578.817 152.545C579.767 154.664 581.119 156.381 582.873 157.697C584.699 159.012 586.855 159.67 589.34 159.67C591.386 159.67 593.103 159.378 594.491 158.793C595.88 158.135 597.012 157.405 597.889 156.601C598.766 155.797 599.387 155.139 599.753 154.628C600.41 153.751 600.922 153.239 601.287 153.093C601.726 152.874 602.347 152.764 603.151 152.764H612.577C613.308 152.764 613.893 152.983 614.331 153.422C614.843 153.86 615.062 154.408 614.989 155.066C614.916 156.235 614.295 157.66 613.125 159.341C612.029 161.022 610.422 162.666 608.302 164.274C606.183 165.881 603.516 167.233 600.301 168.329C597.159 169.352 593.541 169.864 589.449 169.864ZM577.392 135.336H601.616V135.007C601.616 132.157 601.141 129.673 600.191 127.554C599.241 125.434 597.853 123.754 596.026 122.511C594.199 121.269 592.007 120.648 589.449 120.648C586.892 120.648 584.699 121.269 582.873 122.511C581.046 123.754 579.657 125.434 578.707 127.554C577.83 129.673 577.392 132.157 577.392 135.007V135.336Z"
        fill="white" />
    <rect y="438.445" width="822.087" height="263.068" rx="43.8447" fill="#4CC3C7" />
    <path
        d="M340.212 607.213C339.482 607.213 338.86 606.994 338.349 606.555C337.837 606.044 337.582 605.386 337.582 604.582V533.225C337.582 532.421 337.837 531.764 338.349 531.252C338.86 530.74 339.482 530.485 340.212 530.485H350.187C350.991 530.485 351.612 530.74 352.05 531.252C352.562 531.764 352.818 532.421 352.818 533.225V561.505H385.153V533.225C385.153 532.421 385.409 531.764 385.92 531.252C386.432 530.74 387.053 530.485 387.784 530.485H397.649C398.453 530.485 399.11 530.74 399.622 531.252C400.133 531.764 400.389 532.421 400.389 533.225V604.582C400.389 605.313 400.133 605.934 399.622 606.446C399.11 606.957 398.453 607.213 397.649 607.213H387.784C387.053 607.213 386.432 606.957 385.92 606.446C385.409 605.934 385.153 605.313 385.153 604.582V575.206H352.818V604.582C352.818 605.313 352.562 605.934 352.05 606.446C351.612 606.957 350.991 607.213 350.187 607.213H340.212ZM420.066 607.213C419.335 607.213 418.714 606.957 418.203 606.446C417.691 605.934 417.435 605.313 417.435 604.582V533.225C417.435 532.421 417.691 531.764 418.203 531.252C418.714 530.74 419.335 530.485 420.066 530.485H448.455C457.297 530.485 464.276 532.531 469.391 536.623C474.507 540.715 477.064 546.671 477.064 554.49C477.064 559.897 475.712 564.391 473.009 567.972C470.378 571.553 466.834 574.147 462.376 575.754L478.379 603.705C478.599 604.144 478.708 604.546 478.708 604.911C478.708 605.569 478.453 606.117 477.941 606.555C477.503 606.994 476.991 607.213 476.406 607.213H466.432C465.19 607.213 464.24 606.884 463.582 606.226C462.924 605.569 462.413 604.911 462.047 604.253L447.907 578.275H432.671V604.582C432.671 605.313 432.416 605.934 431.904 606.446C431.466 606.957 430.845 607.213 430.041 607.213H420.066ZM432.671 565.889H448.127C452.584 565.889 455.909 564.903 458.101 562.93C460.294 560.884 461.39 558.034 461.39 554.38C461.39 550.726 460.294 547.876 458.101 545.83C455.982 543.711 452.657 542.652 448.127 542.652H432.671V565.889Z"
        fill="white" />
    <rect x="2137.43" y="438.445" width="822.087" height="263.068" rx="43.8447" fill="#4CC3C7" />
    <path
        d="M2435.9 608.309C2429.11 608.309 2423.41 607.323 2418.8 605.349C2414.27 603.303 2410.8 600.673 2408.39 597.457C2406.05 594.169 2404.81 590.735 2404.66 587.154C2404.66 586.496 2404.88 585.948 2405.32 585.51C2405.76 585.071 2406.31 584.852 2406.97 584.852H2416.72C2417.67 584.852 2418.37 585.071 2418.8 585.51C2419.32 585.875 2419.75 586.35 2420.12 586.935C2420.56 588.323 2421.4 589.712 2422.64 591.1C2423.88 592.415 2425.56 593.511 2427.68 594.388C2429.87 595.265 2432.61 595.704 2435.9 595.704C2441.16 595.704 2445.07 594.827 2447.63 593.073C2450.26 591.319 2451.58 588.944 2451.58 585.948C2451.58 583.829 2450.88 582.148 2449.49 580.906C2448.11 579.591 2445.95 578.422 2443.03 577.399C2440.18 576.302 2436.38 575.17 2431.63 574.001C2426.15 572.685 2421.54 571.114 2417.82 569.287C2414.16 567.387 2411.39 565.012 2409.49 562.162C2407.66 559.313 2406.75 555.695 2406.75 551.311C2406.75 547.073 2407.88 543.309 2410.14 540.021C2412.48 536.733 2415.77 534.138 2420.01 532.239C2424.32 530.339 2429.44 529.389 2435.35 529.389C2440.1 529.389 2444.31 530.046 2447.96 531.362C2451.61 532.604 2454.65 534.285 2457.06 536.404C2459.47 538.45 2461.3 540.679 2462.54 543.09C2463.85 545.428 2464.55 547.73 2464.62 549.996C2464.62 550.58 2464.4 551.128 2463.96 551.64C2463.6 552.078 2463.05 552.297 2462.32 552.297H2452.13C2451.54 552.297 2450.96 552.151 2450.37 551.859C2449.79 551.567 2449.31 551.019 2448.95 550.215C2448.51 547.95 2447.08 546.013 2444.67 544.405C2442.26 542.798 2439.15 541.994 2435.35 541.994C2431.41 541.994 2428.23 542.725 2425.82 544.186C2423.41 545.648 2422.2 547.913 2422.2 550.982C2422.2 553.028 2422.79 554.745 2423.96 556.134C2425.2 557.449 2427.13 558.618 2429.76 559.641C2432.47 560.664 2436.01 561.761 2440.4 562.93C2446.61 564.318 2451.69 565.926 2455.63 567.753C2459.58 569.58 2462.47 571.918 2464.29 574.768C2466.12 577.545 2467.03 581.089 2467.03 585.4C2467.03 590.223 2465.72 594.352 2463.09 597.786C2460.53 601.148 2456.91 603.742 2452.24 605.569C2447.56 607.396 2442.11 608.309 2435.9 608.309ZM2494.83 608.309C2491.03 608.309 2487.6 607.578 2484.53 606.117C2481.46 604.582 2479.01 602.573 2477.18 600.088C2475.43 597.531 2474.55 594.681 2474.55 591.538C2474.55 586.423 2476.6 582.368 2480.69 579.372C2484.86 576.302 2490.34 574.256 2497.13 573.233L2512.15 571.041V568.739C2512.15 565.67 2511.38 563.295 2509.85 561.614C2508.31 559.934 2505.68 559.093 2501.96 559.093C2499.32 559.093 2497.17 559.641 2495.49 560.738C2493.88 561.761 2492.67 563.149 2491.87 564.903C2491.29 565.853 2490.45 566.328 2489.35 566.328H2480.69C2479.89 566.328 2479.27 566.109 2478.83 565.67C2478.46 565.232 2478.28 564.647 2478.28 563.916C2478.35 562.747 2478.83 561.322 2479.7 559.641C2480.58 557.961 2481.97 556.353 2483.87 554.819C2485.77 553.211 2488.22 551.859 2491.21 550.763C2494.21 549.667 2497.83 549.119 2502.06 549.119C2506.67 549.119 2510.54 549.703 2513.68 550.872C2516.9 551.969 2519.46 553.467 2521.36 555.367C2523.26 557.267 2524.64 559.495 2525.52 562.053C2526.4 564.61 2526.84 567.314 2526.84 570.164V604.582C2526.84 605.313 2526.58 605.934 2526.07 606.446C2525.56 606.957 2524.94 607.213 2524.21 607.213H2515.33C2514.52 607.213 2513.87 606.957 2513.35 606.446C2512.92 605.934 2512.7 605.313 2512.7 604.582V600.307C2511.75 601.696 2510.47 603.011 2508.86 604.253C2507.25 605.423 2505.28 606.409 2502.94 607.213C2500.68 607.944 2497.97 608.309 2494.83 608.309ZM2498.56 597.896C2501.11 597.896 2503.42 597.348 2505.46 596.252C2507.58 595.156 2509.23 593.475 2510.4 591.21C2511.64 588.871 2512.26 585.948 2512.26 582.441V580.139L2501.3 581.893C2496.99 582.55 2493.77 583.61 2491.65 585.071C2489.53 586.533 2488.47 588.323 2488.47 590.442C2488.47 592.05 2488.95 593.438 2489.9 594.608C2490.92 595.704 2492.2 596.544 2493.73 597.129C2495.27 597.64 2496.88 597.896 2498.56 597.896ZM2543.64 607.213C2542.91 607.213 2542.29 606.957 2541.78 606.446C2541.26 605.934 2541.01 605.313 2541.01 604.582V532.019C2541.01 531.289 2541.26 530.667 2541.78 530.156C2542.29 529.644 2542.91 529.389 2543.64 529.389H2552.74C2553.47 529.389 2554.09 529.644 2554.6 530.156C2555.11 530.667 2555.37 531.289 2555.37 532.019V604.582C2555.37 605.313 2555.11 605.934 2554.6 606.446C2554.09 606.957 2553.47 607.213 2552.74 607.213H2543.64ZM2594.46 608.309C2586.35 608.309 2579.92 605.971 2575.17 601.294C2570.42 596.617 2567.86 589.967 2567.5 581.345C2567.42 580.614 2567.39 579.7 2567.39 578.604C2567.39 577.435 2567.42 576.522 2567.5 575.864C2567.79 570.383 2569.03 565.634 2571.22 561.614C2573.49 557.595 2576.59 554.526 2580.54 552.407C2584.49 550.215 2589.13 549.119 2594.46 549.119C2600.38 549.119 2605.35 550.361 2609.37 552.846C2613.39 555.257 2616.42 558.655 2618.47 563.039C2620.51 567.351 2621.53 572.356 2621.53 578.056V580.358C2621.53 581.089 2621.28 581.71 2620.77 582.221C2620.26 582.733 2619.6 582.989 2618.79 582.989H2582.4C2582.4 582.989 2582.4 583.098 2582.4 583.318C2582.4 583.537 2582.4 583.719 2582.4 583.866C2582.48 586.423 2582.95 588.798 2583.83 590.99C2584.78 593.11 2586.13 594.827 2587.88 596.142C2589.71 597.457 2591.87 598.115 2594.35 598.115C2596.4 598.115 2598.11 597.823 2599.5 597.238C2600.89 596.581 2602.02 595.85 2602.9 595.046C2603.78 594.242 2604.4 593.585 2604.76 593.073C2605.42 592.196 2605.93 591.685 2606.3 591.538C2606.74 591.319 2607.36 591.21 2608.16 591.21H2617.59C2618.32 591.21 2618.9 591.429 2619.34 591.867C2619.85 592.306 2620.07 592.854 2620 593.511C2619.93 594.681 2619.31 596.106 2618.14 597.786C2617.04 599.467 2615.43 601.111 2613.31 602.719C2611.19 604.326 2608.53 605.678 2605.31 606.774C2602.17 607.797 2598.55 608.309 2594.46 608.309ZM2582.4 573.781H2606.63V573.452C2606.63 570.603 2606.15 568.118 2605.2 565.999C2604.25 563.88 2602.86 562.199 2601.04 560.957C2599.21 559.715 2597.02 559.093 2594.46 559.093C2591.9 559.093 2589.71 559.715 2587.88 560.957C2586.06 562.199 2584.67 563.88 2583.72 565.999C2582.84 568.118 2582.4 570.603 2582.4 573.452V573.781ZM2654.76 608.309C2650.38 608.309 2646.62 607.797 2643.47 606.774C2640.4 605.751 2637.88 604.473 2635.91 602.938C2633.94 601.403 2632.48 599.869 2631.53 598.334C2630.58 596.8 2630.06 595.521 2629.99 594.498C2629.92 593.694 2630.14 593.073 2630.65 592.635C2631.23 592.123 2631.85 591.867 2632.51 591.867H2641.17C2641.46 591.867 2641.72 591.904 2641.94 591.977C2642.16 592.05 2642.45 592.269 2642.82 592.635C2643.77 593.438 2644.75 594.279 2645.78 595.156C2646.87 596.033 2648.15 596.8 2649.61 597.457C2651.07 598.042 2652.9 598.334 2655.09 598.334C2657.94 598.334 2660.32 597.786 2662.22 596.69C2664.19 595.521 2665.18 593.877 2665.18 591.758C2665.18 590.223 2664.74 588.981 2663.86 588.031C2663.06 587.081 2661.52 586.241 2659.26 585.51C2656.99 584.706 2653.78 583.866 2649.61 582.989C2645.52 582.039 2642.12 580.833 2639.42 579.372C2636.71 577.91 2634.7 576.083 2633.39 573.891C2632.07 571.699 2631.42 569.141 2631.42 566.218C2631.42 563.368 2632.26 560.664 2633.94 558.107C2635.69 555.476 2638.25 553.32 2641.61 551.64C2645.04 549.959 2649.28 549.119 2654.32 549.119C2658.27 549.119 2661.71 549.63 2664.63 550.653C2667.55 551.603 2669.96 552.809 2671.86 554.27C2673.84 555.732 2675.33 557.23 2676.36 558.765C2677.38 560.226 2677.93 561.505 2678 562.601C2678.07 563.405 2677.85 564.062 2677.34 564.574C2676.83 565.012 2676.25 565.232 2675.59 565.232H2667.48C2667.11 565.232 2666.78 565.159 2666.49 565.012C2666.2 564.866 2665.91 564.684 2665.61 564.464C2664.81 563.734 2663.93 562.966 2662.98 562.162C2662.03 561.359 2660.86 560.664 2659.48 560.08C2658.16 559.422 2656.41 559.093 2654.22 559.093C2651.44 559.093 2649.32 559.715 2647.86 560.957C2646.4 562.126 2645.67 563.624 2645.67 565.451C2645.67 566.693 2645.99 567.789 2646.65 568.739C2647.38 569.616 2648.81 570.456 2650.93 571.26C2653.05 572.064 2656.26 572.904 2660.57 573.781C2665.47 574.658 2669.34 575.974 2672.19 577.727C2675.11 579.408 2677.16 581.381 2678.33 583.646C2679.57 585.839 2680.19 588.287 2680.19 590.99C2680.19 594.279 2679.21 597.238 2677.23 599.869C2675.33 602.5 2672.48 604.582 2668.68 606.117C2664.96 607.578 2660.32 608.309 2654.76 608.309Z"
        fill="white" />
    <rect x="2137.43" width="822.087" height="263.068" rx="43.8447" fill="#4CC3C7" />
    <path
        d="M2291.27 168.768C2290.46 168.768 2289.8 168.512 2289.29 168C2288.78 167.489 2288.53 166.868 2288.53 166.137V94.7797C2288.53 93.9759 2288.78 93.3182 2289.29 92.8067C2289.8 92.2952 2290.46 92.0394 2291.27 92.0394H2299.92C2300.95 92.0394 2301.72 92.3317 2302.23 92.9163C2302.74 93.4278 2303.07 93.8297 2303.21 94.122L2324.37 133.582L2345.74 94.122C2345.89 93.8297 2346.22 93.4278 2346.73 92.9163C2347.24 92.3317 2348.01 92.0394 2349.03 92.0394H2357.58C2358.38 92.0394 2359.04 92.2952 2359.55 92.8067C2360.07 93.3182 2360.32 93.9759 2360.32 94.7797V166.137C2360.32 166.868 2360.07 167.489 2359.55 168C2359.04 168.512 2358.38 168.768 2357.58 168.768H2348.37C2347.57 168.768 2346.91 168.512 2346.4 168C2345.96 167.489 2345.74 166.868 2345.74 166.137V118.675L2330.4 147.941C2330.03 148.599 2329.56 149.184 2328.97 149.695C2328.39 150.134 2327.62 150.353 2326.67 150.353H2322.18C2321.15 150.353 2320.35 150.134 2319.76 149.695C2319.25 149.184 2318.81 148.599 2318.45 147.941L2303.1 118.675V166.137C2303.1 166.868 2302.85 167.489 2302.34 168C2301.82 168.512 2301.2 168.768 2300.47 168.768H2291.27ZM2392.61 169.864C2388.81 169.864 2385.37 169.133 2382.3 167.671C2379.23 166.137 2376.79 164.127 2374.96 161.643C2373.21 159.085 2372.33 156.235 2372.33 153.093C2372.33 147.978 2374.37 143.922 2378.47 140.926C2382.63 137.857 2388.11 135.811 2394.91 134.788L2409.93 132.596V130.294C2409.93 127.225 2409.16 124.85 2407.62 123.169C2406.09 121.488 2403.46 120.648 2399.73 120.648C2397.1 120.648 2394.94 121.196 2393.26 122.292C2391.66 123.315 2390.45 124.704 2389.65 126.457C2389.06 127.407 2388.22 127.882 2387.13 127.882H2378.47C2377.66 127.882 2377.04 127.663 2376.6 127.225C2376.24 126.786 2376.06 126.202 2376.06 125.471C2376.13 124.302 2376.6 122.877 2377.48 121.196C2378.36 119.515 2379.75 117.908 2381.65 116.373C2383.55 114.766 2385.99 113.414 2388.99 112.318C2391.99 111.221 2395.6 110.673 2399.84 110.673C2404.44 110.673 2408.32 111.258 2411.46 112.427C2414.68 113.523 2417.23 115.021 2419.13 116.921C2421.03 118.821 2422.42 121.05 2423.3 123.608C2424.17 126.165 2424.61 128.869 2424.61 131.719V166.137C2424.61 166.868 2424.36 167.489 2423.85 168C2423.33 168.512 2422.71 168.768 2421.98 168.768H2413.1C2412.3 168.768 2411.64 168.512 2411.13 168C2410.69 167.489 2410.47 166.868 2410.47 166.137V161.862C2409.52 163.25 2408.24 164.566 2406.64 165.808C2405.03 166.977 2403.06 167.964 2400.72 168.768C2398.45 169.498 2395.75 169.864 2392.61 169.864ZM2396.33 159.451C2398.89 159.451 2401.19 158.903 2403.24 157.806C2405.36 156.71 2407 155.03 2408.17 152.764C2409.41 150.426 2410.03 147.503 2410.03 143.995V141.693L2399.07 143.447C2394.76 144.105 2391.55 145.165 2389.43 146.626C2387.31 148.088 2386.25 149.878 2386.25 151.997C2386.25 153.605 2386.72 154.993 2387.67 156.162C2388.7 157.258 2389.98 158.099 2391.51 158.683C2393.04 159.195 2394.65 159.451 2396.33 159.451ZM2441.31 168.768C2440.58 168.768 2439.95 168.512 2439.44 168C2438.93 167.489 2438.68 166.868 2438.68 166.137V114.51C2438.68 113.706 2438.93 113.048 2439.44 112.537C2439.95 112.025 2440.58 111.77 2441.31 111.77H2450.18C2450.92 111.77 2451.54 112.025 2452.05 112.537C2452.63 113.048 2452.92 113.706 2452.92 114.51V119.004C2454.61 116.666 2456.76 114.875 2459.39 113.633C2462.1 112.391 2465.2 111.77 2468.71 111.77H2473.2C2474.01 111.77 2474.63 112.025 2475.07 112.537C2475.58 113.048 2475.83 113.669 2475.83 114.4V122.292C2475.83 123.023 2475.58 123.644 2475.07 124.156C2474.63 124.667 2474.01 124.923 2473.2 124.923H2464.65C2461.15 124.923 2458.41 125.909 2456.43 127.882C2454.53 129.855 2453.58 132.559 2453.58 135.994V166.137C2453.58 166.868 2453.33 167.489 2452.82 168C2452.3 168.512 2451.65 168.768 2450.84 168.768H2441.31ZM2487.12 168.768C2486.39 168.768 2485.77 168.512 2485.26 168C2484.75 167.489 2484.49 166.868 2484.49 166.137V93.574C2484.49 92.8432 2484.75 92.2221 2485.26 91.7106C2485.77 91.1991 2486.39 90.9433 2487.12 90.9433H2496C2496.8 90.9433 2497.43 91.1991 2497.86 91.7106C2498.38 92.2221 2498.63 92.8432 2498.63 93.574V131.061L2517.05 113.633C2517.7 113.048 2518.29 112.61 2518.8 112.318C2519.31 111.952 2520.08 111.77 2521.1 111.77H2531.3C2532.03 111.77 2532.61 111.989 2533.05 112.427C2533.49 112.866 2533.71 113.45 2533.71 114.181C2533.71 114.473 2533.63 114.802 2533.49 115.167C2533.34 115.533 2533.05 115.862 2532.61 116.154L2510.03 137.309L2535.35 164.493C2536.08 165.223 2536.45 165.845 2536.45 166.356C2536.45 167.087 2536.19 167.671 2535.68 168.11C2535.24 168.548 2534.69 168.768 2534.04 168.768H2523.62C2522.53 168.768 2521.72 168.621 2521.21 168.329C2520.77 167.964 2520.23 167.489 2519.57 166.904L2498.63 144.872V166.137C2498.63 166.868 2498.38 167.489 2497.86 168C2497.43 168.512 2496.8 168.768 2496 168.768H2487.12ZM2566.52 169.864C2558.41 169.864 2551.98 167.525 2547.23 162.849C2542.48 158.172 2539.93 151.522 2539.56 142.899C2539.49 142.168 2539.45 141.255 2539.45 140.159C2539.45 138.99 2539.49 138.076 2539.56 137.419C2539.85 131.938 2541.09 127.188 2543.29 123.169C2545.55 119.15 2548.66 116.081 2552.6 113.962C2556.55 111.77 2561.19 110.673 2566.52 110.673C2572.44 110.673 2577.41 111.916 2581.43 114.4C2585.45 116.812 2588.48 120.21 2590.53 124.594C2592.58 128.905 2593.6 133.911 2593.6 139.611V141.913C2593.6 142.643 2593.34 143.265 2592.83 143.776C2592.32 144.288 2591.66 144.543 2590.86 144.543H2554.47C2554.47 144.543 2554.47 144.653 2554.47 144.872C2554.47 145.091 2554.47 145.274 2554.47 145.42C2554.54 147.978 2555.02 150.353 2555.89 152.545C2556.84 154.664 2558.19 156.381 2559.95 157.697C2561.77 159.012 2563.93 159.67 2566.41 159.67C2568.46 159.67 2570.18 159.378 2571.57 158.793C2572.95 158.135 2574.09 157.405 2574.96 156.601C2575.84 155.797 2576.46 155.139 2576.83 154.628C2577.49 153.751 2578 153.239 2578.36 153.093C2578.8 152.874 2579.42 152.764 2580.23 152.764H2589.65C2590.38 152.764 2590.97 152.983 2591.41 153.422C2591.92 153.86 2592.14 154.408 2592.06 155.066C2591.99 156.235 2591.37 157.66 2590.2 159.341C2589.1 161.022 2587.5 162.666 2585.38 164.274C2583.26 165.881 2580.59 167.233 2577.38 168.329C2574.23 169.352 2570.62 169.864 2566.52 169.864ZM2554.47 135.336H2578.69V135.007C2578.69 132.157 2578.22 129.673 2577.27 127.554C2576.32 125.434 2574.93 123.754 2573.1 122.511C2571.27 121.269 2569.08 120.648 2566.52 120.648C2563.97 120.648 2561.77 121.269 2559.95 122.511C2558.12 123.754 2556.73 125.434 2555.78 127.554C2554.91 129.673 2554.47 132.157 2554.47 135.007V135.336ZM2630.78 168.768C2626.39 168.768 2622.7 168 2619.71 166.466C2616.71 164.931 2614.48 162.666 2613.02 159.67C2611.56 156.601 2610.83 152.801 2610.83 148.27V123.388H2602.17C2601.44 123.388 2600.82 123.133 2600.31 122.621C2599.79 122.11 2599.54 121.488 2599.54 120.758V114.4C2599.54 113.669 2599.79 113.048 2600.31 112.537C2600.82 112.025 2601.44 111.77 2602.17 111.77H2610.83V93.574C2610.83 92.8432 2611.05 92.2221 2611.49 91.7106C2612 91.1991 2612.66 90.9433 2613.46 90.9433H2622.34C2623.07 90.9433 2623.69 91.1991 2624.2 91.7106C2624.71 92.2221 2624.97 92.8432 2624.97 93.574V111.77H2638.67C2639.4 111.77 2640.02 112.025 2640.53 112.537C2641.05 113.048 2641.3 113.669 2641.3 114.4V120.758C2641.3 121.488 2641.05 122.11 2640.53 122.621C2640.02 123.133 2639.4 123.388 2638.67 123.388H2624.97V147.174C2624.97 150.17 2625.48 152.509 2626.5 154.189C2627.6 155.87 2629.46 156.71 2632.09 156.71H2639.66C2640.39 156.71 2641.01 156.966 2641.52 157.478C2642.03 157.989 2642.29 158.61 2642.29 159.341V166.137C2642.29 166.868 2642.03 167.489 2641.52 168C2641.01 168.512 2640.39 168.768 2639.66 168.768H2630.78ZM2654.64 168.768C2653.91 168.768 2653.29 168.512 2652.78 168C2652.27 167.489 2652.01 166.868 2652.01 166.137V114.4C2652.01 113.669 2652.27 113.048 2652.78 112.537C2653.29 112.025 2653.91 111.77 2654.64 111.77H2663.74C2664.54 111.77 2665.16 112.025 2665.6 112.537C2666.11 113.048 2666.37 113.669 2666.37 114.4V166.137C2666.37 166.868 2666.11 167.489 2665.6 168C2665.16 168.512 2664.54 168.768 2663.74 168.768H2654.64ZM2654.2 102.343C2653.4 102.343 2652.74 102.124 2652.23 101.685C2651.79 101.174 2651.57 100.516 2651.57 99.7122V91.8202C2651.57 91.0894 2651.79 90.4683 2652.23 89.9568C2652.74 89.4453 2653.4 89.1895 2654.2 89.1895H2664.18C2664.98 89.1895 2665.64 89.4453 2666.15 89.9568C2666.66 90.4683 2666.92 91.0894 2666.92 91.8202V99.7122C2666.92 100.516 2666.66 101.174 2666.15 101.685C2665.64 102.124 2664.98 102.343 2664.18 102.343H2654.2ZM2685.79 168.768C2685.06 168.768 2684.44 168.512 2683.93 168C2683.42 167.489 2683.16 166.868 2683.16 166.137V114.4C2683.16 113.669 2683.42 113.048 2683.93 112.537C2684.44 112.025 2685.06 111.77 2685.79 111.77H2694.78C2695.51 111.77 2696.13 112.025 2696.64 112.537C2697.15 113.048 2697.41 113.669 2697.41 114.4V118.894C2699.31 116.556 2701.72 114.619 2704.64 113.085C2707.64 111.477 2711.33 110.673 2715.72 110.673C2720.17 110.673 2724.05 111.696 2727.33 113.743C2730.62 115.716 2733.14 118.529 2734.9 122.183C2736.72 125.836 2737.64 130.221 2737.64 135.336V166.137C2737.64 166.868 2737.38 167.489 2736.87 168C2736.36 168.512 2735.74 168.768 2735.01 168.768H2725.36C2724.63 168.768 2724.01 168.512 2723.5 168C2722.99 167.489 2722.73 166.868 2722.73 166.137V135.994C2722.73 131.755 2721.67 128.43 2719.55 126.019C2717.51 123.608 2714.51 122.402 2710.56 122.402C2706.76 122.402 2703.73 123.608 2701.47 126.019C2699.2 128.43 2698.07 131.755 2698.07 135.994V166.137C2698.07 166.868 2697.81 167.489 2697.3 168C2696.79 168.512 2696.17 168.768 2695.44 168.768H2685.79ZM2777.32 192.882C2771.99 192.882 2767.6 192.188 2764.17 190.8C2760.73 189.411 2758.03 187.73 2756.05 185.757C2754.08 183.784 2752.66 181.811 2751.78 179.838C2750.98 177.938 2750.54 176.44 2750.46 175.344C2750.39 174.614 2750.61 173.956 2751.12 173.371C2751.71 172.86 2752.36 172.604 2753.1 172.604H2762.63C2763.36 172.604 2763.95 172.75 2764.39 173.042C2764.82 173.408 2765.19 174.029 2765.48 174.906C2765.92 175.856 2766.5 176.879 2767.24 177.975C2767.97 179.071 2769.06 179.985 2770.52 180.715C2772.06 181.519 2774.14 181.921 2776.77 181.921C2779.55 181.921 2781.89 181.519 2783.79 180.715C2785.69 179.911 2787.11 178.56 2788.06 176.66C2789.08 174.76 2789.6 172.129 2789.6 168.768V161.314C2787.84 163.433 2785.58 165.15 2782.8 166.466C2780.1 167.781 2776.73 168.439 2772.72 168.439C2768.77 168.439 2765.37 167.818 2762.52 166.575C2759.67 165.26 2757.3 163.47 2755.4 161.204C2753.5 158.866 2752.04 156.126 2751.01 152.983C2750.06 149.841 2749.51 146.37 2749.37 142.57C2749.3 140.597 2749.3 138.624 2749.37 136.651C2749.51 132.998 2750.06 129.6 2751.01 126.457C2751.96 123.315 2753.39 120.575 2755.29 118.237C2757.26 115.825 2759.67 113.962 2762.52 112.646C2765.37 111.331 2768.77 110.673 2772.72 110.673C2776.88 110.673 2780.39 111.477 2783.24 113.085C2786.09 114.619 2788.43 116.556 2790.25 118.894V114.51C2790.25 113.706 2790.51 113.048 2791.02 112.537C2791.53 112.025 2792.15 111.77 2792.88 111.77H2801.76C2802.49 111.77 2803.11 112.025 2803.63 112.537C2804.14 113.048 2804.39 113.706 2804.39 114.51L2804.5 167.343C2804.5 172.604 2803.52 177.135 2801.54 180.934C2799.57 184.734 2796.57 187.657 2792.56 189.703C2788.61 191.823 2783.53 192.882 2777.32 192.882ZM2776.77 156.82C2779.77 156.82 2782.18 156.162 2784.01 154.847C2785.83 153.532 2787.18 151.814 2788.06 149.695C2788.94 147.576 2789.45 145.42 2789.6 143.228C2789.67 142.278 2789.71 141.072 2789.71 139.611C2789.71 138.149 2789.67 136.98 2789.6 136.103C2789.45 133.838 2788.94 131.682 2788.06 129.636C2787.18 127.517 2785.83 125.8 2784.01 124.484C2782.18 123.096 2779.77 122.402 2776.77 122.402C2773.78 122.402 2771.36 123.096 2769.54 124.484C2767.71 125.8 2766.39 127.554 2765.59 129.746C2764.86 131.938 2764.42 134.35 2764.28 136.98C2764.13 138.734 2764.13 140.524 2764.28 142.351C2764.42 144.909 2764.86 147.32 2765.59 149.586C2766.39 151.778 2767.71 153.532 2769.54 154.847C2771.36 156.162 2773.78 156.82 2776.77 156.82Z"
        fill="white" />
    <rect y="865.932" width="822.087" height="263.068" rx="43.8447" fill="#4CC3C7" />
    <path
        d="M313.49 1034.7C312.759 1034.7 312.138 1034.44 311.626 1033.93C311.115 1033.42 310.859 1032.8 310.859 1032.07V971.453H290.581C289.85 971.453 289.229 971.198 288.718 970.686C288.206 970.174 287.95 969.553 287.95 968.823V960.711C287.95 959.908 288.206 959.25 288.718 958.738C289.229 958.227 289.85 957.971 290.581 957.971H346.483C347.287 957.971 347.944 958.227 348.456 958.738C348.967 959.25 349.223 959.908 349.223 960.711V968.823C349.223 969.553 348.967 970.174 348.456 970.686C347.944 971.198 347.287 971.453 346.483 971.453H326.314V1032.07C326.314 1032.8 326.059 1033.42 325.547 1033.93C325.036 1034.44 324.378 1034.7 323.574 1034.7H313.49ZM373.521 1035.8C365.41 1035.8 358.979 1033.46 354.229 1028.78C349.48 1024.1 346.922 1017.45 346.557 1008.83C346.483 1008.1 346.447 1007.19 346.447 1006.09C346.447 1004.92 346.483 1004.01 346.557 1003.35C346.849 997.87 348.091 993.12 350.283 989.101C352.549 985.082 355.654 982.013 359.6 979.893C363.546 977.701 368.187 976.605 373.521 976.605C379.44 976.605 384.409 977.847 388.428 980.332C392.447 982.743 395.48 986.141 397.526 990.526C399.572 994.837 400.595 999.843 400.595 1005.54V1007.84C400.595 1008.58 400.339 1009.2 399.828 1009.71C399.316 1010.22 398.659 1010.48 397.855 1010.48H361.464C361.464 1010.48 361.464 1010.58 361.464 1010.8C361.464 1011.02 361.464 1011.21 361.464 1011.35C361.537 1013.91 362.012 1016.28 362.889 1018.48C363.839 1020.6 365.191 1022.31 366.944 1023.63C368.771 1024.94 370.927 1025.6 373.411 1025.6C375.458 1025.6 377.175 1025.31 378.563 1024.72C379.952 1024.07 381.084 1023.34 381.961 1022.53C382.838 1021.73 383.459 1021.07 383.825 1020.56C384.482 1019.68 384.994 1019.17 385.359 1019.02C385.798 1018.81 386.419 1018.7 387.222 1018.7H396.649C397.38 1018.7 397.964 1018.92 398.403 1019.35C398.914 1019.79 399.134 1020.34 399.061 1021C398.987 1022.17 398.366 1023.59 397.197 1025.27C396.101 1026.95 394.493 1028.6 392.374 1030.21C390.255 1031.81 387.588 1033.16 384.373 1034.26C381.23 1035.28 377.613 1035.8 373.521 1035.8ZM361.464 1001.27H385.688V1000.94C385.688 998.089 385.213 995.604 384.263 993.485C383.313 991.366 381.925 989.685 380.098 988.443C378.271 987.201 376.079 986.58 373.521 986.58C370.963 986.58 368.771 987.201 366.944 988.443C365.117 989.685 363.729 991.366 362.779 993.485C361.902 995.604 361.464 998.089 361.464 1000.94V1001.27ZM436.893 1035.8C431.631 1035.8 426.991 1034.81 422.972 1032.84C419.026 1030.86 415.92 1028.01 413.655 1024.29C411.463 1020.49 410.257 1015.92 410.038 1010.58C409.965 1009.49 409.928 1008.06 409.928 1006.31C409.928 1004.48 409.965 1002.98 410.038 1001.82C410.257 996.481 411.463 991.951 413.655 988.224C415.92 984.424 419.026 981.538 422.972 979.565C426.991 977.592 431.631 976.605 436.893 976.605C441.57 976.605 445.552 977.263 448.841 978.578C452.129 979.893 454.833 981.538 456.952 983.511C459.071 985.484 460.642 987.566 461.665 989.758C462.761 991.878 463.346 993.814 463.419 995.568C463.492 996.372 463.236 997.029 462.652 997.541C462.14 997.979 461.519 998.199 460.788 998.199H451.142C450.412 998.199 449.827 998.016 449.389 997.65C449.023 997.285 448.658 996.737 448.292 996.006C447.196 993.083 445.735 991.037 443.908 989.868C442.154 988.626 439.889 988.005 437.112 988.005C433.458 988.005 430.535 989.174 428.343 991.512C426.224 993.778 425.091 997.395 424.945 1002.36C424.799 1005.14 424.799 1007.7 424.945 1010.04C425.091 1015.08 426.224 1018.73 428.343 1021C430.535 1023.26 433.458 1024.4 437.112 1024.4C439.962 1024.4 442.264 1023.81 444.018 1022.64C445.771 1021.4 447.196 1019.32 448.292 1016.39C448.658 1015.66 449.023 1015.12 449.389 1014.75C449.827 1014.38 450.412 1014.2 451.142 1014.2H460.788C461.519 1014.2 462.14 1014.46 462.652 1014.97C463.236 1015.41 463.492 1016.03 463.419 1016.83C463.346 1018.15 462.98 1019.65 462.323 1021.33C461.738 1022.93 460.752 1024.61 459.363 1026.37C458.048 1028.05 456.367 1029.62 454.321 1031.08C452.275 1032.47 449.79 1033.6 446.868 1034.48C444.018 1035.36 440.693 1035.8 436.893 1035.8ZM477.59 1034.7C476.86 1034.7 476.239 1034.44 475.727 1033.93C475.216 1033.42 474.96 1032.8 474.96 1032.07V959.506C474.96 958.775 475.216 958.154 475.727 957.642C476.239 957.131 476.86 956.875 477.59 956.875H487.346C488.15 956.875 488.771 957.131 489.209 957.642C489.721 958.154 489.977 958.775 489.977 959.506V984.497C491.95 982.159 494.361 980.259 497.211 978.797C500.061 977.336 503.568 976.605 507.734 976.605C512.191 976.605 516.064 977.628 519.352 979.674C522.714 981.647 525.308 984.461 527.135 988.114C528.962 991.768 529.875 996.152 529.875 1001.27V1032.07C529.875 1032.8 529.619 1033.42 529.108 1033.93C528.596 1034.44 527.975 1034.7 527.245 1034.7H517.379C516.649 1034.7 516.028 1034.44 515.516 1033.93C515.005 1033.42 514.749 1032.8 514.749 1032.07V1001.93C514.749 997.687 513.689 994.362 511.57 991.951C509.524 989.539 506.528 988.333 502.582 988.333C498.782 988.333 495.713 989.539 493.375 991.951C491.109 994.362 489.977 997.687 489.977 1001.93V1032.07C489.977 1032.8 489.721 1033.42 489.209 1033.93C488.771 1034.44 488.15 1034.7 487.346 1034.7H477.59Z"
        fill="white" />
    <rect x="2142.91" y="871.412" width="811.126" height="252.107" rx="38.3641" stroke="#4CC3C7" stroke-width="10.9612"
        stroke-dasharray="21.92 21.92" />
    <path
        d="M2299.73 1031.08C2299 1031.08 2298.38 1030.83 2297.87 1030.31C2297.35 1029.8 2297.1 1029.18 2297.1 1028.45V1007.08H2276.05C2275.32 1007.08 2274.7 1006.82 2274.19 1006.31C2273.68 1005.8 2273.42 1005.18 2273.42 1004.45V998.637C2273.42 997.833 2273.68 997.212 2274.19 996.774C2274.7 996.262 2275.32 996.006 2276.05 996.006H2297.1V975.18C2297.1 974.449 2297.35 973.828 2297.87 973.317C2298.38 972.805 2299 972.549 2299.73 972.549H2306.09C2306.89 972.549 2307.51 972.805 2307.95 973.317C2308.46 973.828 2308.72 974.449 2308.72 975.18V996.006H2329.76C2330.49 996.006 2331.11 996.262 2331.63 996.774C2332.14 997.212 2332.39 997.833 2332.39 998.637V1004.45C2332.39 1005.18 2332.14 1005.8 2331.63 1006.31C2331.11 1006.82 2330.49 1007.08 2329.76 1007.08H2308.72V1028.45C2308.72 1029.18 2308.46 1029.8 2307.95 1030.31C2307.51 1030.83 2306.89 1031.08 2306.09 1031.08H2299.73ZM2362.58 1034.7C2362 1034.7 2361.45 1034.48 2360.94 1034.04C2360.5 1033.6 2360.28 1033.06 2360.28 1032.4C2360.28 1032.11 2360.35 1031.78 2360.5 1031.41L2386.91 960.711C2387.13 959.981 2387.54 959.359 2388.12 958.848C2388.78 958.263 2389.65 957.971 2390.75 957.971H2402.7C2403.79 957.971 2404.64 958.263 2405.22 958.848C2405.8 959.359 2406.24 959.981 2406.54 960.711L2432.95 1031.41C2433.02 1031.78 2433.06 1032.11 2433.06 1032.4C2433.06 1033.06 2432.84 1033.6 2432.4 1034.04C2431.96 1034.48 2431.45 1034.7 2430.87 1034.7H2421.33C2420.31 1034.7 2419.54 1034.48 2419.03 1034.04C2418.59 1033.53 2418.3 1033.06 2418.15 1032.62L2413 1019.24H2380.45L2375.3 1032.62C2375.15 1033.06 2374.82 1033.53 2374.31 1034.04C2373.87 1034.48 2373.14 1034.7 2372.12 1034.7H2362.58ZM2384.28 1006.64H2409.17L2396.67 972.769L2384.28 1006.64ZM2462.49 1035.8C2458.69 1035.8 2455.33 1035.17 2452.41 1033.93C2449.56 1032.62 2447.18 1030.79 2445.28 1028.45C2443.38 1026.11 2441.92 1023.37 2440.9 1020.23C2439.88 1017.02 2439.29 1013.51 2439.14 1009.71C2439.07 1008.39 2439.03 1007.22 2439.03 1006.2C2439.03 1005.1 2439.07 1003.9 2439.14 1002.58C2439.29 998.929 2439.84 995.531 2440.79 992.389C2441.81 989.247 2443.27 986.507 2445.17 984.168C2447.15 981.757 2449.56 979.893 2452.41 978.578C2455.33 977.263 2458.69 976.605 2462.49 976.605C2466.44 976.605 2469.76 977.299 2472.47 978.688C2475.24 980.003 2477.55 981.72 2479.37 983.839V959.506C2479.37 958.775 2479.59 958.154 2480.03 957.642C2480.54 957.131 2481.2 956.875 2482 956.875H2491.32C2492.05 956.875 2492.67 957.131 2493.18 957.642C2493.69 958.154 2493.95 958.775 2493.95 959.506V1032.07C2493.95 1032.8 2493.69 1033.42 2493.18 1033.93C2492.67 1034.44 2492.05 1034.7 2491.32 1034.7H2482.66C2481.86 1034.7 2481.2 1034.44 2480.69 1033.93C2480.25 1033.42 2480.03 1032.8 2480.03 1032.07V1028.01C2478.2 1030.28 2475.86 1032.14 2473.01 1033.6C2470.24 1035.06 2466.73 1035.8 2462.49 1035.8ZM2466.55 1024.07C2469.62 1024.07 2472.06 1023.37 2473.89 1021.98C2475.72 1020.6 2477.07 1018.84 2477.95 1016.72C2478.82 1014.53 2479.3 1012.3 2479.37 1010.04C2479.45 1008.72 2479.48 1007.33 2479.48 1005.87C2479.48 1004.34 2479.45 1002.91 2479.37 1001.6C2479.3 999.404 2478.79 997.322 2477.84 995.349C2476.89 993.303 2475.5 991.622 2473.67 990.306C2471.85 988.991 2469.47 988.333 2466.55 988.333C2463.48 988.333 2461.03 989.028 2459.2 990.416C2457.45 991.731 2456.17 993.485 2455.37 995.677C2454.56 997.87 2454.09 1000.28 2453.94 1002.91C2453.87 1005.1 2453.87 1007.3 2453.94 1009.49C2454.09 1012.12 2454.56 1014.53 2455.37 1016.72C2456.17 1018.92 2457.45 1020.71 2459.2 1022.09C2461.03 1023.41 2463.48 1024.07 2466.55 1024.07ZM2529.71 1035.8C2525.91 1035.8 2522.55 1035.17 2519.63 1033.93C2516.78 1032.62 2514.41 1030.79 2512.51 1028.45C2510.61 1026.11 2509.14 1023.37 2508.12 1020.23C2507.1 1017.02 2506.51 1013.51 2506.37 1009.71C2506.29 1008.39 2506.26 1007.22 2506.26 1006.2C2506.26 1005.1 2506.29 1003.9 2506.37 1002.58C2506.51 998.929 2507.06 995.531 2508.01 992.389C2509.03 989.247 2510.5 986.507 2512.4 984.168C2514.37 981.757 2516.78 979.893 2519.63 978.578C2522.55 977.263 2525.91 976.605 2529.71 976.605C2533.66 976.605 2536.99 977.299 2539.69 978.688C2542.47 980.003 2544.77 981.72 2546.59 983.839V959.506C2546.59 958.775 2546.81 958.154 2547.25 957.642C2547.76 957.131 2548.42 956.875 2549.23 956.875H2558.54C2559.27 956.875 2559.89 957.131 2560.41 957.642C2560.92 958.154 2561.17 958.775 2561.17 959.506V1032.07C2561.17 1032.8 2560.92 1033.42 2560.41 1033.93C2559.89 1034.44 2559.27 1034.7 2558.54 1034.7H2549.88C2549.08 1034.7 2548.42 1034.44 2547.91 1033.93C2547.47 1033.42 2547.25 1032.8 2547.25 1032.07V1028.01C2545.43 1030.28 2543.09 1032.14 2540.24 1033.6C2537.46 1035.06 2533.95 1035.8 2529.71 1035.8ZM2533.77 1024.07C2536.84 1024.07 2539.29 1023.37 2541.11 1021.98C2542.94 1020.6 2544.29 1018.84 2545.17 1016.72C2546.05 1014.53 2546.52 1012.3 2546.59 1010.04C2546.67 1008.72 2546.7 1007.33 2546.7 1005.87C2546.7 1004.34 2546.67 1002.91 2546.59 1001.6C2546.52 999.404 2546.01 997.322 2545.06 995.349C2544.11 993.303 2542.72 991.622 2540.89 990.306C2539.07 988.991 2536.69 988.333 2533.77 988.333C2530.7 988.333 2528.25 989.028 2526.43 990.416C2524.67 991.731 2523.39 993.485 2522.59 995.677C2521.79 997.87 2521.31 1000.28 2521.16 1002.91C2521.09 1005.1 2521.09 1007.3 2521.16 1009.49C2521.31 1012.12 2521.79 1014.53 2522.59 1016.72C2523.39 1018.92 2524.67 1020.71 2526.43 1022.09C2528.25 1023.41 2530.7 1024.07 2533.77 1024.07ZM2604.78 1034.7C2604.05 1034.7 2603.42 1034.44 2602.91 1033.93C2602.4 1033.42 2602.15 1032.8 2602.15 1032.07V960.711C2602.15 959.908 2602.4 959.25 2602.91 958.738C2603.42 958.227 2604.05 957.971 2604.78 957.971H2613.22C2614.24 957.971 2614.97 958.227 2615.41 958.738C2615.92 959.177 2616.25 959.506 2616.4 959.725L2647.96 1008.83V960.711C2647.96 959.908 2648.18 959.25 2648.62 958.738C2649.13 958.227 2649.79 957.971 2650.59 957.971H2659.8C2660.61 957.971 2661.26 958.227 2661.77 958.738C2662.29 959.25 2662.54 959.908 2662.54 960.711V1031.96C2662.54 1032.76 2662.29 1033.42 2661.77 1033.93C2661.26 1034.44 2660.64 1034.7 2659.91 1034.7H2651.36C2650.34 1034.7 2649.61 1034.44 2649.17 1033.93C2648.73 1033.42 2648.4 1033.09 2648.18 1032.95L2616.72 984.936V1032.07C2616.72 1032.8 2616.47 1033.42 2615.96 1033.93C2615.45 1034.44 2614.79 1034.7 2613.98 1034.7H2604.78ZM2702.88 1035.8C2694.77 1035.8 2688.34 1033.46 2683.59 1028.78C2678.84 1024.1 2676.28 1017.45 2675.92 1008.83C2675.84 1008.1 2675.81 1007.19 2675.81 1006.09C2675.81 1004.92 2675.84 1004.01 2675.92 1003.35C2676.21 997.87 2677.45 993.12 2679.64 989.101C2681.91 985.082 2685.02 982.013 2688.96 979.893C2692.91 977.701 2697.55 976.605 2702.88 976.605C2708.8 976.605 2713.77 977.847 2717.79 980.332C2721.81 982.743 2724.84 986.141 2726.89 990.526C2728.93 994.837 2729.96 999.843 2729.96 1005.54V1007.84C2729.96 1008.58 2729.7 1009.2 2729.19 1009.71C2728.68 1010.22 2728.02 1010.48 2727.22 1010.48H2690.82C2690.82 1010.48 2690.82 1010.58 2690.82 1010.8C2690.82 1011.02 2690.82 1011.21 2690.82 1011.35C2690.9 1013.91 2691.37 1016.28 2692.25 1018.48C2693.2 1020.6 2694.55 1022.31 2696.31 1023.63C2698.13 1024.94 2700.29 1025.6 2702.77 1025.6C2704.82 1025.6 2706.54 1025.31 2707.92 1024.72C2709.31 1024.07 2710.45 1023.34 2711.32 1022.53C2712.2 1021.73 2712.82 1021.07 2713.19 1020.56C2713.84 1019.68 2714.35 1019.17 2714.72 1019.02C2715.16 1018.81 2715.78 1018.7 2716.58 1018.7H2726.01C2726.74 1018.7 2727.33 1018.92 2727.76 1019.35C2728.28 1019.79 2728.49 1020.34 2728.42 1021C2728.35 1022.17 2727.73 1023.59 2726.56 1025.27C2725.46 1026.95 2723.85 1028.6 2721.74 1030.21C2719.62 1031.81 2716.95 1033.16 2713.73 1034.26C2710.59 1035.28 2706.97 1035.8 2702.88 1035.8ZM2690.82 1001.27H2715.05V1000.94C2715.05 998.089 2714.57 995.604 2713.62 993.485C2712.67 991.366 2711.29 989.685 2709.46 988.443C2707.63 987.201 2705.44 986.58 2702.88 986.58C2700.32 986.58 2698.13 987.201 2696.31 988.443C2694.48 989.685 2693.09 991.366 2692.14 993.485C2691.26 995.604 2690.82 998.089 2690.82 1000.94V1001.27ZM2755.55 1034.7C2754.53 1034.7 2753.76 1034.44 2753.25 1033.93C2752.74 1033.42 2752.3 1032.76 2751.93 1031.96L2736.26 981.099C2736.19 980.734 2736.15 980.405 2736.15 980.113C2736.15 979.455 2736.37 978.907 2736.81 978.468C2737.32 977.957 2737.87 977.701 2738.45 977.701H2746.56C2747.44 977.701 2748.13 977.957 2748.65 978.468C2749.16 978.907 2749.45 979.345 2749.52 979.784L2760.26 1016.07L2771.66 980.113C2771.81 979.601 2772.14 979.09 2772.65 978.578C2773.16 977.993 2773.93 977.701 2774.95 977.701H2780.43C2781.46 977.701 2782.22 977.993 2782.73 978.578C2783.25 979.09 2783.57 979.601 2783.72 980.113L2795.12 1016.07L2805.86 979.784C2805.94 979.345 2806.19 978.907 2806.63 978.468C2807.14 977.957 2807.84 977.701 2808.71 977.701H2816.82C2817.48 977.701 2818.03 977.957 2818.47 978.468C2818.98 978.907 2819.23 979.455 2819.23 980.113C2819.23 980.405 2819.16 980.734 2819.02 981.099L2803.34 1031.96C2803.12 1032.76 2802.72 1033.42 2802.14 1033.93C2801.62 1034.44 2800.86 1034.7 2799.83 1034.7H2792.71C2791.69 1034.7 2790.88 1034.44 2790.3 1033.93C2789.71 1033.42 2789.31 1032.76 2789.09 1031.96L2777.69 997.322L2766.29 1031.96C2766 1032.76 2765.56 1033.42 2764.98 1033.93C2764.47 1034.44 2763.66 1034.7 2762.57 1034.7H2755.55Z"
        fill="#4CC3C7" />
</svg>