<svg width="1213" height="506" viewBox="0 0 1213 506" fill="none" xmlns="http://www.w3.org/2000/svg">
<path d="M71.1562 255.635H513.906" stroke="#4CC3C7" stroke-width="5.27083"/>
<circle cx="63.25" cy="253" r="60.6146" fill="#101828" stroke="#101828" stroke-width="5.27083"/>
<path d="M38.6522 276.056C38.6522 277.279 38.1663 278.452 37.3014 279.317C36.4364 280.182 35.2634 280.668 34.0402 280.668C32.817 280.668 31.644 280.182 30.779 279.317C29.9141 278.452 29.4282 277.279 29.4282 276.056C29.4282 273.504 31.4882 268.369 34.0402 268.369C36.5922 268.369 38.6522 273.504 38.6522 276.056ZM87.8466 276.056C87.8466 277.279 88.3325 278.452 89.1974 279.317C90.0624 280.182 91.2354 280.668 92.4586 280.668C93.6818 280.668 94.8548 280.182 95.7198 279.317C96.5847 278.452 97.0706 277.279 97.0706 276.056C97.0706 273.504 95.0106 268.369 92.4586 268.369C89.9066 268.369 87.8466 273.504 87.8466 276.056Z" fill="#101828"/>
<path d="M44.802 243.775H81.6978V286.821H44.802V243.775Z" fill="white"/>
<path d="M57.1001 271.447H69.3987V286.821H57.1001V271.447Z" fill="#101828"/>
<path d="M46.3398 222.25H80.161V243.773H46.3398V222.25Z" fill="white"/>
<path d="M97.0715 285.285H93.9969V281.995C95.3136 281.655 96.4804 280.888 97.3149 279.814C98.1494 278.74 98.6044 277.42 98.6089 276.061C98.6089 272.894 96.2106 266.837 92.4596 266.837C88.7085 266.837 86.3103 272.894 86.3103 276.061C86.3147 277.42 86.7697 278.74 87.6042 279.814C88.4387 280.888 89.6055 281.655 90.9222 281.995V285.285H83.2356V245.314C83.6433 245.314 84.0343 245.152 84.3227 244.864C84.611 244.575 84.7729 244.184 84.7729 243.777C84.7729 243.369 84.611 242.978 84.3227 242.69C84.0343 242.401 83.6433 242.239 83.2356 242.239H81.6983V222.254C81.6983 221.846 81.5363 221.455 81.248 221.167C80.9597 220.879 80.5687 220.717 80.1609 220.717H46.3398C45.932 220.717 45.541 220.879 45.2527 221.167C44.9644 221.455 44.8024 221.846 44.8024 222.254V242.239H43.2651C42.8574 242.239 42.4664 242.401 42.1781 242.69C41.8898 242.978 41.7278 243.369 41.7278 243.777C41.7278 244.184 41.8898 244.575 42.1781 244.864C42.4664 245.152 42.8574 245.314 43.2651 245.314V285.285H35.5785V281.995C36.8952 281.655 38.062 280.888 38.8965 279.814C39.731 278.74 40.186 277.42 40.1905 276.061C40.1905 272.894 37.7922 266.837 34.0412 266.837C30.2901 266.837 27.8918 272.894 27.8918 276.061C27.8963 277.42 28.3513 278.74 29.1858 279.814C30.0203 280.888 31.1871 281.655 32.5038 281.995V285.285H29.4292C29.0214 285.285 28.6304 285.446 28.3421 285.735C28.0538 286.023 27.8918 286.414 27.8918 286.822C27.8918 287.23 28.0538 287.621 28.3421 287.909C28.6304 288.197 29.0214 288.359 29.4292 288.359H97.0715C97.4793 288.359 97.8703 288.197 98.1586 287.909C98.4469 287.621 98.6089 287.23 98.6089 286.822C98.6089 286.414 98.4469 286.023 98.1586 285.735C97.8703 285.446 97.4793 285.285 97.0715 285.285ZM89.3849 276.061C89.3849 273.755 91.3066 269.911 92.4596 269.911C93.6126 269.911 95.5342 273.755 95.5342 276.061C95.5342 276.876 95.2103 277.658 94.6337 278.235C94.0571 278.811 93.275 279.135 92.4596 279.135C91.6441 279.135 90.8621 278.811 90.2854 278.235C89.7088 277.658 89.3849 276.876 89.3849 276.061ZM30.9665 276.061C30.9665 273.755 32.8882 269.911 34.0412 269.911C35.1941 269.911 37.1158 273.755 37.1158 276.061C37.1158 276.876 36.7919 277.658 36.2153 278.235C35.6387 278.811 34.8566 279.135 34.0412 279.135C33.2257 279.135 32.4437 278.811 31.867 278.235C31.2904 277.658 30.9665 276.876 30.9665 276.061ZM47.8771 223.791H78.6236V242.239H47.8771V223.791ZM58.6384 285.285V272.986H67.8623V285.285H58.6384ZM70.937 285.285V271.449C70.937 271.041 70.775 270.65 70.4867 270.362C70.1984 270.073 69.8074 269.911 69.3997 269.911H57.101C56.6933 269.911 56.3023 270.073 56.014 270.362C55.7257 270.65 55.5637 271.041 55.5637 271.449V285.285H46.3398V245.314H80.1609V285.285H70.937Z" fill="white"/>
<path d="M55.5636 229.939H52.489C51.6399 229.939 50.9517 230.628 50.9517 231.477V237.626C50.9517 238.475 51.6399 239.163 52.489 239.163H55.5636C56.4127 239.163 57.101 238.475 57.101 237.626V231.477C57.101 230.628 56.4127 229.939 55.5636 229.939Z" fill="#101828"/>
<path d="M64.7878 229.939H61.7131C60.8641 229.939 60.1758 230.628 60.1758 231.477V237.626C60.1758 238.475 60.8641 239.163 61.7131 239.163H64.7878C65.6368 239.163 66.3251 238.475 66.3251 237.626V231.477C66.3251 230.628 65.6368 229.939 64.7878 229.939Z" fill="#101828"/>
<path d="M74.0116 229.939H70.937C70.0879 229.939 69.3997 230.628 69.3997 231.477V237.626C69.3997 238.475 70.0879 239.163 70.937 239.163H74.0116C74.8607 239.163 75.549 238.475 75.549 237.626V231.477C75.549 230.628 74.8607 229.939 74.0116 229.939Z" fill="#101828"/>
<path d="M64.7878 249.922H61.7131C60.8641 249.922 60.1758 250.61 60.1758 251.459V254.534C60.1758 255.383 60.8641 256.071 61.7131 256.071H64.7878C65.6368 256.071 66.3251 255.383 66.3251 254.534V251.459C66.3251 250.61 65.6368 249.922 64.7878 249.922Z" fill="#101828"/>
<path d="M55.5636 249.922H52.489C51.6399 249.922 50.9517 250.61 50.9517 251.459V254.534C50.9517 255.383 51.6399 256.071 52.489 256.071H55.5636C56.4127 256.071 57.101 255.383 57.101 254.534V251.459C57.101 250.61 56.4127 249.922 55.5636 249.922Z" fill="#101828"/>
<path d="M74.0116 249.922H70.937C70.0879 249.922 69.3997 250.61 69.3997 251.459V254.534C69.3997 255.383 70.0879 256.071 70.937 256.071H74.0116C74.8607 256.071 75.549 255.383 75.549 254.534V251.459C75.549 250.61 74.8607 249.922 74.0116 249.922Z" fill="#101828"/>
<path d="M64.7878 259.146H61.7131C60.8641 259.146 60.1758 259.835 60.1758 260.684V263.758C60.1758 264.608 60.8641 265.296 61.7131 265.296H64.7878C65.6368 265.296 66.3251 264.608 66.3251 263.758V260.684C66.3251 259.835 65.6368 259.146 64.7878 259.146Z" fill="#101828"/>
<path d="M55.5636 259.146H52.489C51.6399 259.146 50.9517 259.835 50.9517 260.684V263.758C50.9517 264.608 51.6399 265.296 52.489 265.296H55.5636C56.4127 265.296 57.101 264.608 57.101 263.758V260.684C57.101 259.835 56.4127 259.146 55.5636 259.146Z" fill="#101828"/>
<path d="M74.0116 259.146H70.937C70.0879 259.146 69.3997 259.835 69.3997 260.684V263.758C69.3997 264.608 70.0879 265.296 70.937 265.296H74.0116C74.8607 265.296 75.549 264.608 75.549 263.758V260.684C75.549 259.835 74.8607 259.146 74.0116 259.146Z" fill="#101828"/>
<path d="M70.9365 217.639H55.5632C54.7142 217.639 54.0259 218.327 54.0259 219.176V225.325C54.0259 226.174 54.7142 226.863 55.5632 226.863H70.9365C71.7855 226.863 72.4738 226.174 72.4738 225.325V219.176C72.4738 218.327 71.7855 217.639 70.9365 217.639Z" fill="white"/>
<circle cx="1149.04" cy="253" r="60.6146" fill="#4CC3C7" stroke="#4CC3C7" stroke-width="5.27083"/>
<path d="M1128.31 221.375H1169.77C1171.15 221.375 1172.29 222.445 1172.29 223.905V226.435H1125.79V223.905C1125.79 222.445 1126.94 221.375 1128.31 221.375ZM1118.8 228.965H1179.29L1185.94 245.569C1185.91 246.219 1185.7 246.851 1185.33 247.404C1184.96 247.957 1184.44 248.411 1183.82 248.724C1183.2 249.036 1182.51 249.196 1181.81 249.188C1181.1 249.18 1180.42 249.003 1179.81 248.676C1179.18 248.344 1178.67 247.865 1178.31 247.288C1177.95 246.711 1177.76 246.056 1177.76 245.39C1177.76 245.347 1177.76 245.304 1177.75 245.263C1177.73 245.095 1177.68 244.931 1177.59 244.782C1177.51 244.633 1177.39 244.501 1177.25 244.395C1177.11 244.288 1176.94 244.208 1176.77 244.16C1176.59 244.112 1176.41 244.096 1176.23 244.115C1176.03 244.138 1175.83 244.203 1175.66 244.305C1175.48 244.407 1175.34 244.544 1175.23 244.704L1175.22 244.709C1175.1 244.918 1175.03 245.153 1175.02 245.392C1175.02 246.059 1174.83 246.714 1174.47 247.291C1174.11 247.869 1173.6 248.348 1172.97 248.681C1172.35 249.014 1171.64 249.189 1170.92 249.188C1170.2 249.187 1169.49 249.011 1168.87 248.676C1168.25 248.344 1167.73 247.865 1167.37 247.289C1167.01 246.712 1166.82 246.058 1166.82 245.392C1166.82 245.349 1166.82 245.306 1166.81 245.263C1166.79 245.095 1166.74 244.932 1166.65 244.783C1166.57 244.634 1166.45 244.503 1166.31 244.396C1166.17 244.29 1166 244.21 1165.83 244.162C1165.65 244.114 1165.47 244.099 1165.29 244.117C1165.09 244.141 1164.89 244.205 1164.72 244.307C1164.55 244.408 1164.4 244.544 1164.29 244.704L1164.28 244.709C1164.16 244.917 1164.09 245.152 1164.08 245.392C1164.08 246.059 1163.89 246.714 1163.53 247.292C1163.17 247.87 1162.66 248.35 1162.03 248.683C1161.41 249.017 1160.7 249.192 1159.98 249.191C1159.26 249.19 1158.55 249.013 1157.93 248.679C1157.3 248.346 1156.78 247.866 1156.42 247.289C1156.06 246.712 1155.87 246.056 1155.87 245.39C1155.87 245.349 1155.87 245.306 1155.87 245.263C1155.85 245.095 1155.8 244.932 1155.71 244.784C1155.63 244.635 1155.51 244.504 1155.37 244.397C1155.23 244.291 1155.06 244.211 1154.89 244.163C1154.71 244.115 1154.53 244.099 1154.35 244.117C1154.15 244.14 1153.95 244.205 1153.78 244.307C1153.6 244.409 1153.46 244.546 1153.35 244.707L1153.34 244.712C1153.21 244.92 1153.14 245.155 1153.14 245.395C1153.14 246.061 1152.95 246.716 1152.59 247.294C1152.23 247.871 1151.71 248.351 1151.09 248.684C1150.47 249.017 1149.76 249.192 1149.04 249.191C1148.32 249.19 1147.61 249.013 1146.99 248.679C1146.36 248.346 1145.84 247.867 1145.48 247.29C1145.12 246.713 1144.93 246.059 1144.94 245.392C1144.94 245.349 1144.94 245.306 1144.93 245.266C1144.91 245.097 1144.86 244.934 1144.77 244.785C1144.69 244.636 1144.57 244.504 1144.43 244.397C1144.29 244.29 1144.12 244.21 1143.95 244.162C1143.77 244.114 1143.59 244.099 1143.41 244.117C1143.2 244.141 1143.01 244.206 1142.84 244.308C1142.66 244.41 1142.52 244.546 1142.41 244.707L1142.4 244.712C1142.27 244.92 1142.2 245.155 1142.2 245.395C1142.2 246.062 1142.01 246.717 1141.65 247.295C1141.29 247.873 1140.78 248.352 1140.15 248.686C1139.53 249.019 1138.82 249.194 1138.1 249.193C1137.38 249.193 1136.67 249.016 1136.05 248.681C1135.42 248.348 1134.9 247.869 1134.54 247.292C1134.18 246.714 1133.99 246.059 1134 245.392C1134 245.352 1134 245.309 1133.99 245.266C1133.97 245.098 1133.92 244.934 1133.83 244.786C1133.75 244.637 1133.63 244.505 1133.49 244.399C1133.34 244.292 1133.18 244.213 1133.01 244.165C1132.83 244.117 1132.65 244.102 1132.47 244.12C1132.26 244.143 1132.07 244.208 1131.9 244.309C1131.72 244.411 1131.58 244.547 1131.47 244.707L1131.46 244.712C1131.33 244.92 1131.26 245.155 1131.26 245.395C1131.26 246.062 1131.07 246.717 1130.71 247.295C1130.35 247.873 1129.83 248.352 1129.21 248.686C1128.58 249.019 1127.88 249.194 1127.16 249.193C1126.44 249.193 1125.73 249.016 1125.1 248.681C1124.48 248.349 1123.96 247.87 1123.6 247.293C1123.24 246.716 1123.05 246.061 1123.05 245.395C1123.06 245.222 1123.04 245.049 1122.97 244.886C1122.91 244.723 1122.81 244.574 1122.68 244.447C1122.56 244.321 1122.4 244.22 1122.23 244.152C1122.06 244.083 1121.87 244.047 1121.69 244.047C1121.5 244.047 1121.31 244.083 1121.14 244.152C1120.97 244.22 1120.81 244.321 1120.69 244.447C1120.56 244.574 1120.46 244.723 1120.4 244.886C1120.33 245.049 1120.31 245.222 1120.32 245.395C1120.32 246.062 1120.13 246.717 1119.77 247.296C1119.41 247.874 1118.89 248.354 1118.27 248.688C1117.65 249.021 1116.94 249.197 1116.22 249.196C1115.5 249.195 1114.79 249.019 1114.16 248.684C1113.57 248.362 1113.08 247.909 1112.73 247.365C1112.37 246.822 1112.17 246.205 1112.15 245.572L1118.8 228.965ZM1121.69 249.096C1122.24 249.794 1122.91 250.424 1123.74 250.87C1124.78 251.424 1125.96 251.716 1127.16 251.716C1128.36 251.716 1129.54 251.424 1130.58 250.87C1131.42 250.424 1132.08 249.794 1132.63 249.096C1133.18 249.794 1133.84 250.424 1134.68 250.87C1135.72 251.424 1136.9 251.716 1138.1 251.716C1139.3 251.716 1140.48 251.424 1141.52 250.87C1142.36 250.424 1143.02 249.794 1143.57 249.096C1144.12 249.794 1144.78 250.424 1145.62 250.87C1146.66 251.424 1147.84 251.716 1149.04 251.716C1150.24 251.716 1151.42 251.424 1152.46 250.87C1153.3 250.424 1153.96 249.794 1154.51 249.096C1155.06 249.794 1155.72 250.424 1156.56 250.87C1157.6 251.424 1158.78 251.716 1159.98 251.716C1161.18 251.716 1162.36 251.424 1163.4 250.87C1164.24 250.424 1164.9 249.794 1165.45 249.096C1166 249.794 1166.66 250.424 1167.5 250.87C1168.54 251.424 1169.72 251.716 1170.92 251.716C1172.12 251.716 1173.3 251.424 1174.34 250.87C1175.18 250.424 1175.84 249.794 1176.39 249.096C1176.77 249.582 1177.23 250.01 1177.76 250.381V284.625H1139.47V268.165C1139.45 267.833 1139.31 267.519 1139.05 267.284C1138.8 267.05 1138.46 266.912 1138.1 266.9H1127.16C1126.8 266.912 1126.46 267.05 1126.21 267.284C1125.96 267.519 1125.81 267.833 1125.79 268.165V284.625H1120.32V250.381C1120.85 250.01 1121.31 249.582 1121.69 249.096ZM1151.78 259.325C1151.42 259.338 1151.08 259.475 1150.82 259.709C1150.57 259.944 1150.42 260.258 1150.41 260.59V275.77C1150.41 276.433 1151.06 277.035 1151.78 277.035H1170.92C1171.28 277.022 1171.62 276.885 1171.87 276.651C1172.13 276.416 1172.27 276.101 1172.29 275.77V260.59C1172.27 260.258 1172.13 259.944 1171.87 259.709C1171.62 259.475 1171.28 259.338 1170.92 259.325H1151.78ZM1153.14 261.855H1169.55V274.505H1153.14V261.855Z" fill="white"/>
<circle cx="959.292" cy="63.25" r="60.6146" fill="#4CC3C7" stroke="#4CC3C7" stroke-width="5.27083"/>
<path d="M938.565 31.625H980.021C981.4 31.625 982.537 32.6952 982.537 34.155V36.685H936.043V34.155C936.043 32.6952 937.186 31.625 938.565 31.625ZM929.047 39.215H989.541L996.187 55.8194C996.158 56.4693 995.948 57.1012 995.578 57.6539C995.207 58.2066 994.688 58.6612 994.071 58.9738C993.455 59.2864 992.761 59.4462 992.058 59.4379C991.355 59.4296 990.666 59.2533 990.058 58.9262C989.434 58.5936 988.916 58.1146 988.556 57.5376C988.196 56.9606 988.007 56.306 988.007 55.6398C988.007 55.5967 988.007 55.5537 988.002 55.5133C987.984 55.3449 987.931 55.1814 987.845 55.0323C987.759 54.8832 987.641 54.7514 987.499 54.6445C987.358 54.5377 987.195 54.4579 987.019 54.4099C986.844 54.3618 986.66 54.3465 986.478 54.3646C986.275 54.3883 986.08 54.4534 985.907 54.5554C985.735 54.6573 985.589 54.7935 985.48 54.9541L985.475 54.9592C985.346 55.1677 985.277 55.4025 985.272 55.6423C985.273 56.3088 985.085 56.9639 984.725 57.5413C984.365 58.1188 983.847 58.5982 983.223 58.9313C982.598 59.2644 981.89 59.4393 981.17 59.4384C980.449 59.4375 979.742 59.2608 979.119 58.9262C978.495 58.5938 977.977 58.1152 977.617 57.5387C977.257 56.9622 977.067 56.3081 977.067 55.6423C977.067 55.5993 977.067 55.5563 977.062 55.5133C977.044 55.3451 976.991 55.1819 976.904 55.0331C976.818 54.8843 976.7 54.7527 976.559 54.6462C976.417 54.5396 976.254 54.46 976.079 54.4122C975.904 54.3643 975.72 54.349 975.539 54.3672C975.336 54.3905 975.141 54.4553 974.968 54.5568C974.795 54.6583 974.649 54.794 974.54 54.9541L974.535 54.9592C974.406 55.1674 974.335 55.4023 974.33 55.6423C974.331 56.309 974.143 56.9644 973.783 57.5422C973.423 58.12 972.905 58.5998 972.281 58.9332C971.657 59.2666 970.949 59.4417 970.228 59.4409C969.507 59.4401 968.799 59.2635 968.176 58.9288C967.552 58.5959 967.033 58.1165 966.673 57.539C966.313 56.9616 966.124 56.3064 966.125 55.6398C966.125 55.5993 966.125 55.5563 966.119 55.5133C966.102 55.3454 966.048 55.1824 965.962 55.0337C965.876 54.8851 965.759 54.7537 965.617 54.6471C965.476 54.5406 965.313 54.461 965.138 54.4129C964.963 54.3649 964.78 54.3493 964.599 54.3672C964.395 54.3904 964.199 54.4554 964.026 54.5574C963.853 54.6594 963.707 54.7958 963.598 54.9567L963.592 54.9617C963.464 55.1702 963.395 55.4051 963.39 55.6448C963.391 56.3114 963.202 56.9664 962.842 57.5438C962.482 58.1213 961.964 58.6007 961.34 58.9338C960.716 59.2669 960.008 59.4418 959.288 59.4409C958.567 59.44 957.859 59.2634 957.236 58.9288C956.612 58.5961 956.094 58.1171 955.734 57.5401C955.374 56.9631 955.185 56.3085 955.185 55.6423C955.185 55.5993 955.185 55.5563 955.18 55.5158C955.162 55.3474 955.109 55.184 955.023 55.0348C954.936 54.8857 954.819 54.7539 954.677 54.6471C954.536 54.5402 954.372 54.4605 954.197 54.4124C954.022 54.3644 953.838 54.349 953.656 54.3672C953.453 54.3908 953.258 54.456 953.085 54.5579C952.913 54.6599 952.767 54.7961 952.658 54.9567L952.652 54.9617C952.524 55.1702 952.455 55.4051 952.45 55.6448C952.452 56.3116 952.263 56.9669 951.904 57.5447C951.544 58.1225 951.026 58.6023 950.402 58.9357C949.777 59.2691 949.069 59.4442 948.348 59.4434C947.628 59.4427 946.92 59.266 946.296 58.9313C945.672 58.5984 945.154 58.119 944.793 57.5416C944.433 56.9641 944.244 56.309 944.245 55.6423C944.245 55.6018 944.245 55.5588 944.24 55.5158C944.222 55.3477 944.168 55.1845 944.082 55.0356C943.996 54.8868 943.878 54.7553 943.737 54.6487C943.595 54.5421 943.432 54.4626 943.257 54.4147C943.082 54.3668 942.898 54.3515 942.716 54.3697C942.513 54.393 942.319 54.4578 942.146 54.5593C941.973 54.6608 941.827 54.7965 941.718 54.9567L941.713 54.9617C941.584 55.17 941.513 55.4048 941.508 55.6448C941.509 56.3116 941.321 56.9669 940.961 57.5447C940.601 58.1225 940.083 58.6023 939.459 58.9357C938.835 59.2691 938.127 59.4442 937.406 59.4434C936.685 59.4427 935.977 59.266 935.354 58.9313C934.73 58.5986 934.212 58.1196 933.852 57.5427C933.492 56.9657 933.302 56.3111 933.303 55.6448C933.315 55.472 933.288 55.2987 933.225 55.1357C933.161 54.9728 933.062 54.8235 932.934 54.6973C932.806 54.571 932.651 54.4703 932.48 54.4015C932.308 54.3327 932.122 54.2972 931.935 54.2972C931.748 54.2972 931.563 54.3327 931.391 54.4015C931.219 54.4703 931.064 54.571 930.936 54.6973C930.808 54.8235 930.709 54.9728 930.646 55.1357C930.583 55.2987 930.556 55.472 930.568 55.6448C930.57 56.3118 930.382 56.9675 930.022 57.5456C929.663 58.1238 929.145 58.6039 928.52 58.9376C927.896 59.2713 927.188 59.4466 926.467 59.446C925.746 59.4453 925.038 59.2686 924.414 58.9338C923.824 58.6122 923.33 58.1589 922.977 57.6153C922.625 57.0718 922.425 56.4552 922.396 55.8219L929.047 39.215ZM931.941 59.3462C932.493 60.0445 933.155 60.6745 933.992 61.1197C935.032 61.6744 936.211 61.9663 937.411 61.9663C938.611 61.9663 939.79 61.6744 940.829 61.1197C941.666 60.6745 942.328 60.0445 942.881 59.3462C943.433 60.0445 944.095 60.6745 944.932 61.1197C945.971 61.6744 947.15 61.9663 948.35 61.9663C949.551 61.9663 950.73 61.6744 951.769 61.1197C952.606 60.6745 953.268 60.0445 953.82 59.3462C954.373 60.0445 955.035 60.6745 955.872 61.1197C956.911 61.6744 958.09 61.9663 959.29 61.9663C960.49 61.9663 961.669 61.6744 962.709 61.1197C963.546 60.6745 964.208 60.0445 964.76 59.3462C965.313 60.0445 965.974 60.6745 966.811 61.1197C967.851 61.6744 969.03 61.9663 970.23 61.9663C971.43 61.9663 972.609 61.6744 973.649 61.1197C974.486 60.6745 975.147 60.0445 975.7 59.3462C976.252 60.0445 976.914 60.6745 977.751 61.1197C978.791 61.6744 979.97 61.9663 981.17 61.9663C982.37 61.9663 983.549 61.6744 984.589 61.1197C985.425 60.6745 986.087 60.0445 986.64 59.3462C987.023 59.832 987.479 60.2595 988.007 60.6314V94.875H949.718V78.4148C949.704 78.0833 949.556 77.7688 949.302 77.5342C949.049 77.2996 948.709 77.1623 948.35 77.1498H937.411C937.052 77.1623 936.712 77.2996 936.459 77.5342C936.205 77.7688 936.057 78.0833 936.043 78.4148V94.875H930.573V60.6314C931.101 60.2595 931.558 59.832 931.941 59.3462ZM962.025 69.575C961.667 69.5875 961.327 69.7248 961.073 69.9594C960.82 70.194 960.671 70.5085 960.658 70.84V86.02C960.658 86.6829 961.309 87.285 962.025 87.285H981.17C981.528 87.2725 981.868 87.1352 982.122 86.9006C982.375 86.666 982.524 86.3515 982.537 86.02V70.84C982.524 70.5085 982.375 70.194 982.122 69.9594C981.868 69.7248 981.528 69.5875 981.17 69.575H962.025ZM963.393 72.105H979.802V84.755H963.393V72.105Z" fill="white"/>
<circle cx="959.292" cy="442.75" r="60.6146" fill="#4CC3C7" stroke="#4CC3C7" stroke-width="5.27083"/>
<path d="M938.565 411.125H980.021C981.4 411.125 982.537 412.195 982.537 413.655V416.185H936.043V413.655C936.043 412.195 937.186 411.125 938.565 411.125ZM929.047 418.715H989.541L996.187 435.319C996.158 435.969 995.948 436.601 995.578 437.154C995.207 437.707 994.688 438.161 994.071 438.474C993.455 438.786 992.761 438.946 992.058 438.938C991.355 438.93 990.666 438.753 990.058 438.426C989.434 438.094 988.916 437.615 988.556 437.038C988.196 436.461 988.007 435.806 988.007 435.14C988.007 435.097 988.007 435.054 988.002 435.013C987.984 434.845 987.931 434.681 987.845 434.532C987.759 434.383 987.641 434.251 987.499 434.145C987.358 434.038 987.195 433.958 987.019 433.91C986.844 433.862 986.66 433.846 986.478 433.865C986.275 433.888 986.08 433.953 985.907 434.055C985.735 434.157 985.589 434.294 985.48 434.454L985.475 434.459C985.346 434.668 985.277 434.903 985.272 435.142C985.273 435.809 985.085 436.464 984.725 437.041C984.365 437.619 983.847 438.098 983.223 438.431C982.598 438.764 981.89 438.939 981.17 438.938C980.449 438.937 979.742 438.761 979.119 438.426C978.495 438.094 977.977 437.615 977.617 437.039C977.257 436.462 977.067 435.808 977.067 435.142C977.067 435.099 977.067 435.056 977.062 435.013C977.044 434.845 976.991 434.682 976.904 434.533C976.818 434.384 976.7 434.253 976.559 434.146C976.417 434.04 976.254 433.96 976.079 433.912C975.904 433.864 975.72 433.849 975.539 433.867C975.336 433.891 975.141 433.955 974.968 434.057C974.795 434.158 974.649 434.294 974.54 434.454L974.535 434.459C974.406 434.667 974.335 434.902 974.33 435.142C974.331 435.809 974.143 436.464 973.783 437.042C973.423 437.62 972.905 438.1 972.281 438.433C971.657 438.767 970.949 438.942 970.228 438.941C969.507 438.94 968.799 438.763 968.176 438.429C967.552 438.096 967.033 437.616 966.673 437.039C966.313 436.462 966.124 435.806 966.125 435.14C966.125 435.099 966.125 435.056 966.119 435.013C966.102 434.845 966.048 434.682 965.962 434.534C965.876 434.385 965.759 434.254 965.617 434.147C965.476 434.041 965.313 433.961 965.138 433.913C964.963 433.865 964.78 433.849 964.599 433.867C964.395 433.89 964.199 433.955 964.026 434.057C963.853 434.159 963.707 434.296 963.598 434.457L963.592 434.462C963.464 434.67 963.395 434.905 963.39 435.145C963.391 435.811 963.202 436.466 962.842 437.044C962.482 437.621 961.964 438.101 961.34 438.434C960.716 438.767 960.008 438.942 959.288 438.941C958.567 438.94 957.859 438.763 957.236 438.429C956.612 438.096 956.094 437.617 955.734 437.04C955.374 436.463 955.185 435.809 955.185 435.142C955.185 435.099 955.185 435.056 955.18 435.016C955.162 434.847 955.109 434.684 955.023 434.535C954.936 434.386 954.819 434.254 954.677 434.147C954.536 434.04 954.372 433.96 954.197 433.912C954.022 433.864 953.838 433.849 953.656 433.867C953.453 433.891 953.258 433.956 953.085 434.058C952.913 434.16 952.767 434.296 952.658 434.457L952.652 434.462C952.524 434.67 952.455 434.905 952.45 435.145C952.452 435.812 952.263 436.467 951.904 437.045C951.544 437.623 951.026 438.102 950.402 438.436C949.777 438.769 949.069 438.944 948.348 438.943C947.628 438.943 946.92 438.766 946.296 438.431C945.672 438.098 945.154 437.619 944.793 437.042C944.433 436.464 944.244 435.809 944.245 435.142C944.245 435.102 944.245 435.059 944.24 435.016C944.222 434.848 944.168 434.684 944.082 434.536C943.996 434.387 943.878 434.255 943.737 434.149C943.595 434.042 943.432 433.963 943.257 433.915C943.082 433.867 942.898 433.852 942.716 433.87C942.513 433.893 942.319 433.958 942.146 434.059C941.973 434.161 941.827 434.297 941.718 434.457L941.713 434.462C941.584 434.67 941.513 434.905 941.508 435.145C941.509 435.812 941.321 436.467 940.961 437.045C940.601 437.623 940.083 438.102 939.459 438.436C938.835 438.769 938.127 438.944 937.406 438.943C936.685 438.943 935.977 438.766 935.354 438.431C934.73 438.099 934.212 437.62 933.852 437.043C933.492 436.466 933.302 435.811 933.303 435.145C933.315 434.972 933.288 434.799 933.225 434.636C933.161 434.473 933.062 434.324 932.934 434.197C932.806 434.071 932.651 433.97 932.48 433.902C932.308 433.833 932.122 433.797 931.935 433.797C931.748 433.797 931.563 433.833 931.391 433.902C931.219 433.97 931.064 434.071 930.936 434.197C930.808 434.324 930.709 434.473 930.646 434.636C930.583 434.799 930.556 434.972 930.568 435.145C930.57 435.812 930.382 436.467 930.022 437.046C929.663 437.624 929.145 438.104 928.52 438.438C927.896 438.771 927.188 438.947 926.467 438.946C925.746 438.945 925.038 438.769 924.414 438.434C923.824 438.112 923.33 437.659 922.977 437.115C922.625 436.572 922.425 435.955 922.396 435.322L929.047 418.715ZM931.941 438.846C932.493 439.544 933.155 440.174 933.992 440.62C935.032 441.174 936.211 441.466 937.411 441.466C938.611 441.466 939.79 441.174 940.829 440.62C941.666 440.174 942.328 439.544 942.881 438.846C943.433 439.544 944.095 440.174 944.932 440.62C945.971 441.174 947.15 441.466 948.35 441.466C949.551 441.466 950.73 441.174 951.769 440.62C952.606 440.174 953.268 439.544 953.82 438.846C954.373 439.544 955.035 440.174 955.872 440.62C956.911 441.174 958.09 441.466 959.29 441.466C960.49 441.466 961.669 441.174 962.709 440.62C963.546 440.174 964.208 439.544 964.76 438.846C965.313 439.544 965.974 440.174 966.811 440.62C967.851 441.174 969.03 441.466 970.23 441.466C971.43 441.466 972.609 441.174 973.649 440.62C974.486 440.174 975.147 439.544 975.7 438.846C976.252 439.544 976.914 440.174 977.751 440.62C978.791 441.174 979.97 441.466 981.17 441.466C982.37 441.466 983.549 441.174 984.589 440.62C985.425 440.174 986.087 439.544 986.64 438.846C987.023 439.332 987.479 439.76 988.007 440.131V474.375H949.718V457.915C949.704 457.583 949.556 457.269 949.302 457.034C949.049 456.8 948.709 456.662 948.35 456.65H937.411C937.052 456.662 936.712 456.8 936.459 457.034C936.205 457.269 936.057 457.583 936.043 457.915V474.375H930.573V440.131C931.101 439.76 931.558 439.332 931.941 438.846ZM962.025 449.075C961.667 449.088 961.327 449.225 961.073 449.459C960.82 449.694 960.671 450.008 960.658 450.34V465.52C960.658 466.183 961.309 466.785 962.025 466.785H981.17C981.528 466.772 981.868 466.635 982.122 466.401C982.375 466.166 982.524 465.851 982.537 465.52V450.34C982.524 450.008 982.375 449.694 982.122 449.459C981.868 449.225 981.528 449.088 981.17 449.075H962.025ZM963.393 451.605H979.802V464.255H963.393V451.605Z" fill="white"/>
<path d="M1088.43 255.635H645.677" stroke="#4CC3C7" stroke-width="5.27083"/>
<path d="M901.312 63.25C762.858 63.25 808.122 253 643.042 253" stroke="#4CC3C7" stroke-width="5.27083"/>
<path d="M901.312 448.021C762.858 448.021 808.122 258.271 643.042 258.271" stroke="#4CC3C7" stroke-width="5.27083"/>
<circle cx="284.625" cy="255.637" r="31.625" fill="#4CC3C7"/>
<path d="M266.45 245.34V265.946L276.753 255.643L266.45 245.34Z" fill="white"/>
<path d="M268.497 243.271L281.541 256.316C283.189 257.963 286.062 257.963 287.709 256.316L300.753 243.271H268.497Z" fill="white"/>
<path d="M289.764 258.381C288.393 259.754 286.567 260.511 284.624 260.511C282.682 260.511 280.856 259.754 279.485 258.381L278.808 257.705L268.514 268H300.735L290.441 257.705L289.764 258.381Z" fill="white"/>
<path d="M292.496 255.643L302.8 265.946V245.34L292.496 255.643Z" fill="white"/>
<circle cx="901.312" cy="255.637" r="31.625" fill="#4CC3C7"/>
<path d="M883.137 245.34V265.946L893.441 255.643L883.137 245.34Z" fill="white"/>
<path d="M885.185 243.271L898.229 256.316C899.876 257.963 902.749 257.963 904.397 256.316L917.441 243.271H885.185Z" fill="white"/>
<path d="M906.452 258.381C905.081 259.754 903.255 260.511 901.312 260.511C899.37 260.511 897.543 259.754 896.172 258.381L895.496 257.705L885.202 268H917.423L907.128 257.705L906.452 258.381Z" fill="white"/>
<path d="M909.184 255.643L919.487 265.946V245.34L909.184 255.643Z" fill="white"/>
<circle cx="569.25" cy="253.001" r="84.3333" fill="#101828"/>
<path d="M616.687 205.564V300.368H542.898V289.837H606.149V205.564H616.687Z" fill="white"/>
<path d="M574.519 247.705H532.355V216.095H574.519V205.564H521.812V216.095H521.815V247.705H521.812V258.236H521.815V300.439H532.355V258.236H574.519V247.705Z" fill="white"/>
<path d="M595.605 268.766V237.158V226.627H542.898V237.158H585.065V268.766H542.898V279.299H595.605V268.766Z" fill="#4CC3C7"/>
<path d="M590.336 216.097C593.247 216.097 595.606 213.74 595.606 210.831C595.606 207.922 593.247 205.564 590.336 205.564C587.426 205.564 585.066 207.922 585.066 210.831C585.066 213.74 587.426 216.097 590.336 216.097Z" fill="#4CC3C7"/>
</svg>
