<svg width="318" height="151" viewBox="0 0 318 151" fill="none" xmlns="http://www.w3.org/2000/svg">
<rect width="318" height="151" rx="4" fill="#F1FFFF"/>
<rect x="24.5" y="23.5" width="269" height="33" rx="3.5" fill="#F1FFFF" stroke="#101828"/>
<path d="M48.0104 42.0094L52.667 46.666" stroke="#101828" stroke-width="1.5" stroke-linecap="round"/>
<path fill-rule="evenodd" clip-rule="evenodd" d="M44.333 43.334C47.0944 43.334 49.333 41.0954 49.333 38.334C49.333 35.5726 47.0944 33.334 44.333 33.334C41.5716 33.334 39.333 35.5726 39.333 38.334C39.333 41.0954 41.5716 43.334 44.333 43.334Z" stroke="#101828" stroke-width="1.5"/>
<path d="M74.87 45C74.7487 45 74.6507 44.9673 74.576 44.902C74.5107 44.8367 74.464 44.7433 74.436 44.622L72.63 35.634C72.6207 35.5967 72.616 35.564 72.616 35.536C72.616 35.508 72.616 35.4893 72.616 35.48C72.616 35.4053 72.644 35.34 72.7 35.284C72.756 35.228 72.8213 35.2 72.896 35.2H73.624C73.82 35.2 73.932 35.2793 73.96 35.438L75.388 42.662L76.9 37.706C76.928 37.622 76.9747 37.5473 77.04 37.482C77.1147 37.4073 77.2173 37.37 77.348 37.37H77.866C78.006 37.37 78.1087 37.4073 78.174 37.482C78.2393 37.5473 78.2813 37.622 78.3 37.706L79.826 42.662L81.24 35.438C81.268 35.2793 81.3847 35.2 81.59 35.2H82.318C82.3927 35.2 82.458 35.228 82.514 35.284C82.57 35.34 82.598 35.4053 82.598 35.48C82.598 35.4893 82.5933 35.508 82.584 35.536C82.584 35.564 82.584 35.5967 82.584 35.634L80.778 44.622C80.75 44.7433 80.6987 44.8367 80.624 44.902C80.5587 44.9673 80.4653 45 80.344 45H79.798C79.6673 45 79.5647 44.9673 79.49 44.902C79.4153 44.8367 79.364 44.7527 79.336 44.65L77.6 39.316L75.878 44.65C75.8407 44.7527 75.7847 44.8367 75.71 44.902C75.6447 44.9673 75.5467 45 75.416 45H74.87ZM84.5829 45C84.4896 45 84.4103 44.972 84.3449 44.916C84.2889 44.8507 84.2609 44.7713 84.2609 44.678V35.382C84.2609 35.2887 84.2889 35.214 84.3449 35.158C84.4103 35.0927 84.4896 35.06 84.5829 35.06H85.2829C85.3856 35.06 85.4649 35.0927 85.5209 35.158C85.5769 35.214 85.6049 35.2887 85.6049 35.382V38.644C85.8569 38.3267 86.1649 38.07 86.5289 37.874C86.8929 37.678 87.3549 37.58 87.9149 37.58C88.5216 37.58 89.0349 37.7153 89.4549 37.986C89.8843 38.2473 90.2063 38.616 90.4209 39.092C90.6449 39.5587 90.7569 40.1047 90.7569 40.73V44.678C90.7569 44.7713 90.7289 44.8507 90.6729 44.916C90.6169 44.972 90.5376 45 90.4349 45H89.7349C89.6416 45 89.5623 44.972 89.4969 44.916C89.4409 44.8507 89.4129 44.7713 89.4129 44.678V40.8C89.4129 40.1467 89.2543 39.638 88.9369 39.274C88.6196 38.9007 88.1529 38.714 87.5369 38.714C86.9583 38.714 86.4916 38.9007 86.1369 39.274C85.7823 39.638 85.6049 40.1467 85.6049 40.8V44.678C85.6049 44.7713 85.5769 44.8507 85.5209 44.916C85.4649 44.972 85.3856 45 85.2829 45H84.5829ZM94.8082 45.14C94.3415 45.14 93.9169 45.0467 93.5342 44.86C93.1515 44.6733 92.8435 44.4213 92.6102 44.104C92.3769 43.7867 92.2602 43.4273 92.2602 43.026C92.2602 42.382 92.5215 41.8687 93.0442 41.486C93.5669 41.1033 94.2482 40.8513 95.0882 40.73L97.1742 40.436V40.03C97.1742 39.582 97.0435 39.232 96.7822 38.98C96.5302 38.728 96.1149 38.602 95.5362 38.602C95.1162 38.602 94.7755 38.686 94.5142 38.854C94.2622 39.022 94.0849 39.2367 93.9822 39.498C93.9262 39.638 93.8282 39.708 93.6882 39.708H93.0582C92.9555 39.708 92.8762 39.68 92.8202 39.624C92.7735 39.5587 92.7502 39.484 92.7502 39.4C92.7502 39.26 92.8015 39.0873 92.9042 38.882C93.0162 38.6767 93.1842 38.476 93.4082 38.28C93.6322 38.084 93.9169 37.9207 94.2622 37.79C94.6169 37.65 95.0462 37.58 95.5502 37.58C96.1102 37.58 96.5815 37.6547 96.9642 37.804C97.3469 37.944 97.6455 38.1353 97.8602 38.378C98.0842 38.6207 98.2429 38.896 98.3362 39.204C98.4389 39.512 98.4902 39.8247 98.4902 40.142V44.678C98.4902 44.7713 98.4575 44.8507 98.3922 44.916C98.3362 44.972 98.2615 45 98.1682 45H97.5242C97.4215 45 97.3422 44.972 97.2862 44.916C97.2302 44.8507 97.2022 44.7713 97.2022 44.678V44.076C97.0809 44.244 96.9175 44.412 96.7122 44.58C96.5069 44.7387 96.2502 44.874 95.9422 44.986C95.6342 45.0887 95.2562 45.14 94.8082 45.14ZM95.1022 44.09C95.4849 44.09 95.8349 44.0107 96.1522 43.852C96.4695 43.684 96.7169 43.4273 96.8942 43.082C97.0809 42.7367 97.1742 42.3027 97.1742 41.78V41.388L95.5502 41.626C94.8875 41.7193 94.3882 41.878 94.0522 42.102C93.7162 42.3167 93.5482 42.592 93.5482 42.928C93.5482 43.1893 93.6229 43.4087 93.7722 43.586C93.9309 43.754 94.1269 43.88 94.3602 43.964C94.6029 44.048 94.8502 44.09 95.1022 44.09ZM103.276 45C102.754 45 102.329 44.902 102.002 44.706C101.676 44.5007 101.438 44.216 101.288 43.852C101.139 43.4787 101.064 43.04 101.064 42.536V38.84H99.9724C99.8791 38.84 99.7998 38.812 99.7344 38.756C99.6784 38.6907 99.6504 38.6113 99.6504 38.518V38.042C99.6504 37.9487 99.6784 37.874 99.7344 37.818C99.7998 37.7527 99.8791 37.72 99.9724 37.72H101.064V35.382C101.064 35.2887 101.092 35.214 101.148 35.158C101.214 35.0927 101.293 35.06 101.386 35.06H102.044C102.138 35.06 102.212 35.0927 102.268 35.158C102.334 35.214 102.366 35.2887 102.366 35.382V37.72H104.102C104.196 37.72 104.27 37.7527 104.326 37.818C104.392 37.874 104.424 37.9487 104.424 38.042V38.518C104.424 38.6113 104.392 38.6907 104.326 38.756C104.27 38.812 104.196 38.84 104.102 38.84H102.366V42.438C102.366 42.8767 102.441 43.222 102.59 43.474C102.74 43.726 103.006 43.852 103.388 43.852H104.242C104.336 43.852 104.41 43.8847 104.466 43.95C104.532 44.006 104.564 44.0807 104.564 44.174V44.678C104.564 44.7713 104.532 44.8507 104.466 44.916C104.41 44.972 104.336 45 104.242 45H103.276ZM111.995 45.14C111.481 45.14 111.038 45.0513 110.665 44.874C110.291 44.6873 109.983 44.44 109.741 44.132C109.507 43.8147 109.33 43.4553 109.209 43.054C109.097 42.6527 109.031 42.228 109.013 41.78C109.003 41.6307 108.999 41.4907 108.999 41.36C108.999 41.2293 109.003 41.0893 109.013 40.94C109.031 40.5013 109.097 40.0813 109.209 39.68C109.33 39.2787 109.507 38.9193 109.741 38.602C109.983 38.2847 110.291 38.0373 110.665 37.86C111.038 37.6733 111.481 37.58 111.995 37.58C112.545 37.58 113.003 37.678 113.367 37.874C113.731 38.07 114.029 38.3127 114.263 38.602V35.382C114.263 35.2887 114.291 35.214 114.347 35.158C114.412 35.0927 114.491 35.06 114.585 35.06H115.257C115.35 35.06 115.425 35.0927 115.481 35.158C115.546 35.214 115.579 35.2887 115.579 35.382V44.678C115.579 44.7713 115.546 44.8507 115.481 44.916C115.425 44.972 115.35 45 115.257 45H114.627C114.524 45 114.445 44.972 114.389 44.916C114.333 44.8507 114.305 44.7713 114.305 44.678V44.09C114.071 44.3887 113.768 44.6407 113.395 44.846C113.021 45.042 112.555 45.14 111.995 45.14ZM112.289 44.006C112.755 44.006 113.129 43.8987 113.409 43.684C113.689 43.4693 113.899 43.1987 114.039 42.872C114.179 42.536 114.253 42.1953 114.263 41.85C114.272 41.7007 114.277 41.5233 114.277 41.318C114.277 41.1033 114.272 40.9213 114.263 40.772C114.253 40.4453 114.174 40.1233 114.025 39.806C113.885 39.4887 113.67 39.2273 113.381 39.022C113.101 38.8167 112.737 38.714 112.289 38.714C111.813 38.714 111.435 38.8213 111.155 39.036C110.875 39.2413 110.674 39.5167 110.553 39.862C110.431 40.198 110.361 40.562 110.343 40.954C110.333 41.2247 110.333 41.4953 110.343 41.766C110.361 42.158 110.431 42.5267 110.553 42.872C110.674 43.208 110.875 43.4833 111.155 43.698C111.435 43.9033 111.813 44.006 112.289 44.006ZM120.643 45.14C119.934 45.14 119.341 45.0047 118.865 44.734C118.389 44.4633 118.025 44.09 117.773 43.614C117.521 43.1287 117.381 42.578 117.353 41.962C117.344 41.8033 117.339 41.6027 117.339 41.36C117.339 41.108 117.344 40.9073 117.353 40.758C117.381 40.1327 117.521 39.582 117.773 39.106C118.034 38.63 118.403 38.2567 118.879 37.986C119.355 37.7153 119.943 37.58 120.643 37.58C121.343 37.58 121.931 37.7153 122.407 37.986C122.883 38.2567 123.247 38.63 123.499 39.106C123.76 39.582 123.905 40.1327 123.933 40.758C123.942 40.9073 123.947 41.108 123.947 41.36C123.947 41.6027 123.942 41.8033 123.933 41.962C123.905 42.578 123.765 43.1287 123.513 43.614C123.261 44.09 122.897 44.4633 122.421 44.734C121.945 45.0047 121.352 45.14 120.643 45.14ZM120.643 44.062C121.222 44.062 121.684 43.88 122.029 43.516C122.374 43.1427 122.561 42.6013 122.589 41.892C122.598 41.752 122.603 41.5747 122.603 41.36C122.603 41.1453 122.598 40.968 122.589 40.828C122.561 40.1187 122.374 39.582 122.029 39.218C121.684 38.8447 121.222 38.658 120.643 38.658C120.064 38.658 119.598 38.8447 119.243 39.218C118.898 39.582 118.716 40.1187 118.697 40.828C118.688 40.968 118.683 41.1453 118.683 41.36C118.683 41.5747 118.688 41.752 118.697 41.892C118.716 42.6013 118.898 43.1427 119.243 43.516C119.598 43.88 120.064 44.062 120.643 44.062ZM130.023 47.66C129.948 47.66 129.883 47.632 129.827 47.576C129.771 47.52 129.743 47.4547 129.743 47.38C129.743 47.3427 129.748 47.3053 129.757 47.268C129.766 47.2307 129.785 47.184 129.813 47.128L130.891 44.566L128.217 38.252C128.17 38.14 128.147 38.0607 128.147 38.014C128.147 37.93 128.175 37.86 128.231 37.804C128.287 37.748 128.357 37.72 128.441 37.72H129.127C129.22 37.72 129.295 37.7433 129.351 37.79C129.407 37.8367 129.444 37.8927 129.463 37.958L131.591 43.054L133.775 37.958C133.803 37.8927 133.84 37.8367 133.887 37.79C133.943 37.7433 134.022 37.72 134.125 37.72H134.783C134.867 37.72 134.937 37.748 134.993 37.804C135.049 37.86 135.077 37.9253 135.077 38C135.077 38.0467 135.054 38.1307 135.007 38.252L131.031 47.422C131.003 47.4873 130.961 47.5433 130.905 47.59C130.858 47.6367 130.784 47.66 130.681 47.66H130.023ZM139.196 45.14C138.486 45.14 137.894 45.0047 137.418 44.734C136.942 44.4633 136.578 44.09 136.326 43.614C136.074 43.1287 135.934 42.578 135.906 41.962C135.896 41.8033 135.892 41.6027 135.892 41.36C135.892 41.108 135.896 40.9073 135.906 40.758C135.934 40.1327 136.074 39.582 136.326 39.106C136.587 38.63 136.956 38.2567 137.432 37.986C137.908 37.7153 138.496 37.58 139.196 37.58C139.896 37.58 140.484 37.7153 140.96 37.986C141.436 38.2567 141.8 38.63 142.052 39.106C142.313 39.582 142.458 40.1327 142.486 40.758C142.495 40.9073 142.5 41.108 142.5 41.36C142.5 41.6027 142.495 41.8033 142.486 41.962C142.458 42.578 142.318 43.1287 142.066 43.614C141.814 44.09 141.45 44.4633 140.974 44.734C140.498 45.0047 139.905 45.14 139.196 45.14ZM139.196 44.062C139.774 44.062 140.236 43.88 140.582 43.516C140.927 43.1427 141.114 42.6013 141.142 41.892C141.151 41.752 141.156 41.5747 141.156 41.36C141.156 41.1453 141.151 40.968 141.142 40.828C141.114 40.1187 140.927 39.582 140.582 39.218C140.236 38.8447 139.774 38.658 139.196 38.658C138.617 38.658 138.15 38.8447 137.796 39.218C137.45 39.582 137.268 40.1187 137.25 40.828C137.24 40.968 137.236 41.1453 137.236 41.36C137.236 41.5747 137.24 41.752 137.25 41.892C137.268 42.6013 137.45 43.1427 137.796 43.516C138.15 43.88 138.617 44.062 139.196 44.062ZM146.969 45.14C146.371 45.14 145.863 45.0093 145.443 44.748C145.032 44.4773 144.719 44.104 144.505 43.628C144.29 43.152 144.183 42.606 144.183 41.99V38.042C144.183 37.9487 144.211 37.874 144.267 37.818C144.332 37.7527 144.411 37.72 144.505 37.72H145.205C145.298 37.72 145.373 37.7527 145.429 37.818C145.494 37.874 145.527 37.9487 145.527 38.042V41.92C145.527 43.3107 146.133 44.006 147.347 44.006C147.925 44.006 148.387 43.824 148.733 43.46C149.087 43.0867 149.265 42.5733 149.265 41.92V38.042C149.265 37.9487 149.293 37.874 149.349 37.818C149.414 37.7527 149.493 37.72 149.587 37.72H150.273C150.375 37.72 150.455 37.7527 150.511 37.818C150.567 37.874 150.595 37.9487 150.595 38.042V44.678C150.595 44.7713 150.567 44.8507 150.511 44.916C150.455 44.972 150.375 45 150.273 45H149.629C149.535 45 149.456 44.972 149.391 44.916C149.335 44.8507 149.307 44.7713 149.307 44.678V44.062C149.055 44.3887 148.747 44.65 148.383 44.846C148.028 45.042 147.557 45.14 146.969 45.14ZM156.428 45C156.335 45 156.256 44.972 156.19 44.916C156.134 44.8507 156.106 44.7713 156.106 44.678V38.042C156.106 37.9487 156.134 37.874 156.19 37.818C156.256 37.7527 156.335 37.72 156.428 37.72H157.086C157.18 37.72 157.254 37.7527 157.31 37.818C157.376 37.874 157.408 37.9487 157.408 38.042V38.658C157.651 38.3407 157.954 38.084 158.318 37.888C158.692 37.6827 159.168 37.58 159.746 37.58C160.353 37.58 160.866 37.7153 161.286 37.986C161.716 38.2473 162.038 38.616 162.252 39.092C162.467 39.5587 162.574 40.1047 162.574 40.73V44.678C162.574 44.7713 162.546 44.8507 162.49 44.916C162.434 44.972 162.36 45 162.266 45H161.566C161.473 45 161.394 44.972 161.328 44.916C161.272 44.8507 161.244 44.7713 161.244 44.678V40.8C161.244 40.1467 161.086 39.638 160.768 39.274C160.451 38.9007 159.984 38.714 159.368 38.714C158.79 38.714 158.323 38.9007 157.968 39.274C157.623 39.638 157.45 40.1467 157.45 40.8V44.678C157.45 44.7713 157.418 44.8507 157.352 44.916C157.296 44.972 157.222 45 157.128 45H156.428ZM167.495 45.14C166.533 45.14 165.768 44.846 165.199 44.258C164.629 43.6607 164.317 42.8487 164.261 41.822C164.251 41.7007 164.247 41.5467 164.247 41.36C164.247 41.164 164.251 41.0053 164.261 40.884C164.298 40.2213 164.452 39.6427 164.723 39.148C164.993 38.644 165.362 38.2567 165.829 37.986C166.305 37.7153 166.86 37.58 167.495 37.58C168.204 37.58 168.797 37.7293 169.273 38.028C169.758 38.3267 170.127 38.7513 170.379 39.302C170.631 39.8527 170.757 40.4967 170.757 41.234V41.472C170.757 41.5747 170.724 41.654 170.659 41.71C170.603 41.766 170.528 41.794 170.435 41.794H165.591C165.591 41.8033 165.591 41.822 165.591 41.85C165.591 41.878 165.591 41.9013 165.591 41.92C165.609 42.3027 165.693 42.662 165.843 42.998C165.992 43.3247 166.207 43.5907 166.487 43.796C166.767 44.0013 167.103 44.104 167.495 44.104C167.831 44.104 168.111 44.0527 168.335 43.95C168.559 43.8473 168.741 43.7353 168.881 43.614C169.021 43.4833 169.114 43.3853 169.161 43.32C169.245 43.1987 169.31 43.1287 169.357 43.11C169.403 43.082 169.478 43.068 169.581 43.068H170.253C170.346 43.068 170.421 43.096 170.477 43.152C170.542 43.1987 170.57 43.2687 170.561 43.362C170.551 43.502 170.477 43.6747 170.337 43.88C170.197 44.076 169.996 44.272 169.735 44.468C169.473 44.664 169.156 44.8273 168.783 44.958C168.409 45.0793 167.98 45.14 167.495 45.14ZM165.591 40.828H169.427V40.786C169.427 40.366 169.347 39.9927 169.189 39.666C169.039 39.3393 168.82 39.0827 168.531 38.896C168.241 38.7 167.896 38.602 167.495 38.602C167.093 38.602 166.748 38.7 166.459 38.896C166.179 39.0827 165.964 39.3393 165.815 39.666C165.665 39.9927 165.591 40.366 165.591 40.786V40.828ZM175.329 45.14C174.367 45.14 173.602 44.846 173.033 44.258C172.463 43.6607 172.151 42.8487 172.095 41.822C172.085 41.7007 172.081 41.5467 172.081 41.36C172.081 41.164 172.085 41.0053 172.095 40.884C172.132 40.2213 172.286 39.6427 172.557 39.148C172.827 38.644 173.196 38.2567 173.663 37.986C174.139 37.7153 174.694 37.58 175.329 37.58C176.038 37.58 176.631 37.7293 177.107 38.028C177.592 38.3267 177.961 38.7513 178.213 39.302C178.465 39.8527 178.591 40.4967 178.591 41.234V41.472C178.591 41.5747 178.558 41.654 178.493 41.71C178.437 41.766 178.362 41.794 178.269 41.794H173.425C173.425 41.8033 173.425 41.822 173.425 41.85C173.425 41.878 173.425 41.9013 173.425 41.92C173.443 42.3027 173.527 42.662 173.677 42.998C173.826 43.3247 174.041 43.5907 174.321 43.796C174.601 44.0013 174.937 44.104 175.329 44.104C175.665 44.104 175.945 44.0527 176.169 43.95C176.393 43.8473 176.575 43.7353 176.715 43.614C176.855 43.4833 176.948 43.3853 176.995 43.32C177.079 43.1987 177.144 43.1287 177.191 43.11C177.237 43.082 177.312 43.068 177.415 43.068H178.087C178.18 43.068 178.255 43.096 178.311 43.152C178.376 43.1987 178.404 43.2687 178.395 43.362C178.385 43.502 178.311 43.6747 178.171 43.88C178.031 44.076 177.83 44.272 177.569 44.468C177.307 44.664 176.99 44.8273 176.617 44.958C176.243 45.0793 175.814 45.14 175.329 45.14ZM173.425 40.828H177.261V40.786C177.261 40.366 177.181 39.9927 177.023 39.666C176.873 39.3393 176.654 39.0827 176.365 38.896C176.075 38.7 175.73 38.602 175.329 38.602C174.927 38.602 174.582 38.7 174.293 38.896C174.013 39.0827 173.798 39.3393 173.649 39.666C173.499 39.9927 173.425 40.366 173.425 40.786V40.828ZM182.925 45.14C182.411 45.14 181.968 45.0513 181.595 44.874C181.221 44.6873 180.913 44.44 180.671 44.132C180.437 43.8147 180.26 43.4553 180.139 43.054C180.027 42.6527 179.961 42.228 179.943 41.78C179.933 41.6307 179.929 41.4907 179.929 41.36C179.929 41.2293 179.933 41.0893 179.943 40.94C179.961 40.5013 180.027 40.0813 180.139 39.68C180.26 39.2787 180.437 38.9193 180.671 38.602C180.913 38.2847 181.221 38.0373 181.595 37.86C181.968 37.6733 182.411 37.58 182.925 37.58C183.475 37.58 183.933 37.678 184.297 37.874C184.661 38.07 184.959 38.3127 185.193 38.602V35.382C185.193 35.2887 185.221 35.214 185.277 35.158C185.342 35.0927 185.421 35.06 185.515 35.06H186.187C186.28 35.06 186.355 35.0927 186.411 35.158C186.476 35.214 186.509 35.2887 186.509 35.382V44.678C186.509 44.7713 186.476 44.8507 186.411 44.916C186.355 44.972 186.28 45 186.187 45H185.557C185.454 45 185.375 44.972 185.319 44.916C185.263 44.8507 185.235 44.7713 185.235 44.678V44.09C185.001 44.3887 184.698 44.6407 184.325 44.846C183.951 45.042 183.485 45.14 182.925 45.14ZM183.219 44.006C183.685 44.006 184.059 43.8987 184.339 43.684C184.619 43.4693 184.829 43.1987 184.969 42.872C185.109 42.536 185.183 42.1953 185.193 41.85C185.202 41.7007 185.207 41.5233 185.207 41.318C185.207 41.1033 185.202 40.9213 185.193 40.772C185.183 40.4453 185.104 40.1233 184.955 39.806C184.815 39.4887 184.6 39.2273 184.311 39.022C184.031 38.8167 183.667 38.714 183.219 38.714C182.743 38.714 182.365 38.8213 182.085 39.036C181.805 39.2413 181.604 39.5167 181.483 39.862C181.361 40.198 181.291 40.562 181.273 40.954C181.263 41.2247 181.263 41.4953 181.273 41.766C181.291 42.158 181.361 42.5267 181.483 42.872C181.604 43.208 181.805 43.4833 182.085 43.698C182.365 43.9033 182.743 44.006 183.219 44.006ZM194.388 42.704C194.304 42.704 194.234 42.6807 194.178 42.634C194.122 42.578 194.094 42.5033 194.094 42.41C194.094 42.3167 194.094 42.2233 194.094 42.13C194.094 42.0367 194.094 41.9433 194.094 41.85C194.113 41.4487 194.202 41.094 194.36 40.786C194.519 40.478 194.71 40.198 194.934 39.946C195.168 39.694 195.401 39.456 195.634 39.232C195.868 38.9987 196.064 38.7653 196.222 38.532C196.39 38.2987 196.493 38.0513 196.53 37.79C196.568 37.454 196.502 37.174 196.334 36.95C196.166 36.7167 195.938 36.5393 195.648 36.418C195.359 36.2967 195.06 36.236 194.752 36.236C194.258 36.236 193.833 36.3667 193.478 36.628C193.133 36.88 192.904 37.3093 192.792 37.916C192.764 38.028 192.718 38.1073 192.652 38.154C192.587 38.2007 192.512 38.224 192.428 38.224H191.756C191.672 38.224 191.598 38.196 191.532 38.14C191.476 38.084 191.448 38.0093 191.448 37.916C191.458 37.5333 191.542 37.1693 191.7 36.824C191.859 36.4787 192.083 36.1753 192.372 35.914C192.671 35.6527 193.021 35.4473 193.422 35.298C193.833 35.1393 194.29 35.06 194.794 35.06C195.364 35.06 195.849 35.1393 196.25 35.298C196.661 35.4473 196.988 35.6527 197.23 35.914C197.482 36.166 197.664 36.446 197.776 36.754C197.888 37.062 197.935 37.37 197.916 37.678C197.888 38.0513 197.795 38.3873 197.636 38.686C197.478 38.9753 197.286 39.246 197.062 39.498C196.838 39.7407 196.61 39.9833 196.376 40.226C196.152 40.4593 195.956 40.7067 195.788 40.968C195.63 41.22 195.541 41.4953 195.522 41.794C195.513 41.8967 195.504 41.9993 195.494 42.102C195.494 42.1953 195.494 42.2887 195.494 42.382C195.476 42.4847 195.438 42.564 195.382 42.62C195.326 42.676 195.247 42.704 195.144 42.704H194.388ZM194.276 45C194.183 45 194.104 44.972 194.038 44.916C193.982 44.8507 193.954 44.7713 193.954 44.678V43.824C193.954 43.7307 193.982 43.656 194.038 43.6C194.104 43.5347 194.183 43.502 194.276 43.502H195.186C195.289 43.502 195.368 43.5347 195.424 43.6C195.49 43.656 195.522 43.7307 195.522 43.824V44.678C195.522 44.7713 195.49 44.8507 195.424 44.916C195.368 44.972 195.289 45 195.186 45H194.276Z" fill="#101828"/>
<rect x="24.5" y="65.5" width="269" height="69" rx="3.5" fill="#F1FFFF" stroke="#101828"/>
<rect x="32" y="73" width="254" height="12" rx="1" fill="#4CC3C7"/>
<rect x="32" y="113" width="254" height="12" rx="1" fill="#4CC3C7"/>
<rect x="32" y="93" width="254" height="12" rx="1" fill="#4CC3C7"/>
</svg>
