<svg viewBox="0 0 21 21" fill="none" xmlns="http://www.w3.org/2000/svg">
    <path
        d="M4.38216 12.5826L4.70675 12.258C4.81148 12.1532 4.87044 12.0112 4.87044 11.8631V8.76107C4.87044 5.53941 7.48212 2.92774 10.7038 2.92773C13.9254 2.92773 16.5371 5.5394 16.5371 8.76107V11.8631C16.5371 12.0112 16.596 12.1532 16.7007 12.258L17.0253 12.5826C17.1247 12.682 17.1745 12.7317 17.2141 12.7869C17.289 12.8912 17.3387 13.0113 17.3595 13.138C17.3705 13.205 17.3706 13.2753 17.3706 13.4159C17.3706 13.7372 17.3706 13.8979 17.3269 14.0275C17.2437 14.274 17.0501 14.4675 16.8036 14.5507C16.674 14.5944 16.5131 14.5944 16.1918 14.5944H5.21549C4.89421 14.5944 4.73351 14.5944 4.60392 14.5507C4.35737 14.4675 4.16398 14.274 4.08082 14.0274C4.03711 13.8979 4.03711 13.7372 4.03711 13.4159C4.03711 13.2753 4.03711 13.205 4.04811 13.138C4.0689 13.0113 4.11849 12.8912 4.19336 12.7869C4.23298 12.7317 4.28274 12.682 4.38216 12.5826ZM13.2038 14.5944V15.4277C13.2038 16.8084 12.0845 17.9277 10.7038 17.9277C9.32306 17.9277 8.20378 16.8084 8.20378 15.4277V14.5944H13.2038Z"
        stroke="currentColor" stroke-width="1.5" stroke-linecap="round" stroke-linejoin="round" />
</svg>