<svg viewBox="0 0 21 21" fill="none" xmlns="http://www.w3.org/2000/svg">
    <path
        d="M4.382 12.582l.325-.324a.559.559 0 00.163-.395V8.761a5.833 5.833 0 0111.667 0v3.102c0 .148.059.29.163.395l.325.325.002.002c.098.098.148.147.187.202a.832.832 0 01.145.35c.011.068.011.138.011.279 0 .321 0 .482-.043.611a.833.833 0 01-.524.524c-.13.043-.29.043-.611.043h-2.989v.834a2.5 2.5 0 01-5 0v-.834H5.216c-.321 0-.482 0-.611-.043a.833.833 0 01-.523-.524c-.044-.13-.044-.29-.044-.611 0-.14 0-.211.01-.278a.832.832 0 01.146-.351c.04-.055.09-.105.188-.204h0z"
        fill="currentColor" stroke="currentColor" stroke-width="1.5" stroke-linecap="round" stroke-linejoin="round" />
</svg>