<svg viewBox="0 0 21 21" fill="none" xmlns="http://www.w3.org/2000/svg">
    <path d="M4 8l6.5-5L17 8v10h-4.5v-6.5h-5V18H4V8z" fill="currentColor" />
    <path
        d="M16.922 7.094l-5-4.383a2.5 2.5 0 00-3.334 0l-5 4.383a2.5 2.5 0 00-.833 1.883v7.284a2.5 2.5 0 002.5 2.5h10a2.5 2.5 0 002.5-2.5V8.969a2.5 2.5 0 00-.833-1.875zm-5 10H8.588v-4.167a.833.833 0 01.834-.833h1.666a.834.834 0 01.834.834v4.166zm4.166-.833a.833.833 0 01-.833.833h-1.667v-4.167a2.5 2.5 0 00-2.5-2.5H9.422a2.5 2.5 0 00-2.5 2.5v4.167H5.255a.833.833 0 01-.833-.833V8.969a.833.833 0 01.283-.625l5-4.375a.833.833 0 011.1 0l5 4.375a.832.832 0 01.283.625v7.292z"
        fill="currentColor" />
</svg>