<svg viewBox="0 0 32 32" fill="none" xmlns="http://www.w3.org/2000/svg">
    <path fill-rule="evenodd" clip-rule="evenodd"
        d="M27.2018 18.106C27.6787 18.3593 28.0466 18.7593 28.3055 19.1593C28.8097 19.986 28.7688 20.9993 28.2783 21.8927L27.3245 23.4927C26.8203 24.346 25.8801 24.8793 24.9126 24.8793C24.4357 24.8793 23.9043 24.746 23.4683 24.4793C23.114 24.2527 22.7052 24.1727 22.2692 24.1727C20.9202 24.1727 19.7892 25.2793 19.7483 26.5993C19.7483 28.1327 18.4947 29.3327 16.9277 29.3327H15.0746C13.494 29.3327 12.2404 28.1327 12.2404 26.5993C12.2131 25.2793 11.0822 24.1727 9.73317 24.1727C9.28351 24.1727 8.87472 24.2527 8.53407 24.4793C8.09803 24.746 7.55299 24.8793 7.0897 24.8793C6.10862 24.8793 5.16842 24.346 4.66426 23.4927L3.72406 21.8927C3.21989 21.026 3.19264 19.986 3.69681 19.1593C3.91482 18.7593 4.32361 18.3593 4.78689 18.106C5.16842 17.9193 5.41369 17.6127 5.64534 17.2527C6.32664 16.106 5.91786 14.5993 4.75964 13.9193C3.41066 13.1593 2.97462 11.466 3.75131 10.146L4.66426 8.57268C5.45457 7.25268 7.14421 6.78602 8.50682 7.55935C9.69229 8.19935 11.232 7.77268 11.927 6.63935C12.145 6.26602 12.2676 5.86602 12.2404 5.46602C12.2131 4.94602 12.363 4.45268 12.6219 4.05268C13.1261 3.22602 14.039 2.69268 15.0337 2.66602H16.955C17.9633 2.66602 18.8763 3.22602 19.3804 4.05268C19.6257 4.45268 19.7892 4.94602 19.7483 5.46602C19.7211 5.86602 19.8437 6.26602 20.0617 6.63935C20.7567 7.77268 22.2964 8.19935 23.4955 7.55935C24.8445 6.78602 26.5478 7.25268 27.3245 8.57268L28.2374 10.146C29.0277 11.466 28.5917 13.1593 27.2291 13.9193C26.0709 14.5993 25.6621 16.106 26.357 17.2527C26.575 17.6127 26.8203 17.9193 27.2018 18.106ZM12.145 16.0127C12.145 18.106 13.8755 19.7727 16.0148 19.7727C18.1541 19.7727 19.8437 18.106 19.8437 16.0127C19.8437 13.9193 18.1541 12.2393 16.0148 12.2393C13.8755 12.2393 12.145 13.9193 12.145 16.0127Z"
        fill="currentColor" />
</svg>