<svg viewBox="0 0 32 32" fill="none" xmlns="http://www.w3.org/2000/svg">
    <path fill-rule="evenodd" clip-rule="evenodd"
        d="M8.38771 9.14237C9.47701 9.76495 10.8234 9.77369 11.9211 9.16531C13.0188 8.55693 13.7014 7.42359 13.7126 6.19112C13.7029 5.80614 13.8527 5.43363 14.1282 5.15803C14.4036 4.88244 14.7813 4.72709 15.1757 4.72721H16.8187C17.212 4.727 17.5886 4.88271 17.8622 5.15868C18.1357 5.43465 18.2829 5.80724 18.2698 6.19112C18.2997 7.41691 18.9818 8.53883 20.0696 9.15128C21.1573 9.76373 22.4934 9.77811 23.5947 9.18922C24.2907 8.79857 25.179 9.02851 25.5855 9.70452C25.8813 10.1839 26.5149 10.3451 27.0127 10.0676C27.5025 9.7786 27.6718 9.16382 27.3964 8.67392C26.4001 7.06859 24.2876 6.51159 22.5993 7.4091C22.2642 7.59898 21.8652 7.65012 21.4913 7.55114C21.1174 7.45215 20.7995 7.21125 20.6085 6.88209C20.4797 6.66948 20.4133 6.42639 20.4166 6.17941C20.4166 4.23902 18.8058 2.66602 16.8187 2.66602H15.1757C13.2263 2.72314 11.6784 4.28661 11.6858 6.19112C11.6702 6.57017 11.5009 6.9276 11.2152 7.18464C10.9295 7.44167 10.5508 7.5772 10.1627 7.56135C9.90943 7.55541 9.66187 7.48692 9.44309 7.36225C8.95295 7.06473 8.30862 7.21154 8.00394 7.69017C7.69926 8.1688 7.84961 8.798 8.33974 9.09553L8.38771 9.14237ZM15.1757 27.2715C14.3723 27.2715 13.7191 26.6389 13.7126 25.8544C13.7126 23.914 12.1017 22.341 10.1147 22.341C9.49582 22.3368 8.88709 22.4945 8.35174 22.7978C8.01972 22.9952 7.61959 23.0518 7.24383 22.9546C6.86808 22.8573 6.54921 22.6146 6.36092 22.2825L5.53341 20.8888C5.13647 20.2096 5.378 19.3448 6.07309 18.9565C7.71702 17.9836 8.28741 15.9206 7.36832 14.2719C7.07316 13.7479 6.6433 13.3079 6.12106 12.9954C5.42597 12.607 5.18444 11.7422 5.58138 11.063C5.86861 10.6046 5.73666 10.0067 5.28156 9.70452C5.05118 9.55316 4.76852 9.49773 4.49616 9.55048C4.2238 9.60324 3.98421 9.75983 3.83042 9.98559C2.91133 11.6343 3.48172 13.6972 5.12565 14.6701C5.48528 14.8676 5.74181 15.2053 5.83107 15.5987C5.92033 15.992 5.8339 16.4039 5.59337 16.7313C5.46519 16.9441 5.28357 17.1214 5.06569 17.2466C3.42176 18.2195 2.85137 20.2825 3.77046 21.9311L4.58597 23.3248C5.58226 24.9301 7.69482 25.4871 9.38312 24.5896C10.0822 24.2009 10.9716 24.4364 11.3739 25.1166C11.5027 25.3292 11.5691 25.5723 11.5658 25.8193C11.5658 27.7597 13.1766 29.3327 15.1637 29.3327C15.5365 29.3327 15.8809 29.1385 16.0673 28.8232C16.2537 28.508 16.2537 28.1196 16.0673 27.8044C15.8809 27.4891 15.5365 27.2949 15.1637 27.2949L15.1757 27.2715ZM26.2385 16.3701C26.3375 16.7351 26.5817 17.0464 26.9167 17.2349C28.6138 18.2283 29.171 20.3734 28.164 22.0365L27.3485 23.4302C26.3522 25.0355 24.2396 25.5925 22.5513 24.695C22.1027 24.4305 21.5423 24.4251 21.0883 24.6808C20.6344 24.9365 20.3587 25.413 20.3686 25.9247C20.3112 26.4484 19.8586 26.8456 19.3192 26.8456C18.7798 26.8456 18.3273 26.4484 18.2698 25.9247C18.2956 24.6968 18.9761 23.5712 20.0646 22.9559C21.1531 22.3407 22.4915 22.3251 23.5947 22.9149C23.9261 23.1095 24.3243 23.1645 24.698 23.0671C25.0711 22.965 25.3891 22.7257 25.5855 22.3996L26.401 21.0059C26.5959 20.6819 26.6498 20.2952 26.5506 19.9321C26.4515 19.569 26.2076 19.2598 25.8733 19.0736C25.3113 18.7392 24.8581 18.2559 24.5661 17.6799C23.647 16.0313 24.2174 13.9683 25.8613 12.9954C26.3632 12.7362 26.9851 12.906 27.2765 13.3819C27.5697 13.864 27.4089 14.4868 26.9167 14.7755C26.6988 14.9007 26.5172 15.078 26.389 15.2908C26.1936 15.6166 26.1394 16.0051 26.2385 16.3701Z"
        fill="currentColor" />
    <path fill-rule="evenodd" clip-rule="evenodd"
        d="M11.8227 14.3226C12.52 12.6757 14.165 11.6016 15.9899 11.6016C17.1848 11.5985 18.3317 12.0598 19.1778 12.8837C20.0238 13.7077 20.4992 14.8265 20.4992 15.9933C20.5041 17.7754 19.4085 19.3847 17.7239 20.0699C16.0392 20.7552 14.0977 20.3813 12.8056 19.1229C11.5135 17.8644 11.1255 15.9695 11.8227 14.3226ZM13.5913 16.005C13.5913 17.2986 14.6652 18.3473 15.9899 18.3473C17.3146 18.3473 18.3885 17.2986 18.3885 16.005C18.3885 14.7114 17.3146 13.6628 15.9899 13.6628C14.6652 13.6628 13.5913 14.7114 13.5913 16.005Z"
        fill="currentColor" />
</svg>