<svg viewBox="0 0 21 21" fill="none" xmlns="http://www.w3.org/2000/svg">
    <circle cx="9" cy="9" r="6" fill="currentColor" />
    <path
        d="M13.846 12.22a1 1 0 00-1.414 1.415l1.414-1.414zm3.586 6.415a1 1 0 101.414-1.414l-1.414 1.414zm-8.46-5.04A4.833 4.833 0 014.14 8.76h-2a6.833 6.833 0 006.833 6.833v-2zM4.14 8.76a4.833 4.833 0 014.833-4.833v-2A6.833 6.833 0 002.14 8.76h2zm4.833-4.833a4.833 4.833 0 014.834 4.833h2a6.833 6.833 0 00-6.834-6.833v2zm4.834 4.833a4.833 4.833 0 01-4.834 4.833v2a6.833 6.833 0 006.834-6.833h-2zm-1.374 4.874l5 5 1.414-1.414-5-5-1.414 1.414z"
        fill="currentColor" />
</svg>