<svg viewBox="0 0 32 32" fill="none" xmlns="http://www.w3.org/2000/svg">
    <path
        d="M2.11716 26.7902C2.04214 26.7151 2 26.6134 2 26.5073V14.1285C2 14.0224 2.04214 13.9207 2.11716 13.8457C2.19217 13.7707 2.29391 13.7285 2.4 13.7285H4.1368C4.69554 13.7292 5.2312 13.9514 5.62626 14.3465C6.02131 14.7417 6.24347 15.2774 6.244 15.8361V16.0761H10.2892C11.098 16.0739 11.8992 16.2321 12.6464 16.5417C13.3937 16.8512 14.0721 17.3058 14.6424 17.8793L14.6532 17.8905H17.7424C18.3153 17.8912 18.8645 18.119 19.2696 18.5241C19.6747 18.9292 19.9026 19.4784 19.9032 20.0513C19.9027 20.3073 19.8564 20.5612 19.7664 20.8009L25.5784 20.1109C27.2864 19.8421 28.9868 20.6337 29.8904 22.1285C29.944 22.2178 29.9788 22.317 29.9927 22.4202C30.0066 22.5233 29.9993 22.6283 29.9712 22.7285C29.9144 22.9305 29.7752 23.1017 29.5888 23.1981L17.8168 28.5269C17.4184 28.7075 16.9862 28.801 16.5488 28.8013C16.0936 28.8013 15.6392 28.6997 15.2176 28.4973L8.9176 25.4725C8.0844 25.0725 7.1676 24.8485 6.244 24.7957V24.7997C6.24347 25.3585 6.02131 25.8942 5.62626 26.2893C5.2312 26.6844 4.69554 26.9067 4.1368 26.9073H2.4C2.29391 26.9073 2.19217 26.8652 2.11716 26.7902Z"
        fill="currentColor" />
    <path
        d="M18.1051 4.26996C19.288 4.26996 20.2907 4.95236 20.6814 6.04991H15.6117C15.3475 6.04991 15.0957 6.15826 14.9113 6.34849C14.7271 6.53845 14.625 6.79449 14.625 7.05989C14.625 7.32529 14.7271 7.58133 14.9113 7.77129C15.0957 7.96152 15.3475 8.06987 15.6117 8.06987H20.6815C20.2907 9.16743 19.288 9.84982 18.1053 9.84982H15.6117V9.84957L15.6007 9.85006C15.4008 9.85894 15.2085 9.92784 15.0473 10.0473C14.8863 10.1667 14.7637 10.3312 14.6934 10.5198C14.6231 10.7083 14.6077 10.9136 14.649 11.1106C14.6904 11.3077 14.7868 11.4891 14.9276 11.6321L14.9276 11.6321L14.9311 11.6355L21.162 17.7167C21.1622 17.7169 21.1625 17.7171 21.1627 17.7174C21.2559 17.8094 21.3662 17.882 21.4874 17.9306C21.609 17.9793 21.739 18.0029 21.8699 17.9997L21.8638 17.7498L21.8699 17.9997C22.0007 17.9965 22.1294 17.9667 22.2486 17.9122C22.3677 17.8576 22.4746 17.7796 22.5635 17.6829L22.5636 17.6829L22.5668 17.6792C22.7438 17.479 22.8375 17.2173 22.8303 16.9493C22.8232 16.6813 22.7156 16.4251 22.528 16.235L22.528 16.235L22.5251 16.2321L18.0759 11.8698H18.1044C19.2172 11.8747 20.2947 11.474 21.1471 10.7401C21.9468 10.0517 22.4999 9.11192 22.7249 8.06987H24.3255C24.5898 8.06987 24.8416 7.96152 25.026 7.77129C25.2101 7.58133 25.3123 7.32529 25.3123 7.05989C25.3123 6.79449 25.2101 6.53845 25.026 6.34849C24.8416 6.15826 24.5898 6.04991 24.3255 6.04991H22.7264C22.5908 5.40554 22.324 4.79898 21.9447 4.26996H24.3258C24.59 4.26996 24.8418 4.16161 25.0262 3.97138C25.2104 3.78142 25.3125 3.52538 25.3125 3.25998C25.3125 2.99458 25.2104 2.73854 25.0262 2.54858C24.8418 2.35836 24.59 2.25 24.3258 2.25H15.6117C15.3475 2.25 15.0957 2.35835 14.9113 2.54858C14.7271 2.73854 14.625 2.99458 14.625 3.25998C14.625 3.52538 14.7271 3.78142 14.9113 3.97138C15.0957 4.16161 15.3475 4.26996 15.6117 4.26996H18.1051Z"
        fill="currentColor" stroke="currentColor" stroke-width="0.5" />
</svg>