<svg viewBox="0 0 32 33" fill="none" xmlns="http://www.w3.org/2000/svg">
    <path
        d="M29.3333 11.8594V5.80602C29.3333 3.92602 28.48 3.16602 26.36 3.16602H20.9733C18.8533 3.16602 18 3.92602 18 5.80602V11.846C18 13.7393 18.8533 14.486 20.9733 14.486H26.36C28.48 14.4993 29.3333 13.7393 29.3333 11.8594Z"
        fill="currentColor" />
    <path
        d="M29.3333 26.86V21.4733C29.3333 19.3533 28.48 18.5 26.36 18.5H20.9733C18.8533 18.5 18 19.3533 18 21.4733V26.86C18 28.98 18.8533 29.8333 20.9733 29.8333H26.36C28.48 29.8333 29.3333 28.98 29.3333 26.86Z"
        fill="currentColor" />
    <path
        d="M14.0013 11.8594V5.80602C14.0013 3.92602 13.148 3.16602 11.028 3.16602H5.6413C3.5213 3.16602 2.66797 3.92602 2.66797 5.80602V11.846C2.66797 13.7393 3.5213 14.486 5.6413 14.486H11.028C13.148 14.4993 14.0013 13.7393 14.0013 11.8594Z"
        fill="currentColor" />
    <path
        d="M14.0013 26.86V21.4733C14.0013 19.3533 13.148 18.5 11.028 18.5H5.6413C3.5213 18.5 2.66797 19.3533 2.66797 21.4733V26.86C2.66797 28.98 3.5213 29.8333 5.6413 29.8333H11.028C13.148 29.8333 14.0013 28.98 14.0013 26.86Z"
        fill="currentColor" />
</svg>