<svg viewBox="0 0 32 33" fill="none" xmlns="http://www.w3.org/2000/svg">
    <path fill-rule="evenodd" clip-rule="evenodd"
        d="M3.59162 2.38672H19.8577C21.4206 2.38672 22.6994 3.66547 22.6994 5.22834V13.2534H22.4984C21.5239 13.2534 20.7285 14.0489 20.7285 15.0233V15.9557C20.7285 16.4528 20.9356 16.9035 21.2679 17.2256C20.9356 17.5477 20.7285 17.9983 20.7285 18.4955V19.4278C20.7285 19.925 20.9356 20.3756 21.2679 20.6977C20.9356 21.0198 20.7285 21.4705 20.7285 21.9677V22.9C20.7285 23.3972 20.9356 23.8478 21.2679 24.1699C20.9356 24.492 20.7285 24.9426 20.7285 25.4398V26.3721C20.7285 26.8693 20.9356 27.3199 21.2679 27.642C20.9831 27.9182 20.7902 28.2887 20.7409 28.702C20.456 28.7959 20.1578 28.8437 19.8577 28.8436H3.59162C2.02869 28.8436 0.75 27.5648 0.75 26.002V5.22834C0.75 3.66547 2.02869 2.38672 3.59162 2.38672ZM4.53888 6.46547C4.17906 6.46547 3.88562 6.75891 3.88562 7.11872V9.68278C3.88562 10.0426 4.17906 10.336 4.53888 10.336H18.9106C19.2704 10.336 19.5638 10.0426 19.5638 9.68278V7.11872C19.5638 6.75891 19.2704 6.46547 18.9106 6.46547H4.53888ZM5.13906 13.4472C4.77925 13.4472 4.48581 13.7406 4.48581 14.1004V14.9497C4.48581 15.3095 4.77925 15.6029 5.13906 15.6029H7.58063C7.94044 15.6029 8.23387 15.3095 8.23387 14.9497V14.1004C8.23387 13.7406 7.94044 13.4472 7.58063 13.4472H5.13906ZM15.8688 22.6091C15.5089 22.6091 15.2155 22.9025 15.2155 23.2623V24.1116C15.2155 24.4714 15.5089 24.7648 15.8688 24.7648H18.3103C18.6701 24.7648 18.9636 24.4714 18.9636 24.1116V23.2623C18.9636 22.9025 18.6701 22.6091 18.3103 22.6091H15.8688ZM10.5039 22.6091C10.1441 22.6091 9.85063 22.9025 9.85063 23.2623V24.1116C9.85063 24.4714 10.1441 24.7648 10.5039 24.7648H12.9454C13.3053 24.7648 13.5987 24.4714 13.5987 24.1116V23.2623C13.5987 22.9025 13.3053 22.6091 12.9454 22.6091H10.5039ZM5.13906 22.6091C4.77925 22.6091 4.48581 22.9025 4.48581 23.2623V24.1116C4.48581 24.4714 4.77925 24.7648 5.13906 24.7648H7.58063C7.94044 24.7648 8.23387 24.4714 8.23387 24.1116V23.2623C8.23387 22.9025 7.94044 22.6091 7.58063 22.6091H5.13906ZM15.8688 18.0282C15.5089 18.0282 15.2155 18.3216 15.2155 18.6814V19.5307C15.2155 19.8905 15.5089 20.1839 15.8688 20.1839H18.3103C18.6701 20.1839 18.9636 19.8905 18.9636 19.5307V18.6814C18.9636 18.3216 18.6701 18.0282 18.3103 18.0282H15.8688ZM10.5039 18.0282C10.1441 18.0282 9.85063 18.3216 9.85063 18.6814V19.5307C9.85063 19.8905 10.1441 20.1839 10.5039 20.1839H12.9454C13.3053 20.1839 13.5987 19.8905 13.5987 19.5307V18.6814C13.5987 18.3216 13.3053 18.0282 12.9454 18.0282H10.5039ZM5.13906 18.0282C4.77925 18.0282 4.48581 18.3216 4.48581 18.6814V19.5307C4.48581 19.8905 4.77925 20.1839 5.13906 20.1839H7.58063C7.94044 20.1839 8.23387 19.8905 8.23387 19.5307V18.6814C8.23387 18.3216 7.94044 18.0282 7.58063 18.0282H5.13906ZM15.8688 13.4472C15.5089 13.4472 15.2155 13.7406 15.2155 14.1004V14.9497C15.2155 15.3095 15.5089 15.6029 15.8688 15.6029H18.3103C18.6701 15.6029 18.9636 15.3095 18.9636 14.9497V14.1004C18.9636 13.7406 18.6701 13.4472 18.3103 13.4472H15.8688ZM10.5039 13.4472C10.1441 13.4472 9.85063 13.7406 9.85063 14.1004V14.9497C9.85063 15.3095 10.1441 15.6029 10.5039 15.6029H12.9454C13.3053 15.6029 13.5987 15.3095 13.5987 14.9497V14.1004C13.5987 13.7406 13.3053 13.4472 12.9454 13.4472H10.5039Z"
        fill="currentColor" />
    <path
        d="M30.4783 30.6147H22.4964C22.074 30.6147 21.7266 30.2672 21.7266 29.8448V28.9125C21.7266 28.49 22.074 28.1425 22.4964 28.1425H30.4783C30.9008 28.1425 31.2482 28.49 31.2482 28.9125V29.8448C31.2482 30.2673 30.9008 30.6147 30.4783 30.6147Z"
        fill="currentColor" />
    <path
        d="M30.4783 27.1426H22.4964C22.074 27.1426 21.7266 26.7951 21.7266 26.3727V25.4403C21.7266 25.0179 22.074 24.6704 22.4964 24.6704H30.4783C30.9008 24.6704 31.2482 25.0178 31.2482 25.4403V26.3727C31.2482 26.7952 30.9008 27.1426 30.4783 27.1426Z"
        fill="currentColor" />
    <path
        d="M30.4783 20.1982H22.4964C22.074 20.1982 21.7266 19.8508 21.7266 19.4283V18.496C21.7266 18.0735 22.074 17.726 22.4964 17.726H30.4783C30.9008 17.726 31.2482 18.0735 31.2482 18.496V19.4283C31.2482 19.8508 30.9008 20.1982 30.4783 20.1982Z"
        fill="currentColor" />
    <path
        d="M30.4783 23.6704H22.4964C22.074 23.6704 21.7266 23.323 21.7266 22.9005V21.9682C21.7266 21.5457 22.074 21.1982 22.4964 21.1982H30.4783C30.9008 21.1982 31.2482 21.5457 31.2482 21.9682V22.9005C31.2482 23.323 30.9008 23.6704 30.4783 23.6704Z"
        fill="currentColor" />
    <path
        d="M30.4783 16.7261H22.4964C22.074 16.7261 21.7266 16.3787 21.7266 15.9562V15.0238C21.7266 14.6014 22.074 14.2539 22.4964 14.2539H30.4783C30.9008 14.2539 31.2482 14.6013 31.2482 15.0238V15.9562C31.2482 16.3787 30.9008 16.7261 30.4783 16.7261Z"
        fill="currentColor" />
</svg>