<svg viewBox="0 0 32 32" fill="none" xmlns="http://www.w3.org/2000/svg">
    <path
        d="M24.9283 18.0326C24.8608 17.7366 24.6971 17.4571 24.4386 17.2313C24.1787 17.0071 23.8614 16.8719 23.5325 16.8222L18.2438 15.7988L19.7739 16.8143L17.3584 24.3862L15.9982 18.7619L14.6374 24.3863L12.223 16.8145L13.7525 15.799L8.46384 16.8223C8.13488 16.8721 7.81776 17.0071 7.5576 17.2315C7.29904 17.4572 7.1352 17.7367 7.068 18.0327L5.5 24.9201L8.45792 25.9465C9.43984 26.9673 12.1886 27.7182 15.4854 27.7897H16.5107C19.8075 27.7183 22.556 26.9673 23.5382 25.9465L26.4963 24.9201L24.9283 18.0326Z"
        fill="currentColor" />
    <path d="M14.7817 17.0053L16.0008 16.5689L17.2201 17.0053L16.0008 18.7629L14.7817 17.0053Z" fill="currentColor" />
    <path
        d="M16.0008 4.21094C19.2406 4.21094 20.527 6.6607 20.527 9.78662C20.8657 9.96342 21.0881 10.3781 20.7553 11.2674C20.587 11.7137 20.2917 12.0879 20.0403 12.2837C19.1174 14.5826 17.3014 16.3573 16.0008 16.3573C14.7001 16.3573 12.8843 14.5826 11.9609 12.2837C11.7099 12.0879 11.414 11.7138 11.2462 11.2674C10.9134 10.3783 11.136 9.96342 11.4748 9.78662C11.4748 6.66086 12.7606 4.21094 16.0008 4.21094Z"
        fill="currentColor" />
    <path
        d="M5.11296 23.3503C3.6032 23.1719 2.41312 22.7639 1.91792 22.2494L0 21.5838L1.01664 17.1183C1.06032 16.9265 1.16672 16.7451 1.33424 16.599C1.50113 16.4569 1.70481 16.3649 1.92176 16.3337L5.63616 15.483C5.07728 15.005 4.53472 14.2556 4.18768 13.3902C4.0248 13.2634 3.83296 13.0209 3.724 12.7313C3.508 12.1551 3.65232 11.8862 3.87216 11.7713C3.87216 9.74473 4.70544 8.15641 6.8064 8.15641C8.90688 8.15641 9.74112 9.74473 9.74112 11.7713C9.96096 11.8862 10.1053 12.1551 9.8896 12.7313C9.78048 13.0209 9.58864 13.2634 9.42576 13.3902C9.07872 14.2554 8.536 15.0049 7.97728 15.483L9.61968 15.8593L8.34112 16.1065C7.86912 16.1801 7.4344 16.3793 7.08112 16.6844C6.71392 17.0052 6.46432 17.4158 6.36016 17.8721L5.11296 23.3503ZM30.9834 17.1182C30.9394 16.9263 30.8333 16.7449 30.6658 16.5988C30.4974 16.4535 30.2918 16.3655 30.0782 16.3335L26.364 15.4828C26.9229 15.0049 27.4653 14.2554 27.8128 13.39C27.9758 13.2633 28.1672 13.0207 28.2762 12.7311C28.4922 12.155 28.3478 11.886 28.1282 11.7711C28.1282 9.74457 27.2939 8.15625 25.1933 8.15625C23.0925 8.15625 22.2587 9.74457 22.2587 11.7711C22.0392 11.886 21.8947 12.155 22.1107 12.7311C22.2194 13.0207 22.4112 13.2633 22.5741 13.39C22.9214 14.2553 23.464 15.0047 24.0229 15.4828L22.3802 15.8591L23.6587 16.1063C24.1304 16.1799 24.5654 16.3791 24.9157 16.6814C25.2859 17.0049 25.535 17.4156 25.6392 17.8713L26.8866 23.3503C28.3963 23.1719 29.5864 22.7639 30.0818 22.2494L31.9995 21.5838L30.9834 17.1182Z"
        fill="currentColor" />
</svg>