<svg viewBox="0 0 32 32" fill="none" xmlns="http://www.w3.org/2000/svg">
    <path
        d="M19.1998 4.47984V26.8798V28.1598H4.47984C4.31011 28.1598 4.14732 28.0924 4.0273 27.9724C3.90727 27.8524 3.83984 27.6896 3.83984 27.5198C3.83984 27.3501 3.90727 27.1873 4.0273 27.0673C4.14732 26.9473 4.31011 26.8798 4.47984 26.8798H6.39984V4.47984C6.39984 4.31011 6.46727 4.14732 6.5873 4.0273C6.70732 3.90727 6.87011 3.83984 7.03984 3.83984H18.5598C18.7296 3.83984 18.8924 3.90727 19.0124 4.0273C19.1324 4.14732 19.1998 4.31011 19.1998 4.47984Z"
        fill="currentColor" />
    <path
        d="M14.0816 7.67969H15.3616C15.5313 7.67969 15.6941 7.74712 15.8141 7.86714C15.9341 7.98716 16.0016 8.14995 16.0016 8.31969C16.0016 8.48943 15.9341 8.65221 15.8141 8.77224C15.6941 8.89226 15.5313 8.95969 15.3616 8.95969H14.0816C13.9118 8.95969 13.749 8.89226 13.629 8.77224C13.509 8.65221 13.4416 8.48943 13.4416 8.31969C13.4416 8.14995 13.509 7.98716 13.629 7.86714C13.749 7.74712 13.9118 7.67969 14.0816 7.67969ZM14.0816 11.5197H15.3616C15.5313 11.5197 15.6941 11.5871 15.8141 11.7071C15.9341 11.8272 16.0016 11.9899 16.0016 12.1597C16.0016 12.3294 15.9341 12.4922 15.8141 12.6122C15.6941 12.7323 15.5313 12.7997 15.3616 12.7997H14.0816C13.9118 12.7997 13.749 12.7323 13.629 12.6122C13.509 12.4922 13.4416 12.3294 13.4416 12.1597C13.4416 11.9899 13.509 11.8272 13.629 11.7071C13.749 11.5871 13.9118 11.5197 14.0816 11.5197ZM14.0816 15.3597H15.3616C15.5313 15.3597 15.6941 15.4271 15.8141 15.5471C15.9341 15.6672 16.0016 15.8299 16.0016 15.9997C16.0016 16.1694 15.9341 16.3322 15.8141 16.4522C15.6941 16.5723 15.5313 16.6397 15.3616 16.6397H14.0816C13.9118 16.6397 13.749 16.5723 13.629 16.4522C13.509 16.3322 13.4416 16.1694 13.4416 15.9997C13.4416 15.8299 13.509 15.6672 13.629 15.5471C13.749 15.4271 13.9118 15.3597 14.0816 15.3597ZM14.0816 19.1997H15.3616C15.5313 19.1997 15.6941 19.2671 15.8141 19.3871C15.9341 19.5072 16.0016 19.67 16.0016 19.8397C16.0016 20.0094 15.9341 20.1722 15.8141 20.2922C15.6941 20.4123 15.5313 20.4797 15.3616 20.4797H14.0816C13.9118 20.4797 13.749 20.4123 13.629 20.2922C13.509 20.1722 13.4416 20.0094 13.4416 19.8397C13.4416 19.67 13.509 19.5072 13.629 19.3871C13.749 19.2671 13.9118 19.1997 14.0816 19.1997ZM10.1648 7.67969H11.5216C11.6913 7.67969 11.8541 7.74712 11.9741 7.86714C12.0941 7.98716 12.1616 8.14995 12.1616 8.31969C12.1616 8.48943 12.0941 8.65221 11.9741 8.77224C11.8541 8.89226 11.6913 8.95969 11.5216 8.95969H10.2416C10.0718 8.95969 9.90904 8.89226 9.78901 8.77224C9.66899 8.65221 9.60156 8.48943 9.60156 8.31969C9.60156 8.14995 9.66899 7.98716 9.78901 7.86714C9.90904 7.74712 10.0718 7.67969 10.2416 7.67969H10.1648ZM10.1648 11.5197H11.5216C11.6913 11.5197 11.8541 11.5871 11.9741 11.7071C12.0941 11.8272 12.1616 11.9899 12.1616 12.1597C12.1616 12.3294 12.0941 12.4922 11.9741 12.6122C11.8541 12.7323 11.6913 12.7997 11.5216 12.7997H10.2416C10.0718 12.7997 9.90904 12.7323 9.78901 12.6122C9.66899 12.4922 9.60156 12.3294 9.60156 12.1597C9.60156 11.9899 9.66899 11.8272 9.78901 11.7071C9.90904 11.5871 10.0718 11.5197 10.2416 11.5197H10.1648ZM10.1648 15.3597H11.5216C11.6913 15.3597 11.8541 15.4271 11.9741 15.5471C12.0941 15.6672 12.1616 15.8299 12.1616 15.9997C12.1616 16.1694 12.0941 16.3322 11.9741 16.4522C11.8541 16.5723 11.6913 16.6397 11.5216 16.6397H10.2416C10.0718 16.6397 9.90904 16.5723 9.78901 16.4522C9.66899 16.3322 9.60156 16.1694 9.60156 15.9997C9.60156 15.8299 9.66899 15.6672 9.78901 15.5471C9.90904 15.4271 10.0718 15.3597 10.2416 15.3597H10.1648ZM10.1648 19.1997H11.5216C11.6913 19.1997 11.8541 19.2671 11.9741 19.3871C12.0941 19.5072 12.1616 19.67 12.1616 19.8397C12.1616 20.0094 12.0941 20.1722 11.9741 20.2922C11.8541 20.4123 11.6913 20.4797 11.5216 20.4797H10.2416C10.0718 20.4797 9.90904 20.4123 9.78901 20.2922C9.66899 20.1722 9.60156 20.0094 9.60156 19.8397C9.60156 19.67 9.66899 19.5072 9.78901 19.3871C9.90904 19.2671 10.0718 19.1997 10.2416 19.1997H10.1648ZM13.4416 26.8797V24.3197H12.1616V26.8797H10.8816V23.6413C10.8914 23.4783 10.9631 23.3252 11.0821 23.2134C11.201 23.1015 11.3583 23.0394 11.5216 23.0397H14.0816C14.2513 23.0397 14.4141 23.1071 14.5341 23.2271C14.6541 23.3472 14.7216 23.51 14.7216 23.6797V26.8797H13.4416Z"
        fill="white" />
    <path
        d="M25.6005 26.8804H27.5205C27.6902 26.8804 27.853 26.9478 27.973 27.0678C28.093 27.1878 28.1605 27.3506 28.1605 27.5204C28.1605 27.6901 28.093 27.8529 27.973 27.9729C27.853 28.0929 27.6902 28.1604 27.5205 28.1604H20.4805V26.8804V7.00195L25.1653 8.96035C25.2989 9.00298 25.4145 9.0892 25.4934 9.20522C25.5722 9.32124 25.61 9.46037 25.6005 9.60035V26.8804Z"
        fill="currentColor" />
    <path
        d="M23.6778 11.5195H22.3978C22.2281 11.5195 22.0653 11.587 21.9453 11.707C21.8252 11.827 21.7578 11.9898 21.7578 12.1595C21.7611 12.3282 21.8296 12.4891 21.9489 12.6085C22.0682 12.7278 22.2291 12.7963 22.3978 12.7995H23.6778C23.8465 12.7963 24.0074 12.7278 24.1267 12.6085C24.2461 12.4891 24.3145 12.3282 24.3178 12.1595C24.3178 11.9898 24.2504 11.827 24.1304 11.707C24.0103 11.587 23.8476 11.5195 23.6778 11.5195Z"
        fill="white" />
    <path
        d="M23.6778 15.3595H22.3978C22.2281 15.3595 22.0653 15.427 21.9453 15.547C21.8252 15.667 21.7578 15.8298 21.7578 15.9995C21.7578 16.1693 21.8252 16.3321 21.9453 16.4521C22.0653 16.5721 22.2281 16.6395 22.3978 16.6395H23.6778C23.8476 16.6395 24.0103 16.5721 24.1304 16.4521C24.2504 16.3321 24.3178 16.1693 24.3178 15.9995C24.3178 15.8298 24.2504 15.667 24.1304 15.547C24.0103 15.427 23.8476 15.3595 23.6778 15.3595Z"
        fill="white" />
    <path
        d="M23.6778 19.1995H22.3978C22.2291 19.2028 22.0682 19.2713 21.9489 19.3906C21.8296 19.5099 21.7611 19.6708 21.7578 19.8395C21.7578 20.0093 21.8252 20.1721 21.9453 20.2921C22.0653 20.4121 22.2281 20.4795 22.3978 20.4795H23.6778C23.8476 20.4795 24.0103 20.4121 24.1304 20.2921C24.2504 20.1721 24.3178 20.0093 24.3178 19.8395C24.3145 19.6708 24.2461 19.5099 24.1267 19.3906C24.0074 19.2713 23.8465 19.2028 23.6778 19.1995Z"
        fill="white" />
    <path
        d="M23.6778 23.0395H22.3978C22.2281 23.0395 22.0653 23.107 21.9453 23.227C21.8252 23.347 21.7578 23.5098 21.7578 23.6795C21.7578 23.8493 21.8252 24.0121 21.9453 24.1321C22.0653 24.2521 22.2281 24.3195 22.3978 24.3195H23.6778C23.8476 24.3195 24.0103 24.2521 24.1304 24.1321C24.2504 24.0121 24.3178 23.8493 24.3178 23.6795C24.3178 23.5098 24.2504 23.347 24.1304 23.227C24.0103 23.107 23.8476 23.0395 23.6778 23.0395Z"
        fill="white" />
</svg>