<svg viewBox="0 0 32 32" fill="none" xmlns="http://www.w3.org/2000/svg">
    <path fill-rule="evenodd" clip-rule="evenodd"
        d="M19.8546 4.69336C22.8412 4.69336 24.9879 5.96003 25.5612 8.85336C25.6812 9.37336 25.7346 9.93336 25.7346 10.56V17.4267C25.7346 21.5334 23.3879 23.2934 19.8679 23.2934H8.14792C7.54792 23.2934 6.97458 23.24 6.44125 23.12C6.10792 23.0667 5.78792 22.9734 5.49458 22.8667C3.49458 22.12 2.28125 20.3867 2.28125 17.4267V10.56C2.28125 6.45336 4.62792 4.69336 8.14792 4.69336H19.8546ZM6.37458 17C6.92125 17 7.37458 16.5467 7.37458 16V12C7.37458 11.4534 6.92125 11 6.37458 11C5.82792 11 5.37458 11.4534 5.37458 12V16C5.37458 16.5467 5.82792 17 6.37458 17ZM21.6146 17C22.1612 17 22.6146 16.5467 22.6146 16V12C22.6146 11.4534 22.1612 11 21.6146 11C21.0679 11 20.6146 11.4534 20.6146 12V16C20.6146 16.5467 21.0679 17 21.6146 17ZM18.4966 9.10596C18.3881 9.22745 18.2409 9.29571 18.0875 9.29571H15.8069C16.2585 9.83461 16.5583 10.5106 16.6687 11.2393H18.0873C18.2407 11.2393 18.3879 11.3075 18.4964 11.429C18.6049 11.5505 18.6658 11.7153 18.6658 11.8871C18.6658 12.0589 18.6049 12.2237 18.4964 12.3452C18.3879 12.4667 18.2407 12.535 18.0873 12.535H16.6685C16.5243 13.4457 16.0975 14.2702 15.4633 14.8629C14.8291 15.4555 14.0284 15.7783 13.2024 15.7742H12.6989L16.536 19.8582C16.6477 19.9811 16.7126 20.1478 16.7169 20.3231C16.7212 20.4985 16.6647 20.6689 16.5591 20.7986C16.5068 20.8603 16.4441 20.9099 16.3746 20.9445C16.3051 20.979 16.2302 20.9978 16.1542 20.9998C16.0781 21.0018 16.0025 20.987 15.9316 20.9562C15.8608 20.9253 15.796 20.8791 15.7412 20.8202L10.8472 15.6352C10.7634 15.5428 10.7056 15.4251 10.6807 15.2965C10.6559 15.1678 10.6651 15.0338 10.7073 14.911C10.7495 14.7882 10.8229 14.6818 10.9183 14.605C11.0137 14.5281 11.1271 14.4842 11.2446 14.4785H13.2027C14.3029 14.4785 15.2293 13.7227 15.4879 12.535H11.2446C11.0911 12.535 10.944 12.4667 10.8355 12.3452C10.727 12.2237 10.666 12.0589 10.666 11.8871C10.666 11.7153 10.727 11.5505 10.8355 11.429C10.944 11.3075 11.0911 11.2393 11.2446 11.2393H15.4878C15.2293 10.0515 14.3029 9.29571 13.2026 9.29571H11.2446C11.0911 9.29571 10.944 9.22745 10.8355 9.10596C10.727 8.98446 10.666 8.81967 10.666 8.64785C10.666 8.47603 10.727 8.31125 10.8355 8.18975C10.944 8.06826 11.0911 8 11.2446 8H18.0875C18.2409 8 18.3881 8.06826 18.4966 8.18975C18.6051 8.31125 18.666 8.47603 18.666 8.64785C18.666 8.81967 18.6051 8.98446 18.4966 9.10596Z"
        fill="currentColor" />
    <path
        d="M29.733 14.5597V21.4264C29.733 25.5331 27.3864 27.3064 23.853 27.3064H12.1464C11.1464 27.3064 10.253 27.1597 9.47969 26.8664C8.85303 26.6397 8.30636 26.3064 7.86636 25.8797C7.62636 25.6531 7.81303 25.2931 8.14636 25.2931H19.853C24.7864 25.2931 27.7197 22.3597 27.7197 17.4397V10.5597C27.7197 10.2397 28.0797 10.0397 28.3064 10.2797C29.213 11.2397 29.733 12.6397 29.733 14.5597Z"
        fill="currentColor" />
</svg>