<svg viewBox="0 0 32 32" fill="none" xmlns="http://www.w3.org/2000/svg">
    <path
        d="M26.8806 26.7209C26.8806 27.7765 26.0163 28.6405 24.9606 28.6405H10.5606C9.50494 28.6405 8.64062 27.7765 8.64062 26.7209V8.80086C8.64062 7.74454 9.50494 6.88086 10.5606 6.88086H24.9613C26.0173 6.88086 26.8813 7.74486 26.8813 8.80086L26.8806 26.7209Z"
        fill="currentColor" />
    <path
        d="M8 8.79938C8 7 9 6 10.5611 6H23.3497L23.3617 5.27937C23.3617 4.22337 22.4977 3.35938 21.4417 3.35938H7.04109C5.98541 3.35938 5.12109 4.22337 5.12109 5.27937V23.1994C5.12109 24.2551 5.98541 25.1191 7.04109 25.1191H8V8.79938Z"
        fill="currentColor" />
    <path
        d="M13.1206 14.7166H22.72C22.9849 14.7166 23.2 14.5016 23.2 14.2366C23.2 13.9714 22.9849 13.7566 22.72 13.7566H13.1206C12.8557 13.7566 12.6406 13.9714 12.6406 14.2366C12.6406 14.5016 12.8557 14.7166 13.1206 14.7166ZM13.1206 11.5166H22.72C22.9849 11.5166 23.2 11.3016 23.2 11.0366C23.2 10.7714 22.9849 10.5566 22.72 10.5566H13.1206C12.8557 10.5566 12.6406 10.7714 12.6406 11.0366C12.6406 11.3016 12.8557 11.5166 13.1206 11.5166ZM13.1206 17.9166H22.72C22.9849 17.9166 23.2 17.7016 23.2 17.4366C23.2 17.1714 22.9849 16.9566 22.72 16.9566H13.1206C12.8557 16.9566 12.6406 17.1714 12.6406 17.4366C12.6406 17.7016 12.8557 17.9166 13.1206 17.9166Z"
        fill="white" />
    <path
        d="M17.2069 23.2998C17.2533 23.1132 17.2805 22.9193 17.2805 22.7184C17.2805 21.3926 16.2059 20.3184 14.8805 20.3184C13.555 20.3184 12.4805 21.3926 12.4805 22.7184C12.4805 24.0441 13.555 25.1184 14.8805 25.1184C15.0814 25.1184 15.2753 25.0912 15.4616 25.0444L14.8805 22.7184L17.2069 23.2998Z"
        fill="white" />
    <path d="M17.2053 23.2982L14.8789 22.7168L15.46 25.0429C16.3176 24.8288 16.9912 24.1555 17.2053 23.2982Z"
        fill="currentColor" />
    <path opacity="0.5"
        d="M23.3814 21.5838C23.4659 21.6702 23.5183 21.788 23.5183 21.9182V24.7982C23.5183 25.0632 23.3033 25.2782 23.0383 25.2782C22.7734 25.2782 22.5583 25.0632 22.5583 24.7982V23.0005L20.1891 20.6309V20.6321C20.2687 20.7179 20.3183 20.8318 20.3183 20.9582V24.7982C20.3183 25.0632 20.1033 25.2782 19.8383 25.2782C19.5734 25.2782 19.3583 25.0632 19.3583 24.7982V23.8257L16.7484 21.2158C17.0793 21.627 17.2783 22.1493 17.2783 22.7182C17.2783 22.9192 17.2508 23.1131 17.2047 23.2997C16.9907 24.1573 16.3174 24.8305 15.4598 25.0443C15.2735 25.091 15.0796 25.1182 14.8787 25.1182C14.3004 25.1182 13.7699 24.9134 13.3555 24.5729L17.4227 28.6408H24.9583C26.014 28.6408 26.8783 27.7768 26.8783 26.7211V25.0808L23.3814 21.5838Z"
        fill="white" />
    <path
        d="M20.9594 22.8785V24.7985C20.9594 25.0635 21.1744 25.2785 21.4394 25.2785C21.7043 25.2785 21.9194 25.0635 21.9194 24.7985V22.8785C21.9194 22.6132 21.7043 22.3985 21.4394 22.3985C21.1744 22.3985 20.9594 22.6132 20.9594 22.8785ZM19.3594 20.9585V24.7985C19.3594 25.0635 19.5744 25.2785 19.8394 25.2785C20.1043 25.2785 20.3194 25.0635 20.3194 24.7985V20.9585C20.3194 20.6932 20.1043 20.4785 19.8394 20.4785C19.5744 20.4785 19.3594 20.6932 19.3594 20.9585ZM22.5594 21.9185V24.7985C22.5594 25.0635 22.7744 25.2785 23.0394 25.2785C23.3043 25.2785 23.5194 25.0635 23.5194 24.7985V21.9185C23.5194 21.6532 23.3043 21.4385 23.0394 21.4385C22.7744 21.4385 22.5594 21.6532 22.5594 21.9185Z"
        fill="white" />
</svg>