<svg viewBox="0 0 32 33" fill="none" xmlns="http://www.w3.org/2000/svg">
    <path
        d="M8.13528 4H23.8658C24.3888 4 24.8205 4.43992 24.8205 5.04V6.08H7.17846V5.04C7.17846 4.43992 7.61224 4 8.13528 4ZM4.52385 7.12H27.4782L30 13.9455C29.989 14.2127 29.9093 14.4724 29.7686 14.6996C29.6279 14.9268 29.431 15.1137 29.197 15.2422C28.9631 15.3707 28.6999 15.4364 28.4331 15.433C28.1664 15.4295 27.905 15.3571 27.6744 15.2226C27.4376 15.0859 27.241 14.889 27.1043 14.6518C26.9677 14.4146 26.8958 14.1456 26.896 13.8717C26.896 13.854 26.896 13.8363 26.894 13.8197C26.8874 13.7505 26.8671 13.6833 26.8344 13.622C26.8017 13.5607 26.7571 13.5065 26.7034 13.4626C26.6496 13.4187 26.5877 13.3859 26.5212 13.3661C26.4547 13.3464 26.3849 13.34 26.3159 13.3475C26.2388 13.3572 26.1648 13.384 26.0993 13.4259C26.0338 13.4678 25.9784 13.5238 25.9371 13.5898L25.9351 13.5919C25.8864 13.6776 25.86 13.7742 25.8583 13.8727C25.8587 14.1467 25.787 14.416 25.6505 14.6533C25.5139 14.8907 25.3173 15.0878 25.0805 15.2247C24.8437 15.3616 24.575 15.4335 24.3016 15.4332C24.0282 15.4328 23.7598 15.3602 23.5233 15.2226C23.2867 15.086 23.0901 14.8893 22.9535 14.6523C22.8169 14.4153 22.7449 14.1464 22.745 13.8727C22.745 13.855 22.745 13.8374 22.7429 13.8197C22.7362 13.7506 22.7158 13.6835 22.683 13.6223C22.6503 13.5611 22.6057 13.5071 22.552 13.4632C22.4982 13.4194 22.4363 13.3867 22.3699 13.3671C22.3034 13.3474 22.2337 13.3411 22.1649 13.3486C22.0878 13.3582 22.0139 13.3848 21.9484 13.4265C21.8829 13.4682 21.8274 13.524 21.7861 13.5898L21.784 13.5919C21.735 13.6775 21.7083 13.7741 21.7062 13.8727C21.7068 14.1468 21.6353 14.4162 21.4988 14.6537C21.3623 14.8912 21.1657 15.0885 20.9289 15.2255C20.692 15.3625 20.4233 15.4345 20.1498 15.4342C19.8763 15.4339 19.6077 15.3613 19.3712 15.2237C19.1343 15.0868 18.9375 14.8898 18.8009 14.6524C18.6642 14.415 18.5925 14.1457 18.5929 13.8717C18.5929 13.855 18.5929 13.8374 18.5908 13.8197C18.584 13.7507 18.5637 13.6837 18.531 13.6226C18.4983 13.5615 18.4539 13.5074 18.4002 13.4636C18.3466 13.4199 18.2848 13.3871 18.2185 13.3674C18.1522 13.3476 18.0826 13.3412 18.0138 13.3486C17.9365 13.3581 17.8623 13.3848 17.7966 13.4268C17.7309 13.4687 17.6753 13.5247 17.634 13.5909L17.6319 13.593C17.5833 13.6787 17.5569 13.7752 17.5551 13.8738C17.5555 14.1478 17.4839 14.417 17.3473 14.6544C17.2108 14.8918 17.0142 15.0888 16.7773 15.2258C16.5405 15.3627 16.2719 15.4346 15.9985 15.4342C15.725 15.4338 15.4566 15.3612 15.2201 15.2237C14.9833 15.0869 14.7867 14.89 14.6501 14.6529C14.5134 14.4157 14.4416 14.1466 14.4418 13.8727C14.4418 13.855 14.4418 13.8374 14.4397 13.8207C14.4331 13.7515 14.4129 13.6843 14.3802 13.623C14.3474 13.5617 14.3029 13.5075 14.2491 13.4636C14.1954 13.4197 14.1334 13.3869 14.0669 13.3672C14.0004 13.3474 13.9306 13.3411 13.8617 13.3486C13.7846 13.3583 13.7106 13.3851 13.6451 13.427C13.5795 13.4689 13.5242 13.5249 13.4829 13.5909L13.4808 13.593C13.4322 13.6787 13.4058 13.7752 13.404 13.8738C13.4047 14.1478 13.3331 14.4172 13.1966 14.6548C13.0602 14.8923 12.8636 15.0895 12.6267 15.2265C12.3899 15.3636 12.1211 15.4356 11.8476 15.4352C11.5742 15.4349 11.3056 15.3623 11.069 15.2247C10.8321 15.0879 10.6354 14.8908 10.4987 14.6534C10.3621 14.4161 10.2903 14.1468 10.2907 13.8727C10.2907 13.8561 10.2907 13.8384 10.2886 13.8207C10.2819 13.7516 10.2616 13.6845 10.2288 13.6233C10.196 13.5622 10.1515 13.5081 10.0977 13.4643C10.044 13.4205 9.98207 13.3878 9.91563 13.3681C9.84918 13.3484 9.7795 13.3421 9.71061 13.3496C9.63358 13.3592 9.55965 13.3858 9.49414 13.4275C9.42863 13.4693 9.37319 13.5251 9.33183 13.5909L9.32975 13.593C9.28077 13.6786 9.25401 13.7751 9.25192 13.8738C9.25254 14.1478 9.18101 14.4172 9.04453 14.6548C8.90806 14.8923 8.71147 15.0895 8.47462 15.2265C8.23776 15.3636 7.96903 15.4356 7.69554 15.4352C7.42204 15.4349 7.15348 15.3623 6.91694 15.2247C6.68016 15.088 6.48354 14.8911 6.3469 14.6539C6.21025 14.4167 6.13841 14.1476 6.13862 13.8738C6.1431 13.8027 6.13301 13.7315 6.10896 13.6645C6.08492 13.5975 6.04743 13.5362 5.9988 13.4842C5.95018 13.4323 5.89146 13.391 5.82626 13.3627C5.76106 13.3344 5.69077 13.3198 5.61973 13.3198C5.54869 13.3198 5.4784 13.3344 5.4132 13.3627C5.34801 13.391 5.28928 13.4323 5.24066 13.4842C5.19204 13.5362 5.15455 13.5975 5.1305 13.6645C5.10645 13.7315 5.09636 13.8027 5.10085 13.8738C5.10166 14.1479 5.03026 14.4175 4.89386 14.6551C4.75745 14.8928 4.56088 15.0902 4.324 15.2273C4.08712 15.3645 3.81831 15.4366 3.54473 15.4363C3.27115 15.436 3.00248 15.3634 2.76587 15.2258C2.54182 15.0935 2.35437 14.9072 2.22059 14.6838C2.08682 14.4603 2.01098 14.2069 2 13.9466L4.52385 7.12ZM5.62181 15.3953C5.83144 15.6823 6.08258 15.9413 6.40013 16.1243C6.7946 16.3523 7.24197 16.4723 7.69734 16.4723C8.15272 16.4723 8.60008 16.3523 8.99455 16.1243C9.31211 15.9413 9.56325 15.6823 9.77288 15.3953C9.98251 15.6823 10.2336 15.9413 10.5512 16.1243C10.9457 16.3523 11.393 16.4723 11.8484 16.4723C12.3038 16.4723 12.7512 16.3523 13.1456 16.1243C13.4632 15.9413 13.7143 15.6823 13.9239 15.3953C14.1336 15.6823 14.3847 15.9413 14.7023 16.1243C15.0967 16.3523 15.5441 16.4723 15.9995 16.4723C16.4549 16.4723 16.9022 16.3523 17.2967 16.1243C17.6142 15.9413 17.8654 15.6823 18.075 15.3953C18.2846 15.6823 18.5358 15.9413 18.8533 16.1243C19.2478 16.3523 19.6952 16.4723 20.1506 16.4723C20.6059 16.4723 21.0533 16.3523 21.4478 16.1243C21.7653 15.9413 22.0165 15.6823 22.2261 15.3953C22.4357 15.6823 22.6869 15.9413 23.0044 16.1243C23.3989 16.3523 23.8462 16.4723 24.3016 16.4723C24.757 16.4723 25.2044 16.3523 25.5988 16.1243C25.9164 15.9413 26.1675 15.6823 26.3772 15.3953C26.5224 15.595 26.6957 15.7707 26.896 15.9236V30H12.3673V23.2338C12.3622 23.0975 12.3058 22.9682 12.2096 22.8718C12.1134 22.7753 11.9844 22.7189 11.8484 22.7138H7.69734C7.56137 22.7189 7.43235 22.7753 7.33613 22.8718C7.23991 22.9682 7.18359 23.0975 7.17846 23.2338V30H5.10292V15.9236C5.30321 15.7707 5.47652 15.595 5.62181 15.3953ZM17.0372 19.6C16.9013 19.6051 16.7723 19.6616 16.676 19.758C16.5798 19.8544 16.5235 19.9837 16.5184 20.12V26.36C16.5184 26.6325 16.7654 26.88 17.0372 26.88H24.3016C24.4376 26.8749 24.5666 26.8184 24.6628 26.722C24.7591 26.6256 24.8154 26.4963 24.8205 26.36V20.12C24.8154 19.9837 24.7591 19.8544 24.6628 19.758C24.5666 19.6616 24.4376 19.6051 24.3016 19.6H17.0372ZM17.5561 20.64H23.7827V25.84H17.5561V20.64Z"
        fill="currentColor" />
</svg>