<svg viewBox="0 0 32 32" fill="none" xmlns="http://www.w3.org/2000/svg">
    <path
        d="M23.9987 15.9993H17.332V11.9993C17.332 11.6457 17.1916 11.3066 16.9415 11.0565C16.6915 10.8065 16.3523 10.666 15.9987 10.666C15.6451 10.666 15.3059 10.8065 15.0559 11.0565C14.8058 11.3066 14.6654 11.6457 14.6654 11.9993V15.9993H7.9987C7.29145 15.9993 6.61318 16.2803 6.11308 16.7804C5.61298 17.2805 5.33203 17.9588 5.33203 18.666V22.666C5.33203 23.0196 5.47251 23.3588 5.72256 23.6088C5.9726 23.8589 6.31174 23.9993 6.66536 23.9993C7.01899 23.9993 7.35812 23.8589 7.60817 23.6088C7.85822 23.3588 7.9987 23.0196 7.9987 22.666V18.666H14.6654V21.3327C14.6654 21.6863 14.8058 22.0254 15.0559 22.2755C15.3059 22.5255 15.6451 22.666 15.9987 22.666C16.3523 22.666 16.6915 22.5255 16.9415 22.2755C17.1916 22.0254 17.332 21.6863 17.332 21.3327V18.666H23.9987V22.666C23.9987 23.0196 24.1392 23.3588 24.3892 23.6088C24.6393 23.8589 24.9784 23.9993 25.332 23.9993C25.6857 23.9993 26.0248 23.8589 26.2748 23.6088C26.5249 23.3588 26.6654 23.0196 26.6654 22.666V18.666C26.6654 17.9588 26.3844 17.2805 25.8843 16.7804C25.3842 16.2803 24.7059 15.9993 23.9987 15.9993Z"
        fill="currentColor" />
    <path
        d="M21.3346 5.33268C21.3346 4.62544 21.0537 3.94716 20.5536 3.44706C20.0535 2.94697 19.3752 2.66602 18.668 2.66602H13.3346C12.6274 2.66602 11.9491 2.94697 11.449 3.44706C10.9489 3.94716 10.668 4.62544 10.668 5.33268V10.666C10.668 11.3733 10.9489 12.0515 11.449 12.5516C11.9491 13.0517 12.6274 13.3327 13.3346 13.3327H18.668C19.3752 13.3327 20.0535 13.0517 20.5536 12.5516C21.0537 12.0515 21.3346 11.3733 21.3346 10.666V5.33268ZM8.0013 21.3327H5.33464C4.62739 21.3327 3.94911 21.6136 3.44902 22.1137C2.94892 22.6138 2.66797 23.2921 2.66797 23.9993V26.666C2.66797 27.3733 2.94892 28.0515 3.44902 28.5516C3.94911 29.0517 4.62739 29.3327 5.33464 29.3327H8.0013C8.70855 29.3327 9.38682 29.0517 9.88692 28.5516C10.387 28.0515 10.668 27.3733 10.668 26.666V23.9993C10.668 23.2921 10.387 22.6138 9.88692 22.1137C9.38682 21.6136 8.70855 21.3327 8.0013 21.3327ZM5.33464 26.666V23.9993H8.0013V26.666H5.33464ZM26.668 21.3327H24.0013C23.2941 21.3327 22.6158 21.6136 22.1157 22.1137C21.6156 22.6138 21.3346 23.2921 21.3346 23.9993V26.666C21.3346 27.3733 21.6156 28.0515 22.1157 28.5516C22.6158 29.0517 23.2941 29.3327 24.0013 29.3327H26.668C27.3752 29.3327 28.0535 29.0517 28.5536 28.5516C29.0537 28.0515 29.3346 27.3733 29.3346 26.666V23.9993C29.3346 23.2921 29.0537 22.6138 28.5536 22.1137C28.0535 21.6136 27.3752 21.3327 26.668 21.3327ZM24.0013 26.666V23.9993H26.668V26.666H24.0013ZM17.3346 21.3327H14.668C13.9607 21.3327 13.2824 21.6136 12.7824 22.1137C12.2823 22.6138 12.0013 23.2921 12.0013 23.9993V26.666C12.0013 27.3733 12.2823 28.0515 12.7824 28.5516C13.2824 29.0517 13.9607 29.3327 14.668 29.3327H17.3346C18.0419 29.3327 18.7202 29.0517 19.2203 28.5516C19.7204 28.0515 20.0013 27.3733 20.0013 26.666V23.9993C20.0013 23.2921 19.7204 22.6138 19.2203 22.1137C18.7202 21.6136 18.0419 21.3327 17.3346 21.3327ZM14.668 26.666V23.9993H17.3346V26.666H14.668Z"
        fill="currentColor" />
</svg>