<?xml version="1.0" encoding="utf-8"?>
<!-- Generator: Adobe Illustrator 23.0.1, SVG Export Plug-In . SVG Version: 6.00 Build 0)  -->
<svg version="1.1" id="Layer_1" xmlns="http://www.w3.org/2000/svg" xmlns:xlink="http://www.w3.org/1999/xlink" x="0px" y="0px"
	 viewBox="0 0 1000 1000" enable-background="new 0 0 1000 1000" xml:space="preserve">
<g>
	<path fill-rule="evenodd" clip-rule="evenodd" fill="#1E79BE" d="M411.8,484.3c0-46,37.4-83.4,83.6-83.4
		c46.2,0,83.6,37.3,83.6,83.4c0,46.1-37.4,83.4-83.6,83.4C449.2,567.6,411.8,530.3,411.8,484.3"/>
	<polyline fill-rule="evenodd" clip-rule="evenodd" fill="#1E79BE" points="829.2,713.1 829.2,286 710.4,170.3 277.7,170.3 
		170.8,284.3 170.8,716.5 277.7,828.8 481.3,828.8 481.3,603.4 365.9,489.4 483,352.4 483,300.5 299.8,502.1 394.8,597.4 
		394.8,715.7 279.4,715.7 279.4,283.5 714.7,283.5 714.7,715.7 606.1,715.7 606.1,594 696,501.3 506.8,298.8 506.8,351.6 629,492.8 
		506.8,605 506.8,829.7 716.4,829.7 829.2,713.1 	"/>
</g>
</svg>
