<svg width="1105" height="798" viewBox="0 0 1105 798" xmlns="http://www.w3.org/2000/svg">
    <g fill-rule="nonzero" fill="none">
        <path fill="#164884" d="M959.049 388.464h9.832v388.345h-9.832z" />
        <path
            d="M1059.614 437.954c.626 135.794-94.913 246.32-94.913 246.32s-96.553-109.64-97.179-245.435c-.626-135.795 94.913-246.32 94.913-246.32s96.553 109.64 97.18 245.435zM767.244 571.186h5.057v199.735h-5.057z"
            fill="#164884" />
        <path
            d="M818.967 596.64c.322 69.842-48.816 126.688-48.816 126.688s-49.66-56.39-49.981-126.233c-.322-69.843 48.815-126.689 48.815-126.689s49.66 56.391 49.982 126.234z"
            fill="#164884" />
        <ellipse fill="#164884" cx="871.969" cy="776.515" rx="137" ry="21" />
        <path
            d="M883.268 287.081c-11.607-19.612-34.57-20.526-34.57-20.526s-22.377-2.861-36.731 27.008c-13.38 27.84-31.845 54.722-2.973 61.24l5.215-16.233 3.23 17.44c4.11.296 8.235.367 12.353.212 30.92-.999 60.366.292 59.418-10.803-1.26-14.75 5.226-39.467-5.942-58.338z"
            fill="#2F2E41" />
        <path d="M841.469 324.015s15 21 6 38 21 35 21 35l22-48s-26-17-19-33l-30 8z" fill="#FBBEBE" />
        <circle fill="#FBBEBE" cx="851.469" cy="307.015" r="26" />
        <path
            d="M761.49 337.07l21.727-28.033s7.65-29.385 18.731-27.895c11.081 1.49-4.376 35.24-4.376 35.24l-21.59 31.03-14.493-10.341zM871.469 710.015l7 37 15 4-4-44zM1022.469 670.015l27 37 11 5 9-15-27-35z"
            fill="#FBBEBE" />
        <path
            d="M865.469 381.015l-16.681-21.96s-32.32 5.96-35.32 8.96c-3 3 8 58 8 58s2 15 11 23l9 6 74-15 2.783-32.926a86.41 86.41 0 00-22.782-66.074l-12.876 1.76-17.124 38.24z"
            fill="#84164F" />
        <path
            d="M817.469 370.015l-5-2-23-2s-8-2-6-6 4-5 0-6-5-2-4-5 7-9 7-9l-17-14s-.92.65-2.408 1.855c-8.44 6.834-35.147 31.49-15.592 56.145 23 29 50 46 72 40l-6-54z"
            fill="#84164F" />
        <path
            d="M839.469 450.015v14s-9 17-6 33 4 24 4 24a136.533 136.533 0 007 40c7 20-16 151 13 153s45 4 54-6-15-182-15-182 82 171 99 164 60-23 55-32-131-209-131-209l-4-9-76 10z"
            fill="#3C2E41" />
        <path
            d="M887.469 740.015s-16-1-16 4-8 22-8 22-6 20 10 18 26-20 26-20l-4-19-8-5zM1054.469 705.015s-14-9-13-3 2 22 9 23 28 7 29 9 25 10 25-3-15-23-15-23l-17-13s-11-1-13 6-5 4-5 4z"
            fill="#2F2E41" />
        <circle fill="#2F2E41" cx="851.508" cy="266.654" r="16.604" />
        <path
            d="M833.157 262.285c0-8.493 6.41-15.616 14.856-16.51a16.772 16.772 0 00-1.748-.094c-9.17 0-16.604 7.434-16.604 16.604 0 9.17 7.434 16.604 16.604 16.604.584 0 1.167-.032 1.748-.094-8.446-.894-14.856-8.017-14.856-16.51z"
            fill="#2F2E41" />
        <path fill="#2F2E41"
            d="M878.136 285.191l-22.686-11.884-31.33 4.862-6.482 28.628 16.136-.621 4.508-10.517v10.344l7.445-.286 4.321-16.745 2.701 17.825 26.468-.54z" />
        <path
            d="M876.778 452.332l-34.987.946s-29.854 5.809-28.18-6.241c1.676-12.05 30.8-7.835 30.8-7.835l31.88-4.864.487 17.994z"
            fill="#FBBEBE" />
        <path
            d="M904.46 339.32a7.467 7.467 0 018.236 5.128c6.85 21.584 27.95 93.813 6.985 103.723-24.694 11.671-42.714 11.158-42.714 11.158l-9.645-23.748 8.78-8.24 9.375-60.275 4.492-25.55 14.49-2.196z"
            fill="#84164F" />
        <path fill="#000" opacity=".4" d="M897.969 379.515l-4 40-35 15 39-9z" />
        <path
            d="M709.214 247.463a46.84 46.84 0 0127.353 19.87l3.27 5.065.165.21 57.385 16.79a4.183 4.183 0 012.861 5.116l-4.455 16.335a4.183 4.183 0 01-5.162 2.928l-57.399-16.044-.001.002-5.765 2.18a51.515 51.515 0 01-33.122 1.125l14.87-53.577z"
            fill="#164884" />
        <ellipse fill="#575A89" transform="rotate(-73.69 763.341 292.99)" cx="763.341" cy="292.991" rx="3.504"
            ry="6.57" />
        <circle fill="#164884" cx="766.716" cy="294.14" r="2.409" />
        <ellipse fill="#E9F3FF" transform="rotate(-72.034 701.928 274.485)" cx="701.928" cy="274.485" rx="28.09"
            ry="12.703" />
        <path
            d="M712.228 277.881c4.611-14.22 3.357-27.472-2.71-30.355.364.046.724.126 1.075.238 6.673 2.164 8.204 15.882 3.419 30.64-4.786 14.757-14.075 24.966-20.748 22.802a5.863 5.863 0 01-.708-.284c6.564.836 15.139-9.06 19.672-23.04z"
            fill="#000" opacity=".4" />
        <path
            d="M709.969 247.515L579.73 146.49a861.922 861.922 0 01-66.215-57.386c-37.126-35.387-87.524-63.68-146.201-78.744-142.562-36.598-255.5 28.294-306.866 123.578-78.495 145.604-138.65 381.88 209.394 256.11 76.116-27.505 153.164-30.429 211.586-44.917l211.54-43.616 17-54z"
            fill="#E9F3FF" />
        <circle fill="#F2F2F2" cx="318.969" cy="70.515" r="7" />
        <path fill="#F2F2F2"
            d="M454.949 86.695h-1.822v-1.822h-.356v1.822h-1.822v.356h1.822v1.822h.356v-1.822h1.822zM637.949 238.695h-1.822v-1.822h-.356v1.822h-1.822v.356h1.822v1.822h.356v-1.822h1.822zM624.949 285.695h-1.822v-1.822h-.356v1.822h-1.822v.356h1.822v1.822h.356v-1.822h1.822zM65.949 325.695h-1.822v-1.822h-.356v1.822h-1.822v.356h1.822v1.822h.356v-1.822h1.822zM145.949 107.695h-1.822v-1.822h-.356v1.822h-1.822v.356h1.822v1.822h.356v-1.822h1.822zM456.949 293.695h-1.822v-1.822h-.356v1.822h-1.822v.356h1.822v1.822h.356v-1.822h1.822zM265.949 43.695h-1.822v-1.822h-.356v1.822h-1.822v.356h1.822v1.822h.356v-1.822h1.822z" />
        <path
            d="M266.65 187.673l-2.27.35c.71 4.54 1.27 9.18 1.68 13.77l2.29-.2a208.2 208.2 0 00-1.7-13.92zM260.44 160.333l-2.2.67c1.33 4.4 2.52 8.91 3.53 13.4l2.25-.51c-1.03-4.54-2.24-9.1-3.58-13.56zM250.53 134.113l-2.09.96c1.92 4.19 3.72 8.49 5.35 12.79l2.15-.81c-1.65-4.35-3.46-8.71-5.41-12.94zM237.13 109.533l-1.94 1.23c2.47 3.88 4.84 7.9 7.04 11.93l2.02-1.1a202.81 202.81 0 00-7.12-12.06zM220.47 87.003l-1.75 1.49c2.98 3.5 5.88 7.16 8.62 10.86l1.84-1.37c-2.76-3.74-5.69-7.44-8.71-10.98zM200.89 66.943l-1.53 1.71c3.44 3.07 6.81 6.3 10.02 9.59l1.65-1.61c-3.25-3.33-6.66-6.59-10.14-9.69zM178.77 49.723l-1.29 1.9c3.82 2.57 7.6 5.31 11.23 8.14l1.42-1.81c-3.68-2.86-7.5-5.63-11.36-8.23zM158.64 37.763v2.6c2.39 1.25 4.76 2.56 7.08 3.9l1.15-1.99c-2.7-1.56-5.444-3.063-8.23-4.51zM266.804 215.979l2.299-.042c.042 2.321.045 4.654.01 6.936l-2.3-.036c.036-2.255.033-4.563-.009-6.858zM131.65 384.673l-2.27.35c.71 4.54 1.27 9.18 1.68 13.77l2.29-.2a208.2 208.2 0 00-1.7-13.92zM125.44 357.333l-2.2.67c1.33 4.4 2.52 8.91 3.53 13.4l2.25-.51c-1.03-4.54-2.24-9.1-3.58-13.56zM115.53 331.113l-2.09.96c1.92 4.19 3.72 8.49 5.35 12.79l2.15-.81c-1.65-4.35-3.46-8.71-5.41-12.94zM102.13 306.533l-1.94 1.23c2.47 3.88 4.84 7.9 7.04 11.93l2.02-1.1c-2.22-4.08-4.62-8.14-7.12-12.06zM85.47 284.003l-1.75 1.49c2.98 3.5 5.88 7.16 8.62 10.86l1.84-1.37c-2.76-3.74-5.69-7.44-8.71-10.98zM65.89 263.943l-1.53 1.71c3.44 3.07 6.81 6.3 10.02 9.59l1.65-1.61c-3.25-3.33-6.66-6.59-10.14-9.69zM43.77 246.723l-1.29 1.9c3.82 2.57 7.6 5.31 11.23 8.14l1.42-1.81c-3.68-2.86-7.5-5.63-11.36-8.23zM23.64 234.763v2.6c2.39 1.25 4.76 2.56 7.08 3.9l1.15-1.99c-2.7-1.56-5.444-3.063-8.23-4.51zM131.804 412.979l2.299-.042c.042 2.321.045 4.654.01 6.936l-2.3-.036c.036-2.255.033-4.563-.009-6.858zM593.65 285.673l-2.27.35c.71 4.54 1.27 9.18 1.68 13.77l2.29-.2a208.2 208.2 0 00-1.7-13.92zM587.44 258.333l-2.2.67c1.33 4.4 2.52 8.91 3.53 13.4l2.25-.51c-1.03-4.54-2.24-9.1-3.58-13.56zM577.53 232.113l-2.09.96c1.92 4.19 3.72 8.49 5.35 12.79l2.15-.81c-1.65-4.35-3.46-8.71-5.41-12.94zM564.13 207.533l-1.94 1.23c2.47 3.88 4.84 7.9 7.04 11.93l2.02-1.1c-2.22-4.08-4.62-8.14-7.12-12.06zM547.47 185.003l-1.75 1.49c2.98 3.5 5.88 7.16 8.62 10.86l1.84-1.37c-2.76-3.74-5.69-7.44-8.71-10.98zM527.89 164.943l-1.53 1.71c3.44 3.07 6.81 6.3 10.02 9.59l1.65-1.61c-3.25-3.33-6.66-6.59-10.14-9.69zM505.77 147.723l-1.29 1.9c3.82 2.57 7.6 5.31 11.23 8.14l1.42-1.81c-3.68-2.86-7.5-5.63-11.36-8.23zM485.64 135.763v2.6c2.39 1.25 4.76 2.56 7.08 3.9l1.15-1.99c-2.7-1.56-5.444-3.063-8.23-4.51zM593.804 313.979l2.299-.042c.042 2.321.045 4.654.01 6.936l-2.3-.036c.036-2.255.033-4.563-.009-6.858z"
            fill="#164884" />
        <path fill="#F2F2F2"
            d="M149.295 199.895H147.6v-1.696h-.331v1.696h-1.696v.33h1.696v1.696h.331v-1.696h1.695zM129.754 302.252h-1.695v-1.696h-.331v1.696h-1.696v.331h1.696v1.695h.331v-1.695h1.695zM72.417 391.959h-1.696v-1.695h-.331v1.695h-1.695v.331h1.695v1.696h.331v-1.696h1.696z" />
        <path
            d="M227.401 293.577c-39.08-58.091-29.867-136.018 21.683-183.394 51.549-47.376 129.974-49.993 184.568-6.16 54.593 43.834 68.981 120.973 33.862 181.54-35.12 60.568-109.216 86.4-174.378 60.793-5.629 20.09-24.116 33.842-44.975 33.456-20.86-.385-38.827-14.81-43.71-35.094-4.882-20.284 4.551-41.305 22.95-51.141z"
            fill="#164884" />
        <g fill="#E9F3FF">
            <path
                d="M284.99 222.492H296v15.522h-11.01V259h-19.285v-20.986h-39.838L225 225.89 265.505 162h19.485v60.492zm-40.772 0h21.487v-34.243l-1.268 2.198-20.219 32.045zM372 218.422c0 13.459-2.795 23.753-8.384 30.883-5.59 7.13-13.772 10.695-24.549 10.695-10.642 0-18.78-3.498-24.415-10.495-5.634-6.996-8.518-17.023-8.652-30.08v-17.914c0-13.592 2.828-23.908 8.485-30.95C320.14 163.522 328.29 160 338.933 160c10.642 0 18.78 3.487 24.415 10.461 5.634 6.974 8.518 16.99 8.652 30.047v17.914zm-19.384-19.652c0-8.066-1.107-13.937-3.32-17.614-2.214-3.676-5.668-5.514-10.363-5.514-4.561 0-7.926 1.749-10.095 5.247-2.168 3.498-3.32 8.968-3.454 16.41v23.664c0 7.932 1.085 13.825 3.253 17.68 2.169 3.855 5.646 5.782 10.43 5.782 4.74 0 8.16-1.85 10.262-5.548 2.102-3.699 3.197-9.358 3.287-16.979V198.77zM441.99 222.492H453v15.522h-11.01V259h-19.285v-20.986h-39.838L382 225.89 422.505 162h19.485v60.492zm-40.772 0h21.487v-34.243l-1.268 2.198-20.219 32.045z" />
        </g>
    </g>
</svg>