<svg width="1359" height="637" viewBox="0 0 1359 637" fill="none" xmlns="http://www.w3.org/2000/svg">
<path d="M679.285 42.6328V366.644" stroke="#4CC3C7" stroke-width="5.6844"/>
<circle cx="679.284" cy="68.2128" r="65.3706" fill="#F1FFFF" stroke="#4CC3C7" stroke-width="5.6844" stroke-dasharray="11.37 11.37"/>
<path d="M702.918 98.4297H697.084V45.9238C697.113 45.4985 696.999 45.0758 696.759 44.7232C696.519 44.3707 696.168 44.1087 695.762 43.9792L681.527 38.0285V98.4297H677.638V30.3665C677.638 29.8508 677.433 29.3561 677.068 28.9915C676.703 28.6268 676.209 28.4219 675.693 28.4219H640.689C640.173 28.4219 639.679 28.6268 639.314 28.9915C638.949 29.3561 638.744 29.8508 638.744 30.3665V98.4297H632.91C632.395 98.4297 631.9 98.6346 631.535 98.9993C631.171 99.364 630.966 99.8587 630.966 100.374C630.966 100.89 631.171 101.385 631.535 101.749C631.9 102.114 632.395 102.319 632.91 102.319H702.918C703.434 102.319 703.929 102.114 704.293 101.749C704.658 101.385 704.863 100.89 704.863 100.374C704.863 99.8587 704.658 99.364 704.293 98.9993C703.929 98.6346 703.434 98.4297 702.918 98.4297ZM687.361 51.7578H691.25C691.766 51.7578 692.261 51.9627 692.625 52.3274C692.99 52.6921 693.195 53.1867 693.195 53.7025C693.185 54.2151 692.977 54.704 692.614 55.0666C692.252 55.4291 691.763 55.6372 691.25 55.6472H687.361C686.848 55.6372 686.36 55.4291 685.997 55.0666C685.634 54.704 685.426 54.2151 685.416 53.7025C685.416 53.1867 685.621 52.6921 685.986 52.3274C686.351 51.9627 686.845 51.7578 687.361 51.7578ZM687.361 63.4258H691.25C691.766 63.4258 692.261 63.6307 692.625 63.9954C692.99 64.3601 693.195 64.8547 693.195 65.3705C693.195 65.8862 692.99 66.3809 692.625 66.7456C692.261 67.1103 691.766 67.3151 691.25 67.3151H687.361C686.845 67.3151 686.351 67.1103 685.986 66.7456C685.621 66.3809 685.416 65.8862 685.416 65.3705C685.416 64.8547 685.621 64.3601 685.986 63.9954C686.351 63.6307 686.845 63.4258 687.361 63.4258ZM687.361 75.0938H691.25C691.763 75.1037 692.252 75.3118 692.614 75.6744C692.977 76.0369 693.185 76.5258 693.195 77.0385C693.195 77.5542 692.99 78.0488 692.625 78.4135C692.261 78.7782 691.766 78.9831 691.25 78.9831H687.361C686.845 78.9831 686.351 78.7782 685.986 78.4135C685.621 78.0488 685.416 77.5542 685.416 77.0385C685.426 76.5258 685.634 76.0369 685.997 75.6744C686.36 75.3118 686.848 75.1037 687.361 75.0938ZM687.361 86.7618H691.25C691.766 86.7618 692.261 86.9666 692.625 87.3313C692.99 87.696 693.195 88.1907 693.195 88.7064C693.195 89.2222 692.99 89.7168 692.625 90.0815C692.261 90.4462 691.766 90.6511 691.25 90.6511H687.361C686.845 90.6511 686.351 90.4462 685.986 90.0815C685.621 89.7168 685.416 89.2222 685.416 88.7064C685.416 88.1907 685.621 87.696 685.986 87.3313C686.351 86.9666 686.845 86.7618 687.361 86.7618ZM662.08 40.0899H665.97C666.486 40.0899 666.98 40.2947 667.345 40.6594C667.71 41.0241 667.914 41.5188 667.914 42.0345C667.914 42.5503 667.71 43.0449 667.345 43.4096C666.98 43.7743 666.486 43.9792 665.97 43.9792H662.08C661.565 43.9792 661.07 43.7743 660.705 43.4096C660.341 43.0449 660.136 42.5503 660.136 42.0345C660.136 41.5188 660.341 41.0241 660.705 40.6594C661.07 40.2947 661.565 40.0899 662.08 40.0899ZM662.08 51.7578H665.97C666.486 51.7578 666.98 51.9627 667.345 52.3274C667.71 52.6921 667.914 53.1867 667.914 53.7025C667.914 54.2183 667.71 54.7129 667.345 55.0776C666.98 55.4423 666.486 55.6472 665.97 55.6472H662.08C661.565 55.6472 661.07 55.4423 660.705 55.0776C660.341 54.7129 660.136 54.2183 660.136 53.7025C660.136 53.1867 660.341 52.6921 660.705 52.3274C661.07 51.9627 661.565 51.7578 662.08 51.7578ZM662.08 63.4258H665.97C666.486 63.4258 666.98 63.6307 667.345 63.9954C667.71 64.3601 667.914 64.8547 667.914 65.3705C667.914 65.8862 667.71 66.3809 667.345 66.7456C666.98 67.1103 666.486 67.3151 665.97 67.3151H662.08C661.565 67.3151 661.07 67.1103 660.705 66.7456C660.341 66.3809 660.136 65.8862 660.136 65.3705C660.136 64.8547 660.341 64.3601 660.705 63.9954C661.07 63.6307 661.565 63.4258 662.08 63.4258ZM662.08 75.0938H665.97C666.486 75.0938 666.98 75.2987 667.345 75.6634C667.71 76.0281 667.914 76.5227 667.914 77.0385C667.914 77.5542 667.71 78.0488 667.345 78.4135C666.98 78.7782 666.486 78.9831 665.97 78.9831H662.08C661.565 78.9831 661.07 78.7782 660.705 78.4135C660.341 78.0488 660.136 77.5542 660.136 77.0385C660.136 76.5227 660.341 76.0281 660.705 75.6634C661.07 75.2987 661.565 75.0938 662.08 75.0938ZM650.179 40.0899H654.302C654.818 40.0899 655.312 40.2947 655.677 40.6594C656.042 41.0241 656.246 41.5188 656.246 42.0345C656.246 42.5503 656.042 43.0449 655.677 43.4096C655.312 43.7743 654.818 43.9792 654.302 43.9792H650.412C649.897 43.9792 649.402 43.7743 649.037 43.4096C648.673 43.0449 648.468 42.5503 648.468 42.0345C648.468 41.5188 648.673 41.0241 649.037 40.6594C649.402 40.2947 649.897 40.0899 650.412 40.0899H650.179ZM650.179 51.7578H654.302C654.818 51.7578 655.312 51.9627 655.677 52.3274C656.042 52.6921 656.246 53.1867 656.246 53.7025C656.246 54.2183 656.042 54.7129 655.677 55.0776C655.312 55.4423 654.818 55.6472 654.302 55.6472H650.412C649.897 55.6472 649.402 55.4423 649.037 55.0776C648.673 54.7129 648.468 54.2183 648.468 53.7025C648.468 53.1867 648.673 52.6921 649.037 52.3274C649.402 51.9627 649.897 51.7578 650.412 51.7578H650.179ZM650.179 63.4258H654.302C654.818 63.4258 655.312 63.6307 655.677 63.9954C656.042 64.3601 656.246 64.8547 656.246 65.3705C656.246 65.8862 656.042 66.3809 655.677 66.7456C655.312 67.1103 654.818 67.3151 654.302 67.3151H650.412C649.897 67.3151 649.402 67.1103 649.037 66.7456C648.673 66.3809 648.468 65.8862 648.468 65.3705C648.468 64.8547 648.673 64.3601 649.037 63.9954C649.402 63.6307 649.897 63.4258 650.412 63.4258H650.179ZM650.179 75.0938H654.302C654.818 75.0938 655.312 75.2987 655.677 75.6634C656.042 76.0281 656.246 76.5227 656.246 77.0385C656.246 77.5542 656.042 78.0488 655.677 78.4135C655.312 78.7782 654.818 78.9831 654.302 78.9831H650.412C649.897 78.9831 649.402 78.7782 649.037 78.4135C648.673 78.0488 648.468 77.5542 648.468 77.0385C648.468 76.5227 648.673 76.0281 649.037 75.6634C649.402 75.2987 649.897 75.0938 650.412 75.0938H650.179ZM660.136 98.4297V90.6511H656.246V98.4297H652.357V88.5897C652.387 88.0945 652.605 87.6293 652.966 87.2895C653.328 86.9497 653.806 86.7609 654.302 86.7618H662.08C662.596 86.7618 663.091 86.9666 663.456 87.3313C663.82 87.696 664.025 88.1907 664.025 88.7064V98.4297H660.136Z" fill="#4CC3C7"/>
<circle cx="713.389" cy="76.74" r="22.7376" fill="#4CC3C7" stroke="#F1FFFF" stroke-width="5.6844"/>
<path fill-rule="evenodd" clip-rule="evenodd" d="M716.231 65.7836C716.231 64.2139 714.959 62.9414 713.389 62.9414C711.819 62.9414 710.547 64.2139 710.547 65.7836V73.8994H702.426C700.856 73.8994 699.584 75.1719 699.584 76.7416C699.584 78.3113 700.856 79.5838 702.426 79.5838H710.547V87.7091C710.547 89.2789 711.819 90.5513 713.389 90.5513C714.959 90.5513 716.231 89.2789 716.231 87.7091V79.5838H724.352C725.921 79.5838 727.194 78.3113 727.194 76.7416C727.194 75.1719 725.921 73.8994 724.352 73.8994H716.231V65.7836Z" fill="white"/>
<path d="M531.32 532.059C527.947 532.059 525.048 531.509 522.622 530.41C520.197 529.273 518.302 527.549 516.938 525.237C515.574 522.888 514.835 519.97 514.721 516.483C514.683 514.854 514.664 513.243 514.664 511.652C514.664 510.06 514.683 508.431 514.721 506.763C514.835 503.315 515.593 500.434 516.995 498.123C518.397 495.811 520.311 494.068 522.736 492.893C525.199 491.718 528.061 491.131 531.32 491.131C534.579 491.131 537.44 491.718 539.903 492.893C542.366 494.068 544.299 495.811 545.701 498.123C547.103 500.434 547.861 503.315 547.975 506.763C548.051 508.431 548.089 510.06 548.089 511.652C548.089 513.243 548.051 514.854 547.975 516.483C547.861 519.97 547.122 522.888 545.758 525.237C544.394 527.549 542.48 529.273 540.017 530.41C537.591 531.509 534.692 532.059 531.32 532.059ZM531.32 525.522C533.783 525.522 535.791 524.802 537.345 523.362C538.899 521.884 539.733 519.496 539.846 516.199C539.922 514.532 539.96 512.997 539.96 511.595C539.96 510.155 539.922 508.62 539.846 506.99C539.77 504.793 539.354 503.011 538.596 501.647C537.876 500.245 536.89 499.241 535.64 498.634C534.389 497.99 532.949 497.668 531.32 497.668C529.728 497.668 528.307 497.99 527.056 498.634C525.806 499.241 524.801 500.245 524.044 501.647C523.324 503.011 522.926 504.793 522.85 506.99C522.812 508.62 522.793 510.155 522.793 511.595C522.793 512.997 522.812 514.532 522.85 516.199C522.964 519.496 523.797 521.884 525.351 523.362C526.905 524.802 528.894 525.522 531.32 525.522ZM556.235 531.49C555.856 531.49 555.534 531.358 555.269 531.092C555.003 530.827 554.871 530.505 554.871 530.126V503.352C554.871 502.936 555.003 502.595 555.269 502.329C555.534 502.064 555.856 501.931 556.235 501.931H560.839C561.218 501.931 561.54 502.064 561.806 502.329C562.109 502.595 562.26 502.936 562.26 503.352V505.683C563.132 504.47 564.25 503.542 565.614 502.898C567.016 502.253 568.627 501.931 570.446 501.931H572.777C573.193 501.931 573.516 502.064 573.743 502.329C574.008 502.595 574.141 502.917 574.141 503.296V507.388C574.141 507.767 574.008 508.089 573.743 508.355C573.516 508.62 573.193 508.753 572.777 508.753H568.343C566.524 508.753 565.103 509.264 564.079 510.287C563.094 511.311 562.602 512.713 562.602 514.494V530.126C562.602 530.505 562.469 530.827 562.204 531.092C561.938 531.358 561.597 531.49 561.18 531.49H556.235ZM591.489 543.996C588.722 543.996 586.448 543.636 584.667 542.916C582.886 542.196 581.484 541.324 580.461 540.301C579.438 539.278 578.699 538.255 578.244 537.231C577.827 536.246 577.6 535.469 577.562 534.901C577.524 534.522 577.638 534.181 577.903 533.878C578.206 533.612 578.547 533.48 578.926 533.48H583.871C584.25 533.48 584.554 533.556 584.781 533.707C585.008 533.897 585.198 534.219 585.349 534.673C585.577 535.166 585.88 535.697 586.259 536.265C586.638 536.834 587.206 537.307 587.964 537.686C588.76 538.103 589.84 538.312 591.204 538.312C592.644 538.312 593.857 538.103 594.842 537.686C595.828 537.269 596.567 536.568 597.059 535.583C597.59 534.598 597.855 533.233 597.855 531.49V527.625C596.946 528.724 595.771 529.614 594.331 530.297C592.929 530.979 591.185 531.32 589.101 531.32C587.055 531.32 585.293 530.998 583.815 530.353C582.337 529.671 581.105 528.743 580.12 527.568C579.134 526.355 578.376 524.934 577.846 523.305C577.353 521.675 577.069 519.875 576.993 517.905C576.955 516.881 576.955 515.858 576.993 514.835C577.069 512.94 577.353 511.178 577.846 509.548C578.339 507.919 579.078 506.498 580.063 505.285C581.086 504.035 582.337 503.068 583.815 502.386C585.293 501.704 587.055 501.363 589.101 501.363C591.261 501.363 593.08 501.78 594.558 502.613C596.036 503.409 597.249 504.414 598.196 505.626V503.352C598.196 502.936 598.329 502.595 598.594 502.329C598.859 502.064 599.181 501.931 599.56 501.931H604.165C604.544 501.931 604.866 502.064 605.131 502.329C605.396 502.595 605.529 502.936 605.529 503.352L605.586 530.751C605.586 533.48 605.074 535.829 604.051 537.8C603.028 539.771 601.474 541.286 599.39 542.347C597.343 543.446 594.71 543.996 591.489 543.996ZM591.204 525.294C592.758 525.294 594.009 524.953 594.956 524.271C595.903 523.589 596.604 522.698 597.059 521.599C597.514 520.5 597.779 519.382 597.855 518.246C597.893 517.753 597.912 517.128 597.912 516.37C597.912 515.612 597.893 515.005 597.855 514.551C597.779 513.376 597.514 512.258 597.059 511.197C596.604 510.098 595.903 509.207 594.956 508.525C594.009 507.805 592.758 507.445 591.204 507.445C589.651 507.445 588.4 507.805 587.453 508.525C586.505 509.207 585.823 510.117 585.406 511.254C585.027 512.391 584.8 513.641 584.724 515.005C584.648 515.915 584.648 516.843 584.724 517.791C584.8 519.117 585.027 520.368 585.406 521.543C585.823 522.679 586.505 523.589 587.453 524.271C588.4 524.953 589.651 525.294 591.204 525.294ZM621.742 532.059C619.771 532.059 617.99 531.68 616.398 530.922C614.807 530.126 613.537 529.084 612.59 527.795C611.68 526.469 611.225 524.991 611.225 523.362C611.225 520.709 612.286 518.606 614.409 517.052C616.569 515.46 619.411 514.399 622.935 513.869L630.723 512.732V511.538C630.723 509.946 630.325 508.715 629.529 507.843C628.733 506.972 627.369 506.536 625.436 506.536C624.072 506.536 622.954 506.82 622.083 507.388C621.249 507.919 620.624 508.639 620.207 509.548C619.904 510.041 619.468 510.287 618.899 510.287H614.409C613.992 510.287 613.67 510.174 613.442 509.946C613.253 509.719 613.158 509.416 613.158 509.037C613.196 508.431 613.442 507.692 613.897 506.82C614.352 505.948 615.072 505.115 616.057 504.319C617.042 503.485 618.312 502.784 619.866 502.216C621.419 501.647 623.295 501.363 625.493 501.363C627.881 501.363 629.889 501.666 631.519 502.272C633.186 502.841 634.512 503.618 635.498 504.603C636.483 505.588 637.203 506.744 637.658 508.071C638.113 509.397 638.34 510.799 638.34 512.277V530.126C638.34 530.505 638.207 530.827 637.942 531.092C637.677 531.358 637.355 531.49 636.976 531.49H632.371C631.954 531.49 631.613 531.358 631.348 531.092C631.121 530.827 631.007 530.505 631.007 530.126V527.909C630.514 528.629 629.851 529.311 629.018 529.955C628.184 530.562 627.161 531.073 625.948 531.49C624.773 531.869 623.371 532.059 621.742 532.059ZM623.674 526.658C625.001 526.658 626.194 526.374 627.255 525.806C628.354 525.237 629.207 524.366 629.813 523.191C630.458 521.978 630.78 520.462 630.78 518.643V517.45L625.095 518.359C622.859 518.7 621.192 519.25 620.093 520.008C618.994 520.766 618.445 521.694 618.445 522.793C618.445 523.627 618.691 524.347 619.184 524.953C619.714 525.522 620.377 525.957 621.173 526.261C621.969 526.526 622.803 526.658 623.674 526.658ZM646.997 531.49C646.618 531.49 646.296 531.358 646.03 531.092C645.765 530.827 645.632 530.505 645.632 530.126V503.296C645.632 502.917 645.765 502.595 646.03 502.329C646.296 502.064 646.618 501.931 646.997 501.931H651.658C652.037 501.931 652.359 502.064 652.624 502.329C652.889 502.595 653.022 502.917 653.022 503.296V505.626C654.007 504.414 655.258 503.409 656.774 502.613C658.328 501.78 660.241 501.363 662.515 501.363C664.827 501.363 666.835 501.893 668.541 502.955C670.246 503.978 671.553 505.437 672.463 507.332C673.41 509.226 673.884 511.5 673.884 514.153V530.126C673.884 530.505 673.751 530.827 673.486 531.092C673.221 531.358 672.899 531.49 672.52 531.49H667.517C667.138 531.49 666.816 531.358 666.551 531.092C666.286 530.827 666.153 530.505 666.153 530.126V514.494C666.153 512.296 665.604 510.572 664.505 509.321C663.444 508.071 661.89 507.445 659.843 507.445C657.873 507.445 656.3 508.071 655.125 509.321C653.951 510.572 653.363 512.296 653.363 514.494V530.126C653.363 530.505 653.231 530.827 652.965 531.092C652.7 531.358 652.378 531.49 651.999 531.49H646.997ZM682.469 531.49C682.09 531.49 681.768 531.358 681.502 531.092C681.237 530.827 681.104 530.505 681.104 530.126V503.296C681.104 502.917 681.237 502.595 681.502 502.329C681.768 502.064 682.09 501.931 682.469 501.931H687.187C687.604 501.931 687.926 502.064 688.153 502.329C688.418 502.595 688.551 502.917 688.551 503.296V530.126C688.551 530.505 688.418 530.827 688.153 531.092C687.926 531.358 687.604 531.49 687.187 531.49H682.469ZM682.241 497.043C681.824 497.043 681.483 496.929 681.218 496.702C680.991 496.436 680.877 496.095 680.877 495.679V491.586C680.877 491.207 680.991 490.885 681.218 490.619C681.483 490.354 681.824 490.221 682.241 490.221H687.414C687.831 490.221 688.172 490.354 688.437 490.619C688.703 490.885 688.835 491.207 688.835 491.586V495.679C688.835 496.095 688.703 496.436 688.437 496.702C688.172 496.929 687.831 497.043 687.414 497.043H682.241ZM696.59 531.49C696.173 531.49 695.832 531.358 695.566 531.092C695.339 530.827 695.225 530.505 695.225 530.126V526.886C695.225 526.545 695.301 526.223 695.453 525.92C695.642 525.578 695.832 525.294 696.021 525.067L710.573 507.843H697.044C696.665 507.843 696.343 507.729 696.078 507.502C695.813 507.237 695.68 506.896 695.68 506.479V503.296C695.68 502.917 695.813 502.595 696.078 502.329C696.343 502.064 696.665 501.931 697.044 501.931H718.588C719.005 501.931 719.327 502.064 719.554 502.329C719.82 502.595 719.952 502.917 719.952 503.296V506.763C719.952 507.104 719.877 507.407 719.725 507.673C719.573 507.938 719.384 508.222 719.157 508.525L704.946 525.578H719.782C720.161 525.578 720.483 525.711 720.748 525.976C721.013 526.204 721.146 526.526 721.146 526.943V530.126C721.146 530.505 721.013 530.827 720.748 531.092C720.483 531.358 720.161 531.49 719.782 531.49H696.59ZM735.485 532.059C733.514 532.059 731.733 531.68 730.142 530.922C728.55 530.126 727.281 529.084 726.333 527.795C725.424 526.469 724.969 524.991 724.969 523.362C724.969 520.709 726.03 518.606 728.152 517.052C730.312 515.46 733.154 514.399 736.679 513.869L744.466 512.732V511.538C744.466 509.946 744.068 508.715 743.273 507.843C742.477 506.972 741.113 506.536 739.18 506.536C737.816 506.536 736.698 506.82 735.826 507.388C734.992 507.919 734.367 508.639 733.95 509.548C733.647 510.041 733.211 510.287 732.643 510.287H728.152C727.735 510.287 727.413 510.174 727.186 509.946C726.996 509.719 726.902 509.416 726.902 509.037C726.939 508.431 727.186 507.692 727.641 506.82C728.095 505.948 728.815 505.115 729.801 504.319C730.786 503.485 732.055 502.784 733.609 502.216C735.163 501.647 737.039 501.363 739.237 501.363C741.624 501.363 743.633 501.666 745.262 502.272C746.93 502.841 748.256 503.618 749.241 504.603C750.227 505.588 750.947 506.744 751.401 508.071C751.856 509.397 752.083 510.799 752.083 512.277V530.126C752.083 530.505 751.951 530.827 751.686 531.092C751.42 531.358 751.098 531.49 750.719 531.49H746.115C745.698 531.49 745.357 531.358 745.092 531.092C744.864 530.827 744.751 530.505 744.751 530.126V527.909C744.258 528.629 743.595 529.311 742.761 529.955C741.927 530.562 740.904 531.073 739.691 531.49C738.517 531.869 737.115 532.059 735.485 532.059ZM737.418 526.658C738.744 526.658 739.938 526.374 740.999 525.806C742.098 525.237 742.951 524.366 743.557 523.191C744.201 521.978 744.523 520.462 744.523 518.643V517.45L738.839 518.359C736.603 518.7 734.936 519.25 733.837 520.008C732.738 520.766 732.188 521.694 732.188 522.793C732.188 523.627 732.434 524.347 732.927 524.953C733.458 525.522 734.121 525.957 734.917 526.261C735.712 526.526 736.546 526.658 737.418 526.658ZM772.457 531.49C770.183 531.49 768.269 531.092 766.715 530.297C765.162 529.501 764.006 528.326 763.248 526.772C762.49 525.181 762.111 523.21 762.111 520.86V507.957H757.62C757.241 507.957 756.919 507.824 756.654 507.559C756.389 507.294 756.256 506.972 756.256 506.593V503.296C756.256 502.917 756.389 502.595 756.654 502.329C756.919 502.064 757.241 501.931 757.62 501.931H762.111V492.495C762.111 492.116 762.225 491.794 762.452 491.529C762.717 491.264 763.058 491.131 763.475 491.131H768.08C768.459 491.131 768.781 491.264 769.046 491.529C769.311 491.794 769.444 492.116 769.444 492.495V501.931H776.549C776.928 501.931 777.251 502.064 777.516 502.329C777.781 502.595 777.914 502.917 777.914 503.296V506.593C777.914 506.972 777.781 507.294 777.516 507.559C777.251 507.824 776.928 507.957 776.549 507.957H769.444V520.292C769.444 521.846 769.709 523.058 770.24 523.93C770.808 524.802 771.775 525.237 773.139 525.237H777.061C777.44 525.237 777.762 525.37 778.027 525.635C778.293 525.901 778.425 526.223 778.425 526.602V530.126C778.425 530.505 778.293 530.827 778.027 531.092C777.762 531.358 777.44 531.49 777.061 531.49H772.457ZM784.832 531.49C784.453 531.49 784.131 531.358 783.866 531.092C783.601 530.827 783.468 530.505 783.468 530.126V503.296C783.468 502.917 783.601 502.595 783.866 502.329C784.131 502.064 784.453 501.931 784.832 501.931H789.55C789.967 501.931 790.289 502.064 790.517 502.329C790.782 502.595 790.915 502.917 790.915 503.296V530.126C790.915 530.505 790.782 530.827 790.517 531.092C790.289 531.358 789.967 531.49 789.55 531.49H784.832ZM784.605 497.043C784.188 497.043 783.847 496.929 783.582 496.702C783.354 496.436 783.241 496.095 783.241 495.679V491.586C783.241 491.207 783.354 490.885 783.582 490.619C783.847 490.354 784.188 490.221 784.605 490.221H789.778C790.195 490.221 790.536 490.354 790.801 490.619C791.066 490.885 791.199 491.207 791.199 491.586V495.679C791.199 496.095 791.066 496.436 790.801 496.702C790.536 496.929 790.195 497.043 789.778 497.043H784.605ZM811.697 532.059C808.665 532.059 806.107 531.528 804.023 530.467C801.977 529.406 800.404 527.909 799.305 525.976C798.244 524.044 797.637 521.789 797.486 519.212C797.448 518.53 797.429 517.696 797.429 516.711C797.429 515.725 797.448 514.892 797.486 514.21C797.637 511.595 798.263 509.34 799.362 507.445C800.499 505.513 802.09 504.016 804.137 502.955C806.221 501.893 808.741 501.363 811.697 501.363C814.653 501.363 817.154 501.893 819.2 502.955C821.285 504.016 822.876 505.513 823.975 507.445C825.112 509.34 825.756 511.595 825.908 514.21C825.946 514.892 825.965 515.725 825.965 516.711C825.965 517.696 825.946 518.53 825.908 519.212C825.756 521.789 825.131 524.044 824.032 525.976C822.971 527.909 821.398 529.406 819.314 530.467C817.268 531.528 814.729 532.059 811.697 532.059ZM811.697 526.431C813.705 526.431 815.259 525.806 816.358 524.555C817.457 523.267 818.063 521.391 818.177 518.928C818.215 518.359 818.234 517.62 818.234 516.711C818.234 515.801 818.215 515.062 818.177 514.494C818.063 512.069 817.457 510.212 816.358 508.923C815.259 507.635 813.705 506.99 811.697 506.99C809.688 506.99 808.135 507.635 807.036 508.923C805.937 510.212 805.33 512.069 805.217 514.494C805.179 515.062 805.16 515.801 805.16 516.711C805.16 517.62 805.179 518.359 805.217 518.928C805.33 521.391 805.937 523.267 807.036 524.555C808.135 525.806 809.688 526.431 811.697 526.431ZM833.627 531.49C833.248 531.49 832.926 531.358 832.661 531.092C832.395 530.827 832.263 530.505 832.263 530.126V503.296C832.263 502.917 832.395 502.595 832.661 502.329C832.926 502.064 833.248 501.931 833.627 501.931H838.288C838.667 501.931 838.989 502.064 839.255 502.329C839.52 502.595 839.653 502.917 839.653 503.296V505.626C840.638 504.414 841.888 503.409 843.404 502.613C844.958 501.78 846.872 501.363 849.145 501.363C851.457 501.363 853.466 501.893 855.171 502.955C856.876 503.978 858.184 505.437 859.093 507.332C860.041 509.226 860.514 511.5 860.514 514.153V530.126C860.514 530.505 860.382 530.827 860.116 531.092C859.851 531.358 859.529 531.49 859.15 531.49H854.148C853.769 531.49 853.447 531.358 853.181 531.092C852.916 530.827 852.783 530.505 852.783 530.126V514.494C852.783 512.296 852.234 510.572 851.135 509.321C850.074 508.071 848.52 507.445 846.474 507.445C844.503 507.445 842.931 508.071 841.756 509.321C840.581 510.572 839.994 512.296 839.994 514.494V530.126C839.994 530.505 839.861 530.827 839.596 531.092C839.33 531.358 839.008 531.49 838.629 531.49H833.627Z" fill="#101828"/>
<circle cx="682.127" cy="363.801" r="65.3706" fill="#101828" stroke="#101828" stroke-width="5.6844"/>
<path d="M655.6 388.667C655.6 389.986 655.076 391.251 654.143 392.184C653.21 393.117 651.945 393.641 650.626 393.641C649.307 393.641 648.042 393.117 647.109 392.184C646.176 391.251 645.652 389.986 645.652 388.667C645.652 385.915 647.874 380.377 650.626 380.377C653.378 380.377 655.6 385.915 655.6 388.667ZM708.654 388.667C708.654 389.986 709.178 391.251 710.111 392.184C711.044 393.117 712.309 393.641 713.628 393.641C714.947 393.641 716.213 393.117 717.145 392.184C718.078 391.251 718.602 389.986 718.602 388.667C718.602 385.915 716.38 380.377 713.628 380.377C710.876 380.377 708.654 385.915 708.654 388.667Z" fill="#101828"/>
<path d="M662.233 353.855H702.024V400.278H662.233V353.855Z" fill="white"/>
<path d="M675.495 383.697H688.759V400.277H675.495V383.697Z" fill="#101828"/>
<path d="M663.893 330.639H700.367V353.85H663.893V330.639Z" fill="white"/>
<path d="M718.605 398.62H715.289V395.072C716.709 394.706 717.967 393.879 718.867 392.721C719.767 391.563 720.258 390.139 720.263 388.673C720.263 385.257 717.676 378.725 713.631 378.725C709.586 378.725 706.999 385.257 706.999 388.673C707.004 390.139 707.495 391.563 708.395 392.721C709.295 393.879 710.553 394.706 711.973 395.072V398.62H703.683V355.514C704.123 355.514 704.545 355.339 704.856 355.028C705.167 354.717 705.341 354.295 705.341 353.856C705.341 353.416 705.167 352.994 704.856 352.683C704.545 352.372 704.123 352.198 703.683 352.198H702.025V330.644C702.025 330.205 701.851 329.783 701.54 329.472C701.229 329.161 700.807 328.986 700.367 328.986H663.892C663.453 328.986 663.031 329.161 662.72 329.472C662.409 329.783 662.235 330.205 662.235 330.644V352.198H660.577C660.137 352.198 659.715 352.372 659.404 352.683C659.093 352.994 658.919 353.416 658.919 353.856C658.919 354.295 659.093 354.717 659.404 355.028C659.715 355.339 660.137 355.514 660.577 355.514V398.62H652.287V395.072C653.707 394.706 654.965 393.879 655.865 392.721C656.765 391.563 657.256 390.139 657.261 388.673C657.261 385.257 654.674 378.725 650.629 378.725C646.583 378.725 643.997 385.257 643.997 388.673C644.002 390.139 644.493 391.563 645.393 392.721C646.293 393.879 647.551 394.706 648.971 395.072V398.62H645.655C645.215 398.62 644.794 398.795 644.483 399.106C644.172 399.417 643.997 399.838 643.997 400.278C643.997 400.718 644.172 401.14 644.483 401.451C644.794 401.761 645.215 401.936 645.655 401.936H718.605C719.045 401.936 719.466 401.761 719.777 401.451C720.088 401.14 720.263 400.718 720.263 400.278C720.263 399.838 720.088 399.417 719.777 399.106C719.466 398.795 719.045 398.62 718.605 398.62ZM710.315 388.673C710.315 386.186 712.387 382.041 713.631 382.041C714.874 382.041 716.947 386.186 716.947 388.673C716.947 389.552 716.598 390.395 715.976 391.017C715.354 391.639 714.51 391.988 713.631 391.988C712.752 391.988 711.908 391.639 711.286 391.017C710.664 390.395 710.315 389.552 710.315 388.673ZM647.313 388.673C647.313 386.186 649.385 382.041 650.629 382.041C651.872 382.041 653.945 386.186 653.945 388.673C653.945 389.552 653.595 390.395 652.974 391.017C652.352 391.639 651.508 391.988 650.629 391.988C649.749 391.988 648.906 391.639 648.284 391.017C647.662 390.395 647.313 389.552 647.313 388.673ZM665.55 332.302H698.709V352.198H665.55V332.302ZM677.156 398.62V385.357H687.104V398.62H677.156ZM690.42 398.62V383.699C690.42 383.259 690.245 382.837 689.934 382.526C689.623 382.215 689.201 382.041 688.762 382.041H675.498C675.058 382.041 674.637 382.215 674.326 382.526C674.015 382.837 673.84 383.259 673.84 383.699V398.62H663.892V355.514H700.367V398.62H690.42Z" fill="white"/>
<path d="M673.84 338.934H670.524C669.609 338.934 668.866 339.676 668.866 340.592V347.223C668.866 348.139 669.609 348.881 670.524 348.881H673.84C674.756 348.881 675.498 348.139 675.498 347.223V340.592C675.498 339.676 674.756 338.934 673.84 338.934Z" fill="#101828"/>
<path d="M683.787 338.934H680.471C679.556 338.934 678.813 339.676 678.813 340.592V347.223C678.813 348.139 679.556 348.881 680.471 348.881H683.787C684.703 348.881 685.445 348.139 685.445 347.223V340.592C685.445 339.676 684.703 338.934 683.787 338.934Z" fill="#101828"/>
<path d="M693.736 338.934H690.42C689.504 338.934 688.762 339.676 688.762 340.592V347.223C688.762 348.139 689.504 348.881 690.42 348.881H693.736C694.651 348.881 695.394 348.139 695.394 347.223V340.592C695.394 339.676 694.651 338.934 693.736 338.934Z" fill="#101828"/>
<path d="M683.787 360.482H680.471C679.556 360.482 678.813 361.225 678.813 362.14V365.456C678.813 366.372 679.556 367.114 680.471 367.114H683.787C684.703 367.114 685.445 366.372 685.445 365.456V362.14C685.445 361.225 684.703 360.482 683.787 360.482Z" fill="#101828"/>
<path d="M673.84 360.482H670.524C669.609 360.482 668.866 361.225 668.866 362.14V365.456C668.866 366.372 669.609 367.114 670.524 367.114H673.84C674.756 367.114 675.498 366.372 675.498 365.456V362.14C675.498 361.225 674.756 360.482 673.84 360.482Z" fill="#101828"/>
<path d="M693.736 360.482H690.42C689.504 360.482 688.762 361.225 688.762 362.14V365.456C688.762 366.372 689.504 367.114 690.42 367.114H693.736C694.651 367.114 695.394 366.372 695.394 365.456V362.14C695.394 361.225 694.651 360.482 693.736 360.482Z" fill="#101828"/>
<path d="M683.787 370.43H680.471C679.556 370.43 678.813 371.172 678.813 372.088V375.404C678.813 376.319 679.556 377.061 680.471 377.061H683.787C684.703 377.061 685.445 376.319 685.445 375.404V372.088C685.445 371.172 684.703 370.43 683.787 370.43Z" fill="#101828"/>
<path d="M673.84 370.43H670.524C669.609 370.43 668.866 371.172 668.866 372.088V375.404C668.866 376.319 669.609 377.061 670.524 377.061H673.84C674.756 377.061 675.498 376.319 675.498 375.404V372.088C675.498 371.172 674.756 370.43 673.84 370.43Z" fill="#101828"/>
<path d="M693.736 370.43H690.42C689.504 370.43 688.762 371.172 688.762 372.088V375.404C688.762 376.319 689.504 377.061 690.42 377.061H693.736C694.651 377.061 695.394 376.319 695.394 375.404V372.088C695.394 371.172 694.651 370.43 693.736 370.43Z" fill="#101828"/>
<path d="M690.419 325.666H673.84C672.924 325.666 672.182 326.408 672.182 327.324V333.956C672.182 334.871 672.924 335.614 673.84 335.614H690.419C691.335 335.614 692.077 334.871 692.077 333.956V327.324C692.077 326.408 691.335 325.666 690.419 325.666Z" fill="white"/>
<path d="M133.583 360.959H611.073" stroke="#4CC3C7" stroke-width="5.6844"/>
<path d="M335.38 153.479C484.698 153.479 435.882 358.117 613.915 358.117" stroke="#4CC3C7" stroke-width="5.6844"/>
<path d="M335.38 568.439C484.698 568.439 435.882 363.801 613.915 363.801" stroke="#4CC3C7" stroke-width="5.6844"/>
<path d="M1230.67 360.959H753.182" stroke="#4CC3C7" stroke-width="5.6844"/>
<path d="M1028.88 153.479C879.557 153.479 928.372 358.117 750.339 358.117" stroke="#4CC3C7" stroke-width="5.6844"/>
<path d="M1028.88 568.439C879.557 568.439 928.372 363.801 750.339 363.801" stroke="#4CC3C7" stroke-width="5.6844"/>
<circle cx="272.85" cy="147.793" r="65.3706" fill="#4CC3C7" stroke="#4CC3C7" stroke-width="5.6844"/>
<path d="M305.593 178.715H300.136V129.602C300.163 129.204 300.056 128.808 299.832 128.478C299.608 128.149 299.279 127.904 298.899 127.783L285.584 122.216V178.715H281.946V115.049C281.946 114.567 281.755 114.104 281.413 113.763C281.072 113.422 280.61 113.23 280.127 113.23H247.385C246.903 113.23 246.44 113.422 246.099 113.763C245.758 114.104 245.566 114.567 245.566 115.049V178.715H240.109C239.627 178.715 239.164 178.906 238.823 179.248C238.482 179.589 238.29 180.051 238.29 180.534C238.29 181.016 238.482 181.479 238.823 181.82C239.164 182.161 239.627 182.353 240.109 182.353H305.593C306.076 182.353 306.538 182.161 306.88 181.82C307.221 181.479 307.412 181.016 307.412 180.534C307.412 180.051 307.221 179.589 306.88 179.248C306.538 178.906 306.076 178.715 305.593 178.715ZM291.041 135.059H294.679C295.162 135.059 295.624 135.25 295.966 135.591C296.307 135.932 296.498 136.395 296.498 136.878C296.489 137.357 296.294 137.814 295.955 138.153C295.616 138.493 295.159 138.687 294.679 138.697H291.041C290.562 138.687 290.104 138.493 289.765 138.153C289.426 137.814 289.232 137.357 289.222 136.878C289.222 136.395 289.414 135.932 289.755 135.591C290.096 135.25 290.559 135.059 291.041 135.059ZM291.041 145.973H294.679C295.162 145.973 295.624 146.164 295.966 146.505C296.307 146.847 296.498 147.309 296.498 147.792C296.498 148.274 296.307 148.737 295.966 149.078C295.624 149.419 295.162 149.611 294.679 149.611H291.041C290.559 149.611 290.096 149.419 289.755 149.078C289.414 148.737 289.222 148.274 289.222 147.792C289.222 147.309 289.414 146.847 289.755 146.505C290.096 146.164 290.559 145.973 291.041 145.973ZM291.041 156.887H294.679C295.159 156.896 295.616 157.091 295.955 157.43C296.294 157.769 296.489 158.226 296.498 158.706C296.498 159.188 296.307 159.651 295.966 159.992C295.624 160.333 295.162 160.525 294.679 160.525H291.041C290.559 160.525 290.096 160.333 289.755 159.992C289.414 159.651 289.222 159.188 289.222 158.706C289.232 158.226 289.426 157.769 289.765 157.43C290.104 157.091 290.562 156.896 291.041 156.887ZM291.041 167.801H294.679C295.162 167.801 295.624 167.992 295.966 168.333C296.307 168.675 296.498 169.137 296.498 169.62C296.498 170.102 296.307 170.565 295.966 170.906C295.624 171.247 295.162 171.439 294.679 171.439H291.041C290.559 171.439 290.096 171.247 289.755 170.906C289.414 170.565 289.222 170.102 289.222 169.62C289.222 169.137 289.414 168.675 289.755 168.333C290.096 167.992 290.559 167.801 291.041 167.801ZM267.394 124.145H271.032C271.515 124.145 271.977 124.336 272.318 124.677C272.66 125.018 272.851 125.481 272.851 125.964C272.851 126.446 272.66 126.909 272.318 127.25C271.977 127.591 271.515 127.783 271.032 127.783H267.394C266.912 127.783 266.449 127.591 266.108 127.25C265.767 126.909 265.575 126.446 265.575 125.964C265.575 125.481 265.767 125.018 266.108 124.677C266.449 124.336 266.912 124.145 267.394 124.145ZM267.394 135.059H271.032C271.515 135.059 271.977 135.25 272.318 135.591C272.66 135.932 272.851 136.395 272.851 136.878C272.851 137.36 272.66 137.823 272.318 138.164C271.977 138.505 271.515 138.697 271.032 138.697H267.394C266.912 138.697 266.449 138.505 266.108 138.164C265.767 137.823 265.575 137.36 265.575 136.878C265.575 136.395 265.767 135.932 266.108 135.591C266.449 135.25 266.912 135.059 267.394 135.059ZM267.394 145.973H271.032C271.515 145.973 271.977 146.164 272.318 146.505C272.66 146.847 272.851 147.309 272.851 147.792C272.851 148.274 272.66 148.737 272.318 149.078C271.977 149.419 271.515 149.611 271.032 149.611H267.394C266.912 149.611 266.449 149.419 266.108 149.078C265.767 148.737 265.575 148.274 265.575 147.792C265.575 147.309 265.767 146.847 266.108 146.505C266.449 146.164 266.912 145.973 267.394 145.973ZM267.394 156.887H271.032C271.515 156.887 271.977 157.078 272.318 157.419C272.66 157.761 272.851 158.223 272.851 158.706C272.851 159.188 272.66 159.651 272.318 159.992C271.977 160.333 271.515 160.525 271.032 160.525H267.394C266.912 160.525 266.449 160.333 266.108 159.992C265.767 159.651 265.575 159.188 265.575 158.706C265.575 158.223 265.767 157.761 266.108 157.419C266.449 157.078 266.912 156.887 267.394 156.887ZM256.262 124.145H260.118C260.601 124.145 261.063 124.336 261.404 124.677C261.745 125.018 261.937 125.481 261.937 125.964C261.937 126.446 261.745 126.909 261.404 127.25C261.063 127.591 260.601 127.783 260.118 127.783H256.48C255.998 127.783 255.535 127.591 255.194 127.25C254.853 126.909 254.661 126.446 254.661 125.964C254.661 125.481 254.853 125.018 255.194 124.677C255.535 124.336 255.998 124.145 256.48 124.145H256.262ZM256.262 135.059H260.118C260.601 135.059 261.063 135.25 261.404 135.591C261.745 135.932 261.937 136.395 261.937 136.878C261.937 137.36 261.745 137.823 261.404 138.164C261.063 138.505 260.601 138.697 260.118 138.697H256.48C255.998 138.697 255.535 138.505 255.194 138.164C254.853 137.823 254.661 137.36 254.661 136.878C254.661 136.395 254.853 135.932 255.194 135.591C255.535 135.25 255.998 135.059 256.48 135.059H256.262ZM256.262 145.973H260.118C260.601 145.973 261.063 146.164 261.404 146.505C261.745 146.847 261.937 147.309 261.937 147.792C261.937 148.274 261.745 148.737 261.404 149.078C261.063 149.419 260.601 149.611 260.118 149.611H256.48C255.998 149.611 255.535 149.419 255.194 149.078C254.853 148.737 254.661 148.274 254.661 147.792C254.661 147.309 254.853 146.847 255.194 146.505C255.535 146.164 255.998 145.973 256.48 145.973H256.262ZM256.262 156.887H260.118C260.601 156.887 261.063 157.078 261.404 157.419C261.745 157.761 261.937 158.223 261.937 158.706C261.937 159.188 261.745 159.651 261.404 159.992C261.063 160.333 260.601 160.525 260.118 160.525H256.48C255.998 160.525 255.535 160.333 255.194 159.992C254.853 159.651 254.661 159.188 254.661 158.706C254.661 158.223 254.853 157.761 255.194 157.419C255.535 157.078 255.998 156.887 256.48 156.887H256.262ZM265.575 178.715V171.439H261.937V178.715H258.299V169.511C258.327 169.047 258.531 168.612 258.869 168.294C259.207 167.976 259.654 167.8 260.118 167.801H267.394C267.877 167.801 268.339 167.992 268.68 168.333C269.022 168.675 269.213 169.137 269.213 169.62V178.715H265.575Z" fill="#FEFEFE"/>
<circle cx="68.2128" cy="363.801" r="65.3706" fill="#4CC3C7" stroke="#4CC3C7" stroke-width="5.6844"/>
<path d="M100.955 394.723H95.4976V345.609C95.5246 345.211 95.4174 344.816 95.1932 344.486C94.969 344.157 94.6406 343.912 94.2607 343.79L80.9456 338.224V394.723H77.3076V331.057C77.3076 330.575 77.1159 330.112 76.7748 329.771C76.4337 329.43 75.971 329.238 75.4885 329.238H42.7464C42.264 329.238 41.8013 329.43 41.4602 329.771C41.119 330.112 40.9274 330.575 40.9274 331.057V394.723H35.4704C34.9879 394.723 34.5253 394.914 34.1841 395.255C33.843 395.596 33.6514 396.059 33.6514 396.542C33.6514 397.024 33.843 397.487 34.1841 397.828C34.5253 398.169 34.9879 398.361 35.4704 398.361H100.955C101.437 398.361 101.9 398.169 102.241 397.828C102.582 397.487 102.774 397.024 102.774 396.542C102.774 396.059 102.582 395.596 102.241 395.255C101.9 394.914 101.437 394.723 100.955 394.723ZM86.4026 351.066H90.0406C90.523 351.066 90.9857 351.258 91.3268 351.599C91.668 351.94 91.8596 352.403 91.8596 352.885C91.8503 353.365 91.6557 353.822 91.3165 354.161C90.9774 354.5 90.5201 354.695 90.0406 354.704H86.4026C85.9231 354.695 85.4658 354.5 85.1267 354.161C84.7875 353.822 84.5929 353.365 84.5836 352.885C84.5836 352.403 84.7752 351.94 85.1164 351.599C85.4575 351.258 85.9202 351.066 86.4026 351.066ZM86.4026 361.98H90.0406C90.523 361.98 90.9857 362.172 91.3268 362.513C91.668 362.854 91.8596 363.317 91.8596 363.799C91.8596 364.282 91.668 364.745 91.3268 365.086C90.9857 365.427 90.523 365.618 90.0406 365.618H86.4026C85.9202 365.618 85.4575 365.427 85.1164 365.086C84.7752 364.745 84.5836 364.282 84.5836 363.799C84.5836 363.317 84.7752 362.854 85.1164 362.513C85.4575 362.172 85.9202 361.98 86.4026 361.98ZM86.4026 372.894H90.0406C90.5201 372.904 90.9774 373.098 91.3165 373.438C91.6557 373.777 91.8503 374.234 91.8596 374.713C91.8596 375.196 91.668 375.659 91.3268 376C90.9857 376.341 90.523 376.532 90.0406 376.532H86.4026C85.9202 376.532 85.4575 376.341 85.1164 376C84.7752 375.659 84.5836 375.196 84.5836 374.713C84.5929 374.234 84.7875 373.777 85.1267 373.438C85.4658 373.098 85.9231 372.904 86.4026 372.894ZM86.4026 383.809H90.0406C90.523 383.809 90.9857 384 91.3268 384.341C91.668 384.682 91.8596 385.145 91.8596 385.628C91.8596 386.11 91.668 386.573 91.3268 386.914C90.9857 387.255 90.523 387.447 90.0406 387.447H86.4026C85.9202 387.447 85.4575 387.255 85.1164 386.914C84.7752 386.573 84.5836 386.11 84.5836 385.628C84.5836 385.145 84.7752 384.682 85.1164 384.341C85.4575 384 85.9202 383.809 86.4026 383.809ZM62.7555 340.152H66.3935C66.8759 340.152 67.3386 340.344 67.6797 340.685C68.0209 341.026 68.2125 341.489 68.2125 341.971C68.2125 342.454 68.0209 342.916 67.6797 343.258C67.3386 343.599 66.8759 343.79 66.3935 343.79H62.7555C62.2731 343.79 61.8104 343.599 61.4693 343.258C61.1281 342.916 60.9365 342.454 60.9365 341.971C60.9365 341.489 61.1281 341.026 61.4693 340.685C61.8104 340.344 62.2731 340.152 62.7555 340.152ZM62.7555 351.066H66.3935C66.8759 351.066 67.3386 351.258 67.6797 351.599C68.0209 351.94 68.2125 352.403 68.2125 352.885C68.2125 353.368 68.0209 353.83 67.6797 354.172C67.3386 354.513 66.8759 354.704 66.3935 354.704H62.7555C62.2731 354.704 61.8104 354.513 61.4693 354.172C61.1281 353.83 60.9365 353.368 60.9365 352.885C60.9365 352.403 61.1281 351.94 61.4693 351.599C61.8104 351.258 62.2731 351.066 62.7555 351.066ZM62.7555 361.98H66.3935C66.8759 361.98 67.3386 362.172 67.6797 362.513C68.0209 362.854 68.2125 363.317 68.2125 363.799C68.2125 364.282 68.0209 364.745 67.6797 365.086C67.3386 365.427 66.8759 365.618 66.3935 365.618H62.7555C62.2731 365.618 61.8104 365.427 61.4693 365.086C61.1281 364.745 60.9365 364.282 60.9365 363.799C60.9365 363.317 61.1281 362.854 61.4693 362.513C61.8104 362.172 62.2731 361.98 62.7555 361.98ZM62.7555 372.894H66.3935C66.8759 372.894 67.3386 373.086 67.6797 373.427C68.0209 373.768 68.2125 374.231 68.2125 374.713C68.2125 375.196 68.0209 375.659 67.6797 376C67.3386 376.341 66.8759 376.532 66.3935 376.532H62.7555C62.2731 376.532 61.8104 376.341 61.4693 376C61.1281 375.659 60.9365 375.196 60.9365 374.713C60.9365 374.231 61.1281 373.768 61.4693 373.427C61.8104 373.086 62.2731 372.894 62.7555 372.894ZM51.6232 340.152H55.4795C55.9619 340.152 56.4246 340.344 56.7657 340.685C57.1068 341.026 57.2985 341.489 57.2985 341.971C57.2985 342.454 57.1068 342.916 56.7657 343.258C56.4246 343.599 55.9619 343.79 55.4795 343.79H51.8414C51.359 343.79 50.8963 343.599 50.5552 343.258C50.2141 342.916 50.0224 342.454 50.0224 341.971C50.0224 341.489 50.2141 341.026 50.5552 340.685C50.8963 340.344 51.359 340.152 51.8414 340.152H51.6232ZM51.6232 351.066H55.4795C55.9619 351.066 56.4246 351.258 56.7657 351.599C57.1068 351.94 57.2985 352.403 57.2985 352.885C57.2985 353.368 57.1068 353.83 56.7657 354.172C56.4246 354.513 55.9619 354.704 55.4795 354.704H51.8414C51.359 354.704 50.8963 354.513 50.5552 354.172C50.2141 353.83 50.0224 353.368 50.0224 352.885C50.0224 352.403 50.2141 351.94 50.5552 351.599C50.8963 351.258 51.359 351.066 51.8414 351.066H51.6232ZM51.6232 361.98H55.4795C55.9619 361.98 56.4246 362.172 56.7657 362.513C57.1068 362.854 57.2985 363.317 57.2985 363.799C57.2985 364.282 57.1068 364.745 56.7657 365.086C56.4246 365.427 55.9619 365.618 55.4795 365.618H51.8414C51.359 365.618 50.8963 365.427 50.5552 365.086C50.2141 364.745 50.0224 364.282 50.0224 363.799C50.0224 363.317 50.2141 362.854 50.5552 362.513C50.8963 362.172 51.359 361.98 51.8414 361.98H51.6232ZM51.6232 372.894H55.4795C55.9619 372.894 56.4246 373.086 56.7657 373.427C57.1068 373.768 57.2985 374.231 57.2985 374.713C57.2985 375.196 57.1068 375.659 56.7657 376C56.4246 376.341 55.9619 376.532 55.4795 376.532H51.8414C51.359 376.532 50.8963 376.341 50.5552 376C50.2141 375.659 50.0224 375.196 50.0224 374.713C50.0224 374.231 50.2141 373.768 50.5552 373.427C50.8963 373.086 51.359 372.894 51.8414 372.894H51.6232ZM60.9365 394.723V387.447H57.2985V394.723H53.6605V385.518C53.6883 385.055 53.8922 384.62 54.2303 384.302C54.5685 383.984 55.0154 383.808 55.4795 383.809H62.7555C63.2379 383.809 63.7006 384 64.0417 384.341C64.3829 384.682 64.5745 385.145 64.5745 385.628V394.723H60.9365Z" fill="#FEFEFE"/>
<circle cx="272.85" cy="568.441" r="65.3706" fill="#4CC3C7" stroke="#4CC3C7" stroke-width="5.6844"/>
<path d="M305.593 599.361H300.136V550.248C300.163 549.85 300.056 549.455 299.832 549.125C299.608 548.795 299.279 548.55 298.899 548.429L285.584 542.863V599.361H281.946V535.696C281.946 535.214 281.755 534.751 281.413 534.41C281.072 534.069 280.61 533.877 280.127 533.877H247.385C246.903 533.877 246.44 534.069 246.099 534.41C245.758 534.751 245.566 535.214 245.566 535.696V599.361H240.109C239.627 599.361 239.164 599.553 238.823 599.894C238.482 600.235 238.29 600.698 238.29 601.18C238.29 601.663 238.482 602.125 238.823 602.466C239.164 602.808 239.627 602.999 240.109 602.999H305.593C306.076 602.999 306.538 602.808 306.88 602.466C307.221 602.125 307.412 601.663 307.412 601.18C307.412 600.698 307.221 600.235 306.88 599.894C306.538 599.553 306.076 599.361 305.593 599.361ZM291.041 555.705H294.679C295.162 555.705 295.624 555.897 295.966 556.238C296.307 556.579 296.498 557.042 296.498 557.524C296.489 558.004 296.294 558.461 295.955 558.8C295.616 559.139 295.159 559.334 294.679 559.343H291.041C290.562 559.334 290.104 559.139 289.765 558.8C289.426 558.461 289.232 558.004 289.222 557.524C289.222 557.042 289.414 556.579 289.755 556.238C290.096 555.897 290.559 555.705 291.041 555.705ZM291.041 566.619H294.679C295.162 566.619 295.624 566.811 295.966 567.152C296.307 567.493 296.498 567.956 296.498 568.438C296.498 568.921 296.307 569.383 295.966 569.724C295.624 570.065 295.162 570.257 294.679 570.257H291.041C290.559 570.257 290.096 570.065 289.755 569.724C289.414 569.383 289.222 568.921 289.222 568.438C289.222 567.956 289.414 567.493 289.755 567.152C290.096 566.811 290.559 566.619 291.041 566.619ZM291.041 577.533H294.679C295.159 577.542 295.616 577.737 295.955 578.076C296.294 578.415 296.489 578.873 296.498 579.352C296.498 579.835 296.307 580.297 295.966 580.638C295.624 580.98 295.162 581.171 294.679 581.171H291.041C290.559 581.171 290.096 580.98 289.755 580.638C289.414 580.297 289.222 579.835 289.222 579.352C289.232 578.873 289.426 578.415 289.765 578.076C290.104 577.737 290.562 577.542 291.041 577.533ZM291.041 588.447H294.679C295.162 588.447 295.624 588.639 295.966 588.98C296.307 589.321 296.498 589.784 296.498 590.266C296.498 590.749 296.307 591.211 295.966 591.552C295.624 591.894 295.162 592.085 294.679 592.085H291.041C290.559 592.085 290.096 591.894 289.755 591.552C289.414 591.211 289.222 590.749 289.222 590.266C289.222 589.784 289.414 589.321 289.755 588.98C290.096 588.639 290.559 588.447 291.041 588.447ZM267.394 544.791H271.032C271.515 544.791 271.977 544.983 272.318 545.324C272.66 545.665 272.851 546.128 272.851 546.61C272.851 547.092 272.66 547.555 272.318 547.896C271.977 548.237 271.515 548.429 271.032 548.429H267.394C266.912 548.429 266.449 548.237 266.108 547.896C265.767 547.555 265.575 547.092 265.575 546.61C265.575 546.128 265.767 545.665 266.108 545.324C266.449 544.983 266.912 544.791 267.394 544.791ZM267.394 555.705H271.032C271.515 555.705 271.977 555.897 272.318 556.238C272.66 556.579 272.851 557.042 272.851 557.524C272.851 558.006 272.66 558.469 272.318 558.81C271.977 559.151 271.515 559.343 271.032 559.343H267.394C266.912 559.343 266.449 559.151 266.108 558.81C265.767 558.469 265.575 558.006 265.575 557.524C265.575 557.042 265.767 556.579 266.108 556.238C266.449 555.897 266.912 555.705 267.394 555.705ZM267.394 566.619H271.032C271.515 566.619 271.977 566.811 272.318 567.152C272.66 567.493 272.851 567.956 272.851 568.438C272.851 568.921 272.66 569.383 272.318 569.724C271.977 570.065 271.515 570.257 271.032 570.257H267.394C266.912 570.257 266.449 570.065 266.108 569.724C265.767 569.383 265.575 568.921 265.575 568.438C265.575 567.956 265.767 567.493 266.108 567.152C266.449 566.811 266.912 566.619 267.394 566.619ZM267.394 577.533H271.032C271.515 577.533 271.977 577.725 272.318 578.066C272.66 578.407 272.851 578.87 272.851 579.352C272.851 579.835 272.66 580.297 272.318 580.638C271.977 580.98 271.515 581.171 271.032 581.171H267.394C266.912 581.171 266.449 580.98 266.108 580.638C265.767 580.297 265.575 579.835 265.575 579.352C265.575 578.87 265.767 578.407 266.108 578.066C266.449 577.725 266.912 577.533 267.394 577.533ZM256.262 544.791H260.118C260.601 544.791 261.063 544.983 261.404 545.324C261.745 545.665 261.937 546.128 261.937 546.61C261.937 547.092 261.745 547.555 261.404 547.896C261.063 548.237 260.601 548.429 260.118 548.429H256.48C255.998 548.429 255.535 548.237 255.194 547.896C254.853 547.555 254.661 547.092 254.661 546.61C254.661 546.128 254.853 545.665 255.194 545.324C255.535 544.983 255.998 544.791 256.48 544.791H256.262ZM256.262 555.705H260.118C260.601 555.705 261.063 555.897 261.404 556.238C261.745 556.579 261.937 557.042 261.937 557.524C261.937 558.006 261.745 558.469 261.404 558.81C261.063 559.151 260.601 559.343 260.118 559.343H256.48C255.998 559.343 255.535 559.151 255.194 558.81C254.853 558.469 254.661 558.006 254.661 557.524C254.661 557.042 254.853 556.579 255.194 556.238C255.535 555.897 255.998 555.705 256.48 555.705H256.262ZM256.262 566.619H260.118C260.601 566.619 261.063 566.811 261.404 567.152C261.745 567.493 261.937 567.956 261.937 568.438C261.937 568.921 261.745 569.383 261.404 569.724C261.063 570.065 260.601 570.257 260.118 570.257H256.48C255.998 570.257 255.535 570.065 255.194 569.724C254.853 569.383 254.661 568.921 254.661 568.438C254.661 567.956 254.853 567.493 255.194 567.152C255.535 566.811 255.998 566.619 256.48 566.619H256.262ZM256.262 577.533H260.118C260.601 577.533 261.063 577.725 261.404 578.066C261.745 578.407 261.937 578.87 261.937 579.352C261.937 579.835 261.745 580.297 261.404 580.638C261.063 580.98 260.601 581.171 260.118 581.171H256.48C255.998 581.171 255.535 580.98 255.194 580.638C254.853 580.297 254.661 579.835 254.661 579.352C254.661 578.87 254.853 578.407 255.194 578.066C255.535 577.725 255.998 577.533 256.48 577.533H256.262ZM265.575 599.361V592.085H261.937V599.361H258.299V590.157C258.327 589.694 258.531 589.259 258.869 588.941C259.207 588.623 259.654 588.446 260.118 588.447H267.394C267.877 588.447 268.339 588.639 268.68 588.98C269.022 589.321 269.213 589.784 269.213 590.266V599.361H265.575Z" fill="#FEFEFE"/>
<circle cx="1091.4" cy="159.162" r="65.3706" fill="#4CC3C7" stroke="#4CC3C7" stroke-width="5.6844"/>
<path d="M1124.15 190.084H1118.69V140.971C1118.72 140.573 1118.61 140.177 1118.38 139.848C1118.16 139.518 1117.83 139.273 1117.45 139.152L1104.14 133.586V190.084H1100.5V126.419C1100.5 125.936 1100.31 125.474 1099.97 125.132C1099.62 124.791 1099.16 124.6 1098.68 124.6H1065.94C1065.45 124.6 1064.99 124.791 1064.65 125.132C1064.31 125.474 1064.12 125.936 1064.12 126.419V190.084H1058.66C1058.18 190.084 1057.72 190.276 1057.37 190.617C1057.03 190.958 1056.84 191.42 1056.84 191.903C1056.84 192.385 1057.03 192.848 1057.37 193.189C1057.72 193.53 1058.18 193.722 1058.66 193.722H1124.15C1124.63 193.722 1125.09 193.53 1125.43 193.189C1125.77 192.848 1125.96 192.385 1125.96 191.903C1125.96 191.42 1125.77 190.958 1125.43 190.617C1125.09 190.276 1124.63 190.084 1124.15 190.084ZM1109.59 146.428H1113.23C1113.71 146.428 1114.18 146.619 1114.52 146.96C1114.86 147.302 1115.05 147.764 1115.05 148.247C1115.04 148.726 1114.85 149.184 1114.51 149.523C1114.17 149.862 1113.71 150.056 1113.23 150.066H1109.59C1109.11 150.056 1108.66 149.862 1108.32 149.523C1107.98 149.184 1107.78 148.726 1107.77 148.247C1107.77 147.764 1107.97 147.302 1108.31 146.96C1108.65 146.619 1109.11 146.428 1109.59 146.428ZM1109.59 157.342H1113.23C1113.71 157.342 1114.18 157.533 1114.52 157.875C1114.86 158.216 1115.05 158.678 1115.05 159.161C1115.05 159.643 1114.86 160.106 1114.52 160.447C1114.18 160.788 1113.71 160.98 1113.23 160.98H1109.59C1109.11 160.98 1108.65 160.788 1108.31 160.447C1107.97 160.106 1107.77 159.643 1107.77 159.161C1107.77 158.678 1107.97 158.216 1108.31 157.875C1108.65 157.533 1109.11 157.342 1109.59 157.342ZM1109.59 168.256H1113.23C1113.71 168.265 1114.17 168.46 1114.51 168.799C1114.85 169.138 1115.04 169.595 1115.05 170.075C1115.05 170.557 1114.86 171.02 1114.52 171.361C1114.18 171.702 1113.71 171.894 1113.23 171.894H1109.59C1109.11 171.894 1108.65 171.702 1108.31 171.361C1107.97 171.02 1107.77 170.557 1107.77 170.075C1107.78 169.595 1107.98 169.138 1108.32 168.799C1108.66 168.46 1109.11 168.265 1109.59 168.256ZM1109.59 179.17H1113.23C1113.71 179.17 1114.18 179.361 1114.52 179.703C1114.86 180.044 1115.05 180.506 1115.05 180.989C1115.05 181.471 1114.86 181.934 1114.52 182.275C1114.18 182.616 1113.71 182.808 1113.23 182.808H1109.59C1109.11 182.808 1108.65 182.616 1108.31 182.275C1107.97 181.934 1107.77 181.471 1107.77 180.989C1107.77 180.506 1107.97 180.044 1108.31 179.703C1108.65 179.361 1109.11 179.17 1109.59 179.17ZM1085.95 135.514H1089.58C1090.07 135.514 1090.53 135.705 1090.87 136.046C1091.21 136.388 1091.4 136.85 1091.4 137.333C1091.4 137.815 1091.21 138.278 1090.87 138.619C1090.53 138.96 1090.07 139.152 1089.58 139.152H1085.95C1085.46 139.152 1085 138.96 1084.66 138.619C1084.32 138.278 1084.13 137.815 1084.13 137.333C1084.13 136.85 1084.32 136.388 1084.66 136.046C1085 135.705 1085.46 135.514 1085.95 135.514ZM1085.95 146.428H1089.58C1090.07 146.428 1090.53 146.619 1090.87 146.96C1091.21 147.302 1091.4 147.764 1091.4 148.247C1091.4 148.729 1091.21 149.192 1090.87 149.533C1090.53 149.874 1090.07 150.066 1089.58 150.066H1085.95C1085.46 150.066 1085 149.874 1084.66 149.533C1084.32 149.192 1084.13 148.729 1084.13 148.247C1084.13 147.764 1084.32 147.302 1084.66 146.96C1085 146.619 1085.46 146.428 1085.95 146.428ZM1085.95 157.342H1089.58C1090.07 157.342 1090.53 157.533 1090.87 157.875C1091.21 158.216 1091.4 158.678 1091.4 159.161C1091.4 159.643 1091.21 160.106 1090.87 160.447C1090.53 160.788 1090.07 160.98 1089.58 160.98H1085.95C1085.46 160.98 1085 160.788 1084.66 160.447C1084.32 160.106 1084.13 159.643 1084.13 159.161C1084.13 158.678 1084.32 158.216 1084.66 157.875C1085 157.533 1085.46 157.342 1085.95 157.342ZM1085.95 168.256H1089.58C1090.07 168.256 1090.53 168.447 1090.87 168.789C1091.21 169.13 1091.4 169.592 1091.4 170.075C1091.4 170.557 1091.21 171.02 1090.87 171.361C1090.53 171.702 1090.07 171.894 1089.58 171.894H1085.95C1085.46 171.894 1085 171.702 1084.66 171.361C1084.32 171.02 1084.13 170.557 1084.13 170.075C1084.13 169.592 1084.32 169.13 1084.66 168.789C1085 168.447 1085.46 168.256 1085.95 168.256ZM1074.81 135.514H1078.67C1079.15 135.514 1079.61 135.705 1079.96 136.046C1080.3 136.388 1080.49 136.85 1080.49 137.333C1080.49 137.815 1080.3 138.278 1079.96 138.619C1079.61 138.96 1079.15 139.152 1078.67 139.152H1075.03C1074.55 139.152 1074.09 138.96 1073.75 138.619C1073.4 138.278 1073.21 137.815 1073.21 137.333C1073.21 136.85 1073.4 136.388 1073.75 136.046C1074.09 135.705 1074.55 135.514 1075.03 135.514H1074.81ZM1074.81 146.428H1078.67C1079.15 146.428 1079.61 146.619 1079.96 146.96C1080.3 147.302 1080.49 147.764 1080.49 148.247C1080.49 148.729 1080.3 149.192 1079.96 149.533C1079.61 149.874 1079.15 150.066 1078.67 150.066H1075.03C1074.55 150.066 1074.09 149.874 1073.75 149.533C1073.4 149.192 1073.21 148.729 1073.21 148.247C1073.21 147.764 1073.4 147.302 1073.75 146.96C1074.09 146.619 1074.55 146.428 1075.03 146.428H1074.81ZM1074.81 157.342H1078.67C1079.15 157.342 1079.61 157.533 1079.96 157.875C1080.3 158.216 1080.49 158.678 1080.49 159.161C1080.49 159.643 1080.3 160.106 1079.96 160.447C1079.61 160.788 1079.15 160.98 1078.67 160.98H1075.03C1074.55 160.98 1074.09 160.788 1073.75 160.447C1073.4 160.106 1073.21 159.643 1073.21 159.161C1073.21 158.678 1073.4 158.216 1073.75 157.875C1074.09 157.533 1074.55 157.342 1075.03 157.342H1074.81ZM1074.81 168.256H1078.67C1079.15 168.256 1079.61 168.447 1079.96 168.789C1080.3 169.13 1080.49 169.592 1080.49 170.075C1080.49 170.557 1080.3 171.02 1079.96 171.361C1079.61 171.702 1079.15 171.894 1078.67 171.894H1075.03C1074.55 171.894 1074.09 171.702 1073.75 171.361C1073.4 171.02 1073.21 170.557 1073.21 170.075C1073.21 169.592 1073.4 169.13 1073.75 168.789C1074.09 168.447 1074.55 168.256 1075.03 168.256H1074.81ZM1084.13 190.084V182.808H1080.49V190.084H1076.85V180.88C1076.88 180.416 1077.08 179.981 1077.42 179.663C1077.76 179.346 1078.21 179.169 1078.67 179.17H1085.95C1086.43 179.17 1086.89 179.361 1087.23 179.703C1087.57 180.044 1087.76 180.506 1087.76 180.989V190.084H1084.13Z" fill="#FEFEFE"/>
<circle cx="1290.36" cy="363.801" r="65.3706" fill="#4CC3C7" stroke="#4CC3C7" stroke-width="5.6844"/>
<path d="M1323.1 394.723H1317.64V345.609C1317.67 345.211 1317.56 344.816 1317.34 344.486C1317.11 344.157 1316.79 343.912 1316.41 343.79L1303.09 338.224V394.723H1299.45V331.057C1299.45 330.575 1299.26 330.112 1298.92 329.771C1298.58 329.43 1298.12 329.238 1297.63 329.238H1264.89C1264.41 329.238 1263.95 329.43 1263.61 329.771C1263.26 330.112 1263.07 330.575 1263.07 331.057V394.723H1257.62C1257.13 394.723 1256.67 394.914 1256.33 395.255C1255.99 395.596 1255.8 396.059 1255.8 396.542C1255.8 397.024 1255.99 397.487 1256.33 397.828C1256.67 398.169 1257.13 398.361 1257.62 398.361H1323.1C1323.58 398.361 1324.05 398.169 1324.39 397.828C1324.73 397.487 1324.92 397.024 1324.92 396.542C1324.92 396.059 1324.73 395.596 1324.39 395.255C1324.05 394.914 1323.58 394.723 1323.1 394.723ZM1308.55 351.066H1312.19C1312.67 351.066 1313.13 351.258 1313.47 351.599C1313.81 351.94 1314.01 352.403 1314.01 352.885C1314 353.365 1313.8 353.822 1313.46 354.161C1313.12 354.5 1312.67 354.695 1312.19 354.704H1308.55C1308.07 354.695 1307.61 354.5 1307.27 354.161C1306.93 353.822 1306.74 353.365 1306.73 352.885C1306.73 352.403 1306.92 351.94 1307.26 351.599C1307.6 351.258 1308.07 351.066 1308.55 351.066ZM1308.55 361.98H1312.19C1312.67 361.98 1313.13 362.172 1313.47 362.513C1313.81 362.854 1314.01 363.317 1314.01 363.799C1314.01 364.282 1313.81 364.745 1313.47 365.086C1313.13 365.427 1312.67 365.618 1312.19 365.618H1308.55C1308.07 365.618 1307.6 365.427 1307.26 365.086C1306.92 364.745 1306.73 364.282 1306.73 363.799C1306.73 363.317 1306.92 362.854 1307.26 362.513C1307.6 362.172 1308.07 361.98 1308.55 361.98ZM1308.55 372.894H1312.19C1312.67 372.904 1313.12 373.098 1313.46 373.438C1313.8 373.777 1314 374.234 1314.01 374.713C1314.01 375.196 1313.81 375.659 1313.47 376C1313.13 376.341 1312.67 376.532 1312.19 376.532H1308.55C1308.07 376.532 1307.6 376.341 1307.26 376C1306.92 375.659 1306.73 375.196 1306.73 374.713C1306.74 374.234 1306.93 373.777 1307.27 373.438C1307.61 373.098 1308.07 372.904 1308.55 372.894ZM1308.55 383.809H1312.19C1312.67 383.809 1313.13 384 1313.47 384.341C1313.81 384.682 1314.01 385.145 1314.01 385.628C1314.01 386.11 1313.81 386.573 1313.47 386.914C1313.13 387.255 1312.67 387.447 1312.19 387.447H1308.55C1308.07 387.447 1307.6 387.255 1307.26 386.914C1306.92 386.573 1306.73 386.11 1306.73 385.628C1306.73 385.145 1306.92 384.682 1307.26 384.341C1307.6 384 1308.07 383.809 1308.55 383.809ZM1284.9 340.152H1288.54C1289.02 340.152 1289.48 340.344 1289.83 340.685C1290.17 341.026 1290.36 341.489 1290.36 341.971C1290.36 342.454 1290.17 342.916 1289.83 343.258C1289.48 343.599 1289.02 343.79 1288.54 343.79H1284.9C1284.42 343.79 1283.96 343.599 1283.61 343.258C1283.27 342.916 1283.08 342.454 1283.08 341.971C1283.08 341.489 1283.27 341.026 1283.61 340.685C1283.96 340.344 1284.42 340.152 1284.9 340.152ZM1284.9 351.066H1288.54C1289.02 351.066 1289.48 351.258 1289.83 351.599C1290.17 351.94 1290.36 352.403 1290.36 352.885C1290.36 353.368 1290.17 353.83 1289.83 354.172C1289.48 354.513 1289.02 354.704 1288.54 354.704H1284.9C1284.42 354.704 1283.96 354.513 1283.61 354.172C1283.27 353.83 1283.08 353.368 1283.08 352.885C1283.08 352.403 1283.27 351.94 1283.61 351.599C1283.96 351.258 1284.42 351.066 1284.9 351.066ZM1284.9 361.98H1288.54C1289.02 361.98 1289.48 362.172 1289.83 362.513C1290.17 362.854 1290.36 363.317 1290.36 363.799C1290.36 364.282 1290.17 364.745 1289.83 365.086C1289.48 365.427 1289.02 365.618 1288.54 365.618H1284.9C1284.42 365.618 1283.96 365.427 1283.61 365.086C1283.27 364.745 1283.08 364.282 1283.08 363.799C1283.08 363.317 1283.27 362.854 1283.61 362.513C1283.96 362.172 1284.42 361.98 1284.9 361.98ZM1284.9 372.894H1288.54C1289.02 372.894 1289.48 373.086 1289.83 373.427C1290.17 373.768 1290.36 374.231 1290.36 374.713C1290.36 375.196 1290.17 375.659 1289.83 376C1289.48 376.341 1289.02 376.532 1288.54 376.532H1284.9C1284.42 376.532 1283.96 376.341 1283.61 376C1283.27 375.659 1283.08 375.196 1283.08 374.713C1283.08 374.231 1283.27 373.768 1283.61 373.427C1283.96 373.086 1284.42 372.894 1284.9 372.894ZM1273.77 340.152H1277.62C1278.11 340.152 1278.57 340.344 1278.91 340.685C1279.25 341.026 1279.44 341.489 1279.44 341.971C1279.44 342.454 1279.25 342.916 1278.91 343.258C1278.57 343.599 1278.11 343.79 1277.62 343.79H1273.99C1273.5 343.79 1273.04 343.599 1272.7 343.258C1272.36 342.916 1272.17 342.454 1272.17 341.971C1272.17 341.489 1272.36 341.026 1272.7 340.685C1273.04 340.344 1273.5 340.152 1273.99 340.152H1273.77ZM1273.77 351.066H1277.62C1278.11 351.066 1278.57 351.258 1278.91 351.599C1279.25 351.94 1279.44 352.403 1279.44 352.885C1279.44 353.368 1279.25 353.83 1278.91 354.172C1278.57 354.513 1278.11 354.704 1277.62 354.704H1273.99C1273.5 354.704 1273.04 354.513 1272.7 354.172C1272.36 353.83 1272.17 353.368 1272.17 352.885C1272.17 352.403 1272.36 351.94 1272.7 351.599C1273.04 351.258 1273.5 351.066 1273.99 351.066H1273.77ZM1273.77 361.98H1277.62C1278.11 361.98 1278.57 362.172 1278.91 362.513C1279.25 362.854 1279.44 363.317 1279.44 363.799C1279.44 364.282 1279.25 364.745 1278.91 365.086C1278.57 365.427 1278.11 365.618 1277.62 365.618H1273.99C1273.5 365.618 1273.04 365.427 1272.7 365.086C1272.36 364.745 1272.17 364.282 1272.17 363.799C1272.17 363.317 1272.36 362.854 1272.7 362.513C1273.04 362.172 1273.5 361.98 1273.99 361.98H1273.77ZM1273.77 372.894H1277.62C1278.11 372.894 1278.57 373.086 1278.91 373.427C1279.25 373.768 1279.44 374.231 1279.44 374.713C1279.44 375.196 1279.25 375.659 1278.91 376C1278.57 376.341 1278.11 376.532 1277.62 376.532H1273.99C1273.5 376.532 1273.04 376.341 1272.7 376C1272.36 375.659 1272.17 375.196 1272.17 374.713C1272.17 374.231 1272.36 373.768 1272.7 373.427C1273.04 373.086 1273.5 372.894 1273.99 372.894H1273.77ZM1283.08 394.723V387.447H1279.44V394.723H1275.81V385.518C1275.83 385.055 1276.04 384.62 1276.38 384.302C1276.71 383.984 1277.16 383.808 1277.62 383.809H1284.9C1285.38 383.809 1285.85 384 1286.19 384.341C1286.53 384.682 1286.72 385.145 1286.72 385.628V394.723H1283.08Z" fill="#FEFEFE"/>
<circle cx="1091.4" cy="568.441" r="65.3706" fill="#4CC3C7" stroke="#4CC3C7" stroke-width="5.6844"/>
<path d="M1124.15 599.361H1118.69V550.248C1118.72 549.85 1118.61 549.455 1118.38 549.125C1118.16 548.795 1117.83 548.55 1117.45 548.429L1104.14 542.863V599.361H1100.5V535.696C1100.5 535.214 1100.31 534.751 1099.97 534.41C1099.62 534.069 1099.16 533.877 1098.68 533.877H1065.94C1065.45 533.877 1064.99 534.069 1064.65 534.41C1064.31 534.751 1064.12 535.214 1064.12 535.696V599.361H1058.66C1058.18 599.361 1057.72 599.553 1057.37 599.894C1057.03 600.235 1056.84 600.698 1056.84 601.18C1056.84 601.663 1057.03 602.125 1057.37 602.466C1057.72 602.808 1058.18 602.999 1058.66 602.999H1124.15C1124.63 602.999 1125.09 602.808 1125.43 602.466C1125.77 602.125 1125.96 601.663 1125.96 601.18C1125.96 600.698 1125.77 600.235 1125.43 599.894C1125.09 599.553 1124.63 599.361 1124.15 599.361ZM1109.59 555.705H1113.23C1113.71 555.705 1114.18 555.897 1114.52 556.238C1114.86 556.579 1115.05 557.042 1115.05 557.524C1115.04 558.004 1114.85 558.461 1114.51 558.8C1114.17 559.139 1113.71 559.334 1113.23 559.343H1109.59C1109.11 559.334 1108.66 559.139 1108.32 558.8C1107.98 558.461 1107.78 558.004 1107.77 557.524C1107.77 557.042 1107.97 556.579 1108.31 556.238C1108.65 555.897 1109.11 555.705 1109.59 555.705ZM1109.59 566.619H1113.23C1113.71 566.619 1114.18 566.811 1114.52 567.152C1114.86 567.493 1115.05 567.956 1115.05 568.438C1115.05 568.921 1114.86 569.383 1114.52 569.724C1114.18 570.065 1113.71 570.257 1113.23 570.257H1109.59C1109.11 570.257 1108.65 570.065 1108.31 569.724C1107.97 569.383 1107.77 568.921 1107.77 568.438C1107.77 567.956 1107.97 567.493 1108.31 567.152C1108.65 566.811 1109.11 566.619 1109.59 566.619ZM1109.59 577.533H1113.23C1113.71 577.542 1114.17 577.737 1114.51 578.076C1114.85 578.415 1115.04 578.873 1115.05 579.352C1115.05 579.835 1114.86 580.297 1114.52 580.638C1114.18 580.98 1113.71 581.171 1113.23 581.171H1109.59C1109.11 581.171 1108.65 580.98 1108.31 580.638C1107.97 580.297 1107.77 579.835 1107.77 579.352C1107.78 578.873 1107.98 578.415 1108.32 578.076C1108.66 577.737 1109.11 577.542 1109.59 577.533ZM1109.59 588.447H1113.23C1113.71 588.447 1114.18 588.639 1114.52 588.98C1114.86 589.321 1115.05 589.784 1115.05 590.266C1115.05 590.749 1114.86 591.211 1114.52 591.552C1114.18 591.894 1113.71 592.085 1113.23 592.085H1109.59C1109.11 592.085 1108.65 591.894 1108.31 591.552C1107.97 591.211 1107.77 590.749 1107.77 590.266C1107.77 589.784 1107.97 589.321 1108.31 588.98C1108.65 588.639 1109.11 588.447 1109.59 588.447ZM1085.95 544.791H1089.58C1090.07 544.791 1090.53 544.983 1090.87 545.324C1091.21 545.665 1091.4 546.128 1091.4 546.61C1091.4 547.092 1091.21 547.555 1090.87 547.896C1090.53 548.237 1090.07 548.429 1089.58 548.429H1085.95C1085.46 548.429 1085 548.237 1084.66 547.896C1084.32 547.555 1084.13 547.092 1084.13 546.61C1084.13 546.128 1084.32 545.665 1084.66 545.324C1085 544.983 1085.46 544.791 1085.95 544.791ZM1085.95 555.705H1089.58C1090.07 555.705 1090.53 555.897 1090.87 556.238C1091.21 556.579 1091.4 557.042 1091.4 557.524C1091.4 558.006 1091.21 558.469 1090.87 558.81C1090.53 559.151 1090.07 559.343 1089.58 559.343H1085.95C1085.46 559.343 1085 559.151 1084.66 558.81C1084.32 558.469 1084.13 558.006 1084.13 557.524C1084.13 557.042 1084.32 556.579 1084.66 556.238C1085 555.897 1085.46 555.705 1085.95 555.705ZM1085.95 566.619H1089.58C1090.07 566.619 1090.53 566.811 1090.87 567.152C1091.21 567.493 1091.4 567.956 1091.4 568.438C1091.4 568.921 1091.21 569.383 1090.87 569.724C1090.53 570.065 1090.07 570.257 1089.58 570.257H1085.95C1085.46 570.257 1085 570.065 1084.66 569.724C1084.32 569.383 1084.13 568.921 1084.13 568.438C1084.13 567.956 1084.32 567.493 1084.66 567.152C1085 566.811 1085.46 566.619 1085.95 566.619ZM1085.95 577.533H1089.58C1090.07 577.533 1090.53 577.725 1090.87 578.066C1091.21 578.407 1091.4 578.87 1091.4 579.352C1091.4 579.835 1091.21 580.297 1090.87 580.638C1090.53 580.98 1090.07 581.171 1089.58 581.171H1085.95C1085.46 581.171 1085 580.98 1084.66 580.638C1084.32 580.297 1084.13 579.835 1084.13 579.352C1084.13 578.87 1084.32 578.407 1084.66 578.066C1085 577.725 1085.46 577.533 1085.95 577.533ZM1074.81 544.791H1078.67C1079.15 544.791 1079.61 544.983 1079.96 545.324C1080.3 545.665 1080.49 546.128 1080.49 546.61C1080.49 547.092 1080.3 547.555 1079.96 547.896C1079.61 548.237 1079.15 548.429 1078.67 548.429H1075.03C1074.55 548.429 1074.09 548.237 1073.75 547.896C1073.4 547.555 1073.21 547.092 1073.21 546.61C1073.21 546.128 1073.4 545.665 1073.75 545.324C1074.09 544.983 1074.55 544.791 1075.03 544.791H1074.81ZM1074.81 555.705H1078.67C1079.15 555.705 1079.61 555.897 1079.96 556.238C1080.3 556.579 1080.49 557.042 1080.49 557.524C1080.49 558.006 1080.3 558.469 1079.96 558.81C1079.61 559.151 1079.15 559.343 1078.67 559.343H1075.03C1074.55 559.343 1074.09 559.151 1073.75 558.81C1073.4 558.469 1073.21 558.006 1073.21 557.524C1073.21 557.042 1073.4 556.579 1073.75 556.238C1074.09 555.897 1074.55 555.705 1075.03 555.705H1074.81ZM1074.81 566.619H1078.67C1079.15 566.619 1079.61 566.811 1079.96 567.152C1080.3 567.493 1080.49 567.956 1080.49 568.438C1080.49 568.921 1080.3 569.383 1079.96 569.724C1079.61 570.065 1079.15 570.257 1078.67 570.257H1075.03C1074.55 570.257 1074.09 570.065 1073.75 569.724C1073.4 569.383 1073.21 568.921 1073.21 568.438C1073.21 567.956 1073.4 567.493 1073.75 567.152C1074.09 566.811 1074.55 566.619 1075.03 566.619H1074.81ZM1074.81 577.533H1078.67C1079.15 577.533 1079.61 577.725 1079.96 578.066C1080.3 578.407 1080.49 578.87 1080.49 579.352C1080.49 579.835 1080.3 580.297 1079.96 580.638C1079.61 580.98 1079.15 581.171 1078.67 581.171H1075.03C1074.55 581.171 1074.09 580.98 1073.75 580.638C1073.4 580.297 1073.21 579.835 1073.21 579.352C1073.21 578.87 1073.4 578.407 1073.75 578.066C1074.09 577.725 1074.55 577.533 1075.03 577.533H1074.81ZM1084.13 599.361V592.085H1080.49V599.361H1076.85V590.157C1076.88 589.694 1077.08 589.259 1077.42 588.941C1077.76 588.623 1078.21 588.446 1078.67 588.447H1085.95C1086.43 588.447 1086.89 588.639 1087.23 588.98C1087.57 589.321 1087.76 589.784 1087.76 590.266V599.361H1084.13Z" fill="#FEFEFE"/>
</svg>
