<svg width="930" height="394" viewBox="0 0 930 394" fill="none" xmlns="http://www.w3.org/2000/svg">
<path d="M23.5198 383.808C21.2694 383.808 19.3578 383.421 17.785 382.647C16.2363 381.848 15.0506 380.723 14.2279 379.271C13.4052 377.795 12.9455 376.029 12.8487 373.972C12.8245 372.98 12.8124 371.915 12.8124 370.778C12.8124 369.641 12.8245 368.552 12.8487 367.511C12.9455 365.479 13.4052 363.724 14.2279 362.248C15.0748 360.772 16.2726 359.647 17.8213 358.873C19.3941 358.074 21.2936 357.675 23.5198 357.675C25.1652 357.675 26.6413 357.893 27.9479 358.328C29.2546 358.764 30.3677 359.369 31.2872 360.143C32.2067 360.893 32.9205 361.776 33.4287 362.793C33.9368 363.809 34.203 364.91 34.2272 366.096C34.2514 366.313 34.1788 366.495 34.0094 366.64C33.8642 366.785 33.6827 366.858 33.465 366.858H30.0168C29.7506 366.858 29.5329 366.797 29.3635 366.676C29.1941 366.531 29.0731 366.301 29.0005 365.987C28.6134 364.39 27.9479 363.301 27.0042 362.72C26.0605 362.139 24.8869 361.849 23.4835 361.849C21.8623 361.849 20.5677 362.309 19.5998 363.228C18.6319 364.124 18.1116 365.612 18.039 367.693C17.9664 369.677 17.9664 371.71 18.039 373.79C18.1116 375.871 18.6319 377.372 19.5998 378.291C20.5677 379.187 21.8623 379.634 23.4835 379.634C24.8869 379.634 26.0605 379.344 27.0042 378.763C27.9479 378.158 28.6134 377.069 29.0005 375.496C29.0731 375.158 29.1941 374.928 29.3635 374.807C29.5329 374.686 29.7506 374.625 30.0168 374.625H33.465C33.6827 374.625 33.8642 374.698 34.0094 374.843C34.1788 374.988 34.2514 375.17 34.2272 375.388C34.203 376.573 33.9368 377.674 33.4287 378.69C32.9205 379.707 32.2067 380.602 31.2872 381.376C30.3677 382.127 29.2546 382.719 27.9479 383.155C26.6413 383.59 25.1652 383.808 23.5198 383.808ZM38.9673 383.445C38.7253 383.445 38.5196 383.361 38.3502 383.191C38.1808 383.022 38.0961 382.816 38.0961 382.574V365.479C38.0961 365.212 38.1808 364.995 38.3502 364.825C38.5196 364.656 38.7253 364.571 38.9673 364.571H41.9073C42.1492 364.571 42.3549 364.656 42.5243 364.825C42.7179 364.995 42.8147 365.212 42.8147 365.479V366.967C43.3712 366.192 44.085 365.6 44.9561 365.188C45.8515 364.777 46.8799 364.571 48.0413 364.571H49.5295C49.7957 364.571 50.0013 364.656 50.1465 364.825C50.3159 364.995 50.4006 365.2 50.4006 365.442V368.056C50.4006 368.298 50.3159 368.503 50.1465 368.673C50.0013 368.842 49.7957 368.927 49.5295 368.927H46.6984C45.5369 368.927 44.6295 369.253 43.9761 369.907C43.347 370.56 43.0324 371.455 43.0324 372.593V382.574C43.0324 382.816 42.9478 383.022 42.7784 383.191C42.609 383.361 42.3912 383.445 42.125 383.445H38.9673ZM61.1137 383.808C58.4277 383.808 56.2984 383.034 54.7255 381.485C53.1527 379.937 52.3058 377.735 52.1848 374.879C52.1606 374.637 52.1485 374.335 52.1485 373.972C52.1485 373.585 52.1606 373.282 52.1848 373.065C52.2816 371.25 52.6929 369.677 53.4189 368.346C54.169 367.015 55.1974 365.999 56.504 365.297C57.8107 364.571 59.3473 364.208 61.1137 364.208C63.0737 364.208 64.7191 364.62 66.05 365.442C67.3808 366.241 68.385 367.366 69.0626 368.818C69.7401 370.246 70.0789 371.903 70.0789 373.79V374.553C70.0789 374.795 69.9942 375 69.8248 375.17C69.6554 375.339 69.4376 375.424 69.1714 375.424H57.1211C57.1211 375.424 57.1211 375.46 57.1211 375.533C57.1211 375.605 57.1211 375.666 57.1211 375.714C57.1453 376.561 57.3026 377.348 57.5929 378.073C57.9075 378.775 58.3552 379.344 58.9359 379.779C59.5408 380.215 60.2547 380.433 61.0774 380.433C61.7549 380.433 62.3235 380.336 62.7833 380.142C63.2431 379.925 63.6181 379.683 63.9085 379.416C64.1989 379.15 64.4045 378.932 64.5255 378.763C64.7433 378.473 64.9127 378.303 65.0337 378.255C65.1789 378.182 65.3845 378.146 65.6507 378.146H68.7722C69.0142 378.146 69.2077 378.219 69.3529 378.364C69.5223 378.509 69.5949 378.69 69.5707 378.908C69.5465 379.295 69.3408 379.767 68.9537 380.324C68.5907 380.88 68.0584 381.425 67.3566 381.957C66.6549 382.49 65.7717 382.937 64.707 383.3C63.6665 383.639 62.4687 383.808 61.1137 383.808ZM57.1211 372.375H65.1426V372.266C65.1426 371.322 64.9853 370.5 64.6707 369.798C64.3561 369.096 63.8964 368.54 63.2914 368.128C62.6865 367.717 61.9606 367.511 61.1137 367.511C60.2668 367.511 59.5408 367.717 58.9359 368.128C58.331 368.54 57.8712 369.096 57.5566 369.798C57.2663 370.5 57.1211 371.322 57.1211 372.266V372.375ZM79.4124 383.808C78.1541 383.808 77.0168 383.566 76.0005 383.082C74.9842 382.574 74.1736 381.909 73.5687 381.086C72.9879 380.239 72.6976 379.295 72.6976 378.255C72.6976 376.561 73.3751 375.218 74.7302 374.226C76.1094 373.21 77.9242 372.532 80.1746 372.193L85.1472 371.468V370.705C85.1472 369.689 84.8931 368.903 84.385 368.346C83.8768 367.79 83.0057 367.511 81.7717 367.511C80.9005 367.511 80.1867 367.693 79.6302 368.056C79.0978 368.394 78.6986 368.854 78.4324 369.435C78.2388 369.75 77.9605 369.907 77.5976 369.907H74.7302C74.464 369.907 74.2583 369.834 74.1131 369.689C73.9921 369.544 73.9317 369.35 73.9317 369.108C73.9558 368.721 74.1131 368.249 74.4035 367.693C74.6939 367.136 75.1536 366.604 75.7828 366.096C76.4119 365.563 77.2225 365.116 78.2146 364.753C79.2067 364.39 80.4045 364.208 81.8079 364.208C83.3324 364.208 84.6149 364.402 85.6554 364.789C86.72 365.152 87.567 365.648 88.1961 366.277C88.8252 366.906 89.285 367.644 89.5754 368.491C89.8657 369.338 90.0109 370.233 90.0109 371.177V382.574C90.0109 382.816 89.9262 383.022 89.7568 383.191C89.5875 383.361 89.3818 383.445 89.1398 383.445H86.1998C85.9336 383.445 85.7158 383.361 85.5465 383.191C85.4013 383.022 85.3287 382.816 85.3287 382.574V381.159C85.0141 381.618 84.5907 382.054 84.0583 382.465C83.526 382.852 82.8726 383.179 82.0983 383.445C81.3482 383.687 80.4529 383.808 79.4124 383.808ZM80.6465 380.36C81.4934 380.36 82.2556 380.179 82.9331 379.816C83.6349 379.453 84.1793 378.896 84.5665 378.146C84.9778 377.372 85.1835 376.404 85.1835 375.242V374.48L81.5539 375.061C80.1262 375.279 79.0615 375.63 78.3598 376.113C77.6581 376.597 77.3072 377.19 77.3072 377.892C77.3072 378.424 77.4645 378.884 77.7791 379.271C78.1178 379.634 78.5413 379.912 79.0494 380.106C79.5576 380.275 80.0899 380.36 80.6465 380.36ZM103.02 383.445C101.568 383.445 100.346 383.191 99.3538 382.683C98.3617 382.175 97.6237 381.425 97.1397 380.433C96.6558 379.416 96.4138 378.158 96.4138 376.658V368.419H93.5464C93.3044 368.419 93.0987 368.334 92.9294 368.165C92.76 367.995 92.6753 367.79 92.6753 367.548V365.442C92.6753 365.2 92.76 364.995 92.9294 364.825C93.0987 364.656 93.3044 364.571 93.5464 364.571H96.4138V358.546C96.4138 358.304 96.4864 358.098 96.6316 357.929C96.801 357.76 97.0187 357.675 97.2849 357.675H100.225C100.467 357.675 100.673 357.76 100.842 357.929C101.011 358.098 101.096 358.304 101.096 358.546V364.571H105.633C105.875 364.571 106.081 364.656 106.25 364.825C106.419 364.995 106.504 365.2 106.504 365.442V367.548C106.504 367.79 106.419 367.995 106.25 368.165C106.081 368.334 105.875 368.419 105.633 368.419H101.096V376.295C101.096 377.287 101.265 378.061 101.604 378.618C101.967 379.174 102.584 379.453 103.455 379.453H105.96C106.202 379.453 106.407 379.537 106.577 379.707C106.746 379.876 106.831 380.082 106.831 380.324V382.574C106.831 382.816 106.746 383.022 106.577 383.191C106.407 383.361 106.202 383.445 105.96 383.445H103.02ZM118.181 383.808C115.495 383.808 113.366 383.034 111.793 381.485C110.22 379.937 109.373 377.735 109.252 374.879C109.228 374.637 109.216 374.335 109.216 373.972C109.216 373.585 109.228 373.282 109.252 373.065C109.349 371.25 109.76 369.677 110.486 368.346C111.236 367.015 112.265 365.999 113.571 365.297C114.878 364.571 116.415 364.208 118.181 364.208C120.141 364.208 121.787 364.62 123.117 365.442C124.448 366.241 125.452 367.366 126.13 368.818C126.808 370.246 127.146 371.903 127.146 373.79V374.553C127.146 374.795 127.062 375 126.892 375.17C126.723 375.339 126.505 375.424 126.239 375.424H114.189C114.189 375.424 114.189 375.46 114.189 375.533C114.189 375.605 114.189 375.666 114.189 375.714C114.213 376.561 114.37 377.348 114.66 378.073C114.975 378.775 115.423 379.344 116.003 379.779C116.608 380.215 117.322 380.433 118.145 380.433C118.822 380.433 119.391 380.336 119.851 380.142C120.31 379.925 120.686 379.683 120.976 379.416C121.266 379.15 121.472 378.932 121.593 378.763C121.811 378.473 121.98 378.303 122.101 378.255C122.246 378.182 122.452 378.146 122.718 378.146H125.84C126.082 378.146 126.275 378.219 126.42 378.364C126.59 378.509 126.662 378.69 126.638 378.908C126.614 379.295 126.408 379.767 126.021 380.324C125.658 380.88 125.126 381.425 124.424 381.957C123.722 382.49 122.839 382.937 121.774 383.3C120.734 383.639 119.536 383.808 118.181 383.808ZM114.189 372.375H122.21V372.266C122.21 371.322 122.053 370.5 121.738 369.798C121.424 369.096 120.964 368.54 120.359 368.128C119.754 367.717 119.028 367.511 118.181 367.511C117.334 367.511 116.608 367.717 116.003 368.128C115.398 368.54 114.939 369.096 114.624 369.798C114.334 370.5 114.189 371.322 114.189 372.266V372.375Z" fill="#4CC3C7"/>
<path d="M277.667 383.808C275.44 383.808 273.541 383.421 271.968 382.647C270.419 381.872 269.21 380.759 268.338 379.308C267.492 377.831 267.032 376.077 266.959 374.045C266.935 373.004 266.923 371.891 266.923 370.705C266.923 369.495 266.935 368.358 266.959 367.293C267.032 365.285 267.492 363.567 268.338 362.139C269.21 360.712 270.432 359.611 272.004 358.836C273.601 358.062 275.489 357.675 277.667 357.675C279.433 357.675 280.982 357.917 282.313 358.401C283.643 358.861 284.744 359.466 285.615 360.216C286.511 360.942 287.176 361.728 287.612 362.575C288.072 363.422 288.314 364.208 288.338 364.934C288.362 365.152 288.301 365.333 288.156 365.479C288.011 365.624 287.817 365.696 287.575 365.696H283.837C283.595 365.696 283.414 365.648 283.293 365.551C283.172 365.454 283.063 365.309 282.966 365.116C282.772 364.608 282.47 364.111 282.058 363.628C281.647 363.119 281.091 362.696 280.389 362.357C279.687 362.018 278.78 361.849 277.667 361.849C276.021 361.849 274.702 362.285 273.71 363.156C272.742 364.027 272.222 365.467 272.15 367.475C272.077 369.58 272.077 371.71 272.15 373.863C272.222 375.92 272.754 377.396 273.747 378.291C274.763 379.187 276.094 379.634 277.739 379.634C278.828 379.634 279.796 379.441 280.643 379.053C281.514 378.666 282.192 378.061 282.675 377.239C283.184 376.416 283.438 375.363 283.438 374.081V372.956H279.01C278.768 372.956 278.562 372.871 278.393 372.702C278.223 372.532 278.138 372.314 278.138 372.048V370.125C278.138 369.858 278.223 369.641 278.393 369.471C278.562 369.302 278.768 369.217 279.01 369.217H287.684C287.951 369.217 288.156 369.302 288.301 369.471C288.471 369.641 288.555 369.858 288.555 370.125V373.936C288.555 375.968 288.108 377.723 287.213 379.199C286.341 380.675 285.083 381.812 283.438 382.61C281.816 383.409 279.893 383.808 277.667 383.808ZM293.644 383.445C293.402 383.445 293.196 383.361 293.027 383.191C292.858 383.022 292.773 382.816 292.773 382.574V365.479C292.773 365.212 292.858 364.995 293.027 364.825C293.196 364.656 293.402 364.571 293.644 364.571H296.584C296.826 364.571 297.032 364.656 297.201 364.825C297.395 364.995 297.491 365.212 297.491 365.479V366.967C298.048 366.192 298.762 365.6 299.633 365.188C300.528 364.777 301.557 364.571 302.718 364.571H304.206C304.472 364.571 304.678 364.656 304.823 364.825C304.993 364.995 305.077 365.2 305.077 365.442V368.056C305.077 368.298 304.993 368.503 304.823 368.673C304.678 368.842 304.472 368.927 304.206 368.927H301.375C300.214 368.927 299.306 369.253 298.653 369.907C298.024 370.56 297.709 371.455 297.709 372.593V382.574C297.709 382.816 297.625 383.022 297.455 383.191C297.286 383.361 297.068 383.445 296.802 383.445H293.644ZM313.105 383.808C311.847 383.808 310.71 383.566 309.694 383.082C308.677 382.574 307.867 381.909 307.262 381.086C306.681 380.239 306.391 379.295 306.391 378.255C306.391 376.561 307.068 375.218 308.423 374.226C309.802 373.21 311.617 372.532 313.868 372.193L318.84 371.468V370.705C318.84 369.689 318.586 368.903 318.078 368.346C317.57 367.79 316.699 367.511 315.465 367.511C314.594 367.511 313.88 367.693 313.323 368.056C312.791 368.394 312.392 368.854 312.125 369.435C311.932 369.75 311.654 369.907 311.291 369.907H308.423C308.157 369.907 307.951 369.834 307.806 369.689C307.685 369.544 307.625 369.35 307.625 369.108C307.649 368.721 307.806 368.249 308.096 367.693C308.387 367.136 308.847 366.604 309.476 366.096C310.105 365.563 310.916 365.116 311.908 364.753C312.9 364.39 314.097 364.208 315.501 364.208C317.025 364.208 318.308 364.402 319.348 364.789C320.413 365.152 321.26 365.648 321.889 366.277C322.518 366.906 322.978 367.644 323.268 368.491C323.559 369.338 323.704 370.233 323.704 371.177V382.574C323.704 382.816 323.619 383.022 323.45 383.191C323.28 383.361 323.075 383.445 322.833 383.445H319.893C319.627 383.445 319.409 383.361 319.239 383.191C319.094 383.022 319.022 382.816 319.022 382.574V381.159C318.707 381.618 318.284 382.054 317.751 382.465C317.219 382.852 316.566 383.179 315.791 383.445C315.041 383.687 314.146 383.808 313.105 383.808ZM314.339 380.36C315.186 380.36 315.949 380.179 316.626 379.816C317.328 379.453 317.872 378.896 318.259 378.146C318.671 377.372 318.876 376.404 318.876 375.242V374.48L315.247 375.061C313.819 375.279 312.755 375.63 312.053 376.113C311.351 376.597 311 377.19 311 377.892C311 378.424 311.157 378.884 311.472 379.271C311.811 379.634 312.234 379.912 312.742 380.106C313.251 380.275 313.783 380.36 314.339 380.36ZM335.366 383.808C334.107 383.808 332.994 383.603 332.026 383.191C331.083 382.756 330.296 382.151 329.667 381.376C329.038 380.602 328.554 379.695 328.215 378.654C327.876 377.59 327.683 376.428 327.634 375.17C327.61 374.734 327.598 374.347 327.598 374.008C327.598 373.645 327.61 373.246 327.634 372.81C327.683 371.601 327.864 370.475 328.179 369.435C328.518 368.394 329.002 367.487 329.631 366.713C330.284 365.914 331.083 365.297 332.026 364.862C332.994 364.426 334.107 364.208 335.366 364.208C336.672 364.208 337.773 364.438 338.668 364.898C339.588 365.333 340.35 365.902 340.955 366.604V358.546C340.955 358.304 341.028 358.098 341.173 357.929C341.342 357.76 341.56 357.675 341.826 357.675H344.911C345.153 357.675 345.359 357.76 345.528 357.929C345.698 358.098 345.783 358.304 345.783 358.546V382.574C345.783 382.816 345.698 383.022 345.528 383.191C345.359 383.361 345.153 383.445 344.911 383.445H342.044C341.778 383.445 341.56 383.361 341.391 383.191C341.246 383.022 341.173 382.816 341.173 382.574V381.231C340.568 381.981 339.794 382.598 338.85 383.082C337.93 383.566 336.769 383.808 335.366 383.808ZM336.708 379.925C337.725 379.925 338.535 379.695 339.14 379.235C339.745 378.775 340.193 378.194 340.483 377.493C340.774 376.767 340.931 376.029 340.955 375.279C340.979 374.843 340.991 374.383 340.991 373.899C340.991 373.391 340.979 372.919 340.955 372.484C340.931 371.758 340.762 371.068 340.447 370.415C340.132 369.737 339.673 369.181 339.068 368.745C338.463 368.31 337.676 368.092 336.708 368.092C335.692 368.092 334.882 368.322 334.277 368.782C333.696 369.217 333.272 369.798 333.006 370.524C332.74 371.25 332.583 372.048 332.534 372.919C332.51 373.645 332.51 374.371 332.534 375.097C332.583 375.968 332.74 376.767 333.006 377.493C333.272 378.219 333.696 378.811 334.277 379.271C334.882 379.707 335.692 379.925 336.708 379.925ZM358.751 383.808C356.065 383.808 353.935 383.034 352.362 381.485C350.79 379.937 349.943 377.735 349.822 374.879C349.797 374.637 349.785 374.335 349.785 373.972C349.785 373.585 349.797 373.282 349.822 373.065C349.918 371.25 350.33 369.677 351.056 368.346C351.806 367.015 352.834 365.999 354.141 365.297C355.448 364.571 356.984 364.208 358.751 364.208C360.711 364.208 362.356 364.62 363.687 365.442C365.018 366.241 366.022 367.366 366.699 368.818C367.377 370.246 367.716 371.903 367.716 373.79V374.553C367.716 374.795 367.631 375 367.462 375.17C367.292 375.339 367.074 375.424 366.808 375.424H354.758C354.758 375.424 354.758 375.46 354.758 375.533C354.758 375.605 354.758 375.666 354.758 375.714C354.782 376.561 354.939 377.348 355.23 378.073C355.544 378.775 355.992 379.344 356.573 379.779C357.178 380.215 357.892 380.433 358.714 380.433C359.392 380.433 359.96 380.336 360.42 380.142C360.88 379.925 361.255 379.683 361.545 379.416C361.836 379.15 362.041 378.932 362.162 378.763C362.38 378.473 362.55 378.303 362.671 378.255C362.816 378.182 363.021 378.146 363.288 378.146H366.409C366.651 378.146 366.845 378.219 366.99 378.364C367.159 378.509 367.232 378.69 367.208 378.908C367.183 379.295 366.978 379.767 366.591 380.324C366.228 380.88 365.695 381.425 364.993 381.957C364.292 382.49 363.409 382.937 362.344 383.3C361.303 383.639 360.106 383.808 358.751 383.808ZM354.758 372.375H362.779V372.266C362.779 371.322 362.622 370.5 362.308 369.798C361.993 369.096 361.533 368.54 360.928 368.128C360.323 367.717 359.597 367.511 358.751 367.511C357.904 367.511 357.178 367.717 356.573 368.128C355.968 368.54 355.508 369.096 355.193 369.798C354.903 370.5 354.758 371.322 354.758 372.266V372.375ZM387.521 383.445C387.255 383.445 387.037 383.361 386.868 383.191C386.723 383.022 386.65 382.816 386.65 382.574V363.773L381.133 368.019C380.915 368.165 380.698 368.225 380.48 368.201C380.262 368.152 380.068 368.019 379.899 367.802L378.375 365.842C378.229 365.624 378.169 365.394 378.193 365.152C378.242 364.91 378.375 364.716 378.592 364.571L386.723 358.292C386.868 358.171 387.013 358.098 387.158 358.074C387.304 358.05 387.461 358.038 387.63 358.038H390.824C391.066 358.038 391.272 358.123 391.441 358.292C391.611 358.461 391.695 358.667 391.695 358.909V382.574C391.695 382.816 391.611 383.022 391.441 383.191C391.272 383.361 391.066 383.445 390.824 383.445H387.521Z" fill="#101828"/>
<path d="M539.001 383.808C536.774 383.808 534.875 383.421 533.302 382.647C531.753 381.872 530.544 380.759 529.672 379.308C528.826 377.831 528.366 376.077 528.293 374.045C528.269 373.004 528.257 371.891 528.257 370.705C528.257 369.495 528.269 368.358 528.293 367.293C528.366 365.285 528.826 363.567 529.672 362.139C530.544 360.712 531.766 359.611 533.338 358.836C534.935 358.062 536.823 357.675 539.001 357.675C540.767 357.675 542.316 357.917 543.647 358.401C544.977 358.861 546.078 359.466 546.949 360.216C547.845 360.942 548.51 361.728 548.946 362.575C549.406 363.422 549.647 364.208 549.672 364.934C549.696 365.152 549.635 365.333 549.49 365.479C549.345 365.624 549.151 365.696 548.909 365.696H545.171C544.929 365.696 544.747 365.648 544.627 365.551C544.506 365.454 544.397 365.309 544.3 365.116C544.106 364.608 543.804 364.111 543.392 363.628C542.981 363.119 542.425 362.696 541.723 362.357C541.021 362.018 540.114 361.849 539.001 361.849C537.355 361.849 536.036 362.285 535.044 363.156C534.076 364.027 533.556 365.467 533.484 367.475C533.411 369.58 533.411 371.71 533.484 373.863C533.556 375.92 534.088 377.396 535.081 378.291C536.097 379.187 537.428 379.634 539.073 379.634C540.162 379.634 541.13 379.441 541.977 379.053C542.848 378.666 543.526 378.061 544.009 377.239C544.518 376.416 544.772 375.363 544.772 374.081V372.956H540.344C540.102 372.956 539.896 372.871 539.727 372.702C539.557 372.532 539.472 372.314 539.472 372.048V370.125C539.472 369.858 539.557 369.641 539.727 369.471C539.896 369.302 540.102 369.217 540.344 369.217H549.018C549.285 369.217 549.49 369.302 549.635 369.471C549.805 369.641 549.889 369.858 549.889 370.125V373.936C549.889 375.968 549.442 377.723 548.547 379.199C547.675 380.675 546.417 381.812 544.772 382.61C543.15 383.409 541.227 383.808 539.001 383.808ZM554.978 383.445C554.736 383.445 554.53 383.361 554.361 383.191C554.192 383.022 554.107 382.816 554.107 382.574V365.479C554.107 365.212 554.192 364.995 554.361 364.825C554.53 364.656 554.736 364.571 554.978 364.571H557.918C558.16 364.571 558.366 364.656 558.535 364.825C558.729 364.995 558.825 365.212 558.825 365.479V366.967C559.382 366.192 560.096 365.6 560.967 365.188C561.862 364.777 562.891 364.571 564.052 364.571H565.54C565.806 364.571 566.012 364.656 566.157 364.825C566.327 364.995 566.411 365.2 566.411 365.442V368.056C566.411 368.298 566.327 368.503 566.157 368.673C566.012 368.842 565.806 368.927 565.54 368.927H562.709C561.548 368.927 560.64 369.253 559.987 369.907C559.358 370.56 559.043 371.455 559.043 372.593V382.574C559.043 382.816 558.959 383.022 558.789 383.191C558.62 383.361 558.402 383.445 558.136 383.445H554.978ZM574.439 383.808C573.181 383.808 572.044 383.566 571.028 383.082C570.011 382.574 569.201 381.909 568.596 381.086C568.015 380.239 567.725 379.295 567.725 378.255C567.725 376.561 568.402 375.218 569.757 374.226C571.136 373.21 572.951 372.532 575.202 372.193L580.174 371.468V370.705C580.174 369.689 579.92 368.903 579.412 368.346C578.904 367.79 578.033 367.511 576.799 367.511C575.928 367.511 575.214 367.693 574.657 368.056C574.125 368.394 573.726 368.854 573.459 369.435C573.266 369.75 572.988 369.907 572.625 369.907H569.757C569.491 369.907 569.285 369.834 569.14 369.689C569.019 369.544 568.959 369.35 568.959 369.108C568.983 368.721 569.14 368.249 569.43 367.693C569.721 367.136 570.181 366.604 570.81 366.096C571.439 365.563 572.249 365.116 573.242 364.753C574.234 364.39 575.431 364.208 576.835 364.208C578.359 364.208 579.642 364.402 580.682 364.789C581.747 365.152 582.594 365.648 583.223 366.277C583.852 366.906 584.312 367.644 584.602 368.491C584.893 369.338 585.038 370.233 585.038 371.177V382.574C585.038 382.816 584.953 383.022 584.784 383.191C584.614 383.361 584.409 383.445 584.167 383.445H581.227C580.961 383.445 580.743 383.361 580.573 383.191C580.428 383.022 580.356 382.816 580.356 382.574V381.159C580.041 381.618 579.618 382.054 579.085 382.465C578.553 382.852 577.9 383.179 577.125 383.445C576.375 383.687 575.48 383.808 574.439 383.808ZM575.673 380.36C576.52 380.36 577.283 380.179 577.96 379.816C578.662 379.453 579.206 378.896 579.593 378.146C580.005 377.372 580.21 376.404 580.21 375.242V374.48L576.581 375.061C575.153 375.279 574.089 375.63 573.387 376.113C572.685 376.597 572.334 377.19 572.334 377.892C572.334 378.424 572.491 378.884 572.806 379.271C573.145 379.634 573.568 379.912 574.076 380.106C574.585 380.275 575.117 380.36 575.673 380.36ZM596.699 383.808C595.441 383.808 594.328 383.603 593.36 383.191C592.417 382.756 591.63 382.151 591.001 381.376C590.372 380.602 589.888 379.695 589.549 378.654C589.21 377.59 589.017 376.428 588.968 375.17C588.944 374.734 588.932 374.347 588.932 374.008C588.932 373.645 588.944 373.246 588.968 372.81C589.017 371.601 589.198 370.475 589.513 369.435C589.852 368.394 590.336 367.487 590.965 366.713C591.618 365.914 592.417 365.297 593.36 364.862C594.328 364.426 595.441 364.208 596.699 364.208C598.006 364.208 599.107 364.438 600.002 364.898C600.922 365.333 601.684 365.902 602.289 366.604V358.546C602.289 358.304 602.362 358.098 602.507 357.929C602.676 357.76 602.894 357.675 603.16 357.675H606.245C606.487 357.675 606.693 357.76 606.862 357.929C607.032 358.098 607.117 358.304 607.117 358.546V382.574C607.117 382.816 607.032 383.022 606.862 383.191C606.693 383.361 606.487 383.445 606.245 383.445H603.378C603.112 383.445 602.894 383.361 602.725 383.191C602.579 383.022 602.507 382.816 602.507 382.574V381.231C601.902 381.981 601.128 382.598 600.184 383.082C599.264 383.566 598.103 383.808 596.699 383.808ZM598.042 379.925C599.059 379.925 599.869 379.695 600.474 379.235C601.079 378.775 601.527 378.194 601.817 377.493C602.108 376.767 602.265 376.029 602.289 375.279C602.313 374.843 602.325 374.383 602.325 373.899C602.325 373.391 602.313 372.919 602.289 372.484C602.265 371.758 602.096 371.068 601.781 370.415C601.466 369.737 601.007 369.181 600.402 368.745C599.797 368.31 599.01 368.092 598.042 368.092C597.026 368.092 596.216 368.322 595.611 368.782C595.03 369.217 594.606 369.798 594.34 370.524C594.074 371.25 593.917 372.048 593.868 372.919C593.844 373.645 593.844 374.371 593.868 375.097C593.917 375.968 594.074 376.767 594.34 377.493C594.606 378.219 595.03 378.811 595.611 379.271C596.216 379.707 597.026 379.925 598.042 379.925ZM620.085 383.808C617.399 383.808 615.269 383.034 613.696 381.485C612.124 379.937 611.277 377.735 611.156 374.879C611.131 374.637 611.119 374.335 611.119 373.972C611.119 373.585 611.131 373.282 611.156 373.065C611.252 371.25 611.664 369.677 612.39 368.346C613.14 367.015 614.168 365.999 615.475 365.297C616.782 364.571 618.318 364.208 620.085 364.208C622.045 364.208 623.69 364.62 625.021 365.442C626.352 366.241 627.356 367.366 628.033 368.818C628.711 370.246 629.05 371.903 629.05 373.79V374.553C629.05 374.795 628.965 375 628.796 375.17C628.626 375.339 628.408 375.424 628.142 375.424H616.092C616.092 375.424 616.092 375.46 616.092 375.533C616.092 375.605 616.092 375.666 616.092 375.714C616.116 376.561 616.273 377.348 616.564 378.073C616.878 378.775 617.326 379.344 617.907 379.779C618.512 380.215 619.226 380.433 620.048 380.433C620.726 380.433 621.294 380.336 621.754 380.142C622.214 379.925 622.589 379.683 622.879 379.416C623.17 379.15 623.375 378.932 623.496 378.763C623.714 378.473 623.884 378.303 624.005 378.255C624.15 378.182 624.355 378.146 624.622 378.146H627.743C627.985 378.146 628.179 378.219 628.324 378.364C628.493 378.509 628.566 378.69 628.542 378.908C628.517 379.295 628.312 379.767 627.925 380.324C627.562 380.88 627.029 381.425 626.327 381.957C625.626 382.49 624.743 382.937 623.678 383.3C622.637 383.639 621.44 383.808 620.085 383.808ZM616.092 372.375H624.113V372.266C624.113 371.322 623.956 370.5 623.642 369.798C623.327 369.096 622.867 368.54 622.262 368.128C621.657 367.717 620.931 367.511 620.085 367.511C619.238 367.511 618.512 367.717 617.907 368.128C617.302 368.54 616.842 369.096 616.527 369.798C616.237 370.5 616.092 371.322 616.092 372.266V372.375ZM641.306 383.445C641.064 383.445 640.858 383.361 640.689 383.191C640.519 383.022 640.435 382.816 640.435 382.574V380.723C640.435 380.505 640.483 380.251 640.58 379.961C640.701 379.646 640.955 379.332 641.342 379.017L647.077 373.319C648.674 372.06 649.956 370.996 650.924 370.125C651.916 369.229 652.63 368.419 653.066 367.693C653.525 366.943 653.755 366.205 653.755 365.479C653.755 364.39 653.453 363.507 652.848 362.829C652.267 362.151 651.336 361.813 650.053 361.813C649.206 361.813 648.492 361.994 647.912 362.357C647.331 362.696 646.871 363.156 646.532 363.736C646.218 364.317 646 364.958 645.879 365.66C645.831 365.975 645.698 366.192 645.48 366.313C645.262 366.434 645.044 366.495 644.826 366.495H641.596C641.378 366.495 641.197 366.422 641.052 366.277C640.906 366.132 640.834 365.963 640.834 365.769C640.858 364.729 641.076 363.724 641.487 362.756C641.898 361.764 642.491 360.893 643.266 360.143C644.064 359.369 645.032 358.752 646.169 358.292C647.307 357.832 648.589 357.602 650.017 357.602C652.025 357.602 653.683 357.941 654.989 358.619C656.32 359.296 657.312 360.216 657.966 361.377C658.643 362.539 658.982 363.845 658.982 365.297C658.982 366.434 658.764 367.487 658.329 368.455C657.893 369.399 657.264 370.318 656.441 371.213C655.618 372.085 654.626 372.98 653.465 373.899L648.311 379.126H658.655C658.921 379.126 659.127 379.211 659.272 379.38C659.442 379.525 659.526 379.731 659.526 379.997V382.574C659.526 382.816 659.442 383.022 659.272 383.191C659.127 383.361 658.921 383.445 658.655 383.445H641.306Z" fill="#101828"/>
<path d="M800.334 383.808C798.107 383.808 796.208 383.421 794.635 382.647C793.086 381.872 791.877 380.759 791.005 379.308C790.159 377.831 789.699 376.077 789.626 374.045C789.602 373.004 789.59 371.891 789.59 370.705C789.59 369.495 789.602 368.358 789.626 367.293C789.699 365.285 790.159 363.567 791.005 362.139C791.877 360.712 793.099 359.611 794.671 358.836C796.268 358.062 798.156 357.675 800.334 357.675C802.1 357.675 803.649 357.917 804.98 358.401C806.31 358.861 807.411 359.466 808.282 360.216C809.178 360.942 809.843 361.728 810.279 362.575C810.739 363.422 810.981 364.208 811.005 364.934C811.029 365.152 810.968 365.333 810.823 365.479C810.678 365.624 810.484 365.696 810.242 365.696H806.504C806.262 365.696 806.081 365.648 805.96 365.551C805.839 365.454 805.73 365.309 805.633 365.116C805.439 364.608 805.137 364.111 804.725 363.628C804.314 363.119 803.758 362.696 803.056 362.357C802.354 362.018 801.447 361.849 800.334 361.849C798.688 361.849 797.369 362.285 796.377 363.156C795.409 364.027 794.889 365.467 794.817 367.475C794.744 369.58 794.744 371.71 794.817 373.863C794.889 375.92 795.421 377.396 796.414 378.291C797.43 379.187 798.761 379.634 800.406 379.634C801.495 379.634 802.463 379.441 803.31 379.053C804.181 378.666 804.859 378.061 805.342 377.239C805.851 376.416 806.105 375.363 806.105 374.081V372.956H801.677C801.435 372.956 801.229 372.871 801.06 372.702C800.89 372.532 800.805 372.314 800.805 372.048V370.125C800.805 369.858 800.89 369.641 801.06 369.471C801.229 369.302 801.435 369.217 801.677 369.217H810.351C810.618 369.217 810.823 369.302 810.968 369.471C811.138 369.641 811.222 369.858 811.222 370.125V373.936C811.222 375.968 810.775 377.723 809.88 379.199C809.008 380.675 807.75 381.812 806.105 382.61C804.483 383.409 802.56 383.808 800.334 383.808ZM816.311 383.445C816.069 383.445 815.863 383.361 815.694 383.191C815.525 383.022 815.44 382.816 815.44 382.574V365.479C815.44 365.212 815.525 364.995 815.694 364.825C815.863 364.656 816.069 364.571 816.311 364.571H819.251C819.493 364.571 819.699 364.656 819.868 364.825C820.062 364.995 820.158 365.212 820.158 365.479V366.967C820.715 366.192 821.429 365.6 822.3 365.188C823.195 364.777 824.224 364.571 825.385 364.571H826.873C827.139 364.571 827.345 364.656 827.49 364.825C827.66 364.995 827.744 365.2 827.744 365.442V368.056C827.744 368.298 827.66 368.503 827.49 368.673C827.345 368.842 827.139 368.927 826.873 368.927H824.042C822.881 368.927 821.973 369.253 821.32 369.907C820.691 370.56 820.376 371.455 820.376 372.593V382.574C820.376 382.816 820.292 383.022 820.122 383.191C819.953 383.361 819.735 383.445 819.469 383.445H816.311ZM835.772 383.808C834.514 383.808 833.377 383.566 832.361 383.082C831.344 382.574 830.534 381.909 829.929 381.086C829.348 380.239 829.058 379.295 829.058 378.255C829.058 376.561 829.735 375.218 831.09 374.226C832.469 373.21 834.284 372.532 836.535 372.193L841.507 371.468V370.705C841.507 369.689 841.253 368.903 840.745 368.346C840.237 367.79 839.366 367.511 838.132 367.511C837.261 367.511 836.547 367.693 835.99 368.056C835.458 368.394 835.059 368.854 834.792 369.435C834.599 369.75 834.321 369.907 833.958 369.907H831.09C830.824 369.907 830.618 369.834 830.473 369.689C830.352 369.544 830.292 369.35 830.292 369.108C830.316 368.721 830.473 368.249 830.763 367.693C831.054 367.136 831.514 366.604 832.143 366.096C832.772 365.563 833.583 365.116 834.575 364.753C835.567 364.39 836.764 364.208 838.168 364.208C839.692 364.208 840.975 364.402 842.015 364.789C843.08 365.152 843.927 365.648 844.556 366.277C845.185 366.906 845.645 367.644 845.935 368.491C846.226 369.338 846.371 370.233 846.371 371.177V382.574C846.371 382.816 846.286 383.022 846.117 383.191C845.947 383.361 845.742 383.445 845.5 383.445H842.56C842.294 383.445 842.076 383.361 841.906 383.191C841.761 383.022 841.689 382.816 841.689 382.574V381.159C841.374 381.618 840.951 382.054 840.418 382.465C839.886 382.852 839.233 383.179 838.458 383.445C837.708 383.687 836.813 383.808 835.772 383.808ZM837.006 380.36C837.853 380.36 838.616 380.179 839.293 379.816C839.995 379.453 840.539 378.896 840.926 378.146C841.338 377.372 841.543 376.404 841.543 375.242V374.48L837.914 375.061C836.486 375.279 835.422 375.63 834.72 376.113C834.018 376.597 833.667 377.19 833.667 377.892C833.667 378.424 833.824 378.884 834.139 379.271C834.478 379.634 834.901 379.912 835.409 380.106C835.918 380.275 836.45 380.36 837.006 380.36ZM858.033 383.808C856.774 383.808 855.661 383.603 854.693 383.191C853.75 382.756 852.963 382.151 852.334 381.376C851.705 380.602 851.221 379.695 850.882 378.654C850.543 377.59 850.35 376.428 850.301 375.17C850.277 374.734 850.265 374.347 850.265 374.008C850.265 373.645 850.277 373.246 850.301 372.81C850.35 371.601 850.531 370.475 850.846 369.435C851.185 368.394 851.669 367.487 852.298 366.713C852.951 365.914 853.75 365.297 854.693 364.862C855.661 364.426 856.774 364.208 858.033 364.208C859.339 364.208 860.44 364.438 861.335 364.898C862.255 365.333 863.017 365.902 863.622 366.604V358.546C863.622 358.304 863.695 358.098 863.84 357.929C864.009 357.76 864.227 357.675 864.493 357.675H867.578C867.82 357.675 868.026 357.76 868.195 357.929C868.365 358.098 868.45 358.304 868.45 358.546V382.574C868.45 382.816 868.365 383.022 868.195 383.191C868.026 383.361 867.82 383.445 867.578 383.445H864.711C864.445 383.445 864.227 383.361 864.058 383.191C863.913 383.022 863.84 382.816 863.84 382.574V381.231C863.235 381.981 862.461 382.598 861.517 383.082C860.597 383.566 859.436 383.808 858.033 383.808ZM859.375 379.925C860.392 379.925 861.202 379.695 861.807 379.235C862.412 378.775 862.86 378.194 863.15 377.493C863.441 376.767 863.598 376.029 863.622 375.279C863.646 374.843 863.658 374.383 863.658 373.899C863.658 373.391 863.646 372.919 863.622 372.484C863.598 371.758 863.429 371.068 863.114 370.415C862.799 369.737 862.34 369.181 861.735 368.745C861.13 368.31 860.343 368.092 859.375 368.092C858.359 368.092 857.549 368.322 856.944 368.782C856.363 369.217 855.939 369.798 855.673 370.524C855.407 371.25 855.25 372.048 855.201 372.919C855.177 373.645 855.177 374.371 855.201 375.097C855.25 375.968 855.407 376.767 855.673 377.493C855.939 378.219 856.363 378.811 856.944 379.271C857.549 379.707 858.359 379.925 859.375 379.925ZM881.418 383.808C878.732 383.808 876.602 383.034 875.029 381.485C873.457 379.937 872.61 377.735 872.489 374.879C872.464 374.637 872.452 374.335 872.452 373.972C872.452 373.585 872.464 373.282 872.489 373.065C872.585 371.25 872.997 369.677 873.723 368.346C874.473 367.015 875.501 365.999 876.808 365.297C878.115 364.571 879.651 364.208 881.418 364.208C883.378 364.208 885.023 364.62 886.354 365.442C887.685 366.241 888.689 367.366 889.366 368.818C890.044 370.246 890.383 371.903 890.383 373.79V374.553C890.383 374.795 890.298 375 890.129 375.17C889.959 375.339 889.741 375.424 889.475 375.424H877.425C877.425 375.424 877.425 375.46 877.425 375.533C877.425 375.605 877.425 375.666 877.425 375.714C877.449 376.561 877.606 377.348 877.897 378.073C878.211 378.775 878.659 379.344 879.24 379.779C879.845 380.215 880.559 380.433 881.381 380.433C882.059 380.433 882.627 380.336 883.087 380.142C883.547 379.925 883.922 379.683 884.212 379.416C884.503 379.15 884.708 378.932 884.829 378.763C885.047 378.473 885.217 378.303 885.338 378.255C885.483 378.182 885.688 378.146 885.955 378.146H889.076C889.318 378.146 889.512 378.219 889.657 378.364C889.826 378.509 889.899 378.69 889.875 378.908C889.85 379.295 889.645 379.767 889.258 380.324C888.895 380.88 888.362 381.425 887.66 381.957C886.959 382.49 886.076 382.937 885.011 383.3C883.97 383.639 882.773 383.808 881.418 383.808ZM877.425 372.375H885.446V372.266C885.446 371.322 885.289 370.5 884.975 369.798C884.66 369.096 884.2 368.54 883.595 368.128C882.99 367.717 882.264 367.511 881.418 367.511C880.571 367.511 879.845 367.717 879.24 368.128C878.635 368.54 878.175 369.096 877.86 369.798C877.57 370.5 877.425 371.322 877.425 372.266V372.375ZM911.422 383.808C909.729 383.808 908.265 383.603 907.031 383.191C905.796 382.78 904.768 382.248 903.945 381.594C903.147 380.917 902.542 380.191 902.131 379.416C901.719 378.618 901.501 377.831 901.477 377.057C901.477 376.839 901.55 376.67 901.695 376.549C901.864 376.404 902.058 376.331 902.276 376.331H905.542C905.784 376.331 905.99 376.38 906.159 376.476C906.329 376.573 906.474 376.767 906.595 377.057C906.813 377.71 907.164 378.231 907.648 378.618C908.156 379.005 908.736 379.283 909.39 379.453C910.043 379.598 910.733 379.67 911.459 379.67C912.911 379.67 914.06 379.332 914.907 378.654C915.778 377.952 916.213 376.96 916.213 375.678C916.213 374.395 915.814 373.476 915.016 372.919C914.217 372.339 913.104 372.048 911.676 372.048H907.938C907.672 372.048 907.454 371.976 907.285 371.83C907.115 371.661 907.031 371.443 907.031 371.177V369.653C907.031 369.411 907.079 369.205 907.176 369.036C907.297 368.842 907.418 368.685 907.539 368.564L914.036 362.212H903.655C903.389 362.212 903.171 362.127 903.002 361.958C902.856 361.789 902.784 361.583 902.784 361.341V358.945C902.784 358.679 902.856 358.461 903.002 358.292C903.171 358.123 903.389 358.038 903.655 358.038H919.226C919.492 358.038 919.71 358.123 919.879 358.292C920.049 358.461 920.133 358.679 920.133 358.945V361.123C920.133 361.341 920.085 361.534 919.988 361.704C919.892 361.873 919.783 362.018 919.662 362.139L913.382 368.6L913.818 368.636C915.294 368.757 916.601 369.096 917.738 369.653C918.899 370.185 919.795 370.971 920.424 372.012C921.077 373.052 921.404 374.359 921.404 375.932C921.404 377.577 920.968 378.993 920.097 380.179C919.25 381.34 918.077 382.235 916.576 382.865C915.076 383.494 913.358 383.808 911.422 383.808Z" fill="#101828"/>
<path d="M138.222 308.978C141.093 306.253 143.151 303.321 144.254 300.245L141.692 299.326C142.204 297.897 142.463 296.456 142.463 294.999C142.463 293.543 142.204 292.101 141.692 290.672L144.254 289.753C143.151 286.677 141.093 283.745 138.222 281.021L136.348 282.995C134.178 280.936 131.455 278.962 128.226 277.123L129.573 274.757C126.673 273.107 123.427 271.585 119.884 270.215L118.902 272.754C115.83 271.566 112.515 270.49 108.99 269.545L109.695 266.916C106.374 266.025 102.881 265.251 99.244 264.605L98.7677 267.285C95.42 266.69 91.9439 266.205 88.3621 265.842L88.6371 263.133C85.1633 262.781 81.5952 262.54 77.9524 262.42L77.8631 265.141C76.1231 265.084 74.3655 265.055 72.5926 265.055C70.8196 265.055 69.0621 265.084 67.3221 265.141L67.2328 262.42C63.59 262.54 60.0219 262.781 56.5481 263.133L56.8231 265.842C53.2413 266.205 49.7652 266.69 46.4175 267.285L45.9412 264.605C42.3045 265.251 38.8116 266.025 35.49 266.916L36.195 269.545C32.6704 270.49 29.3554 271.566 26.2834 272.754L25.3015 270.215C21.7582 271.585 18.512 273.107 15.6124 274.757L16.9592 277.123C13.7297 278.962 11.0074 280.936 8.83736 282.995L6.96343 281.021C4.09234 283.745 2.03454 286.677 0.931126 289.753L3.49347 290.672C2.98093 292.101 2.72222 293.543 2.72222 294.999C2.72222 296.456 2.98093 297.897 3.49347 299.326L0.931127 300.245C2.03454 303.321 4.09234 306.253 6.96343 308.978L8.83736 307.004C11.0074 309.063 13.7297 311.037 16.9592 312.875L15.6124 315.241C18.512 316.892 21.7582 318.413 25.3015 319.784L26.2834 317.245C29.3554 318.433 32.6704 319.508 36.195 320.453L35.49 323.083C38.8116 323.973 42.3045 324.748 45.9412 325.394L46.4175 322.714C49.7652 323.309 53.2413 323.793 56.8231 324.157L56.5481 326.865C60.0219 327.218 63.59 327.459 67.2328 327.578L67.3221 324.858C69.0621 324.915 70.8196 324.944 72.5926 324.944C74.3655 324.944 76.1231 324.915 77.8631 324.858L77.9524 327.578C81.5952 327.459 85.1633 327.218 88.6371 326.865L88.3621 324.157C91.9439 323.793 95.42 323.309 98.7677 322.714L99.244 325.394C102.881 324.748 106.374 323.973 109.695 323.083L108.99 320.453C112.515 319.508 115.83 318.433 118.902 317.245L119.884 319.784C123.427 318.413 126.673 316.892 129.573 315.241L128.226 312.875C131.455 311.037 134.178 309.063 136.348 307.004L138.222 308.978Z" fill="#F1FFFF" stroke="#4CC3C7" stroke-width="5.44444" stroke-dasharray="10.89 10.89"/>
<circle cx="70.7777" cy="293.185" r="14.5185" fill="#4CC3C7" stroke="#F1FFFF" stroke-width="3.62963"/>
<path fill-rule="evenodd" clip-rule="evenodd" d="M72.5921 286.188C72.5921 285.186 71.7795 284.373 70.7772 284.373C69.7749 284.373 68.9624 285.186 68.9624 286.188V291.37H63.7767C62.7744 291.37 61.9619 292.183 61.9619 293.185C61.9619 294.187 62.7744 295 63.7767 295H68.9624V300.188C68.9624 301.19 69.7749 302.003 70.7772 302.003C71.7795 302.003 72.5921 301.19 72.5921 300.188V295H77.7767C78.779 295 79.5915 294.187 79.5915 293.185C79.5915 292.183 78.779 291.37 77.7767 291.37H72.5921V286.188Z" fill="white"/>
<path d="M403.797 294.999C403.797 287.717 397.106 280.218 384.14 274.383C371.429 268.663 353.679 265.055 333.927 265.055C314.174 265.055 296.424 268.663 283.713 274.383C270.747 280.218 264.056 287.717 264.056 294.999C264.056 302.282 270.747 309.781 283.713 315.616C296.424 321.336 314.174 324.944 333.927 324.944C353.679 324.944 371.429 321.336 384.14 315.616C397.106 309.781 403.797 302.282 403.797 294.999Z" fill="#4CC3C7" stroke="#F1FFFF" stroke-width="5.44444"/>
<path d="M403.797 273.222C403.797 265.94 397.106 258.44 384.14 252.606C371.429 246.886 353.679 243.278 333.927 243.278C314.174 243.278 296.424 246.886 283.713 252.606C270.747 258.44 264.056 265.94 264.056 273.222C264.056 280.504 270.747 288.004 283.713 293.838C296.424 299.558 314.174 303.166 333.927 303.166C353.679 303.166 371.429 299.558 384.14 293.838C397.106 288.004 403.797 280.504 403.797 273.222Z" fill="#4CC3C7" stroke="#F1FFFF" stroke-width="5.44444"/>
<path d="M403.797 251.445C403.797 244.162 397.106 236.663 384.14 230.828C371.429 225.108 353.679 221.5 333.927 221.5C314.174 221.5 296.424 225.108 283.713 230.828C270.747 236.663 264.056 244.162 264.056 251.445C264.056 258.727 270.747 266.226 283.713 272.061C296.424 277.781 314.174 281.389 333.927 281.389C353.679 281.389 371.429 277.781 384.14 272.061C397.106 266.226 403.797 258.727 403.797 251.445Z" fill="#4CC3C7" stroke="#F1FFFF" stroke-width="5.44444"/>
<path d="M403.797 229.665C403.797 222.383 397.106 214.884 384.14 209.049C371.429 203.329 353.679 199.721 333.927 199.721C314.174 199.721 296.424 203.329 283.713 209.049C270.747 214.884 264.056 222.383 264.056 229.665C264.056 236.948 270.747 244.447 283.713 250.282C296.424 256.002 314.174 259.61 333.927 259.61C353.679 259.61 371.429 256.002 384.14 250.282C397.106 244.447 403.797 236.948 403.797 229.665Z" fill="#4CC3C7" stroke="#F1FFFF" stroke-width="5.44444"/>
<path d="M403.797 207.888C403.797 200.606 397.106 193.106 384.14 187.272C371.429 181.552 353.679 177.944 333.927 177.944C314.174 177.944 296.424 181.552 283.713 187.272C270.747 193.106 264.056 200.606 264.056 207.888C264.056 215.17 270.747 222.67 283.713 228.504C296.424 234.224 314.174 237.832 333.927 237.832C353.679 237.832 371.429 234.224 384.14 228.504C397.106 222.67 403.797 215.17 403.797 207.888Z" fill="#4CC3C7" stroke="#F1FFFF" stroke-width="5.44444"/>
<path d="M355.936 205.496C357.037 204.86 356.999 203.798 355.851 203.136L334.735 190.946C333.588 190.283 331.748 190.261 330.647 190.897C329.546 191.532 329.584 192.594 330.731 193.257L336.782 196.75C339.788 198.508 340.617 201.114 338.834 203.251L326.127 195.915C324.98 195.253 323.14 195.231 322.039 195.866C320.938 196.502 320.976 197.564 322.123 198.227L334.83 205.562C333.455 205.971 331.889 206.176 330.316 206.169C327.741 206.162 325.247 205.554 323.37 204.494L317.319 201C316.253 200.339 314.473 200.282 313.37 200.871C312.789 201.182 312.458 201.638 312.516 202.111L313.929 218.737C314.003 219.658 315.379 220.406 316.971 220.378C318.504 220.384 319.704 219.667 319.652 218.782C319.651 218.758 319.631 218.746 319.651 218.734L318.552 206.335L319.345 206.793C322.328 208.492 326.307 209.471 330.415 209.509C333.543 209.558 336.59 209.052 339.108 208.032L343.239 210.417C344.387 211.079 346.226 211.101 347.327 210.466C348.428 209.83 348.39 208.768 347.243 208.105L343.111 205.72C344.521 204.569 345.33 203.187 345.442 201.749L351.826 205.435C352.995 206.11 354.835 206.132 355.936 205.496Z" fill="#F1FFFF"/>
<path d="M665.13 294.999C665.13 287.717 658.439 280.218 645.473 274.383C632.762 268.663 615.012 265.055 595.26 265.055C575.507 265.055 557.757 268.663 545.046 274.383C532.08 280.218 525.389 287.717 525.389 294.999C525.389 302.282 532.08 309.781 545.046 315.616C557.757 321.336 575.507 324.944 595.26 324.944C615.012 324.944 632.762 321.336 645.473 315.616C658.439 309.781 665.13 302.282 665.13 294.999Z" fill="#4CC3C7" stroke="#F1FFFF" stroke-width="5.44444"/>
<path d="M665.13 273.222C665.13 265.94 658.439 258.44 645.473 252.606C632.762 246.886 615.012 243.278 595.26 243.278C575.507 243.278 557.757 246.886 545.046 252.606C532.08 258.44 525.389 265.94 525.389 273.222C525.389 280.504 532.08 288.004 545.046 293.838C557.757 299.558 575.507 303.166 595.26 303.166C615.012 303.166 632.762 299.558 645.473 293.838C658.439 288.004 665.13 280.504 665.13 273.222Z" fill="#4CC3C7" stroke="#F1FFFF" stroke-width="5.44444"/>
<path d="M665.13 251.445C665.13 244.162 658.439 236.663 645.473 230.828C632.762 225.108 615.012 221.5 595.26 221.5C575.507 221.5 557.757 225.108 545.046 230.828C532.08 236.663 525.389 244.162 525.389 251.445C525.389 258.727 532.08 266.226 545.046 272.061C557.757 277.781 575.507 281.389 595.26 281.389C615.012 281.389 632.762 277.781 645.473 272.061C658.439 266.226 665.13 258.727 665.13 251.445Z" fill="#4CC3C7" stroke="#F1FFFF" stroke-width="5.44444"/>
<path d="M665.13 229.665C665.13 222.383 658.439 214.884 645.473 209.049C632.762 203.329 615.012 199.721 595.26 199.721C575.507 199.721 557.757 203.329 545.046 209.049C532.08 214.884 525.389 222.383 525.389 229.665C525.389 236.948 532.08 244.447 545.046 250.282C557.757 256.002 575.507 259.61 595.26 259.61C615.012 259.61 632.762 256.002 645.473 250.282C658.439 244.447 665.13 236.948 665.13 229.665Z" fill="#4CC3C7" stroke="#F1FFFF" stroke-width="5.44444"/>
<path d="M665.13 207.888C665.13 200.606 658.439 193.106 645.473 187.272C632.762 181.552 615.012 177.944 595.26 177.944C575.507 177.944 557.757 181.552 545.046 187.272C532.08 193.106 525.389 200.606 525.389 207.888C525.389 215.17 532.08 222.67 545.046 228.504C557.757 234.224 575.507 237.832 595.26 237.832C615.012 237.832 632.762 234.224 645.473 228.504C658.439 222.67 665.13 215.17 665.13 207.888Z" fill="#4CC3C7" stroke="#F1FFFF" stroke-width="5.44444"/>
<path d="M665.13 186.111C665.13 178.828 658.439 171.329 645.473 165.494C632.762 159.774 615.012 156.166 595.26 156.166C575.507 156.166 557.757 159.774 545.046 165.494C532.08 171.329 525.389 178.828 525.389 186.111C525.389 193.393 532.08 200.892 545.046 206.727C557.757 212.447 575.507 216.055 595.26 216.055C615.012 216.055 632.762 212.447 645.473 206.727C658.439 200.892 665.13 193.393 665.13 186.111Z" fill="#4CC3C7" stroke="#F1FFFF" stroke-width="5.44444"/>
<path d="M665.13 164.333C665.13 157.051 658.439 149.552 645.473 143.717C632.762 137.997 615.012 134.389 595.26 134.389C575.507 134.389 557.757 137.997 545.046 143.717C532.08 149.552 525.389 157.051 525.389 164.333C525.389 171.616 532.08 179.115 545.046 184.95C557.757 190.67 575.507 194.278 595.26 194.278C615.012 194.278 632.762 190.67 645.473 184.95C658.439 179.115 665.13 171.616 665.13 164.333Z" fill="#4CC3C7" stroke="#F1FFFF" stroke-width="5.44444"/>
<path d="M665.13 142.554C665.13 135.272 658.439 127.772 645.473 121.938C632.762 116.218 615.012 112.61 595.26 112.61C575.507 112.61 557.757 116.218 545.046 121.938C532.08 127.772 525.389 135.272 525.389 142.554C525.389 149.836 532.08 157.336 545.046 163.17C557.757 168.89 575.507 172.498 595.26 172.498C615.012 172.498 632.762 168.89 645.473 163.17C658.439 157.336 665.13 149.836 665.13 142.554Z" fill="#4CC3C7" stroke="#F1FFFF" stroke-width="5.44444"/>
<path d="M665.13 120.777C665.13 113.495 658.439 105.995 645.473 100.16C632.762 94.4405 615.012 90.8322 595.26 90.8322C575.507 90.8322 557.757 94.4405 545.046 100.16C532.08 105.995 525.389 113.495 525.389 120.777C525.389 128.059 532.08 135.558 545.046 141.393C557.757 147.113 575.507 150.721 595.26 150.721C615.012 150.721 632.762 147.113 645.473 141.393C658.439 135.558 665.13 128.059 665.13 120.777Z" fill="#4CC3C7" stroke="#F1FFFF" stroke-width="5.44444"/>
<path d="M617.269 118.385C618.37 117.749 618.332 116.687 617.184 116.024L596.068 103.834C594.921 103.172 593.081 103.15 591.98 103.785C590.879 104.421 590.917 105.483 592.064 106.146L598.115 109.639C601.121 111.397 601.95 114.002 600.167 116.14L587.46 108.804C586.313 108.141 584.473 108.119 583.372 108.755C582.271 109.391 582.309 110.453 583.456 111.115L596.163 118.451C594.788 118.859 593.222 119.065 591.649 119.058C589.074 119.051 586.58 118.443 584.703 117.382L578.652 113.889C577.586 113.227 575.806 113.171 574.703 113.759C574.122 114.071 573.791 114.527 573.849 114.999L575.262 131.626C575.336 132.547 576.712 133.294 578.304 133.266C579.837 133.273 581.037 132.556 580.985 131.67C580.984 131.647 580.964 131.635 580.984 131.623L579.885 119.224L580.678 119.682C583.661 121.381 587.64 122.36 591.748 122.397C594.876 122.446 597.923 121.94 600.441 120.92L604.572 123.305C605.72 123.968 607.559 123.99 608.66 123.354C609.761 122.719 609.723 121.657 608.576 120.994L604.444 118.609C605.854 117.458 606.663 116.076 606.775 114.638L613.159 118.324C614.328 118.998 616.168 119.02 617.269 118.385Z" fill="#F1FFFF"/>
<path d="M926.463 294.999C926.463 287.717 919.772 280.218 906.806 274.383C894.095 268.663 876.345 265.055 856.593 265.055C836.84 265.055 819.09 268.663 806.379 274.383C793.413 280.218 786.722 287.717 786.722 294.999C786.722 302.282 793.413 309.781 806.379 315.616C819.09 321.336 836.84 324.944 856.593 324.944C876.345 324.944 894.095 321.336 906.806 315.616C919.772 309.781 926.463 302.282 926.463 294.999Z" fill="#4CC3C7" stroke="#F1FFFF" stroke-width="5.44444"/>
<path d="M926.463 273.222C926.463 265.94 919.772 258.44 906.806 252.606C894.095 246.886 876.345 243.278 856.593 243.278C836.84 243.278 819.09 246.886 806.379 252.606C793.413 258.44 786.722 265.94 786.722 273.222C786.722 280.504 793.413 288.004 806.379 293.838C819.09 299.558 836.84 303.166 856.593 303.166C876.345 303.166 894.095 299.558 906.806 293.838C919.772 288.004 926.463 280.504 926.463 273.222Z" fill="#4CC3C7" stroke="#F1FFFF" stroke-width="5.44444"/>
<path d="M926.463 251.445C926.463 244.162 919.772 236.663 906.806 230.828C894.095 225.108 876.345 221.5 856.593 221.5C836.84 221.5 819.09 225.108 806.379 230.828C793.413 236.663 786.722 244.162 786.722 251.445C786.722 258.727 793.413 266.226 806.379 272.061C819.09 277.781 836.84 281.389 856.593 281.389C876.345 281.389 894.095 277.781 906.806 272.061C919.772 266.226 926.463 258.727 926.463 251.445Z" fill="#4CC3C7" stroke="#F1FFFF" stroke-width="5.44444"/>
<path d="M926.463 229.665C926.463 222.383 919.772 214.884 906.806 209.049C894.095 203.329 876.345 199.721 856.593 199.721C836.84 199.721 819.09 203.329 806.379 209.049C793.413 214.884 786.722 222.383 786.722 229.665C786.722 236.948 793.413 244.447 806.379 250.282C819.09 256.002 836.84 259.61 856.593 259.61C876.345 259.61 894.095 256.002 906.806 250.282C919.772 244.447 926.463 236.948 926.463 229.665Z" fill="#4CC3C7" stroke="#F1FFFF" stroke-width="5.44444"/>
<path d="M926.463 207.888C926.463 200.606 919.772 193.106 906.806 187.272C894.095 181.552 876.345 177.944 856.593 177.944C836.84 177.944 819.09 181.552 806.379 187.272C793.413 193.106 786.722 200.606 786.722 207.888C786.722 215.17 793.413 222.67 806.379 228.504C819.09 234.224 836.84 237.832 856.593 237.832C876.345 237.832 894.095 234.224 906.806 228.504C919.772 222.67 926.463 215.17 926.463 207.888Z" fill="#4CC3C7" stroke="#F1FFFF" stroke-width="5.44444"/>
<path d="M926.463 186.111C926.463 178.828 919.772 171.329 906.806 165.494C894.095 159.774 876.345 156.166 856.593 156.166C836.84 156.166 819.09 159.774 806.379 165.494C793.413 171.329 786.722 178.828 786.722 186.111C786.722 193.393 793.413 200.892 806.379 206.727C819.09 212.447 836.84 216.055 856.593 216.055C876.345 216.055 894.095 212.447 906.806 206.727C919.772 200.892 926.463 193.393 926.463 186.111Z" fill="#4CC3C7" stroke="#F1FFFF" stroke-width="5.44444"/>
<path d="M926.463 164.333C926.463 157.051 919.772 149.552 906.806 143.717C894.095 137.997 876.345 134.389 856.593 134.389C836.84 134.389 819.09 137.997 806.379 143.717C793.413 149.552 786.722 157.051 786.722 164.333C786.722 171.616 793.413 179.115 806.379 184.95C819.09 190.67 836.84 194.278 856.593 194.278C876.345 194.278 894.095 190.67 906.806 184.95C919.772 179.115 926.463 171.616 926.463 164.333Z" fill="#4CC3C7" stroke="#F1FFFF" stroke-width="5.44444"/>
<path d="M926.463 142.554C926.463 135.272 919.772 127.772 906.806 121.938C894.095 116.218 876.345 112.61 856.593 112.61C836.84 112.61 819.09 116.218 806.379 121.938C793.413 127.772 786.722 135.272 786.722 142.554C786.722 149.836 793.413 157.336 806.379 163.17C819.09 168.89 836.84 172.498 856.593 172.498C876.345 172.498 894.095 168.89 906.806 163.17C919.772 157.336 926.463 149.836 926.463 142.554Z" fill="#4CC3C7" stroke="#F1FFFF" stroke-width="5.44444"/>
<path d="M926.463 120.777C926.463 113.495 919.772 105.995 906.806 100.16C894.095 94.4405 876.345 90.8322 856.593 90.8322C836.84 90.8322 819.09 94.4405 806.379 100.16C793.413 105.995 786.722 113.495 786.722 120.777C786.722 128.059 793.413 135.558 806.379 141.393C819.09 147.113 836.84 150.721 856.593 150.721C876.345 150.721 894.095 147.113 906.806 141.393C919.772 135.558 926.463 128.059 926.463 120.777Z" fill="#4CC3C7" stroke="#F1FFFF" stroke-width="5.44444"/>
<path d="M926.463 98.9993C926.463 91.7172 919.772 84.2178 906.806 78.383C894.095 72.6631 876.345 69.0549 856.593 69.0549C836.84 69.0549 819.09 72.6631 806.379 78.383C793.413 84.2178 786.722 91.7172 786.722 98.9993C786.722 106.282 793.413 113.781 806.379 119.616C819.09 125.336 836.84 128.944 856.593 128.944C876.345 128.944 894.095 125.336 906.806 119.616C919.772 113.781 926.463 106.282 926.463 98.9993Z" fill="#4CC3C7" stroke="#F1FFFF" stroke-width="5.44444"/>
<path d="M926.463 77.222C926.463 69.9398 919.772 62.4405 906.806 56.6056C894.095 50.8858 876.345 47.2776 856.593 47.2776C836.84 47.2776 819.09 50.8858 806.379 56.6056C793.413 62.4405 786.722 69.9398 786.722 77.222C786.722 84.5042 793.413 92.0036 806.379 97.8384C819.09 103.558 836.84 107.166 856.593 107.166C876.345 107.166 894.095 103.558 906.806 97.8384C919.772 92.0036 926.463 84.5042 926.463 77.222Z" fill="#4CC3C7" stroke="#F1FFFF" stroke-width="5.44444"/>
<path d="M926.463 55.4447C926.463 48.1625 919.772 40.6631 906.806 34.8283C894.095 29.1085 876.345 25.5002 856.593 25.5002C836.84 25.5002 819.09 29.1085 806.379 34.8283C793.413 40.6631 786.722 48.1625 786.722 55.4447C786.722 62.7269 793.413 70.2262 806.379 76.061C819.09 81.7809 836.84 85.3891 856.593 85.3891C876.345 85.3891 894.095 81.7809 906.806 76.061C919.772 70.2262 926.463 62.7269 926.463 55.4447Z" fill="#4CC3C7" stroke="#F1FFFF" stroke-width="5.44444"/>
<path d="M926.463 33.6654C926.463 26.3832 919.772 18.8838 906.806 13.049C894.095 7.32916 876.345 3.72092 856.593 3.72092C836.84 3.72092 819.09 7.32916 806.379 13.049C793.413 18.8838 786.722 26.3832 786.722 33.6654C786.722 40.9476 793.413 48.4469 806.379 54.2817C819.09 60.0016 836.84 63.6098 856.593 63.6098C876.345 63.6098 894.095 60.0016 906.806 54.2817C919.772 48.4469 926.463 40.9476 926.463 33.6654Z" fill="#4CC3C7" stroke="#F1FFFF" stroke-width="5.44444"/>
<path d="M878.602 31.2734C879.703 30.6378 879.665 29.5757 878.517 28.9131L857.401 16.7229C856.254 16.0604 854.414 16.0384 853.313 16.674C852.212 17.3097 852.25 18.3718 853.398 19.0343L859.448 22.5276C862.454 24.2858 863.283 26.8909 861.5 29.0283L848.793 21.6925C847.646 21.03 845.806 21.008 844.705 21.6436C843.604 22.2793 843.642 23.3414 844.789 24.0039L857.496 31.3397C856.121 31.748 854.555 31.9534 852.982 31.9464C850.407 31.9392 847.913 31.3314 846.036 30.2709L839.985 26.7776C838.919 26.1161 837.139 26.0594 836.036 26.6479C835.455 26.9594 835.124 27.4155 835.182 27.8881L836.595 44.5142C836.669 45.4352 838.045 46.183 839.637 46.1549C841.17 46.1614 842.37 45.4444 842.318 44.559C842.317 44.5354 842.297 44.5234 842.317 44.5118L841.218 32.1125L842.011 32.5703C844.994 34.2692 848.973 35.2486 853.081 35.2859C856.209 35.3351 859.256 34.8289 861.774 33.8091L865.905 36.1941C867.053 36.8567 868.892 36.8786 869.993 36.243C871.094 35.6074 871.056 34.5452 869.909 33.8827L865.777 31.4977C867.187 30.3467 867.996 28.9644 868.108 27.5265L874.492 31.2125C875.661 31.8871 877.501 31.9091 878.602 31.2734Z" fill="#F1FFFF"/>
</svg>
